<svg xmlns="http://www.w3.org/2000/svg" width="289.219" height="51.57" viewBox="0 0 289.219 51.57">
  <g id="Grupo_172444" data-name="Grupo 172444" transform="translate(-1302.219 2445.414)">
    <path id="Trazado_209030" data-name="Trazado 209030" d="M9.15-2.656h-4.7L3.633,0H-.029L5.186-14.219H8.408L13.662,0H9.98ZM5.273-5.3H8.33L6.8-10.234ZM27.012-3.779a1.408,1.408,0,0,0-.532-1.172,6.615,6.615,0,0,0-1.87-.869,17.941,17.941,0,0,1-2.187-.869q-2.764-1.357-2.764-3.73a3.345,3.345,0,0,1,.688-2.085,4.453,4.453,0,0,1,1.948-1.406,7.582,7.582,0,0,1,2.832-.5,6.632,6.632,0,0,1,2.749.547,4.352,4.352,0,0,1,1.89,1.558A4.068,4.068,0,0,1,30.439-10H27.021a1.719,1.719,0,0,0-.532-1.348,2.075,2.075,0,0,0-1.44-.479,2.339,2.339,0,0,0-1.45.405,1.243,1.243,0,0,0-.532,1.03,1.252,1.252,0,0,0,.586.991,7.389,7.389,0,0,0,2.061.918,12.623,12.623,0,0,1,2.422,1.021,4.07,4.07,0,0,1,2.3,3.662,3.472,3.472,0,0,1-1.406,2.93A6.255,6.255,0,0,1,25.176.2a7.653,7.653,0,0,1-3.13-.62,4.719,4.719,0,0,1-2.109-1.7,4.427,4.427,0,0,1-.708-2.485h3.438a2.181,2.181,0,0,0,.591,1.685,2.793,2.793,0,0,0,1.919.542,2.206,2.206,0,0,0,1.343-.366A1.209,1.209,0,0,0,27.012-3.779ZM46.846-5.811a6.789,6.789,0,0,1-1.294,4.443A4.471,4.471,0,0,1,41.9.2a4.5,4.5,0,0,1-3.672-1.572,6.779,6.779,0,0,1-1.3-4.434v-2.6a6.789,6.789,0,0,1,1.294-4.443,4.483,4.483,0,0,1,3.657-1.562,4.484,4.484,0,0,1,3.662,1.572,6.8,6.8,0,0,1,1.3,4.443ZM43.555-8.828a5.071,5.071,0,0,0-.4-2.29,1.338,1.338,0,0,0-1.27-.757,1.307,1.307,0,0,0-1.235.7,4.777,4.777,0,0,0-.415,2.129V-5.41a5.109,5.109,0,0,0,.4,2.329,1.343,1.343,0,0,0,1.27.737,1.325,1.325,0,0,0,1.24-.718,4.878,4.878,0,0,0,.41-2.251ZM63.408-5.811a6.789,6.789,0,0,1-1.294,4.443A4.471,4.471,0,0,1,58.467.2a4.5,4.5,0,0,1-3.672-1.572,6.779,6.779,0,0,1-1.3-4.434v-2.6a6.789,6.789,0,0,1,1.294-4.443,4.483,4.483,0,0,1,3.657-1.562,4.484,4.484,0,0,1,3.662,1.572,6.8,6.8,0,0,1,1.3,4.443ZM60.117-8.828a5.071,5.071,0,0,0-.4-2.29,1.338,1.338,0,0,0-1.27-.757,1.307,1.307,0,0,0-1.235.7A4.777,4.777,0,0,0,56.8-9.043V-5.41a5.109,5.109,0,0,0,.4,2.329,1.343,1.343,0,0,0,1.27.737,1.325,1.325,0,0,0,1.24-.718,4.878,4.878,0,0,0,.41-2.251ZM77.393,0h-3.3V-10.508l-3.242.947v-2.5l6.24-2.158h.3Z" transform="translate(1378 -2431)" fill="#12263f"/>
    <path id="Trazado_209031" data-name="Trazado 209031" d="M7.6-2.977H2.836L1.766,0H.219L4.563-11.375H5.875L10.227,0H8.688ZM3.289-4.2H7.156L5.219-9.523ZM12.9-8.453l.047,1.063a3.08,3.08,0,0,1,2.531-1.219q2.68,0,2.7,3.023V0H16.734V-5.594a1.946,1.946,0,0,0-.418-1.352,1.675,1.675,0,0,0-1.277-.437,2.086,2.086,0,0,0-1.234.375,2.546,2.546,0,0,0-.828.984V0H11.531V-8.453Zm4.781-3.3a1.942,1.942,0,0,1-.48,1.367,1.561,1.561,0,0,1-1.2.523,1.76,1.76,0,0,1-.555-.078,2.993,2.993,0,0,1-.613-.32,2.656,2.656,0,0,0-.547-.293A1.338,1.338,0,0,0,13.9-10.6a.717.717,0,0,0-.547.246.892.892,0,0,0-.227.629l-.969-.055a2.039,2.039,0,0,1,.473-1.383,1.516,1.516,0,0,1,1.2-.547,1.457,1.457,0,0,1,.492.078,3.587,3.587,0,0,1,.594.3,3.494,3.494,0,0,0,.574.3,1.319,1.319,0,0,0,.441.07.7.7,0,0,0,.559-.266.932.932,0,0,0,.223-.617Zm2.3,7.445a4.993,4.993,0,0,1,.488-2.234A3.643,3.643,0,0,1,21.824-8.07a3.7,3.7,0,0,1,1.988-.539,3.565,3.565,0,0,1,2.793,1.2,4.6,4.6,0,0,1,1.066,3.18v.1A5.036,5.036,0,0,1,27.2-1.918,3.589,3.589,0,0,1,25.848-.391a3.743,3.743,0,0,1-2.02.547,3.556,3.556,0,0,1-2.785-1.2A4.575,4.575,0,0,1,19.977-4.2Zm1.453.172a3.616,3.616,0,0,0,.652,2.258,2.088,2.088,0,0,0,1.746.852,2.075,2.075,0,0,0,1.75-.863A3.955,3.955,0,0,0,26.227-4.3a3.61,3.61,0,0,0-.66-2.254,2.1,2.1,0,0,0-1.754-.863,2.075,2.075,0,0,0-1.727.852A3.925,3.925,0,0,0,21.43-4.133Z" transform="translate(1302 -2405)" fill="#12263f"/>
    <path id="Trazado_209032" data-name="Trazado 209032" d="M3.258-11.375,6.977-2.094,10.7-11.375h1.945V0h-1.5V-4.43l.141-4.781L7.547,0H6.4L2.672-9.187,2.82-4.43V0H1.32V-11.375ZM18.57.156a3.693,3.693,0,0,1-2.8-1.129A4.19,4.19,0,0,1,14.7-3.992v-.266a5.073,5.073,0,0,1,.48-2.246A3.748,3.748,0,0,1,16.52-8.051a3.378,3.378,0,0,1,1.871-.559,3.166,3.166,0,0,1,2.563,1.086,4.7,4.7,0,0,1,.914,3.109v.6H16.141a3,3,0,0,0,.73,2.02,2.3,2.3,0,0,0,1.777.77,2.517,2.517,0,0,0,1.3-.312,3.259,3.259,0,0,0,.93-.828l.883.688A3.55,3.55,0,0,1,18.57.156Zm-.18-7.578a1.928,1.928,0,0,0-1.469.637A3.1,3.1,0,0,0,16.188-5h4.234v-.109a2.753,2.753,0,0,0-.594-1.707A1.815,1.815,0,0,0,18.391-7.422Zm10.07,5.18a1.064,1.064,0,0,0-.441-.91,4.249,4.249,0,0,0-1.539-.559,7.277,7.277,0,0,1-1.742-.562,2.479,2.479,0,0,1-.953-.781,1.869,1.869,0,0,1-.309-1.078,2.193,2.193,0,0,1,.879-1.758A3.432,3.432,0,0,1,26.6-8.609a3.532,3.532,0,0,1,2.332.742,2.357,2.357,0,0,1,.895,1.9H28.375a1.3,1.3,0,0,0-.5-1.023,1.888,1.888,0,0,0-1.27-.43,1.976,1.976,0,0,0-1.234.344,1.082,1.082,0,0,0-.445.9.877.877,0,0,0,.414.789,5.1,5.1,0,0,0,1.5.508,7.8,7.8,0,0,1,1.754.578,2.558,2.558,0,0,1,1,.809,1.988,1.988,0,0,1,.324,1.152A2.163,2.163,0,0,1,29-.527a3.8,3.8,0,0,1-2.352.684,4.257,4.257,0,0,1-1.8-.359,2.922,2.922,0,0,1-1.223-1A2.42,2.42,0,0,1,23.188-2.6h1.445a1.5,1.5,0,0,0,.582,1.152,2.258,2.258,0,0,0,1.434.426,2.331,2.331,0,0,0,1.316-.332A1.02,1.02,0,0,0,28.461-2.242Z" transform="translate(1387 -2394)" fill="#12263f"/>
    <path id="Trazado_209033" data-name="Trazado 209033" d="M9.688-3.609A4.185,4.185,0,0,1,8.355-.824a4.365,4.365,0,0,1-2.98.98,4.008,4.008,0,0,1-3.23-1.445A5.815,5.815,0,0,1,.93-5.156V-6.25A6.481,6.481,0,0,1,1.5-9.039,4.231,4.231,0,0,1,3.1-10.887a4.47,4.47,0,0,1,2.406-.645A4.11,4.11,0,0,1,8.414-10.52a4.235,4.235,0,0,1,1.273,2.8H8.18a3.268,3.268,0,0,0-.848-1.975A2.565,2.565,0,0,0,5.508-10.3,2.684,2.684,0,0,0,3.254-9.241a4.882,4.882,0,0,0-.816,3.026v1.1a5.018,5.018,0,0,0,.773,2.948A2.5,2.5,0,0,0,5.375-1.07a2.887,2.887,0,0,0,1.918-.566A3.143,3.143,0,0,0,8.18-3.609Zm1.438-.7a4.993,4.993,0,0,1,.488-2.234A3.643,3.643,0,0,1,12.973-8.07a3.7,3.7,0,0,1,1.988-.539,3.565,3.565,0,0,1,2.793,1.2,4.6,4.6,0,0,1,1.066,3.18v.1a5.036,5.036,0,0,1-.473,2.215A3.589,3.589,0,0,1,17-.391a3.743,3.743,0,0,1-2.02.547,3.556,3.556,0,0,1-2.785-1.2A4.575,4.575,0,0,1,11.125-4.2Zm1.453.172a3.616,3.616,0,0,0,.652,2.258,2.088,2.088,0,0,0,1.746.852,2.075,2.075,0,0,0,1.75-.863A3.955,3.955,0,0,0,17.375-4.3a3.61,3.61,0,0,0-.66-2.254,2.1,2.1,0,0,0-1.754-.863,2.075,2.075,0,0,0-1.727.852A3.925,3.925,0,0,0,12.578-4.133ZM22-8.453l.047,1.063a3.08,3.08,0,0,1,2.531-1.219q2.68,0,2.7,3.023V0H25.836V-5.594a1.946,1.946,0,0,0-.418-1.352,1.675,1.675,0,0,0-1.277-.437,2.086,2.086,0,0,0-1.234.375,2.546,2.546,0,0,0-.828.984V0H20.633V-8.453ZM34.383-2.242a1.064,1.064,0,0,0-.441-.91A4.249,4.249,0,0,0,32.4-3.711a7.277,7.277,0,0,1-1.742-.562,2.479,2.479,0,0,1-.953-.781A1.869,1.869,0,0,1,29.4-6.133a2.193,2.193,0,0,1,.879-1.758,3.432,3.432,0,0,1,2.246-.719,3.532,3.532,0,0,1,2.332.742,2.357,2.357,0,0,1,.895,1.9H34.3a1.3,1.3,0,0,0-.5-1.023,1.888,1.888,0,0,0-1.27-.43,1.976,1.976,0,0,0-1.234.344,1.082,1.082,0,0,0-.445.9.877.877,0,0,0,.414.789,5.1,5.1,0,0,0,1.5.508,7.8,7.8,0,0,1,1.754.578,2.558,2.558,0,0,1,1,.809,1.988,1.988,0,0,1,.324,1.152,2.163,2.163,0,0,1-.906,1.816A3.8,3.8,0,0,1,32.57.156a4.257,4.257,0,0,1-1.8-.359,2.922,2.922,0,0,1-1.223-1A2.42,2.42,0,0,1,29.109-2.6h1.445a1.5,1.5,0,0,0,.582,1.152,2.258,2.258,0,0,0,1.434.426,2.331,2.331,0,0,0,1.316-.332A1.02,1.02,0,0,0,34.383-2.242Zm6.836,2.4a3.693,3.693,0,0,1-2.8-1.129,4.19,4.19,0,0,1-1.078-3.02v-.266a5.073,5.073,0,0,1,.48-2.246,3.748,3.748,0,0,1,1.344-1.547,3.378,3.378,0,0,1,1.871-.559A3.166,3.166,0,0,1,43.6-7.523a4.7,4.7,0,0,1,.914,3.109v.6H38.789a3,3,0,0,0,.73,2.02,2.3,2.3,0,0,0,1.777.77,2.517,2.517,0,0,0,1.3-.312,3.259,3.259,0,0,0,.93-.828l.883.688A3.55,3.55,0,0,1,41.219.156Zm-.18-7.578a1.928,1.928,0,0,0-1.469.637A3.1,3.1,0,0,0,38.836-5H43.07v-.109a2.753,2.753,0,0,0-.594-1.707A1.815,1.815,0,0,0,41.039-7.422Zm8.539,6.4a2.082,2.082,0,0,0,1.352-.469,1.649,1.649,0,0,0,.641-1.172h1.367a2.621,2.621,0,0,1-.5,1.383,3.293,3.293,0,0,1-1.23,1.047,3.55,3.55,0,0,1-1.629.391A3.482,3.482,0,0,1,46.832-1a4.59,4.59,0,0,1-1.02-3.152v-.242a5.089,5.089,0,0,1,.453-2.2,3.451,3.451,0,0,1,1.3-1.492,3.7,3.7,0,0,1,2-.531,3.39,3.39,0,0,1,2.363.852,3.043,3.043,0,0,1,1,2.211H51.57a1.992,1.992,0,0,0-.621-1.348,1.932,1.932,0,0,0-1.379-.527,2.023,2.023,0,0,0-1.707.793,3.724,3.724,0,0,0-.605,2.293v.273a3.65,3.65,0,0,0,.6,2.25A2.033,2.033,0,0,0,49.578-1.023Zm10.2.188A3.07,3.07,0,0,1,57.3.156a2.628,2.628,0,0,1-2.059-.785,3.4,3.4,0,0,1-.715-2.324v-5.5h1.445v5.461q0,1.922,1.563,1.922a2.163,2.163,0,0,0,2.2-1.234V-8.453h1.445V0H59.813ZM65.344-10.5v2.047h1.578v1.117H65.344v5.249a1.173,1.173,0,0,0,.211.763.888.888,0,0,0,.719.254,3.5,3.5,0,0,0,.688-.094V0a4.215,4.215,0,0,1-1.109.155A1.8,1.8,0,0,1,64.391-.43,2.517,2.517,0,0,1,63.9-2.094V-7.336H62.359V-8.453H63.9V-10.5ZM70.18,0H68.734V-8.453H70.18ZM68.617-10.7a.863.863,0,0,1,.215-.594.807.807,0,0,1,.637-.242.819.819,0,0,1,.641.242.854.854,0,0,1,.219.594.826.826,0,0,1-.219.586.834.834,0,0,1-.641.234.821.821,0,0,1-.637-.234A.834.834,0,0,1,68.617-10.7Zm6.664,8.734,2.094-6.492h1.477L75.82,0h-1.1L71.656-8.453h1.477ZM79.742-4.3a4.993,4.993,0,0,1,.488-2.234A3.643,3.643,0,0,1,81.59-8.07a3.7,3.7,0,0,1,1.988-.539,3.565,3.565,0,0,1,2.793,1.2,4.6,4.6,0,0,1,1.066,3.18v.1a5.036,5.036,0,0,1-.473,2.215A3.589,3.589,0,0,1,85.613-.391a3.743,3.743,0,0,1-2.02.547,3.556,3.556,0,0,1-2.785-1.2A4.575,4.575,0,0,1,79.742-4.2Zm1.453.172a3.616,3.616,0,0,0,.652,2.258,2.088,2.088,0,0,0,1.746.852,2.075,2.075,0,0,0,1.75-.863A3.955,3.955,0,0,0,85.992-4.3a3.61,3.61,0,0,0-.66-2.254,2.1,2.1,0,0,0-1.754-.863,2.075,2.075,0,0,0-1.727.852A3.925,3.925,0,0,0,81.2-4.133Z" transform="translate(1504 -2403)" fill="#12263f"/>
    <g id="Grupo_172144" data-name="Grupo 172144" transform="translate(727.643 -5966.289)">
      <g id="Grupo_157041" data-name="Grupo 157041" transform="translate(74.217 3370.569)">
        <path id="Trazado_162177" data-name="Trazado 162177" d="M595.07,181.93l4.79,8.29,4.78-8.29Z" fill="#7e5ee3"/>
      </g>
      <line id="Línea_428" data-name="Línea 428" y2="19.711" transform="translate(673.787 3539.789)" fill="none" stroke="#7e5ee3" stroke-width="2"/>
    </g>
    <g id="Grupo_172145" data-name="Grupo 172145" transform="translate(4417.458 -4315.34) rotate(69)">
      <g id="Grupo_157041-2" data-name="Grupo 157041" transform="translate(74.217 3370.569)">
        <path id="Trazado_162177-2" data-name="Trazado 162177" d="M595.07,181.93l4.79,8.29,4.78-8.29Z" fill="#7e5ee3"/>
      </g>
      <line id="Línea_428-2" data-name="Línea 428" y2="36.211" transform="translate(673.787 3516.289)" fill="none" stroke="#7e5ee3" stroke-width="2"/>
    </g>
    <g id="Grupo_172146" data-name="Grupo 172146" transform="translate(1500.904 -2414.434) rotate(111)">
      <g id="Grupo_157041-3" data-name="Grupo 157041" transform="translate(0 0)">
        <path id="Trazado_162177-3" data-name="Trazado 162177" d="M0,8.29,4.79,0,9.57,8.29Z" fill="#7e5ee3"/>
      </g>
      <line id="Línea_428-3" data-name="Línea 428" y1="36.211" transform="translate(4.5 8.289)" fill="none" stroke="#7e5ee3" stroke-width="2"/>
    </g>
  </g>
</svg>
