<svg xmlns="http://www.w3.org/2000/svg" width="128" height="128" viewBox="0 0 128 128">
  <g id="Grupo_172436" data-name="Grupo 172436" transform="translate(-878 -10717.699)">
    <path id="Unión_4" data-name="Unión 4" d="M10871,11722.412a64,64,0,1,1-64,64A64,64,0,0,1,10871,11722.412Z" transform="translate(-9929 -1004.713)" fill="#7e63e0"/>
    <g id="Grupo_171836" data-name="Grupo 171836" transform="translate(901.344 10636.126)">
      <path id="Trazado_207889" data-name="Trazado 207889" d="M292.416,103.972l-1.771-1.182a6.065,6.065,0,0,0-6.621,0l-10.982,7.321h-9.289a2.777,2.777,0,0,0-2.774-2.774H258.2a2.777,2.777,0,0,0-2.774,2.774v8.578a4.156,4.156,0,0,0-2.774,3.906v9.71h2.774V122.6a1.367,1.367,0,0,1,.135-.577,2.769,2.769,0,0,0,2.64,1.964h2.774a2.777,2.777,0,0,0,2.774-2.774h9.289l10.98,7.32a5.967,5.967,0,0,0,6.622,0l1.771-1.182a4.151,4.151,0,0,0,1.853-3.461V107.434a4.156,4.156,0,0,0-1.853-3.462Zm-31.437,17.236H258.2v-11.1h2.776Zm2.774-2.774v-5.548h2.774v2.774H269.3v-2.774h2.774v2.774h2.774V112.24l10.712-7.141a3.246,3.246,0,0,1,3.544,0l1.771,1.182a1.383,1.383,0,0,1,.617,1.153v8.381a6.266,6.266,0,0,0-2.751,1.566,3.113,3.113,0,0,1-4.668,0,5.839,5.839,0,0,0-8.28,0,3.137,3.137,0,0,1-2.335,1.053Zm27.125,6.605-1.771,1.182a3.246,3.246,0,0,1-3.544,0l-8.941-5.962a11.473,11.473,0,0,0,.983-.771,3.112,3.112,0,0,1,4.668,0,5.835,5.835,0,0,0,8.277,0,6.162,6.162,0,0,1,.945-.709v5.107A1.382,1.382,0,0,1,290.877,125.039Z" transform="translate(-211.613 0)" fill="#fff"/>
      <path id="Trazado_207890" data-name="Trazado 207890" d="M3.591,134.346H27.172a2.777,2.777,0,0,0,2.774,2.774H32.72a2.769,2.769,0,0,0,2.64-1.964,1.367,1.367,0,0,1,.135.577v9.71h2.774v-9.71a4.156,4.156,0,0,0-2.774-3.906V120.475A2.777,2.777,0,0,0,32.72,117.7H29.946a2.777,2.777,0,0,0-2.774,2.774H3.591a6.935,6.935,0,1,0,0,13.871Zm26.355-13.871H32.72v13.871H29.946ZM3.591,123.249H4.979V128.8H7.753v-5.548h2.774v2.774H13.3v-2.774h2.774V128.8h2.774v-5.548h2.774v2.774H24.4v-2.774h2.774v8.323H3.591a4.161,4.161,0,1,1,0-8.323Z" transform="translate(0 -13.138)" fill="#fff"/>
      <path id="Trazado_207891" data-name="Trazado 207891" d="M240.817,517.7a4.161,4.161,0,1,0,4.161,4.161A4.166,4.166,0,0,0,240.817,517.7Zm0,5.548a1.387,1.387,0,1,1,1.387-1.387A1.389,1.389,0,0,1,240.817,523.249Z" transform="translate(-198.387 -343.784)" fill="#fff"/>
      <path id="Trazado_207892" data-name="Trazado 207892" d="M256.817,437.7a4.161,4.161,0,1,0,4.161,4.161A4.166,4.166,0,0,0,256.817,437.7Zm0,5.548a1.387,1.387,0,1,1,1.387-1.387A1.389,1.389,0,0,1,256.817,443.249Z" transform="translate(-211.613 -277.655)" fill="#fff"/>
      <path id="Trazado_207893" data-name="Trazado 207893" d="M12.656,239.411a9.71,9.71,0,1,0,9.71-9.71A9.72,9.72,0,0,0,12.656,239.411Zm16.645,0a6.935,6.935,0,1,1-6.935-6.935A6.943,6.943,0,0,1,29.3,239.411Z" transform="translate(-13.226 -105.719)" fill="#fff"/>
      <path id="Trazado_207894" data-name="Trazado 207894" d="M68.656,264.475a1.389,1.389,0,0,1,1.387,1.387h2.774a4.166,4.166,0,0,0-4.161-4.161Z" transform="translate(-59.516 -132.171)" fill="#fff"/>
      <path id="Trazado_207895" data-name="Trazado 207895" d="M96.817,517.7a4.161,4.161,0,1,0,4.161,4.161A4.166,4.166,0,0,0,96.817,517.7Zm0,5.548a1.387,1.387,0,1,1,1.387-1.387A1.389,1.389,0,0,1,96.817,523.249Z" transform="translate(-79.355 -343.784)" fill="#fff"/>
      <path id="Trazado_207896" data-name="Trazado 207896" d="M77.787,290.873a6.915,6.915,0,0,0-6.314-11.717,9.72,9.72,0,0,0-8.739-8.443,8.3,8.3,0,0,0-7.82-11.141,8.4,8.4,0,0,0-1.508.136,6.918,6.918,0,0,0-4.041-11.093V245.7H46.591v8.323h2.774V251.5a4.142,4.142,0,0,1,1.748,6.639,8.3,8.3,0,0,0-11.457,2.386A8.3,8.3,0,0,0,28.2,258.143a4.142,4.142,0,0,1,1.748-6.639v2.519H32.72V245.7H29.946v2.914a6.918,6.918,0,0,0-4.041,11.093,8.331,8.331,0,0,0-9.83,8.187,8.264,8.264,0,0,0,.5,2.819,9.718,9.718,0,0,0-8.739,8.443,6.919,6.919,0,0,0-6.314,11.717,8.3,8.3,0,0,0,3.454,15.86H74.333a8.3,8.3,0,0,0,3.454-15.86Zm-.68-4.946a4.149,4.149,0,0,1-1.484,3.186A9.715,9.715,0,0,0,69,284.682a4.149,4.149,0,0,1,8.112,1.244ZM46.591,259.572a5.554,5.554,0,0,1,5.548,5.548h2.774a8.244,8.244,0,0,0-.47-2.731c.157-.014.311-.043.47-.043a5.531,5.531,0,0,1,2.774,10.326v-2a2.777,2.777,0,0,0-2.774-2.774H41.043V265.12A5.554,5.554,0,0,1,46.591,259.572ZM24.4,276.472v7.811a4.136,4.136,0,0,1,0-7.811Zm0-3.029v-2.774H54.914v2.774H24.4Zm30.516,3.029a4.137,4.137,0,0,1,0,7.812ZM24.4,262.346c.16,0,.313.029.47.043a8.245,8.245,0,0,0-.47,2.731h2.774a5.548,5.548,0,0,1,11.1,0v2.774H24.4a2.777,2.777,0,0,0-2.774,2.774v2A5.531,5.531,0,0,1,24.4,262.346ZM6.366,281.765a4.133,4.133,0,0,1,3.935,2.92,9.715,9.715,0,0,0-6.612,4.429,4.162,4.162,0,0,1,2.677-7.349ZM-.57,298.411A5.56,5.56,0,0,1,2.238,293.6c-.015.216-.033.431-.033.652a9.814,9.814,0,0,0,.135,1.617l2.737-.461a6.829,6.829,0,0,1-.1-1.157,6.938,6.938,0,0,1,10.4-6.009l1.39-2.4a9.685,9.685,0,0,0-3.6-1.218,6.919,6.919,0,0,0-2.641-4.207c0-.012,0-.025,0-.037a6.943,6.943,0,0,1,6.935-6.935,6.961,6.961,0,0,1,.816.072,8.37,8.37,0,0,0,2.642,1.931A6.927,6.927,0,0,0,24.4,287.174V299.8a6.864,6.864,0,0,0,1.423,4.161H4.979A5.554,5.554,0,0,1-.57,298.411Zm31.9,5.548a4.166,4.166,0,0,1-4.161-4.161v-1.387H32.72v-2.774H27.172v-2.774h8.323v-2.774H27.172v-2.774H32.72V284.54H27.172v-2.774h8.323v-2.774H27.172v-2.774H52.14V299.8a4.166,4.166,0,0,1-4.161,4.161Zm43,0H53.491a6.864,6.864,0,0,0,1.423-4.161V287.174a6.927,6.927,0,0,0,3.477-11.728,8.328,8.328,0,0,0,2.642-1.931,6.752,6.752,0,0,1,7.751,6.863c0,.012,0,.025,0,.037a6.925,6.925,0,0,0-2.641,4.207,9.685,9.685,0,0,0-3.6,1.218l1.39,2.4a6.941,6.941,0,0,1,10.306,7.166l2.737.461a9.966,9.966,0,0,0,.133-1.617c0-.221-.018-.436-.033-.652a5.542,5.542,0,0,1-2.741,10.362Z" transform="translate(0 -118.945)" fill="#fff"/>
      <path id="Trazado_207897" data-name="Trazado 207897" d="M352.817,517.7a4.161,4.161,0,1,0,4.161,4.161A4.166,4.166,0,0,0,352.817,517.7Zm0,5.548a1.387,1.387,0,1,1,1.387-1.387A1.389,1.389,0,0,1,352.817,523.249Z" transform="translate(-290.968 -343.784)" fill="#fff"/>
      <path id="Trazado_207898" data-name="Trazado 207898" d="M419.591,317.7a6.935,6.935,0,1,0,6.935,6.935A6.943,6.943,0,0,0,419.591,317.7Zm0,11.1a4.161,4.161,0,1,1,4.161-4.161A4.166,4.166,0,0,1,419.591,328.8Z" transform="translate(-343.871 -178.461)" fill="#fff"/>
      <path id="Trazado_207899" data-name="Trazado 207899" d="M356.979,265.862a4.161,4.161,0,1,0-4.161,4.161A4.166,4.166,0,0,0,356.979,265.862Zm-5.548,0a1.387,1.387,0,1,1,1.387,1.387A1.389,1.389,0,0,1,351.43,265.862Z" transform="translate(-290.968 -132.171)" fill="#fff"/>
    </g>
  </g>
</svg>
