<svg xmlns="http://www.w3.org/2000/svg" xmlns:xlink="http://www.w3.org/1999/xlink" width="400" height="302" viewBox="0 0 400 302">
  <defs>
    <clipPath id="clip-path">
      <rect id="Rect치ngulo_49907" data-name="Rect치ngulo 49907" width="400" height="302" transform="translate(-2603 -2887)" fill="#fff"/>
    </clipPath>
    <clipPath id="clip-path-2">
      <rect id="Rect치ngulo_32275" data-name="Rect치ngulo 32275" width="298" height="438" transform="translate(0.333)" fill="#fff" stroke="#707070" stroke-width="1" opacity="0.325"/>
    </clipPath>
    <linearGradient id="linear-gradient" x1="-2.095" y1="8.023" x2="-1.586" y2="8.023" gradientUnits="objectBoundingBox">
      <stop offset="0" stop-color="#f0f0f0"/>
      <stop offset="0.09" stop-color="#e1e1e1"/>
      <stop offset="0.39" stop-color="#f3f2f2"/>
      <stop offset="0.59" stop-color="#fcfcfc"/>
      <stop offset="0.73" stop-color="#f2f2f2"/>
      <stop offset="0.89" stop-color="#e8e8e8"/>
      <stop offset="1" stop-color="#ebebeb"/>
    </linearGradient>
    <linearGradient id="linear-gradient-2" x1="-2.131" y1="159.147" x2="-1.622" y2="159.147" gradientUnits="objectBoundingBox">
      <stop offset="0" stop-color="#e1e1e1"/>
      <stop offset="0.09" stop-color="#d3d3d3"/>
      <stop offset="0.33" stop-color="#e3e2e2"/>
      <stop offset="0.62" stop-color="#ececec"/>
      <stop offset="0.87" stop-color="#cfcfcf"/>
      <stop offset="1" stop-color="#dcdcdc"/>
    </linearGradient>
    <linearGradient id="linear-gradient-3" x1="-2.568" y1="18.129" x2="-2.059" y2="18.129" gradientUnits="objectBoundingBox">
      <stop offset="0" stop-color="#1d1d1b"/>
      <stop offset="0.13" stop-color="#333"/>
      <stop offset="0.16" stop-color="#d9dada"/>
      <stop offset="0.32" stop-color="#e6e6e6"/>
      <stop offset="0.36" stop-color="#333"/>
      <stop offset="0.57" stop-color="#333"/>
      <stop offset="0.63" stop-color="#e3e3e5"/>
      <stop offset="0.93" stop-color="#fff"/>
      <stop offset="1" stop-color="#333"/>
    </linearGradient>
    <linearGradient id="linear-gradient-4" x1="-10.479" y1="5.46" x2="-8.746" y2="9.196" gradientUnits="objectBoundingBox">
      <stop offset="0.16" stop-color="#ededed"/>
      <stop offset="0.84" stop-color="#f2f2f2"/>
    </linearGradient>
    <linearGradient id="linear-gradient-5" x1="-6.759" y1="7.145" x2="-5.391" y2="7.145" gradientUnits="objectBoundingBox">
      <stop offset="0.05" stop-color="#e6e6e6"/>
      <stop offset="0.95" stop-color="#ededed"/>
    </linearGradient>
    <linearGradient id="linear-gradient-6" x1="-0.721" y1="82.012" x2="0.947" y2="82.012" gradientUnits="objectBoundingBox">
      <stop offset="0.01" stop-color="#e6e6e6"/>
      <stop offset="0.99" stop-color="#ededed"/>
    </linearGradient>
  </defs>
  <g id="Enmascarar_grupo_99" data-name="Enmascarar grupo 99" transform="translate(2603 2887)" clip-path="url(#clip-path)">
    <g id="Grupo_67" data-name="Grupo 67" transform="translate(-2202 -2883.333) rotate(90)" clip-path="url(#clip-path-2)">
      <path id="Trazado_108698" data-name="Trazado 108698" d="M0,63.365a334.489,334.489,0,0,0,69.788,113.2C163.669,276.943,314.071,313.8,453.707,302.882c72.008-5.631,143.938-22.473,215.71-14.5s146.642,49.374,162.772,117.356c8.159,34.387.325,70.873,8.285,105.3s43.926,68.313,77.561,54.514c27.342-11.219,38.437-48.324,67.6-53.793,26.087-4.891,49.182,21.019,51.808,46.546s-8.428,50.226-16.6,74.639C999.541,696.62,997.441,767.318,1022,829.891s77.267,115.8,143.379,135.9c22.241,6.764,46.379,9.776,68.881,3.872,42.434-11.132,70.458-52.055,79.254-93.646s2.27-84.555-2.045-126.8a1202.7,1202.7,0,0,1,15.5-349.323c11.916-61.833,28.6-126.338,9.335-186.419-25.592-79.834-107.793-129.689-188.933-158.825C975.6-7.031,786.814-6.914,604.263,8.816S239.855,55.1,0,63.365Z" transform="translate(-998.968 -575.738)" fill="#81d4fa" opacity="0.418"/>
    </g>
    <path id="Trazado_208100" data-name="Trazado 208100" d="M1233.843,339.822a10.961,10.961,0,0,1,.193,2.049v86.3a11.037,11.037,0,0,1-11.005,11.005H1089.9a11.037,11.037,0,0,1-11.005-11.005v-86.3a11,11,0,0,1,.193-2.049Z" transform="translate(-3656.293 -3024.181)" fill-rule="evenodd" fill="url(#linear-gradient)"/>
    <path id="Trazado_208101" data-name="Trazado 208101" d="M1082.986,505.432h150.443a11,11,0,0,1-8.657,4.231H1091.643a11,11,0,0,1-8.657-4.231Z" transform="translate(-3658.033 -3094.662)" fill-rule="evenodd" fill="url(#linear-gradient-2)"/>
    <path id="Trazado_208102" data-name="Trazado 208102" d="M1078.89,337.369h155.094V339.8H1078.89v-2.429Z" transform="translate(-3656.29 -3023.137)" fill="#ededed" fill-rule="evenodd"/>
    <path id="Trazado_208103" data-name="Trazado 208103" d="M1078.89,334.138h155.094v2.429H1078.89v-2.429Z" transform="translate(-3656.29 -3021.762)" fill="#dadada" fill-rule="evenodd"/>
    <path id="Trazado_208104" data-name="Trazado 208104" d="M1234.036,303.423v-33.8a10.276,10.276,0,0,0-10.246-10.246H1089.144a10.276,10.276,0,0,0-10.246,10.246v33.8Z" transform="translate(-3656.293 -2989.945)" fill-rule="evenodd" fill="url(#linear-gradient-3)"/>
    <path id="Trazado_208105" data-name="Trazado 208105" d="M1106.651,359.33h112.964v-8.616H1106.651v8.616Z" transform="translate(-3668.105 -3028.816)" fill="#bde6e6" fill-rule="evenodd"/>
    <ellipse id="Elipse_5608" data-name="Elipse 5608" cx="18.091" cy="18.414" rx="18.091" ry="18.414" transform="translate(-2544.372 -2618.708) rotate(-56.222)" fill="#bde6e6"/>
    <g id="Grupo_171948" data-name="Grupo 171948" transform="translate(-2542.411 -2663.739)">
      <g id="Grupo_171947" data-name="Grupo 171947" transform="translate(45.509)">
        <path id="Trazado_208106" data-name="Trazado 208106" d="M1242.671,392.694c-3.463,2.086-10.442,5.231-14.487,3.41-1.105-.5-1.552-9.187-2.017-10.968-.81-3.109-2.014-8.94-5.821-9.414-.64-.08-1.986,1.157-.916,2.025a1.119,1.119,0,0,1,.873-1.784c3.583.6,4.615,6.355,5.328,9.348.532,2.232.476,10.664,2.228,11.479,4.359,2.028,11.554-1.069,15.346-3.294a.482.482,0,0,0-.534-.8Z" transform="translate(-1219.031 -375.719)" fill="#4d4d4d" fill-rule="evenodd"/>
        <path id="Trazado_208107" data-name="Trazado 208107" d="M1244.993,393.11c-3.9-.454-3.308-.7-7.293.148-3.95.845-4.876-4.928-6.255-7.876-1.174-2.509-3.615-7.505-6.826-7.62h.01c-.216-.022-.191-.095-.395.009h0c.269.032.2.075.379.1,3.03.454,5.213,5.254,6.3,7.748,1.5,3.435,2.248,9.371,7.015,8.443,3.824-.744,3.215-.5,6.984.005a.482.482,0,0,0,.081-.96Z" transform="translate(-1221.246 -376.569)" fill="#4d4d4d" fill-rule="evenodd"/>
        <path id="Trazado_208108" data-name="Trazado 208108" d="M1250.359,397.741c-.451-.668-2.115-2.631-3.171-2.433-1.078-.407-1.578-1.419-3.529-1.817a14.744,14.744,0,0,1-7.549-3.953.793.793,0,0,0-.543-.319,2.056,2.056,0,0,1,.4.428c1.522,2.334,5.074,3.912,7.68,4.56,1.345.334,2.622,1.8,3.44,1.935a4.006,4.006,0,0,1,2.467,2.128.482.482,0,0,0,.807-.528Zm-3.215-2.423a.72.72,0,0,0-.18.071.423.423,0,0,1,.18-.071Z" transform="translate(-1226.068 -381.464)" fill="#4d4d4d" fill-rule="evenodd"/>
        <path id="Trazado_208109" data-name="Trazado 208109" d="M1249.215,394.081c-1.535-4.451-3.281-9.8-6.92-13.058-1.5-1.345-1.788-.384-3.34.2-1.839.693-5.664,1.3-7.4.5,1.159,1.241,5.928.546,7.57-.01,1.556-.527,1.571-1.339,2.744-.226,3.424,3.249,5.024,8.556,6.426,12.886a.482.482,0,1,0,.916-.3Z" transform="translate(-1224.363 -377.686)" fill="#4d4d4d" fill-rule="evenodd"/>
        <path id="Trazado_208110" data-name="Trazado 208110" d="M1256.573,393.007c-.651-2.647-.96-5.34-1.714-7.919-.437-1.5-1.358-6.333-2.377-7.054a1.83,1.83,0,0,0-2.294.407,2.8,2.8,0,0,1-2.133,1.061,2.332,2.332,0,0,0,2.528-1.067.631.631,0,0,0,.266-.121,2.558,2.558,0,0,1,1.352.1c.754.6,1.6,5.567,1.939,6.874.672,2.594.912,5.3,1.5,7.961a.482.482,0,1,0,.933-.239Z" transform="translate(-1231.383 -376.605)" fill="#4d4d4d" fill-rule="evenodd"/>
        <path id="Trazado_208111" data-name="Trazado 208111" d="M1260.508,395.93a23.1,23.1,0,0,1,.124-4.876,12.565,12.565,0,0,0-1.046-5.707c-.357-.815-2.447-.293-2.973-.131a20.549,20.549,0,0,1,2.3.123c.87.172,1.083,4.6.955,5.627a22.718,22.718,0,0,0-.322,5.05.482.482,0,0,0,.96-.087Z" transform="translate(-1235.025 -379.627)" fill="#4d4d4d" fill-rule="evenodd"/>
        <path id="Trazado_208112" data-name="Trazado 208112" d="M1268.345,408.3c-.708.452-4.929,3.159-5.719,1.54-.894-1.831-1.16-3.662-3.049-4.691,1.7,1.863,1.511,2.663,2.454,4.936,1.013,2.438,5.724-.331,6.9-1.021a.482.482,0,1,0-.586-.764Z" transform="translate(-1236.287 -388.243)" fill="#4d4d4d" fill-rule="evenodd"/>
        <path id="Trazado_208113" data-name="Trazado 208113" d="M1268.832,407.586c-.8.3-3.645,1.11-4.54.453s-2.881-4.356-3.96-3.771c1.53.511,2.244,3.245,3.563,4.344,1.219,1.017,4.317.185,5.5-.245a.482.482,0,0,0-.565-.781Z" transform="translate(-1236.608 -387.842)" fill="#4d4d4d" fill-rule="evenodd"/>
        <path id="Trazado_208114" data-name="Trazado 208114" d="M1269.99,406.638c-.619-1.18-1.45-3.932-2.826-4.358-.689-.719-3.11,1.718-6.342.683,1.521,1.406,4.049.388,5.944-.068,1.532,1.017,1.509,2.371,2.449,4.315a.482.482,0,1,0,.775-.572Z" transform="translate(-1236.817 -386.965)" fill="#4d4d4d" fill-rule="evenodd"/>
        <path id="Trazado_208115" data-name="Trazado 208115" d="M1266.365,409.613c-.6.147-2.409.568-2.974.271-1.7-.894-.994-2.563-3.643-3.986,2.425,1.75,1.929,3.33,3.524,4.217.648.36,2.506-.037,3.193-.192a.162.162,0,1,0-.1-.308Z" transform="translate(-1236.36 -388.562)" fill="#4d4d4d" fill-rule="evenodd"/>
        <path id="Trazado_208116" data-name="Trazado 208116" d="M1266.379,409.459a5.414,5.414,0,0,1-2.715-.194c-.914-.6-.34-1.92-3.067-3.351l.346.269c1.933,1.458,1.966,2.872,2.669,3.333a5.583,5.583,0,0,0,2.868.252.162.162,0,0,0-.1-.308Z" transform="translate(-1236.72 -388.569)" fill="#4d4d4d" fill-rule="evenodd"/>
        <path id="Trazado_208117" data-name="Trazado 208117" d="M1250.07,399.918c-.736-1.655-2.841-.848-4.543-.849-5.914,0-4.693-1.663-8.189-5.547l-.149-.141-.286-.164a1.863,1.863,0,0,1,.388.341c3.293,4.108,2.427,5.7,8.212,5.781,1.495.02,3.665-.7,4.258.679a.162.162,0,1,0,.308-.1Z" transform="translate(-1226.637 -383.166)" fill="#4d4d4d" fill-rule="evenodd"/>
        <path id="Trazado_208118" data-name="Trazado 208118" d="M1249.647,398.433c-1.793-2.023-3.047-2.209-5.4-1.367-2.454.878-4.274-1.759-5.757-3.382l-1.442-1.589-1.1-1.133c1.227,1.439,2.519,3,3.8,4.377,4.859,5.219,5.543-1.419,9.653,3.308a.162.162,0,0,0,.244-.214Z" transform="translate(-1226.231 -382.206)" fill="#4d4d4d" fill-rule="evenodd"/>
        <path id="Trazado_208119" data-name="Trazado 208119" d="M1247.068,396.2a6.164,6.164,0,0,0-4.054-.144c-2.571.54-4.392-3.744-6.3-5.035-.1-.068-.171-.114-.28-.182h0a9.274,9.274,0,0,1,1.54,1.471c1.022,1.2,2.65,4.483,5.09,4.01a5.885,5.885,0,0,1,3.92.194.162.162,0,0,0,.084-.314Z" transform="translate(-1226.437 -382.153)" fill="#4d4d4d" fill-rule="evenodd"/>
        <path id="Trazado_208120" data-name="Trazado 208120" d="M1247.133,396.288c-.665.434-.581-.174-1.995.552-1.066.547-3.163-1.831-4.035-2.425a.609.609,0,0,0,.3.289c.762.78,2.641,2.959,3.853,2.38,1.406-.671,1.23-.014,2.064-.531a.162.162,0,0,0-.188-.265Z" transform="translate(-1228.425 -383.676)" fill="#4d4d4d" fill-rule="evenodd"/>
        <path id="Trazado_208121" data-name="Trazado 208121" d="M1247.152,402.279c-3.568.856-4.2.8-6.617-1.512-.115-.11-.512-.86-.9-.79-.131.024-.387-.233-.485-.31.113.153.285.411.507.388,2.826,2.943,3.123,3.516,7.6,2.532a.162.162,0,1,0-.1-.308Z" transform="translate(-1227.593 -385.911)" fill="#4d4d4d" fill-rule="evenodd"/>
        <path id="Trazado_208122" data-name="Trazado 208122" d="M1266.985,405.76c1.237-.425.294,2.311-.5.339a2.677,2.677,0,0,0,.416-.324.257.257,0,0,0,.082-.016Zm-.277-.059c-.443.19-.688.464-.267,1.064,1.206,1.719,2.684-2.159.362-1.511a.269.269,0,0,0-.095.447Z" transform="translate(-1239.115 -388.257)" fill="#4d4d4d" fill-rule="evenodd"/>
      </g>
      <path id="Trazado_208123" data-name="Trazado 208123" d="M1190.278,421.392c-2.612,5.511-15.939,8.266-21.578,8.594-2.356.137-7.883.6-9.165-1.883-3.309-6.416-3.937-11.465-10.911-15.652a28.29,28.29,0,0,0-5.866-2.375,4.723,4.723,0,0,0-2.722,4.453c-.076,3.287,6.273,3.3,4.574.388a1.03,1.03,0,0,1,.4.375c1.268,2.076-2.321,2.172-3.208,1.843-4.476-1.666-.248-8.041,1.226-7.162,10.318,2.659,12.7,8.409,16.671,17.131.673,1.478.468,1.539,2.577,2.027,6.552,1.512,16.753-1.712,22.755-4.474,2.821-1.3,3.422-1.414,4.532-3.813a.7.7,0,0,1,.949-.286c.341.183-.052.495-.235.836Z" transform="translate(-1139.803 -390.261)" fill="#4d4d4d" fill-rule="evenodd"/>
      <path id="Trazado_208124" data-name="Trazado 208124" d="M1192.6,420.069c-6-1.444-12.165-3.538-18.392-2.573-.62.1-3.218.394-3.685.793-.311.992-2.707.936-3.719.245-3.9-2.665-6.086-8.218-11.242-10.011-1.075-.374-5-1.808-6.116-1.665a17.864,17.864,0,0,0-3.773,1.534c2.907-1.918,3.41-2.454,6.673-1.456,6.626,2.342,6.593,2.647,11.365,7.807,1.563,1.689,3.565,4.412,6.108,3.423.758-1.132,5.573-1.607,6.427-1.687,4.782-.446,11.4,1.464,16.231,2.558.379.083,1.042.119.958.5a.7.7,0,0,1-.835.535Zm-22.073-1.79a.219.219,0,0,0,.02-.086.636.636,0,0,1-.02.086Z" transform="translate(-1142.302 -388.794)" fill="#4d4d4d" fill-rule="evenodd"/>
      <path id="Trazado_208125" data-name="Trazado 208125" d="M1204.3,420.68c-1.113-1.954-4.94-9.655-6.795-10.089-6.217-1.454-10.661.88-16.127,3.247a11.073,11.073,0,0,1-6.924.833h0c7.263.527,15.61-7.3,23.55-4.6,2.033.692,6.218,7.737,7.508,9.9a.7.7,0,0,1-1.213.706Z" transform="translate(-1154.552 -390.096)" fill="#4d4d4d" fill-rule="evenodd"/>
      <path id="Trazado_208126" data-name="Trazado 208126" d="M1200.025,405.521c-3.362-1.646-6.178-6.616-10.027-7.3-2.141-.379-9.345,9.6-10.6,10.927.992-1.888,7.951-11.684,10.785-11.279,4.216.6,7.057,5.548,10.028,6.949a.574.574,0,0,1,.4.709c-.087.305-.274.076-.578-.01Z" transform="translate(-1156.653 -385.142)" fill="#4d4d4d" fill-rule="evenodd"/>
      <path id="Trazado_208127" data-name="Trazado 208127" d="M1187.352,401.569a18.913,18.913,0,0,0-5.277-.4c-1.2,0-1.791,5.162-1.92,5.748l-.391,2.415c.033-1.028,0-8.777,2.3-8.658a16.615,16.615,0,0,1,5.464.281c.31.068.572-.136.5.174a.574.574,0,0,1-.684.438Z" transform="translate(-1156.81 -386.293)" fill="#4d4d4d" fill-rule="evenodd"/>
      <path id="Trazado_208128" data-name="Trazado 208128" d="M1200.819,429.469c.494,3.918.527,6.3-1.945,9.721-5.432,7.518-19.236,7.945-27.653,6.712-2.828-.414-4.49-1.245-6.454,1.845a4.3,4.3,0,0,0,2.686,6.82c1.655.358,1.861-.835,1.879-2.106.406,1.549-.269,2.73-1.937,2.45-3.485-.584-5.167-4.2-3.184-7.507,2.063-3.434,3.936-2.446,7.046-2.054,7.93,1,22.017.618,27.041-6.526,2.159-3.07,2.171-5.462,1.689-8.941a.7.7,0,0,1,.516-.848c.376-.091.225.057.316.434Z" transform="translate(-1149.831 -398.399)" fill="#4d4d4d" fill-rule="evenodd"/>
      <path id="Trazado_208129" data-name="Trazado 208129" d="M1209.939,430.178c1.171,3.972.306,4.1.544,7.982.377,6.161-2.86,9.405-7.368,13.144-5.1,4.23-7.942,4.329-14.219,4.734-2.24.145-2.1.9-3.818-1.563a8.871,8.871,0,0,1-1.275-7.636c-.248,4.035.326,6.354,3.441,9.02l.654-.152.822-.09c6.019-.558,9.407-.577,14.231-4.733,4.067-3.5,7.288-6.661,6.857-12.307-.295-3.858-.007-4.109-1.207-7.98a.7.7,0,0,1,1.338-.421Z" transform="translate(-1158.386 -398.687)" fill="#4d4d4d" fill-rule="evenodd"/>
      <path id="Trazado_208130" data-name="Trazado 208130" d="M1217.624,439.179c-.429,2.434,2.009-.663-.5,8.977-2.017,7.734-3.915,10.321-10.629,14.264-2.769,1.626-3.608,1.773-6.61-.228-.4-.269-2.167-1.511-2-2.242.3.805,1.516,1.576,2.18,1.97,2.33,1.382,2.974,1.966,5.1.785,5.288-2.932,9.116-6.4,10.811-12.376,3.406-12.018-.065-7.656.528-11.4a.574.574,0,1,1,1.122.246Z" transform="translate(-1164.514 -402.43)" fill="#4d4d4d" fill-rule="evenodd"/>
      <path id="Trazado_208131" data-name="Trazado 208131" d="M1223.426,454.278c-.124,3.466.168,12.51-3.425,14.521-2.487,1.392-4.99.646-7.486-.147,2.375.3,5.337.97,7.468-.337,3.08-1.888,2.92-11.28,2.955-14.326.007-.317.011-.466.329-.459s.167.431.159.748Z" transform="translate(-1170.748 -408.834)" fill="#4d4d4d" fill-rule="evenodd"/>
      <path id="Trazado_208132" data-name="Trazado 208132" d="M1169.921,450.972c2.263-1.169,1.733-6.138,4-6.376.11-.011.084-.009.194.041a3.389,3.389,0,0,0-1.19,1.137c-.371,1.927-.773,4.908-2.654,6.019a.447.447,0,0,1-.353-.822Z" transform="translate(-1152.506 -405.029)" fill="#4d4d4d" fill-rule="evenodd"/>
      <path id="Trazado_208133" data-name="Trazado 208133" d="M1162.579,453.464c-3.737-.867-7.96-2.769-11.424-3.379.936-.476,10.07,2.21,11.451,2.485a.447.447,0,1,1-.026.894Z" transform="translate(-1144.634 -407.344)" fill="#4d4d4d" fill-rule="evenodd"/>
      <path id="Trazado_208134" data-name="Trazado 208134" d="M1165.312,450.323c-3.452-.853-7.066-2.029-10.522-2.678,2.219-.334,8.16,1.285,10.7,1.8a.447.447,0,0,1-.175.878Z" transform="translate(-1146.181 -406.31)" fill="#4d4d4d" fill-rule="evenodd"/>
      <path id="Trazado_208135" data-name="Trazado 208135" d="M1167,448.539c-3.409-.326-6.021-.25-9.411-.891,3.271-.03,6.227-.145,9.517,0a.448.448,0,0,1-.107.889Z" transform="translate(-1147.372 -406.301)" fill="#4d4d4d" fill-rule="evenodd"/>
      <path id="Trazado_208136" data-name="Trazado 208136" d="M1166.062,446.292c-4.926-1.517-6.531-1.068-11.157-1.884,4.7-.133,6.8-.19,11.422,1.029a.447.447,0,1,1-.265.855Z" transform="translate(-1146.23 -404.923)" fill="#4d4d4d" fill-rule="evenodd"/>
      <path id="Trazado_208137" data-name="Trazado 208137" d="M1166.325,443.341a74.394,74.394,0,0,0-12.69-.866c3.435-.816,9.34-.522,12.881-.008a.447.447,0,0,1-.191.874Z" transform="translate(-1145.69 -403.913)" fill="#4d4d4d" fill-rule="evenodd"/>
      <path id="Trazado_208138" data-name="Trazado 208138" d="M1166.037,439.863c-3.448,1.6-5.405.014-9.255.554a2.912,2.912,0,0,1-1.057-.037h0c.319-.081.684-.151,1-.239,3.686-1.039,5.653.616,8.922-1.08a.447.447,0,1,1,.395.8Z" transform="translate(-1146.579 -402.656)" fill="#4d4d4d" fill-rule="evenodd"/>
      <path id="Trazado_208139" data-name="Trazado 208139" d="M1163.449,436.7c-2.945,1.294-5.193.358-8.583.666a30.522,30.522,0,0,0-3.258.48c5.113-2.008,8.317-.425,11.366-1.9a.447.447,0,1,1,.475.758Z" transform="translate(-1144.827 -401.321)" fill="#4d4d4d" fill-rule="evenodd"/>
      <path id="Trazado_208140" data-name="Trazado 208140" d="M1164.892,434.982c-3.006.1-5.721-.362-8.3,1.039,1.4-1.931,6.012-1.732,8.184-1.926a.447.447,0,0,1,.12.887Z" transform="translate(-1146.947 -400.561)" fill="#4d4d4d" fill-rule="evenodd"/>
      <path id="Trazado_208141" data-name="Trazado 208141" d="M1163.655,432.235a20.641,20.641,0,0,1-5.7,1.044,11.161,11.161,0,0,0-2.778.647h0a4.889,4.889,0,0,1,2.7-1.161,26.281,26.281,0,0,0,5.416-1.349.447.447,0,0,1,.359.82Z" transform="translate(-1146.346 -399.406)" fill="#4d4d4d" fill-rule="evenodd"/>
      <path id="Trazado_208142" data-name="Trazado 208142" d="M1162,430.032c-4.888.472-5.3.018-9.293,2.462h0c3.038-3.02,4.872-2.72,9.157-3.345a.447.447,0,1,1,.138.884Z" transform="translate(-1145.293 -398.455)" fill="#4d4d4d" fill-rule="evenodd"/>
      <path id="Trazado_208143" data-name="Trazado 208143" d="M1163.837,452.456a45.442,45.442,0,0,1-7.618-2.413,10.4,10.4,0,0,0-3.831-.9l2.023-.094,1.99.5a58.873,58.873,0,0,0,7.628,2.024.448.448,0,1,1-.192.874Z" transform="translate(-1145.159 -406.929)" fill="#4d4d4d" fill-rule="evenodd"/>
      <path id="Trazado_208144" data-name="Trazado 208144" d="M1154.144,446.383a.145.145,0,0,0,.1-.023l-.009-.01a.316.316,0,0,0-.087.033Zm-.213.357c-1.276.312.929-2.584.806-.156a.447.447,0,0,1-.806.156Z" transform="translate(-1145.646 -405.462)" fill="#4d4d4d" fill-rule="evenodd"/>
      <path id="Trazado_208145" data-name="Trazado 208145" d="M1153.1,444.071c.273-.076.385-.164-.017-.152h0c-.455-.281.879-.906.891.344a.447.447,0,1,1-.874-.192Z" transform="translate(-1145.413 -404.571)" fill="#4d4d4d" fill-rule="evenodd"/>
      <path id="Trazado_208146" data-name="Trazado 208146" d="M1151.738,448.2c.073-.025.137-.063.092-.115a.176.176,0,0,0-.092.115Zm-.052.239c-.543.472-.73-1.805.666-.593a.447.447,0,0,1-.666.593Z" transform="translate(-1144.687 -406.261)" fill="#4d4d4d" fill-rule="evenodd"/>
      <path id="Trazado_208147" data-name="Trazado 208147" d="M1152.775,441.273c-.039.075-.055.148.025.161a.182.182,0,0,0-.025-.161Zm-.051-.11c-.077.026-.021.028-.135.044-.053-.03-.075-.033-.1-.094-.281-.865,2.206.36.533.871a.447.447,0,0,1-.3-.822Z" transform="translate(-1145.195 -403.422)" fill="#4d4d4d" fill-rule="evenodd"/>
      <path id="Trazado_208148" data-name="Trazado 208148" d="M1151.639,445.924l.034-.045.026-.021c.058.006.073.059.112.021,0-.059.01-.021-.033-.114l.2-.022a1.927,1.927,0,0,0-.231-.051h0c-.325-.434.728-.638.768.423a.447.447,0,0,1-.874-.191Z" transform="translate(-1144.836 -405.349)" fill="#4d4d4d" fill-rule="evenodd"/>
      <path id="Trazado_208149" data-name="Trazado 208149" d="M1155.145,439.963c.051-.187.092-.043.123-.138-.052-.073-.333.14-.438.186-.447-.73.875-1.352,1.206-.127a.447.447,0,0,1-.891.079Z" transform="translate(-1146.16 -402.731)" fill="#4d4d4d" fill-rule="evenodd"/>
      <path id="Trazado_208150" data-name="Trazado 208150" d="M1154.172,436.916a2.275,2.275,0,0,0-.031-.312.65.65,0,0,0-.269.21c-.555-.077.313-1.851,1.154-.164a.447.447,0,0,1-.854.267Z" transform="translate(-1145.716 -401.342)" fill="#4d4d4d" fill-rule="evenodd"/>
      <path id="Trazado_208151" data-name="Trazado 208151" d="M1150.918,437.28c.04.051.09.09.138.053v-.008a.188.188,0,0,0-.137-.045Zm-.134.055a.6.6,0,0,0-.131.134c-.947-.013,1.089-1.914,1.016-.032a.448.448,0,0,1-.885-.1Z" transform="translate(-1144.313 -401.631)" fill="#4d4d4d" fill-rule="evenodd"/>
      <path id="Trazado_208152" data-name="Trazado 208152" d="M1152.04,434.679c-.04-.12-.195-.671-.237-.72l-.01,0a2.786,2.786,0,0,0-.044.281c-.882-.107,0-1.518,1.09.035a.447.447,0,0,1-.8.4Z" transform="translate(-1144.734 -400.332)" fill="#4d4d4d" fill-rule="evenodd"/>
      <path id="Trazado_208153" data-name="Trazado 208153" d="M1151.364,440.206l-.089.006c-.582-.158-.1-2.17.863-.421a.448.448,0,0,1-.775.415Z" transform="translate(-1144.578 -402.685)" fill="#4d4d4d" fill-rule="evenodd"/>
      <path id="Trazado_208154" data-name="Trazado 208154" d="M1199.485,426.1c-2.668,1.226-3.442,1.914-6.463,2.074-2.761.146-.249.621-3.318,1.222-2.943.576-4.534,4.217-9.111,3.563l-1.822-.348c-4.622-.621-3.826.334-7.5-2.773-.569-.482-.39-3.076-1.786-5.176-1.007-1.515-1.372-1.882-2.469-3.291-.62-.8-.461-1.2-1.143-1.967h0c.71.437.6,1.076,1.258,1.872a34.947,34.947,0,0,1,2.55,3.233c1.376,1.985,1.445,4.772,1.809,5.07,3.6,2.957,2.819,2.039,7.349,2.6l1.818.326c4.366.578,5.811-3.012,8.976-3.659,2.679-.547.26-1.064,3.4-1.257,2.843-.175,3.672-.893,6.2-2.076a.321.321,0,0,1,.25.59Z" transform="translate(-1150.9 -394.309)" fill="#4d4d4d" fill-rule="evenodd"/>
      <path id="Trazado_208155" data-name="Trazado 208155" d="M1193.514,421.515c-2.439-.3-5.3.878-7.8,1.431-2.311.512-2.245.8-4.213,1.614a33.6,33.6,0,0,0-4.383,1.887c-3.688,1.935-6.781.276-9.429-2.5-1.037-1.087,2.064-1.041-1.912-4.249-1.946-1.57-.562-2.345-4-4.513a.77.77,0,0,1-.319-.283c-1.325-.971.506-.948-3.218-2.116-.871-.273-1.209-1.167-1.843-1.668-1.294-1.022-1.874-1-3.446-1.353a4.513,4.513,0,0,1,2.433.575c1.859,1.059,1.314,1.063,2.924,2.23a6.33,6.33,0,0,1,1.764.509,6.781,6.781,0,0,1,1.65,1.715c0-.018,0-.013-.005-.021.062.078.913.579,1.067.687l-.023-.017a4.7,4.7,0,0,1,1.966,2.2c1.568,3.122,4.284,2.524,3.259,5.628-.276.835,2.145,2.239,2.729,2.6,3.544,2.212,5.763.012,8.664-1.138a48.229,48.229,0,0,1,6.233-2.373c2.746-.63,5.332-1.793,8.041-1.481a.32.32,0,0,1-.137.626Z" transform="translate(-1145.398 -390.209)" fill="#4d4d4d" fill-rule="evenodd"/>
      <path id="Trazado_208156" data-name="Trazado 208156" d="M1193.475,421.882c-2.625.26-4.276.174-7.031.572l-.323.139c-3.2,2.18-5.437,1.343-8.225,3.027-2.882,1.741-4.334-1.73-5.784-3.594-1.006-1.294-3.338-4.916-4.522-5.745-1.431-1-.168.1-1.718-1.314-.691-.628-2.36-2.074-3.435-2.171,1.2-.175,3.6,2.039,4.323,2.724l-.021-.021.2.151c2.367,1.249,3.671,3.889,5.443,6.1,1.981,2.472,2.435,4.787,5.275,3.447,1.759-1.418,5.162-1.049,8.143-3.076,1.029-.7,5.859-.689,7.562-.872a.32.32,0,1,1,.11.631Z" transform="translate(-1149.436 -391.494)" fill="#4d4d4d" fill-rule="evenodd"/>
      <path id="Trazado_208157" data-name="Trazado 208157" d="M1198.136,426.619c-4.256-1-4.607-1.475-7.974.759-.023.016-.051.03-.137.078l.057-.047c-.89.6-4.97,3-6.289,2.171a7.718,7.718,0,0,1-2.411-2.337l.2.119.158.161c1.665,1.84,2.062,2.288,4.232,1.545,6.406-2.2,3.45-4.993,12.3-3.073a.32.32,0,1,1-.137.626Z" transform="translate(-1157.499 -396.842)" fill="#4d4d4d" fill-rule="evenodd"/>
      <path id="Trazado_208158" data-name="Trazado 208158" d="M1204.811,428.138c-5.132.34-2.518-.568-6.939,1.982-1.635.943-3.367.9-5.383,1.661a24.183,24.183,0,0,0-3.515,1.331c-2.262,1.052-3.767.678-5.659-.8-.04-.031-1.23-1.014-1.149-1.2h0a8.647,8.647,0,0,0,1.493,1.234c2.1,1.113,2.762,1.625,5.141.45a25.289,25.289,0,0,1,3.507-1.415c1.887-.751,3.831-.85,5.258-1.7,4.519-2.7,2-1.771,7.2-2.183a.32.32,0,1,1,.047.639Z" transform="translate(-1157.83 -397.755)" fill="#4d4d4d" fill-rule="evenodd"/>
      <path id="Trazado_208159" data-name="Trazado 208159" d="M1190.051,425.368c-3.537,2.078-5.379,4-9.246.905-.919-.735.268-.778-.964-1.275a.772.772,0,0,1-.4-.614c.815,1.122.809-.25,1.3,1.437.026.013.179.182.245.229,3.873,2.77,5.252.861,8.653-1.172a.321.321,0,0,1,.414.489Z" transform="translate(-1156.672 -396.43)" fill="#4d4d4d" fill-rule="evenodd"/>
      <path id="Trazado_208160" data-name="Trazado 208160" d="M1192.056,421.683c-.84,2.808-3.873,2.924-6.336,3.643a5.465,5.465,0,0,1-2.278-.067c-2.475,2.741-9.349,3.888-12.862,3.812a25.968,25.968,0,0,0-3.825.1c-1.618.122-4.443-1.682-5.475-3.209-1.412-2.088-2.24-5.713-2.873-6.657-1.723-2.573-2.259-5.591-5.088-5.665-2.659-.07-.252-2.568-4.087-3.1-2.877-.4-3.814-.507-3.814-.507l1.918.2,1.916.145c3.977.457,1.63,2.972,4.068,3,2.939.036,3.317,2.517,4.877,4.973,1.571,2.473,1.716,4.885,3.43,7.375.962,1.4,3.654,3.1,5.078,2.977a26.052,26.052,0,0,1,3.89-.127,27.066,27.066,0,0,0,9.671-1.886,13.105,13.105,0,0,0,3.074-2.031c3,.029.269.583,3.983-.448,2.041-.566,3.471-.5,4.106-2.666a.32.32,0,1,1,.626.137Z" transform="translate(-1142.193 -390.322)" fill="#4d4d4d" fill-rule="evenodd"/>
      <path id="Trazado_208161" data-name="Trazado 208161" d="M1211.178,444.541c-.362,1.774-.892,6.651-2.167,7.8-1.638,1.476-3.26,1.449-5.089,3.029-4.048,3.5-7.846,5.7-13.492,4.72a4.347,4.347,0,0,1-3.932-3.349h0c1.5,1.622.6,2.6,3.969,3.1,5.576.827,9.18-1.339,13.124-4.831,1.863-1.65,3.485-1.647,5.037-3.074,1.068-.982,1.616-5.941,1.924-7.528a.32.32,0,1,1,.626.137Z" transform="translate(-1159.675 -404.843)" fill="#4d4d4d" fill-rule="evenodd"/>
      <path id="Trazado_208162" data-name="Trazado 208162" d="M1210.54,443.275a18.788,18.788,0,0,1-6.957,7.718c-3.332,2.271-1.874,1.19-5.7,2.115-1.9.459-8.321,2.677-10.1,1.306l-.694-.735-.65-.849a19.931,19.931,0,0,0,1.45,1.45c1.64,1.15,8.141-1.124,9.9-1.583,3.8-.988,2.281.133,5.5-2.125a18.474,18.474,0,0,0,6.633-7.473.321.321,0,0,1,.617.175Z" transform="translate(-1159.651 -404.296)" fill="#4d4d4d" fill-rule="evenodd"/>
      <path id="Trazado_208163" data-name="Trazado 208163" d="M1223.992,452.938c.458-1.9-2.776-.745-1.7.763a1.029,1.029,0,0,0,1.728-.54.317.317,0,0,1-.032-.223Zm.181.361c.024.8-1.677,1.523-2.257.529-1.392-2.383,3.27-3.622,2.7-.752a.32.32,0,0,1-.381.245.328.328,0,0,1-.063-.021Z" transform="translate(-1174.638 -407.934)" fill="#4d4d4d" fill-rule="evenodd"/>
      <path id="Trazado_208164" data-name="Trazado 208164" d="M1223.474,453.594c1.169.083-.392-1.6-.25-.195a1.1,1.1,0,0,0,.05.24.321.321,0,0,1,.2-.045Zm.448.562.014,0a.386.386,0,0,1-.454.069l-.076,0a.321.321,0,0,1-.287-.306,1.1,1.1,0,0,1-.225-.921c.52-1.9,2.539.67,1.027,1.152Z" transform="translate(-1175.154 -408.317)" fill="#4d4d4d" fill-rule="evenodd"/>
      <path id="Trazado_208165" data-name="Trazado 208165" d="M1217.059,458.177c2.777-.932-1.834-3.052-1.448-.833a1.912,1.912,0,0,0,1.231,1.283.3.3,0,0,1-.022-.065.32.32,0,0,1,.24-.384Zm.452.494c-.461.6-2.88-.539-2.208-2.016,1.013-2.228,5.022.672,2.208,2.016Z" transform="translate(-1171.885 -409.817)" fill="#4d4d4d" fill-rule="evenodd"/>
      <path id="Trazado_208166" data-name="Trazado 208166" d="M1217.243,458.074c1.379.3-.35-.718-.093-.006a.322.322,0,0,1,.093.006Zm-.319.113a.585.585,0,0,1-.044-.31c.293-1.768,2.923,1.129.226.823a.32.32,0,0,1-.182-.514Z" transform="translate(-1172.595 -410.439)" fill="#4d4d4d" fill-rule="evenodd"/>
      <path id="Trazado_208167" data-name="Trazado 208167" d="M1209.737,462.247c1.688-.912-2.114-1.5-1.245.336a.763.763,0,0,0,1.349.258.32.32,0,0,1-.1-.595Zm.5.437a1.187,1.187,0,0,1-2.268-.642c.18-2.423,4.249-.767,2.268.642Z" transform="translate(-1168.811 -411.932)" fill="#4d4d4d" fill-rule="evenodd"/>
      <path id="Trazado_208168" data-name="Trazado 208168" d="M1209.551,462.676c.258-.1.093-.331-.053-.215,0-.006,0-.008,0-.012h0a.367.367,0,0,0,.057.227Zm-.28.165a1,1,0,0,1-.136-.244c-.557-1.411,2.534-.04.479.727a.32.32,0,0,1-.343-.483Z" transform="translate(-1169.281 -412.433)" fill="#4d4d4d" fill-rule="evenodd"/>
      <path id="Trazado_208169" data-name="Trazado 208169" d="M1202.585,465.753c2.721-2.363-3.661-2.456-1.924.02.6.856,2.3,1.149,2.735.3l.229-.479h0c-.379,2.048-2.811,1.283-3.423.178-1.894-3.417,6.357-2.815,2.8.459a.32.32,0,1,1-.422-.483Z" transform="translate(-1165.386 -413.069)" fill="#4d4d4d" fill-rule="evenodd"/>
      <path id="Trazado_208170" data-name="Trazado 208170" d="M1202.756,466.414c1.177-.747-.936-.765-.009.006l.009-.006Zm-.136.2a.881.881,0,0,1-.268-.268c-1.007-1.631,2.795-.994.758.6a.321.321,0,0,1-.49-.337Z" transform="translate(-1166.35 -413.882)" fill="#4d4d4d" fill-rule="evenodd"/>
      <path id="Trazado_208171" data-name="Trazado 208171" d="M1194.628,467.252c1.771-1.225-2.772-3.294-2.015-.828a2.3,2.3,0,0,0,1.978,1.341.31.31,0,0,1-.06-.07.321.321,0,0,1,.1-.443Zm.912-.092c-.229,1.622-3.17.674-3.4-.95-.414-2.866,4.355-.919,3.4.95Z" transform="translate(-1162.064 -413.612)" fill="#4d4d4d" fill-rule="evenodd"/>
      <path id="Trazado_208172" data-name="Trazado 208172" d="M1194.426,467.564l.021-.017h-.007c-.007-.013.005-.009-.005-.026l-.005,0a.335.335,0,0,0,0,.041Zm.145-.005a.066.066,0,0,0,.031.024v0a.091.091,0,0,0-.031-.021Zm-.3.407c-1.348-.9,2.01-1.425.516.131a.32.32,0,0,1-.453-.024.325.325,0,0,1-.064-.107Z" transform="translate(-1162.843 -414.611)" fill="#4d4d4d" fill-rule="evenodd"/>
      <path id="Trazado_208173" data-name="Trazado 208173" d="M1187.7,465.91c1.461-1.66-2.547-1.457-.527.051a1.018,1.018,0,0,0,.459.221.32.32,0,0,1,.068-.272Zm.082.48a1.512,1.512,0,0,1-1.222-.561c-1.811-2.2,3.7-2.116,1.632.491a.32.32,0,0,1-.41.07Z" transform="translate(-1159.546 -413.403)" fill="#4d4d4d" fill-rule="evenodd"/>
      <path id="Trazado_208174" data-name="Trazado 208174" d="M1188.058,465.918a.081.081,0,0,0,.022-.052l0,0a.15.15,0,0,0-.019.055Zm.338.324.051-.01c-.013.335-.306.366-.529.206-1.334-.955,1.244-1.323.479-.2Z" transform="translate(-1160.114 -413.948)" fill="#4d4d4d" fill-rule="evenodd"/>
      <path id="Trazado_208175" data-name="Trazado 208175" d="M1228.6,427.793c.326-.927,2.032-6.161,3.563-6.208,2.35-.071,9.191,2.481,11.543,3.5-3.86-.68-7.63-2.359-11.5-2.582-.931.645-2.578,4.438-2.888,5.414-.086.305-.018.67-.323.584a.574.574,0,0,1-.4-.709Z" transform="translate(-1177.585 -395.238)" fill="#4d4d4d" fill-rule="evenodd"/>
      <path id="Trazado_208176" data-name="Trazado 208176" d="M1244.7,427.757c-4.545,2.181-9.886-1.474-11.226-.049-1.305,1.388-.82,1.705-2.936,2.592,1.82-1.627,1.229-1.41,2.492-2.966,1.632-2.009,7.127,1.881,11.007-.148.259-.183.619-.488.8-.229a.575.575,0,0,1-.139.8Z" transform="translate(-1178.42 -397.432)" fill="#4d4d4d" fill-rule="evenodd"/>
      <path id="Trazado_208177" data-name="Trazado 208177" d="M1244.149,428.814c-4.625,3.618-6.457.118-12.178,1.63a2.828,2.828,0,0,0-1.815.911c.121-1.282,2.438-1.523,3.291-1.62,4.964-.569,6.608,1.837,10.249-1.408.234-.215.273-.557.487-.323a.574.574,0,0,1-.034.812Z" transform="translate(-1178.257 -397.937)" fill="#4d4d4d" fill-rule="evenodd"/>
      <path id="Trazado_208178" data-name="Trazado 208178" d="M1243.663,429.975c-2.715,6.682-6.525,6.487-12.276,2.537-.535-.368-.434-.442-1.132-.3.172-.435.873-.273,1.214-.028l-.026-.021c5.75,3.7,9.7,4.584,11.115-2.5a.574.574,0,1,1,1.105.312Z" transform="translate(-1178.298 -398.498)" fill="#4d4d4d" fill-rule="evenodd"/>
      <path id="Trazado_208179" data-name="Trazado 208179" d="M1244.947,429.591c-2.18,7.509-3.678,10.709-12.227,6.263-4.3-2.237,2.4,1.164-2.612-1.358a8.55,8.55,0,0,1,2.765,1.051c8.521,4.233,9.358,1.534,11.213-6.2a.447.447,0,0,1,.861.244Z" transform="translate(-1178.236 -398.404)" fill="#4d4d4d" fill-rule="evenodd"/>
      <path id="Trazado_208180" data-name="Trazado 208180" d="M1245.637,427.112c-.137,1.776-.9,14.019-4.14,13.167a27.508,27.508,0,0,1-10.444-5.939c2.032,1.264,2.605,1.624,3.114,1.919,1.237.717,7.029,3.771,7.876,3.575,2.072-.479,2.347-10.951,2.446-12.72a.574.574,0,1,1,1.149,0Z" transform="translate(-1178.638 -397.347)" fill="#4d4d4d" fill-rule="evenodd"/>
      <path id="Trazado_208181" data-name="Trazado 208181" d="M1245.614,429.333c-.41,1.4-.249,2.627-.677,4.391-.33,1.359-.753,4.649-1.889,5.307-2.273,1.318-9.673-2.648-12-3.745,2.366.719,10.005,4.6,11.786,3.5.744-.458,1.1-4.264,1.329-5.29.384-1.749.182-2.927.585-4.41a.447.447,0,0,1,.861.244Z" transform="translate(-1178.638 -398.294)" fill="#4d4d4d" fill-rule="evenodd"/>
      <path id="Trazado_208182" data-name="Trazado 208182" d="M1247.731,433.861c-.022-.856-1.113.617-.277.8.268.058.485-.276.535-.619a.189.189,0,0,1-.063.011.194.194,0,0,1-.2-.191Zm.372.074c.149.4-.412,1.211-.863.886-1.237-.893.755-2.406.878-.964a.2.2,0,0,1-.016.079Z" transform="translate(-1185.355 -400.208)" fill="#4d4d4d" fill-rule="evenodd"/>
      <path id="Trazado_208183" data-name="Trazado 208183" d="M1244.067,435.2c.813-2.26-2.484-.87-.6.225a.449.449,0,0,0,.606-.064.2.2,0,0,1,0-.161Zm.074.238a.572.572,0,0,1-.757.142c-2.612-1.259,2.067-3.449,1.04-.229a.194.194,0,0,1-.254.1l-.029-.016Z" transform="translate(-1183.543 -400.386)" fill="#4d4d4d" fill-rule="evenodd"/>
      <path id="Trazado_208184" data-name="Trazado 208184" d="M1239.9,434.814c.633-1.1-1.07-.914-.265.079a1.1,1.1,0,0,0,.253.242.321.321,0,0,1,.012-.321Zm.588.241c-.06.576-.865.389-1.2-.032-1.381-1.745,2.182-2.26,1.2.032Z" transform="translate(-1182.006 -400.318)" fill="#4d4d4d" fill-rule="evenodd"/>
      <path id="Trazado_208185" data-name="Trazado 208185" d="M1236.564,434.2c.307-.347.349-.519-.067-.684a.525.525,0,0,0,.042.92.194.194,0,0,1,.025-.236Zm.284.263a.862.862,0,0,0,.331-.162c-.171.364-.539.582-.822.226-1.422-1.785,1.751-1.669.491-.064Z" transform="translate(-1180.735 -400.193)" fill="#4d4d4d" fill-rule="evenodd"/>
      <path id="Trazado_208186" data-name="Trazado 208186" d="M1233.67,433.358a.2.2,0,0,0-.033-.249c-.075.062-.035.156.033.249Zm-.1.155c-.961-.557,1.124-1.221.319.218a.193.193,0,0,1-.319-.218Z" transform="translate(-1179.6 -400.039)" fill="#4d4d4d" fill-rule="evenodd"/>
      <path id="Trazado_208187" data-name="Trazado 208187" d="M1254.886,414.278c3.348-5.472,2.411-3.665,7.526-6.861,3.646-2.279,10.086-7.007,12.76-11.792l.5.337c-2.539,4.953-9.248,10.2-12.631,12.438-4.9,3.237-4.222,1.324-7.32,6.641-.2.33-.28.4-.609.2a.7.7,0,0,1-.23-.965Z" transform="translate(-1188.737 -384.191)" fill="#4d4d4d" fill-rule="evenodd"/>
    </g>
    <g id="Grupo_171952" data-name="Grupo 171952" transform="translate(-2415.701 -2746.713)">
      <g id="Grupo_171949" data-name="Grupo 171949">
        <path id="Trazado_208188" data-name="Trazado 208188" d="M1597.467,259.256l26.9-2.862,15.984-1.1,15.593-.225-61.726,6.211,3.246-2.02Z" transform="translate(-1459.907 -251.045)" fill="#ccc"/>
        <path id="Trazado_208189" data-name="Trazado 208189" d="M1494.7,263.9l-134.309-2.693V411.03l134.309,4.343V263.9Z" transform="translate(-1360.393 -253.659)" fill-rule="evenodd" fill="url(#linear-gradient-4)"/>
        <path id="Trazado_208190" data-name="Trazado 208190" d="M1594.212,261.285l61.731-6.221.065,142.23-61.8,15.465V261.285Z" transform="translate(-1459.903 -251.045)" fill-rule="evenodd" fill="url(#linear-gradient-5)"/>
        <path id="Trazado_208191" data-name="Trazado 208191" d="M1494.7,258.308c13.115-4.013,46.306-6.172,61.731-6.111-35.843-1.379-74.439-2.606-110.281-3.985-28.844-1-55.967,3.379-85.759,7.4,44.77,1.9,89.539.8,134.308,2.693Z" transform="translate(-1360.393 -248.067)" fill-rule="evenodd" fill="url(#linear-gradient-6)"/>
        <path id="Trazado_208192" data-name="Trazado 208192" d="M1593.364,265.851h-1.236V417.329h1.236V265.851Z" transform="translate(-1459.016 -255.636)" fill="#fff" fill-rule="evenodd"/>
        <path id="Trazado_208193" data-name="Trazado 208193" d="M1360.393,261.511l134.335,2.442-.027.7-134.309-2.492v-.652Z" transform="translate(-1360.393 -253.789)" fill="#fff"/>
      </g>
      <path id="Trazado_208194" data-name="Trazado 208194" d="M1360.393,278,1494.74,279.7v12.56l-134.347-1.706V278Z" transform="translate(-1360.393 -260.805)" fill="#bde6e6" fill-rule="evenodd"/>
      <g id="Grupo_171951" data-name="Grupo 171951" transform="translate(38.071 57.71)">
        <g id="Grupo_171950" data-name="Grupo 171950" transform="translate(31.298 30.862)">
          <path id="Trazado_208195" data-name="Trazado 208195" d="M1486.12,421.56c-1.95-2.3-5.1-7.076-4.235-10.273.236-.874,6.588-2.236,7.845-2.789,2.2-.967,6.351-2.546,6.248-5.409-.018-.481-1.089-1.326-1.6-.434a.835.835,0,0,1,1.419.431c-.018,2.712-4.136,4.156-6.258,5.038-1.583.658-7.805,1.617-8.2,3.005-.977,3.454,2.16,8.39,4.251,10.921a.36.36,0,0,0,.528-.489Z" transform="translate(-1481.158 -402.262)" fill="#4d4d4d" fill-rule="evenodd"/>
          <path id="Trazado_208196" data-name="Trazado 208196" d="M1489.068,423.219c-.128-2.926.127-2.522-.975-5.358-1.092-2.811,3.054-4.18,5.063-5.546,1.709-1.163,5.1-3.557,4.806-5.937v.007c-.009-.161.047-.152-.053-.289h0c.009.2-.031.159-.03.291.025,2.288-3.253,4.467-4.963,5.564-2.354,1.511-6.641,2.77-5.39,6.174,1,2.731.747,2.311.825,5.149a.36.36,0,0,0,.717-.055Z" transform="translate(-1483.772 -403.894)" fill="#4d4d4d" fill-rule="evenodd"/>
          <path id="Trazado_208197" data-name="Trazado 208197" d="M1490.381,427.72c.439-.411,1.689-1.871,1.417-2.626.172-.843.859-1.332.92-2.817a11,11,0,0,1,2.017-6.034.59.59,0,0,0,.171-.438,1.515,1.515,0,0,1-.268.345c-1.54,1.4-2.281,4.2-2.449,6.2-.087,1.032-1.014,2.146-1.018,2.765a2.994,2.994,0,0,1-1.275,2.072.359.359,0,1,0,.484.531Zm1.4-2.658a.561.561,0,0,0-.073-.124.317.317,0,0,1,.073.124Z" transform="translate(-1484.827 -408.026)" fill="#4d4d4d" fill-rule="evenodd"/>
          <path id="Trazado_208198" data-name="Trazado 208198" d="M1490.4,426.564c3.1-1.661,6.834-3.583,8.8-6.652.813-1.267.071-1.364-.545-2.438-.729-1.274-1.629-4.021-1.25-5.392-.777,1,.3,4.434.906,5.579.573,1.084,1.173,1,.492,2-1.989,2.91-5.71,4.72-8.736,6.267a.36.36,0,0,0,.329.64Z" transform="translate(-1484.87 -406.442)" fill="#4d4d4d" fill-rule="evenodd"/>
          <path id="Trazado_208199" data-name="Trazado 208199" d="M1490.48,431.888c1.874-.794,3.823-1.342,5.634-2.2,1.051-.5,4.507-1.753,4.917-2.591a1.366,1.366,0,0,0-.572-1.643,2.087,2.087,0,0,1-1.035-1.446,1.741,1.741,0,0,0,1.086,1.737.471.471,0,0,0,.121.182,1.917,1.917,0,0,1,.089,1.008c-.351.627-3.914,1.84-4.837,2.245-1.833.8-3.8,1.3-5.69,2.051a.36.36,0,0,0,.287.66Z" transform="translate(-1484.911 -411.515)" fill="#4d4d4d" fill-rule="evenodd"/>
          <path id="Trazado_208200" data-name="Trazado 208200" d="M1490.708,435.014a17.264,17.264,0,0,1,3.609-.488,9.38,9.38,0,0,0,4.083-1.449c.558-.36-.075-1.839-.257-2.207a15.39,15.39,0,0,1,.183,1.712c-.024.661-3.259,1.344-4.035,1.372a16.971,16.971,0,0,0-3.761.362.36.36,0,0,0,.179.7Z" transform="translate(-1485.031 -414.437)" fill="#4d4d4d" fill-rule="evenodd"/>
          <path id="Trazado_208201" data-name="Trazado 208201" d="M1485.645,442.233c-.417-.469-2.915-3.258-1.815-4.034,1.244-.876,2.562-1.29,3.1-2.8-1.171,1.475-1.784,1.43-3.348,2.4-1.677,1.036.924,4.179,1.572,4.965a.36.36,0,0,0,.494-.523Z" transform="translate(-1481.952 -416.363)" fill="#4d4d4d" fill-rule="evenodd"/>
          <path id="Trazado_208202" data-name="Trazado 208202" d="M1486.882,442.512c-.317-.558-1.252-2.555-.873-3.293s2.869-2.641,2.309-3.367c-.195,1.188-2.125,2.039-2.779,3.142-.6,1.02.377,3.2.835,4.026a.36.36,0,0,0,.508-.509Z" transform="translate(-1482.941 -416.558)" fill="#4d4d4d" fill-rule="evenodd"/>
          <path id="Trazado_208203" data-name="Trazado 208203" d="M1487.849,443.32c.8-.6,2.727-1.535,2.877-2.6.448-.593-1.636-2.089-1.257-4.594-.856,1.288.195,3.031.756,4.374-.567,1.25-1.568,1.394-2.89,2.318a.359.359,0,0,0,.514.5Z" transform="translate(-1483.743 -416.674)" fill="#4d4d4d" fill-rule="evenodd"/>
          <path id="Trazado_208204" data-name="Trazado 208204" d="M1485.307,440.929a5.117,5.117,0,0,1-.552-2.16c.457-1.359,1.771-1.037,2.506-3.159-1,2-2.226,1.817-2.69,3.1a5.029,5.029,0,0,0,.521,2.33.121.121,0,1,0,.215-.11Z" transform="translate(-1482.593 -416.455)" fill="#4d4d4d" fill-rule="evenodd"/>
          <path id="Trazado_208205" data-name="Trazado 208205" d="M1485.675,440.921a4.043,4.043,0,0,1-.18-2.025c.334-.744,1.375-.478,2.106-2.659l-.157.287c-.845,1.6-1.884,1.79-2.14,2.364a4.172,4.172,0,0,0,.155,2.144.121.121,0,0,0,.216-.111Z" transform="translate(-1482.884 -416.722)" fill="#4d4d4d" fill-rule="evenodd"/>
          <path id="Trazado_208206" data-name="Trazado 208206" d="M1489.838,427.765c1.133-.739.287-2.195.086-3.45-.7-4.36.668-3.657,3.116-6.7l.086-.126.087-.23a1.383,1.383,0,0,1-.2.327c-2.637,2.915-3.917,2.467-3.286,6.74.163,1.1.949,2.619.005,3.22a.121.121,0,1,0,.111.215Z" transform="translate(-1484.735 -408.647)" fill="#4d4d4d" fill-rule="evenodd"/>
          <path id="Trazado_208207" data-name="Trazado 208207" d="M1490.552,427.278c1.279-1.562,1.267-2.509.365-4.146-.939-1.7.789-3.359,1.81-4.645l1-1.251.705-.943c-.915,1.075-1.913,2.214-2.775,3.321-3.27,4.2,1.7,3.918-1.292,7.509a.121.121,0,1,0,.187.154Z" transform="translate(-1485.065 -408.234)" fill="#4d4d4d" fill-rule="evenodd"/>
          <path id="Trazado_208208" data-name="Trazado 208208" d="M1492.432,425.111a4.6,4.6,0,0,0-.375-3.005c-.7-1.831,2.238-3.682,2.963-5.242.038-.082.064-.139.1-.227h0a6.97,6.97,0,0,1-.9,1.31c-.761.9-2.989,2.486-2.351,4.228a4.392,4.392,0,0,1,.322,2.912.121.121,0,0,0,.241.025Z" transform="translate(-1485.668 -408.38)" fill="#4d4d4d" fill-rule="evenodd"/>
          <path id="Trazado_208209" data-name="Trazado 208209" d="M1493.675,425.169c-.4-.438.06-.449-.643-1.4-.53-.721.974-2.549,1.309-3.263a.452.452,0,0,0-.177.256c-.485.654-1.867,2.3-1.3,3.122.662.956.156.905.636,1.458a.121.121,0,1,0,.173-.17Z" transform="translate(-1486.083 -410.025)" fill="#4d4d4d" fill-rule="evenodd"/>
          <path id="Trazado_208210" data-name="Trazado 208210" d="M1489.03,425.9c-1.055-2.529-1.086-3,.329-5.057.068-.1.573-.48.475-.759-.033-.094.126-.313.171-.394-.1.1-.269.26-.226.42-1.834,2.433-2.22,2.719-.964,5.9a.121.121,0,0,0,.215-.111Z" transform="translate(-1484.105 -409.677)" fill="#4d4d4d" fill-rule="evenodd"/>
          <path id="Trazado_208211" data-name="Trazado 208211" d="M1489.211,441.018c.46.862-1.669.492-.31-.326a2.036,2.036,0,0,0,.288.268.2.2,0,0,0,.021.058Zm.01-.211c-.193-.3-.423-.452-.816-.071-1.124,1.093,1.91,1.722,1.157.087a.2.2,0,0,0-.273-.078.2.2,0,0,0-.068.061Z" transform="translate(-1484.135 -418.539)" fill="#4d4d4d" fill-rule="evenodd"/>
        </g>
        <path id="Trazado_208212" data-name="Trazado 208212" d="M1460.7,386.61c-4.373-1.271-7.987-10.767-8.9-14.886-.381-1.72-1.381-5.739.3-6.98,4.336-3.2,7.984-4.264,10.242-9.9a21.149,21.149,0,0,0,1.053-4.606,3.525,3.525,0,0,0-3.606-1.477c-2.432.334-1.69,5.017.257,3.418a.77.77,0,0,1-.228.34c-1.38,1.182-1.877-1.453-1.739-2.146.7-3.5,5.9-1.137,5.425.053-.735,7.921-4.691,10.36-10.648,14.324-1.01.672-1.079.527-1.188,2.14-.337,5.009,3.252,12.147,6,16.242,1.292,1.926,1.449,2.355,3.349,2.888a.523.523,0,0,1,.323.666c-.094.273-.37.021-.644-.074Z" transform="translate(-1437.092 -348.535)" fill="#4d4d4d" fill-rule="evenodd"/>
        <path id="Trazado_208213" data-name="Trazado 208213" d="M1465.981,387.968c.352-4.6,1.164-9.388-.288-13.863a10.815,10.815,0,0,0-1.022-2.622c-.769-.112-1.012-1.884-.623-2.712,1.5-3.193,5.336-5.462,6.045-9.477.148-.836.739-3.9.5-4.706a13.349,13.349,0,0,0-1.579-2.6c1.759,1.915,2.214,2.222,1.866,4.746-.94,5.163-1.168,5.174-4.405,9.305-1.06,1.352-2.829,3.152-1.8,4.908.924.424,1.847,3.917,2.007,4.537.9,3.472.275,8.577.042,12.268-.016.289.035.782-.253.766a.524.524,0,0,1-.494-.552Zm-1.3-16.484a.152.152,0,0,0,.065,0,.486.486,0,0,1-.065,0Z" transform="translate(-1442.5 -350.005)" fill="#4d4d4d" fill-rule="evenodd"/>
        <path id="Trazado_208214" data-name="Trazado 208214" d="M1468.18,396.951c1.308-1.053,6.531-4.789,6.63-6.207.333-4.756-1.915-7.754-4.309-11.5a8.273,8.273,0,0,1-1.437-5h0c.474,5.417,7.239,10.639,6.189,16.813-.269,1.58-4.965,5.5-6.409,6.711a.524.524,0,0,1-.665-.81Z" transform="translate(-1444.255 -359.473)" fill="#4d4d4d" fill-rule="evenodd"/>
        <path id="Trazado_208215" data-name="Trazado 208215" d="M1476.3,392.534c.814-2.674,4.143-5.34,4.188-8.258.025-1.623-8.184-5.748-9.315-6.518,1.51.507,9.557,4.474,9.6,6.611.058,3.179-3.252,5.861-3.931,8.217a.429.429,0,0,1-.476.376c-.235-.027-.089-.192-.062-.427Z" transform="translate(-1445.61 -360.972)" fill="#4d4d4d" fill-rule="evenodd"/>
        <path id="Trazado_208216" data-name="Trazado 208216" d="M1479.087,382.242a14.143,14.143,0,0,0-.333-3.936c-.139-.883-4.018-.708-4.465-.733h-1.827c.762-.1,6.47-1.045,6.656.669a12.413,12.413,0,0,1,.442,4.062c-.013.237.168.4-.069.392a.429.429,0,0,1-.4-.452Z" transform="translate(-1446.159 -360.744)" fill="#4d4d4d" fill-rule="evenodd"/>
        <path id="Trazado_208217" data-name="Trazado 208217" d="M1451.117,396.809c-2.83.829-4.581,1.136-7.4-.28-6.188-3.111-8.141-13.237-8.232-19.587-.031-2.134.385-3.457-2.126-4.538a3.212,3.212,0,0,0-4.708,2.789c-.068,1.263.836,1.273,1.776,1.136-1.093.483-2.044.125-2.036-1.137a3.566,3.566,0,0,1,5.156-3.239c2.776,1.113,2.271,2.611,2.351,4.95.2,5.964,2.159,16.3,8.022,19.158,2.52,1.226,4.285.951,6.791.183a.525.525,0,0,1,.686.279c.112.267-.016.173-.282.285Z" transform="translate(-1427.404 -358.362)" fill="#4d4d4d" fill-rule="evenodd"/>
        <path id="Trazado_208218" data-name="Trazado 208218" d="M1451.26,403.45c-2.789,1.335-2.985.712-5.819,1.349-4.5,1.01-7.273-.991-10.565-3.87-3.724-3.258-4.134-5.34-5.178-9.919-.373-1.634-.916-1.441.7-3a6.623,6.623,0,0,1,5.478-1.847c-3,.3-4.645.995-6.24,3.608l.19.464.164.6c1.126,4.371,1.543,6.866,5.179,9.929,3.066,2.581,5.776,4.581,9.886,3.593,2.809-.676,3.028-.494,5.739-1.838a.524.524,0,1,1,.469.936Z" transform="translate(-1427.79 -364.537)" fill="#4d4d4d" fill-rule="evenodd"/>
        <path id="Trazado_208219" data-name="Trazado 208219" d="M1446.449,410.406c-1.845-.027.727,1.4-6.677.694-5.941-.569-8.073-1.66-11.777-6.141-1.528-1.848-1.735-2.449-.617-4.9.151-.33.856-1.777,1.415-1.742a4,4,0,0,0-1.193,1.841c-.742,1.882-1.1,2.426.028,3.856,2.789,3.55,5.8,5.961,10.407,6.5,9.264,1.083,5.636-.958,8.463-.964a.429.429,0,1,1-.048.856Z" transform="translate(-1426.671 -369.721)" fill="#4d4d4d" fill-rule="evenodd"/>
        <path id="Trazado_208220" data-name="Trazado 208220" d="M1440.875,415.912c-2.57.321-9.2,1.61-11.111-.8-1.321-1.668-1.068-3.6-.781-5.537.06,1.787-.081,4.05,1.136,5.466,1.758,2.046,8.662.813,10.911.477.234-.032.345-.047.377.188s-.3.174-.532.206Z" transform="translate(-1427.557 -374.513)" fill="#4d4d4d" fill-rule="evenodd"/>
        <path id="Trazado_208221" data-name="Trazado 208221" d="M1441.469,375.343c1.131,1.529,4.73.549,5.176,2.194.021.079.017.061-.008.148a2.522,2.522,0,0,0-.98-.742c-1.464-.045-3.709.013-4.752-1.241a.334.334,0,1,1,.564-.358Z" transform="translate(-1432.707 -359.878)" fill="#4d4d4d" fill-rule="evenodd"/>
        <path id="Trazado_208222" data-name="Trazado 208222" d="M1441.807,369.637c.2-2.857,1.1-6.2,1.134-8.822.462.633-.434,7.685-.472,8.736a.334.334,0,1,1-.662.087Z" transform="translate(-1433.112 -353.761)" fill="#4d4d4d" fill-rule="evenodd"/>
        <path id="Trazado_208223" data-name="Trazado 208223" d="M1444.757,371.278c.219-2.646.656-5.449.725-8.075.51,1.6.021,6.167-.057,8.1a.334.334,0,0,1-.667-.024Z" transform="translate(-1434.368 -354.777)" fill="#4d4d4d" fill-rule="evenodd"/>
        <path id="Trazado_208224" data-name="Trazado 208224" d="M1446.789,372.311a70.4,70.4,0,0,1-.461-7.043c.411,2.407.847,4.573,1.129,7.016a.334.334,0,1,1-.667.027Z" transform="translate(-1435.033 -355.656)" fill="#4d4d4d" fill-rule="evenodd"/>
        <path id="Trazado_208225" data-name="Trazado 208225" d="M1448.292,371.354c.533-3.812.012-4.942.064-8.448a24.356,24.356,0,0,1,.6,8.542.334.334,0,0,1-.662-.094Z" transform="translate(-1435.871 -354.651)" fill="#4d4d4d" fill-rule="evenodd"/>
        <path id="Trazado_208226" data-name="Trazado 208226" d="M1450.307,371.235a55.517,55.517,0,0,0-.869-9.457,31.249,31.249,0,0,1,1.536,9.494.334.334,0,0,1-.667-.037Z" transform="translate(-1436.36 -354.171)" fill="#4d4d4d" fill-rule="evenodd"/>
        <path id="Trazado_208227" data-name="Trazado 208227" d="M1452.369,370.686c-1.59-2.352-.652-3.983-1.508-6.756a2.181,2.181,0,0,1-.1-.785h0c.1.226.192.487.295.706,1.2,2.593.217,4.24,1.856,6.448a.334.334,0,0,1-.545.387Z" transform="translate(-1436.924 -354.753)" fill="#4d4d4d" fill-rule="evenodd"/>
        <path id="Trazado_208228" data-name="Trazado 208228" d="M1454.06,368.456c-1.3-2.017-.881-3.785-1.51-6.248a22.8,22.8,0,0,0-.741-2.345c2.087,3.531,1.3,6.081,2.754,8.153a.334.334,0,1,1-.5.441Z" transform="translate(-1437.369 -353.356)" fill="#4d4d4d" fill-rule="evenodd"/>
        <path id="Trazado_208229" data-name="Trazado 208229" d="M1455.523,369.311c-.432-2.2-.412-4.26-1.752-6,1.589.8,1.99,4.226,2.392,5.8a.334.334,0,1,1-.64.193Z" transform="translate(-1438.204 -354.824)" fill="#4d4d4d" fill-rule="evenodd"/>
        <path id="Trazado_208230" data-name="Trazado 208230" d="M1457.063,368.128a15.414,15.414,0,0,1-1.446-4.077,8.351,8.351,0,0,0-.807-1.971h0a3.647,3.647,0,0,1,1.177,1.855,19.648,19.648,0,0,0,1.638,3.832.334.334,0,0,1-.562.362Z" transform="translate(-1438.646 -354.299)" fill="#4d4d4d" fill-rule="evenodd"/>
        <path id="Trazado_208231" data-name="Trazado 208231" d="M1458.052,366.716c-.928-3.548-.643-3.906-2.918-6.559h0c2.587,1.881,2.584,3.268,3.553,6.352a.334.334,0,1,1-.635.207Z" transform="translate(-1438.784 -353.481)" fill="#4d4d4d" fill-rule="evenodd"/>
        <path id="Trazado_208232" data-name="Trazado 208232" d="M1442.719,370.447a33.943,33.943,0,0,1,.874-5.9,7.778,7.778,0,0,0,.206-2.93l.31,1.48-.136,1.527a44.089,44.089,0,0,0-.586,5.863.334.334,0,1,1-.667-.037Z" transform="translate(-1433.501 -354.101)" fill="#4d4d4d" fill-rule="evenodd"/>
        <path id="Trazado_208233" data-name="Trazado 208233" d="M1446.234,362.654a.108.108,0,0,0,.028.069l.006-.009a.245.245,0,0,0-.035-.06Zm-.289-.114c-.381-.9,2.016.379.211.576a.334.334,0,0,1-.211-.576Z" transform="translate(-1434.829 -354.359)" fill="#4d4d4d" fill-rule="evenodd"/>
        <path id="Trazado_208234" data-name="Trazado 208234" d="M1447.92,361.55c.088.192.167.264.11-.03h0c.153-.369.772.54-.147.7a.334.334,0,1,1,.037-.667Z" transform="translate(-1435.564 -354.023)" fill="#4d4d4d" fill-rule="evenodd"/>
        <path id="Trazado_208235" data-name="Trazado 208235" d="M1444.738,361.054c.026.051.062.094.1.054a.131.131,0,0,0-.1-.054Zm-.183-.01c-.412-.345,1.244-.752.516.42a.334.334,0,0,1-.516-.42Z" transform="translate(-1434.254 -353.706)" fill="#4d4d4d" fill-rule="evenodd"/>
        <path id="Trazado_208236" data-name="Trazado 208236" d="M1449.9,360.971c-.06-.02-.116-.022-.116.038a.135.135,0,0,0,.116-.038Zm.075-.051c-.029-.053-.023-.013-.048-.094.016-.043.015-.06.057-.082.6-.31,0,1.669-.579.5a.334.334,0,0,1,.57-.321Z" transform="translate(-1436.338 -353.717)" fill="#4d4d4d" fill-rule="evenodd"/>
        <path id="Trazado_208237" data-name="Trazado 208237" d="M1446.359,360.717l.037.02.018.017c0,.044-.035.06,0,.084.043-.007.017,0,.08-.038l.04.144a1.355,1.355,0,0,0,.01-.176h0c.281-.291.557.461-.22.616a.334.334,0,0,1,.037-.667Z" transform="translate(-1434.9 -353.713)" fill="#4d4d4d" fill-rule="evenodd"/>
        <path id="Trazado_208238" data-name="Trazado 208238" d="M1451.174,362.591c.144.015.042.062.116.074.048-.047-.142-.229-.189-.3.485-.416,1.1.484.237.874a.334.334,0,0,1-.164-.647Z" transform="translate(-1436.991 -354.375)" fill="#4d4d4d" fill-rule="evenodd"/>
        <path id="Trazado_208239" data-name="Trazado 208239" d="M1453.241,361.523a1.8,1.8,0,0,0,.227-.06.486.486,0,0,0-.187-.173c-.009-.419,1.4.01.259.831a.334.334,0,0,1-.3-.6Z" transform="translate(-1437.9 -353.894)" fill="#4d4d4d" fill-rule="evenodd"/>
        <path id="Trazado_208240" data-name="Trazado 208240" d="M1452.647,359.173c-.033.036-.055.078-.023.108h.006a.141.141,0,0,0,.017-.107Zm-.056-.092a.473.473,0,0,0-.115-.08c-.1-.7,1.54.576.144.745a.334.334,0,0,1-.029-.665Z" transform="translate(-1437.58 -352.9)" fill="#4d4d4d" fill-rule="evenodd"/>
        <path id="Trazado_208241" data-name="Trazado 208241" d="M1454.614,359.663c.083-.043.472-.223.5-.26l0-.007c-.016-.007-.206,0-.212,0-.026-.663,1.118-.181.1.808a.334.334,0,0,1-.391-.542Z" transform="translate(-1438.504 -353.027)" fill="#4d4d4d" fill-rule="evenodd"/>
        <path id="Trazado_208242" data-name="Trazado 208242" d="M1450.472,359.84l-.015-.064c.047-.448,1.588-.329.413.586a.334.334,0,0,1-.4-.522Z" transform="translate(-1436.764 -353.211)" fill="#4d4d4d" fill-rule="evenodd"/>
        <path id="Trazado_208243" data-name="Trazado 208243" d="M1461.032,393.586c-1.221-1.821-1.82-2.31-2.3-4.518-.436-2.018-.488-.11-1.3-2.3-.774-2.1-3.647-2.841-3.708-6.293l.04-1.384c-.091-3.481-.7-2.78,1.154-5.855.287-.477,2.221-.653,3.6-1.931,1-.923,1.224-1.235,2.133-2.211.514-.552.832-.483,1.314-1.076h0c-.238.575-.723.568-1.23,1.149a26.053,26.053,0,0,1-2.08,2.264c-1.3,1.25-3.345,1.632-3.523,1.936-1.752,3-1.168,2.32-1.041,5.726l-.025,1.379c.092,3.286,2.911,3.926,3.763,6.182.721,1.91.815.065,1.331,2.357.467,2.075,1.095,2.6,2.267,4.321a.239.239,0,1,1-.406.254Z" transform="translate(-1438.133 -356.826)" fill="#4d4d4d" fill-rule="evenodd"/>
        <path id="Trazado_208244" data-name="Trazado 208244" d="M1462.143,388.64c-.072-1.832-1.277-3.8-1.982-5.577a12.565,12.565,0,0,0-1.69-2.915,25.089,25.089,0,0,0-1.912-3.006c-1.865-2.489-1.009-4.966.722-7.247.678-.894,1.013,1.4,2.906-1.914.927-1.621,1.662-.693,2.851-3.487a.573.573,0,0,1,.17-.269c.559-1.092.759.26,1.178-2.623.1-.674.716-1.03,1.011-1.557a4.84,4.84,0,0,0,.588-2.7,3.369,3.369,0,0,1-.135,1.862,14.208,14.208,0,0,1-1.3,2.419,4.737,4.737,0,0,1-.166,1.361,5.069,5.069,0,0,1-1.068,1.42c.013-.005.009,0,.015-.006-.05.055-.318.742-.38.868l.01-.019a3.514,3.514,0,0,1-1.392,1.711c-2.115,1.527-1.352,3.458-3.762,3.071-.649-.1-1.4,1.847-1.6,2.321-1.21,2.875.676,4.249,1.868,6.251a36.044,36.044,0,0,1,2.49,4.313c.791,1.95,1.955,3.718,2.047,5.752a.239.239,0,1,1-.477-.027Z" transform="translate(-1438.944 -352.283)" fill="#4d4d4d" fill-rule="evenodd"/>
        <path id="Trazado_208245" data-name="Trazado 208245" d="M1463.573,388.657c-.5-1.9-.636-3.132-1.256-5.115l-.141-.222c-1.987-2.1-1.636-3.849-3.208-5.7-1.626-1.917.76-3.4,1.962-4.691.834-.895,3.228-3.045,3.7-4.015.568-1.175-.091-.113.764-1.422a6.372,6.372,0,0,0,1.192-2.79c.272.865-1.074,2.9-1.495,3.51l.013-.018-.087.169c-.64,1.893-2.432,3.167-3.852,4.737-1.587,1.753-3.24,2.364-1.914,4.3,1.254,1.129,1.387,3.68,3.234,5.637.638.675,1.2,4.237,1.542,5.471a.239.239,0,1,1-.453.156Z" transform="translate(-1440.182 -355.414)" fill="#4d4d4d" fill-rule="evenodd"/>
        <path id="Trazado_208246" data-name="Trazado 208246" d="M1464.549,392.821c.233-3.257.541-3.571-1.507-5.787-.014-.016-.028-.034-.073-.092l.042.037c-.549-.585-2.8-3.308-2.348-4.379a5.757,5.757,0,0,1,1.437-2.055l-.064.161-.1.136c-1.159,1.446-1.442,1.792-.636,3.3,2.38,4.461,4.09,1.951,3.727,8.7a.239.239,0,0,1-.478-.027Z" transform="translate(-1441.112 -362.158)" fill="#4d4d4d" fill-rule="evenodd"/>
        <path id="Trazado_208247" data-name="Trazado 208247" d="M1463.335,398.075c-.86-3.742.12-1.924-2.285-4.88-.889-1.093-1.066-2.375-1.865-3.77a18.077,18.077,0,0,0-1.4-2.434,3.537,3.537,0,0,1-.083-4.266c.018-.033.6-1.028.747-.99v0a6.44,6.44,0,0,0-.732,1.247c-.571,1.682-.87,2.229.279,3.844a18.892,18.892,0,0,1,1.46,2.417c.778,1.3,1.081,2.724,1.878,3.674,2.526,3.011,1.543,1.263,2.465,5.047a.239.239,0,0,1-.466.11Z" transform="translate(-1439.591 -362.663)" fill="#4d4d4d" fill-rule="evenodd"/>
        <path id="Trazado_208248" data-name="Trazado 208248" d="M1465.155,386.546c-1.952-2.361-3.587-3.491-1.766-6.708.433-.765.605.105.825-.863.047-.207.231-.294.4-.367-.731.734.28.566-.905,1.127-.007.021-.113.154-.14.208-1.583,3.184-.011,3.974,1.891,6.239a.239.239,0,1,1-.311.364Z" transform="translate(-1441.961 -361.333)" fill="#4d4d4d" fill-rule="evenodd"/>
        <path id="Trazado_208249" data-name="Trazado 208249" d="M1461,387.586c-2.17-.285-2.615-2.507-3.438-4.238a4.081,4.081,0,0,1-.222-1.687c-2.314-1.5-3.977-6.43-4.338-9.028a19.251,19.251,0,0,0-.526-2.808c-.281-1.178.713-3.475,1.716-4.417,1.372-1.29,3.945-2.33,4.566-2.908,1.692-1.576,3.853-2.329,3.572-4.423-.265-1.969,1.863-.491,1.8-3.381-.049-2.167-.079-2.872-.079-2.872l.081,1.438.12,1.429c.136,2.986-2,1.555-1.73,3.356.323,2.171-1.461,2.743-3.086,4.185s-3.4,1.846-5.03,3.4c-.916.875-1.848,3.062-1.591,4.1a19.5,19.5,0,0,1,.555,2.852,20.211,20.211,0,0,0,2.539,6.9,9.8,9.8,0,0,0,1.862,2.025c.335,2.213-.4.268.8,2.883.66,1.437.777,2.5,2.453,2.711a.239.239,0,1,1-.026.477Z" transform="translate(-1437.632 -349.934)" fill="#4d4d4d" fill-rule="evenodd"/>
        <path id="Trazado_208250" data-name="Trazado 208250" d="M1446.668,405.5c-1.351-.056-5.008.132-6.007-.672-1.283-1.032-1.455-2.231-2.838-3.391-3.06-2.569-5.132-5.107-5.082-9.385a3.246,3.246,0,0,1,2-3.3h0c-1.017,1.3-1.843.747-1.812,3.294.053,4.209,2.077,6.608,5.12,9.1,1.438,1.178,1.628,2.373,2.865,3.348.851.67,4.571.485,5.778.524a.239.239,0,0,1-.027.478Z" transform="translate(-1429.254 -365.654)" fill="#4d4d4d" fill-rule="evenodd"/>
        <path id="Trazado_208251" data-name="Trazado 208251" d="M1449.578,404.653a14.024,14.024,0,0,1-6.516-4.211c-2.07-2.187-1.1-1.24-2.237-3.954-.565-1.348-2.962-5.815-2.162-7.288l.46-.6.549-.58a14.933,14.933,0,0,0-.9,1.241c-.653,1.346,1.795,5.868,2.343,7.112,1.179,2.68.172,1.7,2.219,3.8a13.791,13.791,0,0,0,6.3,4,.239.239,0,0,1-.056.476Z" transform="translate(-1431.706 -365.34)" fill="#4d4d4d" fill-rule="evenodd"/>
        <path id="Trazado_208252" data-name="Trazado 208252" d="M1448.87,414.966c1.458.112.22-2.135-.764-1.159a.768.768,0,0,0,.6,1.209.239.239,0,0,1,.16-.05Zm-.245.177c-.584.112-1.321-1.056-.658-1.6,1.592-1.309,3.058,1.98.875,1.9a.24.24,0,0,1-.225-.252.217.217,0,0,1,.008-.049Z" transform="translate(-1435.623 -376.07)" fill="#4d4d4d" fill-rule="evenodd"/>
        <path id="Trazado_208253" data-name="Trazado 208253" d="M1448.814,414.61c.078.872,1.137-.48.114-.207a.851.851,0,0,0-.171.065.238.238,0,0,1,.057.142Zm-.361.4v.011a.287.287,0,0,1-.105-.326c0-.018-.008-.037-.011-.056a.239.239,0,0,1,.191-.248.823.823,0,0,1,.653-.275c1.463.157-.193,1.951-.727.894Z" transform="translate(-1435.89 -376.443)" fill="#4d4d4d" fill-rule="evenodd"/>
        <path id="Trazado_208254" data-name="Trazado 208254" d="M1444.2,410.461c1.017,1.936,2.032-1.714.443-1.167a1.428,1.428,0,0,0-.8,1.06.31.31,0,0,1,.045-.024.239.239,0,0,1,.312.131Zm-.31.392c-.5-.269.055-2.187,1.223-1.867,1.764.482.1,3.782-1.223,1.867Z" transform="translate(-1433.921 -374.246)" fill="#4d4d4d" fill-rule="evenodd"/>
        <path id="Trazado_208255" data-name="Trazado 208255" d="M1445.031,410.54c-.056,1.052.488-.344-.006-.07a.257.257,0,0,1,.006.07Zm-.121-.222a.441.441,0,0,1,.223-.069c1.338.006-.485,2.288-.58.264a.239.239,0,0,1,.357-.195Z" transform="translate(-1434.281 -374.799)" fill="#4d4d4d" fill-rule="evenodd"/>
        <path id="Trazado_208256" data-name="Trazado 208256" d="M1440.475,405.544c.872,1.136.852-1.735-.4-.878a.57.57,0,0,0-.031,1.025.24.24,0,0,1,.426-.148Zm-.263.421a.886.886,0,0,1,.2-1.749c1.808-.155,1.07,3.041-.2,1.749Z" transform="translate(-1432.142 -372.23)" fill="#4d4d4d" fill-rule="evenodd"/>
        <path id="Trazado_208257" data-name="Trazado 208257" d="M1440.771,405.376c.1.178.255.028.152-.065.005,0,.006,0,.009,0v0a.272.272,0,0,0-.16.069Zm-.155-.187a.737.737,0,0,1,.164-.129c.974-.578.33,1.863-.48.439a.24.24,0,0,1,.132-.312.237.237,0,0,1,.184,0Z" transform="translate(-1432.464 -372.553)" fill="#4d4d4d" fill-rule="evenodd"/>
        <path id="Trazado_208258" data-name="Trazado 208258" d="M1436.7,400.692c2.065,1.725,1.376-2.99-.243-1.416-.56.545-.574,1.831.1,2.052l.38.111h0c-1.554-.036-1.279-1.92-.538-2.5,2.293-1.8,2.831,4.352-.005,2.121a.239.239,0,0,1,.306-.368Z" transform="translate(-1430.559 -369.843)" fill="#4d4d4d" fill-rule="evenodd"/>
        <path id="Trazado_208259" data-name="Trazado 208259" d="M1437.089,400.824c.69.778.453-.781-.006-.006l.006.006Zm-.162-.077a.661.661,0,0,1,.166-.229c1.082-.936,1.065,1.942-.356.63a.239.239,0,0,1,.19-.4Z" transform="translate(-1430.928 -370.577)" fill="#4d4d4d" fill-rule="evenodd"/>
        <path id="Trazado_208260" data-name="Trazado 208260" d="M1434.744,394.981c1.113,1.16,2.1-2.434.372-1.584a1.718,1.718,0,0,0-.754,1.618.24.24,0,0,1,.382-.033Zm.176.661c-1.223.024-.874-2.256.3-2.622,2.063-.645,1.195,3.1-.3,2.622Z" transform="translate(-1429.856 -367.435)" fill="#4d4d4d" fill-rule="evenodd"/>
        <path id="Trazado_208261" data-name="Trazado 208261" d="M1435.533,394.819l.015.013v-.005c.009-.007.007,0,.019-.007l0,0-.031,0Zm.021.107a.057.057,0,0,0-.014.025h0a.07.07,0,0,0,.011-.025Zm-.336-.176c.505-1.1,1.289,1.313-.035.4a.239.239,0,0,1-.037-.337.245.245,0,0,1,.072-.06Z" transform="translate(-1430.255 -368.078)" fill="#4d4d4d" fill-rule="evenodd"/>
        <path id="Trazado_208262" data-name="Trazado 208262" d="M1435.444,389.692c1.4.88.771-2.051-.1-.382a.762.762,0,0,0-.109.365.239.239,0,0,1,.209.017Zm-.345.117a1.128,1.128,0,0,1,.268-.967c1.409-1.6,2,2.473-.168,1.261a.239.239,0,0,1-.1-.294Z" transform="translate(-1430.244 -365.529)" fill="#4d4d4d" fill-rule="evenodd"/>
        <path id="Trazado_208263" data-name="Trazado 208263" d="M1436.04,389.924a.061.061,0,0,0,.041.01v0a.1.1,0,0,0-.043-.008Zm-.2.288a.341.341,0,0,0,.013.036c-.249.03-.306-.182-.215-.365.545-1.1,1.122.76.2.33Z" transform="translate(-1430.471 -365.982)" fill="#4d4d4d" fill-rule="evenodd"/>
        <path id="Trazado_208264" data-name="Trazado 208264" d="M1465.7,415.807c.722.131,4.782.766,5,1.89.331,1.724-.738,7.069-1.21,8.925.042-2.926.832-5.9.537-8.783-.585-.609-3.578-1.373-4.333-1.485-.235-.028-.5.066-.469-.169a.429.429,0,0,1,.476-.376Z" transform="translate(-1443.078 -377.164)" fill="#4d4d4d" fill-rule="evenodd"/>
        <path id="Trazado_208265" data-name="Trazado 208265" d="M1469.438,427.43c-2.148-3.091-.087-7.463-1.3-8.281-1.177-.8-1.354-.4-2.259-1.856a9.805,9.805,0,0,0,2.482,1.485c1.675.964-.541,5.476,1.417,8.1.165.17.433.4.264.564a.429.429,0,0,1-.607-.007Z" transform="translate(-1443.358 -377.797)" fill="#4d4d4d" fill-rule="evenodd"/>
        <path id="Trazado_208266" data-name="Trazado 208266" d="M1468.663,427.134c-3.216-2.979-.854-4.745-2.647-8.783-.269-.607-.361-.908-.887-1.229.96-.063,1.412,1.616,1.586,2.233,1.009,3.591-.57,5.089,2.255,7.388.186.146.444.134.3.32a.429.429,0,0,1-.6.071Z" transform="translate(-1443.038 -377.724)" fill="#4d4d4d" fill-rule="evenodd"/>
        <path id="Trazado_208267" data-name="Trazado 208267" d="M1466.968,426.874c-5.248-1.208-5.557-4.039-3.328-8.748.208-.438.275-.372.086-.87.341.075.306.611.165.891l.012-.022c-2.043,4.678-2.226,7.7,3.164,7.9a.429.429,0,1,1-.1.852Z" transform="translate(-1441.847 -377.782)" fill="#4d4d4d" fill-rule="evenodd"/>
        <path id="Trazado_208268" data-name="Trazado 208268" d="M1465.949,428c-5.794-.715-8.331-1.439-6.069-8.269,1.138-3.437-.572,1.911.692-2.086a6.367,6.367,0,0,1-.447,2.162c-2.107,6.784-.019,7.081,5.9,7.53a.334.334,0,1,1-.078.663Z" transform="translate(-1440.455 -377.945)" fill="#4d4d4d" fill-rule="evenodd"/>
        <path id="Trazado_208269" data-name="Trazado 208269" d="M1465.38,428.414c-1.325.11-10.442,1-10.2-1.488a20.543,20.543,0,0,1,3.137-8.4c-.69,1.648-.887,2.114-1.044,2.523-.382,1-1.945,5.629-1.7,6.23.6,1.471,8.352.43,9.667.292a.429.429,0,1,1,.138.847Z" transform="translate(-1438.803 -378.32)" fill="#4d4d4d" fill-rule="evenodd"/>
        <path id="Trazado_208270" data-name="Trazado 208270" d="M1465.485,428.549c-1.078-.137-1.966.129-3.317.022-1.041-.082-3.517,0-4.136-.762-1.242-1.52.8-7.446,1.335-9.288-.249,1.83-2.2,7.922-1.182,9.1.427.494,3.274.308,4.058.352,1.335.075,2.179-.214,3.32-.092a.334.334,0,1,1-.078.663Z" transform="translate(-1439.85 -378.32)" fill="#4d4d4d" fill-rule="evenodd"/>
        <path id="Trazado_208271" data-name="Trazado 208271" d="M1466.4,430.145c.628-.118-.587-.747-.621-.109-.011.2.261.325.519.321a.15.15,0,0,1-.016-.045.145.145,0,0,1,.118-.167Zm-.01.283c-.281.158-.942-.16-.755-.531.511-1.018,1.863.271.815.532a.14.14,0,0,1-.06,0Z" transform="translate(-1443.24 -382.997)" fill="#4d4d4d" fill-rule="evenodd"/>
        <path id="Trazado_208272" data-name="Trazado 208272" d="M1464.829,427.614c1.762.331.346-1.935-.238-.416a.335.335,0,0,0,.12.439.147.147,0,0,1,.118-.022Zm-.167.083a.428.428,0,0,1-.195-.542c.618-2.074,2.788,1.114.293.74a.145.145,0,0,1-.106-.175.2.2,0,0,1,.008-.024Z" transform="translate(-1442.745 -381.694)" fill="#4d4d4d" fill-rule="evenodd"/>
        <path id="Trazado_208273" data-name="Trazado 208273" d="M1464.666,424.474c.889.335.547-.9-.09-.186a.813.813,0,0,0-.148.215.239.239,0,0,1,.238-.029Zm-.107.462c-.431.024-.389-.591-.119-.887,1.122-1.225,1.925,1.34.119.887Z" transform="translate(-1442.657 -380.53)" fill="#4d4d4d" fill-rule="evenodd"/>
        <path id="Trazado_208274" data-name="Trazado 208274" d="M1464.912,421.921c.292.185.424.2.5-.131a.392.392,0,0,0-.673.141.143.143,0,0,1,.176-.01Zm-.159.24a.635.635,0,0,0,.158.225c-.288-.083-.493-.329-.265-.58,1.147-1.26,1.438,1.093.106.354Z" transform="translate(-1442.791 -379.557)" fill="#4d4d4d" fill-rule="evenodd"/>
        <path id="Trazado_208275" data-name="Trazado 208275" d="M1465.461,419.676a.151.151,0,0,0,.179-.054c-.055-.048-.119-.007-.179.054Zm-.125-.054c.3-.774,1.033.683-.124.261a.145.145,0,0,1,.124-.261Z" transform="translate(-1443.039 -378.69)" fill="#4d4d4d" fill-rule="evenodd"/>
        <path id="Trazado_208276" data-name="Trazado 208276" d="M1471.8,434.69c4.431,1.817,2.988,1.342,5.952,4.733,2.113,2.417,6.363,6.6,10.207,8.006l-.188.411c-3.953-1.283-8.62-5.605-10.669-7.834-2.968-3.227-1.477-2.955-5.765-4.607-.267-.11-.332-.158-.221-.425a.524.524,0,0,1,.684-.284Z" transform="translate(-1445.566 -385.184)" fill="#4d4d4d" fill-rule="evenodd"/>
      </g>
      <path id="Trazado_208277" data-name="Trazado 208277" d="M1594.279,276.287l61.7-6.316v12.388l-61.7,6.487v-12.56Z" transform="translate(-1459.932 -257.389)" fill="#b3e0e0" fill-rule="evenodd"/>
      <path id="Trazado_208278" data-name="Trazado 208278" d="M1592.128,280.939h1.2v12.575h-1.2V280.939Z" transform="translate(-1459.016 -262.057)" fill="#c7eded" fill-rule="evenodd"/>
    </g>
    <path id="Trazado_208279" data-name="Trazado 208279" d="M1220.747,339.822a10.03,10.03,0,0,1,.177,1.876v79.01a10.1,10.1,0,0,1-10.075,10.075H1088.973a10.1,10.1,0,0,1-10.075-10.075V341.7a10.071,10.071,0,0,1,.177-1.876Z" transform="translate(-3467.181 -3170.498)" fill-rule="evenodd" fill="url(#linear-gradient)"/>
    <path id="Trazado_208280" data-name="Trazado 208280" d="M1082.986,505.432h137.727a10.072,10.072,0,0,1-7.926,3.873H1090.911a10.072,10.072,0,0,1-7.925-3.873Z" transform="translate(-3469.119 -3249.019)" fill-rule="evenodd" fill="url(#linear-gradient-2)"/>
    <path id="Trazado_208281" data-name="Trazado 208281" d="M1078.89,337.369h141.986v2.224H1078.89v-2.224Z" transform="translate(-3467.177 -3169.333)" fill="#ededed" fill-rule="evenodd"/>
    <path id="Trazado_208282" data-name="Trazado 208282" d="M1078.89,334.138h141.986v2.224H1078.89v-2.224Z" transform="translate(-3467.177 -3167.802)" fill="#dadada" fill-rule="evenodd"/>
    <path id="Trazado_208283" data-name="Trazado 208283" d="M1220.924,299.7V268.759a9.408,9.408,0,0,0-9.38-9.38H1088.278a9.407,9.407,0,0,0-9.38,9.38V299.7Z" transform="translate(-3467.181 -3132.356)" fill-rule="evenodd" fill="url(#linear-gradient-3)"/>
    <path id="Trazado_208284" data-name="Trazado 208284" d="M1106.651,358.6h103.416v-7.887H1106.651V358.6Z" transform="translate(-3480.34 -3175.662)" fill="#bde6e6" fill-rule="evenodd"/>
    <ellipse id="Elipse_5609" data-name="Elipse 5609" cx="16.562" cy="16.857" rx="16.562" ry="16.857" transform="translate(-2358.051 -2770.574) rotate(-56.222)" fill="#bde6e6"/>
    <g id="Grupo_171954" data-name="Grupo 171954" transform="translate(-2356.255 -2811.799)">
      <g id="Grupo_171947-2" data-name="Grupo 171947" transform="translate(41.663 0)">
        <path id="Trazado_208106-2" data-name="Trazado 208106" d="M1240.673,391.259c-3.17,1.91-9.559,4.789-13.262,3.122-1.012-.455-1.421-8.411-1.846-10.041-.742-2.846-1.844-8.185-5.329-8.618-.586-.073-1.818,1.059-.838,1.854a1.024,1.024,0,0,1,.8-1.633c3.28.551,4.225,5.818,4.878,8.558.487,2.044.435,9.763,2.039,10.509,3.991,1.856,10.578-.979,14.049-3.016a.441.441,0,1,0-.489-.734Z" transform="translate(-1219.031 -375.719)" fill="#4d4d4d" fill-rule="evenodd"/>
        <path id="Trazado_208107-2" data-name="Trazado 208107" d="M1243.239,391.809c-3.568-.415-3.028-.645-6.676.136-3.616.774-4.464-4.512-5.727-7.21-1.074-2.3-3.31-6.871-6.249-6.976h.009c-.2-.021-.175-.087-.361.008h0c.246.029.187.068.347.093,2.774.416,4.772,4.81,5.766,7.093,1.37,3.145,2.058,8.579,6.422,7.729,3.5-.681,2.943-.454,6.393,0a.441.441,0,0,0,.074-.879Z" transform="translate(-1221.498 -376.666)" fill="#4d4d4d" fill-rule="evenodd"/>
        <path id="Trazado_208108-2" data-name="Trazado 208108" d="M1249.109,397.021c-.413-.612-1.936-2.409-2.9-2.227-.987-.373-1.445-1.3-3.231-1.663a13.5,13.5,0,0,1-6.911-3.619.725.725,0,0,0-.5-.292,1.883,1.883,0,0,1,.365.392c1.394,2.137,4.645,3.582,7.031,4.174,1.232.306,2.4,1.646,3.149,1.771a3.668,3.668,0,0,1,2.259,1.948.441.441,0,0,0,.738-.483Zm-2.943-2.218a.659.659,0,0,0-.164.065.387.387,0,0,1,.164-.065Z" transform="translate(-1226.871 -382.12)" fill="#4d4d4d" fill-rule="evenodd"/>
        <path id="Trazado_208109-2" data-name="Trazado 208109" d="M1247.722,392.92c-1.406-4.075-3-8.971-6.335-11.954-1.375-1.231-1.637-.352-3.057.184-1.684.635-5.185,1.187-6.771.462,1.061,1.136,5.427.5,6.93-.009,1.424-.482,1.438-1.226,2.512-.207,3.135,2.975,4.6,7.833,5.883,11.8a.441.441,0,1,0,.839-.273Z" transform="translate(-1224.971 -377.911)" fill="#4d4d4d" fill-rule="evenodd"/>
        <path id="Trazado_208110-2" data-name="Trazado 208110" d="M1255.853,391.722c-.6-2.423-.879-4.889-1.569-7.25-.4-1.369-1.243-5.8-2.177-6.458a1.675,1.675,0,0,0-2.1.372,2.561,2.561,0,0,1-1.953.971,2.135,2.135,0,0,0,2.314-.977.577.577,0,0,0,.244-.11,2.342,2.342,0,0,1,1.237.089c.691.547,1.465,5.1,1.775,6.293.615,2.375.835,4.848,1.374,7.288a.441.441,0,1,0,.855-.219Z" transform="translate(-1232.792 -376.706)" fill="#4d4d4d" fill-rule="evenodd"/>
        <path id="Trazado_208111-2" data-name="Trazado 208111" d="M1260.179,395a21.152,21.152,0,0,1,.114-4.464,11.5,11.5,0,0,0-.958-5.224c-.327-.746-2.24-.268-2.722-.12a18.825,18.825,0,0,1,2.108.113c.8.157.992,4.208.874,5.151a20.8,20.8,0,0,0-.3,4.623.441.441,0,0,0,.879-.08Z" transform="translate(-1236.85 -380.073)" fill="#4d4d4d" fill-rule="evenodd"/>
        <path id="Trazado_208112-2" data-name="Trazado 208112" d="M1267.6,408.031c-.648.413-4.512,2.892-5.236,1.41-.818-1.676-1.062-3.352-2.791-4.295,1.556,1.705,1.383,2.438,2.247,4.519.927,2.232,5.24-.3,6.317-.935a.441.441,0,1,0-.537-.7Z" transform="translate(-1238.255 -389.671)" fill="#4d4d4d" fill-rule="evenodd"/>
        <path id="Trazado_208113-2" data-name="Trazado 208113" d="M1268.113,407.3c-.737.275-3.337,1.016-4.156.414s-2.637-3.988-3.625-3.452c1.4.468,2.054,2.971,3.261,3.977,1.116.931,3.952.169,5.037-.225a.441.441,0,0,0-.517-.715Z" transform="translate(-1238.613 -389.225)" fill="#4d4d4d" fill-rule="evenodd"/>
        <path id="Trazado_208114-2" data-name="Trazado 208114" d="M1269.215,406.258c-.567-1.08-1.327-3.6-2.587-3.99-.631-.658-2.847,1.572-5.806.625,1.392,1.287,3.707.355,5.442-.062,1.4.931,1.382,2.17,2.242,3.95a.441.441,0,1,0,.709-.524Z" transform="translate(-1238.845 -388.248)" fill="#4d4d4d" fill-rule="evenodd"/>
        <path id="Trazado_208115-2" data-name="Trazado 208115" d="M1265.805,409.3c-.547.135-2.205.52-2.722.248-1.556-.819-.91-2.346-3.335-3.649,2.22,1.6,1.766,3.048,3.226,3.86.593.33,2.294-.034,2.923-.176a.148.148,0,0,0-.092-.282Z" transform="translate(-1238.336 -390.027)" fill="#4d4d4d" fill-rule="evenodd"/>
        <path id="Trazado_208116-2" data-name="Trazado 208116" d="M1265.89,409.16a4.956,4.956,0,0,1-2.486-.178c-.837-.549-.311-1.757-2.808-3.068l.317.246c1.77,1.335,1.8,2.629,2.444,3.052a5.112,5.112,0,0,0,2.626.23.149.149,0,0,0-.092-.282Z" transform="translate(-1238.738 -390.035)" fill="#4d4d4d" fill-rule="evenodd"/>
        <path id="Trazado_208117-2" data-name="Trazado 208117" d="M1248.957,399.351c-.674-1.516-2.6-.776-4.159-.777-5.414,0-4.3-1.522-7.5-5.078l-.136-.129-.261-.15a1.7,1.7,0,0,1,.356.312c3.015,3.761,2.222,5.222,7.518,5.293,1.368.018,3.355-.638,3.9.622a.148.148,0,1,0,.282-.092Z" transform="translate(-1227.505 -384.015)" fill="#4d4d4d" fill-rule="evenodd"/>
        <path id="Trazado_208118-2" data-name="Trazado 208118" d="M1248.49,397.8c-1.641-1.852-2.79-2.022-4.946-1.251-2.246.8-3.913-1.61-5.27-3.1l-1.32-1.455-1-1.038c1.123,1.318,2.306,2.748,3.48,4.007,4.448,4.777,5.075-1.3,8.837,3.028a.149.149,0,0,0,.223-.2Z" transform="translate(-1227.053 -382.946)" fill="#4d4d4d" fill-rule="evenodd"/>
        <path id="Trazado_208119-2" data-name="Trazado 208119" d="M1246.169,395.745a5.643,5.643,0,0,0-3.711-.132c-2.353.494-4.021-3.428-5.768-4.61-.091-.062-.156-.1-.256-.167h0a8.488,8.488,0,0,1,1.41,1.347c.936,1.1,2.426,4.1,4.66,3.671a5.388,5.388,0,0,1,3.589.178.149.149,0,0,0,.077-.287Z" transform="translate(-1227.282 -382.887)" fill="#4d4d4d" fill-rule="evenodd"/>
        <path id="Trazado_208120-2" data-name="Trazado 208120" d="M1246.623,396.13c-.609.4-.532-.159-1.826.505-.975.5-2.9-1.676-3.694-2.22a.557.557,0,0,0,.276.264c.7.714,2.417,2.709,3.527,2.179,1.287-.614,1.126-.013,1.889-.486a.149.149,0,0,0-.172-.242Z" transform="translate(-1229.496 -384.583)" fill="#4d4d4d" fill-rule="evenodd"/>
        <path id="Trazado_208121-2" data-name="Trazado 208121" d="M1246.476,402.058c-3.266.784-3.841.73-6.057-1.385-.106-.1-.469-.788-.827-.723-.12.022-.354-.213-.444-.283.1.14.261.377.464.355,2.587,2.695,2.859,3.219,6.956,2.318a.148.148,0,1,0-.092-.282Z" transform="translate(-1228.569 -387.073)" fill="#4d4d4d" fill-rule="evenodd"/>
        <path id="Trazado_208122-2" data-name="Trazado 208122" d="M1266.921,405.711c1.133-.389.269,2.116-.455.311a2.453,2.453,0,0,0,.381-.3.236.236,0,0,0,.075-.014Zm-.254-.054c-.405.174-.63.424-.245.974,1.1,1.573,2.457-1.976.331-1.383a.247.247,0,0,0-.087.409Z" transform="translate(-1241.406 -389.688)" fill="#4d4d4d" fill-rule="evenodd"/>
      </g>
      <path id="Trazado_208123-2" data-name="Trazado 208123" d="M1186.012,420.42c-2.391,5.045-14.592,7.568-19.755,7.867-2.157.126-7.216.553-8.391-1.724-3.03-5.873-3.6-10.5-9.989-14.329a25.9,25.9,0,0,0-5.371-2.174,4.324,4.324,0,0,0-2.492,4.077c-.07,3.009,5.743,3.024,4.187.355a.943.943,0,0,1,.367.343c1.161,1.9-2.125,1.989-2.937,1.687-4.1-1.526-.227-7.362,1.123-6.557,9.446,2.434,11.626,7.7,15.262,15.683.616,1.353.428,1.409,2.359,1.855,6,1.385,15.337-1.568,20.831-4.1,2.583-1.188,3.133-1.294,4.149-3.491a.642.642,0,0,1,.869-.262c.312.168-.047.453-.215.765Z" transform="translate(-1139.803 -391.92)" fill="#4d4d4d" fill-rule="evenodd"/>
      <path id="Trazado_208124-2" data-name="Trazado 208124" d="M1188.635,418.917c-5.495-1.322-11.137-3.239-16.837-2.355-.568.088-2.946.361-3.373.726-.285.908-2.478.857-3.4.224-3.572-2.44-5.572-7.523-10.292-9.165-.984-.342-4.575-1.655-5.6-1.524a16.353,16.353,0,0,0-3.454,1.4c2.661-1.756,3.122-2.247,6.109-1.333,6.066,2.144,6.035,2.423,10.4,7.148,1.43,1.547,3.264,4.039,5.591,3.134.694-1.036,5.1-1.471,5.883-1.544,4.378-.409,10.436,1.34,14.859,2.342.346.076.953.109.877.456a.642.642,0,0,1-.765.49Zm-20.208-1.639a.2.2,0,0,0,.018-.078.588.588,0,0,1-.018.078Z" transform="translate(-1142.587 -390.286)" fill="#4d4d4d" fill-rule="evenodd"/>
      <path id="Trazado_208125-2" data-name="Trazado 208125" d="M1201.782,419.735c-1.019-1.789-4.523-8.839-6.22-9.236-5.692-1.331-9.76.806-14.764,2.973a10.138,10.138,0,0,1-6.339.763h0c6.65.483,14.291-6.687,21.559-4.212,1.861.634,5.693,7.083,6.874,9.066a.642.642,0,0,1-1.11.646Z" transform="translate(-1156.235 -391.736)" fill="#4d4d4d" fill-rule="evenodd"/>
      <path id="Trazado_208126-2" data-name="Trazado 208126" d="M1198.281,404.873c-3.078-1.507-5.656-6.056-9.18-6.679-1.96-.347-8.555,8.786-9.706,10,.908-1.728,7.279-10.7,9.874-10.326,3.859.549,6.461,5.079,9.18,6.361a.526.526,0,0,1,.362.649c-.079.279-.25.07-.53-.009Z" transform="translate(-1158.575 -386.217)" fill="#4d4d4d" fill-rule="evenodd"/>
      <path id="Trazado_208127-2" data-name="Trazado 208127" d="M1186.711,401.484a17.315,17.315,0,0,0-4.831-.365c-1.095,0-1.64,4.725-1.757,5.262l-.358,2.211c.03-.941,0-8.035,2.108-7.926a15.209,15.209,0,0,1,5,.258c.284.062.523-.125.461.159a.526.526,0,0,1-.626.4Z" transform="translate(-1158.75 -387.499)" fill="#4d4d4d" fill-rule="evenodd"/>
      <path id="Trazado_208128-2" data-name="Trazado 208128" d="M1197.654,429.43c.452,3.587.482,5.767-1.781,8.9-4.972,6.883-17.611,7.273-25.315,6.145-2.589-.379-4.11-1.14-5.909,1.689a3.938,3.938,0,0,0,2.459,6.244c1.515.328,1.7-.765,1.72-1.928.372,1.418-.247,2.5-1.774,2.243-3.19-.535-4.731-3.849-2.915-6.872,1.888-3.144,3.6-2.239,6.451-1.88,7.26.915,20.156.566,24.755-5.974,1.976-2.811,1.987-5,1.546-8.185a.643.643,0,0,1,.472-.776c.344-.084.206.052.29.4Z" transform="translate(-1150.974 -400.985)" fill="#4d4d4d" fill-rule="evenodd"/>
      <path id="Trazado_208129-2" data-name="Trazado 208129" d="M1207.7,430.137c1.072,3.636.28,3.751.5,7.307.346,5.64-2.618,8.61-6.745,12.033-4.67,3.872-7.271,3.963-13.017,4.334-2.05.133-1.923.828-3.5-1.431a8.121,8.121,0,0,1-1.167-6.991c-.227,3.694.3,5.817,3.15,8.258l.6-.139.752-.082c5.51-.511,8.612-.528,13.028-4.333,3.723-3.207,6.672-6.1,6.277-11.267-.27-3.532-.007-3.761-1.105-7.305a.642.642,0,0,1,1.225-.385Z" transform="translate(-1160.506 -401.307)" fill="#4d4d4d" fill-rule="evenodd"/>
      <path id="Trazado_208130-2" data-name="Trazado 208130" d="M1215.954,439.12c-.393,2.229,1.839-.607-.462,8.218-1.846,7.081-3.584,9.449-9.731,13.058-2.535,1.489-3.3,1.623-6.051-.209-.37-.247-1.984-1.383-1.833-2.052.277.737,1.388,1.442,2,1.8,2.133,1.265,2.723,1.8,4.673.719,4.841-2.684,8.346-5.855,9.9-11.33,3.118-11-.059-7.009.484-10.432a.526.526,0,1,1,1.027.225Z" transform="translate(-1167.333 -405.477)" fill="#4d4d4d" fill-rule="evenodd"/>
      <path id="Trazado_208131-2" data-name="Trazado 208131" d="M1222.5,454.215c-.113,3.173.154,11.453-3.135,13.294-2.277,1.274-4.569.591-6.854-.135,2.174.276,4.886.888,6.837-.309,2.82-1.728,2.674-10.327,2.705-13.116.007-.29.01-.427.3-.42s.152.395.146.685Z" transform="translate(-1174.278 -412.611)" fill="#4d4d4d" fill-rule="evenodd"/>
      <path id="Trazado_208132-2" data-name="Trazado 208132" d="M1169.9,450.432c2.072-1.071,1.587-5.619,3.665-5.837.1-.01.077-.008.177.038a3.1,3.1,0,0,0-1.089,1.041c-.34,1.764-.707,4.493-2.43,5.51a.41.41,0,0,1-.323-.753Z" transform="translate(-1153.955 -408.373)" fill="#4d4d4d" fill-rule="evenodd"/>
      <path id="Trazado_208133-2" data-name="Trazado 208133" d="M1161.614,453.174c-3.421-.794-7.287-2.535-10.459-3.094.857-.436,9.219,2.024,10.483,2.275a.41.41,0,1,1-.024.819Z" transform="translate(-1145.185 -410.951)" fill="#4d4d4d" fill-rule="evenodd"/>
      <path id="Trazado_208134-2" data-name="Trazado 208134" d="M1164.423,450.093c-3.161-.781-6.469-1.858-9.633-2.452,2.031-.306,7.47,1.177,9.792,1.649a.41.41,0,1,1-.16.8Z" transform="translate(-1146.909 -409.8)" fill="#4d4d4d" fill-rule="evenodd"/>
      <path id="Trazado_208135-2" data-name="Trazado 208135" d="M1166.2,448.458c-3.121-.3-5.512-.229-8.615-.816,2.994-.028,5.7-.132,8.713,0a.41.41,0,0,1-.1.814Z" transform="translate(-1148.235 -409.789)" fill="#4d4d4d" fill-rule="evenodd"/>
      <path id="Trazado_208136-2" data-name="Trazado 208136" d="M1165.119,446.127c-4.51-1.389-5.979-.978-10.214-1.725,4.3-.121,6.223-.174,10.457.942a.41.41,0,0,1-.243.783Z" transform="translate(-1146.963 -408.255)" fill="#4d4d4d" fill-rule="evenodd"/>
      <path id="Trazado_208137-2" data-name="Trazado 208137" d="M1165.252,443.225a68.108,68.108,0,0,0-11.617-.792c3.145-.747,8.551-.478,11.792-.007a.409.409,0,0,1-.175.8Z" transform="translate(-1146.361 -407.129)" fill="#4d4d4d" fill-rule="evenodd"/>
      <path id="Trazado_208138-2" data-name="Trazado 208138" d="M1165.166,439.791c-3.156,1.467-4.948.013-8.473.507a2.666,2.666,0,0,1-.968-.034h0c.292-.074.626-.138.911-.219,3.374-.951,5.176.564,8.168-.989a.41.41,0,1,1,.361.735Z" transform="translate(-1147.352 -405.729)" fill="#4d4d4d" fill-rule="evenodd"/>
      <path id="Trazado_208139-2" data-name="Trazado 208139" d="M1162.449,436.633c-2.7,1.185-4.754.328-7.858.609a27.928,27.928,0,0,0-2.983.44c4.681-1.838,7.614-.389,10.406-1.743a.409.409,0,1,1,.435.694Z" transform="translate(-1145.4 -404.241)" fill="#4d4d4d" fill-rule="evenodd"/>
      <path id="Trazado_208140-2" data-name="Trazado 208140" d="M1164.19,434.907c-2.752.094-5.238-.331-7.6.951,1.278-1.767,5.5-1.585,7.492-1.763a.41.41,0,1,1,.109.812Z" transform="translate(-1147.761 -403.395)" fill="#4d4d4d" fill-rule="evenodd"/>
      <path id="Trazado_208141-2" data-name="Trazado 208141" d="M1162.938,432.162a18.9,18.9,0,0,1-5.218.956,10.217,10.217,0,0,0-2.544.592h0a4.476,4.476,0,0,1,2.474-1.063,24.058,24.058,0,0,0,4.958-1.235.41.41,0,0,1,.329.75Z" transform="translate(-1147.092 -402.108)" fill="#4d4d4d" fill-rule="evenodd"/>
      <path id="Trazado_208142-2" data-name="Trazado 208142" d="M1161.213,429.957c-4.475.432-4.853.017-8.508,2.254h0c2.781-2.764,4.46-2.49,8.383-3.063a.41.41,0,1,1,.126.809Z" transform="translate(-1145.92 -401.049)" fill="#4d4d4d" fill-rule="evenodd"/>
      <path id="Trazado_208143-2" data-name="Trazado 208143" d="M1162.869,452.168a41.6,41.6,0,0,1-6.974-2.209,9.521,9.521,0,0,0-3.507-.82l1.852-.086,1.822.462a53.9,53.9,0,0,0,6.983,1.853.41.41,0,1,1-.176.8Z" transform="translate(-1145.77 -410.489)" fill="#4d4d4d" fill-rule="evenodd"/>
      <path id="Trazado_208144-2" data-name="Trazado 208144" d="M1154.093,446.318a.133.133,0,0,0,.088-.021l-.009-.009a.289.289,0,0,0-.08.031Zm-.195.327c-1.168.286.851-2.366.738-.143a.409.409,0,0,1-.738.143Z" transform="translate(-1146.313 -408.855)" fill="#4d4d4d" fill-rule="evenodd"/>
      <path id="Trazado_208145-2" data-name="Trazado 208145" d="M1153.088,444.024c.25-.069.352-.15-.016-.139h0c-.417-.257.8-.829.816.314a.41.41,0,1,1-.8-.176Z" transform="translate(-1146.053 -407.862)" fill="#4d4d4d" fill-rule="evenodd"/>
      <path id="Trazado_208146-2" data-name="Trazado 208146" d="M1151.7,448.138c.067-.023.126-.057.084-.105a.161.161,0,0,0-.084.105Zm-.048.219c-.5.432-.668-1.653.61-.543a.41.41,0,0,1-.61.543Z" transform="translate(-1145.245 -409.745)" fill="#4d4d4d" fill-rule="evenodd"/>
      <path id="Trazado_208147-2" data-name="Trazado 208147" d="M1152.75,441.234c-.036.068-.05.136.023.148a.166.166,0,0,0-.023-.148Zm-.047-.1c-.07.024-.02.025-.123.04-.049-.027-.069-.03-.087-.086-.257-.792,2.019.329.488.8a.41.41,0,0,1-.278-.753Z" transform="translate(-1145.81 -406.582)" fill="#4d4d4d" fill-rule="evenodd"/>
      <path id="Trazado_208148-2" data-name="Trazado 208148" d="M1151.638,445.874l.031-.042.024-.019c.053.006.067.054.1.019,0-.054.009-.019-.031-.1l.182-.02a1.771,1.771,0,0,0-.211-.046h0c-.3-.4.667-.584.7.387a.409.409,0,0,1-.8-.175Z" transform="translate(-1145.41 -408.728)" fill="#4d4d4d" fill-rule="evenodd"/>
      <path id="Trazado_208149-2" data-name="Trazado 208149" d="M1155.111,439.9c.046-.171.084-.039.113-.127-.047-.067-.3.128-.4.17-.409-.668.8-1.237,1.1-.116a.41.41,0,1,1-.816.073Z" transform="translate(-1146.885 -405.812)" fill="#4d4d4d" fill-rule="evenodd"/>
      <path id="Trazado_208150-2" data-name="Trazado 208150" d="M1154.132,436.833a2.094,2.094,0,0,0-.028-.286.6.6,0,0,0-.246.192c-.508-.07.286-1.694,1.056-.15a.41.41,0,0,1-.782.244Z" transform="translate(-1146.39 -404.264)" fill="#4d4d4d" fill-rule="evenodd"/>
      <path id="Trazado_208151-2" data-name="Trazado 208151" d="M1150.874,437.223c.037.046.083.082.126.049v-.007a.173.173,0,0,0-.126-.042Zm-.123.05a.552.552,0,0,0-.12.123c-.867-.012,1-1.752.93-.029a.41.41,0,0,1-.81-.094Z" transform="translate(-1144.828 -404.587)" fill="#4d4d4d" fill-rule="evenodd"/>
      <path id="Trazado_208152-2" data-name="Trazado 208152" d="M1151.985,434.583c-.036-.109-.178-.614-.217-.659l-.009,0a2.555,2.555,0,0,0-.04.257c-.808-.1,0-1.389,1,.032a.41.41,0,0,1-.732.368Z" transform="translate(-1145.296 -403.139)" fill="#4d4d4d" fill-rule="evenodd"/>
      <path id="Trazado_208153-2" data-name="Trazado 208153" d="M1151.335,440.111l-.081.005c-.533-.145-.088-1.986.79-.385a.41.41,0,0,1-.709.38Z" transform="translate(-1145.123 -405.761)" fill="#4d4d4d" fill-rule="evenodd"/>
      <path id="Trazado_208154-2" data-name="Trazado 208154" d="M1196.644,425.531c-2.442,1.122-3.151,1.752-5.916,1.9-2.528.134-.228.569-3.037,1.119-2.694.527-4.151,3.86-8.341,3.261l-1.668-.318c-4.232-.568-3.5.306-6.862-2.538-.521-.441-.357-2.816-1.635-4.739-.922-1.387-1.256-1.723-2.26-3.013-.567-.73-.422-1.1-1.047-1.8h0c.65.4.546.985,1.152,1.714a32,32,0,0,1,2.334,2.96c1.259,1.817,1.323,4.368,1.656,4.642,3.294,2.707,2.58,1.867,6.728,2.378l1.664.3c4,.53,5.32-2.758,8.217-3.35,2.453-.5.238-.974,3.114-1.151,2.6-.16,3.362-.818,5.673-1.9a.293.293,0,0,1,.229.541Z" transform="translate(-1152.166 -396.43)" fill="#4d4d4d" fill-rule="evenodd"/>
      <path id="Trazado_208155-2" data-name="Trazado 208155" d="M1190.085,420.522c-2.233-.27-4.853.8-7.138,1.31a15.418,15.418,0,0,0-3.857,1.478,30.758,30.758,0,0,0-4.012,1.727c-3.377,1.771-6.208.253-8.632-2.287-.95-1,1.889-.953-1.75-3.89-1.782-1.438-.515-2.147-3.666-4.131a.7.7,0,0,1-.292-.259c-1.213-.889.463-.868-2.947-1.937-.8-.25-1.106-1.068-1.687-1.527a5.932,5.932,0,0,0-3.155-1.239,4.131,4.131,0,0,1,2.228.526c1.7.97,1.2.973,2.677,2.041a5.793,5.793,0,0,1,1.615.466,6.207,6.207,0,0,1,1.511,1.57c0-.017,0-.012,0-.019.057.072.836.53.977.629l-.021-.016a4.305,4.305,0,0,1,1.8,2.018c1.436,2.858,3.922,2.311,2.984,5.152-.252.765,1.964,2.05,2.5,2.384,3.245,2.025,5.276.011,7.932-1.042a44.156,44.156,0,0,1,5.706-2.173c2.514-.576,4.882-1.641,7.362-1.356a.293.293,0,0,1-.126.573Z" transform="translate(-1146.036 -391.862)" fill="#4d4d4d" fill-rule="evenodd"/>
      <path id="Trazado_208156-2" data-name="Trazado 208156" d="M1190.852,421.113c-2.4.238-3.915.159-6.437.523l-.3.127c-2.93,2-4.978,1.229-7.53,2.771-2.638,1.594-3.968-1.584-5.3-3.29-.921-1.184-3.056-4.5-4.14-5.259-1.31-.917-.154.088-1.572-1.2-.633-.575-2.16-1.9-3.145-1.987,1.1-.16,3.3,1.866,3.957,2.494l-.02-.019.187.138c2.167,1.143,3.36,3.561,4.983,5.586,1.813,2.263,2.229,4.383,4.829,3.156,1.611-1.3,4.726-.96,7.455-2.816.943-.641,5.364-.631,6.923-.8a.293.293,0,1,1,.1.578Z" transform="translate(-1150.535 -393.294)" fill="#4d4d4d" fill-rule="evenodd"/>
      <path id="Trazado_208157-2" data-name="Trazado 208157" d="M1196.72,426.512c-3.9-.917-4.217-1.35-7.3.7-.021.014-.046.027-.126.071l.053-.043c-.815.55-4.55,2.748-5.758,1.987a7.067,7.067,0,0,1-2.208-2.14l.183.109.145.147c1.525,1.684,1.887,2.1,3.874,1.414,5.865-2.011,3.159-4.571,11.261-2.813a.293.293,0,1,1-.126.573Z" transform="translate(-1159.517 -399.251)" fill="#4d4d4d" fill-rule="evenodd"/>
      <path id="Trazado_208158-2" data-name="Trazado 208158" d="M1202.9,428.084c-4.7.311-2.305-.52-6.353,1.815-1.5.863-3.083.827-4.928,1.521a22.141,22.141,0,0,0-3.218,1.219c-2.071.963-3.449.621-5.181-.732-.036-.028-1.126-.928-1.052-1.1h0a7.913,7.913,0,0,0,1.367,1.13c1.924,1.019,2.528,1.488,4.707.412a23.149,23.149,0,0,1,3.211-1.3c1.728-.688,3.507-.778,4.814-1.558,4.137-2.47,1.829-1.621,6.589-2a.293.293,0,1,1,.043.585Z" transform="translate(-1159.886 -400.269)" fill="#4d4d4d" fill-rule="evenodd"/>
      <path id="Trazado_208159-2" data-name="Trazado 208159" d="M1189.154,425.285c-3.238,1.9-4.925,3.661-8.465.829-.841-.673.246-.713-.883-1.167a.708.708,0,0,1-.365-.562c.746,1.027.74-.229,1.188,1.316.024.012.164.166.225.209,3.545,2.536,4.808.788,7.922-1.073a.293.293,0,0,1,.379.448Z" transform="translate(-1158.597 -398.793)" fill="#4d4d4d" fill-rule="evenodd"/>
      <path id="Trazado_208160-2" data-name="Trazado 208160" d="M1188.114,420.7c-.769,2.57-3.545,2.677-5.8,3.336a5,5,0,0,1-2.086-.061c-2.265,2.509-8.559,3.56-11.775,3.49a23.775,23.775,0,0,0-3.5.088c-1.481.112-4.068-1.54-5.012-2.938-1.293-1.911-2.051-5.23-2.63-6.094-1.578-2.356-2.068-5.119-4.658-5.187-2.434-.064-.23-2.351-3.741-2.835-2.633-.362-3.492-.464-3.492-.464l1.756.182,1.754.133c3.641.419,1.492,2.721,3.724,2.748,2.691.033,3.036,2.3,4.464,4.552,1.438,2.264,1.571,4.472,3.14,6.752.88,1.28,3.346,2.834,4.649,2.725a23.849,23.849,0,0,1,3.561-.116,24.778,24.778,0,0,0,8.854-1.727,11.994,11.994,0,0,0,2.814-1.859c2.743.027.247.534,3.646-.41,1.868-.518,3.178-.453,3.759-2.441a.293.293,0,1,1,.573.126Z" transform="translate(-1142.466 -391.988)" fill="#4d4d4d" fill-rule="evenodd"/>
      <path id="Trazado_208161-2" data-name="Trazado 208161" d="M1209.092,444.509c-.331,1.624-.817,6.088-1.984,7.141-1.5,1.351-2.984,1.326-4.659,2.773-3.706,3.2-7.183,5.217-12.352,4.321a3.98,3.98,0,0,1-3.6-3.066h0c1.373,1.485.545,2.377,3.633,2.835,5.1.757,8.4-1.226,12.015-4.423,1.706-1.51,3.191-1.508,4.611-2.814.978-.9,1.479-5.438,1.762-6.892a.293.293,0,1,1,.573.126Z" transform="translate(-1161.942 -408.165)" fill="#4d4d4d" fill-rule="evenodd"/>
      <path id="Trazado_208162-2" data-name="Trazado 208162" d="M1208.5,443.24a17.2,17.2,0,0,1-6.369,7.066c-3.051,2.079-1.715,1.089-5.221,1.936-1.742.421-7.618,2.451-9.244,1.2l-.635-.673-.6-.777a18.228,18.228,0,0,0,1.328,1.327c1.5,1.053,7.452-1.029,9.066-1.449,3.475-.9,2.088.122,5.034-1.946a16.913,16.913,0,0,0,6.072-6.841.294.294,0,0,1,.565.16Z" transform="translate(-1161.915 -407.556)" fill="#4d4d4d" fill-rule="evenodd"/>
      <path id="Trazado_208163-2" data-name="Trazado 208163" d="M1223.794,452.81c.419-1.743-2.541-.682-1.552.7a.942.942,0,0,0,1.582-.494.291.291,0,0,1-.029-.2Zm.166.33c.022.729-1.536,1.394-2.067.484-1.275-2.182,2.993-3.316,2.474-.689a.293.293,0,0,1-.349.224.3.3,0,0,1-.058-.019Z" transform="translate(-1178.612 -411.608)" fill="#4d4d4d" fill-rule="evenodd"/>
      <path id="Trazado_208164-2" data-name="Trazado 208164" d="M1223.423,453.486c1.07.076-.359-1.469-.229-.178a1.015,1.015,0,0,0,.046.219.294.294,0,0,1,.183-.041Zm.41.515.013,0a.354.354,0,0,1-.415.064l-.069,0a.294.294,0,0,1-.262-.28,1.01,1.01,0,0,1-.206-.843c.476-1.74,2.324.614.94,1.054Z" transform="translate(-1179.187 -412.035)" fill="#4d4d4d" fill-rule="evenodd"/>
      <path id="Trazado_208165-2" data-name="Trazado 208165" d="M1216.9,457.979c2.542-.853-1.679-2.794-1.326-.763a1.75,1.75,0,0,0,1.127,1.174.275.275,0,0,1-.021-.059.293.293,0,0,1,.219-.352Zm.414.452c-.422.547-2.636-.493-2.021-1.846.928-2.04,4.6.615,2.021,1.846Z" transform="translate(-1175.545 -413.706)" fill="#4d4d4d" fill-rule="evenodd"/>
      <path id="Trazado_208166-2" data-name="Trazado 208166" d="M1217.21,458.009c1.263.272-.321-.657-.085-.006a.3.3,0,0,1,.085.006Zm-.292.1a.537.537,0,0,1-.041-.283c.269-1.619,2.676,1.033.207.754a.293.293,0,0,1-.166-.47Z" transform="translate(-1176.336 -414.4)" fill="#4d4d4d" fill-rule="evenodd"/>
      <path id="Trazado_208167-2" data-name="Trazado 208167" d="M1209.587,462.126c1.545-.835-1.935-1.37-1.14.308a.7.7,0,0,0,1.235.237.293.293,0,0,1-.1-.544Zm.458.4a1.086,1.086,0,0,1-2.077-.588c.165-2.218,3.89-.7,2.077.588Z" transform="translate(-1172.12 -416.063)" fill="#4d4d4d" fill-rule="evenodd"/>
      <path id="Trazado_208168-2" data-name="Trazado 208168" d="M1209.51,462.617c.236-.09.085-.3-.048-.2,0-.006,0-.007,0-.011h0a.336.336,0,0,0,.052.208Zm-.256.151a.913.913,0,0,1-.125-.223c-.51-1.292,2.32-.037.438.666a.293.293,0,0,1-.314-.442Z" transform="translate(-1172.644 -416.62)" fill="#4d4d4d" fill-rule="evenodd"/>
      <path id="Trazado_208169-2" data-name="Trazado 208169" d="M1202.359,465.561c2.491-2.163-3.352-2.248-1.762.018.55.784,2.1,1.052,2.5.279l.209-.439h0c-.347,1.875-2.574,1.174-3.134.163-1.734-3.128,5.82-2.577,2.567.42a.293.293,0,0,1-.386-.442Z" transform="translate(-1168.305 -417.33)" fill="#4d4d4d" fill-rule="evenodd"/>
      <path id="Trazado_208170-2" data-name="Trazado 208170" d="M1202.708,466.328c1.077-.684-.856-.7-.008.006l.008-.006Zm-.125.181a.806.806,0,0,1-.245-.245c-.922-1.493,2.558-.91.694.553a.294.294,0,0,1-.449-.308Z" transform="translate(-1169.378 -418.236)" fill="#4d4d4d" fill-rule="evenodd"/>
      <path id="Trazado_208171-2" data-name="Trazado 208171" d="M1194.415,467.041c1.621-1.121-2.537-3.015-1.845-.758a2.1,2.1,0,0,0,1.811,1.227.282.282,0,0,1-.055-.064.294.294,0,0,1,.089-.405Zm.835-.084c-.21,1.485-2.9.617-3.116-.87-.379-2.624,3.987-.841,3.116.87Z" transform="translate(-1164.604 -417.935)" fill="#4d4d4d" fill-rule="evenodd"/>
      <path id="Trazado_208172-2" data-name="Trazado 208172" d="M1194.385,467.525l.019-.016h-.007c-.007-.012,0-.008,0-.024l0,0a.3.3,0,0,0,0,.037Zm.133,0a.061.061,0,0,0,.028.022v0a.084.084,0,0,0-.028-.019Zm-.279.373c-1.234-.827,1.84-1.3.473.12a.293.293,0,0,1-.414-.022.3.3,0,0,1-.058-.1Z" transform="translate(-1165.472 -419.047)" fill="#4d4d4d" fill-rule="evenodd"/>
      <path id="Trazado_208173-2" data-name="Trazado 208173" d="M1187.576,465.771c1.338-1.52-2.332-1.334-.482.047a.931.931,0,0,0,.42.2.293.293,0,0,1,.062-.249Zm.075.44a1.384,1.384,0,0,1-1.118-.513c-1.658-2.017,3.383-1.937,1.494.45a.293.293,0,0,1-.376.064Z" transform="translate(-1161.798 -417.701)" fill="#4d4d4d" fill-rule="evenodd"/>
      <path id="Trazado_208174-2" data-name="Trazado 208174" d="M1188.013,465.887a.074.074,0,0,0,.02-.047l0,0a.137.137,0,0,0-.017.05Zm.31.3.046-.009c-.012.307-.28.335-.484.189-1.221-.874,1.139-1.211.438-.18Z" transform="translate(-1162.431 -418.309)" fill="#4d4d4d" fill-rule="evenodd"/>
      <path id="Trazado_208175-2" data-name="Trazado 208175" d="M1228.6,427.268c.3-.849,1.86-5.64,3.262-5.683,2.152-.065,8.414,2.271,10.568,3.205-3.534-.623-6.986-2.159-10.527-2.364-.852.59-2.36,4.063-2.644,4.956-.079.279-.016.614-.3.534a.525.525,0,0,1-.362-.649Z" transform="translate(-1181.895 -397.464)" fill="#4d4d4d" fill-rule="evenodd"/>
      <path id="Trazado_208176-2" data-name="Trazado 208176" d="M1243.507,427.671c-4.161,2-9.051-1.349-10.277-.045-1.195,1.27-.751,1.561-2.688,2.373,1.667-1.489,1.125-1.291,2.282-2.715,1.494-1.839,6.524,1.722,10.077-.136.237-.167.567-.447.734-.21a.526.526,0,0,1-.127.733Z" transform="translate(-1182.826 -399.909)" fill="#4d4d4d" fill-rule="evenodd"/>
      <path id="Trazado_208177-2" data-name="Trazado 208177" d="M1242.967,428.739c-4.234,3.312-5.911.108-11.148,1.492a2.589,2.589,0,0,0-1.661.834c.111-1.174,2.232-1.394,3.013-1.483,4.544-.521,6.049,1.682,9.383-1.289.214-.2.25-.51.446-.3a.526.526,0,0,1-.031.743Z" transform="translate(-1182.643 -400.471)" fill="#4d4d4d" fill-rule="evenodd"/>
      <path id="Trazado_208178-2" data-name="Trazado 208178" d="M1242.53,429.913c-2.486,6.117-5.973,5.939-11.239,2.322-.49-.337-.4-.4-1.036-.274.157-.4.8-.25,1.111-.025l-.024-.019c5.264,3.386,8.881,4.2,10.176-2.29a.526.526,0,1,1,1.012.286Z" transform="translate(-1182.69 -401.096)" fill="#4d4d4d" fill-rule="evenodd"/>
      <path id="Trazado_208179-2" data-name="Trazado 208179" d="M1243.693,429.543c-2,6.875-3.367,9.8-11.193,5.734-3.938-2.048,2.2,1.065-2.391-1.244a7.828,7.828,0,0,1,2.531.962c7.8,3.875,8.567,1.4,10.265-5.675a.41.41,0,0,1,.788.223Z" transform="translate(-1182.62 -400.991)" fill="#4d4d4d" fill-rule="evenodd"/>
      <path id="Trazado_208180-2" data-name="Trazado 208180" d="M1244.4,427.063c-.125,1.625-.828,12.834-3.79,12.054a25.184,25.184,0,0,1-9.562-5.437c1.86,1.157,2.385,1.487,2.851,1.757,1.133.657,6.435,3.452,7.21,3.273,1.9-.438,2.149-10.026,2.239-11.645a.526.526,0,1,1,1.052,0Z" transform="translate(-1183.068 -399.814)" fill="#4d4d4d" fill-rule="evenodd"/>
      <path id="Trazado_208181-2" data-name="Trazado 208181" d="M1244.383,429.285c-.375,1.278-.228,2.405-.62,4.02-.3,1.244-.689,4.256-1.729,4.858-2.081,1.207-8.855-2.424-10.982-3.428,2.166.658,9.16,4.211,10.79,3.206.681-.42,1.011-3.9,1.217-4.843.352-1.6.166-2.679.536-4.037a.41.41,0,0,1,.788.223Z" transform="translate(-1183.068 -400.869)" fill="#4d4d4d" fill-rule="evenodd"/>
      <path id="Trazado_208182-2" data-name="Trazado 208182" d="M1247.656,433.81c-.021-.784-1.019.565-.253.731.246.053.444-.252.49-.566a.172.172,0,0,1-.057.01.177.177,0,0,1-.179-.175Zm.34.068c.136.371-.377,1.109-.79.811-1.132-.818.692-2.2.8-.883a.181.181,0,0,1-.014.072Z" transform="translate(-1190.552 -403.001)" fill="#4d4d4d" fill-rule="evenodd"/>
      <path id="Trazado_208183-2" data-name="Trazado 208183" d="M1243.941,435.074c.744-2.069-2.274-.8-.551.206a.411.411,0,0,0,.555-.059.181.181,0,0,1,0-.147Zm.067.218a.524.524,0,0,1-.693.13c-2.391-1.153,1.892-3.158.952-.21a.178.178,0,0,1-.233.094l-.027-.014Z" transform="translate(-1188.533 -403.199)" fill="#4d4d4d" fill-rule="evenodd"/>
      <path id="Trazado_208184-2" data-name="Trazado 208184" d="M1239.821,434.7c.579-1.011-.98-.837-.243.073a1.012,1.012,0,0,0,.231.221.294.294,0,0,1,.011-.294Zm.538.22c-.055.527-.792.356-1.1-.029-1.264-1.6,2-2.069,1.1.029Z" transform="translate(-1186.821 -403.124)" fill="#4d4d4d" fill-rule="evenodd"/>
      <path id="Trazado_208185-2" data-name="Trazado 208185" d="M1236.514,434.121c.281-.318.32-.475-.062-.626a.481.481,0,0,0,.039.842.177.177,0,0,1,.023-.216Zm.26.24a.788.788,0,0,0,.3-.148c-.156.333-.493.533-.752.207-1.3-1.634,1.6-1.528.45-.059Z" transform="translate(-1185.405 -402.985)" fill="#4d4d4d" fill-rule="evenodd"/>
      <path id="Trazado_208186-2" data-name="Trazado 208186" d="M1233.64,433.316a.185.185,0,0,0-.031-.228c-.068.057-.032.143.031.228Zm-.09.141c-.88-.51,1.029-1.118.292.2a.177.177,0,0,1-.292-.2Z" transform="translate(-1184.14 -402.813)" fill="#4d4d4d" fill-rule="evenodd"/>
      <path id="Trazado_208187-2" data-name="Trazado 208187" d="M1254.877,412.7c3.065-5.01,2.208-3.355,6.89-6.281,3.338-2.086,9.234-6.415,11.682-10.8l.461.308c-2.324,4.534-8.466,9.341-11.563,11.387-4.486,2.963-3.865,1.212-6.7,6.079-.186.3-.256.371-.558.185a.642.642,0,0,1-.21-.883Z" transform="translate(-1194.319 -385.157)" fill="#4d4d4d" fill-rule="evenodd"/>
    </g>
  </g>
</svg>
