<svg xmlns="http://www.w3.org/2000/svg" xmlns:xlink="http://www.w3.org/1999/xlink" width="438" height="301.999" viewBox="0 0 438 301.999">
  <defs>
    <clipPath id="clip-path">
      <rect id="Rectángulo_32275" data-name="Rectángulo 32275" width="298" height="438" transform="translate(0.333)" fill="#fff" stroke="#707070" stroke-width="1" opacity="0.325"/>
    </clipPath>
  </defs>
  <g id="Grupo_172433" data-name="Grupo 172433" transform="translate(-978.287 -8629.299)">
    <g id="Grupo_171946" data-name="Grupo 171946">
      <g id="Grupo_168057" data-name="Grupo 168057" transform="translate(0.105 2989.298)">
        <g id="Grupo_59889" data-name="Grupo 59889" transform="translate(1416.182 5639.667) rotate(90)">
          <g id="Grupo_67" data-name="Grupo 67" clip-path="url(#clip-path)">
            <path id="Trazado_108698" data-name="Trazado 108698" d="M0,63.365a334.489,334.489,0,0,0,69.788,113.2C163.669,276.943,314.071,313.8,453.707,302.882c72.008-5.631,143.938-22.473,215.71-14.5s146.642,49.374,162.772,117.356c8.159,34.387.325,70.873,8.285,105.3s43.926,68.313,77.561,54.514c27.342-11.219,38.437-48.324,67.6-53.793,26.087-4.891,49.182,21.019,51.808,46.546s-8.428,50.226-16.6,74.639C999.541,696.62,997.441,767.318,1022,829.891s77.267,115.8,143.379,135.9c22.241,6.764,46.379,9.776,68.881,3.872,42.434-11.132,70.458-52.055,79.254-93.646s2.27-84.555-2.045-126.8a1202.7,1202.7,0,0,1,15.5-349.323c11.916-61.833,28.6-126.338,9.335-186.419-25.592-79.834-107.793-129.689-188.933-158.825C975.6-7.031,786.814-6.914,604.263,8.816S239.855,55.1,0,63.365Z" transform="translate(-998.968 -575.738)" fill="#81d4fa" opacity="0.418"/>
          </g>
        </g>
        <g id="Grupo_171906" data-name="Grupo 171906" transform="translate(849.665 5598.174)">
          <g id="Grupo_171924" data-name="Grupo 171924" transform="translate(296.333 50.893)">
            <path id="Trazado_208025" data-name="Trazado 208025" d="M302.386,441.938a13.113,13.113,0,0,0-3.491,1.183,2.282,2.282,0,0,0-1.061,3.053,3.1,3.1,0,0,0,1.442.993c7.513,3.171,16.949,1.986,24.96,2.114q16.2.259,32.4.053,32.4-.412,64.742-2.682c6.3-.443,10.722-4.573,2.084-6.174-17.339-3.216-35.12-2.8-52.749-2.377-13.695.33-27.39.659-41.075,1.27-6.1.273-12.264.178-18.29,1.294C308.892,441.122,305.364,441.3,302.386,441.938Z" transform="translate(-297.561 -156.493)" fill="#9c75d3" opacity="0.61" style="mix-blend-mode: multiply;isolation: isolate"/>
            <g id="Grupo_171909" data-name="Grupo 171909" transform="translate(2.873 129.361)">
              <g id="Grupo_171908" data-name="Grupo 171908" transform="translate(0 139.77)">
                <g id="Grupo_171906-2" data-name="Grupo 171906" transform="translate(0 1.637)">
                  <path id="Trazado_208026" data-name="Trazado 208026" d="M304.66,436.933a3.136,3.136,0,0,0-.313,1.027,1.026,1.026,0,0,0,.091.662c.222.367.732.4,1.16.392l27.761-.536c-.454-1.413-2.31-13.961-2.12-13.961-4.218,0-8.546-.608-12.779-.752-1.389,4.379-4.984,7.716-9,9.753C307.691,434.417,305.492,435.287,304.66,436.933Z" transform="translate(-302.119 -423.765)" fill="#a9c1c4"/>
                  <path id="Trazado_208027" data-name="Trazado 208027" d="M330.177,441.183c1.17.046,2.339.122,3.507.237a11.1,11.1,0,0,1,.21,3.123c-2.626-.3-5.982.127-8.676.252q-4.587.213-9.179.226c-4.475,0-8.912-.063-13.4.02-2.264.042-.825-3.212-.572-3.2C311.428,442.386,320.832,440.813,330.177,441.183Z" transform="translate(-301.386 -428.086)" fill="#fff"/>
                </g>
                <g id="Grupo_171907" data-name="Grupo 171907" transform="translate(90.641)">
                  <path id="Trazado_208028" data-name="Trazado 208028" d="M456.1,434.753a2.889,2.889,0,0,1,.351,1.027.932.932,0,0,1-.1.662c-.249.367-.819.4-1.3.393l-31.061-.537a140.142,140.142,0,0,0,2.372-13.961c4.719,0,9.561-.608,14.3-.752,1.554,4.38,5.577,7.716,10.068,9.753C452.714,432.237,455.175,433.106,456.1,434.753Z" transform="translate(-422.541 -421.585)" fill="#a9c1c4"/>
                  <path id="Trazado_208029" data-name="Trazado 208029" d="M426.252,439c-1.308.046-2.617.122-3.924.238a9.934,9.934,0,0,0-.234,3.122c2.938-.3,6.693.127,9.708.252q5.131.213,10.27.227c5.006,0,9.971-.064,14.99.019,2.533.042.924-3.212.641-3.2C447.23,440.206,436.709,438.634,426.252,439Z" transform="translate(-422.06 -425.906)" fill="#fff"/>
                </g>
              </g>
              <path id="Trazado_208030" data-name="Trazado 208030" d="M317.291,372.213l1.919,2.363a3.8,3.8,0,0,0-1.349,7.472l-1.5,1.384c1.526-1.414,9.445-.314,11.53-.237,3.371.124,6.464.81,9.808.457.132-2.681-2.549-5.082-1.906-7.689.326-1.32,1.439-2.287,2.062-3.5s.41-3.128-.925-3.388c.386.075,20.115-99.988,22.42-109.007l5.581.125a.945.945,0,0,1,1.135.882c1.818,6.943,3.35,13.874,4.939,20.864l8.43,33.4c4.726,18.723,8.9,37.412,15.8,55.457-1.544.617-1.08,3.457.579,3.552a2.544,2.544,0,0,0-1.658,2.677,7.437,7.437,0,0,0,1.224,3.157c.723,1.25,10.858-1.354,12.265-1.62,4.041-.762,7.928-1.016,11.8-2.646q-1.992-2.455-4.109-4.8a7.334,7.334,0,0,1,1.536-2.822c-5.159-9.056-6.984-20.028-9.234-30.047-2.536-11.3-5.174-22.568-7.988-33.8-5.527-22.054-10.337-44.18-16.142-66.2-.742-2.814-.62-2.773-3.747-2.73-2.184.03-4.367.036-6.551.071q-6.223.1-12.442.322-12.439.444-24.853,1.378c-.154,13.788-3.345,28-5.254,41.7l-5.924,42.529a26.035,26.035,0,0,1-1.947,7.863c-.965,1.989-2.481,4.153-1.628,6.192.369.881,1.172,1.687.992,2.624-.177.921-1.185,1.375-1.876,2.007-1.757,1.607-.784,4.772-.821,6.892-.057,3.291-.641,6.656-.933,9.937C318.3,359.494,315.837,370.468,317.291,372.213Z" transform="translate(-304.715 -235.504)" fill="#7e5ee3"/>
            </g>
            <g id="Grupo_171914" data-name="Grupo 171914" transform="translate(2.157 49.476)">
              <path id="Trazado_208031" data-name="Trazado 208031" d="M353.246,147.88q-1.164.234-2.33.428c.362,5.516,2.1,11.754,1.6,17.228-.481,5.278-.7,10.528-.87,15.889-.4,12.852-1.42,25.622-2.969,38.377a1.518,1.518,0,0,0,.1.97,1.494,1.494,0,0,0,.913.547c11.609,3.457,24.024,1.482,36.132,1.191a2.938,2.938,0,0,1,2.209.561c-.717-.723-.175-4.992-.238-6.092-1.324-22.94-3.567-46.441-2.441-69.248a1.3,1.3,0,0,0-.131-.793,1.316,1.316,0,0,0-.94-.43l-15.449-2.443a4.746,4.746,0,0,0-3.219.32A77.108,77.108,0,0,1,353.246,147.88Z" transform="translate(-312.431 -132.828)" fill="#8ed5c2"/>
              <path id="Trazado_208032" data-name="Trazado 208032" d="M354,147.88q-1.164.234-2.33.428c.362,5.516,2.1,11.754,1.6,17.228-.482,5.278-.7,10.528-.87,15.889-.128,4.071-.324,8.138-.566,12.2-.19,3.195.67,6.607,1.349,9.739a267.153,267.153,0,0,0,8.771-29.8,54.575,54.575,0,0,0,1.436-8.341,6.608,6.608,0,0,0-.492-3.615,64.809,64.809,0,0,0,12.061-2.857c-4.255-.341-8.858-.829-11.986-3.735a28.472,28.472,0,0,0,7.57,1.665,9.629,9.629,0,0,0,7.153-2.445,101.873,101.873,0,0,0,2.585,22.118,106.244,106.244,0,0,0,3.106,10.875c1.053,3.062,2.068,6.967,3.909,9.606a342.672,342.672,0,0,1-1.193-49.107,1.3,1.3,0,0,0-.131-.793,1.316,1.316,0,0,0-.94-.43l-15.449-2.443a4.746,4.746,0,0,0-3.219.32A77.109,77.109,0,0,1,354,147.88Z" transform="translate(-313.184 -132.828)" fill="#8ed5c2" opacity="0.58" style="mix-blend-mode: multiply;isolation: isolate"/>
              <path id="Trazado_208033" data-name="Trazado 208033" d="M375.721,129.15c-.141.824-4.971,1.458-5.7,1.54-1.788.2-3.992.457-5.515-.7,1.559,5.812.951,14.888-7.055,14.66a30.969,30.969,0,0,0,14.6,5.041,5.123,5.123,0,0,0,1.861-.1,5.588,5.588,0,0,0,1.44-.754l7.606-4.981c-1.422-.173-3.722-.216-4.945-1-1.642-1.053-2.156-3.768-2.4-5.522A26.593,26.593,0,0,1,375.721,129.15Z" transform="translate(-314.622 -129.15)" fill="#f29191"/>
              <path id="Trazado_208034" data-name="Trazado 208034" d="M375.721,129.15c-.141.824-4.971,1.458-5.7,1.54-1.788.2-3.992.457-5.515-.7,1.559,5.812.951,14.888-7.055,14.66a30.969,30.969,0,0,0,14.6,5.041,5.123,5.123,0,0,0,1.861-.1,9.658,9.658,0,0,0,2.716-1.887,10.077,10.077,0,0,1-5.763.146c-2.434-.53-4.474-1.955-6.534-3.282a.465.465,0,0,1-.239-.265.47.47,0,0,1,.1-.315,16.622,16.622,0,0,0,1.737-4.156,12.388,12.388,0,0,0,5.177,2.045,8.005,8.005,0,0,0,5.376-.958,12.032,12.032,0,0,1-.869-3.585A26.593,26.593,0,0,1,375.721,129.15Z" transform="translate(-314.622 -129.15)" fill="#f29191" opacity="0.49" style="mix-blend-mode: multiply;isolation: isolate"/>
              <g id="Grupo_171913" data-name="Grupo 171913" transform="translate(0 11.415)">
                <g id="Grupo_171910" data-name="Grupo 171910" transform="translate(4.135 0.393)">
                  <path id="Trazado_208035" data-name="Trazado 208035" d="M330.337,201.9a7.157,7.157,0,0,0,.119-1.774c-.044-.436-.167-.859-.234-1.292a10.148,10.148,0,0,1-.016-2.22L331,184.6a44.678,44.678,0,0,1-9.729,13.432c-2.286,2.159-5.167,4.015-8.444,3.712-2.15-.2-5.374-1.441-6.273-3.591-2.213-5.287,2.243-12.438,6.186-15.549.692-.545,1.522-1.07,1.723-1.927a17.487,17.487,0,0,0-.05-2.066c.219-1.963,2.681-2.539,3.714-3.952,1.373-1.88,2.434-4.236,3.767-6.227q4.977-7.435,9.294-15.285a5.393,5.393,0,0,1,1.224-1.676,5.314,5.314,0,0,1,1.828-.824l12.312-3.762c1.444,3.949,1.125,9.14,1.368,13.3.286,4.917.448,9.84.555,14.765q.42,19.4.47,38.81c.017,6.467-.8,77.633-1.283,77.612-11.869-.495-24.159-1.094-34.753-6.469C322.937,258.2,326.151,229.846,330.337,201.9Z" transform="translate(-305.945 -145.372)" fill="#dfeaeb"/>
                  <path id="Trazado_208036" data-name="Trazado 208036" d="M330.33,201.916a7.156,7.156,0,0,0,.119-1.774c-.044-.436-.167-.859-.234-1.292a10.15,10.15,0,0,1-.016-2.22l.8-12.013a44.677,44.677,0,0,1-9.729,13.432c-2.286,2.159-5.167,4.015-8.444,3.712-2.15-.2-5.374-1.441-6.274-3.592-1.735-4.147.522-8.986,3.044-12.289,3.109-4.071,8.8-4.446,13.661-4.4l-7.526-1.9a20.208,20.208,0,0,1,12.406.161c-1.719-2.927-6.583-2.961-7.9-6.092a24.883,24.883,0,0,0,9.11-1.048,8.084,8.084,0,0,1-5.078-2.381,16.168,16.168,0,0,0,6.048-1.44,8,8,0,0,1-2.806-6.13l4.715,2.77A27.858,27.858,0,0,1,334.3,152.6a90.394,90.394,0,0,1,.824,19.671,49.772,49.772,0,0,1,6.775-13.067,7.508,7.508,0,0,1-5.083-.693c.136.072,4.411-6.264,4.821-6.847,1.382-1.963,2.522-4.083,4.93-4.72,1.5,4.226,1.091,8.855,1.348,13.257.286,4.917.448,9.84.555,14.765q.42,19.4.47,38.81c.017,6.467-.8,77.633-1.283,77.612-11.869-.495-24.159-1.094-34.753-6.469C322.93,258.22,326.143,229.861,330.33,201.916Z" transform="translate(-305.937 -145.387)" fill="#dfeaeb" style="mix-blend-mode: multiply;isolation: isolate"/>
                  <path id="Trazado_208037" data-name="Trazado 208037" d="M403.322,173.386c2.41,0,5.567,1.554,7.9,2.206,7.861,2.195,15.09,5.693,23.08,7.591a3.114,3.114,0,0,0,4.43-1.605c4.422-7.885,8.851-15.783,12.533-24.039a12.493,12.493,0,0,0,1.411-5.078,6.761,6.761,0,0,0-7.282-6.378,2.8,2.8,0,0,0-1.314.447,3.553,3.553,0,0,0-.926,1.209c-3,5.388-5.184,10.532-9.5,15.033-.6.63-1.4,1.31-2.244,1.078a9.9,9.9,0,0,1-1.091-.566,1.706,1.706,0,0,0-2.2,1.04c-3.911-3.914-10.6-5.814-15.369-8.7a67.077,67.077,0,0,1-8.268-5.813c-1.087-.906-2.227-2.442-3.534-2.968-.516-.207-4.266-.139-4.3-.25q-.179-.519-.358-1.038a37.4,37.4,0,0,1-8.307-.684c.628,12.476,1.481,25.23,1.8,37.566.926,35.762,1.51,71.649,2.03,107.477a111.381,111.381,0,0,0,34.422-5.2,567.687,567.687,0,0,1-14.105-57.41c-3.418-17.882-7.038-35.82-8.932-53.954Z" transform="translate(-326.356 -144.87)" fill="#dfeaeb"/>
                </g>
                <path id="Trazado_208038" data-name="Trazado 208038" d="M307.443,198.534a16.792,16.792,0,0,1,6.637-2.357c2.111-.277,4.48-.08,6.005,1.407a6.482,6.482,0,0,1,1.694,4.016c.569,5.433-2.577,7.858-6.72,10.589a12.38,12.38,0,0,1-4.1,2.026c-2.015.43-4.013-.33-5.981.127-1.41.327-2.679,1.076-3.834-.511a4.491,4.491,0,0,1-.692-2.438,14.241,14.241,0,0,1,3.812-10.247A15.343,15.343,0,0,1,307.443,198.534Z" transform="translate(-300.432 -157.22)" fill="#fff"/>
                <g id="Grupo_171911" data-name="Grupo 171911" transform="translate(18.564 6.261)">
                  <path id="Trazado_208039" data-name="Trazado 208039" d="M342.436,152.682a169.567,169.567,0,0,1-.868,26" transform="translate(-329.234 -152.682)" fill="none" stroke="#c5e2e8" stroke-linecap="round" stroke-miterlimit="10" stroke-width="1" style="mix-blend-mode: multiply;isolation: isolate"/>
                  <path id="Trazado_208040" data-name="Trazado 208040" d="M335,168.358a10.436,10.436,0,0,0,3.2,3.271c.084.055.182.139.15.234s-.217-.02-.124-.057" transform="translate(-327.598 -156.583)" fill="none" stroke="#c5e2e8" stroke-linecap="round" stroke-miterlimit="10" stroke-width="1" style="mix-blend-mode: multiply;isolation: isolate"/>
                  <path id="Trazado_208041" data-name="Trazado 208041" d="M325.147,181.651a17.519,17.519,0,0,0,4.267,1.112A5.906,5.906,0,0,0,333.6,181.7" transform="translate(-325.147 -159.892)" fill="none" stroke="#c5e2e8" stroke-linecap="round" stroke-miterlimit="10" stroke-width="1" style="mix-blend-mode: multiply;isolation: isolate"/>
                  <path id="Trazado_208042" data-name="Trazado 208042" d="M330.765,179.409l5.126-.707" transform="translate(-326.545 -159.158)" fill="none" stroke="#c5e2e8" stroke-linecap="round" stroke-miterlimit="10" stroke-width="1" style="mix-blend-mode: multiply;isolation: isolate"/>
                </g>
                <g id="Grupo_171912" data-name="Grupo 171912" transform="translate(36.387)">
                  <path id="Trazado_208043" data-name="Trazado 208043" d="M348.875,156.967a23.767,23.767,0,0,0,5.881,1.251A84.941,84.941,0,0,1,349.5,168.81c.934-.241,1.643.816,2.01,1.708,4.16,10.113,5.983,21.007,7.776,31.8-.681-4.1.138-9.012.155-13.181q.026-6.811-.029-13.622c-.031-4.5-.082-8.992-.252-13.486-.087-2.3-.2-4.6-.365-6.9-.132-1.882-.807-3.735-.608-5.639a4.779,4.779,0,0,1,.767-2.267c.565-.705,1.592-.349,2.16-.883.219-.207.212-.605.477-.747a.608.608,0,0,0-.4-.068c-1.375.084-2.741-.144-3.9.734-1.766,1.333-2.357,3.231-3.595,4.939C353.219,151.852,349.559,157.206,348.875,156.967Z" transform="translate(-348.875 -144.638)" fill="#fff"/>
                  <path id="Trazado_208044" data-name="Trazado 208044" d="M389.288,193.128a29.979,29.979,0,0,1-.568,6.558q-.035-1.669-.069-3.336-.045-2.243-.1-4.488c-.139-5.7-.649-11.413-.523-17.113a144.346,144.346,0,0,0-.935-15.468,45.03,45.03,0,0,1-.294-6.881c.128-1.853.2-6.46-2.163-7.083a10.726,10.726,0,0,0-1.265-.138,1.035,1.035,0,0,1-.473-.161.448.448,0,0,1-.195-.435,8.735,8.735,0,0,1,3.418-.114c2.8.566,5.028,2.818,7.517,4.091a1.547,1.547,0,0,1,.735.622.61.61,0,0,1,.054.249,1.145,1.145,0,0,1-.371.706l-5.139,5.816,8.311,8.329a17.314,17.314,0,0,0-4.423,2.243,3.405,3.405,0,0,0-1.137,1.148,3.769,3.769,0,0,0-.306,1.465q-1.017,14.187-2.036,28.375c-.292-4.942-.833-9.978-1.121-14.986" transform="translate(-357.293 -144.347)" fill="#fff"/>
                </g>
              </g>
            </g>
            <g id="Grupo_171923" data-name="Grupo 171923" transform="translate(17.642)">
              <g id="Grupo_171915" data-name="Grupo 171915">
                <path id="Trazado_208045" data-name="Trazado 208045" d="M356.077,64.455c-2.122-1.746-5.482-1.646-6.912.983-.6-1.489-2.489-2.067-4.076-1.813a6.362,6.362,0,0,0-4.749,8.11c-.928-1.775-3.552-1.627-5.372-.792a12.982,12.982,0,0,0-2.7,21.941,18.642,18.642,0,0,0-8.335,7.329,12.194,12.194,0,0,0-.814,10.832c1.51,3.353,4.719,5.646,8.074,7.152-2.415.829-4.751,2.531-5.374,5.007s1.292,5.536,3.835,5.307a12.822,12.822,0,0,0-8.5,13.589,11.4,11.4,0,0,1,4.508-7.109,8.183,8.183,0,0,0,.913,4.835,1.925,1.925,0,0,0,1.236,1.121c.9.146,1.557-.828,1.876-1.686a14.715,14.715,0,0,0,.784-7.062c-.158-1.17-.3-2.673.744-3.219.764-.4,1.672.02,2.508.231a5.088,5.088,0,0,0,5.25-8.075,6.9,6.9,0,0,0,5.142,1.128,5.036,5.036,0,0,0,3.831-3.424c.646-2.356-.753-4.741-2.1-6.779,2.093,1.342,4.966.047,6.554-1.867,3.669-4.424,2.522-10.106.117-14.748,2.79-1.669,5.165-5.384,6.155-8.5.716-2.251.278-5.616-1.775-7.135-.194-.143-.421-.278-.5-.506a.953.953,0,0,1,.044-.557,47.752,47.752,0,0,0,1.851-6.91,8.68,8.68,0,0,0-1.6-6.768A5.035,5.035,0,0,0,356.077,64.455Z" transform="translate(-321.048 -63.28)" fill="#ffef7b"/>
                <path id="Trazado_208046" data-name="Trazado 208046" d="M355.458,67.626a5.013,5.013,0,0,0-.64-.341c-1.677-.74-4.077-.119-4.544,1.653-.819-1.806-3.676-1.76-5.023-.3s-1.5,3.649-1.295,5.622c-3.2-1.141-7.049,2.286-8.54,4.844a10.875,10.875,0,0,0-1.011,8.47,15,15,0,0,0,4.426,6.934,18.364,18.364,0,0,0-10.6,13.351c3.409-.578,6.585,1.917,8.689,4.661-.882-1.15-4.628,1.362-5.531,1.653-.4.13-.9.386-.848.809a.928.928,0,0,0,.334.52,40.3,40.3,0,0,0,5.116,4.191,11.251,11.251,0,0,0-5.274,3.91c-1.206,1.867-1.355,4.56.159,6.186a34.84,34.84,0,0,0-6.906,7.766c.5-.282,2.353-1.06,2.424-1.64a8.182,8.182,0,0,0,.913,4.835,1.925,1.925,0,0,0,1.236,1.121c.9.146,1.557-.828,1.876-1.686a14.715,14.715,0,0,0,.784-7.062c-.158-1.169-.3-2.673.744-3.219.764-.4,1.672.02,2.508.231a5.088,5.088,0,0,0,5.25-8.075,6.9,6.9,0,0,0,5.142,1.128,5.036,5.036,0,0,0,3.831-3.424c.646-2.356-.753-4.741-2.1-6.779,2.093,1.342,4.966.047,6.554-1.867,3.669-4.424,2.522-10.106.117-14.748,2.79-1.669,5.165-5.384,6.155-8.5.716-2.251.278-5.616-1.775-7.135-.194-.143-.421-.278-.5-.506a.953.953,0,0,1,.044-.557c.673-2.344,2.805-6.228,1.384-8.476A10.846,10.846,0,0,0,355.458,67.626Z" transform="translate(-321.776 -64.201)" fill="#ffcb78" opacity="0.75" style="mix-blend-mode: multiply;isolation: isolate"/>
                <path id="Trazado_208047" data-name="Trazado 208047" d="M360.944,73.266c-2.823.924-4.987,3-4.978,6.476,2.457-1.948,6.1-2.324,8.873-3.673.9-.439,1.135-1.07,2.316-.961a2.283,2.283,0,0,0-1.447-2.051,4.936,4.936,0,0,0-2.668-.258A11.42,11.42,0,0,0,360.944,73.266Z" transform="translate(-329.738 -65.633)" fill="#335659"/>
              </g>
              <g id="Grupo_171919" data-name="Grupo 171919" transform="translate(17.842 12.112)">
                <path id="Trazado_208048" data-name="Trazado 208048" d="M368.519,121.075c3.015-.245,6.758-1.517,8.726-3.907a10.593,10.593,0,0,0,2.367-5.509c.071-.728.937-4.776.656-5.027a2.064,2.064,0,0,0,2.031.3,4.427,4.427,0,0,0,1.723-1.255c1.879-2.037,3.252-5.389,1.94-8.067-1.016-2.075-4.188-3.222-5.169-.49a34.259,34.259,0,0,0-1.358-8.567,11.7,11.7,0,0,0-8.731-8.476,17.1,17.1,0,0,0-13.655,1.762,13.013,13.013,0,0,0-5.443,7.5,23.577,23.577,0,0,0-.651,6.081c-.029,1.452-.351,3.965.471,5.238a4.98,4.98,0,0,0-2.623-2.44,3.04,3.04,0,0,0-2.93,1.043c-2.009,2.3-.908,6.906,1,8.963a5.485,5.485,0,0,0,5.466,1.628c-.282.087,1.858,5.033,2.225,5.594a12.052,12.052,0,0,0,4.3,4.006A17.263,17.263,0,0,0,368.519,121.075Z" transform="translate(-344.802 -79.406)" fill="#ffb6b6"/>
                <path id="Trazado_208049" data-name="Trazado 208049" d="M362.221,120.639a35.5,35.5,0,0,1-7.726-26.621c3.01,1.649,6.309,3.352,9.7,2.817a3.577,3.577,0,0,0-1.188-1.918A29.936,29.936,0,0,0,375.8,96.941l-2.563-2.553a9.942,9.942,0,0,0,5.491.332c.362,3.309-.875,6.564-1.282,9.868-.548,4.445.393,9.109-1.081,13.338,2.268-1.661,3.632-3.3,3.92-6.267.071-.728.937-4.776.656-5.027a2.17,2.17,0,0,0,3.1-.483,2.774,2.774,0,0,1-1.819-2.06,6.394,6.394,0,0,1,.17-2.89c.534-.214,1.037.33,1.417.762a.377.377,0,0,0,.209.147c.205.032.306-.239.326-.445a13.484,13.484,0,0,0-.02-2.708,1.131,1.131,0,0,0-.282-.748.8.8,0,0,0-1.013.066,2.351,2.351,0,0,0-.581.93,5.767,5.767,0,0,1,1.8-3.485c-.809-.659-2.848.286-2.772,1.4a34.257,34.257,0,0,0-1.358-8.567,11.7,11.7,0,0,0-8.731-8.476,17.1,17.1,0,0,0-13.655,1.762,13.014,13.014,0,0,0-5.443,7.5,23.577,23.577,0,0,0-.651,6.081c-.029,1.452-.351,3.965.47,5.238-.532-.825-3.306-4.037-4.2-2.141a7.733,7.733,0,0,1,2.023,3.005,1.963,1.963,0,0,0-1.334-.762.958.958,0,0,0-1.013.445,1.2,1.2,0,0,0-.062.5c.036,1.77.317,3.708,1.631,4.894a3.008,3.008,0,0,1,.231-2.432.633.633,0,0,1,.379-.346c.273-.056.495.213.63.456a4.224,4.224,0,0,1,.531,3.092,2.483,2.483,0,0,1-2.3,1.894c1.631.146,2.622,1.142,4.405.591-.282.087,1.858,5.033,2.225,5.594a12.052,12.052,0,0,0,4.3,4.006A12.96,12.96,0,0,0,362.221,120.639Z" transform="translate(-345.476 -79.406)" fill="#f29191" opacity="0.49" style="mix-blend-mode: multiply;isolation: isolate"/>
                <g id="Grupo_171916" data-name="Grupo 171916" transform="translate(1.948 18.556)">
                  <path id="Trazado_208050" data-name="Trazado 208050" d="M347.436,109.534a1.091,1.091,0,0,1,1.55-1.27,2.2,2.2,0,0,1,.877,1.235,9.585,9.585,0,0,1,.975,4.193,1.67,1.67,0,0,1-.249.852.407.407,0,0,1-.348.2.444.444,0,0,1-.2-.095,2.352,2.352,0,0,1-.868-2,4.35,4.35,0,0,1,.755-2.112" transform="translate(-347.396 -105.115)" fill="none" stroke="#f47a7a" stroke-linecap="round" stroke-miterlimit="10" stroke-width="1" style="mix-blend-mode: multiply;isolation: isolate"/>
                  <path id="Trazado_208051" data-name="Trazado 208051" d="M395.889,104.757c-.1-.3-.279-.645-.592-.646a.734.734,0,0,0-.535.383,6.575,6.575,0,0,0-1.185,3.915,3.465,3.465,0,0,0,.409,1.728c.637.816,1.072-.755,1.14-1.389a1.639,1.639,0,0,0-.915-1.74" transform="translate(-358.889 -104.111)" fill="none" stroke="#f47a7a" stroke-linecap="round" stroke-miterlimit="10" stroke-width="1" style="mix-blend-mode: multiply;isolation: isolate"/>
                </g>
                <g id="Grupo_171917" data-name="Grupo 171917" transform="translate(12.61 19.424)">
                  <path id="Trazado_208052" data-name="Trazado 208052" d="M361.624,107.162a1.535,1.535,0,0,1,.454-.915,1.086,1.086,0,0,1,1.142-.2c1,.463,1.086,3.689-.416,3.488a1.335,1.335,0,0,1-.982-.8A2.9,2.9,0,0,1,361.624,107.162Z" transform="translate(-361.59 -105.439)"/>
                  <path id="Trazado_208053" data-name="Trazado 208053" d="M383.109,106.464a1.523,1.523,0,0,1,.454-.914,1.085,1.085,0,0,1,1.142-.2c1,.464,1.086,3.689-.416,3.488a1.333,1.333,0,0,1-.982-.8A2.9,2.9,0,0,1,383.109,106.464Z" transform="translate(-366.937 -105.265)"/>
                </g>
                <g id="Grupo_171918" data-name="Grupo 171918" transform="translate(8.565 16.809)">
                  <path id="Trazado_208054" data-name="Trazado 208054" d="M356.2,103.054c1.426,0,2.844-.11,4.268-.17,1.159-.049,2.236.21,3.428.078a2.981,2.981,0,0,0,1.1-.284,1.155,1.155,0,0,0,.639-.895" transform="translate(-356.205 -101.784)" fill="none" stroke="#ffef7b" stroke-linecap="round" stroke-miterlimit="10" stroke-width="3"/>
                  <path id="Trazado_208055" data-name="Trazado 208055" d="M377.737,101.792a1.032,1.032,0,0,0,.763.628,4.269,4.269,0,0,0,1.5-.1c.693-.074,1.418-.033,2.116-.068,1.348-.068,2.694-.173,4.042-.228" transform="translate(-361.564 -101.786)" fill="none" stroke="#ffef7b" stroke-linecap="round" stroke-miterlimit="10" stroke-width="3"/>
                </g>
              </g>
              <path id="Trazado_208056" data-name="Trazado 208056" d="M353.763,79.483a18.132,18.132,0,0,0-2.4,2.488,13.993,13.993,0,0,0-2.953,7.673,39.631,39.631,0,0,0,.249,7.052.631.631,0,0,0,.147.42.849.849,0,0,0,.475.133c.877.125,1.4,1.144,1.7,1.862,1.409,3.4,1.609,6.968-.474,10.191a27.243,27.243,0,0,0-2.019,3.008,6.429,6.429,0,0,0,.144,5.485,8.378,8.378,0,0,0,4.056,3.81,5.426,5.426,0,0,1-2.428-3.89,7.142,7.142,0,0,1,1.014-4.539c.622-1.047,1.468-1.956,2.018-3.044,1.114-2.2.88-4.831.363-7.242-.976-4.549-2.845-11.359,1.028-15.152a6.359,6.359,0,0,0,3.843,3.491,18.84,18.84,0,0,0,5.26.894l-2.623-3.519a11.145,11.145,0,0,0,12.474,2.534l-3.4-2.288a21.662,21.662,0,0,0,9.152,3.157,2.839,2.839,0,0,1-.52-1.624,7.923,7.923,0,0,1,1.764,5.444c-.1,2.576-.232,5.131-.234,7.709a14.413,14.413,0,0,0,1.128,5.2c.683,1.777,1.755,3.578.95,5.537-.474,1.153-1.53,1.948-2.265,2.954a6.121,6.121,0,0,0-.8,5.6,3.459,3.459,0,0,1,1.36-3.394c.975-.844,2.176-1.393,3.156-2.232,1.9-1.625,1.638-4.208.967-6.406-.74-2.424-2.743-4.854-2.911-7.393a22.95,22.95,0,0,1,.062-2.98,44.223,44.223,0,0,1,.181-4.556,1.775,1.775,0,0,1,.591-1.243,1.834,1.834,0,0,1,1.423-.071c-.034-.008-.161-3.39-.186-3.672a22.849,22.849,0,0,0-.7-4.051,14.176,14.176,0,0,0-3.973-6.85,19.182,19.182,0,0,0-5.522-3.246,18.716,18.716,0,0,0-12.662-1.178A19.092,19.092,0,0,0,353.763,79.483Z" transform="translate(-327.742 -66.181)" fill="#ffef7b"/>
              <path id="Trazado_208057" data-name="Trazado 208057" d="M356.578,83.494a12.517,12.517,0,0,0-4.494,8.381c-.575,5.87,3.047,11.575,2.354,17.432a9.635,9.635,0,0,0,.235-5.244C353.7,99.514,351.828,92.7,355.7,88.91a6.359,6.359,0,0,0,3.843,3.491,18.84,18.84,0,0,0,5.26.894l-2.623-3.519a11.145,11.145,0,0,0,12.474,2.534l-3.4-2.288a21.662,21.662,0,0,0,9.152,3.157,2.839,2.839,0,0,1-.52-1.624A7.923,7.923,0,0,1,381.655,97c-.1,2.576-.232,5.131-.234,7.709a14.411,14.411,0,0,0,1.128,5.2c.683,1.777,1.755,3.578.95,5.537-.474,1.153-1.53,1.948-2.265,2.954-.991,1.357-.853,2.482-.9,4.061.077-2.536,2.73-4.2,3.611-6.581,1.176-3.173-1.021-6.5-1.717-9.807-1.041-4.945,1.34-10.088.543-15.078a12.282,12.282,0,0,0-8.613-9.662,8.471,8.471,0,0,1,3.3,4.4,19.394,19.394,0,0,0-13.357-6.09,14.032,14.032,0,0,1,4.75,5.914A29.728,29.728,0,0,1,360.2,80.1a12.224,12.224,0,0,0-3.222,6.956A6.845,6.845,0,0,1,356.578,83.494Z" transform="translate(-328.757 -67.351)" fill="#ffcb78" opacity="0.58" style="mix-blend-mode: multiply;isolation: isolate"/>
              <g id="Grupo_171922" data-name="Grupo 171922" transform="translate(22.58 28.144)">
                <g id="Grupo_171920" data-name="Grupo 171920">
                  <path id="Trazado_208058" data-name="Trazado 208058" d="M357.116,113.67a59.837,59.837,0,0,1-3.9-6.725,6.192,6.192,0,0,0-2.11-2.813" transform="translate(-351.109 -101.592)" fill="none" stroke="#fff" stroke-linecap="round" stroke-miterlimit="10" stroke-width="1"/>
                  <path id="Trazado_208059" data-name="Trazado 208059" d="M388.111,111.533c1.749-3.195,2.052-7.251,4.042-10.783" transform="translate(-360.318 -100.75)" fill="none" stroke="#fff" stroke-linecap="round" stroke-miterlimit="10" stroke-width="1"/>
                  <path id="Trazado_208060" data-name="Trazado 208060" d="M357.971,123.756a6.167,6.167,0,0,0-2.449-2.05l-1.394-.8" transform="translate(-351.86 -105.766)" fill="none" stroke="#fff" stroke-linecap="round" stroke-miterlimit="10" stroke-width="1"/>
                  <path id="Trazado_208061" data-name="Trazado 208061" d="M389.05,120.827a8.639,8.639,0,0,1,2.874-3.821" transform="translate(-360.552 -104.796)" fill="none" stroke="#fff" stroke-linecap="round" stroke-miterlimit="10" stroke-width="1"/>
                </g>
                <path id="Trazado_208062" data-name="Trazado 208062" d="M370.7,108.068c1.909.161,3.5,1.379,5.031,2.422a8.132,8.132,0,0,0,5.572,1.356,25.388,25.388,0,0,1,.482,7.355,12.827,12.827,0,0,1-.735,4.393,6.535,6.535,0,0,1-3.085,3.03,15.791,15.791,0,0,1-15.35.94,9.139,9.139,0,0,1-4.965-5.6,14.164,14.164,0,0,1-.338-3.2q-.082-2.836-.164-5.673a12.258,12.258,0,0,0,6.268-1.449C365.806,110.439,367.894,107.831,370.7,108.068Z" transform="translate(-352.612 -102.568)" fill="#fff"/>
                <path id="Trazado_208063" data-name="Trazado 208063" d="M368.909,112.869c1.161-.8,2.228-1.938,3.621-2.335,1.568-.447,2.846.481,3.956,1.514" transform="translate(-355.539 -103.156)" fill="none" stroke="#7294cb" stroke-linecap="round" stroke-miterlimit="10" stroke-width="2" opacity="0.58"/>
                <g id="Grupo_171921" data-name="Grupo 171921" transform="translate(7.335 11.268)">
                  <path id="Trazado_208064" data-name="Trazado 208064" d="M360.875,117.035a61.658,61.658,0,0,0,9.73.533,28.072,28.072,0,0,0,9.747-1.817" transform="translate(-360.875 -115.751)" fill="none" stroke="#7294cb" stroke-linecap="round" stroke-miterlimit="10" stroke-width="1" opacity="0.5" style="mix-blend-mode: multiply;isolation: isolate"/>
                  <path id="Trazado_208065" data-name="Trazado 208065" d="M364.765,121.464a18.345,18.345,0,0,0,7.514.639c2.2-.186,4.856-.169,6.721-1.506" transform="translate(-361.843 -116.957)" fill="none" stroke="#7294cb" stroke-linecap="round" stroke-miterlimit="10" stroke-width="1" opacity="0.5" style="mix-blend-mode: multiply;isolation: isolate"/>
                  <path id="Trazado_208066" data-name="Trazado 208066" d="M362.79,125.732a29.573,29.573,0,0,0,17.307-.537" transform="translate(-361.352 -118.101)" fill="none" stroke="#7294cb" stroke-linecap="round" stroke-miterlimit="10" stroke-width="1" opacity="0.5" style="mix-blend-mode: multiply;isolation: isolate"/>
                </g>
              </g>
            </g>
          </g>
          <g id="Grupo_171939" data-name="Grupo 171939" transform="translate(191.812 74.016)">
            <g id="Grupo_171929" data-name="Grupo 171929" transform="translate(171.703 0)">
              <g id="Grupo_171925" data-name="Grupo 171925" transform="translate(0 12.73)">
                <path id="Rectángulo_49458" data-name="Rectángulo 49458" d="M10.412,0H39.428A10.412,10.412,0,0,1,49.839,10.412v59.31a0,0,0,0,1,0,0H0a0,0,0,0,1,0,0V10.412A10.412,10.412,0,0,1,10.412,0Z" transform="translate(16.36 0) rotate(13.571)" fill="#fff" opacity="0.66"/>
                <path id="Trazado_208067" data-name="Trazado 208067" d="M444.245,187.219q-.116.419-.24.837c-6.084-4.049-10.693-9.922-16.794-13.752q4.519-23.649,11.079-46.847c-4.034-2.4-7.431-6.672-11.2-9.551a31.846,31.846,0,0,0-8.806-4.752c2.645.687,5.214,1.372,7.869,2.013l11.045,2.666,14.8,3.572a7.82,7.82,0,0,1,5.767,9.437l-1.947,8.066q-2.962,12.272-5.925,24.545-1.544,6.4-3.089,12.8C445.922,179.885,445.249,183.6,444.245,187.219Z" transform="translate(-394.787 -111.546)" fill="#fff" opacity="0.66"/>
                <path id="Rectángulo_49459" data-name="Rectángulo 49459" d="M7.5,0H31.072a7.5,7.5,0,0,1,7.5,7.5V58.455a0,0,0,0,1,0,0H0a0,0,0,0,1,0,0V7.5A7.5,7.5,0,0,1,7.5,0Z" transform="matrix(0.972, 0.235, -0.235, 0.972, 20.057, 7.847)" fill="#eda52f" opacity="0.47"/>
                <path id="Trazado_208068" data-name="Trazado 208068" d="M441.329,188.9c-1.461-.352-12.071-3.1-12.175-2.613q3.3-15.668,6.605-31.335,2.381-11.292,4.761-22.584a1.433,1.433,0,0,0-.624-1.768l-3.32-2.859c4.372.664,8.689,1.975,12.993,3.015a5.633,5.633,0,0,1,4.155,6.8Z" transform="translate(-397.493 -115.175)" fill="#eda52f" opacity="0.47"/>
              </g>
              <g id="Grupo_171927" data-name="Grupo 171927" transform="translate(21.27 0)">
                <rect id="Rectángulo_49460" data-name="Rectángulo 49460" width="28.454" height="6.893" transform="matrix(0.972, 0.235, -0.235, 0.972, 7.359, 8.6)" fill="#eda52f"/>
                <path id="Rectángulo_49461" data-name="Rectángulo 49461" d="M3.618,0H37.473a3.618,3.618,0,0,1,3.618,3.618V11.93a0,0,0,0,1,0,0H0a0,0,0,0,1,0,0V3.618A3.618,3.618,0,0,1,3.618,0Z" transform="matrix(0.972, 0.235, -0.235, 0.972, 2.799, 0)" fill="#bf5f10"/>
                <g id="Grupo_171926" data-name="Grupo 171926" transform="translate(3.264 0.788)">
                  <rect id="Rectángulo_49462" data-name="Rectángulo 49462" width="1.06" height="11.93" transform="matrix(0.972, 0.235, -0.235, 0.972, 2.799, 0)" fill="#bf5f10" opacity="0.5" style="mix-blend-mode: multiply;isolation: isolate"/>
                  <rect id="Rectángulo_49463" data-name="Rectángulo 49463" width="1.149" height="11.93" transform="matrix(0.972, 0.235, -0.235, 0.972, 6.149, 0.809)" fill="#bf5f10" opacity="0.5" style="mix-blend-mode: multiply;isolation: isolate"/>
                  <rect id="Rectángulo_49464" data-name="Rectángulo 49464" width="1.06" height="11.93" transform="translate(9.371 1.586) rotate(13.573)" fill="#bf5f10" opacity="0.5" style="mix-blend-mode: multiply;isolation: isolate"/>
                  <rect id="Rectángulo_49465" data-name="Rectángulo 49465" width="1.149" height="11.93" transform="matrix(0.972, 0.235, -0.235, 0.972, 12.721, 2.395)" fill="#bf5f10" opacity="0.5" style="mix-blend-mode: multiply;isolation: isolate"/>
                  <rect id="Rectángulo_49466" data-name="Rectángulo 49466" width="1.06" height="11.93" transform="translate(15.942 3.173) rotate(13.572)" fill="#bf5f10" opacity="0.5" style="mix-blend-mode: multiply;isolation: isolate"/>
                  <rect id="Rectángulo_49467" data-name="Rectángulo 49467" width="1.149" height="11.93" transform="matrix(0.972, 0.235, -0.235, 0.972, 19.292, 3.981)" fill="#bf5f10" opacity="0.5" style="mix-blend-mode: multiply;isolation: isolate"/>
                  <rect id="Rectángulo_49468" data-name="Rectángulo 49468" width="1.06" height="11.93" transform="matrix(0.972, 0.235, -0.235, 0.972, 22.513, 4.759)" fill="#bf5f10" opacity="0.5" style="mix-blend-mode: multiply;isolation: isolate"/>
                  <rect id="Rectángulo_49469" data-name="Rectángulo 49469" width="1.149" height="11.93" transform="translate(25.863 5.567) rotate(13.568)" fill="#bf5f10" opacity="0.5" style="mix-blend-mode: multiply;isolation: isolate"/>
                  <rect id="Rectángulo_49470" data-name="Rectángulo 49470" width="1.06" height="11.93" transform="translate(29.589 6.467) rotate(13.568)" fill="#bf5f10" opacity="0.5" style="mix-blend-mode: multiply;isolation: isolate"/>
                  <rect id="Rectángulo_49471" data-name="Rectángulo 49471" width="1.149" height="11.93" transform="matrix(0.972, 0.235, -0.235, 0.972, 32.666, 7.209)" fill="#bf5f10" opacity="0.5" style="mix-blend-mode: multiply;isolation: isolate"/>
                  <rect id="Rectángulo_49472" data-name="Rectángulo 49472" width="1.149" height="11.93" transform="matrix(0.972, 0.235, -0.235, 0.972, 35.828, 7.973)" fill="#bf5f10" opacity="0.5" style="mix-blend-mode: multiply;isolation: isolate"/>
                </g>
              </g>
              <g id="Grupo_171928" data-name="Grupo 171928" transform="translate(4.634 33.861)">
                <rect id="Rectángulo_49473" data-name="Rectángulo 49473" width="49.839" height="28.233" transform="translate(6.625 0) rotate(13.571)" fill="#eda52f"/>
                <path id="Trazado_208069" data-name="Trazado 208069" d="M425.252,173.967q-.033.327-.068.655c-3.44-.843-6.861-1.96-10.325-2.8l-10.478-2.53-11.209-2.706,6.625-27.445,15.726,3.8,13.776,3.325a39.871,39.871,0,0,1,4.375,1.185l-23.244.272q6.593,8.255,13.5,16.252c1.912,2.212,2.889,2.2,2.3,5.111C425.911,170.695,425.421,172.334,425.252,173.967Z" transform="translate(-393.172 -139.146)" fill="#eda52f" opacity="0.6" style="mix-blend-mode: multiply;isolation: isolate"/>
                <path id="Trazado_208070" data-name="Trazado 208070" d="M436.388,161.572l-5.927-1.431,1.555-6.443-6.056-1.462-1.555,6.443-6.7-1.617-1.369,5.669,6.7,1.617-1.617,6.7,6.056,1.462,1.617-6.7,5.927,1.431Z" transform="translate(-398.937 -142.404)" fill="#fff"/>
              </g>
            </g>
            <g id="Grupo_171931" data-name="Grupo 171931" transform="translate(227.426 29.165)">
              <path id="Trazado_208071" data-name="Trazado 208071" d="M464.909,153.24c-.161-.029-.321-.063-.478-.1a2.55,2.55,0,0,1-1.507-.9,1.194,1.194,0,0,1,.166-1.609c.494-.346,1.422-.352,1.4-.955a4.8,4.8,0,0,1-2.3-.345,1.656,1.656,0,0,1-.916-1.94,2.1,2.1,0,0,1,1.237-1.024,7.677,7.677,0,0,1,2.87-.573,5.49,5.49,0,0,1-2.7-.278,1.9,1.9,0,0,1-1.127-2.226c.673-1.737,3.005-1.306,4.437-1.577-1.823.345-5.192-1.776-2.864-3.525,1.023-.769,2.572-.593,3.759-.934-.554.16.89-4,1.17-4.352.291.526.94.705,1.466,1,1.426.787.02,2.724,1.539,3.544a2.566,2.566,0,0,1-.015,4.39,2.094,2.094,0,0,1-.192,3.744,1.853,1.853,0,0,1,.768,2.363,4.478,4.478,0,0,1-1.836,1.9c.921,1.148,0,2.41-1.144,2.939A6.338,6.338,0,0,1,464.909,153.24Z" transform="translate(-461.189 -132.894)" fill="#f29191"/>
              <g id="Grupo_171930" data-name="Grupo 171930" transform="translate(1.396 4.498)">
                <path id="Trazado_208072" data-name="Trazado 208072" d="M463.047,154.9a12.851,12.851,0,0,0,7.365.279" transform="translate(-463.047 -142.868)" fill="none" stroke="#f47a7a" stroke-miterlimit="10" stroke-width="1" style="mix-blend-mode: multiply;isolation: isolate"/>
                <path id="Trazado_208073" data-name="Trazado 208073" d="M472.69,148.465c-1.716,2.425-5.983,1.44-8.428,1.2" transform="translate(-463.349 -141.267)" fill="none" stroke="#f47a7a" stroke-miterlimit="10" stroke-width="1" style="mix-blend-mode: multiply;isolation: isolate"/>
                <path id="Trazado_208074" data-name="Trazado 208074" d="M472.777,143.932c-2.4.964-4.792.721-7.277.409" transform="translate(-463.658 -140.139)" fill="none" stroke="#f47a7a" stroke-miterlimit="10" stroke-width="1" style="mix-blend-mode: multiply;isolation: isolate"/>
                <path id="Trazado_208075" data-name="Trazado 208075" d="M467.446,138.882l3.931.12" transform="translate(-464.142 -138.882)" fill="none" stroke="#f47a7a" stroke-miterlimit="10" stroke-width="1" style="mix-blend-mode: multiply;isolation: isolate"/>
              </g>
            </g>
            <g id="Grupo_171938" data-name="Grupo 171938" transform="translate(246.731 68.778)">
              <g id="Grupo_171933" data-name="Grupo 171933" transform="translate(42.166 21.107)">
                <path id="Trazado_208076" data-name="Trazado 208076" d="M415.657,72.465h0a7.258,7.258,0,0,1,2.18-10.03l17.447-11.219a7.257,7.257,0,0,1,10.03,2.18h0a7.257,7.257,0,0,1-2.179,10.03L425.687,74.645A7.258,7.258,0,0,1,415.657,72.465Z" transform="translate(-414.503 -50.063)" fill="#dfeaeb"/>
                <path id="Trazado_208077" data-name="Trazado 208077" d="M438.921,51.217a7.257,7.257,0,0,1,10.03,2.18h0a7.257,7.257,0,0,1-2.179,10.03l-9.8,6.3c.77-3.46-4.727-11.517-7.851-12.21Z" transform="translate(-418.141 -50.063)" fill="#3c9eef"/>
                <path id="Trazado_208078" data-name="Trazado 208078" d="M415.662,73.038a6.1,6.1,0,0,1-.494-6.228c-.321,2.946,1.785,4.478,4.674,3.821a11.891,11.891,0,0,0,3.393-1.555c6.261-3.754,12.032-8.2,18.18-12.1a7.369,7.369,0,0,0,2.251-1.9,2.6,2.6,0,0,0,.24-2.708,8.748,8.748,0,0,1,1.413,1.6A7.257,7.257,0,0,1,443.14,64L425.693,75.218A7.258,7.258,0,0,1,415.662,73.038Z" transform="translate(-414.509 -50.636)" fill="#3c9eef" opacity="0.56" style="mix-blend-mode: multiply;isolation: isolate"/>
                <g id="Grupo_171932" data-name="Grupo 171932" transform="translate(3.289 2.146)">
                  <path id="Trazado_208079" data-name="Trazado 208079" d="M430.255,59.372c-1.171.712-2.328,1.443-3.452,2.227a3.085,3.085,0,0,0-.72.623.937.937,0,0,0,.871,1.561,2.937,2.937,0,0,0,1.278-.481c3.581-2.066,7.041-4.321,10.438-6.68a10.6,10.6,0,0,0,2.989-2.417c.306-.467.443-.92-.171-1.19-.945-.415-2.253.617-2.947,1.129C435.9,56.093,433.038,57.679,430.255,59.372Z" transform="translate(-420.611 -52.919)" fill="#fff" opacity="0.53"/>
                  <path id="Trazado_208080" data-name="Trazado 208080" d="M418.955,69.844c-.012.038-.023.076-.032.115a1.262,1.262,0,0,0,.228,1.118c.745.852,2.727-.493,3.348-1.037a1.505,1.505,0,0,0,.487-.656c.265-.869-.544-1.384-1.306-1.5a2.58,2.58,0,0,0-2.172,1.058A2.544,2.544,0,0,0,418.955,69.844Z" transform="translate(-418.882 -56.639)" fill="#fff"/>
                </g>
              </g>
              <g id="Grupo_171935" data-name="Grupo 171935" transform="translate(0 6.261)">
                <path id="Trazado_208081" data-name="Trazado 208081" d="M358.88,33.888h0a6.022,6.022,0,0,1,7.942-3.076l15.744,6.952a6.021,6.021,0,0,1,3.076,7.941h0a6.022,6.022,0,0,1-7.941,3.077L361.956,41.83A6.023,6.023,0,0,1,358.88,33.888Z" transform="translate(-358.365 -30.298)" fill="#dfeaeb"/>
                <path id="Trazado_208082" data-name="Trazado 208082" d="M386.041,38.944a6.021,6.021,0,0,1,3.076,7.941h0a6.022,6.022,0,0,1-7.941,3.077l-8.845-3.906c2.748-1.049,5.814-8.537,4.865-11.018Z" transform="translate(-361.841 -31.477)" fill="#3c9eef"/>
                <path id="Trazado_208083" data-name="Trazado 208083" d="M358.88,34.021a5.066,5.066,0,0,1,4.088-3.189c-2.187,1.125-2.285,3.283-.51,4.983a9.838,9.838,0,0,0,2.628,1.638c5.461,2.619,11.178,4.583,16.691,7.055a6.106,6.106,0,0,0,2.344.69,2.154,2.154,0,0,0,1.984-1.072,7.252,7.252,0,0,1-.464,1.712,6.022,6.022,0,0,1-7.941,3.077l-15.744-6.952A6.023,6.023,0,0,1,358.88,34.021Z" transform="translate(-358.365 -30.431)" fill="#3c9eef" opacity="0.56" style="mix-blend-mode: multiply;isolation: isolate"/>
                <g id="Grupo_171934" data-name="Grupo 171934" transform="translate(5.62 1.835)">
                  <path id="Trazado_208084" data-name="Trazado 208084" d="M377.366,37.008c-1.028-.485-2.063-.952-3.12-1.372a2.577,2.577,0,0,0-.761-.215.778.778,0,0,0-.683,1.317,2.431,2.431,0,0,0,.918.665c3.068,1.535,6.21,2.9,9.4,4.174a8.81,8.81,0,0,0,3.04.964c.464,0,.84-.114.746-.662-.145-.844-1.458-1.278-2.129-1.525C382.215,39.415,379.811,38.161,377.366,37.008Z" transform="translate(-367.528 -33.407)" fill="#fff" opacity="0.53"/>
                  <path id="Trazado_208085" data-name="Trazado 208085" d="M366.634,32.8c-.032.009-.063.019-.095.03a1.048,1.048,0,0,0-.669.669c-.249.905,1.589,1.663,2.248,1.843a1.249,1.249,0,0,0,.677.038c.723-.214.71-1.01.441-1.59a2.137,2.137,0,0,0-1.725-1.019A2.092,2.092,0,0,0,366.634,32.8Z" transform="translate(-365.847 -32.74)" fill="#fff"/>
                </g>
              </g>
              <g id="Grupo_171937" data-name="Grupo 171937" transform="translate(60.468)">
                <path id="Trazado_208086" data-name="Trazado 208086" d="M438.873,26.534h0a4.783,4.783,0,0,1,4.988-4.568l13.654.6a4.782,4.782,0,0,1,4.568,4.987h0a4.782,4.782,0,0,1-4.988,4.568l-13.654-.6A4.783,4.783,0,0,1,438.873,26.534Z" transform="translate(-438.869 -21.962)" fill="#dfeaeb"/>
                <path id="Trazado_208087" data-name="Trazado 208087" d="M461.012,22.656a4.781,4.781,0,0,1,4.568,4.987h0a4.782,4.782,0,0,1-4.987,4.568l-7.67-.337c1.73-1.568,1.837-7.994.42-9.555Z" transform="translate(-442.366 -22.051)" fill="#3c9eef"/>
                <path id="Trazado_208088" data-name="Trazado 208088" d="M438.873,26.877a4.02,4.02,0,0,1,2.1-3.539c-1.293,1.463-.743,3.089,1.061,3.834a7.847,7.847,0,0,0,2.417.454c4.8.362,9.593.164,14.385.4a4.862,4.862,0,0,0,1.933-.166,1.71,1.71,0,0,0,1.159-1.366,5.762,5.762,0,0,1,.15,1.4,4.782,4.782,0,0,1-4.988,4.568l-13.654-.6A4.783,4.783,0,0,1,438.873,26.877Z" transform="translate(-438.869 -22.304)" fill="#3c9eef" opacity="0.56" style="mix-blend-mode: multiply;isolation: isolate"/>
                <g id="Grupo_171936" data-name="Grupo 171936" transform="translate(3.508 1.267)">
                  <path id="Trazado_208089" data-name="Trazado 208089" d="M453.037,24.088c-.9-.062-1.8-.11-2.7-.115a2.066,2.066,0,0,0-.624.061.618.618,0,0,0-.125,1.171,1.929,1.929,0,0,0,.871.228c2.713.251,5.432.353,8.157.376a6.978,6.978,0,0,0,2.528-.164c.342-.134.588-.327.36-.705-.351-.582-1.447-.524-2.015-.513C457.319,24.469,455.179,24.236,453.037,24.088Z" transform="translate(-444.953 -23.73)" fill="#fff" opacity="0.53"/>
                  <path id="Trazado_208090" data-name="Trazado 208090" d="M443.906,24q-.032.024-.061.05a.832.832,0,0,0-.3.689c.077.741,1.655.772,2.2.715a.992.992,0,0,0,.512-.168c.473-.367.234-.952-.132-1.3a2.061,2.061,0,0,0-2.212.019Z" transform="translate(-443.539 -23.649)" fill="#fff"/>
                </g>
              </g>
            </g>
            <g id="Grupo_171944" data-name="Grupo 171944" transform="translate(0 68.778)">
              <g id="Grupo_171933-2" data-name="Grupo 171933" transform="translate(9.555 21.107)">
                <path id="Trazado_208076-2" data-name="Trazado 208076" d="M445.314,72.465h0a7.258,7.258,0,0,0-2.18-10.03L425.687,51.217a7.257,7.257,0,0,0-10.03,2.18h0a7.257,7.257,0,0,0,2.179,10.03l17.447,11.219A7.258,7.258,0,0,0,445.314,72.465Z" transform="translate(-414.503 -50.063)" fill="#dfeaeb"/>
                <path id="Trazado_208077-2" data-name="Trazado 208077" d="M440.3,51.217a7.257,7.257,0,0,0-10.03,2.18h0a7.257,7.257,0,0,0,2.179,10.03l9.8,6.3c-.77-3.46,4.727-11.517,7.851-12.21Z" transform="translate(-429.12 -50.063)" fill="#3c9eef"/>
                <path id="Trazado_208078-2" data-name="Trazado 208078" d="M445.337,73.038a6.1,6.1,0,0,0,.494-6.228c.321,2.946-1.785,4.478-4.674,3.821a11.891,11.891,0,0,1-3.393-1.555c-6.261-3.754-12.032-8.2-18.18-12.1a7.369,7.369,0,0,1-2.251-1.9,2.6,2.6,0,0,1-.24-2.708,8.748,8.748,0,0,0-1.413,1.6A7.257,7.257,0,0,0,417.86,64l17.447,11.219A7.258,7.258,0,0,0,445.337,73.038Z" transform="translate(-414.526 -50.636)" fill="#3c9eef" opacity="0.56" style="mix-blend-mode: multiply;isolation: isolate"/>
                <g id="Grupo_171932-2" data-name="Grupo 171932" transform="translate(7.369 2.146)">
                  <path id="Trazado_208079-2" data-name="Trazado 208079" d="M437.5,59.372c1.171.712,2.328,1.443,3.452,2.227a3.085,3.085,0,0,1,.72.623.937.937,0,0,1-.871,1.561,2.937,2.937,0,0,1-1.278-.481c-3.581-2.066-7.041-4.321-10.438-6.68a10.6,10.6,0,0,1-2.989-2.417c-.306-.467-.443-.92.171-1.19.945-.415,2.253.617,2.947,1.129C431.855,56.093,434.713,57.679,437.5,59.372Z" transform="translate(-425.833 -52.919)" fill="#fff" opacity="0.53"/>
                  <path id="Trazado_208080-2" data-name="Trazado 208080" d="M422.963,69.844c.012.038.023.076.032.115a1.262,1.262,0,0,1-.228,1.118c-.745.852-2.727-.493-3.348-1.037a1.505,1.505,0,0,1-.487-.656c-.265-.869.544-1.384,1.306-1.5a2.58,2.58,0,0,1,2.172,1.058A2.544,2.544,0,0,1,422.963,69.844Z" transform="translate(-401.73 -56.639)" fill="#fff"/>
                </g>
              </g>
              <g id="Grupo_171935-2" data-name="Grupo 171935" transform="translate(55.897 6.261)">
                <path id="Trazado_208081-2" data-name="Trazado 208081" d="M385.641,33.888h0a6.022,6.022,0,0,0-7.942-3.076l-15.744,6.952A6.021,6.021,0,0,0,358.88,45.7h0a6.022,6.022,0,0,0,7.941,3.077l15.744-6.952A6.023,6.023,0,0,0,385.641,33.888Z" transform="translate(-358.365 -30.298)" fill="#dfeaeb"/>
                <path id="Trazado_208082-2" data-name="Trazado 208082" d="M375.922,38.944a6.021,6.021,0,0,0-3.076,7.941h0a6.022,6.022,0,0,0,7.941,3.077l8.845-3.906c-2.748-1.049-5.814-8.537-4.865-11.018Z" transform="translate(-372.331 -31.477)" fill="#3c9eef"/>
                <path id="Trazado_208083-2" data-name="Trazado 208083" d="M385.59,34.021a5.066,5.066,0,0,0-4.088-3.189c2.187,1.125,2.285,3.283.51,4.983a9.839,9.839,0,0,1-2.628,1.638c-5.461,2.619-11.178,4.583-16.691,7.055a6.106,6.106,0,0,1-2.344.69,2.154,2.154,0,0,1-1.984-1.072,7.252,7.252,0,0,0,.464,1.712,6.022,6.022,0,0,0,7.941,3.077l15.744-6.952A6.023,6.023,0,0,0,385.59,34.021Z" transform="translate(-358.314 -30.431)" fill="#3c9eef" opacity="0.56" style="mix-blend-mode: multiply;isolation: isolate"/>
                <g id="Grupo_171934-2" data-name="Grupo 171934" transform="translate(2.782 1.835)">
                  <path id="Trazado_208084-2" data-name="Trazado 208084" d="M382.153,37.008c1.028-.485,2.063-.952,3.12-1.372a2.578,2.578,0,0,1,.761-.215.778.778,0,0,1,.683,1.317,2.431,2.431,0,0,1-.918.665c-3.068,1.535-6.21,2.9-9.4,4.174a8.81,8.81,0,0,1-3.04.964c-.464,0-.84-.114-.746-.662.145-.844,1.458-1.278,2.129-1.525C377.3,39.415,379.708,38.161,382.153,37.008Z" transform="translate(-372.602 -33.407)" fill="#fff" opacity="0.53"/>
                  <path id="Trazado_208085-2" data-name="Trazado 208085" d="M368.619,32.8c.032.009.063.019.095.03a1.048,1.048,0,0,1,.669.669c.249.905-1.589,1.663-2.248,1.843a1.249,1.249,0,0,1-.677.038c-.723-.214-.71-1.01-.441-1.59a2.137,2.137,0,0,1,1.725-1.019A2.092,2.092,0,0,1,368.619,32.8Z" transform="translate(-350.018 -32.74)" fill="#fff"/>
                </g>
              </g>
              <g id="Grupo_171937-2" data-name="Grupo 171937" transform="translate(0 0)">
                <path id="Trazado_208086-2" data-name="Trazado 208086" d="M462.082,26.534h0a4.783,4.783,0,0,0-4.988-4.568l-13.654.6a4.782,4.782,0,0,0-4.568,4.987h0a4.782,4.782,0,0,0,4.988,4.568l13.654-.6A4.783,4.783,0,0,0,462.082,26.534Z" transform="translate(-438.869 -21.962)" fill="#dfeaeb"/>
                <path id="Trazado_208087-2" data-name="Trazado 208087" d="M457.494,22.656a4.781,4.781,0,0,0-4.568,4.987h0a4.782,4.782,0,0,0,4.987,4.568l7.671-.337c-1.73-1.568-1.837-7.994-.42-9.555Z" transform="translate(-452.922 -22.051)" fill="#3c9eef"/>
                <path id="Trazado_208088-2" data-name="Trazado 208088" d="M462.081,26.877a4.02,4.02,0,0,0-2.1-3.539c1.293,1.463.743,3.089-1.061,3.834a7.847,7.847,0,0,1-2.417.454c-4.8.362-9.593.164-14.385.4a4.862,4.862,0,0,1-1.933-.166,1.71,1.71,0,0,1-1.159-1.366,5.761,5.761,0,0,0-.15,1.4,4.782,4.782,0,0,0,4.987,4.568l13.654-.6A4.783,4.783,0,0,0,462.081,26.877Z" transform="translate(-438.867 -22.304)" fill="#3c9eef" opacity="0.56" style="mix-blend-mode: multiply;isolation: isolate"/>
                <g id="Grupo_171936-2" data-name="Grupo 171936" transform="translate(3.077 1.267)">
                  <path id="Trazado_208089-2" data-name="Trazado 208089" d="M457.769,24.088c.9-.062,1.8-.11,2.7-.115a2.066,2.066,0,0,1,.624.061.618.618,0,0,1,.125,1.171,1.929,1.929,0,0,1-.871.228c-2.713.251-5.432.353-8.157.376a6.978,6.978,0,0,1-2.528-.164c-.342-.134-.588-.327-.36-.705.351-.582,1.447-.524,2.015-.513C453.487,24.469,455.628,24.236,457.769,24.088Z" transform="translate(-449.22 -23.73)" fill="#fff" opacity="0.53"/>
                  <path id="Trazado_208090-2" data-name="Trazado 208090" d="M446.147,24q.032.024.061.05a.832.832,0,0,1,.3.689c-.077.741-1.655.772-2.2.715a.992.992,0,0,1-.512-.168c-.473-.367-.234-.952.132-1.3a2.061,2.061,0,0,1,2.212.019Z" transform="translate(-429.88 -23.649)" fill="#fff"/>
                </g>
              </g>
            </g>
          </g>
          <g id="Grupo_171943" data-name="Grupo 171943" transform="translate(275.499 127.162)">
            <g id="Grupo_171940" data-name="Grupo 171940">
              <path id="Trazado_208091" data-name="Trazado 208091" d="M352.183,164.82c-25.8,11.664-38.528,48.072-82.359,41.709,10.8,93.217,41.189,141.637,82.359,165.424,43.644-23.787,75.864-72.207,87.308-165.424C393.027,212.892,379.536,176.484,352.183,164.82Z" transform="translate(-269.824 -164.82)" fill="#2c2a42"/>
              <path id="Trazado_208092" data-name="Trazado 208092" d="M355.751,180.31c-22.793,10.5-34.033,43.275-72.75,37.547,9.536,83.913,36.383,127.5,72.75,148.914,38.552-21.413,67.012-65,77.121-148.914C391.829,223.585,379.913,190.811,355.751,180.31Z" transform="translate(-273.103 -168.675)" fill="#81d4fa"/>
              <path id="Trazado_208093" data-name="Trazado 208093" d="M407.353,265.139H379.428V228.82H357.513v36.319H329.589v23.683h27.924v35.435h21.915V288.821h27.924Z" transform="translate(-284.698 -180.748)" fill="#fff"/>
              <path id="Trazado_208094" data-name="Trazado 208094" d="M379.471,164.82V371.953c43.644-23.787,75.864-72.207,87.308-165.424C420.315,212.892,406.825,176.484,379.471,164.82Z" transform="translate(-297.112 -164.82)" fill="#9c75d3" opacity="0.53" style="mix-blend-mode: multiply;isolation: isolate"/>
            </g>
            <g id="Grupo_171942" data-name="Grupo 171942" transform="translate(25.758 27.559)">
              <path id="Trazado_208095" data-name="Trazado 208095" d="M304.942,213.233q.121.214.258.417a2.549,2.549,0,0,0,1.355,1.12,1.193,1.193,0,0,0,1.461-.7c.161-.583-.145-1.46.432-1.64a4.821,4.821,0,0,0,1.094,2.057,1.653,1.653,0,0,0,2.135.214,2.1,2.1,0,0,0,.551-1.511,7.685,7.685,0,0,0-.42-2.9,5.522,5.522,0,0,0,1.165,2.455,1.9,1.9,0,0,0,2.475.318c1.412-1.218.226-3.276,0-4.719.285,1.837,3.411,4.307,4.281,1.523.382-1.224-.3-2.627-.377-3.863.035.577,3.472-2.182,3.71-2.564-.593-.1-.98-.651-1.429-1.051-1.219-1.082-2.573.895-3.854-.265a2.564,2.564,0,0,0-4.133,1.486,2.093,2.093,0,0,0-3.463,1.436,1.851,1.851,0,0,0-2.484.067,4.485,4.485,0,0,0-1.172,2.369c-1.391-.484-2.273.8-2.387,2.066A6.357,6.357,0,0,0,304.942,213.233Z" transform="translate(-304.117 -201.51)" fill="#f29191"/>
              <g id="Grupo_171941" data-name="Grupo 171941" transform="translate(2.476 1.264)">
                <path id="Trazado_208096" data-name="Trazado 208096" d="M310.14,216.061a12.878,12.878,0,0,1-2.727-6.862" transform="translate(-307.413 -204.688)" fill="none" stroke="#f47a7a" stroke-miterlimit="10" stroke-width="1" style="mix-blend-mode: multiply;isolation: isolate"/>
                <path id="Trazado_208097" data-name="Trazado 208097" d="M312.744,204.433c-1.71,2.434.645,6.134,1.686,8.364" transform="translate(-308.589 -203.502)" fill="none" stroke="#f47a7a" stroke-miterlimit="10" stroke-width="1" style="mix-blend-mode: multiply;isolation: isolate"/>
                <path id="Trazado_208098" data-name="Trazado 208098" d="M317.312,203.193c-.107,2.586.924,4.767,2.049,7.009" transform="translate(-309.875 -203.193)" fill="none" stroke="#f47a7a" stroke-miterlimit="10" stroke-width="1" style="mix-blend-mode: multiply;isolation: isolate"/>
                <path id="Trazado_208099" data-name="Trazado 208099" d="M324.191,207.594q-.714-1.837-1.428-3.671" transform="translate(-311.233 -203.375)" fill="none" stroke="#f47a7a" stroke-miterlimit="10" stroke-width="1" style="mix-blend-mode: multiply;isolation: isolate"/>
              </g>
            </g>
          </g>
        </g>
      </g>
    </g>
  </g>
</svg>
