<svg xmlns="http://www.w3.org/2000/svg" xmlns:xlink="http://www.w3.org/1999/xlink" width="400" height="327" viewBox="0 0 400 327">
  <defs>
    <clipPath id="clip-path">
      <rect id="Rectángulo_49903" data-name="Rectángulo 49903" width="400" height="327" transform="translate(1020.287 2735.298)" fill="#fff"/>
    </clipPath>
    <clipPath id="clip-path-2">
      <rect id="Rectángulo_5216" data-name="Rectángulo 5216" width="1240" height="327" transform="translate(180 1699)" fill="#fff" stroke="#707070" stroke-width="1" opacity="0.325"/>
    </clipPath>
    <linearGradient id="linear-gradient" x1="0.431" y1="0.917" x2="0.431" y2="0.009" gradientUnits="objectBoundingBox">
      <stop offset="0" stop-color="#f7941d"/>
      <stop offset="0.752" stop-color="#f7941d"/>
      <stop offset="0.876" stop-color="#f7941d"/>
      <stop offset="0.935" stop-color="#f5921d"/>
      <stop offset="0.956" stop-color="#f08b1d"/>
      <stop offset="0.971" stop-color="#e77f1d"/>
      <stop offset="0.984" stop-color="#db6e1d"/>
      <stop offset="0.994" stop-color="#ca591d"/>
      <stop offset="0.994" stop-color="#ca581d"/>
    </linearGradient>
    <linearGradient id="linear-gradient-2" x1="0.53" y1="-1.336" x2="0.53" y2="-0.335" gradientUnits="objectBoundingBox">
      <stop offset="0" stop-color="#f7941d"/>
      <stop offset="0.225" stop-color="#f7941d"/>
      <stop offset="0.262" stop-color="#f7941d"/>
      <stop offset="0.535" stop-color="#e8801d"/>
      <stop offset="0.994" stop-color="#ca581d"/>
    </linearGradient>
    <linearGradient id="linear-gradient-3" x1="0.539" y1="-1.348" x2="0.539" y2="-0.348" xlink:href="#linear-gradient-2"/>
    <linearGradient id="linear-gradient-4" x1="0.548" y1="-1.36" x2="0.548" y2="-0.36" xlink:href="#linear-gradient-2"/>
    <linearGradient id="linear-gradient-5" x1="0.713" y1="0.387" x2="0.713" y2="-0.088" gradientUnits="objectBoundingBox">
      <stop offset="0" stop-color="#ccc"/>
      <stop offset="0.113" stop-color="#d9d9d9"/>
      <stop offset="0.257" stop-color="#e3e3e3"/>
      <stop offset="0.454" stop-color="#e6e6e6"/>
      <stop offset="0.525" stop-color="#e6e6e6"/>
      <stop offset="1" stop-color="#e6e6e6"/>
    </linearGradient>
  </defs>
  <g id="Enmascarar_grupo_97" data-name="Enmascarar grupo 97" transform="translate(-1020.287 -2735.298)" clip-path="url(#clip-path)">
    <g id="Enmascarar_grupo_45" data-name="Enmascarar grupo 45" transform="translate(0 1036.524)" clip-path="url(#clip-path-2)">
      <path id="Trazado_100514" data-name="Trazado 100514" d="M342.759,1117.725a340.5,340.5,0,0,1,68.13-114.481C502.541,901.73,649.372,864.459,785.691,875.5c70.3,5.695,140.519,22.727,210.587,14.666s143.16-49.933,158.907-118.683c7.965-34.776.317-71.675,8.088-106.494s42.883-69.086,75.719-55.131c26.693,11.346,37.524,48.87,66,54.4C1330.457,669.2,1353,643,1355.567,617.185s-8.228-50.794-16.2-75.483c-20.8-64.395-22.853-135.893,1.122-199.174s75.432-117.105,139.974-137.439c21.713-6.84,45.277-9.886,67.245-3.915,41.426,11.257,68.785,52.643,77.372,94.706s2.216,85.512-2,128.234a1259.28,1259.28,0,0,0,15.133,353.275c11.633,62.532,27.917,127.767,9.113,188.528-24.984,80.737-105.233,131.156-184.447,160.622-167.7,62.379-351.995,62.261-530.21,46.353S576.918,1126.079,342.759,1117.725Z" transform="translate(-31.665 1185.104)" fill="#81d4fa" opacity="0.418"/>
    </g>
    <g id="Grupo_171854" data-name="Grupo 171854">
      <rect id="Rectángulo_49447" data-name="Rectángulo 49447" width="327" height="327" transform="translate(1020.287 2736)" fill="none"/>
      <circle id="Elipse_5534" data-name="Elipse 5534" cx="137.5" cy="137.5" r="137.5" transform="translate(1020.287 2736)" fill="#e6deff"/>
      <g id="Grupo_171853" data-name="Grupo 171853" transform="translate(-132.271 2193.081)">
        <path id="Trazado_207908" data-name="Trazado 207908" d="M1835.217,1757.627a159.075,159.075,0,0,1-1.73,21.672c-1.184,8,.754,18.078,1.1,19.759.033.157.051.243.051.243l-51.064,31.376-.164-.175c-.77-.814-1.5-1.564-2.2-2.258q-.508-.506-1-.973c-.492-.473-.967-.917-1.431-1.337l-.033-.031-.144-.13-.038-.035c-.195-.176-.389-.347-.579-.513-4.914-4.3-8.423-5.892-13.87-9.191-1.037-.627-2.388-1.508-3.944-2.555-2.18-1.469-4.759-3.265-7.437-5.16-1.017-.719-2.047-1.453-3.073-2.187-1.568-1.122-3.129-2.245-4.625-3.328l26.832-4.232-6.877-43.6,41.267-6.509-1.982-12.565,3.714-2.049-.248-1.321-5.643-30.15a16.87,16.87,0,0,1,.159-4.9,8,8,0,0,1,.7-2.06c1.318-2.529,3.072-3.978,5.275-4.429.047-.012.1-.021.144-.029l.172-.03c.071-.012.144-.021.219-.032a6.07,6.07,0,0,1,4.9,2.054,8.456,8.456,0,0,1,2.166,4.69,89.912,89.912,0,0,0,2.529,11.266c.485,1.737,1.014,3.538,1.577,5.418,1.884,6.293,8.95,21.928,11.958,28.387A31.261,31.261,0,0,1,1835.217,1757.627Z" transform="translate(-469.209 -1001.827)" fill="#fcb89d"/>
        <path id="Trazado_207909" data-name="Trazado 207909" d="M1812.944,2290.886l2.781,17.636a8.742,8.742,0,0,1-2.221,7.312l-.309.318a.01.01,0,0,0,0,0L1778.78,2351.6l-.033-.03-.144-.13-.038-.035c-.195-.176-.389-.347-.579-.513-4.914-4.3-8.423-5.892-13.87-9.192-1.037-.627-2.388-1.508-3.944-2.554-2.18-1.469-4.759-3.265-7.437-5.16-1.017-.72-2.047-1.453-3.073-2.187-1.568-1.123-3.129-2.246-4.625-3.328l26.832-4.232-6.877-43.605,32.167-5.073Z" transform="translate(-469.209 -1527.493)" fill="#e6e6e6" style="mix-blend-mode: multiply;isolation: isolate"/>
        <path id="Trazado_207910" data-name="Trazado 207910" d="M1307.878,1703.124a7.435,7.435,0,0,1-1.864,2.009,5.717,5.717,0,0,1-2.2.966,8.889,8.889,0,0,1-4.08-.256h0l-.044-.013c-.183-.048-.365-.1-.549-.159-.619-.192-1.251-.424-1.9-.692-.211-.088-.424-.178-.638-.275-.4-.178-.811-.367-1.222-.566-1.487-.721-3.023-1.564-4.58-2.426-5.056-2.8-10.461-10.419-6.352-15.915a7.278,7.278,0,0,1,3.822-2.666,9.073,9.073,0,0,1,1.771-.337,11.385,11.385,0,0,1,1.468-.036,13.7,13.7,0,0,1,1.657.167,17.606,17.606,0,0,1,2.049.455q.484.137.975.3l.044.015,0,0a25.349,25.349,0,0,1,2.506,1q.406.187.813.388.51.251,1.022.529.6.323,1.2.678a16.179,16.179,0,0,1,1.411.941C1308.767,1691.39,1310.861,1698.567,1307.878,1703.124Z" transform="translate(-53.821 -994.536)" fill="#fcb89d"/>
        <path id="Trazado_207911" data-name="Trazado 207911" d="M1386.8,1685.258l3.493,22.146h0l-.044-.013c-.182-.048-.365-.1-.549-.159-.619-.191-1.251-.424-1.9-.692-.211-.088-.424-.178-.638-.275l-3.435-21.779a17.554,17.554,0,0,1,2.049.455q.484.137.975.3l.044.015Z" transform="translate(-144.378 -996.096)" fill="#ccc" style="mix-blend-mode: multiply;isolation: isolate"/>
        <g id="Grupo_171852" data-name="Grupo 171852" transform="translate(1223.132 576.518)">
          <path id="Trazado_207912" data-name="Trazado 207912" d="M1506.35,1589.51l-87.5,13.8,16.231,102.909a8.069,8.069,0,0,0,9.228,6.714l71.558-11.286a8.069,8.069,0,0,0,6.714-9.228Z" transform="translate(-1399.09 -1487.23)" fill="url(#linear-gradient)"/>
          <path id="Trazado_207913" data-name="Trazado 207913" d="M1522.676,1807.259a8.073,8.073,0,0,1-6.814,7.965L1444.3,1826.51a8.07,8.07,0,0,1-9.228-6.713l-16.231-102.91,6.625-1.045,15.186,96.284a8.065,8.065,0,0,0,9.228,6.713l71.558-11.286A7.972,7.972,0,0,0,1522.676,1807.259Z" transform="translate(-1399.084 -1600.807)" fill="#f2f2f2" style="mix-blend-mode: multiply;isolation: isolate"/>
          <path id="Trazado_207914" data-name="Trazado 207914" d="M1449.6,1519.343l-92.862,14.646a3.353,3.353,0,0,0-2.79,3.835h0a3.353,3.353,0,0,0,3.835,2.79l92.862-14.646a3.353,3.353,0,0,0,2.79-3.834h0A3.353,3.353,0,0,0,1449.6,1519.343Z" transform="translate(-1340.701 -1424.11)" fill="#f7941d"/>
          <rect id="Rectángulo_49443" data-name="Rectángulo 49443" width="80.189" height="4.453" transform="translate(22.168 104.403) rotate(-8.963)" fill="url(#linear-gradient-2)"/>
          <rect id="Rectángulo_49444" data-name="Rectángulo 49444" width="80.189" height="4.453" transform="matrix(0.988, -0.156, 0.156, 0.988, 21.474, 100.005)" fill="url(#linear-gradient-3)"/>
          <rect id="Rectángulo_49445" data-name="Rectángulo 49445" width="80.189" height="4.453" transform="translate(20.78 95.606) rotate(-8.963)" fill="url(#linear-gradient-4)"/>
          <path id="Trazado_207915" data-name="Trazado 207915" d="M1878.546,1802.828l-43.782,6.905a6.745,6.745,0,0,0-5.612,7.714l8.592,54.478a6.745,6.745,0,0,0,7.714,5.612l43.782-6.905Z" transform="translate(-1767.888 -1679.01)" fill="#fff"/>
          <path id="Rectángulo_49446" data-name="Rectángulo 49446" d="M2.582,0H40.417a0,0,0,0,1,0,0V5.164a0,0,0,0,1,0,0H2.582A2.582,2.582,0,0,1,0,2.582v0A2.582,2.582,0,0,1,2.582,0Z" transform="translate(72.489 140.73) rotate(-8.963)" fill="#ff754a"/>
          <path id="Trazado_207916" data-name="Trazado 207916" d="M2105.822,2088.071l-27.6,4.353a1.668,1.668,0,0,0-1.387,1.907h0a1.668,1.668,0,0,0,1.907,1.387l27.6-4.353Z" transform="translate(-1990.622 -1935.452)" fill="#48c2ed"/>
          <path id="Trazado_207917" data-name="Trazado 207917" d="M2118.328,2167.364l-27.6,4.352a1.668,1.668,0,0,0-1.387,1.907h0a1.668,1.668,0,0,0,1.907,1.388l27.6-4.353Z" transform="translate(-2001.865 -2006.739)" fill="#48c2ed"/>
          <path id="Trazado_207918" data-name="Trazado 207918" d="M2130.834,2246.656l-27.6,4.353a1.668,1.668,0,0,0-1.387,1.907h0a1.667,1.667,0,0,0,1.907,1.387l27.6-4.353Z" transform="translate(-2013.108 -2078.025)" fill="#48c2ed"/>
          <path id="Trazado_207919" data-name="Trazado 207919" d="M2143.34,2325.949l-27.6,4.353a1.668,1.668,0,0,0-1.387,1.907h0a1.668,1.668,0,0,0,1.907,1.388l27.6-4.353Z" transform="translate(-2024.352 -2149.312)" fill="#48c2ed"/>
          <g id="Grupo_171844" data-name="Grupo 171844" transform="translate(0 0)">
            <path id="Trazado_207920" data-name="Trazado 207920" d="M1314.278,659.742l-84.92,13.394a7.373,7.373,0,0,0-6.135,8.432l2.17,13.759,99.487-15.691-2.17-13.759A7.373,7.373,0,0,0,1314.278,659.742Z" transform="translate(-1223.132 -651.257)" fill="#e6e6e6"/>
            <path id="Trazado_207921" data-name="Trazado 207921" d="M1391.818,576.579l-66.01,10.411a4.94,4.94,0,0,0-4.11,5.65l.794,5.035,75.77-11.95-.794-5.035A4.94,4.94,0,0,0,1391.818,576.579Z" transform="translate(-1311.691 -576.518)" fill="url(#linear-gradient-5)"/>
            <path id="Trazado_207922" data-name="Trazado 207922" d="M1289.765,829.559h0a.753.753,0,0,0-.627.861l1.9,12.044a.753.753,0,0,0,.861.627h0a.753.753,0,0,0,.626-.861l-1.9-12.044A.753.753,0,0,0,1289.765,829.559Z" transform="translate(-1282.465 -804.002)" fill="#e6e6e6" style="mix-blend-mode: multiply;isolation: isolate"/>
            <path id="Trazado_207923" data-name="Trazado 207923" d="M1345.2,820.816h0a.753.753,0,0,0-.627.861l1.9,12.045a.753.753,0,0,0,.861.627h0a.753.753,0,0,0,.627-.861l-1.9-12.045A.753.753,0,0,0,1345.2,820.816Z" transform="translate(-1332.303 -796.141)" fill="#e6e6e6" style="mix-blend-mode: multiply;isolation: isolate"/>
            <path id="Trazado_207924" data-name="Trazado 207924" d="M1400.635,812.073h0a.753.753,0,0,0-.626.861l1.9,12.044a.753.753,0,0,0,.861.627h0a.753.753,0,0,0,.627-.861l-1.9-12.044A.753.753,0,0,0,1400.635,812.073Z" transform="translate(-1382.141 -788.281)" fill="#e6e6e6" style="mix-blend-mode: multiply;isolation: isolate"/>
            <path id="Trazado_207925" data-name="Trazado 207925" d="M1456.069,803.33h0a.753.753,0,0,0-.627.861l1.9,12.044a.753.753,0,0,0,.861.627h0a.753.753,0,0,0,.627-.861l-1.9-12.044A.753.753,0,0,0,1456.069,803.33Z" transform="translate(-1431.978 -780.421)" fill="#e6e6e6" style="mix-blend-mode: multiply;isolation: isolate"/>
            <path id="Trazado_207926" data-name="Trazado 207926" d="M1511.5,794.587h0a.753.753,0,0,0-.627.861l1.9,12.044a.753.753,0,0,0,.861.627h0a.753.753,0,0,0,.627-.861l-1.9-12.045A.753.753,0,0,0,1511.5,794.587Z" transform="translate(-1481.815 -772.561)" fill="#e6e6e6" style="mix-blend-mode: multiply;isolation: isolate"/>
            <path id="Trazado_207927" data-name="Trazado 207927" d="M1566.939,785.844h0a.753.753,0,0,0-.627.861l1.9,12.045a.753.753,0,0,0,.861.626h0a.753.753,0,0,0,.627-.861l-1.9-12.044A.753.753,0,0,0,1566.939,785.844Z" transform="translate(-1531.653 -764.7)" fill="#e6e6e6" style="mix-blend-mode: multiply;isolation: isolate"/>
            <path id="Trazado_207928" data-name="Trazado 207928" d="M1622.373,777.1h0a.753.753,0,0,0-.627.861l1.9,12.044a.753.753,0,0,0,.861.627h0a.753.753,0,0,0,.627-.861l-1.9-12.044A.753.753,0,0,0,1622.373,777.1Z" transform="translate(-1581.491 -756.84)" fill="#e6e6e6" style="mix-blend-mode: multiply;isolation: isolate"/>
            <path id="Trazado_207929" data-name="Trazado 207929" d="M1677.808,768.358h0a.753.753,0,0,0-.627.861l1.9,12.044a.753.753,0,0,0,.861.627h0a.753.753,0,0,0,.627-.861l-1.9-12.044A.753.753,0,0,0,1677.808,768.358Z" transform="translate(-1631.328 -748.98)" fill="#e6e6e6" style="mix-blend-mode: multiply;isolation: isolate"/>
            <path id="Trazado_207930" data-name="Trazado 207930" d="M1733.243,759.615h0a.753.753,0,0,0-.627.861l1.9,12.044a.753.753,0,0,0,.861.627h0a.753.753,0,0,0,.627-.861l-1.9-12.044A.753.753,0,0,0,1733.243,759.615Z" transform="translate(-1681.166 -741.12)" fill="#e6e6e6" style="mix-blend-mode: multiply;isolation: isolate"/>
            <path id="Trazado_207931" data-name="Trazado 207931" d="M1788.677,750.871h0a.753.753,0,0,0-.626.861l1.9,12.044a.753.753,0,0,0,.861.627h0a.753.753,0,0,0,.627-.861l-1.9-12.044A.753.753,0,0,0,1788.677,750.871Z" transform="translate(-1731.004 -733.259)" fill="#e6e6e6" style="mix-blend-mode: multiply;isolation: isolate"/>
            <path id="Trazado_207932" data-name="Trazado 207932" d="M1844.112,742.128h0a.753.753,0,0,0-.627.861l1.9,12.044a.753.753,0,0,0,.861.627h0a.753.753,0,0,0,.626-.861l-1.9-12.045A.753.753,0,0,0,1844.112,742.128Z" transform="translate(-1780.841 -725.399)" fill="#e6e6e6" style="mix-blend-mode: multiply;isolation: isolate"/>
            <path id="Trazado_207933" data-name="Trazado 207933" d="M1899.547,733.385h0a.753.753,0,0,0-.627.861l1.9,12.045a.753.753,0,0,0,.861.627h0a.753.753,0,0,0,.627-.861l-1.9-12.044A.753.753,0,0,0,1899.547,733.385Z" transform="translate(-1830.679 -717.538)" fill="#e6e6e6" style="mix-blend-mode: multiply;isolation: isolate"/>
            <path id="Trazado_207934" data-name="Trazado 207934" d="M1954.982,724.642h0a.753.753,0,0,0-.626.861l1.9,12.044a.753.753,0,0,0,.861.627h0a.753.753,0,0,0,.627-.861l-1.9-12.045A.753.753,0,0,0,1954.982,724.642Z" transform="translate(-1880.516 -709.678)" fill="#e6e6e6" style="mix-blend-mode: multiply;isolation: isolate"/>
            <path id="Trazado_207935" data-name="Trazado 207935" d="M2010.416,715.9h0a.753.753,0,0,0-.627.861l1.9,12.045a.753.753,0,0,0,.861.627h0a.753.753,0,0,0,.626-.861l-1.9-12.045A.753.753,0,0,0,2010.416,715.9Z" transform="translate(-1930.353 -701.818)" fill="#e6e6e6" style="mix-blend-mode: multiply;isolation: isolate"/>
            <path id="Trazado_207936" data-name="Trazado 207936" d="M2065.851,707.156h0a.753.753,0,0,0-.626.861l1.9,12.044a.753.753,0,0,0,.861.627h0a.754.754,0,0,0,.627-.861l-1.9-12.044A.753.753,0,0,0,2065.851,707.156Z" transform="translate(-1980.191 -693.957)" fill="#e6e6e6" style="mix-blend-mode: multiply;isolation: isolate"/>
            <path id="Trazado_207937" data-name="Trazado 207937" d="M2121.285,698.413h0a.753.753,0,0,0-.626.861l1.9,12.044a.753.753,0,0,0,.861.627h0a.753.753,0,0,0,.626-.861l-1.9-12.044A.753.753,0,0,0,2121.285,698.413Z" transform="translate(-2030.029 -686.097)" fill="#e6e6e6" style="mix-blend-mode: multiply;isolation: isolate"/>
          </g>
          <g id="Grupo_171845" data-name="Grupo 171845" transform="translate(40.255 190.431)">
            <path id="Trazado_207938" data-name="Trazado 207938" d="M1633.236,2480.836l-8.247-5.395a7,7,0,0,1-2.027-9.7h0a7.005,7.005,0,0,1,9.7-2.028l8.247,5.395Z" transform="translate(-1621.818 -2462.573)" fill="#4d4d4d" style="mix-blend-mode: screen;isolation: isolate"/>
            <path id="Trazado_207939" data-name="Trazado 207939" d="M1743.15,2544.448l-8.247-5.395,7.67-11.725,8.247,5.395a7.005,7.005,0,0,1,2.027,9.7h0A7,7,0,0,1,1743.15,2544.448Z" transform="translate(-1723.485 -2520.791)" fill="#ccc" style="mix-blend-mode: color-burn;isolation: isolate"/>
          </g>
          <g id="Grupo_171846" data-name="Grupo 171846" transform="translate(73.949 195.008)">
            <path id="Trazado_207940" data-name="Trazado 207940" d="M1973.368,2537.8l-9.734,1.535a7.005,7.005,0,0,1-8.011-5.828h0a7.005,7.005,0,0,1,5.828-8.011l9.735-1.535Z" transform="translate(-1955.536 -2522.338)" fill="#4d4d4d" style="mix-blend-mode: screen;isolation: isolate"/>
            <path id="Trazado_207941" data-name="Trazado 207941" d="M2122.443,2521.823l-9.734,1.535-2.183-13.839,9.734-1.535a7.005,7.005,0,0,1,8.011,5.828h0A7.005,7.005,0,0,1,2122.443,2521.823Z" transform="translate(-2094.877 -2507.897)" fill="#ccc" style="mix-blend-mode: color-burn;isolation: isolate"/>
          </g>
          <g id="Grupo_171847" data-name="Grupo 171847" transform="translate(57.402 173.612)">
            <path id="Trazado_207942" data-name="Trazado 207942" d="M1910.286,2301.927l8.508-4.973a7,7,0,0,1,9.583,2.513h0a7,7,0,0,1-2.513,9.583l-8.508,4.973Z" transform="translate(-1898.307 -2295.995)" fill="#4d4d4d" style="mix-blend-mode: screen;isolation: isolate"/>
            <path id="Trazado_207943" data-name="Trazado 207943" d="M1795.116,2359.714l8.508-4.973,7.07,12.1-8.508,4.973a7,7,0,0,1-9.583-2.513h0A7,7,0,0,1,1795.116,2359.714Z" transform="translate(-1791.645 -2348.809)" fill="#ccc" style="mix-blend-mode: color-burn;isolation: isolate"/>
          </g>
          <g id="Grupo_171848" data-name="Grupo 171848" transform="translate(39.15 156.799)">
            <path id="Trazado_207944" data-name="Trazado 207944" d="M1658.33,2142.482l4.141-8.942a7,7,0,0,1,9.3-3.413h0a7,7,0,0,1,3.413,9.3l-4.141,8.943Z" transform="translate(-1653.539 -2129.476)" fill="#4d4d4d" style="mix-blend-mode: screen;isolation: isolate"/>
            <path id="Trazado_207945" data-name="Trazado 207945" d="M1611.531,2267.228l4.141-8.942,12.713,5.887-4.141,8.942a7,7,0,0,1-9.3,3.413h0A7.005,7.005,0,0,1,1611.531,2267.228Z" transform="translate(-1610.88 -2245.28)" fill="#ccc" style="mix-blend-mode: color-burn;isolation: isolate"/>
          </g>
          <g id="Grupo_171849" data-name="Grupo 171849" transform="translate(67.308 54.059)">
            <path id="Trazado_207946" data-name="Trazado 207946" d="M1908.881,1118.475l-7.685,11.748-8.263-5.405a7,7,0,0,1-2.95-4.1.033.033,0,0,1,0-.007c-.058-.221-.1-.446-.14-.672a7.019,7.019,0,0,1,10.776-6.966Z" transform="translate(-1889.755 -1111.924)" fill="#fff"/>
            <path id="Trazado_207947" data-name="Trazado 207947" d="M2021.044,1191.927a7.018,7.018,0,0,1-9.716,2.032l-8.263-5.406,7.685-11.748,8.263,5.406a6.993,6.993,0,0,1,2.949,4.1q.086.33.14.667s0,0,0,0A6.992,6.992,0,0,1,2021.044,1191.927Z" transform="translate(-1991.624 -1170.255)" fill="#e5285d"/>
          </g>
          <g id="Grupo_171850" data-name="Grupo 171850" transform="translate(22.81 69.864)">
            <path id="Trazado_207948" data-name="Trazado 207948" d="M1462.465,1311.565l5.413,12.953-9.11,3.807a7,7,0,0,1-5.051.14l-.007,0q-.323-.115-.635-.261a7.02,7.02,0,0,1,.28-12.829Z" transform="translate(-1449.04 -1307.213)" fill="#fff"/>
            <path id="Trazado_207949" data-name="Trazado 207949" d="M1600.3,1272.778a7.018,7.018,0,0,1-3.77,9.182l-9.111,3.807L1582,1272.815l9.111-3.807a6.993,6.993,0,0,1,5.05-.14q.321.113.631.259h0A6.993,6.993,0,0,1,1600.3,1272.778Z" transform="translate(-1568.577 -1268.464)" fill="#e5285d"/>
          </g>
          <g id="Grupo_171851" data-name="Grupo 171851" transform="translate(30.227 39.615)">
            <path id="Trazado_207950" data-name="Trazado 207950" d="M1616.63,987.918l-10.4-9.431,6.633-7.314a6.994,6.994,0,0,1,4.514-2.27h.007c.228-.022.457-.033.686-.033a7.019,7.019,0,0,1,5.191,11.735Z" transform="translate(-1597.778 -968.869)" fill="#fff"/>
            <path id="Trazado_207951" data-name="Trazado 207951" d="M1524.8,1081.349a7.017,7.017,0,0,1-.484-9.914l6.634-7.314,10.4,9.431-6.634,7.314a6.992,6.992,0,0,1-4.513,2.27c-.226.023-.453.033-.681.034h0A6.992,6.992,0,0,1,1524.8,1081.349Z" transform="translate(-1522.501 -1054.503)" fill="#e5285d"/>
          </g>
        </g>
        <path id="Trazado_207952" data-name="Trazado 207952" d="M2151.169,2753.734l-64.805,39.817-2.8-4.56a6.718,6.718,0,0,1,2.207-9.241l53.357-32.784a6.718,6.718,0,0,1,9.24,2.207Z" transform="translate(-772.66 -1950.408)" fill="#fff"/>
        <path id="Trazado_207953" data-name="Trazado 207953" d="M2155.254,2818.24a133.543,133.543,0,0,1-87.588,43.857l-4.42-7.194a8.769,8.769,0,0,1,2.881-12.062l1.7-1.044,64.805-39.819,1.7-1.043a8.769,8.769,0,0,1,12.063,2.881Z" transform="translate(-754.122 -1998.654)" fill="#4a6684"/>
        <path id="Trazado_207954" data-name="Trazado 207954" d="M1445.547,2477.779a6.916,6.916,0,0,1-2.405,2.376,6.1,6.1,0,0,1-3.948.608c-2.482-.353-5.247-1.758-8.1-3.233-4.039-2.09-8.186-8.106-5.165-13.083.111-.185.234-.369.367-.552l.081-.108a7.525,7.525,0,0,1,1.055-1.142c2.223-1.95,5.331-2.255,8.689-1.359a20.752,20.752,0,0,1,4.317,1.733q.279.147.559.3a11.666,11.666,0,0,1,3.947,3.619c.154.227.3.458.436.693A9.765,9.765,0,0,1,1445.547,2477.779Z" transform="translate(-181.39 -1694.034)" fill="#fcb89d"/>
        <path id="Trazado_207955" data-name="Trazado 207955" d="M1543.435,2447.928l-.064-.1a14.092,14.092,0,0,0-1.138-1.457q-.173-.194-.354-.38a14.031,14.031,0,0,0-3.239-2.5q-1.074-.6-2.139-1.079-.652-.293-1.3-.537t-1.295-.443q-.465-.142-.926-.259-.377-.1-.748-.172l.391,2.48q.8.215,1.625.519l.067.025h0q.361.134.722.286.406.169.815.36.272.127.544.263t.544.28c.093.049.187.1.28.149s.187.1.28.154a11.639,11.639,0,0,1,3.947,3.619c.061.091.121.181.18.274l.073.114.089.145c.032.053.064.106.095.161s.077.134.115.2c.026.047.053.095.078.143s.036.066.053.1l.079.153c.016.032.032.064.048.1q.177.356.326.722c.031.076.062.153.091.229s.063.167.093.251c.014.037.027.075.04.112s.027.078.04.118a10.745,10.745,0,0,1,.332,1.233c.007.031.013.061.019.092s.014.072.021.107.01.057.016.085.01.058.015.087a8.691,8.691,0,0,1-1.827,7.277c-.048.058-.1.115-.145.17a6.155,6.155,0,0,1-1.63,1.342c-.107.061-.216.116-.325.168a5.288,5.288,0,0,1-.782.3,5.632,5.632,0,0,1-.695.155c-.174.027-.351.047-.529.06q-.325.022-.657.014c-.09,0-.18-.006-.27-.012s-.182-.013-.274-.022-.183-.019-.276-.031l-.139-.019.375,2.377a9.3,9.3,0,0,0,1.6-.006c.178-.016.355-.038.528-.066a7.819,7.819,0,0,0,1.818-.514,8.884,8.884,0,0,0,3.979-3.513,11.043,11.043,0,0,0,1.689-6.757A13.356,13.356,0,0,0,1543.435,2447.928Z" transform="translate(-277.893 -1676.231)" fill="#ccc" style="mix-blend-mode: multiply;isolation: isolate"/>
        <path id="Trazado_207956" data-name="Trazado 207956" d="M1488.6,2513.4c-.585-1.6-2.767-3.8-4.512-3.948s-3.938.384-4.635,2.1a7.946,7.946,0,0,0-.385,3.043,5,5,0,0,0,.975,3.586,16.24,16.24,0,0,0,3.146,2.219c2.365,1.016,3.381,1.556,4.523-.586C1488.552,2518.229,1489.184,2515,1488.6,2513.4Z" transform="translate(-230.092 -1737.746)" fill="#666" style="mix-blend-mode: screen;isolation: isolate"/>
        <path id="Trazado_207957" data-name="Trazado 207957" d="M1387.021,2284.645a7.274,7.274,0,0,1-3.223,2.389,6.94,6.94,0,0,1-4.036.045c-3.421-.867-7.287-3.628-11.656-6.258-5.576-3.357-9.453-13.873-5.263-18.566a6.985,6.985,0,0,1,2.137-1.647,6.554,6.554,0,0,1,.826-.339,7.381,7.381,0,0,1,1.988-.363,16.145,16.145,0,0,1,8.048,2.315,42.01,42.01,0,0,1,4.487,2.812q.283.2.565.406.432.314.864.641.266.2.522.407.336.271.657.55C1388.968,2272.284,1390.941,2279.882,1387.021,2284.645Z" transform="translate(-124.017 -1513.409)" fill="#fcb89d"/>
        <path id="Trazado_207958" data-name="Trazado 207958" d="M1455.564,2362.428c-.664-1.817-3.951-4.594-5.934-4.762s-4.526.027-5.318,1.971a10.36,10.36,0,0,0-.536,3.689,5.625,5.625,0,0,0,1.578,3.908c.041.042.083.083.125.124a12.046,12.046,0,0,0,3.449,2.4c2.688,1.155,3.858,1.828,5.538-.359A7.73,7.73,0,0,0,1455.564,2362.428Z" transform="translate(-198.366 -1601.266)" fill="#666" style="mix-blend-mode: screen;isolation: isolate"/>
        <path id="Trazado_207959" data-name="Trazado 207959" d="M1380.935,2072.977c5.863,4.983,7.184,13.306,3.18,17.617-4.732,5.094-10.484.62-16.6-4.266-4.513-3.608-8.559-12.031-3.584-16.757C1368.116,2065.6,1374.8,2067.765,1380.935,2072.977Z" transform="translate(-124.531 -1340.461)" fill="#fcb89d"/>
        <path id="Trazado_207960" data-name="Trazado 207960" d="M1455.561,2308.214a21.766,21.766,0,0,0-4.129-5.005q-.527-.478-1.092-.932c-.191-.154-.387-.307-.579-.452l-.139-.1a6.622,6.622,0,0,1-2.124,1.32q.432.314.864.641.266.2.522.407.336.271.657.55c6.031,5.249,8,12.847,4.085,17.609q-.2.241-.4.457a6.918,6.918,0,0,1-2.824,1.932,5.782,5.782,0,0,1-.99.246,7.566,7.566,0,0,1-3.047-.2c-2.9-.735-6.124-2.833-9.7-5.058a7.53,7.53,0,0,0-1.055,1.142c-.027.035-.054.072-.081.108-.133.182-.255.366-.367.552q.544.338,1.076.67a60.548,60.548,0,0,0,6.653,3.79,15.819,15.819,0,0,0,3.864,1.254,9.251,9.251,0,0,0,3.021.039,8.078,8.078,0,0,0,.994-.221,8.966,8.966,0,0,0,3.844-2.344,11.937,11.937,0,0,0,.806-.888,11.055,11.055,0,0,0,2.14-4.136,12.453,12.453,0,0,0,.347-4.575A16.865,16.865,0,0,0,1455.561,2308.214Z" transform="translate(-190.622 -1551.011)" fill="#ccc" style="mix-blend-mode: multiply;isolation: isolate"/>
        <path id="Trazado_207961" data-name="Trazado 207961" d="M1421.151,2060.392a18.159,18.159,0,0,0-3.574-4.852q-.44-.425-.909-.825a31.419,31.419,0,0,0-5.489-3.8q-.934-.5-1.86-.891-.386-.163-.767-.306c-.16-.06-.319-.118-.478-.172q-.544-.188-1.079-.332c-.07-.018-.022-.006-.133-.032l.4,2.543.009,0c.085.028.168.059.253.088l.012,0c.084.03.168.062.253.094l.037.014.244.095.184.075.159.066q.281.119.564.25l.134.063c.3.141.606.294.91.455.061.033.123.065.183.1.124.066.247.135.371.206.076.043.153.086.229.132l.022.012.266.157c.184.11.369.224.554.342l.22.141.221.145c.073.049.148.1.221.147q.22.149.442.3l.221.156.147.106.146.106q.12.088.24.178l.189.142c.071.053.141.107.211.162q.634.487,1.259,1.02a16.1,16.1,0,0,1,2.989,3.367c.044.067.088.133.13.2l.008.012.048.076c.045.069.087.137.128.207.2.323.382.652.554.982q.092.178.178.357c.039.08.077.161.115.24s.068.147.1.221.068.154.1.232a13.8,13.8,0,0,1,1.133,5.283c0,.241,0,.48-.019.719h0a10.357,10.357,0,0,1-.436,2.47c-.04.131-.083.26-.129.388l-.006.016q-.089.248-.192.487c-.07.167-.145.329-.227.489s-.166.317-.256.471-.185.3-.286.453c-.051.074-.1.147-.154.219a8.025,8.025,0,0,1-.6.726h0c-.038.041-.075.081-.113.12-.075.079-.15.155-.227.228l-.114.11-.107.1-.022.021-.1.088-.083.071-.081.067c-.033.028-.068.056-.1.083s-.057.046-.087.067-.074.057-.111.085l-.116.084c-.117.083-.234.161-.353.235l-.117.071c-.024.015-.047.028-.071.041s-.061.036-.093.052c-.052.029-.105.057-.157.084l-.066.034c-.029.015-.06.03-.089.043l-.112.052c-.058.026-.116.052-.174.075s-.13.054-.2.077a.039.039,0,0,1-.015.006l-.069.024c-.135.049-.271.093-.407.129l-.159.041-.134.031c-.106.023-.212.043-.319.06l-.183.026-.074.009-.123.013-.078.005c-.134.011-.269.016-.405.018h-.227l-.109,0c-.031,0-.062,0-.093,0-.054,0-.107-.006-.16-.01-.086-.006-.171-.016-.257-.026l-.1-.012a.029.029,0,0,1-.014,0l-.109-.015c-.111-.016-.224-.035-.335-.057l-.1-.02-.112-.024-.11-.025-.126-.031c-.105-.026-.211-.054-.317-.085-.074-.021-.148-.044-.223-.067l-.135-.043-.079-.026-.009,0-.1-.035a.137.137,0,0,0-.023-.008c-.122-.044-.244-.088-.367-.137l-.014-.005c-.126-.049-.251-.1-.378-.155-.216-.092-.433-.191-.651-.3l-.13-.063-.009,0-.2-.1-.1-.051c-.071-.038-.142-.075-.213-.114-.567-.305-1.139-.651-1.716-1.026l-.191-.126c-.083-.056-.169-.111-.253-.17-.053-.034-.1-.069-.156-.1-.278-.19-.559-.388-.841-.59l-.191-.139c-.139-.1-.277-.2-.416-.3-.07-.051-.14-.1-.209-.156l-.209-.156q-.211-.158-.419-.319c-.071-.053-.139-.106-.209-.161q-.421-.323-.844-.656c-.233-.182-.465-.367-.7-.553a7.412,7.412,0,0,0-1.988.363,6.706,6.706,0,0,0-.827.339c.19.167.382.33.575.483a57.477,57.477,0,0,0,6.945,5.019,16.368,16.368,0,0,0,3.674,1.612c.188.053.374.1.558.143l.009,0a9.787,9.787,0,0,0,1.634.234,8.369,8.369,0,0,0,1.792-.083c.206-.032.411-.073.614-.122a8.062,8.062,0,0,0,2.156-.861,9.582,9.582,0,0,0,1.89-1.429c.162-.153.32-.314.476-.483q.315-.339.6-.705a11.971,11.971,0,0,0,2.3-8.112A16.655,16.655,0,0,0,1421.151,2060.392Z" transform="translate(-158.76 -1323.97)" fill="#ccc" style="mix-blend-mode: multiply;isolation: isolate"/>
        <path id="Trazado_207962" data-name="Trazado 207962" d="M1431.187,2155.876c-.473-1.876-3.454-4.978-5.409-5.35s-4.5-.441-5.493,1.41a10.359,10.359,0,0,0-.915,3.613,5.625,5.625,0,0,0,1.164,4.051c.037.046.074.092.112.137a12.044,12.044,0,0,0,3.183,2.741c2.554,1.427,3.648,2.218,5.545.216A7.73,7.73,0,0,0,1431.187,2155.876Z" transform="translate(-176.399 -1414.893)" fill="#666" style="mix-blend-mode: screen;isolation: isolate"/>
        <path id="Trazado_207963" data-name="Trazado 207963" d="M2387.946,1727.421a12.477,12.477,0,0,1-2.722-.08c-1.648-.221-2.553-1.176-3.806-2.592s-2.1-5.676-2.512-7.223a5.544,5.544,0,0,1,.244-4.329c.76-1.493,4.051-1.737,4.051-1.737l.053.007a8.44,8.44,0,0,1,2.164,4.689A90.341,90.341,0,0,0,2387.946,1727.421Z" transform="translate(-1038.789 -1020.348)" fill="#666" style="mix-blend-mode: screen;isolation: isolate"/>
        <path id="Trazado_207964" data-name="Trazado 207964" d="M2299.451,1692.05c-.826.17-1.671,1.794-2.406,3.758a26.528,26.528,0,0,0-1.4,12.873l3.409,24.974c-2.837-1.9-5.842-8.708-7.154-17.03a48.811,48.811,0,0,1,.652-16.99,10.774,10.774,0,0,1,2.405-4.844A8.058,8.058,0,0,1,2299.451,1692.05Z" transform="translate(-960.428 -1002.898)" fill="#fcb89d"/>
        <path id="Trazado_207965" data-name="Trazado 207965" d="M2273.06,1717.106a11.158,11.158,0,0,1,.743-2.259l-.531-3.363a13.09,13.09,0,0,0-2.355,5.161c-.136.632-.306,1.494-.474,2.538a49.945,49.945,0,0,0-.2,15.254,49.281,49.281,0,0,0,3.154,11.441,26.6,26.6,0,0,0,1.819,3.565q.2.32.4.619a10.514,10.514,0,0,0,2.725,2.885l1.643,1.1-.465-2.949c-2.067-1.418-4.218-5.429-5.735-10.724a52.7,52.7,0,0,1-1.378-6.278,40.17,40.17,0,0,1-.465-5.411A51.737,51.737,0,0,1,2273.06,1717.106Z" transform="translate(-940.938 -1020.37)" fill="#ccc" style="mix-blend-mode: multiply;isolation: isolate"/>
      </g>
    </g>
  </g>
</svg>
