<svg xmlns="http://www.w3.org/2000/svg" width="294.999" height="300.394" viewBox="0 0 294.999 300.394">
  <g id="Grupo_172433" data-name="Grupo 172433" transform="translate(-180 -3472.605)">
    <g id="Grupo_66837" data-name="Grupo 66837" transform="translate(-77.938 -1761.834)">
      <g id="Grupo_66834" data-name="Grupo 66834" transform="translate(257.938 5215)">
        <path id="Trazado_132887" data-name="Trazado 132887" d="M720.005,503.977c-31.928,52.082-34.14,202.426,10.705,241.776s119.779-47.2,151.7-99.282,21.448-126.183-23.4-165.533S751.928,451.9,720.005,503.977Z" transform="translate(-636.771 -437.537)" fill="#00bcd4"/>
        <path id="Trazado_132888" data-name="Trazado 132888" d="M652.737,564.385c0,75.485,109.421,157.931,169.783,157.931S947.736,639.87,947.736,564.385s-25.467-126.606-114.6-69.365C779.432,529.5,652.737,488.9,652.737,564.385Z" transform="translate(-652.736 -432.629)" fill="#7e5ee3"/>
      </g>
    </g>
    <g id="Grupo_170832" data-name="Grupo 170832" transform="translate(-33.298 3472.605)">
      <g id="Grupo_170827" data-name="Grupo 170827" transform="translate(262.702)">
        <path id="Trazado_207137" data-name="Trazado 207137" d="M1016.549,872.5l-146.3.776v-11l170.3-.209Z" transform="translate(-846.251 -758.007)" fill="#92d8ea"/>
        <g id="Grupo_170748" data-name="Grupo 170748" transform="translate(38.008)">
          <path id="Trazado_207138" data-name="Trazado 207138" d="M1113.342,454.21l59.439-14.434a5.812,5.812,0,0,1,7.02,4.277l21.426,88.232a5.813,5.813,0,0,1-4.277,7.02l-59.439,14.434a5.813,5.813,0,0,1-7.02-4.277l-21.426-88.232A5.813,5.813,0,0,1,1113.342,454.21Z" transform="translate(-1108.9 -439.611)" fill="#f0f7fc"/>
          <path id="Trazado_207139" data-name="Trazado 207139" d="M1113.17,494.407c2.847,18.439,12.555,61.577,30.669,73.761,16.715,11.245,37.543,12.614,57.557,5.646a5.814,5.814,0,0,1-4.441,5.64l-59.439,14.434a5.813,5.813,0,0,1-7.02-4.277L1109.07,501.38A5.812,5.812,0,0,1,1113.17,494.407Z" transform="translate(-1108.905 -479.76)" fill="#dfecf4"/>
          <g id="Grupo_170735" data-name="Grupo 170735" transform="translate(33.682 9.186)">
            <path id="Trazado_207140" data-name="Trazado 207140" d="M1235.134,474.012a1.212,1.212,0,0,1,1.464.892l22.891,94.263a1.212,1.212,0,0,1-.892,1.464h0a1.212,1.212,0,0,1-1.464-.892l-22.891-94.263A1.212,1.212,0,0,1,1235.134,474.012Z" transform="translate(-1234.208 -473.978)" fill="#fff"/>
          </g>
          <g id="Grupo_170741" data-name="Grupo 170741" transform="translate(41.188 6.757)">
            <g id="Grupo_170736" data-name="Grupo 170736" transform="translate(0)">
              <path id="Trazado_207141" data-name="Trazado 207141" d="M1210.5,468.4l13.788-3.348a5.768,5.768,0,1,1,2.722,11.21l-13.788,3.348a5.768,5.768,0,1,1-2.722-11.21Z" transform="translate(-1206.091 -464.891)" fill="#dfecf4"/>
              <path id="Trazado_207142" data-name="Trazado 207142" d="M1207.239,491.016a5.774,5.774,0,0,0,6.966,4.244l13.788-3.348a5.754,5.754,0,0,0,3.691-2.829,5.775,5.775,0,0,1-4.31,4.562l-13.788,3.348a5.765,5.765,0,0,1-6.414-8.382A5.726,5.726,0,0,0,1207.239,491.016Z" transform="translate(-1206.457 -482.271)" fill="#cbe8f7"/>
              <path id="Trazado_207143" data-name="Trazado 207143" d="M1216.516,475.906l13.788-3.348a3.759,3.759,0,0,1,4.527,2.758h0a3.759,3.759,0,0,1-2.757,4.526l-13.788,3.348a3.759,3.759,0,0,1-4.527-2.758h0A3.759,3.759,0,0,1,1216.516,475.906Z" transform="translate(-1211.631 -470.431)" fill="#f4d41e"/>
              <path id="Trazado_207144" data-name="Trazado 207144" d="M1253.018,480.784l6.894-1.674,1.769,7.284-6.894,1.674a3.748,3.748,0,0,1-1.769-7.284Z" transform="translate(-1248.134 -475.309)" fill="#7e5ee3"/>
              <path id="Trazado_207145" data-name="Trazado 207145" d="M1217.851,486.888l13.788-3.348a3.763,3.763,0,0,0,2.863-3.608,3.72,3.72,0,0,1,.328.864,3.759,3.759,0,0,1-2.757,4.526l-13.788,3.348a3.759,3.759,0,0,1-4.527-2.757,3.721,3.721,0,0,1-.1-.918A3.762,3.762,0,0,0,1217.851,486.888Z" transform="translate(-1211.631 -475.911)" fill="#ad0000" opacity="0.15"/>
              <path id="Trazado_207146" data-name="Trazado 207146" d="M1231.224,480.119l11.386-2.765a.593.593,0,1,1,.28,1.153l-11.386,2.765a.593.593,0,1,1-.28-1.153Z" transform="translate(-1224.615 -474.01)" fill="#fff" opacity="0.31"/>
            </g>
            <g id="Grupo_170737" data-name="Grupo 170737" transform="translate(4.768 19.632)">
              <path id="Trazado_207147" data-name="Trazado 207147" d="M1192.663,541.848l13.788-3.348a5.768,5.768,0,0,1,2.723,11.211l-13.788,3.348a5.768,5.768,0,0,1-2.723-11.211Z" transform="translate(-1188.256 -538.336)" fill="#dfecf4"/>
              <path id="Trazado_207148" data-name="Trazado 207148" d="M1189.4,564.461a5.775,5.775,0,0,0,6.966,4.244l13.788-3.348a5.754,5.754,0,0,0,3.692-2.829,5.775,5.775,0,0,1-4.31,4.562l-13.788,3.348a5.765,5.765,0,0,1-6.414-8.382A5.733,5.733,0,0,0,1189.4,564.461Z" transform="translate(-1188.621 -555.716)" fill="#cbe8f7"/>
              <path id="Trazado_207149" data-name="Trazado 207149" d="M1198.681,549.351,1212.469,546a3.748,3.748,0,0,1,1.769,7.284l-13.788,3.348a3.748,3.748,0,0,1-1.769-7.284Z" transform="translate(-1193.797 -543.876)" fill="#f4d41e"/>
              <path id="Trazado_207150" data-name="Trazado 207150" d="M1235.183,554.229l6.894-1.674,1.769,7.284-6.894,1.674a3.748,3.748,0,1,1-1.769-7.284Z" transform="translate(-1230.299 -548.754)" fill="#ff766c"/>
              <path id="Trazado_207151" data-name="Trazado 207151" d="M1200.017,560.333l13.788-3.348a3.762,3.762,0,0,0,2.862-3.608,3.7,3.7,0,0,1,.328.864,3.758,3.758,0,0,1-2.757,4.526l-13.788,3.348a3.746,3.746,0,0,1-4.632-3.676A3.763,3.763,0,0,0,1200.017,560.333Z" transform="translate(-1193.796 -549.356)" fill="#ad0000" opacity="0.15"/>
              <path id="Trazado_207152" data-name="Trazado 207152" d="M1213.389,553.564l11.386-2.765a.6.6,0,0,1,.717.437h0a.6.6,0,0,1-.436.717l-11.386,2.765a.593.593,0,0,1-.28-1.153Z" transform="translate(-1206.779 -547.456)" fill="#fff" opacity="0.31"/>
            </g>
            <g id="Grupo_170738" data-name="Grupo 170738" transform="translate(9.535 39.264)">
              <path id="Trazado_207153" data-name="Trazado 207153" d="M1174.828,615.293l13.788-3.348a5.768,5.768,0,0,1,2.722,11.21l-13.788,3.348a5.768,5.768,0,0,1-2.723-11.21Z" transform="translate(-1170.421 -611.781)" fill="#dfecf4"/>
              <path id="Trazado_207154" data-name="Trazado 207154" d="M1171.568,637.906a5.775,5.775,0,0,0,6.967,4.244l13.788-3.348a5.754,5.754,0,0,0,3.691-2.829,5.774,5.774,0,0,1-4.31,4.562l-13.788,3.348a5.765,5.765,0,0,1-6.414-8.382A5.733,5.733,0,0,0,1171.568,637.906Z" transform="translate(-1170.786 -629.161)" fill="#cbe8f7"/>
              <path id="Trazado_207155" data-name="Trazado 207155" d="M1180.845,622.8l13.788-3.348a3.759,3.759,0,0,1,4.527,2.758h0a3.759,3.759,0,0,1-2.758,4.527l-13.788,3.348a3.759,3.759,0,0,1-4.526-2.758h0A3.759,3.759,0,0,1,1180.845,622.8Z" transform="translate(-1175.961 -617.321)" fill="#f4d41e"/>
              <path id="Trazado_207156" data-name="Trazado 207156" d="M1217.347,627.674l6.894-1.674,1.769,7.284-6.894,1.674a3.748,3.748,0,1,1-1.769-7.284Z" transform="translate(-1212.463 -622.199)" fill="#ff766c"/>
              <path id="Trazado_207157" data-name="Trazado 207157" d="M1182.181,633.778l13.788-3.348a3.763,3.763,0,0,0,2.863-3.608,3.745,3.745,0,0,1-2.43,5.391l-13.788,3.348a3.744,3.744,0,0,1-4.631-3.676A3.762,3.762,0,0,0,1182.181,633.778Z" transform="translate(-1175.96 -622.801)" fill="#ad0000" opacity="0.15"/>
              <path id="Trazado_207158" data-name="Trazado 207158" d="M1195.554,627.009l11.386-2.765a.593.593,0,0,1,.28,1.153l-11.386,2.765a.593.593,0,0,1-.28-1.153Z" transform="translate(-1188.945 -620.901)" fill="#fff" opacity="0.31"/>
            </g>
            <g id="Grupo_170739" data-name="Grupo 170739" transform="translate(14.302 58.896)">
              <path id="Trazado_207159" data-name="Trazado 207159" d="M1156.993,688.738l13.788-3.348a5.768,5.768,0,1,1,2.722,11.21l-13.788,3.348a5.768,5.768,0,1,1-2.722-11.21Z" transform="translate(-1152.585 -685.226)" fill="#dfecf4"/>
              <path id="Trazado_207160" data-name="Trazado 207160" d="M1153.733,711.352a5.774,5.774,0,0,0,6.966,4.244l13.788-3.348a5.754,5.754,0,0,0,3.691-2.829,5.774,5.774,0,0,1-4.31,4.562l-13.788,3.348a5.765,5.765,0,0,1-6.414-8.381A5.724,5.724,0,0,0,1153.733,711.352Z" transform="translate(-1152.951 -702.607)" fill="#cbe8f7"/>
              <path id="Trazado_207161" data-name="Trazado 207161" d="M1163.01,696.241l13.788-3.348a3.748,3.748,0,0,1,1.769,7.284l-13.788,3.348a3.748,3.748,0,0,1-1.769-7.284Z" transform="translate(-1158.125 -690.766)" fill="#f4d41e"/>
              <path id="Trazado_207162" data-name="Trazado 207162" d="M1199.512,701.119l6.894-1.674,1.769,7.284-6.894,1.674a3.748,3.748,0,0,1-1.769-7.284Z" transform="translate(-1194.628 -695.644)" fill="#ff766c"/>
              <path id="Trazado_207163" data-name="Trazado 207163" d="M1164.346,707.222l13.788-3.348a3.763,3.763,0,0,0,2.863-3.608,3.746,3.746,0,0,1-2.43,5.391L1164.778,709a3.745,3.745,0,0,1-4.631-3.676A3.762,3.762,0,0,0,1164.346,707.222Z" transform="translate(-1158.125 -696.246)" fill="#ad0000" opacity="0.15"/>
              <path id="Trazado_207164" data-name="Trazado 207164" d="M1177.718,700.454l11.386-2.765a.593.593,0,1,1,.28,1.153L1178,701.607a.593.593,0,1,1-.28-1.153Z" transform="translate(-1171.109 -694.346)" fill="#fff" opacity="0.31"/>
            </g>
            <g id="Grupo_170740" data-name="Grupo 170740" transform="translate(19.07 78.528)">
              <path id="Trazado_207165" data-name="Trazado 207165" d="M1139.157,762.183l13.788-3.348a5.768,5.768,0,1,1,2.723,11.21l-13.788,3.348a5.768,5.768,0,0,1-2.722-11.21Z" transform="translate(-1134.75 -758.671)" fill="#dfecf4"/>
              <path id="Trazado_207166" data-name="Trazado 207166" d="M1135.9,784.8a5.775,5.775,0,0,0,6.966,4.244l13.788-3.348a5.754,5.754,0,0,0,3.691-2.829,5.775,5.775,0,0,1-4.31,4.562l-13.788,3.348a5.765,5.765,0,0,1-6.414-8.381A5.736,5.736,0,0,0,1135.9,784.8Z" transform="translate(-1135.115 -776.052)" fill="#cbe8f7"/>
              <path id="Trazado_207167" data-name="Trazado 207167" d="M1145.175,769.687l13.788-3.348a3.759,3.759,0,0,1,4.526,2.758h0a3.759,3.759,0,0,1-2.758,4.526l-13.788,3.348a3.759,3.759,0,0,1-4.526-2.758h0A3.759,3.759,0,0,1,1145.175,769.687Z" transform="translate(-1140.291 -764.212)" fill="#f4d41e"/>
              <path id="Trazado_207168" data-name="Trazado 207168" d="M1181.677,774.565l6.894-1.674,1.769,7.284-6.894,1.674a3.748,3.748,0,1,1-1.769-7.284Z" transform="translate(-1176.793 -769.09)" fill="#ff766c"/>
              <path id="Trazado_207169" data-name="Trazado 207169" d="M1146.511,780.668l13.788-3.348a3.762,3.762,0,0,0,2.862-3.608,3.709,3.709,0,0,1,.328.864,3.759,3.759,0,0,1-2.757,4.527l-13.788,3.348a3.745,3.745,0,0,1-4.632-3.676A3.762,3.762,0,0,0,1146.511,780.668Z" transform="translate(-1140.29 -769.691)" fill="#ad0000" opacity="0.15"/>
              <path id="Trazado_207170" data-name="Trazado 207170" d="M1159.883,773.9l11.386-2.765a.593.593,0,0,1,.28,1.153l-11.386,2.765a.593.593,0,1,1-.28-1.153Z" transform="translate(-1153.273 -767.79)" fill="#fff" opacity="0.31"/>
            </g>
          </g>
          <g id="Grupo_170747" data-name="Grupo 170747" transform="translate(7.13 15.028)">
            <g id="Grupo_170742" data-name="Grupo 170742" transform="translate(0)">
              <path id="Trazado_207171" data-name="Trazado 207171" d="M1337.911,499.343l13.788-3.348a5.768,5.768,0,0,1,2.722,11.211l-13.788,3.348a5.768,5.768,0,0,1-2.723-11.211Z" transform="translate(-1333.504 -495.831)" fill="#dfecf4"/>
              <path id="Trazado_207172" data-name="Trazado 207172" d="M1334.651,521.957a5.775,5.775,0,0,0,6.967,4.244l13.788-3.348a5.755,5.755,0,0,0,3.691-2.829,5.775,5.775,0,0,1-4.31,4.562L1341,527.935a5.765,5.765,0,0,1-6.414-8.382A5.733,5.733,0,0,0,1334.651,521.957Z" transform="translate(-1333.869 -513.212)" fill="#cbe8f7"/>
              <path id="Trazado_207173" data-name="Trazado 207173" d="M1343.928,506.847l13.788-3.348a3.748,3.748,0,1,1,1.769,7.284l-13.788,3.348a3.748,3.748,0,0,1-1.769-7.284Z" transform="translate(-1339.044 -501.372)" fill="#f4d41e"/>
              <path id="Trazado_207174" data-name="Trazado 207174" d="M1380.43,511.725l6.894-1.674,1.769,7.284-6.894,1.674a3.748,3.748,0,0,1-1.769-7.284Z" transform="translate(-1375.546 -506.25)" fill="#7e5ee3"/>
              <path id="Trazado_207175" data-name="Trazado 207175" d="M1345.264,517.829l13.788-3.348a3.762,3.762,0,0,0,2.863-3.608,3.714,3.714,0,0,1,.328.864,3.759,3.759,0,0,1-2.758,4.526l-13.788,3.348a3.758,3.758,0,0,1-4.526-2.758,3.707,3.707,0,0,1-.105-.918A3.762,3.762,0,0,0,1345.264,517.829Z" transform="translate(-1339.043 -506.852)" fill="#ad0000" opacity="0.15"/>
              <path id="Trazado_207176" data-name="Trazado 207176" d="M1358.637,511.06l11.386-2.765a.593.593,0,1,1,.28,1.153l-11.386,2.765a.593.593,0,0,1-.28-1.153Z" transform="translate(-1352.028 -504.951)" fill="#fff" opacity="0.31"/>
            </g>
            <g id="Grupo_170743" data-name="Grupo 170743" transform="translate(4.767 19.632)">
              <path id="Trazado_207177" data-name="Trazado 207177" d="M1320.076,572.788l13.788-3.348a5.768,5.768,0,0,1,2.722,11.211L1322.8,584a5.768,5.768,0,0,1-2.723-11.211Z" transform="translate(-1315.669 -569.276)" fill="#dfecf4"/>
              <path id="Trazado_207178" data-name="Trazado 207178" d="M1316.816,595.4a5.775,5.775,0,0,0,6.966,4.244l13.788-3.348a5.754,5.754,0,0,0,3.691-2.829,5.775,5.775,0,0,1-4.31,4.562l-13.788,3.348A5.765,5.765,0,0,1,1316.75,593,5.732,5.732,0,0,0,1316.816,595.4Z" transform="translate(-1316.034 -586.657)" fill="#cbe8f7"/>
              <path id="Trazado_207179" data-name="Trazado 207179" d="M1326.093,580.292l13.788-3.348a3.759,3.759,0,0,1,4.526,2.758h0a3.759,3.759,0,0,1-2.758,4.526l-13.788,3.348a3.759,3.759,0,0,1-4.526-2.758h0A3.759,3.759,0,0,1,1326.093,580.292Z" transform="translate(-1321.208 -574.817)" fill="#f4d41e"/>
              <path id="Trazado_207180" data-name="Trazado 207180" d="M1362.595,585.17l6.894-1.674,1.769,7.284-6.894,1.674a3.748,3.748,0,0,1-1.769-7.284Z" transform="translate(-1357.711 -579.695)" fill="#7e5ee3"/>
              <path id="Trazado_207181" data-name="Trazado 207181" d="M1327.428,591.274l13.788-3.348a3.763,3.763,0,0,0,2.863-3.608,3.746,3.746,0,0,1-2.43,5.39l-13.787,3.348a3.759,3.759,0,0,1-4.527-2.758,3.718,3.718,0,0,1-.1-.918A3.763,3.763,0,0,0,1327.428,591.274Z" transform="translate(-1321.208 -580.297)" fill="#ad0000" opacity="0.15"/>
              <path id="Trazado_207182" data-name="Trazado 207182" d="M1340.8,584.505l11.386-2.765a.593.593,0,1,1,.28,1.153l-11.386,2.765a.593.593,0,1,1-.28-1.153Z" transform="translate(-1334.192 -578.396)" fill="#fff" opacity="0.31"/>
            </g>
            <g id="Grupo_170744" data-name="Grupo 170744" transform="translate(9.535 39.264)">
              <path id="Trazado_207183" data-name="Trazado 207183" d="M1302.241,646.233l13.788-3.348a5.768,5.768,0,1,1,2.722,11.211l-13.788,3.348a5.768,5.768,0,0,1-2.722-11.211Z" transform="translate(-1297.833 -642.721)" fill="#dfecf4"/>
              <path id="Trazado_207184" data-name="Trazado 207184" d="M1298.981,668.847a5.775,5.775,0,0,0,6.966,4.244l13.788-3.348a5.753,5.753,0,0,0,3.691-2.829,5.775,5.775,0,0,1-4.31,4.562l-13.788,3.348a5.765,5.765,0,0,1-6.414-8.382A5.732,5.732,0,0,0,1298.981,668.847Z" transform="translate(-1298.199 -660.102)" fill="#cbe8f7"/>
              <path id="Trazado_207185" data-name="Trazado 207185" d="M1308.258,653.737l13.788-3.348a3.748,3.748,0,0,1,1.769,7.284l-13.788,3.348a3.748,3.748,0,1,1-1.769-7.284Z" transform="translate(-1303.374 -648.262)" fill="#f4d41e"/>
              <path id="Trazado_207186" data-name="Trazado 207186" d="M1344.76,658.615l6.894-1.674,1.769,7.284-6.894,1.674a3.748,3.748,0,0,1-1.769-7.284Z" transform="translate(-1339.875 -653.14)" fill="#7e5ee3"/>
              <path id="Trazado_207187" data-name="Trazado 207187" d="M1309.594,664.719l13.788-3.348a3.763,3.763,0,0,0,2.863-3.608,3.746,3.746,0,0,1-2.43,5.39l-13.788,3.348a3.759,3.759,0,0,1-4.526-2.758,3.72,3.72,0,0,1-.1-.918A3.763,3.763,0,0,0,1309.594,664.719Z" transform="translate(-1303.373 -653.742)" fill="#ad0000" opacity="0.15"/>
              <path id="Trazado_207188" data-name="Trazado 207188" d="M1322.966,657.95l11.386-2.765a.593.593,0,1,1,.28,1.153l-11.386,2.765a.593.593,0,0,1-.28-1.153Z" transform="translate(-1316.356 -651.841)" fill="#fff" opacity="0.31"/>
            </g>
            <g id="Grupo_170745" data-name="Grupo 170745" transform="translate(14.302 58.896)">
              <path id="Trazado_207189" data-name="Trazado 207189" d="M1284.406,719.679l13.788-3.348a5.768,5.768,0,1,1,2.722,11.21l-13.788,3.348a5.768,5.768,0,0,1-2.722-11.21Z" transform="translate(-1279.998 -716.167)" fill="#dfecf4"/>
              <path id="Trazado_207190" data-name="Trazado 207190" d="M1281.145,742.292a5.775,5.775,0,0,0,6.966,4.244l13.788-3.348a5.754,5.754,0,0,0,3.691-2.829,5.776,5.776,0,0,1-4.31,4.562l-13.788,3.348a5.765,5.765,0,0,1-6.414-8.382A5.734,5.734,0,0,0,1281.145,742.292Z" transform="translate(-1280.363 -733.547)" fill="#cbe8f7"/>
              <path id="Trazado_207191" data-name="Trazado 207191" d="M1290.423,727.182l13.788-3.348a3.759,3.759,0,0,1,4.526,2.758h0a3.759,3.759,0,0,1-2.757,4.526l-13.788,3.348a3.759,3.759,0,0,1-4.526-2.758h0A3.759,3.759,0,0,1,1290.423,727.182Z" transform="translate(-1285.539 -721.707)" fill="#f4d41e"/>
              <path id="Trazado_207192" data-name="Trazado 207192" d="M1326.924,732.06l6.894-1.674,1.769,7.284-6.894,1.674a3.748,3.748,0,1,1-1.769-7.284Z" transform="translate(-1322.04 -726.585)" fill="#ff766c"/>
              <path id="Trazado_207193" data-name="Trazado 207193" d="M1291.759,738.164l13.788-3.348a3.762,3.762,0,0,0,2.863-3.608,3.719,3.719,0,0,1,.328.864,3.759,3.759,0,0,1-2.758,4.526l-13.788,3.348a3.745,3.745,0,0,1-4.631-3.676A3.762,3.762,0,0,0,1291.759,738.164Z" transform="translate(-1285.538 -727.187)" fill="#ad0000" opacity="0.15"/>
              <path id="Trazado_207194" data-name="Trazado 207194" d="M1305.131,731.4l11.386-2.765a.593.593,0,1,1,.28,1.153l-11.386,2.765a.593.593,0,0,1-.28-1.153Z" transform="translate(-1298.522 -725.287)" fill="#fff" opacity="0.31"/>
            </g>
            <g id="Grupo_170746" data-name="Grupo 170746" transform="translate(19.07 78.529)">
              <path id="Trazado_207195" data-name="Trazado 207195" d="M1266.571,793.124l13.788-3.348a5.768,5.768,0,0,1,2.722,11.21l-13.788,3.348a5.768,5.768,0,1,1-2.722-11.21Z" transform="translate(-1262.163 -789.612)" fill="#dfecf4"/>
              <path id="Trazado_207196" data-name="Trazado 207196" d="M1263.31,815.737a5.775,5.775,0,0,0,6.967,4.244l13.788-3.348a5.754,5.754,0,0,0,3.691-2.829,5.775,5.775,0,0,1-4.31,4.562l-13.788,3.348a5.765,5.765,0,0,1-6.414-8.382A5.729,5.729,0,0,0,1263.31,815.737Z" transform="translate(-1262.528 -806.992)" fill="#cbe8f7"/>
              <path id="Trazado_207197" data-name="Trazado 207197" d="M1272.587,800.627l13.788-3.348a3.748,3.748,0,0,1,1.769,7.284l-13.788,3.348a3.748,3.748,0,0,1-1.769-7.284Z" transform="translate(-1267.702 -795.152)" fill="#f4d41e"/>
              <path id="Trazado_207198" data-name="Trazado 207198" d="M1309.089,805.505l6.894-1.674,1.769,7.284-6.894,1.674a3.748,3.748,0,1,1-1.769-7.284Z" transform="translate(-1304.205 -800.03)" fill="#ff766c"/>
              <path id="Trazado_207199" data-name="Trazado 207199" d="M1273.922,811.609l13.788-3.348a3.763,3.763,0,0,0,2.863-3.608,3.716,3.716,0,0,1,.328.864,3.759,3.759,0,0,1-2.758,4.526l-13.788,3.348a3.759,3.759,0,0,1-4.526-2.758,3.716,3.716,0,0,1-.105-.918A3.762,3.762,0,0,0,1273.922,811.609Z" transform="translate(-1267.702 -800.632)" fill="#ad0000" opacity="0.15"/>
              <path id="Trazado_207200" data-name="Trazado 207200" d="M1287.3,804.84l11.386-2.765a.593.593,0,1,1,.28,1.153l-11.386,2.765a.593.593,0,0,1-.28-1.153Z" transform="translate(-1280.686 -798.731)" fill="#fff" opacity="0.31"/>
            </g>
          </g>
        </g>
        <g id="Grupo_170760" data-name="Grupo 170760" transform="translate(7.37 43.808)">
          <path id="Trazado_207201" data-name="Trazado 207201" d="M1265.26,638.76l30.733-12.848a7.781,7.781,0,0,1,10.18,4.178l36.314,86.868a7.781,7.781,0,0,1-4.178,10.18l-30.733,12.848a7.781,7.781,0,0,1-10.18-4.178l-36.314-86.868A7.781,7.781,0,0,1,1265.26,638.76Z" transform="translate(-1260.478 -625.308)" fill="#92c6ff"/>
          <path id="Trazado_207202" data-name="Trazado 207202" d="M1298.337,771.307a7.781,7.781,0,0,0,10.18,4.178l30.733-12.847a7.742,7.742,0,0,0,3.147-2.412l.089.214a7.781,7.781,0,0,1-4.178,10.18l-30.733,12.848a7.781,7.781,0,0,1-10.18-4.178l-36.314-86.868a7.777,7.777,0,0,1,1.031-7.768Z" transform="translate(-1260.477 -668.79)" fill="#7cbdf7"/>
          <g id="Grupo_170759" data-name="Grupo 170759" transform="translate(6.297 7.484)">
            <g id="Grupo_170749" data-name="Grupo 170749" transform="translate(20.161 0)">
              <ellipse id="Elipse_5480" data-name="Elipse 5480" cx="7.002" cy="7.002" rx="7.002" ry="7.002" transform="translate(10.568 19.756) rotate(-138.999)" fill="#71b7ea"/>
              <path id="Trazado_207203" data-name="Trazado 207203" d="M1409.917,681.162a7,7,0,0,0,12.39,1.014,7,7,0,1,1-12.606-5.81A6.968,6.968,0,0,0,1409.917,681.162Z" transform="translate(-1405.753 -670.201)" fill="#5499dd"/>
              <ellipse id="Elipse_5481" data-name="Elipse 5481" cx="5.373" cy="5.373" rx="5.373" ry="5.373" transform="translate(5.564 16.134) rotate(-100.412)" fill="#fff16c"/>
              <path id="Trazado_207204" data-name="Trazado 207204" d="M1415.823,680.056a5.373,5.373,0,0,0,8.907,1.572,5.373,5.373,0,1,1-9.147-5A5.349,5.349,0,0,0,1415.823,680.056Z" transform="translate(-1409.653 -670.393)" fill="#ffde1a"/>
              <path id="Trazado_207205" data-name="Trazado 207205" d="M1425.049,676.277a1.5,1.5,0,1,1-2.418-.051A1.753,1.753,0,0,1,1425.049,676.277Z" transform="translate(-1413.092 -669.766)" fill="#fffdd7"/>
            </g>
            <g id="Grupo_170750" data-name="Grupo 170750" transform="translate(28.921 19.252)">
              <ellipse id="Elipse_5482" data-name="Elipse 5482" cx="7.002" cy="7.002" rx="7.002" ry="7.002" transform="translate(13.466 17.308) rotate(-164.077)" fill="#71b7ea"/>
              <path id="Trazado_207206" data-name="Trazado 207206" d="M1381.723,748.607a7,7,0,0,0,12.39,1.014,7,7,0,1,1-12.606-5.81A6.969,6.969,0,0,0,1381.723,748.607Z" transform="translate(-1378.783 -738.87)" fill="#5499dd"/>
              <ellipse id="Elipse_5483" data-name="Elipse 5483" cx="5.373" cy="5.373" rx="5.373" ry="5.373" transform="translate(5.842 15.714) rotate(-113.283)" fill="#fff16c"/>
              <path id="Trazado_207207" data-name="Trazado 207207" d="M1387.63,747.5a5.373,5.373,0,0,0,8.906,1.572,5.373,5.373,0,1,1-9.147-5A5.347,5.347,0,0,0,1387.63,747.5Z" transform="translate(-1382.683 -739.062)" fill="#ffde1a"/>
              <path id="Trazado_207208" data-name="Trazado 207208" d="M1396.855,743.721a1.5,1.5,0,1,1-2.417-.051A1.753,1.753,0,0,1,1396.855,743.721Z" transform="translate(-1386.122 -738.434)" fill="#fffdd7"/>
            </g>
            <g id="Grupo_170751" data-name="Grupo 170751" transform="translate(35.234 36.057)">
              <circle id="Elipse_5484" data-name="Elipse 5484" cx="7.002" cy="7.002" r="7.002" transform="translate(9.175 19.754) rotate(-130.935)" fill="#71b7ea"/>
              <path id="Trazado_207209" data-name="Trazado 207209" d="M1353.529,816.051a7,7,0,0,0,12.39,1.014,7,7,0,1,1-12.606-5.81A6.97,6.97,0,0,0,1353.529,816.051Z" transform="translate(-1349.366 -805.091)" fill="#5499dd"/>
              <path id="Trazado_207210" data-name="Trazado 207210" d="M1360.412,805.458a5.374,5.374,0,1,1-2.885,7.03A5.374,5.374,0,0,1,1360.412,805.458Z" transform="translate(-1352.607 -800.538)" fill="#fff16c"/>
              <path id="Trazado_207211" data-name="Trazado 207211" d="M1359.436,814.945a5.373,5.373,0,0,0,8.906,1.572,5.373,5.373,0,1,1-9.147-5A5.348,5.348,0,0,0,1359.436,814.945Z" transform="translate(-1353.266 -805.283)" fill="#ffde1a"/>
              <path id="Trazado_207212" data-name="Trazado 207212" d="M1368.661,811.165a1.5,1.5,0,1,1-2.418-.051A1.754,1.754,0,0,1,1368.661,811.165Z" transform="translate(-1356.705 -804.655)" fill="#fffdd7"/>
            </g>
            <g id="Grupo_170752" data-name="Grupo 170752" transform="translate(45.011 56.325)">
              <ellipse id="Elipse_5485" data-name="Elipse 5485" cx="7.002" cy="7.002" rx="7.002" ry="7.002" transform="translate(1.335 15.275) rotate(-95.469)" fill="#71b7ea"/>
              <path id="Trazado_207213" data-name="Trazado 207213" d="M1325.335,883.495a7,7,0,0,0,12.39,1.014,7,7,0,1,1-12.606-5.81A6.969,6.969,0,0,0,1325.335,883.495Z" transform="translate(-1323.412 -874.775)" fill="#5499dd"/>
              <path id="Trazado_207214" data-name="Trazado 207214" d="M1332.218,872.9a5.373,5.373,0,1,1-2.885,7.03A5.374,5.374,0,0,1,1332.218,872.9Z" transform="translate(-1326.653 -870.223)" fill="#fff16c"/>
              <path id="Trazado_207215" data-name="Trazado 207215" d="M1331.242,882.389a5.373,5.373,0,0,0,8.906,1.571,5.373,5.373,0,1,1-9.147-5A5.348,5.348,0,0,0,1331.242,882.389Z" transform="translate(-1327.312 -874.967)" fill="#ffde1a"/>
              <path id="Trazado_207216" data-name="Trazado 207216" d="M1340.467,878.609a1.5,1.5,0,1,1-2.418-.051A1.754,1.754,0,0,1,1340.467,878.609Z" transform="translate(-1330.751 -874.339)" fill="#fffdd7"/>
            </g>
            <g id="Grupo_170753" data-name="Grupo 170753" transform="translate(50.349 72.155)">
              <ellipse id="Elipse_5486" data-name="Elipse 5486" cx="7.002" cy="7.002" rx="7.002" ry="7.002" transform="translate(10.983 19.671) rotate(-141.653)" fill="#71b7ea"/>
              <path id="Trazado_207217" data-name="Trazado 207217" d="M1297.141,950.939a7,7,0,0,0,12.39,1.014,7,7,0,1,1-12.606-5.81A6.97,6.97,0,0,0,1297.141,950.939Z" transform="translate(-1293.02 -940.021)" fill="#5499dd"/>
              <ellipse id="Elipse_5487" data-name="Elipse 5487" cx="5.373" cy="5.373" rx="5.373" ry="5.373" transform="translate(7.139 16.94) rotate(-114.219)" fill="#fff16c"/>
              <path id="Trazado_207218" data-name="Trazado 207218" d="M1303.048,949.833a5.373,5.373,0,0,0,8.906,1.572,5.373,5.373,0,1,1-9.147-5A5.346,5.346,0,0,0,1303.048,949.833Z" transform="translate(-1296.92 -940.213)" fill="#ffde1a"/>
              <path id="Trazado_207219" data-name="Trazado 207219" d="M1312.272,946.053a1.5,1.5,0,1,1-2.418-.051A1.753,1.753,0,0,1,1312.272,946.053Z" transform="translate(-1300.358 -939.585)" fill="#fffdd7"/>
            </g>
            <g id="Grupo_170754" data-name="Grupo 170754" transform="translate(0 8.488)">
              <ellipse id="Elipse_5488" data-name="Elipse 5488" cx="7.002" cy="7.002" rx="7.002" ry="7.002" transform="translate(10.983 19.671) rotate(-141.653)" fill="#71b7ea"/>
              <path id="Trazado_207220" data-name="Trazado 207220" d="M1485.5,712.758a7,7,0,0,0,12.39,1.014,7,7,0,1,1-12.606-5.81A6.968,6.968,0,0,0,1485.5,712.758Z" transform="translate(-1481.378 -701.84)" fill="#5499dd"/>
              <path id="Trazado_207221" data-name="Trazado 207221" d="M1492.382,702.166a5.373,5.373,0,1,1-2.885,7.03A5.374,5.374,0,0,1,1492.382,702.166Z" transform="translate(-1484.619 -697.288)" fill="#fff16c"/>
              <path id="Trazado_207222" data-name="Trazado 207222" d="M1491.406,711.652a5.373,5.373,0,0,0,8.907,1.572,5.373,5.373,0,1,1-9.147-5A5.35,5.35,0,0,0,1491.406,711.652Z" transform="translate(-1485.278 -702.032)" fill="#ffde1a"/>
              <path id="Trazado_207223" data-name="Trazado 207223" d="M1500.631,707.873a1.5,1.5,0,1,1-2.418-.051A1.753,1.753,0,0,1,1500.631,707.873Z" transform="translate(-1488.717 -701.405)" fill="#fffdd7"/>
            </g>
            <g id="Grupo_170755" data-name="Grupo 170755" transform="translate(7.536 26.516)">
              <ellipse id="Elipse_5489" data-name="Elipse 5489" cx="7.002" cy="7.002" rx="7.002" ry="7.002" transform="translate(10.983 19.671) rotate(-141.653)" fill="#71b7ea"/>
              <path id="Trazado_207224" data-name="Trazado 207224" d="M1457.3,780.2a7,7,0,0,0,12.39,1.013,7,7,0,1,1-12.606-5.81A6.969,6.969,0,0,0,1457.3,780.2Z" transform="translate(-1453.184 -769.284)" fill="#5499dd"/>
              <path id="Trazado_207225" data-name="Trazado 207225" d="M1464.188,769.61a5.373,5.373,0,1,1-2.885,7.03A5.374,5.374,0,0,1,1464.188,769.61Z" transform="translate(-1456.425 -764.732)" fill="#fff16c"/>
              <path id="Trazado_207226" data-name="Trazado 207226" d="M1463.212,779.1a5.373,5.373,0,0,0,8.906,1.572,5.373,5.373,0,1,1-9.147-5A5.349,5.349,0,0,0,1463.212,779.1Z" transform="translate(-1457.084 -769.476)" fill="#ffde1a"/>
              <path id="Trazado_207227" data-name="Trazado 207227" d="M1472.437,775.317a1.5,1.5,0,1,1-2.418-.051A1.753,1.753,0,0,1,1472.437,775.317Z" transform="translate(-1460.523 -768.849)" fill="#fffdd7"/>
            </g>
            <g id="Grupo_170756" data-name="Grupo 170756" transform="translate(15.772 45.244)">
              <ellipse id="Elipse_5490" data-name="Elipse 5490" cx="7.002" cy="7.002" rx="7.002" ry="7.002" transform="matrix(-0.38, -0.925, 0.925, -0.38, 5.317, 18.272)" fill="#71b7ea"/>
              <path id="Trazado_207228" data-name="Trazado 207228" d="M1429.111,847.647a7,7,0,0,0,12.39,1.014,7,7,0,1,1-12.606-5.81A6.967,6.967,0,0,0,1429.111,847.647Z" transform="translate(-1425.689 -837.428)" fill="#5499dd"/>
              <circle id="Elipse_5491" data-name="Elipse 5491" cx="5.373" cy="5.373" r="5.373" transform="matrix(-0.303, -0.953, 0.953, -0.303, 5.645, 15.886)" fill="#fff16c"/>
              <path id="Trazado_207229" data-name="Trazado 207229" d="M1435.017,846.541a5.373,5.373,0,0,0,8.907,1.571,5.373,5.373,0,1,1-9.147-5A5.35,5.35,0,0,0,1435.017,846.541Z" transform="translate(-1429.589 -837.62)" fill="#ffde1a"/>
              <path id="Trazado_207230" data-name="Trazado 207230" d="M1444.243,842.761a1.5,1.5,0,1,1-2.418-.051A1.753,1.753,0,0,1,1444.243,842.761Z" transform="translate(-1433.028 -836.992)" fill="#fffdd7"/>
            </g>
            <g id="Grupo_170757" data-name="Grupo 170757" transform="translate(24.044 64.008)">
              <ellipse id="Elipse_5492" data-name="Elipse 5492" cx="7.002" cy="7.002" rx="7.002" ry="7.002" transform="translate(3.157 16.8) rotate(-103.029)" fill="#71b7ea"/>
              <path id="Trazado_207231" data-name="Trazado 207231" d="M1400.917,915.091a7,7,0,0,0,12.39,1.014,7,7,0,1,1-12.606-5.81A6.967,6.967,0,0,0,1400.917,915.091Z" transform="translate(-1398.231 -905.608)" fill="#5499dd"/>
              <ellipse id="Elipse_5493" data-name="Elipse 5493" cx="5.373" cy="5.373" rx="5.373" ry="5.373" transform="translate(9.319 15.944) rotate(-141.947)" fill="#fff16c"/>
              <path id="Trazado_207232" data-name="Trazado 207232" d="M1406.823,913.985a5.373,5.373,0,0,0,8.907,1.571,5.373,5.373,0,1,1-9.147-5A5.349,5.349,0,0,0,1406.823,913.985Z" transform="translate(-1402.132 -905.8)" fill="#ffde1a"/>
              <path id="Trazado_207233" data-name="Trazado 207233" d="M1416.049,910.205a1.5,1.5,0,1,1-2.418-.051A1.754,1.754,0,0,1,1416.049,910.205Z" transform="translate(-1405.57 -905.172)" fill="#fffdd7"/>
            </g>
            <g id="Grupo_170758" data-name="Grupo 170758" transform="translate(30.085 80.54)">
              <ellipse id="Elipse_5494" data-name="Elipse 5494" cx="7.002" cy="7.002" rx="7.002" ry="7.002" transform="matrix(-0.682, -0.731, 0.731, -0.682, 9.552, 19.792)" fill="#71b7ea"/>
              <path id="Trazado_207234" data-name="Trazado 207234" d="M1372.723,982.535a7,7,0,0,0,12.39,1.014,7,7,0,1,1-12.606-5.81A6.97,6.97,0,0,0,1372.723,982.535Z" transform="translate(-1368.541 -971.556)" fill="#5499dd"/>
              <path id="Trazado_207235" data-name="Trazado 207235" d="M1379.606,971.943a5.373,5.373,0,1,1-2.885,7.03A5.374,5.374,0,0,1,1379.606,971.943Z" transform="translate(-1371.782 -967.004)" fill="#fff16c"/>
              <path id="Trazado_207236" data-name="Trazado 207236" d="M1378.63,981.429a5.373,5.373,0,0,0,8.906,1.571,5.373,5.373,0,1,1-9.147-5A5.347,5.347,0,0,0,1378.63,981.429Z" transform="translate(-1372.442 -971.748)" fill="#ffde1a"/>
              <path id="Trazado_207237" data-name="Trazado 207237" d="M1387.855,977.649a1.5,1.5,0,1,1-2.418-.051A1.754,1.754,0,0,1,1387.855,977.649Z" transform="translate(-1375.88 -971.12)" fill="#fffdd7"/>
            </g>
          </g>
          <path id="Trazado_207238" data-name="Trazado 207238" d="M1299.969,651.217l1.052-.44,9.577,22.908,22.02-9.2.44,1.052-22.02,9.2,7.222,17.276,22.02-9.205.44,1.052-22.019,9.2,6.939,16.6,22.02-9.2.44,1.052-22.02,9.2,7.193,17.206,22.02-9.205.44,1.052-22.019,9.2L1343.337,752l-1.052.44-9.627-23.029-22.02,9.2-.44-1.052,22.02-9.205-7.193-17.206-22.02,9.2-.44-1.052,22.02-9.2-6.939-16.6-22.02,9.2-.44-1.052,22.02-9.205-7.222-17.276-22.02,9.2-.44-1.052,22.02-9.2Z" transform="translate(-1280.347 -643.97)" fill="#bbdfff"/>
        </g>
        <path id="Trazado_207239" data-name="Trazado 207239" d="M1531.337,1062.749l-24,10.7V871l24-8.155Z" transform="translate(-1507.342 -774.347)" fill="#92d8ea"/>
        <path id="Trazado_207240" data-name="Trazado 207240" d="M894.242,1591.459l-24,11.992,11.162-19.008Z" transform="translate(-699.948 -1303.057)" fill="#f4c587"/>
        <g id="Grupo_170761" data-name="Grupo 170761" transform="translate(70.201 60.937)">
          <path id="Trazado_207241" data-name="Trazado 207241" d="M1054.437,690.89h43.032l16.479,16.479H1033.78l16.479-16.479Z" transform="translate(-1033.57 -690.89)" fill="#e2eef2"/>
          <path id="Trazado_207242" data-name="Trazado 207242" d="M1050.259,750.383H1033.78V690.89l16.479,16.479Z" transform="translate(-969.88 -690.89)" fill="#f2f7f9"/>
          <path id="Trazado_207243" data-name="Trazado 207243" d="M1289.313,750.383h-16.479V707.37l16.479-16.479Z" transform="translate(-1272.834 -690.89)" fill="#f2f7f9"/>
        </g>
        <g id="Grupo_170773" data-name="Grupo 170773" transform="translate(101.89 30.541)">
          <path id="Trazado_207244" data-name="Trazado 207244" d="M1007.652,560.86a7.781,7.781,0,0,1,8.528-6.953l33.139,3.372a7.781,7.781,0,0,1,6.953,8.529l-9.53,93.67a7.781,7.781,0,0,1-8.529,6.953l-33.139-3.371a7.781,7.781,0,0,1-6.953-8.529Z" transform="translate(-998.081 -553.866)" fill="#92c6ff"/>
          <path id="Trazado_207245" data-name="Trazado 207245" d="M1043.367,562.665a7.776,7.776,0,0,1,4.612-6.336l-9.506,93.439a7.781,7.781,0,0,0,6.953,8.529l33.14,3.371a7.744,7.744,0,0,0,3.917-.618l-.024.231a7.781,7.781,0,0,1-8.528,6.953l-33.139-3.371a7.781,7.781,0,0,1-6.953-8.529Z" transform="translate(-1033.797 -555.671)" fill="#7cbdf7"/>
          <g id="Grupo_170772" data-name="Grupo 170772" transform="translate(4.411 8.711)">
            <g id="Grupo_170762" data-name="Grupo 170762" transform="translate(29.733 0)">
              <ellipse id="Elipse_5495" data-name="Elipse 5495" cx="7.002" cy="7.002" rx="7.002" ry="7.002" transform="translate(8.552 19.641) rotate(-127.64)" fill="#71b7ea"/>
              <path id="Trazado_207246" data-name="Trazado 207246" d="M1036.813,600.4a7,7,0,0,0,8.307,11.121,7,7,0,1,1-8.307-11.121Z" transform="translate(-1030.433 -596.669)" fill="#5499dd"/>
              <ellipse id="Elipse_5496" data-name="Elipse 5496" cx="5.373" cy="5.373" rx="5.373" ry="5.373" transform="matrix(-0.626, -0.78, 0.78, -0.626, 8.994, 17.375)" fill="#7e5ee3"/>
            </g>
            <g id="Grupo_170763" data-name="Grupo 170763" transform="translate(28.715 20.4)">
              <ellipse id="Elipse_5497" data-name="Elipse 5497" cx="7.002" cy="7.002" rx="7.002" ry="7.002" transform="translate(4.439 17.72) rotate(-108.479)" fill="#71b7ea"/>
              <path id="Trazado_207249" data-name="Trazado 207249" d="M1044.212,673.121a7,7,0,0,0,8.307,11.121,7,7,0,1,1-8.307-11.121Z" transform="translate(-1038.792 -670.354)" fill="#5499dd"/>
              <ellipse id="Elipse_5498" data-name="Elipse 5498" cx="5.373" cy="5.373" rx="5.373" ry="5.373" transform="translate(13.234 15.075) rotate(-170.136)" fill="#7e5ee3"/>
            </g>
            <g id="Grupo_170764" data-name="Grupo 170764" transform="translate(25.705 38.807)">
              <ellipse id="Elipse_5499" data-name="Elipse 5499" cx="7.002" cy="7.002" rx="7.002" ry="7.002" transform="translate(9.466 19.786) rotate(-132.531)" fill="#71b7ea"/>
              <path id="Trazado_207252" data-name="Trazado 207252" d="M1051.611,745.846a7,7,0,0,0,8.307,11.121,7,7,0,1,1-8.307-11.121Z" transform="translate(-1045.158 -742.047)" fill="#5499dd"/>
              <ellipse id="Elipse_5500" data-name="Elipse 5500" cx="5.373" cy="5.373" rx="5.373" ry="5.373" transform="translate(13.282 16.695) rotate(-161.486)" fill="#7e5ee3"/>
            </g>
            <g id="Grupo_170765" data-name="Grupo 170765" transform="translate(23.762 58.281)">
              <ellipse id="Elipse_5501" data-name="Elipse 5501" cx="7.002" cy="7.002" rx="7.002" ry="7.002" transform="translate(8.927 19.716) rotate(-129.605)" fill="#71b7ea"/>
              <path id="Trazado_207255" data-name="Trazado 207255" d="M1059.01,818.57a7,7,0,0,0,8.307,11.121,7,7,0,1,1-8.307-11.121Z" transform="translate(-1052.592 -814.805)" fill="#5499dd"/>
              <ellipse id="Elipse_5502" data-name="Elipse 5502" cx="5.373" cy="5.373" rx="5.373" ry="5.373" transform="matrix(-0.627, -0.779, 0.779, -0.627, 9.042, 17.413)" fill="#ff766c"/>
              <path id="Trazado_207256" data-name="Trazado 207256" d="M1062.627,822.337a5.373,5.373,0,0,0,5.654,8.759,5.373,5.373,0,1,1-5.654-8.759Z" transform="translate(-1054.501 -817.565)" fill="#f75b57"/>
              <path id="Trazado_207257" data-name="Trazado 207257" d="M1060.688,829.266c.718-.323,1.658.214,2.1,1.2a1.754,1.754,0,0,1-.5,2.366c-.718.322-1.658-.214-2.1-1.2A1.754,1.754,0,0,1,1060.688,829.266Z" transform="translate(-1049.497 -822.574)" fill="#ffa69f"/>
            </g>
            <g id="Grupo_170766" data-name="Grupo 170766" transform="translate(22.001 77.937)">
              <ellipse id="Elipse_5503" data-name="Elipse 5503" cx="7.002" cy="7.002" rx="7.002" ry="7.002" transform="translate(7.386 19.283) rotate(-121.832)" fill="#71b7ea"/>
              <path id="Trazado_207258" data-name="Trazado 207258" d="M1066.409,891.295a7,7,0,0,0,8.307,11.121,7,7,0,1,1-8.307-11.121Z" transform="translate(-1060.207 -887.747)" fill="#5499dd"/>
              <ellipse id="Elipse_5504" data-name="Elipse 5504" cx="5.373" cy="5.373" rx="5.373" ry="5.373" transform="translate(8.904 17.205) rotate(-129.431)" fill="#ff766c"/>
              <path id="Trazado_207259" data-name="Trazado 207259" d="M1070.026,895.062a5.373,5.373,0,0,0,5.653,8.759,5.373,5.373,0,1,1-5.653-8.759Z" transform="translate(-1062.116 -890.507)" fill="#f75b57"/>
              <ellipse id="Elipse_5505" data-name="Elipse 5505" cx="1.954" cy="1.425" rx="1.954" ry="1.425" transform="translate(11.276 10.624) rotate(-114.191)" fill="#ffa69f"/>
            </g>
            <g id="Grupo_170767" data-name="Grupo 170767" transform="translate(10.199 0.035)">
              <ellipse id="Elipse_5506" data-name="Elipse 5506" cx="7.002" cy="7.002" rx="7.002" ry="7.002" transform="matrix(-0.996, -0.085, 0.085, -0.996, 13.953, 15.138)" fill="#71b7ea"/>
              <path id="Trazado_207260" data-name="Trazado 207260" d="M1118.313,592.105a7,7,0,0,0,8.307,11.121,7,7,0,1,1-8.307-11.121Z" transform="translate(-1114.184 -590.629)" fill="#5499dd"/>
              <ellipse id="Elipse_5507" data-name="Elipse 5507" cx="5.373" cy="5.373" rx="5.373" ry="5.373" transform="translate(11.446 14.105) rotate(-165.676)" fill="#7e5ee3"/>
            </g>
            <g id="Grupo_170768" data-name="Grupo 170768" transform="translate(6.239 17.492)">
              <ellipse id="Elipse_5508" data-name="Elipse 5508" cx="7.002" cy="7.002" rx="7.002" ry="7.002" transform="translate(6.94 19.103) rotate(-119.71)" fill="#71b7ea"/>
              <path id="Trazado_207263" data-name="Trazado 207263" d="M1125.712,664.829a7,7,0,0,0,8.307,11.121,7,7,0,1,1-8.307-11.121Z" transform="translate(-1119.6 -661.371)" fill="#5499dd"/>
              <ellipse id="Elipse_5509" data-name="Elipse 5509" cx="5.373" cy="5.373" rx="5.373" ry="5.373" transform="translate(6.078 16.311) rotate(-107.804)" fill="#7e5ee3"/>
            </g>
            <g id="Grupo_170769" data-name="Grupo 170769" transform="translate(4.046 36.717)">
              <ellipse id="Elipse_5510" data-name="Elipse 5510" cx="7.002" cy="7.002" rx="7.002" ry="7.002" transform="matrix(-0.581, -0.814, 0.814, -0.581, 8.131, 19.532)" fill="#71b7ea"/>
              <path id="Trazado_207266" data-name="Trazado 207266" d="M1133.111,737.554a7,7,0,0,0,8.307,11.121,7,7,0,1,1-8.307-11.121Z" transform="translate(-1126.785 -733.881)" fill="#5499dd"/>
              <ellipse id="Elipse_5511" data-name="Elipse 5511" cx="5.373" cy="5.373" rx="5.373" ry="5.373" transform="translate(8.218 17.206) rotate(-123.245)" fill="#7e5ee3"/>
            </g>
            <g id="Grupo_170770" data-name="Grupo 170770" transform="translate(1.991 56.079)">
              <ellipse id="Elipse_5512" data-name="Elipse 5512" cx="7.002" cy="7.002" rx="7.002" ry="7.002" transform="matrix(-0.626, -0.78, 0.78, -0.626, 8.771, 19.688)" fill="#71b7ea"/>
              <path id="Trazado_207269" data-name="Trazado 207269" d="M1140.51,810.279a7,7,0,0,0,8.307,11.121,7,7,0,1,1-8.307-11.121Z" transform="translate(-1134.106 -806.529)" fill="#5499dd"/>
              <ellipse id="Elipse_5513" data-name="Elipse 5513" cx="5.373" cy="5.373" rx="5.373" ry="5.373" transform="translate(13.616 16.441) rotate(-164.764)" fill="#ff766c"/>
              <path id="Trazado_207270" data-name="Trazado 207270" d="M1144.127,814.046a5.373,5.373,0,0,0,5.653,8.759,5.373,5.373,0,1,1-5.653-8.759Z" transform="translate(-1136.015 -809.289)" fill="#f75b57"/>
              <path id="Trazado_207271" data-name="Trazado 207271" d="M1142.188,820.974c.718-.322,1.658.214,2.1,1.2a1.754,1.754,0,0,1-.5,2.366c-.718.322-1.658-.214-2.1-1.2A1.754,1.754,0,0,1,1142.188,820.974Z" transform="translate(-1131.011 -814.296)" fill="#ffa69f"/>
            </g>
            <g id="Grupo_170771" data-name="Grupo 170771" transform="translate(0 75.505)">
              <ellipse id="Elipse_5514" data-name="Elipse 5514" cx="7.002" cy="7.002" rx="7.002" ry="7.002" transform="matrix(-0.637, -0.771, 0.771, -0.637, 8.914, 19.714)" fill="#71b7ea"/>
              <path id="Trazado_207272" data-name="Trazado 207272" d="M1147.908,883a7,7,0,0,0,8.307,11.121A7,7,0,1,1,1147.908,883Z" transform="translate(-1141.491 -879.24)" fill="#5499dd"/>
              <ellipse id="Elipse_5515" data-name="Elipse 5515" cx="5.373" cy="5.373" rx="5.373" ry="5.373" transform="translate(9.001 17.408) rotate(-128.534)" fill="#ff766c"/>
              <path id="Trazado_207273" data-name="Trazado 207273" d="M1151.526,886.77a5.373,5.373,0,0,0,5.653,8.759,5.373,5.373,0,1,1-5.653-8.759Z" transform="translate(-1143.401 -882)" fill="#f75b57"/>
              <path id="Trazado_207274" data-name="Trazado 207274" d="M1149.587,893.7c.718-.323,1.658.214,2.1,1.2a1.754,1.754,0,0,1-.5,2.366c-.718.322-1.658-.214-2.1-1.2A1.753,1.753,0,0,1,1149.587,893.7Z" transform="translate(-1138.397 -887.008)" fill="#ffa69f"/>
            </g>
          </g>
          <path id="Trazado_207275" data-name="Trazado 207275" d="M1004.8,640.878l23.744,2.416,1.888-18.553-23.744-2.416.115-1.134,23.744,2.416,1.821-17.9-23.744-2.416.115-1.134,23.743,2.416,1.9-18.629-23.744-2.416.115-1.134,23.744,2.416,2.513-24.7,1.134.115-2.513,24.7,23.744,2.416-.115,1.134-23.744-2.416-1.9,18.629,23.744,2.416-.115,1.134-23.744-2.416-1.821,17.9,23.744,2.416-.115,1.134-23.744-2.416-1.888,18.553,23.743,2.416-.115,1.134-23.744-2.416-2.526,24.832-1.134-.115,2.526-24.832-23.744-2.416Z" transform="translate(-1002.91 -558.44)" fill="#bbdfff"/>
        </g>
        <g id="Grupo_170774" data-name="Grupo 170774" transform="translate(70.132 23.183)">
          <path id="Trazado_207276" data-name="Trazado 207276" d="M1188.633,646.2c1.968-3.937,16.241-4.185,17.606,0,.846,2.593,5.328,7.748,8.658,11.337a13.951,13.951,0,0,1,3.722,9.491v57.483a4.768,4.768,0,0,1-4.768,4.768h-32.828a4.768,4.768,0,0,1-4.768-4.768V666.941a13.934,13.934,0,0,1,3.61-9.369C1182.917,654.21,1187.041,649.381,1188.633,646.2Z" transform="translate(-1176.254 -611.927)" fill="#243b9b"/>
          <path id="Trazado_207277" data-name="Trazado 207277" d="M1188.633,646.2c1.22-2.44,7.166-3.462,11.836-2.891a91.627,91.627,0,0,1-7.243,8.854,13.934,13.934,0,0,0-3.61,9.369s-3.376,48.474.493,55.932c6.236,12.02,28.509,6.4,28.509,6.4v.644a4.768,4.768,0,0,1-4.768,4.768h-32.828a4.768,4.768,0,0,1-4.768-4.768V666.942a13.934,13.934,0,0,1,3.61-9.369C1182.917,654.212,1187.041,649.383,1188.633,646.2Z" transform="translate(-1176.254 -611.928)" fill="#1b2c89"/>
          <path id="Trazado_207278" data-name="Trazado 207278" d="M1236.811,646.2a11.073,11.073,0,0,0,1.29,2.434h-20.363a21.92,21.92,0,0,0,1.467-2.434C1221.174,642.26,1235.447,642.012,1236.811,646.2Z" transform="translate(-1206.826 -611.927)" fill="#0a1a60"/>
          <rect id="Rectángulo_49368" data-name="Rectángulo 49368" width="12.471" height="23.018" rx="6.236" transform="translate(15.222)" fill="#b0e5ff"/>
          <path id="Trazado_207279" data-name="Trazado 207279" d="M1245.4,526.341h1.4a4.807,4.807,0,0,0-2.526,4.233v13.4a4.808,4.808,0,0,0,4.808,4.808h1.456a4.787,4.787,0,0,1-2.282.575H1245.4a4.808,4.808,0,0,1-4.808-4.808v-13.4A4.808,4.808,0,0,1,1245.4,526.341Z" transform="translate(-1225.371 -526.341)" fill="#92d8f4"/>
          <rect id="Rectángulo_49369" data-name="Rectángulo 49369" width="12.471" height="5.061" transform="translate(15.222 15.538)" fill="#92d8f4"/>
          <path id="Trazado_207280" data-name="Trazado 207280" d="M1215.981,589.367h15.646a3.364,3.364,0,0,1,3.364,3.364v12.8h-22.375v-12.8A3.364,3.364,0,0,1,1215.981,589.367Z" transform="translate(-1202.347 -572.52)" fill="#b0e5ff"/>
          <path id="Trazado_207281" data-name="Trazado 207281" d="M1215.981,589.367h5.936a3.065,3.065,0,0,0-3.065,3.065v10.35h16.139v2.749h-22.375v-12.8A3.364,3.364,0,0,1,1215.981,589.367Z" transform="translate(-1202.347 -572.52)" fill="#92d8f4"/>
          <path id="Trazado_207282" data-name="Trazado 207282" d="M1205.68,643.15h23.179a1.982,1.982,0,0,1,0,3.964H1205.68a1.982,1.982,0,1,1,0-3.964Z" transform="translate(-1195.812 -611.927)" fill="#b0e5ff"/>
          <path id="Trazado_207283" data-name="Trazado 207283" d="M1197.456,733.369a2.346,2.346,0,0,1,2.339,2.339v45.517a2.339,2.339,0,1,1-4.678,0V735.708A2.346,2.346,0,0,1,1197.456,733.369Z" transform="translate(-1162.472 -678.03)" fill="#4465cc"/>
          <path id="Trazado_207284" data-name="Trazado 207284" d="M1204.932,688.718c1.28-.521,2.973.667,3.781,2.653s.426,4.018-.854,4.539-2.973-.667-3.781-2.653S1203.652,689.239,1204.932,688.718Z" transform="translate(-1174.096 -645.224)" fill="#4465cc"/>
        </g>
        <g id="Grupo_170821" data-name="Grupo 170821" transform="translate(135.647 50.598)">
          <path id="Trazado_207285" data-name="Trazado 207285" d="M882.208,726.532l39.959,11.123L901.238,812.84a5.743,5.743,0,0,1-7.072,3.992l-28.895-8.043a5.742,5.742,0,0,1-3.992-7.072Z" transform="translate(-861.067 -706.983)" fill="#ff9d00"/>
          <path id="Trazado_207286" data-name="Trazado 207286" d="M966.537,726.532l10.869,3.026-20.192,72.536a5.742,5.742,0,0,0,3.992,7.072l22.748,6.332a5.739,5.739,0,0,1-5.459,1.335L949.6,808.789a5.742,5.742,0,0,1-3.992-7.072Z" transform="translate(-945.396 -706.983)" fill="#f76f00"/>
          <rect id="Rectángulo_49370" data-name="Rectángulo 49370" width="41.478" height="2.848" transform="translate(60.336 33.416) rotate(-164.445)" fill="#ef6c00"/>
          <rect id="Rectángulo_49371" data-name="Rectángulo 49371" width="38.271" height="7.521" transform="translate(63.099 17.509) rotate(-164.445)" fill="#fcfcfc"/>
          <rect id="Rectángulo_49372" data-name="Rectángulo 49372" width="8.849" height="7.521" transform="translate(34.755 9.619) rotate(-164.445)" fill="#f0f4f7"/>
          <path id="Trazado_207287" data-name="Trazado 207287" d="M852.71,677.006l36.41,10.135a1.206,1.206,0,0,1,.838,1.485l-.982,3.527-38.733-10.782.982-3.527A1.206,1.206,0,0,1,852.71,677.006Z" transform="translate(-826.009 -670.662)" fill="#f0f4f7"/>
          <path id="Trazado_207288" data-name="Trazado 207288" d="M960.254,677.005l8.546,2.379a1.062,1.062,0,0,0-1.308.738l-1.02,3.666-8.685-2.417.982-3.527A1.206,1.206,0,0,1,960.254,677.005Z" transform="translate(-933.554 -670.662)" fill="#e1e6ea"/>
          <path id="Trazado_207289" data-name="Trazado 207289" d="M842.86,680.4l43.028,11.978a1.393,1.393,0,0,1,.969,1.716l-2.207,7.928L838.937,689.3l2.207-7.928A1.393,1.393,0,0,1,842.86,680.4Z" transform="translate(-819.893 -673.145)" fill="#fcfcfc"/>
          <path id="Trazado_207290" data-name="Trazado 207290" d="M968.382,680.4l10.5,2.922a1.393,1.393,0,0,0-1.716.969l-2.207,7.928-10.5-2.922,2.207-7.928A1.393,1.393,0,0,1,968.382,680.4Z" transform="translate(-945.415 -673.145)" fill="#eaf0f4"/>
          <g id="Grupo_170805" data-name="Grupo 170805" transform="translate(20.98 8.25)">
            <g id="Grupo_170775" data-name="Grupo 170775" transform="translate(34.524 9.611)">
              <path id="Trazado_207291" data-name="Trazado 207291" d="M874.932,720.458a.332.332,0,0,1,.639.178l-1.676,6.021a.332.332,0,1,1-.639-.178Z" transform="translate(-873.244 -720.215)" fill="#e4e8ed"/>
            </g>
            <g id="Grupo_170776" data-name="Grupo 170776" transform="translate(35.963 10.011)">
              <path id="Trazado_207292" data-name="Trazado 207292" d="M869.551,721.956a.332.332,0,1,1,.639.178l-1.676,6.02a.332.332,0,1,1-.639-.178Z" transform="translate(-867.863 -721.713)" fill="#e4e8ed"/>
            </g>
            <g id="Grupo_170777" data-name="Grupo 170777" transform="translate(37.402 10.411)">
              <path id="Trazado_207293" data-name="Trazado 207293" d="M864.169,723.454a.332.332,0,1,1,.639.178l-1.676,6.02a.332.332,0,1,1-.639-.178Z" transform="translate(-862.481 -723.211)" fill="#e4e8ed"/>
            </g>
            <g id="Grupo_170778" data-name="Grupo 170778" transform="translate(38.84 10.812)">
              <path id="Trazado_207294" data-name="Trazado 207294" d="M858.787,724.952a.332.332,0,1,1,.639.178l-1.676,6.02a.332.332,0,0,1-.639-.178Z" transform="translate(-857.099 -724.709)" fill="#e4e8ed"/>
            </g>
            <g id="Grupo_170779" data-name="Grupo 170779" transform="translate(40.279 11.212)">
              <path id="Trazado_207295" data-name="Trazado 207295" d="M853.406,726.45a.332.332,0,1,1,.639.178l-1.676,6.021a.332.332,0,1,1-.639-.178Z" transform="translate(-851.718 -726.207)" fill="#e4e8ed"/>
            </g>
            <g id="Grupo_170780" data-name="Grupo 170780" transform="translate(41.717 11.613)">
              <path id="Trazado_207296" data-name="Trazado 207296" d="M848.024,727.948a.332.332,0,1,1,.639.178l-1.676,6.02a.332.332,0,1,1-.639-.178Z" transform="translate(-846.336 -727.705)" fill="#e4e8ed"/>
            </g>
            <g id="Grupo_170781" data-name="Grupo 170781" transform="translate(33.086 9.21)">
              <path id="Trazado_207297" data-name="Trazado 207297" d="M880.314,718.96a.331.331,0,0,1,.408-.231h0a.332.332,0,0,1,.231.409l-1.676,6.02a.332.332,0,0,1-.639-.178Z" transform="translate(-878.626 -718.717)" fill="#e4e8ed"/>
            </g>
            <g id="Grupo_170782" data-name="Grupo 170782" transform="translate(31.647 8.81)">
              <path id="Trazado_207298" data-name="Trazado 207298" d="M885.7,717.462a.332.332,0,0,1,.639.178l-1.676,6.021a.332.332,0,1,1-.639-.178Z" transform="translate(-884.007 -717.219)" fill="#e4e8ed"/>
            </g>
            <g id="Grupo_170783" data-name="Grupo 170783" transform="translate(30.209 8.409)">
              <path id="Trazado_207299" data-name="Trazado 207299" d="M891.077,715.964a.332.332,0,1,1,.639.178l-1.676,6.021a.332.332,0,0,1-.639-.178Z" transform="translate(-889.389 -715.721)" fill="#e4e8ed"/>
            </g>
            <g id="Grupo_170784" data-name="Grupo 170784" transform="translate(28.77 8.009)">
              <path id="Trazado_207300" data-name="Trazado 207300" d="M896.459,714.466a.332.332,0,0,1,.639.178l-1.676,6.021a.332.332,0,1,1-.639-.178Z" transform="translate(-894.77 -714.223)" fill="#e4e8ed"/>
            </g>
            <g id="Grupo_170785" data-name="Grupo 170785" transform="translate(27.332 7.608)">
              <path id="Trazado_207301" data-name="Trazado 207301" d="M901.84,712.967a.332.332,0,0,1,.64.178l-1.676,6.02a.332.332,0,0,1-.639-.178Z" transform="translate(-900.152 -712.725)" fill="#e4e8ed"/>
            </g>
            <g id="Grupo_170786" data-name="Grupo 170786" transform="translate(25.893 7.208)">
              <path id="Trazado_207302" data-name="Trazado 207302" d="M907.222,711.469a.332.332,0,1,1,.639.178l-1.676,6.021a.332.332,0,0,1-.639-.178Z" transform="translate(-905.534 -711.226)" fill="#e4e8ed"/>
            </g>
            <g id="Grupo_170787" data-name="Grupo 170787" transform="translate(24.455 6.808)">
              <path id="Trazado_207303" data-name="Trazado 207303" d="M912.6,709.971a.332.332,0,1,1,.639.178l-1.676,6.021a.332.332,0,0,1-.639-.178Z" transform="translate(-910.915 -709.729)" fill="#e4e8ed"/>
            </g>
            <g id="Grupo_170788" data-name="Grupo 170788" transform="translate(23.016 6.407)">
              <path id="Trazado_207304" data-name="Trazado 207304" d="M917.985,708.473a.332.332,0,1,1,.639.178l-1.676,6.02a.332.332,0,1,1-.639-.178Z" transform="translate(-916.297 -708.23)" fill="#e4e8ed"/>
            </g>
            <g id="Grupo_170789" data-name="Grupo 170789" transform="translate(21.578 6.007)">
              <path id="Trazado_207305" data-name="Trazado 207305" d="M923.366,706.975a.332.332,0,0,1,.639.178l-1.676,6.021a.332.332,0,1,1-.639-.178Z" transform="translate(-921.678 -706.732)" fill="#e4e8ed"/>
            </g>
            <g id="Grupo_170790" data-name="Grupo 170790" transform="translate(20.139 5.606)">
              <path id="Trazado_207306" data-name="Trazado 207306" d="M928.748,705.477a.332.332,0,1,1,.639.178l-1.676,6.02a.332.332,0,1,1-.639-.178Z" transform="translate(-927.06 -705.234)" fill="#e4e8ed"/>
            </g>
            <g id="Grupo_170791" data-name="Grupo 170791" transform="translate(18.701 5.206)">
              <path id="Trazado_207307" data-name="Trazado 207307" d="M934.13,703.979a.332.332,0,0,1,.639.178l-1.676,6.02a.332.332,0,1,1-.639-.178Z" transform="translate(-932.441 -703.736)" fill="#e4e8ed"/>
            </g>
            <g id="Grupo_170792" data-name="Grupo 170792" transform="translate(17.262 4.805)">
              <path id="Trazado_207308" data-name="Trazado 207308" d="M939.511,702.481a.332.332,0,0,1,.639.178l-1.676,6.021a.332.332,0,0,1-.409.231h0a.332.332,0,0,1-.231-.409Z" transform="translate(-937.823 -702.238)" fill="#e4e8ed"/>
            </g>
            <g id="Grupo_170793" data-name="Grupo 170793" transform="translate(15.824 4.405)">
              <path id="Trazado_207309" data-name="Trazado 207309" d="M944.893,700.983a.332.332,0,0,1,.639.178l-1.676,6.021a.332.332,0,0,1-.639-.178Z" transform="translate(-943.205 -700.74)" fill="#e4e8ed"/>
            </g>
            <g id="Grupo_170794" data-name="Grupo 170794" transform="translate(14.385 4.004)">
              <path id="Trazado_207310" data-name="Trazado 207310" d="M950.274,699.485a.332.332,0,1,1,.639.178l-1.676,6.02a.332.332,0,1,1-.639-.178Z" transform="translate(-948.586 -699.242)" fill="#e4e8ed"/>
            </g>
            <g id="Grupo_170795" data-name="Grupo 170795" transform="translate(12.947 3.604)">
              <path id="Trazado_207311" data-name="Trazado 207311" d="M955.656,697.987a.332.332,0,0,1,.639.178l-1.676,6.02a.332.332,0,1,1-.639-.178Z" transform="translate(-953.968 -697.744)" fill="#e4e8ed"/>
            </g>
            <g id="Grupo_170796" data-name="Grupo 170796" transform="translate(11.508 3.204)">
              <path id="Trazado_207312" data-name="Trazado 207312" d="M961.038,696.489a.332.332,0,1,1,.639.178L960,702.688a.332.332,0,0,1-.639-.178Z" transform="translate(-959.35 -696.246)" fill="#e4e8ed"/>
            </g>
            <g id="Grupo_170797" data-name="Grupo 170797" transform="translate(10.07 2.803)">
              <path id="Trazado_207313" data-name="Trazado 207313" d="M966.419,694.991a.332.332,0,1,1,.639.178l-1.676,6.02a.332.332,0,0,1-.639-.178Z" transform="translate(-964.731 -694.748)" fill="#e4e8ed"/>
            </g>
            <g id="Grupo_170798" data-name="Grupo 170798" transform="translate(8.631 2.403)">
              <path id="Trazado_207314" data-name="Trazado 207314" d="M971.8,693.493a.332.332,0,1,1,.639.178l-1.676,6.021a.332.332,0,1,1-.639-.178Z" transform="translate(-970.113 -693.25)" fill="#e4e8ed"/>
            </g>
            <g id="Grupo_170799" data-name="Grupo 170799" transform="translate(7.193 2.002)">
              <path id="Trazado_207315" data-name="Trazado 207315" d="M977.182,691.995a.332.332,0,1,1,.639.178l-1.676,6.021a.332.332,0,0,1-.639-.178Z" transform="translate(-975.494 -691.752)" fill="#e4e8ed"/>
            </g>
            <g id="Grupo_170800" data-name="Grupo 170800" transform="translate(5.754 1.602)">
              <path id="Trazado_207316" data-name="Trazado 207316" d="M982.564,690.5a.332.332,0,0,1,.639.178l-1.676,6.02a.332.332,0,1,1-.639-.178Z" transform="translate(-980.876 -690.254)" fill="#e4e8ed"/>
            </g>
            <g id="Grupo_170801" data-name="Grupo 170801" transform="translate(4.316 1.201)">
              <path id="Trazado_207317" data-name="Trazado 207317" d="M987.946,689a.332.332,0,1,1,.639.178l-1.676,6.02a.332.332,0,0,1-.639-.178Z" transform="translate(-986.257 -688.756)" fill="#e4e8ed"/>
            </g>
            <g id="Grupo_170802" data-name="Grupo 170802" transform="translate(2.877 0.801)">
              <path id="Trazado_207318" data-name="Trazado 207318" d="M993.327,687.5a.332.332,0,0,1,.639.178l-1.676,6.021a.332.332,0,0,1-.639-.178Z" transform="translate(-991.639 -687.257)" fill="#e4e8ed"/>
            </g>
            <g id="Grupo_170803" data-name="Grupo 170803" transform="translate(1.439 0.401)">
              <path id="Trazado_207319" data-name="Trazado 207319" d="M998.709,686a.332.332,0,1,1,.639.178l-1.676,6.021a.332.332,0,0,1-.639-.178Z" transform="translate(-997.021 -685.76)" fill="#e4e8ed"/>
            </g>
            <g id="Grupo_170804" data-name="Grupo 170804" transform="translate(0)">
              <path id="Trazado_207320" data-name="Trazado 207320" d="M1004.09,684.5a.332.332,0,0,1,.639.178l-1.676,6.02a.332.332,0,1,1-.639-.178Z" transform="translate(-1002.402 -684.261)" fill="#e4e8ed"/>
            </g>
          </g>
          <path id="Trazado_207321" data-name="Trazado 207321" d="M841.1,709.272a.9.9,0,0,1,1.1-.623l47.717,13.283a.9.9,0,0,1,.623,1.1l-.8,2.856a.9.9,0,0,1-1.1.623l-47.717-13.283a.9.9,0,0,1-.623-1.1Z" transform="translate(-823.919 -693.856)" fill="#fff"/>
          <path id="Trazado_207322" data-name="Trazado 207322" d="M979.412,709.272a.9.9,0,0,1,1.1-.623l11.4,3.174a.9.9,0,0,0-1.1.623l-.795,2.856a.9.9,0,0,0,.623,1.1l-11.4-3.174a.9.9,0,0,1-.622-1.1Z" transform="translate(-962.23 -693.856)" fill="#eff5f9"/>
          <path id="Trazado_207323" data-name="Trazado 207323" d="M842.869,719l49.442,13.763-.234.842a.785.785,0,0,1-.967.546l-47.93-13.342a.785.785,0,0,1-.546-.967Z" transform="translate(-826.278 -701.466)" fill="#ffb206"/>
          <path id="Trazado_207324" data-name="Trazado 207324" d="M842.869,719l49.442,13.763-.234.842a.785.785,0,0,1-.967.546l-47.93-13.342a.785.785,0,0,1-.546-.967Z" transform="translate(-826.278 -701.466)" fill="#ffb206"/>
          <path id="Trazado_207325" data-name="Trazado 207325" d="M985.014,719l11.135,3.1-.234.842a.785.785,0,0,0,.546.967l-11.135-3.1a.785.785,0,0,1-.546-.967Z" transform="translate(-968.423 -701.466)" fill="#ff9a08"/>
          <rect id="Rectángulo_49373" data-name="Rectángulo 49373" width="6.498" height="6.498" transform="matrix(-0.963, -0.268, 0.268, -0.963, 60.63, 15.759)" fill="#fff"/>
          <g id="Grupo_170809" data-name="Grupo 170809" transform="translate(26.48 2.037)">
            <g id="Grupo_170806" data-name="Grupo 170806" transform="translate(31.696 7.844)">
              <path id="Trazado_207326" data-name="Trazado 207326" d="M845.162,690.375l6.34,1.765a.62.62,0,0,1-.326,1.172l-6.34-1.765a.621.621,0,0,1,.326-1.172Z" transform="translate(-844.492 -690.36)" fill="#ededed"/>
            </g>
            <g id="Grupo_170807" data-name="Grupo 170807" transform="translate(16.452 5.897)">
              <path id="Trazado_207327" data-name="Trazado 207327" d="M847.381,683.09l20.992,5.843a.621.621,0,0,1-.326,1.172l-20.992-5.844a.621.621,0,0,1,.326-1.172Z" transform="translate(-846.712 -683.075)" fill="#ededed"/>
            </g>
            <g id="Grupo_170808" data-name="Grupo 170808">
              <path id="Trazado_207328" data-name="Trazado 207328" d="M963.134,661.03l6.5,1.809a.58.58,0,0,1,.309.746h0a.579.579,0,0,1-.65.479l-6.5-1.809a.655.655,0,0,1,.341-1.225Z" transform="translate(-962.454 -661.016)" fill="#e1e6ea"/>
            </g>
          </g>
          <path id="Trazado_207329" data-name="Trazado 207329" d="M862.129,707.829l5.807,1.616a.553.553,0,0,1-.3,1.066l-5.807-1.617a.553.553,0,1,1,.3-1.065Z" transform="translate(-807.338 -693.265)" fill="#fff"/>
          <g id="Grupo_170813" data-name="Grupo 170813" transform="translate(26.588 1.82)">
            <g id="Grupo_170810" data-name="Grupo 170810" transform="translate(31.701 7.791)">
              <path id="Trazado_207330" data-name="Trazado 207330" d="M844.768,689.37l6.34,1.765a.5.5,0,0,1-.267.959l-6.34-1.765a.5.5,0,0,1,.267-.959Z" transform="translate(-844.137 -689.351)" fill="#fff"/>
            </g>
            <g id="Grupo_170811" data-name="Grupo 170811" transform="translate(16.456 5.844)">
              <path id="Trazado_207331" data-name="Trazado 207331" d="M846.988,682.085l20.992,5.843a.5.5,0,0,1-.267.959l-20.991-5.844a.5.5,0,1,1,.267-.959Z" transform="translate(-846.356 -682.066)" fill="#fff"/>
            </g>
            <g id="Grupo_170812" data-name="Grupo 170812" transform="translate(0)">
              <path id="Trazado_207332" data-name="Trazado 207332" d="M962.767,660.223l6.5,1.809a.5.5,0,0,1,.346.613h0a.5.5,0,0,1-.613.346l-6.5-1.809a.5.5,0,1,1,.267-.959Z" transform="translate(-962.136 -660.204)" fill="#fff"/>
            </g>
          </g>
          <path id="Trazado_207333" data-name="Trazado 207333" d="M909.839,823.018a2,2,0,0,1,2.452-1.384l1.625.452a2,2,0,0,1,1.384,2.452L901.587,873.8a2,2,0,0,1-2.452,1.384l-1.625-.452a2,2,0,0,1-1.384-2.452Z" transform="translate(-863.625 -776.61)" fill="#ff9e03"/>
          <rect id="Rectángulo_49374" data-name="Rectángulo 49374" width="5.005" height="6.595" rx="2.502" transform="translate(53.092 42.839) rotate(-164.444)" fill="#ff9e03"/>
          <rect id="Rectángulo_49375" data-name="Rectángulo 49375" width="25.385" height="27.963" transform="translate(32.485 73.454) rotate(-164.445)" fill="#f4f4f4"/>
          <path id="Trazado_207334" data-name="Trazado 207334" d="M978.519,803.522c-3.407,6.814-3.894,14.218-.928,19.871a20.29,20.29,0,0,0,7.574,7.849,17.361,17.361,0,0,0,5.379,1.793l-.739,2.655-24.455-6.807,7.5-26.939Z" transform="translate(-957.32 -762.237)" fill="#dfe7ed"/>
          <g id="Grupo_170820" data-name="Grupo 170820" transform="translate(14.446 51.973)">
            <g id="Grupo_170814" data-name="Grupo 170814" transform="translate(11.212 3.069)">
              <path id="Trazado_207335" data-name="Trazado 207335" d="M968.961,859.35l5.338,1.486c.407.113.668.453.583.759a.691.691,0,0,1-.891.349l-5.337-1.486c-.407-.113-.668-.453-.583-.759A.691.691,0,0,1,968.961,859.35Z" transform="translate(-968.054 -859.313)" fill="#90afbf"/>
            </g>
            <g id="Grupo_170815" data-name="Grupo 170815" transform="translate(6.41 4.808)">
              <path id="Trazado_207336" data-name="Trazado 207336" d="M971.933,865.853l9.345,2.6c.407.113.668.453.583.759h0a.691.691,0,0,1-.891.349l-9.345-2.6c-.407-.113-.668-.453-.583-.759A.691.691,0,0,1,971.933,865.853Z" transform="translate(-971.026 -865.816)" fill="#90afbf"/>
            </g>
            <g id="Grupo_170816" data-name="Grupo 170816" transform="translate(4.698 10.96)">
              <path id="Trazado_207337" data-name="Trazado 207337" d="M978.34,888.87l9.345,2.6c.407.113.668.453.583.759a.691.691,0,0,1-.891.349l-9.345-2.6c-.407-.113-.668-.453-.583-.759A.69.69,0,0,1,978.34,888.87Z" transform="translate(-977.433 -888.833)" fill="#90afbf"/>
            </g>
            <g id="Grupo_170817" data-name="Grupo 170817" transform="translate(9.607 8.835)">
              <path id="Trazado_207338" data-name="Trazado 207338" d="M974.966,880.921l5.338,1.486c.407.113.668.453.583.759a.691.691,0,0,1-.891.349l-5.338-1.486c-.407-.113-.668-.453-.583-.759A.691.691,0,0,1,974.966,880.921Z" transform="translate(-974.059 -880.884)" fill="#90afbf"/>
            </g>
            <g id="Grupo_170818" data-name="Grupo 170818" transform="translate(0 6.161)">
              <path id="Trazado_207339" data-name="Trazado 207339" d="M1010.906,870.916l5.338,1.486c.407.113.668.453.583.759a.69.69,0,0,1-.891.349l-5.338-1.486c-.407-.113-.668-.453-.583-.759A.691.691,0,0,1,1010.906,870.916Z" transform="translate(-1009.998 -870.879)" fill="#90afbf"/>
            </g>
            <g id="Grupo_170819" data-name="Grupo 170819" transform="translate(0.186)">
              <path id="Trazado_207340" data-name="Trazado 207340" d="M999.592,847.867l8.176,2.276c.407.113.668.453.583.759a.691.691,0,0,1-.891.349l-8.176-2.276c-.407-.113-.668-.453-.583-.759A.691.691,0,0,1,999.592,847.867Z" transform="translate(-998.685 -847.83)" fill="#90afbf"/>
            </g>
          </g>
          <path id="Trazado_207341" data-name="Trazado 207341" d="M964.13,827.572l10.34,2.878a1.347,1.347,0,1,1-.722,2.6l-10.34-2.879a1.347,1.347,0,1,1,.723-2.6Z" transform="translate(-941.45 -780.978)" fill="#f4d41e"/>
        </g>
        <rect id="Rectángulo_49376" data-name="Rectángulo 49376" width="170.298" height="203.737" transform="translate(0 96.657)" fill="#f2f7f9"/>
        <path id="Trazado_207342" data-name="Trazado 207342" d="M1020.645,1057.278c21.87,18.771,51.906,22.025,72.28,25.068a222.191,222.191,0,0,0,37.387,2.384V1097.1h-170.3V893.358h13.508C970.148,948.009,978.405,1021.026,1020.645,1057.278Z" transform="translate(-960.014 -796.701)" fill="#e2eef2"/>
        <path id="Rectángulo_49377" data-name="Rectángulo 49377" d="M7.5,0h0a7.5,7.5,0,0,1,7.5,7.5v0a7.5,7.5,0,0,1-7.5,7.5h0A7.5,7.5,0,0,1,0,7.5v0A7.5,7.5,0,0,1,7.5,0Z" transform="translate(132.159 136.611)" fill="#fff"/>
        <rect id="Rectángulo_49378" data-name="Rectángulo 49378" width="14.691" height="112.946" rx="7.345" transform="translate(132.309 150.471)" fill="#fff"/>
        <path id="Trazado_207343" data-name="Trazado 207343" d="M894.242,1062.176l-24,11.992V870.431l24-8.364Z" transform="translate(-699.948 -773.775)" fill="#f9ce8f"/>
        <path id="Trazado_207344" data-name="Trazado 207344" d="M894.242,1062.176l-24,11.992V870.431l24-8.364Z" transform="translate(-699.948 -773.775)" fill="#fff"/>
        <g id="Grupo_170822" data-name="Grupo 170822" transform="translate(42.766 73.067)">
          <path id="Trazado_207345" data-name="Trazado 207345" d="M1157.073,740.907h43.032l16.479,16.479h-80.169l16.479-16.479Z" transform="translate(-1136.205 -740.907)" fill="#f8fdff"/>
          <path id="Trazado_207346" data-name="Trazado 207346" d="M1152.895,800.4h-16.479V740.907l16.479,16.479Z" transform="translate(-1072.516 -740.907)" fill="#fff"/>
          <path id="Trazado_207347" data-name="Trazado 207347" d="M1391.949,800.4h-16.479V757.387l16.479-16.479Z" transform="translate(-1375.469 -740.907)" fill="#fff"/>
        </g>
        <g id="Grupo_170823" data-name="Grupo 170823" transform="translate(180.833 92.547)">
          <path id="Trazado_207348" data-name="Trazado 207348" d="M917.052,1070.188l-1.141,1.359V878.422l1.253-.437Z" transform="translate(-915.912 -877.985)" fill="#e2eef2"/>
        </g>
        <g id="Grupo_170824" data-name="Grupo 170824" transform="translate(181.273 283.794)">
          <path id="Trazado_207349" data-name="Trazado 207349" d="M883.266,1596.651v1.409l-13.02-3.411.374-1.2Z" transform="translate(-870.246 -1593.452)" fill="#e2eef2"/>
        </g>
        <g id="Grupo_170825" data-name="Grupo 170825" transform="translate(170.298 284.034)">
          <path id="Trazado_207350" data-name="Trazado 207350" d="M928.009,1595.065l-11.676,15.643v-1.964l10.648-14.4Z" transform="translate(-916.333 -1594.348)" fill="#e2eef2"/>
        </g>
        <g id="Grupo_170826" data-name="Grupo 170826" transform="translate(13.699 113.161)">
          <circle id="Elipse_5516" data-name="Elipse 5516" cx="48.997" cy="48.997" r="48.997" transform="translate(69.292 138.584) rotate(-135)" fill="#57d1f7"/>
          <path id="Trazado_207351" data-name="Trazado 207351" d="M1189.235,1061.917h16.285v24.856h24.856v16.285h-24.856v24.856h-16.285v-24.856h-24.856v-16.285h24.856Z" transform="translate(-1128.403 -1025.96)" fill="#fff"/>
        </g>
        <rect id="Rectángulo_49379" data-name="Rectángulo 49379" width="2.368" height="9.624" rx="1.184" transform="translate(98.265 42.07)" fill="#caf0ff"/>
        <path id="Trazado_207352" data-name="Trazado 207352" d="M1239.438,538.336a.8.8,0,0,1,.8.8v9.01a.8.8,0,0,1-1.6,0v-9.01A.8.8,0,0,1,1239.438,538.336Z" transform="translate(-1144.418 -511.946)" fill="#caf0ff"/>
        <path id="Trazado_207353" data-name="Trazado 207353" d="M1212.149,646h8.515a.513.513,0,0,1,0,1.026h-8.515a.513.513,0,0,1,0-1.026Z" transform="translate(-1118.138 -590.831)" fill="#caf0ff"/>
      </g>
    </g>
  </g>
</svg>
