<svg xmlns="http://www.w3.org/2000/svg" width="610" height="416" viewBox="0 0 610 416">
  <g id="Grupo_172432" data-name="Grupo 172432" transform="translate(-495.287 -4297)">
    <path id="Trazado_208961" data-name="Trazado 208961" d="M0,0H610V416H0Z" transform="translate(495.287 4297)" fill="#f1faff"/>
    <path id="Trazado_208962" data-name="Trazado 208962" d="M6.914-2.984A1.2,1.2,0,0,0,6.445-4a6.148,6.148,0,0,0-1.687-.75,11.963,11.963,0,0,1-1.93-.777A3.153,3.153,0,0,1,.891-8.352,2.747,2.747,0,0,1,1.41-10,3.389,3.389,0,0,1,2.9-11.125a5.616,5.616,0,0,1,2.184-.406,5.112,5.112,0,0,1,2.172.441,3.458,3.458,0,0,1,1.48,1.246,3.261,3.261,0,0,1,.527,1.828H6.922A1.534,1.534,0,0,0,6.43-9.23a2.023,2.023,0,0,0-1.383-.434A2.162,2.162,0,0,0,3.711-9.3a1.146,1.146,0,0,0-.477.957,1.1,1.1,0,0,0,.559.93,6.311,6.311,0,0,0,1.645.7A7.106,7.106,0,0,1,8.352-5.219,2.972,2.972,0,0,1,9.266-3,2.737,2.737,0,0,1,8.148-.684a4.891,4.891,0,0,1-3.008.84A5.808,5.808,0,0,1,2.75-.324,3.783,3.783,0,0,1,1.105-1.641,3.371,3.371,0,0,1,.539-3.578H2.891q0,1.883,2.25,1.883a2.189,2.189,0,0,0,1.3-.34A1.106,1.106,0,0,0,6.914-2.984ZM13.086,0H10.82V-8.453h2.266Zm-2.4-10.641a1.112,1.112,0,0,1,.34-.836,1.277,1.277,0,0,1,.926-.328,1.28,1.28,0,0,1,.922.328,1.105,1.105,0,0,1,.344.836,1.108,1.108,0,0,1-.348.844,1.283,1.283,0,0,1-.918.328,1.283,1.283,0,0,1-.918-.328A1.108,1.108,0,0,1,10.688-10.641Zm8.836,8.3a.727.727,0,0,0-.41-.652A4.659,4.659,0,0,0,17.8-3.414q-3.016-.633-3.016-2.562a2.323,2.323,0,0,1,.934-1.879,3.766,3.766,0,0,1,2.441-.754,4.053,4.053,0,0,1,2.574.758A2.388,2.388,0,0,1,21.7-5.883H19.438a1.092,1.092,0,0,0-.312-.8A1.322,1.322,0,0,0,18.148-7a1.351,1.351,0,0,0-.883.258.814.814,0,0,0-.312.656.7.7,0,0,0,.355.605,3.657,3.657,0,0,0,1.2.4A9.8,9.8,0,0,1,19.93-4.7,2.336,2.336,0,0,1,21.719-2.43a2.2,2.2,0,0,1-.992,1.871,4.28,4.28,0,0,1-2.562.715,4.47,4.47,0,0,1-1.887-.379,3.166,3.166,0,0,1-1.293-1.039,2.414,2.414,0,0,1-.469-1.426h2.141a1.179,1.179,0,0,0,.445.922,1.766,1.766,0,0,0,1.109.32,1.635,1.635,0,0,0,.98-.246A.766.766,0,0,0,19.523-2.336Zm6.352-8.2v2.078H27.32V-6.8H25.875v4.219a1.007,1.007,0,0,0,.18.672.9.9,0,0,0,.688.2,3.6,3.6,0,0,0,.664-.055V-.047a4.648,4.648,0,0,1-1.367.2,2.156,2.156,0,0,1-2.422-2.4V-6.8H22.383V-8.453h1.234v-2.078ZM32.469.156A4.15,4.15,0,0,1,29.441-.984a4.054,4.054,0,0,1-1.168-3.039v-.219a5.106,5.106,0,0,1,.492-2.277A3.612,3.612,0,0,1,30.16-8.066a3.914,3.914,0,0,1,2.059-.543,3.508,3.508,0,0,1,2.73,1.094,4.444,4.444,0,0,1,1,3.1v.922H30.563a2.1,2.1,0,0,0,.66,1.328,2,2,0,0,0,1.395.5,2.437,2.437,0,0,0,2.039-.945l1.109,1.242A3.389,3.389,0,0,1,34.391-.246,4.511,4.511,0,0,1,32.469.156Zm-.258-6.945a1.411,1.411,0,0,0-1.09.455,2.357,2.357,0,0,0-.535,1.3h3.141v-.181a1.681,1.681,0,0,0-.406-1.165A1.456,1.456,0,0,0,32.211-6.789Zm7.133-1.664.07.945a2.971,2.971,0,0,1,2.43-1.1A2.255,2.255,0,0,1,44.086-7.32a2.9,2.9,0,0,1,2.539-1.289,2.521,2.521,0,0,1,2.047.8,3.681,3.681,0,0,1,.672,2.41V0H47.078V-5.391A1.61,1.61,0,0,0,46.8-6.441a1.246,1.246,0,0,0-.992-.332A1.409,1.409,0,0,0,44.4-5.8L44.406,0H42.148V-5.383a1.59,1.59,0,0,0-.289-1.062,1.259,1.259,0,0,0-.984-.328,1.463,1.463,0,0,0-1.391.8V0H37.227V-8.453ZM55.977,0a2.507,2.507,0,0,1-.227-.758,2.732,2.732,0,0,1-2.133.914,3,3,0,0,1-2.059-.719,2.312,2.312,0,0,1-.816-1.812,2.389,2.389,0,0,1,1-2.062,4.915,4.915,0,0,1,2.879-.727h1.039v-.484a1.393,1.393,0,0,0-.3-.937,1.183,1.183,0,0,0-.949-.352,1.345,1.345,0,0,0-.895.273.929.929,0,0,0-.324.75H50.93a2.268,2.268,0,0,1,.453-1.359,3,3,0,0,1,1.281-.98,4.669,4.669,0,0,1,1.859-.355A3.689,3.689,0,0,1,57-7.824a2.747,2.747,0,0,1,.918,2.207v3.664a4.041,4.041,0,0,0,.336,1.82V0ZM54.109-1.57a1.945,1.945,0,0,0,.922-.223,1.462,1.462,0,0,0,.625-.6V-3.844h-.844q-1.7,0-1.8,1.172L53-2.539a.9.9,0,0,0,.3.7A1.153,1.153,0,0,0,54.109-1.57Zm9.18-2.719a5.094,5.094,0,0,1,.887-3.148A2.877,2.877,0,0,1,66.6-8.609a2.589,2.589,0,0,1,2.039.922V-12h2.266V0H68.867l-.109-.9A2.657,2.657,0,0,1,66.586.156,2.869,2.869,0,0,1,64.191-1.02,5.258,5.258,0,0,1,63.289-4.289Zm2.258.168A3.337,3.337,0,0,0,65.961-2.3a1.349,1.349,0,0,0,1.2.634,1.511,1.511,0,0,0,1.477-.884V-5.889a1.489,1.489,0,0,0-1.461-.884Q65.547-6.773,65.547-4.121Zm11,4.277A4.15,4.15,0,0,1,73.52-.984a4.054,4.054,0,0,1-1.168-3.039v-.219a5.106,5.106,0,0,1,.492-2.277,3.612,3.612,0,0,1,1.395-1.547A3.914,3.914,0,0,1,76.3-8.609a3.508,3.508,0,0,1,2.73,1.094,4.444,4.444,0,0,1,1,3.1v.922H74.641a2.1,2.1,0,0,0,.66,1.328,2,2,0,0,0,1.395.5,2.437,2.437,0,0,0,2.039-.945l1.109,1.242A3.389,3.389,0,0,1,78.469-.246,4.511,4.511,0,0,1,76.547.156Zm-.258-6.945a1.411,1.411,0,0,0-1.09.455,2.357,2.357,0,0,0-.535,1.3H77.8v-.181A1.681,1.681,0,0,0,77.4-6.377,1.456,1.456,0,0,0,76.289-6.789ZM89.18.156A4.15,4.15,0,0,1,86.152-.984a4.054,4.054,0,0,1-1.168-3.039v-.219a5.106,5.106,0,0,1,.492-2.277,3.612,3.612,0,0,1,1.395-1.547,3.914,3.914,0,0,1,2.059-.543,3.508,3.508,0,0,1,2.73,1.094,4.444,4.444,0,0,1,1,3.1v.922H87.273a2.1,2.1,0,0,0,.66,1.328,2,2,0,0,0,1.395.5,2.437,2.437,0,0,0,2.039-.945l1.109,1.242A3.389,3.389,0,0,1,91.1-.246,4.511,4.511,0,0,1,89.18.156Zm-.258-6.945a1.411,1.411,0,0,0-1.09.455,2.357,2.357,0,0,0-.535,1.3h3.141v-.181a1.681,1.681,0,0,0-.406-1.165A1.456,1.456,0,0,0,88.922-6.789Zm7.133-1.664.07.945a2.971,2.971,0,0,1,2.43-1.1A2.255,2.255,0,0,1,100.8-7.32a2.9,2.9,0,0,1,2.539-1.289,2.521,2.521,0,0,1,2.047.8,3.681,3.681,0,0,1,.672,2.41V0h-2.266V-5.391a1.61,1.61,0,0,0-.281-1.051,1.246,1.246,0,0,0-.992-.332,1.409,1.409,0,0,0-1.406.969l.008,5.8H98.859V-5.383a1.59,1.59,0,0,0-.289-1.062,1.259,1.259,0,0,0-.984-.328,1.463,1.463,0,0,0-1.391.8V0H93.938V-8.453Zm16.8,7.594A2.831,2.831,0,0,1,110.539.156a2.67,2.67,0,0,1-2.074-.781,3.335,3.335,0,0,1-.73-2.289V-8.453h2.258v5.467q0,1.322,1.2,1.322a1.63,1.63,0,0,0,1.578-.8V-8.453h2.266V0h-2.125ZM119.125,0h-2.266V-12h2.266Zm6.438-2.336a.727.727,0,0,0-.41-.652,4.659,4.659,0,0,0-1.316-.426q-3.016-.633-3.016-2.562a2.323,2.323,0,0,1,.934-1.879,3.766,3.766,0,0,1,2.441-.754,4.053,4.053,0,0,1,2.574.758,2.388,2.388,0,0,1,.965,1.969h-2.258a1.092,1.092,0,0,0-.312-.8A1.322,1.322,0,0,0,124.188-7a1.351,1.351,0,0,0-.883.258.814.814,0,0,0-.312.656.7.7,0,0,0,.355.605,3.657,3.657,0,0,0,1.2.4,9.8,9.8,0,0,1,1.422.379,2.336,2.336,0,0,1,1.789,2.273,2.2,2.2,0,0,1-.992,1.871A4.28,4.28,0,0,1,124.2.156a4.47,4.47,0,0,1-1.887-.379,3.166,3.166,0,0,1-1.293-1.039,2.414,2.414,0,0,1-.469-1.426H122.7a1.179,1.179,0,0,0,.445.922,1.766,1.766,0,0,0,1.109.32,1.635,1.635,0,0,0,.98-.246A.766.766,0,0,0,125.563-2.336ZM131.594,0h-2.266V-8.453h2.266Zm-2.4-10.641a1.112,1.112,0,0,1,.34-.836,1.277,1.277,0,0,1,.926-.328,1.28,1.28,0,0,1,.922.328,1.105,1.105,0,0,1,.344.836,1.109,1.109,0,0,1-.348.844,1.283,1.283,0,0,1-.918.328,1.283,1.283,0,0,1-.918-.328A1.109,1.109,0,0,1,129.2-10.641ZM133.1-4.3a5.013,5.013,0,0,1,.484-2.242A3.546,3.546,0,0,1,134.98-8.07a4.069,4.069,0,0,1,2.113-.539,3.849,3.849,0,0,1,2.793,1.047,4.2,4.2,0,0,1,1.207,2.844l.016.578a4.418,4.418,0,0,1-1.086,3.121A3.775,3.775,0,0,1,137.109.156a3.793,3.793,0,0,1-2.918-1.172A4.5,4.5,0,0,1,133.1-4.2Zm2.258.16a3.16,3.16,0,0,0,.453,1.843,1.5,1.5,0,0,0,1.3.638,1.5,1.5,0,0,0,1.281-.63,3.457,3.457,0,0,0,.461-2.015,3.128,3.128,0,0,0-.461-1.831,1.5,1.5,0,0,0-1.3-.649,1.474,1.474,0,0,0-1.281.646A3.516,3.516,0,0,0,135.359-4.144Zm9.219-4.309.07.977a2.951,2.951,0,0,1,2.43-1.133,2.453,2.453,0,0,1,2,.789,3.682,3.682,0,0,1,.672,2.359V0h-2.258V-5.406a1.465,1.465,0,0,0-.312-1.043,1.4,1.4,0,0,0-1.039-.324,1.553,1.553,0,0,0-1.43.813V0h-2.258V-8.453ZM155.352.156a4.15,4.15,0,0,1-3.027-1.141,4.054,4.054,0,0,1-1.168-3.039v-.219a5.106,5.106,0,0,1,.492-2.277,3.612,3.612,0,0,1,1.395-1.547,3.914,3.914,0,0,1,2.059-.543,3.508,3.508,0,0,1,2.73,1.094,4.444,4.444,0,0,1,1,3.1v.922h-5.383a2.1,2.1,0,0,0,.66,1.328,2,2,0,0,0,1.395.5,2.437,2.437,0,0,0,2.039-.945l1.109,1.242a3.389,3.389,0,0,1-1.375,1.121A4.511,4.511,0,0,1,155.352.156Zm-.258-6.945a1.411,1.411,0,0,0-1.09.455,2.357,2.357,0,0,0-.535,1.3h3.141v-.181a1.681,1.681,0,0,0-.406-1.165A1.456,1.456,0,0,0,155.094-6.789Zm9.594,4.453a.727.727,0,0,0-.41-.652,4.659,4.659,0,0,0-1.316-.426q-3.016-.633-3.016-2.562a2.323,2.323,0,0,1,.934-1.879,3.766,3.766,0,0,1,2.441-.754,4.053,4.053,0,0,1,2.574.758,2.388,2.388,0,0,1,.965,1.969H164.6a1.092,1.092,0,0,0-.312-.8A1.322,1.322,0,0,0,163.313-7a1.351,1.351,0,0,0-.883.258.814.814,0,0,0-.312.656.7.7,0,0,0,.355.605,3.657,3.657,0,0,0,1.2.4,9.8,9.8,0,0,1,1.422.379,2.336,2.336,0,0,1,1.789,2.273,2.205,2.205,0,0,1-.992,1.871,4.28,4.28,0,0,1-2.562.715,4.47,4.47,0,0,1-1.887-.379,3.166,3.166,0,0,1-1.293-1.039,2.414,2.414,0,0,1-.469-1.426h2.141a1.179,1.179,0,0,0,.445.922,1.766,1.766,0,0,0,1.109.32,1.635,1.635,0,0,0,.98-.246A.766.766,0,0,0,164.688-2.336Z" transform="translate(716.287 4343)" fill="#12263f"/>
    <path id="Trazado_208963" data-name="Trazado 208963" d="M4.672-5.07A7.053,7.053,0,0,1,1.863-6.434a2.6,2.6,0,0,1-.879-2,2.751,2.751,0,0,1,1.074-2.223,4.269,4.269,0,0,1,2.793-.879,4.66,4.66,0,0,1,2.09.453,3.436,3.436,0,0,1,1.422,1.25,3.2,3.2,0,0,1,.5,1.742H7.359A2.08,2.08,0,0,0,6.7-9.713,2.669,2.669,0,0,0,4.852-10.3a2.732,2.732,0,0,0-1.73.489A1.632,1.632,0,0,0,2.5-8.458,1.468,1.468,0,0,0,3.09-7.28,5.785,5.785,0,0,0,5.1-6.4a9.316,9.316,0,0,1,2.219.88A3.367,3.367,0,0,1,8.5-4.4a2.861,2.861,0,0,1,.387,1.508A2.658,2.658,0,0,1,7.813-.676,4.6,4.6,0,0,1,4.93.156,5.347,5.347,0,0,1,2.742-.293a3.681,3.681,0,0,1-1.566-1.23A3,3,0,0,1,.625-3.3H2.133a1.959,1.959,0,0,0,.762,1.629,3.207,3.207,0,0,0,2.035.6,2.948,2.948,0,0,0,1.82-.484,1.573,1.573,0,0,0,.633-1.32A1.545,1.545,0,0,0,6.8-4.168,6.755,6.755,0,0,0,4.672-5.07ZM12.156,0H10.711V-8.453h1.445ZM10.594-10.7a.863.863,0,0,1,.215-.594.807.807,0,0,1,.637-.242.819.819,0,0,1,.641.242.854.854,0,0,1,.219.594.826.826,0,0,1-.219.586.834.834,0,0,1-.641.234.821.821,0,0,1-.637-.234A.834.834,0,0,1,10.594-10.7Zm8.8,8.453a1.064,1.064,0,0,0-.441-.91,4.249,4.249,0,0,0-1.539-.559,7.277,7.277,0,0,1-1.742-.562,2.479,2.479,0,0,1-.953-.781,1.869,1.869,0,0,1-.309-1.078,2.193,2.193,0,0,1,.879-1.758,3.432,3.432,0,0,1,2.246-.719,3.532,3.532,0,0,1,2.332.742,2.357,2.357,0,0,1,.895,1.9H19.3a1.3,1.3,0,0,0-.5-1.023,1.888,1.888,0,0,0-1.27-.43,1.976,1.976,0,0,0-1.234.344,1.082,1.082,0,0,0-.445.9.877.877,0,0,0,.414.789,5.1,5.1,0,0,0,1.5.508,7.8,7.8,0,0,1,1.754.578,2.558,2.558,0,0,1,1,.809,1.988,1.988,0,0,1,.324,1.152A2.163,2.163,0,0,1,19.93-.527a3.8,3.8,0,0,1-2.352.684,4.257,4.257,0,0,1-1.8-.359,2.922,2.922,0,0,1-1.223-1A2.42,2.42,0,0,1,14.117-2.6h1.445a1.5,1.5,0,0,0,.582,1.152,2.258,2.258,0,0,0,1.434.426,2.331,2.331,0,0,0,1.316-.332A1.02,1.02,0,0,0,19.391-2.242ZM24.68-10.5v2.047h1.578v1.117H24.68v5.249a1.173,1.173,0,0,0,.211.763.888.888,0,0,0,.719.254,3.5,3.5,0,0,0,.688-.094V0a4.215,4.215,0,0,1-1.109.155A1.8,1.8,0,0,1,23.727-.43a2.517,2.517,0,0,1-.492-1.664V-7.336H21.7V-8.453h1.539V-10.5ZM31.453.156a3.693,3.693,0,0,1-2.8-1.129,4.19,4.19,0,0,1-1.078-3.02v-.266a5.073,5.073,0,0,1,.48-2.246A3.748,3.748,0,0,1,29.4-8.051a3.378,3.378,0,0,1,1.871-.559,3.166,3.166,0,0,1,2.563,1.086,4.7,4.7,0,0,1,.914,3.109v.6H29.023a3,3,0,0,0,.73,2.02,2.3,2.3,0,0,0,1.777.77,2.517,2.517,0,0,0,1.3-.312,3.259,3.259,0,0,0,.93-.828l.883.688A3.55,3.55,0,0,1,31.453.156Zm-.18-7.578a1.928,1.928,0,0,0-1.469.637A3.1,3.1,0,0,0,29.07-5H33.3v-.109a2.753,2.753,0,0,0-.594-1.707A1.815,1.815,0,0,0,31.273-7.422Zm6.508-1.031.039.938a3.122,3.122,0,0,1,2.508-1.094A2.417,2.417,0,0,1,42.742-7.25a3.2,3.2,0,0,1,1.1-.984,3.242,3.242,0,0,1,1.6-.375q2.781,0,2.828,2.945V0H46.82V-5.578a1.941,1.941,0,0,0-.414-1.355,1.823,1.823,0,0,0-1.391-.449,1.917,1.917,0,0,0-1.336.48,1.949,1.949,0,0,0-.617,1.293V0H41.609V-5.539a1.613,1.613,0,0,0-1.8-1.844,1.934,1.934,0,0,0-1.945,1.211V0H36.414V-8.453ZM55.664,0a3.036,3.036,0,0,1-.2-.891A3.225,3.225,0,0,1,53.055.156,2.984,2.984,0,0,1,51-.551a2.287,2.287,0,0,1-.8-1.793,2.39,2.39,0,0,1,1-2.051,4.733,4.733,0,0,1,2.824-.73h1.406v-.664A1.623,1.623,0,0,0,54.984-7a1.821,1.821,0,0,0-1.336-.449,2.107,2.107,0,0,0-1.3.391,1.151,1.151,0,0,0-.523.945H50.375a2,2,0,0,1,.449-1.223,3.066,3.066,0,0,1,1.219-.934,4.1,4.1,0,0,1,1.691-.344,3.342,3.342,0,0,1,2.289.73,2.635,2.635,0,0,1,.859,2.012v3.891a4.757,4.757,0,0,0,.3,1.852V0Zm-2.4-1.1a2.54,2.54,0,0,0,1.289-.352,2.127,2.127,0,0,0,.883-.914V-4.1H54.3q-2.656,0-2.656,1.555A1.316,1.316,0,0,0,52.1-1.484,1.742,1.742,0,0,0,53.266-1.1ZM65.789-3.586l.219,1.5.32-1.352,2.25-7.937h1.266l2.2,7.938.313,1.375.242-1.531,1.766-7.781h1.508L73.109,0H71.742L69.4-8.289l-.18-.867-.18.867L66.609,0H65.242l-2.75-11.375h1.5ZM77.594.977H76.352L81.1-11.375h1.234Zm15.281-6.3A7.037,7.037,0,0,1,92.313-2.4,4.261,4.261,0,0,1,90.719-.5a4.385,4.385,0,0,1-2.406.656A4.347,4.347,0,0,1,85.93-.5a4.363,4.363,0,0,1-1.613-1.883,6.752,6.752,0,0,1-.59-2.832v-.82a6.953,6.953,0,0,1,.57-2.9,4.347,4.347,0,0,1,1.613-1.926,4.329,4.329,0,0,1,2.387-.668,4.41,4.41,0,0,1,2.41.66,4.253,4.253,0,0,1,1.605,1.914,7.071,7.071,0,0,1,.563,2.918Zm-1.492-.734A5.1,5.1,0,0,0,90.57-9.16,2.68,2.68,0,0,0,88.3-10.242,2.651,2.651,0,0,0,86.059-9.16a5,5,0,0,0-.84,3v.836a5.107,5.107,0,0,0,.824,3.082,2.662,2.662,0,0,0,2.27,1.121,2.652,2.652,0,0,0,2.25-1.059,5.079,5.079,0,0,0,.82-3.035Z" transform="translate(555.287 4508)" fill="#12263f"/>
    <path id="Trazado_208964" data-name="Trazado 208964" d="M4.672-5.07A7.053,7.053,0,0,1,1.863-6.434a2.6,2.6,0,0,1-.879-2,2.751,2.751,0,0,1,1.074-2.223,4.269,4.269,0,0,1,2.793-.879,4.66,4.66,0,0,1,2.09.453,3.436,3.436,0,0,1,1.422,1.25,3.2,3.2,0,0,1,.5,1.742H7.359A2.08,2.08,0,0,0,6.7-9.713,2.669,2.669,0,0,0,4.852-10.3a2.732,2.732,0,0,0-1.73.489A1.632,1.632,0,0,0,2.5-8.458,1.468,1.468,0,0,0,3.09-7.28,5.785,5.785,0,0,0,5.1-6.4a9.316,9.316,0,0,1,2.219.88A3.367,3.367,0,0,1,8.5-4.4a2.861,2.861,0,0,1,.387,1.508A2.658,2.658,0,0,1,7.813-.676,4.6,4.6,0,0,1,4.93.156,5.347,5.347,0,0,1,2.742-.293a3.681,3.681,0,0,1-1.566-1.23A3,3,0,0,1,.625-3.3H2.133a1.959,1.959,0,0,0,.762,1.629,3.207,3.207,0,0,0,2.035.6,2.948,2.948,0,0,0,1.82-.484,1.573,1.573,0,0,0,.633-1.32A1.545,1.545,0,0,0,6.8-4.168,6.755,6.755,0,0,0,4.672-5.07ZM12.156,0H10.711V-8.453h1.445ZM10.594-10.7a.863.863,0,0,1,.215-.594.807.807,0,0,1,.637-.242.819.819,0,0,1,.641.242.854.854,0,0,1,.219.594.826.826,0,0,1-.219.586.834.834,0,0,1-.641.234.821.821,0,0,1-.637-.234A.834.834,0,0,1,10.594-10.7Zm8.8,8.453a1.064,1.064,0,0,0-.441-.91,4.249,4.249,0,0,0-1.539-.559,7.277,7.277,0,0,1-1.742-.562,2.479,2.479,0,0,1-.953-.781,1.869,1.869,0,0,1-.309-1.078,2.193,2.193,0,0,1,.879-1.758,3.432,3.432,0,0,1,2.246-.719,3.532,3.532,0,0,1,2.332.742,2.357,2.357,0,0,1,.895,1.9H19.3a1.3,1.3,0,0,0-.5-1.023,1.888,1.888,0,0,0-1.27-.43,1.976,1.976,0,0,0-1.234.344,1.082,1.082,0,0,0-.445.9.877.877,0,0,0,.414.789,5.1,5.1,0,0,0,1.5.508,7.8,7.8,0,0,1,1.754.578,2.558,2.558,0,0,1,1,.809,1.988,1.988,0,0,1,.324,1.152A2.163,2.163,0,0,1,19.93-.527a3.8,3.8,0,0,1-2.352.684,4.257,4.257,0,0,1-1.8-.359,2.922,2.922,0,0,1-1.223-1A2.42,2.42,0,0,1,14.117-2.6h1.445a1.5,1.5,0,0,0,.582,1.152,2.258,2.258,0,0,0,1.434.426,2.331,2.331,0,0,0,1.316-.332A1.02,1.02,0,0,0,19.391-2.242ZM24.68-10.5v2.047h1.578v1.117H24.68v5.249a1.173,1.173,0,0,0,.211.763.888.888,0,0,0,.719.254,3.5,3.5,0,0,0,.688-.094V0a4.215,4.215,0,0,1-1.109.155A1.8,1.8,0,0,1,23.727-.43a2.517,2.517,0,0,1-.492-1.664V-7.336H21.7V-8.453h1.539V-10.5ZM31.453.156a3.693,3.693,0,0,1-2.8-1.129,4.19,4.19,0,0,1-1.078-3.02v-.266a5.073,5.073,0,0,1,.48-2.246A3.748,3.748,0,0,1,29.4-8.051a3.378,3.378,0,0,1,1.871-.559,3.166,3.166,0,0,1,2.563,1.086,4.7,4.7,0,0,1,.914,3.109v.6H29.023a3,3,0,0,0,.73,2.02,2.3,2.3,0,0,0,1.777.77,2.517,2.517,0,0,0,1.3-.312,3.259,3.259,0,0,0,.93-.828l.883.688A3.55,3.55,0,0,1,31.453.156Zm-.18-7.578a1.928,1.928,0,0,0-1.469.637A3.1,3.1,0,0,0,29.07-5H33.3v-.109a2.753,2.753,0,0,0-.594-1.707A1.815,1.815,0,0,0,31.273-7.422Zm6.508-1.031.039.938a3.122,3.122,0,0,1,2.508-1.094A2.417,2.417,0,0,1,42.742-7.25a3.2,3.2,0,0,1,1.1-.984,3.242,3.242,0,0,1,1.6-.375q2.781,0,2.828,2.945V0H46.82V-5.578a1.941,1.941,0,0,0-.414-1.355,1.823,1.823,0,0,0-1.391-.449,1.917,1.917,0,0,0-1.336.48,1.949,1.949,0,0,0-.617,1.293V0H41.609V-5.539a1.613,1.613,0,0,0-1.8-1.844,1.934,1.934,0,0,0-1.945,1.211V0H36.414V-8.453ZM55.664,0a3.036,3.036,0,0,1-.2-.891A3.225,3.225,0,0,1,53.055.156,2.984,2.984,0,0,1,51-.551a2.287,2.287,0,0,1-.8-1.793,2.39,2.39,0,0,1,1-2.051,4.733,4.733,0,0,1,2.824-.73h1.406v-.664A1.623,1.623,0,0,0,54.984-7a1.821,1.821,0,0,0-1.336-.449,2.107,2.107,0,0,0-1.3.391,1.151,1.151,0,0,0-.523.945H50.375a2,2,0,0,1,.449-1.223,3.066,3.066,0,0,1,1.219-.934,4.1,4.1,0,0,1,1.691-.344,3.342,3.342,0,0,1,2.289.73,2.635,2.635,0,0,1,.859,2.012v3.891a4.757,4.757,0,0,0,.3,1.852V0Zm-2.4-1.1a2.54,2.54,0,0,0,1.289-.352,2.127,2.127,0,0,0,.883-.914V-4.1H54.3q-2.656,0-2.656,1.555A1.316,1.316,0,0,0,52.1-1.484,1.742,1.742,0,0,0,53.266-1.1ZM72.086-5.32A7.037,7.037,0,0,1,71.523-2.4,4.261,4.261,0,0,1,69.93-.5a4.385,4.385,0,0,1-2.406.656A4.347,4.347,0,0,1,65.141-.5a4.363,4.363,0,0,1-1.613-1.883,6.752,6.752,0,0,1-.59-2.832v-.82a6.953,6.953,0,0,1,.57-2.9,4.347,4.347,0,0,1,1.613-1.926,4.329,4.329,0,0,1,2.387-.668,4.41,4.41,0,0,1,2.41.66,4.253,4.253,0,0,1,1.605,1.914,7.071,7.071,0,0,1,.563,2.918Zm-1.492-.734a5.1,5.1,0,0,0-.812-3.105,2.68,2.68,0,0,0-2.273-1.082A2.651,2.651,0,0,0,65.27-9.16a5,5,0,0,0-.84,3v.836a5.107,5.107,0,0,0,.824,3.082,2.662,2.662,0,0,0,2.27,1.121,2.652,2.652,0,0,0,2.25-1.059,5.079,5.079,0,0,0,.82-3.035ZM74.4.977H73.156l4.75-12.352h1.234Zm8.984-4.562.219,1.5.32-1.352,2.25-7.937h1.266l2.2,7.938.313,1.375.242-1.531,1.766-7.781h1.508L90.7,0H89.336L86.992-8.289l-.18-.867-.18.867L84.2,0H82.836l-2.75-11.375h1.5Z" transform="translate(738.287 4508)" fill="#12263f"/>
    <path id="Trazado_208965" data-name="Trazado 208965" d="M4.672-5.07A7.053,7.053,0,0,1,1.863-6.434a2.6,2.6,0,0,1-.879-2,2.751,2.751,0,0,1,1.074-2.223,4.269,4.269,0,0,1,2.793-.879,4.66,4.66,0,0,1,2.09.453,3.436,3.436,0,0,1,1.422,1.25,3.2,3.2,0,0,1,.5,1.742H7.359A2.08,2.08,0,0,0,6.7-9.713,2.669,2.669,0,0,0,4.852-10.3a2.732,2.732,0,0,0-1.73.489A1.632,1.632,0,0,0,2.5-8.458,1.468,1.468,0,0,0,3.09-7.28,5.785,5.785,0,0,0,5.1-6.4a9.316,9.316,0,0,1,2.219.88A3.367,3.367,0,0,1,8.5-4.4a2.861,2.861,0,0,1,.387,1.508A2.658,2.658,0,0,1,7.813-.676,4.6,4.6,0,0,1,4.93.156,5.347,5.347,0,0,1,2.742-.293a3.681,3.681,0,0,1-1.566-1.23A3,3,0,0,1,.625-3.3H2.133a1.959,1.959,0,0,0,.762,1.629,3.207,3.207,0,0,0,2.035.6,2.948,2.948,0,0,0,1.82-.484,1.573,1.573,0,0,0,.633-1.32A1.545,1.545,0,0,0,6.8-4.168,6.755,6.755,0,0,0,4.672-5.07ZM12.156,0H10.711V-8.453h1.445ZM10.594-10.7a.863.863,0,0,1,.215-.594.807.807,0,0,1,.637-.242.819.819,0,0,1,.641.242.854.854,0,0,1,.219.594.826.826,0,0,1-.219.586.834.834,0,0,1-.641.234.821.821,0,0,1-.637-.234A.834.834,0,0,1,10.594-10.7Zm8.8,8.453a1.064,1.064,0,0,0-.441-.91,4.249,4.249,0,0,0-1.539-.559,7.277,7.277,0,0,1-1.742-.562,2.479,2.479,0,0,1-.953-.781,1.869,1.869,0,0,1-.309-1.078,2.193,2.193,0,0,1,.879-1.758,3.432,3.432,0,0,1,2.246-.719,3.532,3.532,0,0,1,2.332.742,2.357,2.357,0,0,1,.895,1.9H19.3a1.3,1.3,0,0,0-.5-1.023,1.888,1.888,0,0,0-1.27-.43,1.976,1.976,0,0,0-1.234.344,1.082,1.082,0,0,0-.445.9.877.877,0,0,0,.414.789,5.1,5.1,0,0,0,1.5.508,7.8,7.8,0,0,1,1.754.578,2.558,2.558,0,0,1,1,.809,1.988,1.988,0,0,1,.324,1.152A2.163,2.163,0,0,1,19.93-.527a3.8,3.8,0,0,1-2.352.684,4.257,4.257,0,0,1-1.8-.359,2.922,2.922,0,0,1-1.223-1A2.42,2.42,0,0,1,14.117-2.6h1.445a1.5,1.5,0,0,0,.582,1.152,2.258,2.258,0,0,0,1.434.426,2.331,2.331,0,0,0,1.316-.332A1.02,1.02,0,0,0,19.391-2.242ZM24.68-10.5v2.047h1.578v1.117H24.68v5.249a1.173,1.173,0,0,0,.211.763.888.888,0,0,0,.719.254,3.5,3.5,0,0,0,.688-.094V0a4.215,4.215,0,0,1-1.109.155A1.8,1.8,0,0,1,23.727-.43a2.517,2.517,0,0,1-.492-1.664V-7.336H21.7V-8.453h1.539V-10.5ZM31.453.156a3.693,3.693,0,0,1-2.8-1.129,4.19,4.19,0,0,1-1.078-3.02v-.266a5.073,5.073,0,0,1,.48-2.246A3.748,3.748,0,0,1,29.4-8.051a3.378,3.378,0,0,1,1.871-.559,3.166,3.166,0,0,1,2.563,1.086,4.7,4.7,0,0,1,.914,3.109v.6H29.023a3,3,0,0,0,.73,2.02,2.3,2.3,0,0,0,1.777.77,2.517,2.517,0,0,0,1.3-.312,3.259,3.259,0,0,0,.93-.828l.883.688A3.55,3.55,0,0,1,31.453.156Zm-.18-7.578a1.928,1.928,0,0,0-1.469.637A3.1,3.1,0,0,0,29.07-5H33.3v-.109a2.753,2.753,0,0,0-.594-1.707A1.815,1.815,0,0,0,31.273-7.422Zm6.508-1.031.039.938a3.122,3.122,0,0,1,2.508-1.094A2.417,2.417,0,0,1,42.742-7.25a3.2,3.2,0,0,1,1.1-.984,3.242,3.242,0,0,1,1.6-.375q2.781,0,2.828,2.945V0H46.82V-5.578a1.941,1.941,0,0,0-.414-1.355,1.823,1.823,0,0,0-1.391-.449,1.917,1.917,0,0,0-1.336.48,1.949,1.949,0,0,0-.617,1.293V0H41.609V-5.539a1.613,1.613,0,0,0-1.8-1.844,1.934,1.934,0,0,0-1.945,1.211V0H36.414V-8.453ZM55.664,0a3.036,3.036,0,0,1-.2-.891A3.225,3.225,0,0,1,53.055.156,2.984,2.984,0,0,1,51-.551a2.287,2.287,0,0,1-.8-1.793,2.39,2.39,0,0,1,1-2.051,4.733,4.733,0,0,1,2.824-.73h1.406v-.664A1.623,1.623,0,0,0,54.984-7a1.821,1.821,0,0,0-1.336-.449,2.107,2.107,0,0,0-1.3.391,1.151,1.151,0,0,0-.523.945H50.375a2,2,0,0,1,.449-1.223,3.066,3.066,0,0,1,1.219-.934,4.1,4.1,0,0,1,1.691-.344,3.342,3.342,0,0,1,2.289.73,2.635,2.635,0,0,1,.859,2.012v3.891a4.757,4.757,0,0,0,.3,1.852V0Zm-2.4-1.1a2.54,2.54,0,0,0,1.289-.352,2.127,2.127,0,0,0,.883-.914V-4.1H54.3q-2.656,0-2.656,1.555A1.316,1.316,0,0,0,52.1-1.484,1.742,1.742,0,0,0,53.266-1.1ZM65.789-3.586l.219,1.5.32-1.352,2.25-7.937h1.266l2.2,7.938.313,1.375.242-1.531,1.766-7.781h1.508L73.109,0H71.742L69.4-8.289l-.18-.867-.18.867L66.609,0H65.242l-2.75-11.375h1.5ZM77.594.977H76.352L81.1-11.375h1.234Zm15.281-6.3A7.037,7.037,0,0,1,92.313-2.4,4.261,4.261,0,0,1,90.719-.5a4.385,4.385,0,0,1-2.406.656A4.347,4.347,0,0,1,85.93-.5a4.363,4.363,0,0,1-1.613-1.883,6.752,6.752,0,0,1-.59-2.832v-.82a6.953,6.953,0,0,1,.57-2.9,4.347,4.347,0,0,1,1.613-1.926,4.329,4.329,0,0,1,2.387-.668,4.41,4.41,0,0,1,2.41.66,4.253,4.253,0,0,1,1.605,1.914,7.071,7.071,0,0,1,.563,2.918Zm-1.492-.734A5.1,5.1,0,0,0,90.57-9.16,2.68,2.68,0,0,0,88.3-10.242,2.651,2.651,0,0,0,86.059-9.16a5,5,0,0,0-.84,3v.836a5.107,5.107,0,0,0,.824,3.082,2.662,2.662,0,0,0,2.27,1.121,2.652,2.652,0,0,0,2.25-1.059,5.079,5.079,0,0,0,.82-3.035Zm3.8,7.031H93.945L98.7-11.375H99.93Zm8.984-4.562.219,1.5.32-1.352,2.25-7.937h1.266l2.2,7.938.313,1.375.242-1.531,1.766-7.781h1.508L111.492,0h-1.367l-2.344-8.289-.18-.867-.18.867L104.992,0h-1.367l-2.75-11.375h1.5Z" transform="translate(545.287 4677.128)" fill="#12263f"/>
    <path id="Trazado_208966" data-name="Trazado 208966" d="M4.672-5.07A7.053,7.053,0,0,1,1.863-6.434a2.6,2.6,0,0,1-.879-2,2.751,2.751,0,0,1,1.074-2.223,4.269,4.269,0,0,1,2.793-.879,4.66,4.66,0,0,1,2.09.453,3.436,3.436,0,0,1,1.422,1.25,3.2,3.2,0,0,1,.5,1.742H7.359A2.08,2.08,0,0,0,6.7-9.713,2.669,2.669,0,0,0,4.852-10.3a2.732,2.732,0,0,0-1.73.489A1.632,1.632,0,0,0,2.5-8.458,1.468,1.468,0,0,0,3.09-7.28,5.785,5.785,0,0,0,5.1-6.4a9.316,9.316,0,0,1,2.219.88A3.367,3.367,0,0,1,8.5-4.4a2.861,2.861,0,0,1,.387,1.508A2.658,2.658,0,0,1,7.813-.676,4.6,4.6,0,0,1,4.93.156,5.347,5.347,0,0,1,2.742-.293a3.681,3.681,0,0,1-1.566-1.23A3,3,0,0,1,.625-3.3H2.133a1.959,1.959,0,0,0,.762,1.629,3.207,3.207,0,0,0,2.035.6,2.948,2.948,0,0,0,1.82-.484,1.573,1.573,0,0,0,.633-1.32A1.545,1.545,0,0,0,6.8-4.168,6.755,6.755,0,0,0,4.672-5.07ZM12.156,0H10.711V-8.453h1.445ZM10.594-10.7a.863.863,0,0,1,.215-.594.807.807,0,0,1,.637-.242.819.819,0,0,1,.641.242.854.854,0,0,1,.219.594.826.826,0,0,1-.219.586.834.834,0,0,1-.641.234.821.821,0,0,1-.637-.234A.834.834,0,0,1,10.594-10.7Zm8.8,8.453a1.064,1.064,0,0,0-.441-.91,4.249,4.249,0,0,0-1.539-.559,7.277,7.277,0,0,1-1.742-.562,2.479,2.479,0,0,1-.953-.781,1.869,1.869,0,0,1-.309-1.078,2.193,2.193,0,0,1,.879-1.758,3.432,3.432,0,0,1,2.246-.719,3.532,3.532,0,0,1,2.332.742,2.357,2.357,0,0,1,.895,1.9H19.3a1.3,1.3,0,0,0-.5-1.023,1.888,1.888,0,0,0-1.27-.43,1.976,1.976,0,0,0-1.234.344,1.082,1.082,0,0,0-.445.9.877.877,0,0,0,.414.789,5.1,5.1,0,0,0,1.5.508,7.8,7.8,0,0,1,1.754.578,2.558,2.558,0,0,1,1,.809,1.988,1.988,0,0,1,.324,1.152A2.163,2.163,0,0,1,19.93-.527a3.8,3.8,0,0,1-2.352.684,4.257,4.257,0,0,1-1.8-.359,2.922,2.922,0,0,1-1.223-1A2.42,2.42,0,0,1,14.117-2.6h1.445a1.5,1.5,0,0,0,.582,1.152,2.258,2.258,0,0,0,1.434.426,2.331,2.331,0,0,0,1.316-.332A1.02,1.02,0,0,0,19.391-2.242ZM24.68-10.5v2.047h1.578v1.117H24.68v5.249a1.173,1.173,0,0,0,.211.763.888.888,0,0,0,.719.254,3.5,3.5,0,0,0,.688-.094V0a4.215,4.215,0,0,1-1.109.155A1.8,1.8,0,0,1,23.727-.43a2.517,2.517,0,0,1-.492-1.664V-7.336H21.7V-8.453h1.539V-10.5ZM31.453.156a3.693,3.693,0,0,1-2.8-1.129,4.19,4.19,0,0,1-1.078-3.02v-.266a5.073,5.073,0,0,1,.48-2.246A3.748,3.748,0,0,1,29.4-8.051a3.378,3.378,0,0,1,1.871-.559,3.166,3.166,0,0,1,2.563,1.086,4.7,4.7,0,0,1,.914,3.109v.6H29.023a3,3,0,0,0,.73,2.02,2.3,2.3,0,0,0,1.777.77,2.517,2.517,0,0,0,1.3-.312,3.259,3.259,0,0,0,.93-.828l.883.688A3.55,3.55,0,0,1,31.453.156Zm-.18-7.578a1.928,1.928,0,0,0-1.469.637A3.1,3.1,0,0,0,29.07-5H33.3v-.109a2.753,2.753,0,0,0-.594-1.707A1.815,1.815,0,0,0,31.273-7.422Zm6.508-1.031.039.938a3.122,3.122,0,0,1,2.508-1.094A2.417,2.417,0,0,1,42.742-7.25a3.2,3.2,0,0,1,1.1-.984,3.242,3.242,0,0,1,1.6-.375q2.781,0,2.828,2.945V0H46.82V-5.578a1.941,1.941,0,0,0-.414-1.355,1.823,1.823,0,0,0-1.391-.449,1.917,1.917,0,0,0-1.336.48,1.949,1.949,0,0,0-.617,1.293V0H41.609V-5.539a1.613,1.613,0,0,0-1.8-1.844,1.934,1.934,0,0,0-1.945,1.211V0H36.414V-8.453ZM55.664,0a3.036,3.036,0,0,1-.2-.891A3.225,3.225,0,0,1,53.055.156,2.984,2.984,0,0,1,51-.551a2.287,2.287,0,0,1-.8-1.793,2.39,2.39,0,0,1,1-2.051,4.733,4.733,0,0,1,2.824-.73h1.406v-.664A1.623,1.623,0,0,0,54.984-7a1.821,1.821,0,0,0-1.336-.449,2.107,2.107,0,0,0-1.3.391,1.151,1.151,0,0,0-.523.945H50.375a2,2,0,0,1,.449-1.223,3.066,3.066,0,0,1,1.219-.934,4.1,4.1,0,0,1,1.691-.344,3.342,3.342,0,0,1,2.289.73,2.635,2.635,0,0,1,.859,2.012v3.891a4.757,4.757,0,0,0,.3,1.852V0Zm-2.4-1.1a2.54,2.54,0,0,0,1.289-.352,2.127,2.127,0,0,0,.883-.914V-4.1H54.3q-2.656,0-2.656,1.555A1.316,1.316,0,0,0,52.1-1.484,1.742,1.742,0,0,0,53.266-1.1ZM72.086-5.32A7.037,7.037,0,0,1,71.523-2.4,4.261,4.261,0,0,1,69.93-.5a4.385,4.385,0,0,1-2.406.656A4.347,4.347,0,0,1,65.141-.5a4.363,4.363,0,0,1-1.613-1.883,6.752,6.752,0,0,1-.59-2.832v-.82a6.953,6.953,0,0,1,.57-2.9,4.347,4.347,0,0,1,1.613-1.926,4.329,4.329,0,0,1,2.387-.668,4.41,4.41,0,0,1,2.41.66,4.253,4.253,0,0,1,1.605,1.914,7.071,7.071,0,0,1,.563,2.918Zm-1.492-.734a5.1,5.1,0,0,0-.812-3.105,2.68,2.68,0,0,0-2.273-1.082A2.651,2.651,0,0,0,65.27-9.16a5,5,0,0,0-.84,3v.836a5.107,5.107,0,0,0,.824,3.082,2.662,2.662,0,0,0,2.27,1.121,2.652,2.652,0,0,0,2.25-1.059,5.079,5.079,0,0,0,.82-3.035ZM74.4.977H73.156l4.75-12.352h1.234Zm8.984-4.562.219,1.5.32-1.352,2.25-7.937h1.266l2.2,7.938.313,1.375.242-1.531,1.766-7.781h1.508L90.7,0H89.336L86.992-8.289l-.18-.867-.18.867L84.2,0H82.836l-2.75-11.375h1.5ZM95.188.977H93.945L98.7-11.375H99.93Zm15.281-6.3a7.037,7.037,0,0,1-.562,2.918,4.261,4.261,0,0,1-1.594,1.9,4.385,4.385,0,0,1-2.406.656,4.347,4.347,0,0,1-2.383-.66,4.363,4.363,0,0,1-1.613-1.883,6.752,6.752,0,0,1-.59-2.832v-.82a6.953,6.953,0,0,1,.57-2.9,4.347,4.347,0,0,1,1.613-1.926,4.329,4.329,0,0,1,2.387-.668,4.41,4.41,0,0,1,2.41.66,4.253,4.253,0,0,1,1.605,1.914,7.071,7.071,0,0,1,.563,2.918Zm-1.492-.734a5.1,5.1,0,0,0-.812-3.105,2.68,2.68,0,0,0-2.273-1.082,2.651,2.651,0,0,0-2.238,1.082,5,5,0,0,0-.84,3v.836a5.107,5.107,0,0,0,.824,3.082,2.662,2.662,0,0,0,2.27,1.121,2.652,2.652,0,0,0,2.25-1.059,5.079,5.079,0,0,0,.82-3.035Z" transform="translate(730.287 4677.128)" fill="#12263f"/>
    <g id="Grupo_171862" data-name="Grupo 171862" transform="translate(-649.713 -578.465)">
      <path id="Trazado_207974" data-name="Trazado 207974" d="M1458.905,5233H1412.3a25.324,25.324,0,0,1-25.3-25.3V5127.28h97.2V5207.7A25.324,25.324,0,0,1,1458.905,5233ZM1399,5139.28V5207.7a13.31,13.31,0,0,0,13.3,13.3h46.61a13.31,13.31,0,0,0,13.295-13.3V5139.28Z" fill="#fff"/>
      <path id="Trazado_207975" data-name="Trazado 207975" d="M1393,5133.28v74.425A19.3,19.3,0,0,0,1412.3,5227h46.61a19.3,19.3,0,0,0,19.295-19.295V5133.28Z" fill="#ff8000"/>
    </g>
    <g id="Grupo_171864" data-name="Grupo 171864" transform="translate(-649.713 -578.465)">
      <ellipse id="Elipse_5540" data-name="Elipse 5540" cx="7.383" cy="7.152" rx="7.383" ry="7.152" transform="translate(1457.146 5139.465)" fill="#81b1fa"/>
      <ellipse id="Elipse_5541" data-name="Elipse 5541" cx="4.526" cy="4.385" rx="4.526" ry="4.385" transform="translate(1460.003 5142.232)" fill="#f70"/>
    </g>
    <g id="Grupo_171865" data-name="Grupo 171865" transform="translate(-649.713 -578.465)">
      <ellipse id="Elipse_5542" data-name="Elipse 5542" cx="7.383" cy="7.152" rx="7.383" ry="7.152" transform="translate(1426.346 5152.265)" fill="#81b1fa"/>
      <ellipse id="Elipse_5543" data-name="Elipse 5543" cx="4.526" cy="4.385" rx="4.526" ry="4.385" transform="translate(1429.203 5155.033)" fill="#f70"/>
    </g>
    <g id="Grupo_171866" data-name="Grupo 171866" transform="translate(-649.713 -578.465)">
      <ellipse id="Elipse_5544" data-name="Elipse 5544" cx="7.383" cy="7.152" rx="7.383" ry="7.152" transform="translate(1426.346 5172.665)" fill="#81b1fa"/>
      <ellipse id="Elipse_5545" data-name="Elipse 5545" cx="4.526" cy="4.385" rx="4.526" ry="4.385" transform="translate(1429.203 5175.433)" fill="#f70"/>
    </g>
    <g id="Grupo_171867" data-name="Grupo 171867" transform="translate(-649.713 -578.465)">
      <ellipse id="Elipse_5546" data-name="Elipse 5546" cx="7.383" cy="7.152" rx="7.383" ry="7.152" transform="translate(1426.346 5193.465)" fill="#81b1fa"/>
      <ellipse id="Elipse_5547" data-name="Elipse 5547" cx="4.526" cy="4.385" rx="4.526" ry="4.385" transform="translate(1429.203 5196.232)" fill="#f70"/>
    </g>
    <g id="Grupo_171868" data-name="Grupo 171868" transform="translate(-649.713 -578.465)">
      <ellipse id="Elipse_5548" data-name="Elipse 5548" cx="7.383" cy="7.152" rx="7.383" ry="7.152" transform="translate(1457.146 5160.265)" fill="#81b1fa"/>
      <ellipse id="Elipse_5549" data-name="Elipse 5549" cx="4.526" cy="4.385" rx="4.526" ry="4.385" transform="translate(1460.003 5163.033)" fill="#f70"/>
    </g>
    <g id="Grupo_171869" data-name="Grupo 171869" transform="translate(-649.713 -578.465)">
      <ellipse id="Elipse_5550" data-name="Elipse 5550" cx="7.383" cy="7.152" rx="7.383" ry="7.152" transform="translate(1457.146 5180.265)" fill="#81b1fa"/>
      <ellipse id="Elipse_5551" data-name="Elipse 5551" cx="4.526" cy="4.385" rx="4.526" ry="4.385" transform="translate(1460.003 5183.033)" fill="#f70"/>
    </g>
    <g id="Grupo_171870" data-name="Grupo 171870" transform="translate(-649.713 -578.465)">
      <ellipse id="Elipse_5552" data-name="Elipse 5552" cx="7.383" cy="7.152" rx="7.383" ry="7.152" transform="translate(1399.946 5139.465)" fill="#81b1fa"/>
      <ellipse id="Elipse_5553" data-name="Elipse 5553" cx="4.526" cy="4.385" rx="4.526" ry="4.385" transform="translate(1402.803 5142.232)" fill="#f70"/>
    </g>
    <g id="Grupo_171871" data-name="Grupo 171871" transform="translate(-649.713 -578.465)">
      <ellipse id="Elipse_5554" data-name="Elipse 5554" cx="7.383" cy="7.152" rx="7.383" ry="7.152" transform="translate(1399.946 5160.265)" fill="#81b1fa"/>
      <ellipse id="Elipse_5555" data-name="Elipse 5555" cx="4.526" cy="4.385" rx="4.526" ry="4.385" transform="translate(1402.803 5163.033)" fill="#f70"/>
    </g>
    <g id="Grupo_171872" data-name="Grupo 171872" transform="translate(-649.713 -578.465)">
      <ellipse id="Elipse_5556" data-name="Elipse 5556" cx="7.383" cy="7.152" rx="7.383" ry="7.152" transform="translate(1399.946 5201.065)" fill="#81b1fa"/>
      <ellipse id="Elipse_5557" data-name="Elipse 5557" cx="4.526" cy="4.385" rx="4.526" ry="4.385" transform="translate(1402.803 5203.833)" fill="#f70"/>
    </g>
    <g id="Grupo_171861" data-name="Grupo 171861" transform="translate(-663.313 -578.465)">
      <path id="Trazado_207972" data-name="Trazado 207972" d="M1288.505,5233H1241.9a25.324,25.324,0,0,1-25.3-25.3V5127.28h97.2V5207.7A25.324,25.324,0,0,1,1288.505,5233Zm-59.905-93.72V5207.7a13.31,13.31,0,0,0,13.3,13.3h46.61a13.31,13.31,0,0,0,13.3-13.3V5139.28Z" fill="#fff"/>
      <path id="Trazado_207973" data-name="Trazado 207973" d="M1222.6,5133.28v74.425A19.3,19.3,0,0,0,1241.9,5227h46.61a19.3,19.3,0,0,0,19.3-19.295V5133.28Z" fill="#81b1fa"/>
    </g>
    <g id="Grupo_171863" data-name="Grupo 171863" transform="translate(-663.313 -578.465)">
      <ellipse id="Elipse_5538" data-name="Elipse 5538" cx="7.383" cy="7.152" rx="7.383" ry="7.152" transform="translate(1228.346 5144.265)" fill="#f70"/>
      <ellipse id="Elipse_5539" data-name="Elipse 5539" cx="4.526" cy="4.385" rx="4.526" ry="4.385" transform="translate(1231.203 5147.033)" fill="#81b1fa"/>
    </g>
    <g id="Grupo_171873" data-name="Grupo 171873" transform="translate(-663.313 -578.465)">
      <ellipse id="Elipse_5558" data-name="Elipse 5558" cx="7.383" cy="7.152" rx="7.383" ry="7.152" transform="translate(1249.346 5150.865)" fill="#f70"/>
      <ellipse id="Elipse_5559" data-name="Elipse 5559" cx="4.526" cy="4.385" rx="4.526" ry="4.385" transform="translate(1252.203 5153.632)" fill="#81b1fa"/>
    </g>
    <g id="Grupo_171874" data-name="Grupo 171874" transform="translate(-663.313 -578.465)">
      <ellipse id="Elipse_5560" data-name="Elipse 5560" cx="7.383" cy="7.152" rx="7.383" ry="7.152" transform="translate(1271.346 5159.065)" fill="#f70"/>
      <ellipse id="Elipse_5561" data-name="Elipse 5561" cx="4.526" cy="4.385" rx="4.526" ry="4.385" transform="translate(1274.203 5161.833)" fill="#81b1fa"/>
    </g>
    <g id="Grupo_171875" data-name="Grupo 171875" transform="translate(-663.313 -578.465)">
      <ellipse id="Elipse_5562" data-name="Elipse 5562" cx="7.383" cy="7.152" rx="7.383" ry="7.152" transform="translate(1291.346 5169.465)" fill="#f70"/>
      <ellipse id="Elipse_5563" data-name="Elipse 5563" cx="4.526" cy="4.385" rx="4.526" ry="4.385" transform="translate(1294.203 5172.232)" fill="#81b1fa"/>
    </g>
    <g id="Grupo_171876" data-name="Grupo 171876" transform="translate(-663.313 -578.465)">
      <ellipse id="Elipse_5564" data-name="Elipse 5564" cx="7.383" cy="7.152" rx="7.383" ry="7.152" transform="translate(1290.746 5190.96)" fill="#f70"/>
      <ellipse id="Elipse_5565" data-name="Elipse 5565" cx="4.526" cy="4.385" rx="4.526" ry="4.385" transform="translate(1293.603 5193.728)" fill="#81b1fa"/>
    </g>
    <g id="Grupo_171877" data-name="Grupo 171877" transform="translate(-663.313 -578.465)">
      <ellipse id="Elipse_5566" data-name="Elipse 5566" cx="7.383" cy="7.152" rx="7.383" ry="7.152" transform="translate(1275.346 5206.361)" fill="#f70"/>
      <ellipse id="Elipse_5567" data-name="Elipse 5567" cx="4.526" cy="4.385" rx="4.526" ry="4.385" transform="translate(1278.203 5209.128)" fill="#81b1fa"/>
    </g>
    <g id="Grupo_171878" data-name="Grupo 171878" transform="translate(-663.313 -578.465)">
      <path id="Trazado_208959" data-name="Trazado 208959" d="M7.383,0a7.27,7.27,0,0,1,7.383,7.152A7.27,7.27,0,0,1,7.383,14.3,7.27,7.27,0,0,1,0,7.152,7.27,7.27,0,0,1,7.383,0Z" transform="translate(1253.346 5207.96)" fill="#f70"/>
      <ellipse id="Elipse_5569" data-name="Elipse 5569" cx="4.526" cy="4.385" rx="4.526" ry="4.385" transform="translate(1256.203 5210.728)" fill="#81b1fa"/>
    </g>
    <g id="Grupo_171879" data-name="Grupo 171879" transform="translate(-663.313 -578.465)">
      <path id="Trazado_208958" data-name="Trazado 208958" d="M7.383,0a7.27,7.27,0,0,1,7.383,7.152A7.27,7.27,0,0,1,7.383,14.3,7.27,7.27,0,0,1,0,7.152,7.27,7.27,0,0,1,7.383,0Z" transform="translate(1259.946 5186.761)" fill="#f70"/>
      <ellipse id="Elipse_5571" data-name="Elipse 5571" cx="4.526" cy="4.385" rx="4.526" ry="4.385" transform="translate(1262.803 5189.528)" fill="#81b1fa"/>
    </g>
    <g id="Grupo_171880" data-name="Grupo 171880" transform="translate(-663.313 -578.465)">
      <path id="Trazado_208960" data-name="Trazado 208960" d="M7.383,0a7.27,7.27,0,0,1,7.383,7.152A7.27,7.27,0,0,1,7.383,14.3,7.27,7.27,0,0,1,0,7.152,7.27,7.27,0,0,1,7.383,0Z" transform="translate(1236.946 5186.761)" fill="#f70"/>
      <ellipse id="Elipse_5573" data-name="Elipse 5573" cx="4.526" cy="4.385" rx="4.526" ry="4.385" transform="translate(1239.803 5189.528)" fill="#81b1fa"/>
    </g>
    <g id="Grupo_171860" data-name="Grupo 171860" transform="translate(-641.913 -596.865)">
      <path id="Trazado_207970" data-name="Trazado 207970" d="M1451.1,5082.4h-46.61a25.323,25.323,0,0,1-25.3-25.3V4976.68h97.2V5057.1A25.324,25.324,0,0,1,1451.1,5082.4Zm-59.905-93.72V5057.1a13.31,13.31,0,0,0,13.3,13.3h46.61a13.31,13.31,0,0,0,13.3-13.3V4988.68Z" fill="#fff"/>
      <path id="Trazado_207971" data-name="Trazado 207971" d="M1385.2,4982.68V5057.1a19.3,19.3,0,0,0,19.3,19.295h46.61a19.3,19.3,0,0,0,19.3-19.295V4982.68Z" fill="#81b1fa"/>
    </g>
    <path id="Trazado_208967" data-name="Trazado 208967" d="M8.527,0a8.4,8.4,0,0,1,8.527,8.261,8.4,8.4,0,0,1-8.527,8.261A8.4,8.4,0,0,1,0,8.261,8.4,8.4,0,0,1,8.527,0Z" transform="translate(752.171 4398.815)" fill="#ff9d00"/>
    <path id="Trazado_208968" data-name="Trazado 208968" d="M8.527,0a8.4,8.4,0,0,1,8.527,8.261,8.4,8.4,0,0,1-8.527,8.261A8.4,8.4,0,0,1,0,8.261,8.4,8.4,0,0,1,8.527,0Z" transform="translate(776.686 4457.971)" fill="#ff9d00"/>
    <path id="Trazado_208969" data-name="Trazado 208969" d="M6.6,0a6.5,6.5,0,0,1,6.6,6.4,6.5,6.5,0,0,1-6.6,6.4A6.5,6.5,0,0,1,0,6.4,6.5,6.5,0,0,1,6.6,0Z" transform="translate(769.432 4411.339)" fill="#ff9d00"/>
    <path id="Trazado_208970" data-name="Trazado 208970" d="M6.6,0a6.5,6.5,0,0,1,6.6,6.4,6.5,6.5,0,0,1-6.6,6.4A6.5,6.5,0,0,1,0,6.4,6.5,6.5,0,0,1,6.6,0Z" transform="translate(750.485 4458.739)" fill="#ff9d00"/>
    <path id="Trazado_208971" data-name="Trazado 208971" d="M6.6,0a6.5,6.5,0,0,1,6.6,6.4,6.5,6.5,0,0,1-6.6,6.4A6.5,6.5,0,0,1,0,6.4,6.5,6.5,0,0,1,6.6,0Z" transform="translate(786.485 4411.339)" fill="#ff9d00"/>
    <path id="Trazado_208972" data-name="Trazado 208972" d="M6.6,0a6.5,6.5,0,0,1,6.6,6.4,6.5,6.5,0,0,1-6.6,6.4A6.5,6.5,0,0,1,0,6.4,6.5,6.5,0,0,1,6.6,0Z" transform="translate(786.485 4436.387)" fill="#ff9d00"/>
    <path id="Trazado_208973" data-name="Trazado 208973" d="M6.6,0a6.5,6.5,0,0,1,6.6,6.4,6.5,6.5,0,0,1-6.6,6.4A6.5,6.5,0,0,1,0,6.4,6.5,6.5,0,0,1,6.6,0Z" transform="translate(761.438 4436.387)" fill="#ff9d00"/>
    <path id="Trazado_208974" data-name="Trazado 208974" d="M6.6,0a6.5,6.5,0,0,1,6.6,6.4,6.5,6.5,0,0,1-6.6,6.4A6.5,6.5,0,0,1,0,6.4,6.5,6.5,0,0,1,6.6,0Z" transform="translate(749.713 4423.063)" fill="#ff9d00"/>
    <path id="Trazado_208975" data-name="Trazado 208975" d="M6.6,0a6.5,6.5,0,0,1,6.6,6.4,6.5,6.5,0,0,1-6.6,6.4A6.5,6.5,0,0,1,0,6.4,6.5,6.5,0,0,1,6.6,0Z" transform="translate(792.881 4453.441)" fill="#ff9d00"/>
    <path id="Trazado_208976" data-name="Trazado 208976" d="M6.6,0a6.5,6.5,0,0,1,6.6,6.4,6.5,6.5,0,0,1-6.6,6.4A6.5,6.5,0,0,1,0,6.4,6.5,6.5,0,0,1,6.6,0Z" transform="translate(812.284 4399.939)" fill="#ff9d00"/>
    <path id="Trazado_208977" data-name="Trazado 208977" d="M6.6,0a6.5,6.5,0,0,1,6.6,6.4,6.5,6.5,0,0,1-6.6,6.4A6.5,6.5,0,0,1,0,6.4,6.5,6.5,0,0,1,6.6,0Z" transform="translate(808.272 4423.526)" fill="#ff9d00"/>
    <path id="Trazado_208978" data-name="Trazado 208978" d="M6.6,0a6.5,6.5,0,0,1,6.6,6.4,6.5,6.5,0,0,1-6.6,6.4A6.5,6.5,0,0,1,0,6.4,6.5,6.5,0,0,1,6.6,0Z" transform="translate(808.336 4453.441)" fill="#ff9d00"/>
    <g id="Grupo_171859" data-name="Grupo 171859" transform="translate(-667.513 -596.865)">
      <path id="Trazado_207968" data-name="Trazado 207968" d="M1292.7,5082.4h-46.61a25.323,25.323,0,0,1-25.295-25.3V4976.68H1318V5057.1A25.324,25.324,0,0,1,1292.7,5082.4Zm-59.9-93.72V5057.1a13.31,13.31,0,0,0,13.295,13.3h46.61a13.31,13.31,0,0,0,13.3-13.3V4988.68Z" fill="#fff"/>
      <path id="Trazado_207969" data-name="Trazado 207969" d="M1226.8,4982.68V5057.1a19.3,19.3,0,0,0,19.295,19.295h46.61A19.3,19.3,0,0,0,1312,5057.1V4982.68Z" fill="#f70"/>
    </g>
    <path id="Trazado_208979" data-name="Trazado 208979" d="M8.527,0a8.4,8.4,0,0,1,8.527,8.261,8.4,8.4,0,0,1-8.527,8.261A8.4,8.4,0,0,1,0,8.261,8.4,8.4,0,0,1,8.527,0Z" transform="translate(563.558 4396.206)" fill="#81b1fa"/>
    <path id="Trazado_208980" data-name="Trazado 208980" d="M6.6,0a6.5,6.5,0,0,1,6.6,6.4,6.5,6.5,0,0,1-6.6,6.4A6.5,6.5,0,0,1,0,6.4,6.5,6.5,0,0,1,6.6,0Z" transform="translate(609.927 4403.406)" fill="#81b1fa"/>
    <path id="Trazado_208981" data-name="Trazado 208981" d="M6.6,0a6.5,6.5,0,0,1,6.6,6.4,6.5,6.5,0,0,1-6.6,6.4A6.5,6.5,0,0,1,0,6.4,6.5,6.5,0,0,1,6.6,0Z" transform="translate(630.585 4405.997)" fill="#81b1fa"/>
    <path id="Trazado_208982" data-name="Trazado 208982" d="M6.6,0a6.5,6.5,0,0,1,6.6,6.4,6.5,6.5,0,0,1-6.6,6.4A6.5,6.5,0,0,1,0,6.4,6.5,6.5,0,0,1,6.6,0Z" transform="translate(625.287 4449.139)" fill="#81b1fa"/>
    <path id="Trazado_208983" data-name="Trazado 208983" d="M6.6,0a6.5,6.5,0,0,1,6.6,6.4,6.5,6.5,0,0,1-6.6,6.4A6.5,6.5,0,0,1,0,6.4,6.5,6.5,0,0,1,6.6,0Z" transform="translate(604.065 4422.592)" fill="#81b1fa"/>
    <path id="Trazado_208984" data-name="Trazado 208984" d="M6.6,0a6.5,6.5,0,0,1,6.6,6.4,6.5,6.5,0,0,1-6.6,6.4A6.5,6.5,0,0,1,0,6.4,6.5,6.5,0,0,1,6.6,0Z" transform="translate(583.28 4422.592)" fill="#81b1fa"/>
    <path id="Trazado_208985" data-name="Trazado 208985" d="M6.6,0a6.5,6.5,0,0,1,6.6,6.4,6.5,6.5,0,0,1-6.6,6.4A6.5,6.5,0,0,1,0,6.4,6.5,6.5,0,0,1,6.6,0Z" transform="translate(590.275 4396.806)" fill="#81b1fa"/>
    <path id="Trazado_208986" data-name="Trazado 208986" d="M6.6,0a6.5,6.5,0,0,1,6.6,6.4,6.5,6.5,0,0,1-6.6,6.4A6.5,6.5,0,0,1,0,6.4,6.5,6.5,0,0,1,6.6,0Z" transform="translate(589.676 4440.711)" fill="#81b1fa"/>
    <path id="Trazado_208987" data-name="Trazado 208987" d="M6.6,0a6.5,6.5,0,0,1,6.6,6.4,6.5,6.5,0,0,1-6.6,6.4A6.5,6.5,0,0,1,0,6.4,6.5,6.5,0,0,1,6.6,0Z" transform="translate(589.676 4458.298)" fill="#81b1fa"/>
    <path id="Trazado_208988" data-name="Trazado 208988" d="M6.6,0a6.5,6.5,0,0,1,6.6,6.4,6.5,6.5,0,0,1-6.6,6.4A6.5,6.5,0,0,1,0,6.4,6.5,6.5,0,0,1,6.6,0Z" transform="translate(625.886 4431.739)" fill="#81b1fa"/>
    <path id="Trazado_208989" data-name="Trazado 208989" d="M6.6,0a6.5,6.5,0,0,1,6.6,6.4,6.5,6.5,0,0,1-6.6,6.4A6.5,6.5,0,0,1,0,6.4,6.5,6.5,0,0,1,6.6,0Z" transform="translate(608.466 4457.97)" fill="#81b1fa"/>
    <path id="Trazado_208990" data-name="Trazado 208990" d="M6.6,0a6.5,6.5,0,0,1,6.6,6.4,6.5,6.5,0,0,1-6.6,6.4A6.5,6.5,0,0,1,0,6.4,6.5,6.5,0,0,1,6.6,0Z" transform="translate(564.686 4457.539)" fill="#81b1fa"/>
    <path id="Trazado_208991" data-name="Trazado 208991" d="M6.6,0a6.5,6.5,0,0,1,6.6,6.4,6.5,6.5,0,0,1-6.6,6.4A6.5,6.5,0,0,1,0,6.4,6.5,6.5,0,0,1,6.6,0Z" transform="translate(568.152 4433.783)" fill="#81b1fa"/>
    <path id="Trazado_208992" data-name="Trazado 208992" d="M12,0H157a12,12,0,0,1,12,12V87a12,12,0,0,1-12,12H12A12,12,0,0,1,0,87V12A12,12,0,0,1,12,0Z" transform="translate(886.287 4477)" fill="#d0f0fa"/>
    <path id="Trazado_208993" data-name="Trazado 208993" d="M7.594-5.023H2.82V0H1.32V-11.375H8.367v1.227H2.82v3.9H7.594ZM14.891,0a3.036,3.036,0,0,1-.2-.891A3.225,3.225,0,0,1,12.281.156,2.984,2.984,0,0,1,10.23-.551a2.287,2.287,0,0,1-.8-1.793,2.39,2.39,0,0,1,1-2.051,4.733,4.733,0,0,1,2.824-.73h1.406v-.664A1.623,1.623,0,0,0,14.211-7a1.821,1.821,0,0,0-1.336-.449,2.107,2.107,0,0,0-1.3.391,1.151,1.151,0,0,0-.523.945H9.6a2,2,0,0,1,.449-1.223,3.066,3.066,0,0,1,1.219-.934,4.1,4.1,0,0,1,1.691-.344,3.342,3.342,0,0,1,2.289.73,2.635,2.635,0,0,1,.859,2.012v3.891a4.757,4.757,0,0,0,.3,1.852V0Zm-2.4-1.1a2.54,2.54,0,0,0,1.289-.352,2.127,2.127,0,0,0,.883-.914V-4.1H13.531q-2.656,0-2.656,1.555a1.316,1.316,0,0,0,.453,1.063A1.742,1.742,0,0,0,12.492-1.1ZM23.3-2.242a1.064,1.064,0,0,0-.441-.91,4.249,4.249,0,0,0-1.539-.559,7.277,7.277,0,0,1-1.742-.562,2.479,2.479,0,0,1-.953-.781,1.869,1.869,0,0,1-.309-1.078,2.193,2.193,0,0,1,.879-1.758,3.432,3.432,0,0,1,2.246-.719,3.532,3.532,0,0,1,2.332.742,2.357,2.357,0,0,1,.895,1.9H23.211a1.3,1.3,0,0,0-.5-1.023,1.888,1.888,0,0,0-1.27-.43,1.976,1.976,0,0,0-1.234.344,1.082,1.082,0,0,0-.445.9.877.877,0,0,0,.414.789,5.1,5.1,0,0,0,1.5.508,7.8,7.8,0,0,1,1.754.578,2.558,2.558,0,0,1,1,.809,1.988,1.988,0,0,1,.324,1.152,2.163,2.163,0,0,1-.906,1.816,3.8,3.8,0,0,1-2.352.684,4.257,4.257,0,0,1-1.8-.359,2.922,2.922,0,0,1-1.223-1A2.42,2.42,0,0,1,18.023-2.6h1.445a1.5,1.5,0,0,0,.582,1.152,2.258,2.258,0,0,0,1.434.426A2.331,2.331,0,0,0,22.8-1.355,1.02,1.02,0,0,0,23.3-2.242Zm6.836,2.4a3.693,3.693,0,0,1-2.8-1.129,4.19,4.19,0,0,1-1.078-3.02v-.266a5.073,5.073,0,0,1,.48-2.246,3.748,3.748,0,0,1,1.344-1.547,3.378,3.378,0,0,1,1.871-.559,3.166,3.166,0,0,1,2.563,1.086,4.7,4.7,0,0,1,.914,3.109v.6H27.7a3,3,0,0,0,.73,2.02,2.3,2.3,0,0,0,1.777.77,2.517,2.517,0,0,0,1.3-.312,3.259,3.259,0,0,0,.93-.828l.883.688A3.55,3.55,0,0,1,30.133.156Zm-.18-7.578a1.928,1.928,0,0,0-1.469.637A3.1,3.1,0,0,0,27.75-5h4.234v-.109a2.753,2.753,0,0,0-.594-1.707A1.815,1.815,0,0,0,29.953-7.422ZM44.281,0a3.036,3.036,0,0,1-.2-.891A3.225,3.225,0,0,1,41.672.156a2.984,2.984,0,0,1-2.051-.707,2.287,2.287,0,0,1-.8-1.793,2.39,2.39,0,0,1,1-2.051,4.733,4.733,0,0,1,2.824-.73h1.406v-.664A1.623,1.623,0,0,0,43.6-7a1.821,1.821,0,0,0-1.336-.449,2.107,2.107,0,0,0-1.3.391,1.151,1.151,0,0,0-.523.945H38.992a2,2,0,0,1,.449-1.223,3.066,3.066,0,0,1,1.219-.934,4.1,4.1,0,0,1,1.691-.344,3.342,3.342,0,0,1,2.289.73A2.635,2.635,0,0,1,45.5-5.867v3.891a4.757,4.757,0,0,0,.3,1.852V0Zm-2.4-1.1a2.54,2.54,0,0,0,1.289-.352,2.127,2.127,0,0,0,.883-.914V-4.1H42.922q-2.656,0-2.656,1.555a1.316,1.316,0,0,0,.453,1.063A1.742,1.742,0,0,0,41.883-1.1Zm9.273.078a2.082,2.082,0,0,0,1.352-.469,1.649,1.649,0,0,0,.641-1.172h1.367a2.621,2.621,0,0,1-.5,1.383,3.293,3.293,0,0,1-1.23,1.047,3.55,3.55,0,0,1-1.629.391A3.482,3.482,0,0,1,48.41-1a4.59,4.59,0,0,1-1.02-3.152v-.242a5.089,5.089,0,0,1,.453-2.2,3.451,3.451,0,0,1,1.3-1.492,3.7,3.7,0,0,1,2-.531,3.39,3.39,0,0,1,2.363.852,3.043,3.043,0,0,1,1,2.211H53.148a1.992,1.992,0,0,0-.621-1.348,1.932,1.932,0,0,0-1.379-.527,2.023,2.023,0,0,0-1.707.793,3.724,3.724,0,0,0-.605,2.293v.273a3.65,3.65,0,0,0,.6,2.25A2.033,2.033,0,0,0,51.156-1.023Zm10.2.188a3.07,3.07,0,0,1-2.477.992,2.628,2.628,0,0,1-2.059-.785,3.4,3.4,0,0,1-.715-2.324v-5.5h1.445v5.461q0,1.922,1.563,1.922A2.163,2.163,0,0,0,61.32-2.3V-8.453h1.445V0H61.391ZM64.578-4.3a4.993,4.993,0,0,1,.488-2.234A3.643,3.643,0,0,1,66.426-8.07a3.7,3.7,0,0,1,1.988-.539,3.565,3.565,0,0,1,2.793,1.2,4.6,4.6,0,0,1,1.066,3.18v.1A5.036,5.036,0,0,1,71.8-1.918,3.589,3.589,0,0,1,70.449-.391a3.743,3.743,0,0,1-2.02.547,3.556,3.556,0,0,1-2.785-1.2A4.575,4.575,0,0,1,64.578-4.2Zm1.453.172a3.616,3.616,0,0,0,.652,2.258,2.088,2.088,0,0,0,1.746.852,2.075,2.075,0,0,0,1.75-.863A3.955,3.955,0,0,0,70.828-4.3a3.61,3.61,0,0,0-.66-2.254,2.1,2.1,0,0,0-1.754-.863,2.075,2.075,0,0,0-1.727.852A3.925,3.925,0,0,0,66.031-4.133ZM79.008-2.242a1.064,1.064,0,0,0-.441-.91,4.249,4.249,0,0,0-1.539-.559,7.277,7.277,0,0,1-1.742-.562,2.479,2.479,0,0,1-.953-.781,1.869,1.869,0,0,1-.309-1.078A2.193,2.193,0,0,1,74.9-7.891a3.432,3.432,0,0,1,2.246-.719,3.532,3.532,0,0,1,2.332.742,2.357,2.357,0,0,1,.895,1.9H78.922a1.3,1.3,0,0,0-.5-1.023,1.888,1.888,0,0,0-1.27-.43,1.976,1.976,0,0,0-1.234.344,1.082,1.082,0,0,0-.445.9.877.877,0,0,0,.414.789,5.1,5.1,0,0,0,1.5.508,7.8,7.8,0,0,1,1.754.578,2.558,2.558,0,0,1,1,.809,1.988,1.988,0,0,1,.324,1.152,2.163,2.163,0,0,1-.906,1.816A3.8,3.8,0,0,1,77.2.156,4.257,4.257,0,0,1,75.4-.2a2.922,2.922,0,0,1-1.223-1A2.42,2.42,0,0,1,73.734-2.6H75.18a1.5,1.5,0,0,0,.582,1.152,2.258,2.258,0,0,0,1.434.426,2.331,2.331,0,0,0,1.316-.332A1.02,1.02,0,0,0,79.008-2.242ZM87.555,0a3.036,3.036,0,0,1-.2-.891A3.225,3.225,0,0,1,84.945.156a2.984,2.984,0,0,1-2.051-.707,2.288,2.288,0,0,1-.8-1.793,2.39,2.39,0,0,1,1-2.051,4.733,4.733,0,0,1,2.824-.73h1.406v-.664A1.623,1.623,0,0,0,86.875-7a1.821,1.821,0,0,0-1.336-.449,2.108,2.108,0,0,0-1.3.391,1.151,1.151,0,0,0-.523.945H82.266a2,2,0,0,1,.449-1.223,3.066,3.066,0,0,1,1.219-.934,4.1,4.1,0,0,1,1.691-.344,3.342,3.342,0,0,1,2.289.73,2.635,2.635,0,0,1,.859,2.012v3.891a4.757,4.757,0,0,0,.3,1.852V0Zm-2.4-1.1a2.54,2.54,0,0,0,1.289-.352,2.127,2.127,0,0,0,.883-.914V-4.1H86.2q-2.656,0-2.656,1.555a1.316,1.316,0,0,0,.453,1.063A1.742,1.742,0,0,0,85.156-1.1Z" transform="translate(943.287 4512)" fill="#12263f"/>
    <path id="Trazado_208994" data-name="Trazado 208994" d="M7.594-5.023H2.82V0H1.32V-11.375H8.367v1.227H2.82v3.9H7.594ZM14.891,0a3.036,3.036,0,0,1-.2-.891A3.225,3.225,0,0,1,12.281.156,2.984,2.984,0,0,1,10.23-.551a2.287,2.287,0,0,1-.8-1.793,2.39,2.39,0,0,1,1-2.051,4.733,4.733,0,0,1,2.824-.73h1.406v-.664A1.623,1.623,0,0,0,14.211-7a1.821,1.821,0,0,0-1.336-.449,2.107,2.107,0,0,0-1.3.391,1.151,1.151,0,0,0-.523.945H9.6a2,2,0,0,1,.449-1.223,3.066,3.066,0,0,1,1.219-.934,4.1,4.1,0,0,1,1.691-.344,3.342,3.342,0,0,1,2.289.73,2.635,2.635,0,0,1,.859,2.012v3.891a4.757,4.757,0,0,0,.3,1.852V0Zm-2.4-1.1a2.54,2.54,0,0,0,1.289-.352,2.127,2.127,0,0,0,.883-.914V-4.1H13.531q-2.656,0-2.656,1.555a1.316,1.316,0,0,0,.453,1.063A1.742,1.742,0,0,0,12.492-1.1ZM23.3-2.242a1.064,1.064,0,0,0-.441-.91,4.249,4.249,0,0,0-1.539-.559,7.277,7.277,0,0,1-1.742-.562,2.479,2.479,0,0,1-.953-.781,1.869,1.869,0,0,1-.309-1.078,2.193,2.193,0,0,1,.879-1.758,3.432,3.432,0,0,1,2.246-.719,3.532,3.532,0,0,1,2.332.742,2.357,2.357,0,0,1,.895,1.9H23.211a1.3,1.3,0,0,0-.5-1.023,1.888,1.888,0,0,0-1.27-.43,1.976,1.976,0,0,0-1.234.344,1.082,1.082,0,0,0-.445.9.877.877,0,0,0,.414.789,5.1,5.1,0,0,0,1.5.508,7.8,7.8,0,0,1,1.754.578,2.558,2.558,0,0,1,1,.809,1.988,1.988,0,0,1,.324,1.152,2.163,2.163,0,0,1-.906,1.816,3.8,3.8,0,0,1-2.352.684,4.257,4.257,0,0,1-1.8-.359,2.922,2.922,0,0,1-1.223-1A2.42,2.42,0,0,1,18.023-2.6h1.445a1.5,1.5,0,0,0,.582,1.152,2.258,2.258,0,0,0,1.434.426A2.331,2.331,0,0,0,22.8-1.355,1.02,1.02,0,0,0,23.3-2.242Zm6.836,2.4a3.693,3.693,0,0,1-2.8-1.129,4.19,4.19,0,0,1-1.078-3.02v-.266a5.073,5.073,0,0,1,.48-2.246,3.748,3.748,0,0,1,1.344-1.547,3.378,3.378,0,0,1,1.871-.559,3.166,3.166,0,0,1,2.563,1.086,4.7,4.7,0,0,1,.914,3.109v.6H27.7a3,3,0,0,0,.73,2.02,2.3,2.3,0,0,0,1.777.77,2.517,2.517,0,0,0,1.3-.312,3.259,3.259,0,0,0,.93-.828l.883.688A3.55,3.55,0,0,1,30.133.156Zm-.18-7.578a1.928,1.928,0,0,0-1.469.637A3.1,3.1,0,0,0,27.75-5h4.234v-.109a2.753,2.753,0,0,0-.594-1.707A1.815,1.815,0,0,0,29.953-7.422ZM38.68-4.3a4.993,4.993,0,0,1,.488-2.234A3.643,3.643,0,0,1,40.527-8.07a3.7,3.7,0,0,1,1.988-.539,3.565,3.565,0,0,1,2.793,1.2,4.6,4.6,0,0,1,1.066,3.18v.1A5.036,5.036,0,0,1,45.9-1.918,3.589,3.589,0,0,1,44.551-.391a3.743,3.743,0,0,1-2.02.547,3.556,3.556,0,0,1-2.785-1.2A4.575,4.575,0,0,1,38.68-4.2Zm1.453.172a3.616,3.616,0,0,0,.652,2.258,2.088,2.088,0,0,0,1.746.852,2.075,2.075,0,0,0,1.75-.863A3.955,3.955,0,0,0,44.93-4.3a3.61,3.61,0,0,0-.66-2.254,2.1,2.1,0,0,0-1.754-.863,2.075,2.075,0,0,0-1.727.852A3.925,3.925,0,0,0,40.133-4.133ZM49.758,0H48.313V-12h1.445Zm5.82.156a3.693,3.693,0,0,1-2.8-1.129A4.19,4.19,0,0,1,51.7-3.992v-.266a5.073,5.073,0,0,1,.48-2.246,3.748,3.748,0,0,1,1.344-1.547A3.378,3.378,0,0,1,55.4-8.609a3.166,3.166,0,0,1,2.563,1.086,4.7,4.7,0,0,1,.914,3.109v.6H53.148a3,3,0,0,0,.73,2.02,2.3,2.3,0,0,0,1.777.77,2.517,2.517,0,0,0,1.3-.312,3.259,3.259,0,0,0,.93-.828l.883.688A3.55,3.55,0,0,1,55.578.156ZM55.4-7.422a1.928,1.928,0,0,0-1.469.637A3.1,3.1,0,0,0,53.2-5H57.43v-.109a2.753,2.753,0,0,0-.594-1.707A1.815,1.815,0,0,0,55.4-7.422ZM60.164-4.3a4.993,4.993,0,0,1,.488-2.234A3.643,3.643,0,0,1,62.012-8.07,3.7,3.7,0,0,1,64-8.609a3.565,3.565,0,0,1,2.793,1.2,4.6,4.6,0,0,1,1.066,3.18v.1a5.036,5.036,0,0,1-.473,2.215A3.589,3.589,0,0,1,66.035-.391a3.743,3.743,0,0,1-2.02.547,3.556,3.556,0,0,1-2.785-1.2A4.575,4.575,0,0,1,60.164-4.2Zm1.453.172a3.616,3.616,0,0,0,.652,2.258,2.088,2.088,0,0,0,1.746.852,2.075,2.075,0,0,0,1.75-.863A3.955,3.955,0,0,0,66.414-4.3a3.61,3.61,0,0,0-.66-2.254A2.1,2.1,0,0,0,64-7.422a2.075,2.075,0,0,0-1.727.852A3.925,3.925,0,0,0,61.617-4.133ZM74.594-2.242a1.064,1.064,0,0,0-.441-.91,4.249,4.249,0,0,0-1.539-.559,7.277,7.277,0,0,1-1.742-.562,2.479,2.479,0,0,1-.953-.781,1.869,1.869,0,0,1-.309-1.078,2.193,2.193,0,0,1,.879-1.758,3.432,3.432,0,0,1,2.246-.719,3.532,3.532,0,0,1,2.332.742,2.357,2.357,0,0,1,.895,1.9H74.508A1.3,1.3,0,0,0,74-6.992a1.888,1.888,0,0,0-1.27-.43,1.976,1.976,0,0,0-1.234.344,1.082,1.082,0,0,0-.445.9.877.877,0,0,0,.414.789,5.1,5.1,0,0,0,1.5.508,7.8,7.8,0,0,1,1.754.578,2.558,2.558,0,0,1,1,.809,1.988,1.988,0,0,1,.324,1.152,2.163,2.163,0,0,1-.906,1.816,3.8,3.8,0,0,1-2.352.684,4.257,4.257,0,0,1-1.8-.359,2.922,2.922,0,0,1-1.223-1A2.42,2.42,0,0,1,69.32-2.6h1.445a1.5,1.5,0,0,0,.582,1.152,2.258,2.258,0,0,0,1.434.426A2.331,2.331,0,0,0,74.1-1.355,1.02,1.02,0,0,0,74.594-2.242ZM83.141,0a3.036,3.036,0,0,1-.2-.891A3.225,3.225,0,0,1,80.531.156,2.984,2.984,0,0,1,78.48-.551a2.288,2.288,0,0,1-.8-1.793,2.39,2.39,0,0,1,1-2.051,4.733,4.733,0,0,1,2.824-.73h1.406v-.664A1.623,1.623,0,0,0,82.461-7a1.821,1.821,0,0,0-1.336-.449,2.108,2.108,0,0,0-1.3.391,1.151,1.151,0,0,0-.523.945H77.852A2,2,0,0,1,78.3-7.332a3.066,3.066,0,0,1,1.219-.934,4.1,4.1,0,0,1,1.691-.344,3.342,3.342,0,0,1,2.289.73,2.635,2.635,0,0,1,.859,2.012v3.891a4.757,4.757,0,0,0,.3,1.852V0Zm-2.4-1.1a2.54,2.54,0,0,0,1.289-.352,2.127,2.127,0,0,0,.883-.914V-4.1H81.781q-2.656,0-2.656,1.555a1.316,1.316,0,0,0,.453,1.063A1.742,1.742,0,0,0,80.742-1.1Z" transform="translate(943.287 4554)" fill="#12263f"/>
    <path id="Trazado_208995" data-name="Trazado 208995" d="M13.5,0A13.5,13.5,0,1,1,0,13.5,13.5,13.5,0,0,1,13.5,0Z" transform="translate(904.287 4493)" fill="#81b1fa"/>
    <path id="Trazado_208957" data-name="Trazado 208957" d="M13.5,0A13.5,13.5,0,1,1,0,13.5,13.5,13.5,0,0,1,13.5,0Z" transform="translate(904.287 4535)" fill="#f70"/>
  </g>
</svg>
