<svg xmlns="http://www.w3.org/2000/svg" width="505" height="471.27" viewBox="0 0 505 471.27">
  <g id="Grupo_172431" data-name="Grupo 172431" transform="translate(-810 -1529.797)">
    <g id="Grupo_170713" data-name="Grupo 170713" transform="translate(763.763 1460.713)">
      <g id="Grupo_170677" data-name="Grupo 170677" transform="translate(186.916 77.687)">
        <g id="Grupo_170673" data-name="Grupo 170673" transform="translate(2.385)">
          <path id="Trazado_206993" data-name="Trazado 206993" d="M240.613,222.836l-.851-64.471s-8.853-44.655,42.918-46.781S355.012,76.5,355.012,76.5s13.773,45.717-31.569,63.792-72.876-3.146-83.682,18.075" transform="translate(-155.095 -76.498)" fill="#5bbc82" stroke="#5bbc82" stroke-miterlimit="10" stroke-width="2.835"/>
          <path id="Trazado_206994" data-name="Trazado 206994" d="M251.512,172.172s-27.356-48.2-83.754-38.276C167.758,133.9,185.4,189.183,251.512,172.172Z" transform="translate(-167.758 -66.561)" fill="#5bbc82" stroke="#5bbc82" stroke-miterlimit="10" stroke-width="2.835"/>
          <path id="Trazado_206995" data-name="Trazado 206995" d="M243.018,201.9a2.084,2.084,0,0,1-2.126-2.564c2.121-8.867,10.65-37.194,33.426-39.724a169.012,169.012,0,0,0,40.595-9.309,2.089,2.089,0,0,1,2.831,2.138c-.612,6.989-3.8,23.39-19.954,34.209C278.753,199.406,251.589,201.544,243.018,201.9Z" transform="translate(-154.803 -63.439)" fill="#5bbc82" stroke="#5bbc82" stroke-miterlimit="10" stroke-width="2.835"/>
          <path id="Trazado_206996" data-name="Trazado 206996" d="M177.677,139.449a105.328,105.328,0,0,1,59.387,28.172" transform="translate(-166 -65.338)" fill="none" stroke="#5bbc82" stroke-miterlimit="10" stroke-width="5.669" opacity="0.22" style="mix-blend-mode: multiply;isolation: isolate"/>
          <path id="Trazado_206997" data-name="Trazado 206997" d="M304.037,158.763c-2.251,7.057-7.676,12.673-13.6,17.115a74.181,74.181,0,0,1-34.459,14.087" transform="translate(-152.119 -61.914)" fill="none" stroke="#5bbc82" stroke-miterlimit="10" stroke-width="5.669" opacity="0.22" style="mix-blend-mode: multiply;isolation: isolate"/>
          <path id="Trazado_206998" data-name="Trazado 206998" d="M342.837,101.025a97.935,97.935,0,0,1-19.394,18.015c-4.751,3.34-9.9,6.3-15.577,7.542-6.679,1.466-13.612.474-20.442.139a105.585,105.585,0,0,0-28.29,2.439c-4.3.967-8.8,2.364-11.659,5.713" transform="translate(-153.626 -72.15)" fill="none" stroke="#5bbc82" stroke-miterlimit="10" stroke-width="5.669" opacity="0.22" style="mix-blend-mode: multiply;isolation: isolate"/>
        </g>
        <g id="Grupo_170676" data-name="Grupo 170676" transform="translate(0 143.825)">
          <ellipse id="Elipse_5466" data-name="Elipse 5466" cx="88.275" cy="13.632" rx="88.275" ry="13.632" transform="translate(0 291.579)" fill="#dcf5f9" opacity="0.53" style="mix-blend-mode: multiply;isolation: isolate"/>
          <g id="Grupo_170674" data-name="Grupo 170674" transform="translate(56.912 70.422)">
            <path id="Trazado_206999" data-name="Trazado 206999" d="M246.232,445.452h0c-17.76,0-32.157-13.33-32.157-35.636V264.509h64.313V409.815C278.388,430.638,263.992,445.452,246.232,445.452Z" transform="translate(-214.075 -257.415)" fill="#97ecf7"/>
            <path id="Trazado_207000" data-name="Trazado 207000" d="M278.388,265.577c0,3.918-14.4,7.093-32.156,7.093s-32.157-3.175-32.157-7.093,14.4-7.094,32.157-7.094S278.388,261.659,278.388,265.577Z" transform="translate(-214.075 -258.483)" fill="#61dbeb"/>
          </g>
          <g id="Grupo_170675" data-name="Grupo 170675" transform="translate(41.451 2.683)">
            <path id="Trazado_207001" data-name="Trazado 207001" d="M296.13,202.586a10.906,10.906,0,0,1-3.394,5.4,14.134,14.134,0,0,0-4.581,10.255l-.14,208.027a39.508,39.508,0,0,1-39.508,39.482h0A39.509,39.509,0,0,1,209,426.372l-.7-204.8a25.56,25.56,0,0,0-5.534-15.374,9.35,9.35,0,0,1-1.8-3.723,1.308,1.308,0,0,1,1.309-1.535h92.557A1.337,1.337,0,0,1,296.13,202.586Z" transform="translate(-200.941 -200.944)" fill="none" stroke="#81d4fa" stroke-miterlimit="10" stroke-width="2.835"/>
            <path id="Trazado_207002" data-name="Trazado 207002" d="M212.108,212.953a299.661,299.661,0,0,0,34.116,1.845c17.813-.141,36.67-1.845,36.67-1.845s-21.986,5.9-35.392,5.9C225.246,218.852,212.108,212.953,212.108,212.953Z" transform="translate(-198.962 -198.815)" fill="#dcf5f9" opacity="0.92" style="mix-blend-mode: multiply;isolation: isolate"/>
          </g>
          <path id="Trazado_207003" data-name="Trazado 207003" d="M232.786,265.509a29.126,29.126,0,0,0,24.386-.7" transform="translate(-153.845 -186.94)" fill="none" stroke="#8fcca8" stroke-miterlimit="10" stroke-width="1" opacity="0.51" style="mix-blend-mode: multiply;isolation: isolate"/>
          <path id="Trazado_207004" data-name="Trazado 207004" d="M237.6,262.482l-4.315.8a8.791,8.791,0,0,0-2.13.582,2.948,2.948,0,0,0-1.546,1.509,1.437,1.437,0,0,0-.088.856,1.93,1.93,0,0,0,.759.977,10.208,10.208,0,0,0,6.6,2.18" transform="translate(-154.43 -187.352)" fill="none" stroke="#8fcca8" stroke-miterlimit="10" stroke-width="1" opacity="0.51" style="mix-blend-mode: multiply;isolation: isolate"/>
          <path id="Trazado_207005" data-name="Trazado 207005" d="M246.758,262.675l10.243.387a.986.986,0,0,1,.418.078.826.826,0,0,1,.323.365,2.855,2.855,0,0,1-.333,2.943,4.7,4.7,0,0,1-2.592,1.635,13.979,13.979,0,0,1-3.1.358" transform="translate(-151.369 -187.318)" fill="none" stroke="#8fcca8" stroke-miterlimit="10" stroke-width="1" opacity="0.51" style="mix-blend-mode: multiply;isolation: isolate"/>
          <path id="Trazado_207006" data-name="Trazado 207006" d="M236.491,264.093c4.047-.438,8.228-.864,12.121.328" transform="translate(-153.189 -187.146)" fill="none" stroke="#8fcca8" stroke-miterlimit="10" stroke-width="1" opacity="0.51" style="mix-blend-mode: multiply;isolation: isolate"/>
          <line id="Línea_414" data-name="Línea 414" x1="0.438" y1="78.806" transform="translate(88.275 0)" fill="none" stroke="#5bbc82" stroke-miterlimit="10" stroke-width="2.835"/>
          <rect id="Rectángulo_49337" data-name="Rectángulo 49337" width="97.593" height="6.567" rx="2.789" transform="translate(40.363 0)" fill="#b6e7f2"/>
        </g>
      </g>
      <g id="Grupo_170682" data-name="Grupo 170682" transform="translate(150.298 69.793)">
        <g id="Grupo_170678" data-name="Grupo 170678" transform="translate(0 77.65)">
          <path id="Trazado_207007" data-name="Trazado 207007" d="M134.628,145.565s8.07-2.034,9.379-9.815c0,0,2.4,9.815,9.6,9.815" transform="translate(-134.628 -135.75)" fill="#fff" stroke="#fff" stroke-linecap="round" stroke-linejoin="round" stroke-width="1.417"/>
          <path id="Trazado_207008" data-name="Trazado 207008" d="M153.6,143.606s-8.07,2.034-9.378,9.815c0,0-2.4-9.815-9.6-9.815" transform="translate(-134.628 -134.357)" fill="#fff" stroke="#fff" stroke-linecap="round" stroke-linejoin="round" stroke-width="1.417"/>
        </g>
        <g id="Grupo_170679" data-name="Grupo 170679" transform="translate(218.726 110.957)">
          <path id="Trazado_207009" data-name="Trazado 207009" d="M320.418,173.857s8.07-2.034,9.379-9.815c0,0,2.4,9.815,9.6,9.815" transform="translate(-320.418 -164.042)" fill="#fff" stroke="#fff" stroke-linecap="round" stroke-linejoin="round" stroke-width="1.417"/>
          <path id="Trazado_207010" data-name="Trazado 207010" d="M339.393,171.9s-8.069,2.034-9.378,9.815c0,0-2.4-9.815-9.6-9.815" transform="translate(-320.418 -162.649)" fill="#fff" stroke="#fff" stroke-linecap="round" stroke-linejoin="round" stroke-width="1.417"/>
        </g>
        <g id="Grupo_170680" data-name="Grupo 170680" transform="translate(124.996)">
          <path id="Trazado_207011" data-name="Trazado 207011" d="M240.8,77.921s6.682-1.684,7.766-8.128c0,0,1.986,8.128,7.947,8.128" transform="translate(-240.802 -69.793)" fill="#fff" stroke="#fff" stroke-linecap="round" stroke-linejoin="round" stroke-width="1.417"/>
          <path id="Trazado_207012" data-name="Trazado 207012" d="M256.515,76.3s-6.682,1.685-7.766,8.128c0,0-1.986-8.128-7.947-8.128" transform="translate(-240.802 -68.64)" fill="#fff" stroke="#fff" stroke-linecap="round" stroke-linejoin="round" stroke-width="1.417"/>
        </g>
        <g id="Grupo_170681" data-name="Grupo 170681" transform="translate(85.994 23.526)">
          <path id="Trazado_207013" data-name="Trazado 207013" d="M207.673,104.842s12.387-3.122,14.4-15.066c0,0,3.683,15.066,14.73,15.066" transform="translate(-207.673 -89.776)" fill="#fff" stroke="#fff" stroke-linecap="round" stroke-linejoin="round" stroke-width="1.417"/>
          <path id="Trazado_207014" data-name="Trazado 207014" d="M236.8,101.835s-12.387,3.122-14.4,15.066c0,0-3.683-15.066-14.731-15.066" transform="translate(-207.673 -87.638)" fill="#fff" stroke="#fff" stroke-linecap="round" stroke-linejoin="round" stroke-width="1.417"/>
        </g>
      </g>
      <g id="Grupo_170687" data-name="Grupo 170687" transform="translate(86.864 106.13)">
        <g id="Grupo_170683" data-name="Grupo 170683" transform="translate(0 59.753)">
          <line id="Línea_415" data-name="Línea 415" x1="150.66" transform="translate(53.108 32.225)" fill="none" stroke="#61dbeb" stroke-linecap="round" stroke-linejoin="round" stroke-width="2.835"/>
          <ellipse id="Elipse_5467" data-name="Elipse 5467" cx="32.676" cy="32.225" rx="32.676" ry="32.225" fill="#fff" stroke="#61dbeb" stroke-miterlimit="10" stroke-width="2.835"/>
          <path id="Trazado_207015" data-name="Trazado 207015" d="M121.858,202.42a25.557,25.557,0,0,0,5.718-23.985,27.609,27.609,0,0,1-6.807,10.093,25.842,25.842,0,0,0-9.385-22.62,31.468,31.468,0,0,1-2.463,7.633,31.419,31.419,0,0,0-11.508-13.725L99.444,180.6c.061.636.072,1.4-.444,1.772a1.868,1.868,0,0,1-.768.267l-2.858.539a34.554,34.554,0,0,0,7.854,12.115l-3.17.5a11.287,11.287,0,0,0,5.746,6.377,23.744,23.744,0,0,0,8.372,2.663C116.693,205.117,121.858,202.42,121.858,202.42Z" transform="translate(-78.153 -149.924)" fill="#5bbc82" stroke="#5bbc82" stroke-linecap="round" stroke-linejoin="round" stroke-width="1"/>
          <path id="Trazado_207016" data-name="Trazado 207016" d="M101.818,170.141a64.4,64.4,0,0,0,6.079,15.394c2.822,4.759,6.822,8.969,11.885,11.2" transform="translate(-77.011 -148.094)" fill="none" stroke="#5bbc82" stroke-miterlimit="10" stroke-width="2.835" opacity="0.36" style="mix-blend-mode: multiply;isolation: isolate"/>
        </g>
        <g id="Grupo_170686" data-name="Grupo 170686" transform="translate(263.729)">
          <g id="Grupo_170684" data-name="Grupo 170684">
            <line id="Línea_416" data-name="Línea 416" x2="109.028" transform="translate(0 32.225)" fill="none" stroke="#8fcca8" stroke-linecap="round" stroke-linejoin="round" stroke-width="2.835"/>
            <ellipse id="Elipse_5468" data-name="Elipse 5468" cx="32.676" cy="32.225" rx="32.676" ry="32.225" transform="translate(96.785)" fill="#fff" stroke="#8fcca8" stroke-miterlimit="10" stroke-width="2.835"/>
          </g>
          <g id="Grupo_170685" data-name="Grupo 170685" transform="translate(113.074 11.173)">
            <path id="Trazado_207017" data-name="Trazado 207017" d="M430.293,148.388s6.227-14.245-2.181-22.359-23.75-7.013-25.353-15.88c0,0-6.354,16.591,3.884,27.887A31.387,31.387,0,0,0,430.293,148.388Z" transform="translate(-400.81 -110.149)" fill="#5bbc82"/>
            <path id="Trazado_207018" data-name="Trazado 207018" d="M407.05,121.421a52.705,52.705,0,0,0,17.008,19.219" transform="translate(-399.703 -108.151)" fill="none" stroke="#5bbc82" stroke-miterlimit="10" stroke-width="2.835" opacity="0.36" style="mix-blend-mode: multiply;isolation: isolate"/>
          </g>
        </g>
        <path id="Trazado_207019" data-name="Trazado 207019" d="M260.821,179.7a6.075,6.075,0,1,1-6.075-6.076A6.075,6.075,0,0,1,260.821,179.7Z" transform="translate(-50.977 -87.723)" fill="#61dbeb"/>
        <path id="Trazado_207020" data-name="Trazado 207020" d="M308.952,128.946a6.076,6.076,0,1,1-6.076-6.076A6.076,6.076,0,0,1,308.952,128.946Z" transform="translate(-42.445 -96.721)" fill="#8fcca8"/>
      </g>
      <g id="Grupo_170705" data-name="Grupo 170705" transform="translate(46.237 262.513)">
        <g id="Grupo_170702" data-name="Grupo 170702">
          <rect id="Rectángulo_49338" data-name="Rectángulo 49338" width="146.605" height="217.616" rx="9.318" fill="#00bcd4"/>
          <g id="Grupo_170693" data-name="Grupo 170693" transform="translate(14.635 32.153)">
            <g id="Grupo_170692" data-name="Grupo 170692">
              <g id="Grupo_170691" data-name="Grupo 170691">
                <path id="Trazado_207021" data-name="Trazado 207021" d="M62.488,384.982a70.985,70.985,0,0,1,12.38,4.23,24.873,24.873,0,0,1,10.016,8.207c1.382,2.061,2.349,4.394,3.861,6.362" transform="translate(-57.991 -238.79)" fill="none" stroke="#f7d8d7" stroke-miterlimit="10" stroke-width="0.283"/>
                <path id="Trazado_207022" data-name="Trazado 207022" d="M72.134,380.39A27.024,27.024,0,0,1,86.3,389.123a9.5,9.5,0,0,1,2.6,5.366" transform="translate(-56.281 -239.604)" fill="none" stroke="#f9b3af" stroke-miterlimit="10" stroke-width="0.283"/>
                <path id="Trazado_207023" data-name="Trazado 207023" d="M82.052,364.812a25.812,25.812,0,0,1,13.979,7.768" transform="translate(-54.523 -242.365)" fill="none" stroke="#f7d8d7" stroke-miterlimit="10" stroke-width="0.283"/>
                <path id="Trazado_207024" data-name="Trazado 207024" d="M81.422,356a57.9,57.9,0,0,1,18.167,8.151c1.9,1.284,3.894,3,3.951,5.294" transform="translate(-54.634 -243.927)" fill="none" stroke="#f7d8d7" stroke-miterlimit="10" stroke-width="0.283"/>
                <path id="Trazado_207025" data-name="Trazado 207025" d="M84.282,349.592a53.665,53.665,0,0,1,15.056,4.676,26.068,26.068,0,0,1,11.348,10.67" transform="translate(-54.127 -245.063)" fill="none" stroke="#f9b3af" stroke-miterlimit="10" stroke-width="0.283"/>
                <path id="Trazado_207026" data-name="Trazado 207026" d="M88.873,341.684a35.907,35.907,0,0,1,23.055,12.182,11.576,11.576,0,0,1,2.476,4.057" transform="translate(-53.314 -246.465)" fill="none" stroke="#f9b3af" stroke-miterlimit="10" stroke-width="0.283"/>
                <path id="Trazado_207027" data-name="Trazado 207027" d="M96.838,336a28.829,28.829,0,0,1,18.012,13.254" transform="translate(-51.902 -247.472)" fill="none" stroke="#f7d8d7" stroke-miterlimit="10" stroke-width="0.283"/>
                <path id="Trazado_207028" data-name="Trazado 207028" d="M107.066,316.589c1.968,1.747,4.731,2.38,6.718,4.108,2.534,2.2,3.349,5.738,4.027,9.026" transform="translate(-50.088 -250.914)" fill="none" stroke="#f7d8d7" stroke-miterlimit="10" stroke-width="0.283"/>
                <path id="Trazado_207029" data-name="Trazado 207029" d="M106.943,309.709a30.242,30.242,0,0,1,17.484,17.512" transform="translate(-50.11 -252.134)" fill="none" stroke="#f7d8d7" stroke-miterlimit="10" stroke-width="0.283"/>
                <path id="Trazado_207030" data-name="Trazado 207030" d="M110.955,302.5a34.138,34.138,0,0,1,19.079,21" transform="translate(-49.399 -253.411)" fill="none" stroke="#f7d8d7" stroke-miterlimit="10" stroke-width="0.283"/>
                <path id="Trazado_207031" data-name="Trazado 207031" d="M115.445,295.793a35.542,35.542,0,0,1,18.637,22.935" transform="translate(-48.603 -254.601)" fill="none" stroke="#f9b3af" stroke-miterlimit="10" stroke-width="0.283"/>
                <path id="Trazado_207032" data-name="Trazado 207032" d="M120,291.5a30.107,30.107,0,0,1,15.873,18.236" transform="translate(-47.795 -255.362)" fill="none" stroke="#f7d8d7" stroke-miterlimit="10" stroke-width="0.283"/>
                <path id="Trazado_207033" data-name="Trazado 207033" d="M125.1,289.225a42.942,42.942,0,0,1,12.623,11.355" transform="translate(-46.891 -255.765)" fill="none" stroke="#f7d8d7" stroke-miterlimit="10" stroke-width="0.283"/>
                <path id="Trazado_207034" data-name="Trazado 207034" d="M132.825,271.543a24.866,24.866,0,0,1,8.2,11.105" transform="translate(-45.522 -258.9)" fill="none" stroke="#f7d8d7" stroke-miterlimit="10" stroke-width="0.283"/>
                <path id="Trazado_207035" data-name="Trazado 207035" d="M135.64,265.051a33.077,33.077,0,0,1,10.348,17.035" transform="translate(-45.023 -260.051)" fill="none" stroke="#f7d8d7" stroke-miterlimit="10" stroke-width="0.283"/>
                <g id="Grupo_170688" data-name="Grupo 170688" transform="translate(23.554)">
                  <path id="Trazado_207036" data-name="Trazado 207036" d="M84.4,432.582c14.4-10.719,7.154-29.224,1.865-42.815-3.8-9.777-1.943-18.753,2.631-27.866,4.622-9.21,12.2-12.766,21.842-15.247,8.46-2.178,17.278-3.814,24.206-9.54a40.641,40.641,0,0,0,12.537-18.569c2.682-7.821,2.06-15.976.232-23.886-2.2-9.5-6.414-21.129,1.4-29.257,2.391-2.488-1.389-6.276-3.784-3.784-13,13.523-.7,31.589-1.383,47.2-.372,8.506-4.534,16.611-10.492,22.526-7.366,7.313-18.241,8.479-27.779,11.121-6.634,1.838-13.879,5.176-18,10.926a51.786,51.786,0,0,0-8.6,20.561c-1.669,9.421,2.239,17.427,5.425,26.028,3.249,8.769,6.061,21.386-2.8,27.98-2.734,2.036-.071,6.685,2.7,4.621Z" transform="translate(-78.675 -260.804)" fill="#ff9d00"/>
                </g>
                <g id="Grupo_170689" data-name="Grupo 170689" transform="translate(25.821 21.011)" style="mix-blend-mode: multiply;isolation: isolate">
                  <path id="Trazado_207037" data-name="Trazado 207037" d="M85.441,369.208q.226.668.487,1.341c1.455,3.737,3.056,7.844,4.315,12.059l-5,1.326c-.346-1.1-.715-2.16-1.089-3.17-1.194-3.226-2.491-6.368-3.557-9.531Z" transform="translate(-80.601 -262.597)" fill="#ef9d95" opacity="0.49"/>
                  <path id="Trazado_207038" data-name="Trazado 207038" d="M138.7,292.385q-.1-.445-.2-.89c-.935-4.04-2.234-8.466-2.818-12.844l-5.042,1.573c.679,4.517,1.9,9.125,2.834,13.676Z" transform="translate(-71.73 -278.651)" fill="#ef7875" opacity="0.49"/>
                </g>
                <g id="Grupo_170690" data-name="Grupo 170690" transform="translate(0 9.084)">
                  <path id="Trazado_207039" data-name="Trazado 207039" d="M64.028,415.085c.791-11.163,12.763-15.35,21.979-17.521,8.038-1.894,16.08-2.539,22.826-7.764,5.083-3.939,8.8-9.039,12.015-14.556,4.006-6.885,4.813-13.51,3.532-21.35-1.639-10.026-7.2-18.9-7.4-29.239-.184-9.455,4.9-18.294,11.648-24.547,12.292-11.4,36.493-8.773,41.174-28.251.806-3.354-4.354-4.776-5.16-1.422-2.627,10.926-14.562,13.919-23.841,17.063-8.03,2.722-14.862,6.9-20.335,13.432a39.6,39.6,0,0,0-8.661,20.581c-1.288,9.924,3.327,19.46,6.172,28.69a31.971,31.971,0,0,1,1.226,15.758c-.666,3.318-2.86,6.474-4.62,9.329-4.138,6.714-9.738,12.121-17.4,14.471-8.974,2.752-18.234,3.054-26.658,7.653a22.132,22.132,0,0,0-11.849,17.673c-.244,3.446,5.109,3.422,5.352,0Z" transform="translate(-58.668 -268.52)" fill="#ff9d00"/>
                </g>
              </g>
              <path id="Trazado_207040" data-name="Trazado 207040" d="M106.232,329.921l5.363-1.313-1.385-4.514-5.1,2.165Z" transform="translate(-50.435 -249.584)" fill="#f5b1a6" opacity="0.49" style="mix-blend-mode: multiply;isolation: isolate"/>
              <path id="Trazado_207041" data-name="Trazado 207041" d="M107.522,333.523l5.357-1.353,1.229,3.768-5.358,1.2Z" transform="translate(-50.008 -248.152)" fill="#ef7875" opacity="0.49" style="mix-blend-mode: multiply;isolation: isolate"/>
            </g>
          </g>
          <g id="Grupo_170696" data-name="Grupo 170696" transform="translate(11.448 13.382)">
            <g id="Grupo_170694" data-name="Grupo 170694">
              <rect id="Rectángulo_49339" data-name="Rectángulo 49339" width="67.204" height="3.011" fill="#dcf5f9"/>
              <rect id="Rectángulo_49340" data-name="Rectángulo 49340" width="67.204" height="3.011" transform="translate(0 5.229)" fill="#dcf5f9"/>
            </g>
            <g id="Grupo_170695" data-name="Grupo 170695" transform="translate(0 10.116)">
              <rect id="Rectángulo_49341" data-name="Rectángulo 49341" width="67.204" height="3.011" fill="#dcf5f9"/>
              <rect id="Rectángulo_49342" data-name="Rectángulo 49342" width="36.908" height="3.011" transform="translate(0 5.229)" fill="#dcf5f9"/>
            </g>
          </g>
          <g id="Grupo_170699" data-name="Grupo 170699" transform="translate(70.783 183.451)">
            <g id="Grupo_170697" data-name="Grupo 170697" transform="translate(0 10.116)">
              <rect id="Rectángulo_49343" data-name="Rectángulo 49343" width="67.204" height="3.011" transform="translate(67.204 8.24) rotate(180)" fill="#dcf5f9"/>
              <rect id="Rectángulo_49344" data-name="Rectángulo 49344" width="67.204" height="3.011" transform="translate(67.204 3.011) rotate(180)" fill="#dcf5f9"/>
            </g>
            <g id="Grupo_170698" data-name="Grupo 170698">
              <rect id="Rectángulo_49345" data-name="Rectángulo 49345" width="67.204" height="3.011" transform="translate(67.204 8.24) rotate(180)" fill="#dcf5f9"/>
              <rect id="Rectángulo_49346" data-name="Rectángulo 49346" width="36.908" height="3.011" transform="translate(67.204 3.011) rotate(180)" fill="#dcf5f9"/>
            </g>
          </g>
          <path id="Trazado_207042" data-name="Trazado 207042" d="M77.077,306.988v16.523a2.782,2.782,0,0,0,2.782,2.782h41.864" transform="translate(-40.77 -220.464)" fill="none" stroke="#dcf5f9" stroke-miterlimit="10" stroke-width="1.701"/>
          <path id="Trazado_207043" data-name="Trazado 207043" d="M118.519,323.866a3.19,3.19,0,1,1-3.19-3.19A3.191,3.191,0,0,1,118.519,323.866Z" transform="translate(-34.555 -218.037)" fill="#dcf5f9"/>
          <g id="Grupo_170701" data-name="Grupo 170701" transform="translate(19.578 51.721)">
            <g id="Grupo_170700" data-name="Grupo 170700">
              <ellipse id="Elipse_5469" data-name="Elipse 5469" cx="10.526" cy="10.535" rx="10.526" ry="10.535" transform="translate(24.083 33.665) rotate(-89.903)" fill="#ffdca4"/>
              <path id="Trazado_207044" data-name="Trazado 207044" d="M90.846,284.837a7.164,7.164,0,1,1-7.159-7.412A7.288,7.288,0,0,1,90.846,284.837Z" transform="translate(-60.446 -277.425)" fill="#dcf5f9"/>
              <path id="Trazado_207045" data-name="Trazado 207045" d="M91.069,308.829a10.527,10.527,0,0,1,2.805-20.676c.186,0,.371.006.554.015,0,0,2.4,3.309,1.653,10.512S91.069,308.829,91.069,308.829Z" transform="translate(-59.238 -275.523)" fill="#f9b3af" opacity="0.33" style="mix-blend-mode: multiply;isolation: isolate"/>
              <path id="Trazado_207046" data-name="Trazado 207046" d="M90.6,282.7a7.665,7.665,0,0,1,.245,1.931,7.164,7.164,0,1,1-14.319,0,7.483,7.483,0,0,1,3.021-6.049,21.611,21.611,0,0,1,6.178.912A18.461,18.461,0,0,1,90.6,282.7Z" transform="translate(-60.446 -277.22)" fill="#dcf5f9" opacity="0.33" style="mix-blend-mode: multiply;isolation: isolate"/>
              <circle id="Elipse_5470" data-name="Elipse 5470" cx="17.318" cy="17.318" r="17.318" transform="translate(0 2.276)" fill="#ff9d00"/>
              <path id="Trazado_207047" data-name="Trazado 207047" d="M77.022,282.853a7.35,7.35,0,0,0-13.055,6.672,6.392,6.392,0,0,0,2.126,2.4,26.543,26.543,0,0,0,6.709-3.474A13.3,13.3,0,0,0,77.022,282.853Z" transform="translate(-62.796 -277.099)" fill="#f7d8d7"/>
              <path id="Trazado_207048" data-name="Trazado 207048" d="M76.679,302.047a5.484,5.484,0,0,0,9.955-4.536,4.761,4.761,0,0,0-1.5-1.859,19.829,19.829,0,0,0-5.118,2.366A9.926,9.926,0,0,0,76.679,302.047Z" transform="translate(-60.419 -274.194)" fill="#dcf5f9"/>
            </g>
            <path id="Trazado_207049" data-name="Trazado 207049" d="M65.566,292.406a18.348,18.348,0,0,0,13.215-7.995" transform="translate(-62.389 -276.186)" fill="none" stroke="#ef7875" stroke-miterlimit="10" stroke-width="0.567" opacity="0.53" style="mix-blend-mode: multiply;isolation: isolate"/>
            <path id="Trazado_207050" data-name="Trazado 207050" d="M82.354,295.391a12.028,12.028,0,0,0-4.627,3,7.856,7.856,0,0,0-2.152,5l.51.074" transform="translate(-60.614 -274.24)" fill="none" stroke="#ef7875" stroke-miterlimit="10" stroke-width="0.567" opacity="0.53" style="mix-blend-mode: multiply;isolation: isolate"/>
            <path id="Trazado_207051" data-name="Trazado 207051" d="M77.687,295.913a8.378,8.378,0,0,0-4.051,6.044" transform="translate(-60.958 -274.147)" fill="none" stroke="#ef7875" stroke-miterlimit="10" stroke-width="0.567" opacity="0.53" style="mix-blend-mode: multiply;isolation: isolate"/>
            <path id="Trazado_207052" data-name="Trazado 207052" d="M64.643,283.668a10.824,10.824,0,0,0-.208,4.946,1.432,1.432,0,0,0,1.778.964,1.463,1.463,0,0,0,.964-1.778,7.683,7.683,0,0,1,.252-3.486C67.942,282.54,65.154,281.9,64.643,283.668Z" transform="translate(-62.623 -276.504)" fill="#f7d8d7" opacity="0.33" style="mix-blend-mode: screen;isolation: isolate"/>
          </g>
        </g>
        <g id="Grupo_170704" data-name="Grupo 170704" transform="translate(51.582 80.416)">
          <g id="Grupo_170703" data-name="Grupo 170703">
            <path id="Trazado_207053" data-name="Trazado 207053" d="M152.835,373.188h0a4.658,4.658,0,0,1-6.554-.676l-24.035-29.553,7.23-5.879,24.034,29.554A4.658,4.658,0,0,1,152.835,373.188Z" transform="translate(-84.345 -295.545)" fill="#b6e7f2"/>
            <path id="Trazado_207054" data-name="Trazado 207054" d="M127.5,349.423l-5.257-6.464,7.229-5.879,5.04,6.2" transform="translate(-84.345 -295.545)" fill="#b6e7f2" opacity="0.42" style="mix-blend-mode: multiply;isolation: isolate"/>
            <circle id="Elipse_5471" data-name="Elipse 5471" cx="20.417" cy="20.417" r="20.417" transform="translate(0 24.924) rotate(-37.616)" fill="#fff" opacity="0.29"/>
            <circle id="Elipse_5472" data-name="Elipse 5472" cx="20.417" cy="20.417" r="20.417" transform="translate(0 24.924) rotate(-37.616)" fill="none" stroke="#b6e7f2" stroke-miterlimit="10" stroke-width="8.504"/>
            <path id="Trazado_207055" data-name="Trazado 207055" d="M105.258,319.486c-4.059,5.078-2.565,11.579.855,16.534.928,1.344,2.833-.325,1.917-1.652-2.81-4.071-4-9.309-.682-13.454C108.369,319.637,106.269,318.222,105.258,319.486Z" transform="translate(-87.79 -298.752)" fill="#fff" opacity="0.51"/>
          </g>
        </g>
      </g>
      <g id="Grupo_170706" data-name="Grupo 170706" transform="translate(206.05 252.337)">
        <path id="Trazado_207056" data-name="Trazado 207056" d="M299.657,243.2H201.017a9.174,9.174,0,0,1-9.173-9.173h0a9.174,9.174,0,0,1,9.173-9.175h98.639a9.174,9.174,0,0,1,9.173,9.175h0A9.174,9.174,0,0,1,299.657,243.2Z" transform="translate(-180.237 -224.849)" fill="#81d4fa"/>
        <line id="Línea_417" data-name="Línea 417" x1="29.73" y2="265.212" transform="translate(0 9.174)" fill="none" stroke="#81d4fa" stroke-linecap="round" stroke-linejoin="round" stroke-width="4.252"/>
        <line id="Línea_418" data-name="Línea 418" x2="29.73" y2="265.212" transform="translate(109.916 9.174)" fill="none" stroke="#81d4fa" stroke-linecap="round" stroke-linejoin="round" stroke-width="4.252"/>
      </g>
      <g id="Grupo_170707" data-name="Grupo 170707" transform="translate(268.544 297.018)">
        <path id="Trazado_207057" data-name="Trazado 207057" d="M240.715,298.2h92.594V262.8h14.979" transform="translate(-234.068 -262.802)" fill="none" stroke="#61dbeb" stroke-miterlimit="10" stroke-width="2.835"/>
        <path id="Trazado_207113" data-name="Trazado 207113" d="M0,0H107.573" transform="translate(6.647 68.054)" fill="none" stroke="#61dbeb" stroke-width="2.835"/>
        <path id="Trazado_207058" data-name="Trazado 207058" d="M248.363,293.869a6.647,6.647,0,1,1-6.647-6.647A6.647,6.647,0,0,1,248.363,293.869Z" transform="translate(-235.069 -258.473)" fill="#61dbeb"/>
        <path id="Trazado_207059" data-name="Trazado 207059" d="M248.363,321.61a6.647,6.647,0,1,1-6.647-6.648A6.647,6.647,0,0,1,248.363,321.61Z" transform="translate(-235.069 -253.555)" fill="#61dbeb"/>
      </g>
      <g id="Grupo_170712" data-name="Grupo 170712" transform="translate(369.158 255.919)">
        <path id="Trazado_207060" data-name="Trazado 207060" d="M338.657,263.7c0,3.754-2.6,6.8-5.806,6.8s-5.806-3.044-5.806-6.8,2.6-6.8,5.806-6.8S338.657,259.943,338.657,263.7Z" transform="translate(-319.377 -222.749)" fill="#61dbeb"/>
        <path id="Trazado_207061" data-name="Trazado 207061" d="M338.77,321.507c0,3.756-2.6,6.8-5.806,6.8s-5.806-3.044-5.806-6.8,2.6-6.8,5.806-6.8S338.77,317.752,338.77,321.507Z" transform="translate(-319.357 -212.501)" fill="#61dbeb"/>
        <ellipse id="Elipse_5473" data-name="Elipse 5473" cx="91.04" cy="13.632" rx="91.04" ry="13.632" transform="translate(0 257.172)" fill="#dcf5f9" opacity="0.53" style="mix-blend-mode: multiply;isolation: isolate"/>
        <rect id="Rectángulo_49347" data-name="Rectángulo 49347" width="153.715" height="271.874" transform="translate(13.606)" fill="#00bcd4"/>
        <rect id="Rectángulo_49348" data-name="Rectángulo 49348" width="124.457" height="106.036" rx="5.013" transform="translate(28.235 14.766)" fill="#dcf5f9"/>
        <rect id="Rectángulo_49349" data-name="Rectángulo 49349" width="117.848" height="99.473" rx="2.215" transform="translate(31.64 17.749)" fill="none" stroke="#72c8d6" stroke-miterlimit="10" stroke-width="1"/>
        <path id="Rectángulo_49350" data-name="Rectángulo 49350" d="M2.729,0H33.6a2.73,2.73,0,0,1,2.73,2.73V6.265a2.73,2.73,0,0,1-2.73,2.73H2.729A2.729,2.729,0,0,1,0,6.265V2.729A2.729,2.729,0,0,1,2.729,0Z" transform="translate(28.235 131.44)" fill="#b6e7f2"/>
        <rect id="Rectángulo_49351" data-name="Rectángulo 49351" width="13.051" height="8.995" rx="2.73" transform="translate(69.193 131.44)" fill="#b6e7f2"/>
        <rect id="Rectángulo_49352" data-name="Rectángulo 49352" width="13.051" height="8.995" rx="2.73" transform="translate(86.873 131.44)" fill="#b6e7f2"/>
        <rect id="Rectángulo_49353" data-name="Rectángulo 49353" width="13.051" height="8.995" rx="2.73" transform="translate(104.553 131.44)" fill="#b6e7f2"/>
        <g id="Grupo_170709" data-name="Grupo 170709" transform="translate(101.657 66.358)">
          <path id="Trazado_207062" data-name="Trazado 207062" d="M427.91,293.637a9.408,9.408,0,1,1-11.661-6.407A9.408,9.408,0,0,1,427.91,293.637Z" transform="translate(-406.423 -283.797)" fill="#ff9d00"/>
          <g id="Grupo_170708" data-name="Grupo 170708" transform="translate(12.657 15.434)">
            <path id="Trazado_207063" data-name="Trazado 207063" d="M432.986,319.7a15.828,15.828,0,0,0,8.439-7.192,10.388,10.388,0,0,0-.585-10.738,5.513,5.513,0,0,0-2.747-2.065,4.1,4.1,0,0,0-3.874.928,7.066,7.066,0,0,0-1.755,3.515,14.834,14.834,0,0,1-1.226,3.778,3.686,3.686,0,0,1-3.186,2.041,16.348,16.348,0,0,1-1.7-.346,5.954,5.954,0,0,0-2.971.424,7.266,7.266,0,0,0-3.245,2.138,3.68,3.68,0,0,0-.751,3.687C422.306,322.142,429.912,320.915,432.986,319.7Z" transform="translate(-417.363 -296.98)" fill="#ff9d00" stroke="#ff9d00" stroke-miterlimit="10" stroke-width="1.417"/>
            <path id="Trazado_207064" data-name="Trazado 207064" d="M434.167,297.723a2.7,2.7,0,0,0-.351,2.4,6.441,6.441,0,0,1,.337,2.485" transform="translate(-414.784 -297.304)" fill="#ff9d00" stroke="#ff9d00" stroke-miterlimit="10" stroke-width="1.417"/>
            <path id="Trazado_207065" data-name="Trazado 207065" d="M431.572,298.147a5.345,5.345,0,0,0,.922,3.376c.4.573.934,1.158.859,1.851" transform="translate(-415.163 -297.229)" fill="#ff9d00" stroke="#ff9d00" stroke-miterlimit="10" stroke-width="1.417"/>
            <path id="Trazado_207066" data-name="Trazado 207066" d="M429.225,301.51c.152.9,1.068,1.434,1.891,1.832s1.746.9,1.934,1.8" transform="translate(-415.577 -296.633)" fill="#ff9d00" stroke="#ff9d00" stroke-miterlimit="10" stroke-width="1.417"/>
            <path id="Trazado_207067" data-name="Trazado 207067" d="M428.318,304.561c.286,1.406,1.647,2.289,2.887,3.01" transform="translate(-415.738 -296.092)" fill="#ff9d00" stroke="#ff9d00" stroke-miterlimit="10" stroke-width="1.417"/>
            <path id="Trazado_207068" data-name="Trazado 207068" d="M427.072,306.531a3.779,3.779,0,0,0,1.4,3.3" transform="translate(-415.962 -295.742)" fill="#ff9d00" stroke="#ff9d00" stroke-miterlimit="10" stroke-width="1.417"/>
            <path id="Trazado_207069" data-name="Trazado 207069" d="M424.617,306.4a2.4,2.4,0,0,0-.27,2.707,8.147,8.147,0,0,1,.965,2.722" transform="translate(-416.492 -295.765)" fill="#ff9d00" stroke="#ff9d00" stroke-miterlimit="10" stroke-width="1.417"/>
            <path id="Trazado_207070" data-name="Trazado 207070" d="M419.9,307.193a1.078,1.078,0,0,1,1.329.446,3.907,3.907,0,0,1,.464,1.456,2.269,2.269,0,0,0,.66,1.356,2.514,2.514,0,0,0,1.807.323" transform="translate(-417.23 -295.642)" fill="#ff9d00" stroke="#ff9d00" stroke-miterlimit="10" stroke-width="1.417"/>
            <path id="Trazado_207071" data-name="Trazado 207071" d="M417.852,311.44a2,2,0,0,1,1.1-.856c.626-.112,1.181.378,1.774.605a2.279,2.279,0,0,0,2.024-.212" transform="translate(-417.593 -295.027)" fill="#ff9d00" stroke="#ff9d00" stroke-miterlimit="10" stroke-width="1.417"/>
            <path id="Trazado_207072" data-name="Trazado 207072" d="M417.774,316.119a1.094,1.094,0,0,1,.28-1.379,2.321,2.321,0,0,1,1.439-.459,5.279,5.279,0,0,0,1.526-.139,1.114,1.114,0,0,0,.822-1.145" transform="translate(-417.632 -294.596)" fill="#ff9d00" stroke="#ff9d00" stroke-miterlimit="10" stroke-width="1.417"/>
            <path id="Trazado_207073" data-name="Trazado 207073" d="M419.746,317.958a8.508,8.508,0,0,0,1.377-1.72,2.869,2.869,0,0,0,.334-2.126" transform="translate(-417.257 -294.398)" fill="#ff9d00" stroke="#ff9d00" stroke-miterlimit="10" stroke-width="1.417"/>
            <path id="Trazado_207074" data-name="Trazado 207074" d="M422.552,318.567a9.283,9.283,0,0,0,.3-3.885" transform="translate(-416.76 -294.297)" fill="#ff9d00" stroke="#ff9d00" stroke-miterlimit="10" stroke-width="1.417"/>
            <path id="Trazado_207075" data-name="Trazado 207075" d="M425.873,320.423a4.142,4.142,0,0,1-.57-5.066" transform="translate(-416.381 -294.178)" fill="#ff9d00" stroke="#ff9d00" stroke-miterlimit="10" stroke-width="1.417"/>
            <path id="Trazado_207076" data-name="Trazado 207076" d="M427.675,319.391a5.468,5.468,0,0,1-.164-3.493q.152-.878.3-1.757" transform="translate(-415.917 -294.393)" fill="#ff9d00" stroke="#ff9d00" stroke-miterlimit="10" stroke-width="1.417"/>
            <path id="Trazado_207077" data-name="Trazado 207077" d="M436.842,297.367a1.332,1.332,0,0,0-.965.937,5.665,5.665,0,0,0-.19,1.4,8.349,8.349,0,0,1-.722,2.781" transform="translate(-414.56 -297.367)" fill="#ff9d00" stroke="#ff9d00" stroke-miterlimit="10" stroke-width="1.417"/>
            <path id="Trazado_207078" data-name="Trazado 207078" d="M438.74,299.813a4.058,4.058,0,0,0-2.777,2.684" transform="translate(-414.383 -296.933)" fill="#ff9d00" stroke="#ff9d00" stroke-miterlimit="10" stroke-width="1.417"/>
            <path id="Trazado_207079" data-name="Trazado 207079" d="M440.365,300.93c-.26.927-1.16,1.494-1.933,2.066s-1.553,1.409-1.39,2.358" transform="translate(-414.195 -296.735)" fill="#ff9d00" stroke="#ff9d00" stroke-miterlimit="10" stroke-width="1.417"/>
            <path id="Trazado_207080" data-name="Trazado 207080" d="M440.716,304.027a4.13,4.13,0,0,1-2.4,1.21" transform="translate(-413.965 -296.186)" fill="none" stroke="#ff9d00" stroke-miterlimit="10" stroke-width="1.417"/>
            <path id="Trazado_207081" data-name="Trazado 207081" d="M441.326,307.063a9.254,9.254,0,0,1-3.791.648" transform="translate(-414.104 -295.648)" fill="none" stroke="#ff9d00" stroke-miterlimit="10" stroke-width="1.417"/>
            <path id="Trazado_207082" data-name="Trazado 207082" d="M439.8,312.847a3.632,3.632,0,0,0-3.839-3.622" transform="translate(-414.383 -295.266)" fill="none" stroke="#ff9d00" stroke-miterlimit="10" stroke-width="1.417"/>
            <path id="Trazado_207083" data-name="Trazado 207083" d="M437.528,314.858a1.248,1.248,0,0,1-1.359-.633,3.634,3.634,0,0,1-.39-1.555l-.311-3.185" transform="translate(-414.47 -295.219)" fill="none" stroke="#ff9d00" stroke-miterlimit="10" stroke-width="1.417"/>
            <path id="Trazado_207084" data-name="Trazado 207084" d="M435.408,317.263a2.51,2.51,0,0,1-2.2-1.906,7.33,7.33,0,0,1-.014-3.1" transform="translate(-414.902 -294.727)" fill="none" stroke="#ff9d00" stroke-miterlimit="10" stroke-width="1.417"/>
            <path id="Trazado_207085" data-name="Trazado 207085" d="M433.281,319.377a2.555,2.555,0,0,1-1.777-.817,2.936,2.936,0,0,1-.092-2.2,10,10,0,0,0-.007-3.615" transform="translate(-415.219 -294.641)" fill="none" stroke="#ff9d00" stroke-miterlimit="10" stroke-width="1.417"/>
            <path id="Trazado_207086" data-name="Trazado 207086" d="M429.647,320.037c-.71-1.189-1.442-2.57-1.024-3.89.223-.7.764-1.344.685-2.078" transform="translate(-415.706 -294.406)" fill="#ff9d00" stroke="#ff9d00" stroke-miterlimit="10" stroke-width="1.417"/>
            <path id="Trazado_207087" data-name="Trazado 207087" d="M432.618,318.276a12.941,12.941,0,0,0,6.9-5.879c1.4-2.755,1.814-10.321-2.384-11.2a3.986,3.986,0,0,0-3.287,1.056,7.614,7.614,0,0,0-1.658,3.307,12.135,12.135,0,0,1-1,3.089,3.013,3.013,0,0,1-2.605,1.668,13.235,13.235,0,0,1-1.387-.283c-.817-.132-4.106-.273-5.62,1.917A4.473,4.473,0,0,0,421,315.6C423.387,320.727,430.1,319.271,432.618,318.276Z" transform="translate(-417.069 -296.698)" fill="#f7c575"/>
          </g>
          <path id="Trazado_207088" data-name="Trazado 207088" d="M416.039,284.257q.459,3.168,1.083,6.31" transform="translate(-405.257 -284.257)" fill="none" stroke="#ff9d00" stroke-miterlimit="10" stroke-width="2.835"/>
          <path id="Trazado_207089" data-name="Trazado 207089" d="M418.346,305.94l-.279-5.982" transform="translate(-404.898 -281.474)" fill="none" stroke="#ff9d00" stroke-miterlimit="10" stroke-width="2.835"/>
          <path id="Trazado_207090" data-name="Trazado 207090" d="M406.881,296.256c2.861.288,6.652-.248,9.523-.381" transform="translate(-406.881 -282.197)" fill="none" stroke="#ff9d00" stroke-miterlimit="10" stroke-width="2.835"/>
          <path id="Trazado_207091" data-name="Trazado 207091" d="M429.145,292.868q-3.733.245-7.436.8" transform="translate(-404.252 -282.73)" fill="none" stroke="#ff9d00" stroke-miterlimit="10" stroke-width="2.835"/>
          <path id="Trazado_207092" data-name="Trazado 207092" d="M422.031,285.215c-.334,1.437-1.8,3.674-2.139,5.113" transform="translate(-404.574 -284.087)" fill="none" stroke="#ff9d00" stroke-miterlimit="10" stroke-width="2.835"/>
          <path id="Trazado_207093" data-name="Trazado 207093" d="M426.115,288.981c-1.183.874-3.328,2.788-4.4,3.793" transform="translate(-404.252 -283.419)" fill="none" stroke="#ff9d00" stroke-miterlimit="10" stroke-width="2.835"/>
          <path id="Trazado_207094" data-name="Trazado 207094" d="M427.81,297.044c-1.337-.267-3.691-.533-5.027-.8" transform="translate(-404.062 -282.132)" fill="none" stroke="#ff9d00" stroke-miterlimit="10" stroke-width="2.835"/>
          <path id="Trazado_207095" data-name="Trazado 207095" d="M423.184,303.245l-2.046-4.261" transform="translate(-404.354 -281.646)" fill="none" stroke="#ff9d00" stroke-miterlimit="10" stroke-width="2.835"/>
          <path id="Trazado_207096" data-name="Trazado 207096" d="M413.269,304.037q.63-2.771,1.424-5.5" transform="translate(-405.749 -281.725)" fill="none" stroke="#ff9d00" stroke-miterlimit="10" stroke-width="2.835"/>
          <path id="Trazado_207097" data-name="Trazado 207097" d="M408.573,299.659a35.354,35.354,0,0,1,4.59-2.053" transform="translate(-406.581 -281.891)" fill="none" stroke="#ff9d00" stroke-miterlimit="10" stroke-width="2.835"/>
          <path id="Trazado_207098" data-name="Trazado 207098" d="M407.993,290.592c1.294.318,3.472,1.479,4.766,1.8" transform="translate(-406.684 -283.134)" fill="none" stroke="#ff9d00" stroke-miterlimit="10" stroke-width="2.835"/>
          <path id="Trazado_207099" data-name="Trazado 207099" d="M412.137,286.953q.992,1.817,1.984,3.635" transform="translate(-405.949 -283.779)" fill="none" stroke="#ff9d00" stroke-miterlimit="10" stroke-width="2.835"/>
          <path id="Trazado_207100" data-name="Trazado 207100" d="M426.215,293.864a7.6,7.6,0,1,1-9.339-4.9A7.461,7.461,0,0,1,426.215,293.864Z" transform="translate(-406.091 -283.479)" fill="#ffcf81"/>
          <path id="Trazado_207101" data-name="Trazado 207101" d="M413.237,289.933s-4.472,4.271-2.027,9.432a8.635,8.635,0,0,0,8.315,4.893c1.987-.184,4.422-2.887.285-4.537s-8.392-.776-6.5-4S416.108,287.742,413.237,289.933Z" transform="translate(-406.243 -283.35)" fill="#f7d8d7" opacity="0.3" style="mix-blend-mode: screen;isolation: isolate"/>
          <path id="Trazado_207102" data-name="Trazado 207102" d="M422.372,308.838s-3.068,1.726-2.669,4.673,4.258,5.293,8.441,5.048,1.709-2.153-.856-3.665-4.142-1.739-2.983-3.27,1.14-2.118.942-2.612S423.387,308.3,422.372,308.838Z" transform="translate(-404.614 -279.955)" fill="#f7d8d7" opacity="0.3" style="mix-blend-mode: screen;isolation: isolate"/>
        </g>
        <g id="Grupo_170710" data-name="Grupo 170710" transform="translate(42.375 29.069)">
          <path id="Trazado_207103" data-name="Trazado 207103" d="M403.41,278.3l-13.748.084-6.947-11.864,6.8-11.949,13.748-.084,6.947,11.864Z" transform="translate(-351.883 -252.245)" fill="none" stroke="#ff9d00" stroke-miterlimit="10" stroke-width="1.984"/>
          <path id="Trazado_207104" data-name="Trazado 207104" d="M390.918,254.9a2.248,2.248,0,1,1-2.247-2.247A2.248,2.248,0,0,1,390.918,254.9Z" transform="translate(-351.226 -252.57)" fill="#ff9d00" stroke="#ff9d00" stroke-miterlimit="10" stroke-width="2.835"/>
          <path id="Trazado_207105" data-name="Trazado 207105" d="M402.6,254.832a2.247,2.247,0,1,1-2.247-2.249A2.248,2.248,0,0,1,402.6,254.832Z" transform="translate(-349.156 -252.583)" fill="#ff9d00" stroke="#ff9d00" stroke-miterlimit="10" stroke-width="2.835"/>
          <path id="Trazado_207106" data-name="Trazado 207106" d="M408.657,264.573a2.248,2.248,0,1,1-2.247-2.247A2.248,2.248,0,0,1,408.657,264.573Z" transform="translate(-348.081 -250.856)" fill="#ff9d00" stroke="#ff9d00" stroke-miterlimit="10" stroke-width="2.835"/>
          <path id="Trazado_207107" data-name="Trazado 207107" d="M402.6,275.1a2.247,2.247,0,1,1-2.247-2.247A2.248,2.248,0,0,1,402.6,275.1Z" transform="translate(-349.156 -248.989)" fill="#ff9d00" stroke="#ff9d00" stroke-miterlimit="10" stroke-width="2.835"/>
          <path id="Trazado_207108" data-name="Trazado 207108" d="M391.2,275.127a2.248,2.248,0,1,1-2.249-2.247A2.248,2.248,0,0,1,391.2,275.127Z" transform="translate(-351.176 -248.985)" fill="#ff9d00" stroke="#ff9d00" stroke-miterlimit="10" stroke-width="2.835"/>
          <path id="Trazado_207109" data-name="Trazado 207109" d="M385.3,265.049a2.247,2.247,0,1,1-2.247-2.247A2.247,2.247,0,0,1,385.3,265.049Z" transform="translate(-352.222 -250.771)" fill="#ff9d00" stroke="#ff9d00" stroke-miterlimit="10" stroke-width="2.835"/>
          <line id="Línea_420" data-name="Línea 420" x1="12.715" y2="21.56" transform="translate(25.064 26.143)" fill="none" stroke="#ff9d00" stroke-miterlimit="10" stroke-width="2.835"/>
          <line id="Línea_421" data-name="Línea 421" x1="20.038" transform="translate(10.793 14.278)" fill="none" stroke="#ff9d00" stroke-miterlimit="10" stroke-width="2.835"/>
          <line id="Línea_422" data-name="Línea 422" x2="12.707" transform="translate(59.273 13.718)" fill="none" stroke="#ff9d00" stroke-miterlimit="10" stroke-width="2.835"/>
          <path id="Trazado_207110" data-name="Trazado 207110" d="M367.319,265.524a5.4,5.4,0,1,1-5.4-5.4A5.4,5.4,0,0,1,367.319,265.524Z" transform="translate(-356.526 -251.246)" fill="none" stroke="#ff9d00" stroke-miterlimit="10" stroke-width="2.835"/>
          <path id="Trazado_207111" data-name="Trazado 207111" d="M380.438,295.932a3.539,3.539,0,1,1-3.539-3.539A3.539,3.539,0,0,1,380.438,295.932Z" transform="translate(-353.542 -245.526)" fill="none" stroke="#ff9d00" stroke-miterlimit="10" stroke-width="2.835"/>
          <circle id="Elipse_5474" data-name="Elipse 5474" cx="3.539" cy="3.539" r="3.539" transform="translate(71.755 10.179)" fill="none" stroke="#ff9d00" stroke-miterlimit="10" stroke-width="2.835"/>
        </g>
        <g id="Grupo_170711" data-name="Grupo 170711" transform="translate(39.829 90.41)">
          <rect id="Rectángulo_49354" data-name="Rectángulo 49354" width="51.491" height="2.725" fill="#f4c983"/>
          <rect id="Rectángulo_49355" data-name="Rectángulo 49355" width="51.491" height="2.725" transform="translate(0 5.592)" fill="#f4c983"/>
          <rect id="Rectángulo_49356" data-name="Rectángulo 49356" width="51.491" height="2.725" transform="translate(0 11.684)" fill="#f4c983"/>
          <rect id="Rectángulo_49357" data-name="Rectángulo 49357" width="37.462" height="2.725" transform="translate(0 17.234)" fill="#f4c983"/>
        </g>
        <rect id="Rectángulo_49358" data-name="Rectángulo 49358" width="4.041" height="17.428" transform="translate(138.701 199.686)" fill="#dcf5f9"/>
        <path id="Trazado_207112" data-name="Trazado 207112" d="M347.407,461.026s2.624-87.969,5.838-89.806c8.923-5.1,112.011-7.737,112.011-7.737H347.407Z" transform="translate(-315.768 -203.854)" fill="#72c8d6" opacity="0.29" style="mix-blend-mode: multiply;isolation: isolate"/>
        <rect id="Rectángulo_49359" data-name="Rectángulo 49359" width="117.848" height="97.543" transform="translate(31.64 159.629)" fill="none" stroke="#bbecef" stroke-miterlimit="10" stroke-width="1.417"/>
      </g>
    </g>
  </g>
</svg>
