<svg xmlns="http://www.w3.org/2000/svg" width="400.03" height="402" viewBox="0 0 400.03 402">
  <g id="Grupo_171268" data-name="Grupo 171268" transform="translate(-27.042 -29.525)">
    <g id="Background_Complete" data-name="Background Complete" transform="translate(27.042 29.525)">
      <g id="Grupo_170865" data-name="Grupo 170865" transform="translate(37.231 322.392)">
        <g id="Grupo_170842" data-name="Grupo 170842" transform="translate(14.707 0)">
          <g id="Grupo_170841" data-name="Grupo 170841">
            <g id="Grupo_170840" data-name="Grupo 170840">
              <g id="Grupo_170839" data-name="Grupo 170839">
                <path id="Trazado_207354" data-name="Trazado 207354" d="M84.389,405.193V387.586a2.1,2.1,0,0,1,2.1-2.1h.784a2.1,2.1,0,0,1,2.1,2.1v.821h13.068v4.471h-12.9v12.315Z" transform="translate(-84.389 -385.485)" fill="#ebebeb"/>
              </g>
            </g>
          </g>
        </g>
        <g id="Grupo_170846" data-name="Grupo 170846" transform="translate(0 23.254)">
          <g id="Grupo_170845" data-name="Grupo 170845">
            <g id="Grupo_170844" data-name="Grupo 170844">
              <g id="Grupo_170843" data-name="Grupo 170843">
                <rect id="Rectángulo_49383" data-name="Rectángulo 49383" width="34.572" height="55.898" rx="2.289" fill="#e0e0e0"/>
              </g>
            </g>
          </g>
        </g>
        <g id="Grupo_170850" data-name="Grupo 170850" transform="translate(9.178 16.162)">
          <g id="Grupo_170849" data-name="Grupo 170849">
            <g id="Grupo_170848" data-name="Grupo 170848">
              <g id="Grupo_170847" data-name="Grupo 170847">
                <path id="Rectángulo_49384" data-name="Rectángulo 49384" d="M1.055,0h14.9a1.055,1.055,0,0,1,1.055,1.055V7.092a0,0,0,0,1,0,0H0a0,0,0,0,1,0,0V1.055A1.055,1.055,0,0,1,1.055,0Z" fill="#e0e0e0"/>
              </g>
            </g>
          </g>
        </g>
        <g id="Grupo_170854" data-name="Grupo 170854" transform="translate(17.286 31.959)">
          <g id="Grupo_170853" data-name="Grupo 170853">
            <g id="Grupo_170852" data-name="Grupo 170852">
              <g id="Grupo_170851" data-name="Grupo 170851">
                <rect id="Rectángulo_49385" data-name="Rectángulo 49385" width="14.98" height="36.987" fill="#ebebeb"/>
              </g>
            </g>
          </g>
        </g>
        <g id="Grupo_170859" data-name="Grupo 170859" transform="translate(8.752 22.524)">
          <g id="Grupo_170858" data-name="Grupo 170858">
            <g id="Grupo_170857" data-name="Grupo 170857">
              <g id="Grupo_170856" data-name="Grupo 170856">
                <g id="Grupo_170855" data-name="Grupo 170855">
                  <path id="Trazado_207355" data-name="Trazado 207355" d="M95.246,410.9c0,.3-3.9.542-8.716.542s-8.716-.242-8.716-.542,3.9-.542,8.716-.542S95.246,410.6,95.246,410.9Z" transform="translate(-77.814 -410.354)" fill="#ebebeb"/>
                </g>
              </g>
            </g>
          </g>
        </g>
        <g id="Grupo_170864" data-name="Grupo 170864" transform="translate(1.585 27.439)">
          <g id="Grupo_170863" data-name="Grupo 170863">
            <g id="Grupo_170862" data-name="Grupo 170862">
              <g id="Grupo_170861" data-name="Grupo 170861">
                <g id="Grupo_170860" data-name="Grupo 170860">
                  <path id="Trazado_207356" data-name="Trazado 207356" d="M70.442,448.363c-.3,0-.542-7.294-.542-16.29s.243-16.292.542-16.292.542,7.293.542,16.292S70.74,448.363,70.442,448.363Z" transform="translate(-69.9 -415.781)" fill="#fafafa"/>
                </g>
              </g>
            </g>
          </g>
        </g>
      </g>
      <g id="Grupo_170873" data-name="Grupo 170873" transform="translate(17.014 378.355)">
        <g id="Grupo_170867" data-name="Grupo 170867">
          <g id="Grupo_170866" data-name="Grupo 170866">
            <rect id="Rectángulo_49386" data-name="Rectángulo 49386" width="37.504" height="23.249" fill="#f5f5f5"/>
          </g>
        </g>
        <g id="Grupo_170870" data-name="Grupo 170870" transform="translate(0.407 8.094)">
          <g id="Grupo_170869" data-name="Grupo 170869">
            <g id="Grupo_170868" data-name="Grupo 170868">
              <path id="Trazado_207357" data-name="Trazado 207357" d="M82.927,456.668c0,.252-8.2.456-18.324.456s-18.326-.2-18.326-.456,8.2-.456,18.326-.456S82.927,456.417,82.927,456.668Z" transform="translate(-46.277 -456.212)" fill="#e0e0e0"/>
            </g>
          </g>
        </g>
        <g id="Grupo_170872" data-name="Grupo 170872" transform="translate(12.818 12.626)">
          <g id="Grupo_170871" data-name="Grupo 170871">
            <rect id="Rectángulo_49387" data-name="Rectángulo 49387" width="24.239" height="5.996" fill="#fff"/>
          </g>
        </g>
      </g>
      <g id="Grupo_170958" data-name="Grupo 170958" transform="translate(242.554)">
        <g id="Grupo_170945" data-name="Grupo 170945">
          <g id="Grupo_170879" data-name="Grupo 170879" transform="translate(7.538 0.003)">
            <g id="Grupo_170878" data-name="Grupo 170878">
              <g id="Grupo_170877" data-name="Grupo 170877">
                <g id="Grupo_170876" data-name="Grupo 170876">
                  <g id="Grupo_170875" data-name="Grupo 170875">
                    <g id="Grupo_170874" data-name="Grupo 170874">
                      <rect id="Rectángulo_49388" data-name="Rectángulo 49388" width="149.939" height="217.33" fill="#e0e0e0"/>
                    </g>
                  </g>
                </g>
              </g>
            </g>
          </g>
          <g id="Grupo_170885" data-name="Grupo 170885" transform="translate(0.027 0.003)">
            <g id="Grupo_170884" data-name="Grupo 170884">
              <g id="Grupo_170883" data-name="Grupo 170883">
                <g id="Grupo_170882" data-name="Grupo 170882">
                  <g id="Grupo_170881" data-name="Grupo 170881">
                    <g id="Grupo_170880" data-name="Grupo 170880">
                      <rect id="Rectángulo_49389" data-name="Rectángulo 49389" width="149.939" height="217.33" fill="#f5f5f5"/>
                    </g>
                  </g>
                </g>
              </g>
            </g>
          </g>
          <g id="Grupo_170899" data-name="Grupo 170899" transform="translate(18.248 23.132)">
            <g id="Grupo_170891" data-name="Grupo 170891" transform="translate(0.407 0.408)">
              <g id="Grupo_170890" data-name="Grupo 170890">
                <g id="Grupo_170889" data-name="Grupo 170889">
                  <g id="Grupo_170888" data-name="Grupo 170888">
                    <g id="Grupo_170887" data-name="Grupo 170887">
                      <g id="Grupo_170886" data-name="Grupo 170886">
                        <rect id="Rectángulo_49390" data-name="Rectángulo 49390" width="112.681" height="170.253" fill="#fff"/>
                      </g>
                    </g>
                  </g>
                </g>
              </g>
            </g>
            <g id="Grupo_170898" data-name="Grupo 170898">
              <g id="Grupo_170897" data-name="Grupo 170897">
                <g id="Grupo_170896" data-name="Grupo 170896">
                  <g id="Grupo_170895" data-name="Grupo 170895">
                    <g id="Grupo_170894" data-name="Grupo 170894">
                      <g id="Grupo_170893" data-name="Grupo 170893">
                        <g id="Grupo_170892" data-name="Grupo 170892">
                          <path id="Trazado_207358" data-name="Trazado 207358" d="M428.088,225.727s-.014-.288-.022-.832c-.005-.562-.013-1.364-.023-2.414-.01-2.14-.025-5.272-.045-9.339-.024-8.16-.057-20.05-.1-35.071-.045-30.022-.109-72.534-.184-122.6l.374.374-112.668.034h-.014l.408-.408c-.031,64.227-.06,123.444-.082,170.253l-.325-.324,82.017.17,22.66.083,5.948.036c1.347.012,2.057.034,2.057.034s-.663.024-1.988.035l-5.887.036-22.587.082-82.219.171h-.325v-.326c-.023-46.809-.052-106.026-.082-170.253v-.408h.421l112.668.034h.374v.374c-.075,50.163-.139,92.761-.184,122.842-.043,14.985-.077,26.847-.1,34.986-.02,4.034-.035,7.141-.045,9.263-.01,1.032-.017,1.82-.023,2.372C428.1,225.469,428.088,225.727,428.088,225.727Z" transform="translate(-314.999 -55.066)" fill="#e0e0e0"/>
                        </g>
                      </g>
                    </g>
                  </g>
                </g>
              </g>
            </g>
          </g>
          <g id="Grupo_170906" data-name="Grupo 170906" transform="translate(129.964 0)">
            <g id="Grupo_170905" data-name="Grupo 170905">
              <g id="Grupo_170904" data-name="Grupo 170904">
                <g id="Grupo_170903" data-name="Grupo 170903">
                  <g id="Grupo_170902" data-name="Grupo 170902">
                    <g id="Grupo_170901" data-name="Grupo 170901">
                      <g id="Grupo_170900" data-name="Grupo 170900">
                        <path id="Trazado_207359" data-name="Trazado 207359" d="M458.77,29.528A25.979,25.979,0,0,1,456.1,33.41c-1.742,2.329-4.213,5.5-7.035,8.923s-5.459,6.46-7.411,8.616a26.051,26.051,0,0,1-3.3,3.367,28,28,0,0,1,2.861-3.743l7.219-8.758,7.211-8.762A27.983,27.983,0,0,1,458.77,29.528Z" transform="translate(-438.348 -29.525)" fill="#e0e0e0"/>
                      </g>
                    </g>
                  </g>
                </g>
              </g>
            </g>
          </g>
          <g id="Grupo_170920" data-name="Grupo 170920" transform="translate(131.904 193.244)">
            <g id="Grupo_170912" data-name="Grupo 170912" transform="translate(0.007 0.002)">
              <g id="Grupo_170911" data-name="Grupo 170911">
                <g id="Grupo_170910" data-name="Grupo 170910">
                  <g id="Grupo_170909" data-name="Grupo 170909">
                    <g id="Grupo_170908" data-name="Grupo 170908">
                      <g id="Grupo_170907" data-name="Grupo 170907">
                        <path id="Trazado_207360" data-name="Trazado 207360" d="M440.5,242.892a139.511,139.511,0,0,0,19.654,24.579" transform="translate(-440.497 -242.892)" fill="#fff"/>
                      </g>
                    </g>
                  </g>
                </g>
              </g>
            </g>
            <g id="Grupo_170919" data-name="Grupo 170919">
              <g id="Grupo_170918" data-name="Grupo 170918">
                <g id="Grupo_170917" data-name="Grupo 170917">
                  <g id="Grupo_170916" data-name="Grupo 170916">
                    <g id="Grupo_170915" data-name="Grupo 170915">
                      <g id="Grupo_170914" data-name="Grupo 170914">
                        <g id="Grupo_170913" data-name="Grupo 170913">
                          <path id="Trazado_207361" data-name="Trazado 207361" d="M460.15,267.471a22.306,22.306,0,0,1-3.426-3.117,109.776,109.776,0,0,1-13.94-17.435,22.348,22.348,0,0,1-2.287-4.028,31.156,31.156,0,0,1,2.764,3.7c1.653,2.32,3.976,5.494,6.686,8.887s5.3,6.353,7.2,8.476A31.141,31.141,0,0,1,460.15,267.471Z" transform="translate(-440.49 -242.89)" fill="#e0e0e0"/>
                        </g>
                      </g>
                    </g>
                  </g>
                </g>
              </g>
            </g>
          </g>
          <g id="Grupo_170934" data-name="Grupo 170934" transform="translate(0 192.926)">
            <g id="Grupo_170926" data-name="Grupo 170926" transform="translate(0.005 0.003)">
              <g id="Grupo_170925" data-name="Grupo 170925">
                <g id="Grupo_170924" data-name="Grupo 170924">
                  <g id="Grupo_170923" data-name="Grupo 170923">
                    <g id="Grupo_170922" data-name="Grupo 170922">
                      <g id="Grupo_170921" data-name="Grupo 170921">
                        <path id="Trazado_207362" data-name="Trazado 207362" d="M294.857,266.774,314.5,242.542" transform="translate(-294.857 -242.542)" fill="#fff"/>
                      </g>
                    </g>
                  </g>
                </g>
              </g>
            </g>
            <g id="Grupo_170933" data-name="Grupo 170933">
              <g id="Grupo_170932" data-name="Grupo 170932">
                <g id="Grupo_170931" data-name="Grupo 170931">
                  <g id="Grupo_170930" data-name="Grupo 170930">
                    <g id="Grupo_170929" data-name="Grupo 170929">
                      <g id="Grupo_170928" data-name="Grupo 170928">
                        <g id="Grupo_170927" data-name="Grupo 170927">
                          <path id="Trazado_207363" data-name="Trazado 207363" d="M314.5,242.542c.175.142-4.079,5.681-9.5,12.372s-9.962,12-10.137,11.859,4.079-5.68,9.5-12.373S314.321,242.4,314.5,242.542Z" transform="translate(-294.851 -242.539)" fill="#e0e0e0"/>
                        </g>
                      </g>
                    </g>
                  </g>
                </g>
              </g>
            </g>
          </g>
          <g id="Grupo_170941" data-name="Grupo 170941" transform="translate(0.021)">
            <g id="Grupo_170940" data-name="Grupo 170940">
              <g id="Grupo_170939" data-name="Grupo 170939">
                <g id="Grupo_170938" data-name="Grupo 170938">
                  <g id="Grupo_170937" data-name="Grupo 170937">
                    <g id="Grupo_170936" data-name="Grupo 170936">
                      <g id="Grupo_170935" data-name="Grupo 170935">
                        <path id="Trazado_207364" data-name="Trazado 207364" d="M294.88,29.528c.177-.139,4.444,4.962,9.532,11.395s9.07,11.763,8.893,11.9-4.443-4.961-9.533-11.4S294.7,29.667,294.88,29.528Z" transform="translate(-294.875 -29.525)" fill="#e0e0e0"/>
                      </g>
                    </g>
                  </g>
                </g>
              </g>
            </g>
          </g>
          <g id="Grupo_170944" data-name="Grupo 170944" transform="translate(19.05 39.523)">
            <g id="Grupo_170943" data-name="Grupo 170943">
              <g id="Grupo_170942" data-name="Grupo 170942">
                <path id="Trazado_207365" data-name="Trazado 207365" d="M315.885,82.818c7.817-8.428,22.568-12.24,33.154-7.757a28.937,28.937,0,0,1,17.155,27.456c10.734,1.778,19,11.453,21.493,22.045s.066,21.8-4.2,31.814c-1.739,4.082-3.8,8.091-4.613,12.452s-.173,9.278,2.9,12.476c3.661,3.808,9.522,4.164,14.411,6.163,7.159,2.925,12.284,9.559,15.132,16.747s3.713,14.985,4.553,22.671H316.479Z" transform="translate(-315.885 -73.164)" fill="#f5f5f5"/>
              </g>
            </g>
          </g>
        </g>
        <g id="Grupo_170949" data-name="Grupo 170949" transform="translate(24.775 63.075)">
          <g id="Grupo_170948" data-name="Grupo 170948">
            <g id="Grupo_170947" data-name="Grupo 170947">
              <g id="Grupo_170946" data-name="Grupo 170946">
                <path id="Trazado_207366" data-name="Trazado 207366" d="M322.206,208.064c-.106-.1,21.74-24.552,48.788-54.617s49.071-54.374,49.177-54.278-21.736,24.547-48.793,54.623S322.312,208.16,322.206,208.064Z" transform="translate(-322.206 -99.168)" fill="#fafafa"/>
              </g>
            </g>
          </g>
        </g>
        <g id="Grupo_170953" data-name="Grupo 170953" transform="translate(50.485 57.257)">
          <g id="Grupo_170952" data-name="Grupo 170952">
            <g id="Grupo_170951" data-name="Grupo 170951">
              <g id="Grupo_170950" data-name="Grupo 170950">
                <path id="Trazado_207367" data-name="Trazado 207367" d="M412.44,92.744c.106.1-13.654,15.423-30.73,34.23s-31.01,33.981-31.116,33.885,13.652-15.419,30.734-34.232S412.335,92.649,412.44,92.744Z" transform="translate(-350.593 -92.744)" fill="#fafafa"/>
              </g>
            </g>
          </g>
        </g>
        <g id="Grupo_170957" data-name="Grupo 170957" transform="translate(53.934 103.56)">
          <g id="Grupo_170956" data-name="Grupo 170956">
            <g id="Grupo_170955" data-name="Grupo 170955">
              <g id="Grupo_170954" data-name="Grupo 170954">
                <path id="Trazado_207368" data-name="Trazado 207368" d="M406.5,143.869a4.55,4.55,0,0,1-.523.58q-.59.6-1.568,1.591l-5.795,5.821c-4.882,4.924-11.561,11.792-18.756,19.548s-13.539,14.94-18.081,20.18l-5.368,6.216q-.917,1.053-1.467,1.684a4.449,4.449,0,0,1-.54.564,4.429,4.429,0,0,1,.459-.631l1.394-1.745c1.216-1.512,3.007-3.674,5.245-6.324,4.473-5.3,10.78-12.526,17.98-20.293s13.927-14.6,18.877-19.455c2.474-2.432,4.5-4.38,5.911-5.707l1.636-1.522A4.337,4.337,0,0,1,406.5,143.869Z" transform="translate(-354.401 -143.868)" fill="#fafafa"/>
              </g>
            </g>
          </g>
        </g>
      </g>
      <g id="Grupo_171017" data-name="Grupo 171017" transform="translate(0 34.231)">
        <g id="Grupo_170961" data-name="Grupo 170961" transform="translate(60.797)">
          <g id="Grupo_170960" data-name="Grupo 170960">
            <g id="Grupo_170959" data-name="Grupo 170959">
              <path id="Trazado_207369" data-name="Trazado 207369" d="M126.326,79.223H123.55V73.6a3.068,3.068,0,0,0-2.741-3.308H99.687A3.068,3.068,0,0,0,96.946,73.6v5.623H94.17V73.6c0-3.462,2.474-6.279,5.517-6.279h21.123c3.042,0,5.517,2.817,5.517,6.279Z" transform="translate(-94.17 -67.32)" fill="#ebebeb"/>
            </g>
          </g>
        </g>
        <g id="Grupo_170980" data-name="Grupo 170980" transform="translate(22.002 11.903)">
          <g id="Grupo_170964" data-name="Grupo 170964">
            <g id="Grupo_170963" data-name="Grupo 170963">
              <g id="Grupo_170962" data-name="Grupo 170962">
                <rect id="Rectángulo_49391" data-name="Rectángulo 49391" width="109.319" height="78.23" rx="9.127" fill="#ebebeb"/>
              </g>
            </g>
          </g>
          <g id="Grupo_170979" data-name="Grupo 170979" transform="translate(30.037 12.696)">
            <g id="Grupo_170973" data-name="Grupo 170973" transform="translate(10.147 10.621)">
              <g id="Grupo_170968" data-name="Grupo 170968" transform="translate(11.412)">
                <g id="Grupo_170967" data-name="Grupo 170967">
                  <g id="Grupo_170966" data-name="Grupo 170966">
                    <g id="Grupo_170965" data-name="Grupo 170965">
                      <rect id="Rectángulo_49392" data-name="Rectángulo 49392" width="6.556" height="31.445" fill="#f5f5f5"/>
                    </g>
                  </g>
                </g>
              </g>
              <g id="Grupo_170972" data-name="Grupo 170972" transform="translate(0 12.214)">
                <g id="Grupo_170971" data-name="Grupo 170971">
                  <g id="Grupo_170970" data-name="Grupo 170970">
                    <g id="Grupo_170969" data-name="Grupo 170969">
                      <rect id="Rectángulo_49393" data-name="Rectángulo 49393" width="7.017" height="29.379" transform="translate(0 7.017) rotate(-90)" fill="#f5f5f5"/>
                    </g>
                  </g>
                </g>
              </g>
            </g>
            <g id="Grupo_170978" data-name="Grupo 170978">
              <g id="Grupo_170977" data-name="Grupo 170977">
                <g id="Grupo_170976" data-name="Grupo 170976">
                  <g id="Grupo_170975" data-name="Grupo 170975">
                    <g id="Grupo_170974" data-name="Grupo 170974">
                      <path id="Trazado_207370" data-name="Trazado 207370" d="M133.735,120.9a2.717,2.717,0,0,1-.046-.424c-.021-.306-.049-.718-.084-1.243q-.026-.413-.055-.915c-.035-.335-.1-.7-.16-1.093a20.4,20.4,0,0,0-.517-2.7,26.044,26.044,0,0,0-2.723-6.932,25.524,25.524,0,0,0-6.2-7.372,23.421,23.421,0,0,0-10.226-4.843,22.855,22.855,0,0,0-12.741,1.144,24.338,24.338,0,0,0-3.161,1.489,25.2,25.2,0,0,0-2.972,2.045,28.023,28.023,0,0,0-2.75,2.5,29.108,29.108,0,0,0-2.374,3.007,25.806,25.806,0,0,0-3.463,7.147,27.437,27.437,0,0,0,0,16.368,25.8,25.8,0,0,0,3.463,7.149,29.016,29.016,0,0,0,2.375,3.009,27.821,27.821,0,0,0,2.75,2.5,25.177,25.177,0,0,0,2.972,2.046,24.654,24.654,0,0,0,3.162,1.49,22.868,22.868,0,0,0,12.743,1.142,23.413,23.413,0,0,0,10.225-4.843,25.528,25.528,0,0,0,6.2-7.373,26,26,0,0,0,2.722-6.931,20.368,20.368,0,0,0,.517-2.7c.057-.395.126-.757.16-1.092s.038-.639.055-.915c.035-.525.063-.936.084-1.243a2.742,2.742,0,0,1,.046-.425,2.443,2.443,0,0,1,.006.426c-.008.308-.019.721-.033,1.249l-.031.921c-.027.337-.088.7-.136,1.1a19.756,19.756,0,0,1-.475,2.729,26.455,26.455,0,0,1-8.892,14.564,23.711,23.711,0,0,1-10.368,4.982,23.2,23.2,0,0,1-12.984-1.114,24.952,24.952,0,0,1-3.229-1.511,25.666,25.666,0,0,1-3.037-2.079,28.273,28.273,0,0,1-2.809-2.55,29.317,29.317,0,0,1-2.428-3.066,26.333,26.333,0,0,1-3.544-7.3,27.969,27.969,0,0,1,0-16.716,26.289,26.289,0,0,1,3.543-7.294,29.556,29.556,0,0,1,2.428-3.066,28.474,28.474,0,0,1,2.809-2.549A25.475,25.475,0,0,1,97.6,97.552a24.822,24.822,0,0,1,3.228-1.511,23.214,23.214,0,0,1,12.982-1.115,23.711,23.711,0,0,1,10.368,4.982,26.45,26.45,0,0,1,8.893,14.564,19.619,19.619,0,0,1,.475,2.729c.049.4.11.764.137,1.1l.031.921c.014.528.024.941.033,1.249A2.428,2.428,0,0,1,133.735,120.9Z" transform="translate(-84.499 -94.48)" fill="#f5f5f5"/>
                    </g>
                  </g>
                </g>
              </g>
            </g>
          </g>
        </g>
        <g id="Grupo_171016" data-name="Grupo 171016" transform="translate(0 25.641)">
          <g id="Grupo_170984" data-name="Grupo 170984" transform="translate(0 58.107)">
            <g id="Grupo_170983" data-name="Grupo 170983">
              <g id="Grupo_170982" data-name="Grupo 170982">
                <g id="Grupo_170981" data-name="Grupo 170981">
                  <rect id="Rectángulo_49394" data-name="Rectángulo 49394" width="162.287" height="15.407" fill="#e0e0e0"/>
                </g>
              </g>
            </g>
          </g>
          <g id="Grupo_170988" data-name="Grupo 170988" transform="translate(132.852 68.284)">
            <g id="Grupo_170987" data-name="Grupo 170987">
              <g id="Grupo_170986" data-name="Grupo 170986">
                <g id="Grupo_170985" data-name="Grupo 170985">
                  <rect id="Rectángulo_49395" data-name="Rectángulo 49395" width="6.938" height="17.069" fill="#e0e0e0"/>
                </g>
              </g>
            </g>
          </g>
          <g id="Grupo_170992" data-name="Grupo 170992" transform="translate(18.533 68.406)">
            <g id="Grupo_170991" data-name="Grupo 170991">
              <g id="Grupo_170990" data-name="Grupo 170990">
                <g id="Grupo_170989" data-name="Grupo 170989">
                  <rect id="Rectángulo_49396" data-name="Rectángulo 49396" width="6.938" height="17.069" fill="#e0e0e0"/>
                </g>
              </g>
            </g>
          </g>
          <g id="Grupo_170996" data-name="Grupo 170996" transform="translate(100.691)">
            <g id="Grupo_170995" data-name="Grupo 170995">
              <g id="Grupo_170994" data-name="Grupo 170994">
                <g id="Grupo_170993" data-name="Grupo 170993">
                  <path id="Trazado_207371" data-name="Trazado 207371" d="M149.619,104.278V95.631h-5.688v8.647h-5.714v49.461h16.712V104.278Z" transform="translate(-138.217 -95.631)" fill="#fafafa"/>
                </g>
              </g>
            </g>
          </g>
          <g id="Grupo_171000" data-name="Grupo 171000" transform="translate(119.66)">
            <g id="Grupo_170999" data-name="Grupo 170999">
              <g id="Grupo_170998" data-name="Grupo 170998">
                <g id="Grupo_170997" data-name="Grupo 170997">
                  <path id="Trazado_207372" data-name="Trazado 207372" d="M170.564,104.278V95.631h-5.689v8.647h-5.713v49.461h16.712V104.278Z" transform="translate(-159.162 -95.631)" fill="#f5f5f5"/>
                </g>
              </g>
            </g>
          </g>
          <g id="Grupo_171015" data-name="Grupo 171015" transform="translate(6.836 25.973)">
            <g id="Grupo_171004" data-name="Grupo 171004">
              <g id="Grupo_171003" data-name="Grupo 171003">
                <g id="Grupo_171002" data-name="Grupo 171002">
                  <g id="Grupo_171001" data-name="Grupo 171001">
                    <rect id="Rectángulo_49397" data-name="Rectángulo 49397" width="30.023" height="32.134" fill="#f5f5f5"/>
                  </g>
                </g>
              </g>
            </g>
            <g id="Grupo_171009" data-name="Grupo 171009" transform="translate(0.271 7.882)">
              <g id="Grupo_171008" data-name="Grupo 171008">
                <g id="Grupo_171007" data-name="Grupo 171007">
                  <g id="Grupo_171006" data-name="Grupo 171006">
                    <g id="Grupo_171005" data-name="Grupo 171005">
                      <path id="Trazado_207373" data-name="Trazado 207373" d="M64.494,133.386c0,.207-6.628.375-14.8.375s-14.8-.168-14.8-.375,6.626-.375,14.8-.375S64.494,133.179,64.494,133.386Z" transform="translate(-34.889 -133.011)" fill="#ebebeb"/>
                    </g>
                  </g>
                </g>
              </g>
            </g>
            <g id="Grupo_171014" data-name="Grupo 171014" transform="translate(8.395 12.368)">
              <g id="Grupo_171013" data-name="Grupo 171013">
                <g id="Grupo_171012" data-name="Grupo 171012">
                  <g id="Grupo_171011" data-name="Grupo 171011">
                    <g id="Grupo_171010" data-name="Grupo 171010">
                      <path id="Trazado_207374" data-name="Trazado 207374" d="M51.616,138.093c.007-.025.11-.009.305.047a2.49,2.49,0,0,1,.8.4,4.638,4.638,0,0,1,1.645,2.958,7.123,7.123,0,0,1-.772,5.05,4.409,4.409,0,0,1-2.335,1.893,5.3,5.3,0,0,1-3.118-.031,5.717,5.717,0,0,1-4.173-4.3,5.339,5.339,0,0,1,1.411-4.859,4.558,4.558,0,0,1,2.989-1.292,1.936,1.936,0,0,1,1.163.2c-.01.067-.422-.023-1.141.086a4.637,4.637,0,0,0-2.672,1.388,4.841,4.841,0,0,0-1.119,4.324,5.093,5.093,0,0,0,3.727,3.722,4.741,4.741,0,0,0,2.735.051,3.788,3.788,0,0,0,2-1.582,6.715,6.715,0,0,0,.815-4.56,4.637,4.637,0,0,0-1.323-2.823C52,138.286,51.591,138.164,51.616,138.093Z" transform="translate(-43.859 -137.964)" fill="#ebebeb"/>
                    </g>
                  </g>
                </g>
              </g>
            </g>
          </g>
        </g>
      </g>
    </g>
    <g id="Desk" transform="translate(37.552 431.053)">
      <g id="Grupo_171018" data-name="Grupo 171018" transform="translate(0 0)">
        <path id="Trazado_207375" data-name="Trazado 207375" d="M421.656,473.1c0,.13-85.747.235-191.5.235-105.786,0-191.514-.106-191.514-.235s85.728-.236,191.514-.236C335.909,472.861,421.656,472.967,421.656,473.1Z" transform="translate(-38.646 -472.861)" fill="#263238"/>
      </g>
    </g>
    <g id="Creams" transform="translate(85.183 351.917)">
      <g id="Grupo_171045" data-name="Grupo 171045" transform="translate(279.413 0)">
        <g id="Grupo_171022" data-name="Grupo 171022" transform="translate(14.707)">
          <g id="Grupo_171021" data-name="Grupo 171021">
            <g id="Grupo_171020" data-name="Grupo 171020">
              <g id="Grupo_171019" data-name="Grupo 171019">
                <path id="Trazado_207376" data-name="Trazado 207376" d="M415.981,405.193V387.586a2.1,2.1,0,0,1,2.1-2.1h.784a2.1,2.1,0,0,1,2.1,2.1v.821h13.068v4.471h-12.9v12.315Z" transform="translate(-415.981 -385.485)" fill="#263238"/>
              </g>
            </g>
          </g>
        </g>
        <g id="Grupo_171026" data-name="Grupo 171026" transform="translate(0 23.254)">
          <g id="Grupo_171025" data-name="Grupo 171025">
            <g id="Grupo_171024" data-name="Grupo 171024">
              <g id="Grupo_171023" data-name="Grupo 171023">
                <rect id="Rectángulo_49398" data-name="Rectángulo 49398" width="34.572" height="55.898" rx="2.289" fill="#7e5ee3"/>
              </g>
            </g>
          </g>
        </g>
        <g id="Grupo_171030" data-name="Grupo 171030" transform="translate(9.178 16.162)">
          <g id="Grupo_171029" data-name="Grupo 171029">
            <g id="Grupo_171028" data-name="Grupo 171028">
              <g id="Grupo_171027" data-name="Grupo 171027">
                <path id="Rectángulo_49399" data-name="Rectángulo 49399" d="M1.055,0h14.9a1.055,1.055,0,0,1,1.055,1.055V7.092a0,0,0,0,1,0,0H0a0,0,0,0,1,0,0V1.055A1.055,1.055,0,0,1,1.055,0Z" fill="#7e5ee3"/>
              </g>
            </g>
          </g>
        </g>
        <g id="Grupo_171034" data-name="Grupo 171034" transform="translate(17.286 31.959)">
          <g id="Grupo_171033" data-name="Grupo 171033">
            <g id="Grupo_171032" data-name="Grupo 171032">
              <g id="Grupo_171031" data-name="Grupo 171031">
                <rect id="Rectángulo_49400" data-name="Rectángulo 49400" width="14.98" height="36.987" fill="#ebebeb"/>
              </g>
            </g>
          </g>
        </g>
        <g id="Grupo_171039" data-name="Grupo 171039" transform="translate(8.752 22.524)">
          <g id="Grupo_171038" data-name="Grupo 171038">
            <g id="Grupo_171037" data-name="Grupo 171037">
              <g id="Grupo_171036" data-name="Grupo 171036">
                <g id="Grupo_171035" data-name="Grupo 171035">
                  <path id="Trazado_207377" data-name="Trazado 207377" d="M426.838,410.9c0,.3-3.9.542-8.716.542s-8.716-.242-8.716-.542,3.9-.542,8.716-.542S426.838,410.6,426.838,410.9Z" transform="translate(-409.406 -410.354)" fill="#263238"/>
                </g>
              </g>
            </g>
          </g>
        </g>
        <g id="Grupo_171044" data-name="Grupo 171044" transform="translate(1.584 27.439)">
          <g id="Grupo_171043" data-name="Grupo 171043">
            <g id="Grupo_171042" data-name="Grupo 171042">
              <g id="Grupo_171041" data-name="Grupo 171041">
                <g id="Grupo_171040" data-name="Grupo 171040">
                  <path id="Trazado_207378" data-name="Trazado 207378" d="M402.034,448.363c-.3,0-.542-7.294-.542-16.29s.243-16.292.542-16.292.542,7.293.542,16.292S402.333,448.363,402.034,448.363Z" transform="translate(-401.492 -415.781)" fill="#fafafa"/>
                </g>
              </g>
            </g>
          </g>
        </g>
      </g>
      <g id="Grupo_171053" data-name="Grupo 171053" transform="translate(234.977 55.902)">
        <g id="Grupo_171047" data-name="Grupo 171047">
          <g id="Grupo_171046" data-name="Grupo 171046">
            <rect id="Rectángulo_49401" data-name="Rectángulo 49401" width="37.504" height="23.249" fill="#455a64"/>
          </g>
        </g>
        <g id="Grupo_171050" data-name="Grupo 171050" transform="translate(0.406 8.094)">
          <g id="Grupo_171049" data-name="Grupo 171049">
            <g id="Grupo_171048" data-name="Grupo 171048">
              <path id="Trazado_207379" data-name="Trazado 207379" d="M387.78,456.6c0,.252-8.206.456-18.325.456s-18.326-.2-18.326-.456,8.2-.456,18.326-.456S387.78,456.349,387.78,456.6Z" transform="translate(-351.129 -456.144)" fill="#263238"/>
            </g>
          </g>
        </g>
        <g id="Grupo_171052" data-name="Grupo 171052" transform="translate(12.818 12.626)">
          <g id="Grupo_171051" data-name="Grupo 171051">
            <rect id="Rectángulo_49402" data-name="Rectángulo 49402" width="24.239" height="5.996" fill="#fff"/>
          </g>
        </g>
      </g>
      <g id="Grupo_171061" data-name="Grupo 171061" transform="translate(227.293 32.668)">
        <g id="Grupo_171055" data-name="Grupo 171055" transform="translate(0.528)">
          <g id="Grupo_171054" data-name="Grupo 171054">
            <rect id="Rectángulo_49403" data-name="Rectángulo 49403" width="37.504" height="23.249" fill="#81d4fa"/>
          </g>
        </g>
        <g id="Grupo_171058" data-name="Grupo 171058" transform="translate(0 8.094)">
          <g id="Grupo_171057" data-name="Grupo 171057">
            <g id="Grupo_171056" data-name="Grupo 171056">
              <path id="Trazado_207380" data-name="Trazado 207380" d="M378.846,430.946c0,.252-8.2.456-18.324.456s-18.326-.2-18.326-.456,8.2-.455,18.326-.455S378.846,430.695,378.846,430.946Z" transform="translate(-342.196 -430.491)" fill="#263238"/>
            </g>
          </g>
        </g>
        <g id="Grupo_171060" data-name="Grupo 171060" transform="translate(12.411 12.626)">
          <g id="Grupo_171059" data-name="Grupo 171059">
            <rect id="Rectángulo_49404" data-name="Rectángulo 49404" width="24.239" height="5.996" fill="#fff"/>
          </g>
        </g>
      </g>
      <g id="Grupo_171069" data-name="Grupo 171069" transform="translate(0 55.963)">
        <g id="Grupo_171063" data-name="Grupo 171063" transform="translate(0.528)">
          <g id="Grupo_171062" data-name="Grupo 171062">
            <rect id="Rectángulo_49405" data-name="Rectángulo 49405" width="37.504" height="23.249" fill="#455a64"/>
          </g>
        </g>
        <g id="Grupo_171066" data-name="Grupo 171066" transform="translate(0 8.094)">
          <g id="Grupo_171065" data-name="Grupo 171065">
            <g id="Grupo_171064" data-name="Grupo 171064">
              <path id="Trazado_207381" data-name="Trazado 207381" d="M127.887,456.668c0,.252-8.2.456-18.324.456s-18.326-.2-18.326-.456,8.2-.456,18.326-.456S127.887,456.417,127.887,456.668Z" transform="translate(-91.237 -456.212)" fill="#263238"/>
            </g>
          </g>
        </g>
        <g id="Grupo_171068" data-name="Grupo 171068" transform="translate(12.411 12.626)">
          <g id="Grupo_171067" data-name="Grupo 171067">
            <rect id="Rectángulo_49406" data-name="Rectángulo 49406" width="24.239" height="5.996" fill="#fff"/>
          </g>
        </g>
      </g>
    </g>
    <g id="Speech_Bubble" data-name="Speech Bubble" transform="translate(297.624 78.779)">
      <g id="Grupo_171089" data-name="Grupo 171089">
        <g id="Grupo_171079" data-name="Grupo 171079">
          <g id="Grupo_171078" data-name="Grupo 171078">
            <g id="Grupo_171077" data-name="Grupo 171077">
              <g id="Grupo_171076" data-name="Grupo 171076">
                <g id="Grupo_171075" data-name="Grupo 171075">
                  <g id="Grupo_171074" data-name="Grupo 171074">
                    <g id="Grupo_171073" data-name="Grupo 171073">
                      <g id="Grupo_171072" data-name="Grupo 171072">
                        <g id="Grupo_171071" data-name="Grupo 171071">
                          <path id="Trazado_207382" data-name="Trazado 207382" d="M326.3,152.56l12.142-.712a39.141,39.141,0,1,0-8.386-11.239l-.015-.016Z" transform="translate(-325.813 -83.93)" fill="#fff"/>
                          <g id="Grupo_171070" data-name="Grupo 171070">
                            <path id="Trazado_207383" data-name="Trazado 207383" d="M326.286,152.537s.068-.249.22-.758c.159-.526.389-1.284.689-2.281l2.735-8.957.052-.168.12.131.014.016-.165.112a39.128,39.128,0,0,1-4.134-18.769,38.251,38.251,0,0,1,.671-6.039,43,43,0,0,1,1.777-6.268,39.005,39.005,0,0,1,19.658-21.68,39.519,39.519,0,0,1,16.4-3.956,38.936,38.936,0,0,1,17.5,3.786A38.511,38.511,0,0,1,396.36,99.534c.476.653.967,1.3,1.429,1.954l1.24,2.068.618,1.031.521,1.08,1.026,2.156c.315.728.554,1.486.833,2.224a19.34,19.34,0,0,1,.742,2.243,35.713,35.713,0,0,1,1.014,4.572,39.837,39.837,0,0,1-1.215,17.97,39.313,39.313,0,0,1-34.886,27.5,42.822,42.822,0,0,1-6.53-.082,51.319,51.319,0,0,1-5.99-1.081,38.918,38.918,0,0,1-16.8-9.265l.073.026-9.071.47-2.309.113c-.515.024-.767.028-.767.028s.279-.026.806-.062l2.335-.159,8.994-.588.042,0,.032.029a38.95,38.95,0,0,0,16.745,9.112,51.518,51.518,0,0,0,5.946,1.049,42.723,42.723,0,0,0,6.473.059A39.025,39.025,0,0,0,402.136,134.7a39.432,39.432,0,0,0,1.186-17.761,35.142,35.142,0,0,0-1-4.518,19.216,19.216,0,0,0-.734-2.214c-.277-.73-.513-1.479-.824-2.2q-.505-1.062-1.015-2.13l-.514-1.067-.61-1.017-1.225-2.043c-.457-.651-.942-1.285-1.413-1.931a38.074,38.074,0,0,0-14.358-11.69,38.524,38.524,0,0,0-17.3-3.756A39.1,39.1,0,0,0,335.8,97.614a38.672,38.672,0,0,0-7.194,12.067,42.782,42.782,0,0,0-1.783,6.208,37.955,37.955,0,0,0-.688,5.987,39.146,39.146,0,0,0,4,18.668l.322.658-.487-.545-.014-.016.17-.038c-1.235,3.865-2.185,6.833-2.832,8.854-.323,1-.57,1.764-.74,2.293S326.286,152.537,326.286,152.537Z" transform="translate(-325.798 -83.908)" fill="#263238"/>
                          </g>
                        </g>
                      </g>
                    </g>
                  </g>
                </g>
              </g>
            </g>
          </g>
        </g>
        <g id="Grupo_171088" data-name="Grupo 171088" transform="translate(20.712 27.055)">
          <g id="Grupo_171087" data-name="Grupo 171087">
            <g id="Grupo_171086" data-name="Grupo 171086">
              <g id="Grupo_171085" data-name="Grupo 171085">
                <g id="Grupo_171084" data-name="Grupo 171084">
                  <g id="Grupo_171083" data-name="Grupo 171083">
                    <g id="Grupo_171082" data-name="Grupo 171082">
                      <g id="Grupo_171081" data-name="Grupo 171081">
                        <g id="Grupo_171080" data-name="Grupo 171080">
                          <path id="Trazado_207384" data-name="Trazado 207384" d="M348.667,128.59l5.057-5.057,9.753,8.669,19.145-18.423,4.7,5.057-24.564,23.119Z" transform="translate(-348.667 -113.78)" fill="#ff9d00"/>
                        </g>
                      </g>
                    </g>
                  </g>
                </g>
              </g>
            </g>
          </g>
        </g>
      </g>
    </g>
    <g id="Character" transform="translate(124.709 89.703)">
      <g id="Grupo_171267" data-name="Grupo 171267">
        <g id="Grupo_171096" data-name="Grupo 171096" transform="translate(7.573 141.473)">
          <path id="Trazado_207385" data-name="Trazado 207385" d="M309.241,301.847s6.4,18.8,41.012,56.682c12.763,13.97,23.557,14.885,32,8.514,14.176-10.7-1.275-33.565-1.275-33.565L334.787,270.84c-3.89-5.28-8.809-8.476-14.849-9.4Z" transform="translate(-158.894 -253.046)" fill="#ffbf9d"/>
          <g id="Grupo_171090" data-name="Grupo 171090" transform="translate(0.947 0)">
            <path id="Trazado_207386" data-name="Trazado 207386" d="M184.538,303.029,170.4,271.074s-20.416,6.4-24.827,32.549c-3.414,20.243,1.038,89.2,1.038,89.2l24.805,21.635c9.918-23.582,11.145-68.488,11.145-68.488Z" transform="translate(-144.285 -253.955)" fill="#ffbf9d"/>
            <path id="Trazado_207387" data-name="Trazado 207387" d="M318.857,452.285l-19.342-58.1,11.078-70.542-1.211-63.385-42.332-8.086-50.381,1.736L173.12,268.792l8.819,50.4,4.564,76.114-10.581,56.979Z" transform="translate(-147.005 -252.173)" fill="#00bcd4"/>
          </g>
          <path id="Trazado_207388" data-name="Trazado 207388" d="M143.24,311.929l39.453,19.884-3.453-64.664s-23.92,7.649-29.835,23.384S143.24,311.929,143.24,311.929Z" transform="translate(-143.24 -253.585)" fill="#00bcd4"/>
          <path id="Trazado_207389" data-name="Trazado 207389" d="M322.238,322.893l6.7,10.251,13.7-19.082-11.093-47.739s-5.089-6.007-13.037-5.281Z" transform="translate(-159.768 -253.003)" fill="#00bcd4"/>
          <g id="Grupo_171091" data-name="Grupo 171091" transform="translate(161.801 25.287)">
            <path id="Trazado_207390" data-name="Trazado 207390" d="M326.782,280.093a3.607,3.607,0,0,1,.053.67c.014.485.034,1.125.058,1.923.045,1.671.065,4.089.05,7.077-.027,5.977-.269,14.235-.942,23.331s-1.661,17.3-2.519,23.217c-.427,2.958-.8,5.346-1.1,6.992-.141.786-.255,1.416-.341,1.894a3.535,3.535,0,0,1-.151.655,3.726,3.726,0,0,1,.057-.67c.064-.482.149-1.115.255-1.906.231-1.706.552-4.088.947-7.008.772-5.921,1.7-14.12,2.378-23.208s.966-17.33,1.079-23.3c.042-2.947.075-5.35.1-7.072.013-.8.023-1.438.031-1.924A3.552,3.552,0,0,1,326.782,280.093Z" transform="translate(-321.888 -280.093)" fill="#263238"/>
          </g>
          <g id="Grupo_171092" data-name="Grupo 171092" transform="translate(29.013 53.598)">
            <path id="Trazado_207391" data-name="Trazado 207391" d="M175.279,311.352c.122-.043,2.215,5.478,4.673,12.331s4.352,12.447,4.23,12.49-2.214-5.476-4.674-12.332S175.156,311.4,175.279,311.352Z" transform="translate(-175.274 -311.352)" fill="#263238"/>
          </g>
          <g id="Grupo_171093" data-name="Grupo 171093" transform="translate(70.536 149.212)">
            <path id="Trazado_207392" data-name="Trazado 207392" d="M279.112,416.934c.01.13-12.965,1.206-28.977,2.4s-29.006,2.064-29.015,1.934,12.962-1.205,28.98-2.4S279.1,416.8,279.112,416.934Z" transform="translate(-221.12 -416.921)" fill="#263238"/>
          </g>
          <g id="Grupo_171094" data-name="Grupo 171094" transform="translate(84.2 115.207)">
            <path id="Trazado_207393" data-name="Trazado 207393" d="M271.38,379.377a10.37,10.37,0,0,1-1.274.966c-.837.6-2.066,1.441-3.6,2.46-3.064,2.039-7.364,4.755-12.228,7.563s-9.371,5.171-12.669,6.8c-1.649.817-2.992,1.459-3.93,1.884a10.348,10.348,0,0,1-1.474.62,10.256,10.256,0,0,1,1.394-.785l3.858-2.016c3.256-1.705,7.727-4.112,12.586-6.913s9.176-5.47,12.281-7.435L270,380.191A10.319,10.319,0,0,1,271.38,379.377Z" transform="translate(-236.207 -379.375)" fill="#263238"/>
          </g>
          <g id="Grupo_171095" data-name="Grupo 171095" transform="translate(54.169 40.846)">
            <path id="Trazado_207394" data-name="Trazado 207394" d="M297.012,331.995s-.08-.17-.212-.511l-.579-1.516c-.5-1.352-1.238-3.318-2.181-5.842l-3.422-9.254-2.13-5.779a43.71,43.71,0,0,0-2.68-6.333,13.234,13.234,0,0,0-2.153-2.956,7.109,7.109,0,0,0-3.2-1.938,6.317,6.317,0,0,0-1.921-.223,6.706,6.706,0,0,0-1.932.417,8.806,8.806,0,0,0-3.348,2.309,11.048,11.048,0,0,0-2.215,3.61,15.356,15.356,0,0,0-.811,4.329,60.548,60.548,0,0,0,.656,9.288,22.335,22.335,0,0,1-.743,9.819,10.1,10.1,0,0,1-2.867,4.257,10.276,10.276,0,0,1-4.727,2.241,12.4,12.4,0,0,1-10.183-2.494,11.118,11.118,0,0,1-3.142-4.5,23.788,23.788,0,0,1-1.323-5.389c-.528-3.665-.624-7.359-1.986-10.672a12.469,12.469,0,0,0-2.792-4.408,7.5,7.5,0,0,0-2.089-1.477,8.2,8.2,0,0,0-1.186-.462,11.839,11.839,0,0,0-1.246-.225,7.872,7.872,0,0,0-4.79,1.2,12.532,12.532,0,0,0-3.548,3.455,14.959,14.959,0,0,0-2.107,4.4,19.567,19.567,0,0,0-.647,4.748c-.089,3.182.3,6.286.5,9.317a44.137,44.137,0,0,1,.112,4.5,16.036,16.036,0,0,1-.648,4.332,11.657,11.657,0,0,1-4.725,6.7,6,6,0,0,1-3.832.824,6.656,6.656,0,0,1-3.44-1.512,19.121,19.121,0,0,1-4.2-5.507c-1.09-1.9-2.026-3.733-2.834-5.482a69.212,69.212,0,0,1-3.5-9.232c-.783-2.6-1.239-4.653-1.516-6.052-.149-.7-.23-1.236-.294-1.6s-.08-.547-.08-.547.051.181.128.538.176.891.34,1.585c.306,1.39.79,3.438,1.6,6.018a71.044,71.044,0,0,0,3.568,9.174c.816,1.737,1.76,3.562,2.855,5.443a18.9,18.9,0,0,0,4.148,5.4,6.33,6.33,0,0,0,3.274,1.426,5.641,5.641,0,0,0,3.606-.791,11.3,11.3,0,0,0,4.535-6.495,15.619,15.619,0,0,0,.62-4.232,44.26,44.26,0,0,0-.123-4.458c-.206-3.016-.609-6.129-.524-9.357a19.937,19.937,0,0,1,.655-4.857,15.379,15.379,0,0,1,2.163-4.533,12.989,12.989,0,0,1,3.677-3.585,8.335,8.335,0,0,1,5.075-1.276,12.188,12.188,0,0,1,1.328.239,8.532,8.532,0,0,1,1.262.49,7.955,7.955,0,0,1,2.212,1.561,12.938,12.938,0,0,1,2.9,4.569c1.4,3.405,1.492,7.158,2.016,10.777a23.348,23.348,0,0,0,1.293,5.281,10.656,10.656,0,0,0,3.008,4.319,11.946,11.946,0,0,0,9.79,2.4,9.83,9.83,0,0,0,4.519-2.134,9.641,9.641,0,0,0,2.742-4.067,21.948,21.948,0,0,0,.733-9.62,60.782,60.782,0,0,1-.637-9.354,15.725,15.725,0,0,1,.847-4.445,11.43,11.43,0,0,1,2.308-3.737,9.181,9.181,0,0,1,3.5-2.4,7.086,7.086,0,0,1,2.044-.432,6.666,6.666,0,0,1,2.037.243,7.458,7.458,0,0,1,3.353,2.042,13.52,13.52,0,0,1,2.2,3.041,43.5,43.5,0,0,1,2.668,6.387q1.114,3.076,2.1,5.795c1.3,3.615,2.426,6.73,3.347,9.283l2.1,5.873.534,1.531C296.963,331.813,297.012,331.995,297.012,331.995Z" transform="translate(-203.049 -297.272)" fill="#fff"/>
          </g>
        </g>
        <g id="Grupo_171215" data-name="Grupo 171215" transform="translate(28.393)">
          <g id="Grupo_171210" data-name="Grupo 171210">
            <g id="Grupo_171097" data-name="Grupo 171097">
              <path id="Trazado_207395" data-name="Trazado 207395" d="M194.416,95.988c-10.324-.374-20.643,4.884-25.335,12.909a21.723,21.723,0,0,0,2.905,25.456c-5.084,2.117-7.012,8.5-3.784,12.524s10.769,4.636,14.793,1.2c-2.419,4.486.244,10.262,5.122,12.808s11.278,2.175,16.334-.091a29.049,29.049,0,0,0,11.825-10.448l2.158-39.659C214.522,102.35,204.741,96.363,194.416,95.988Z" transform="translate(-166.228 -95.969)" fill="#263238"/>
            </g>
            <g id="Grupo_171209" data-name="Grupo 171209" transform="translate(21.256 0)">
              <g id="Grupo_171100" data-name="Grupo 171100" transform="translate(0.179 0.239)">
                <g id="Grupo_171099" data-name="Grupo 171099">
                  <g id="Grupo_171098" data-name="Grupo 171098">
                    <path id="Trazado_207396" data-name="Trazado 207396" d="M192.949,155.243a13.86,13.86,0,0,1,.634-18.093c-2.76-3.149-1.992-8.179.579-11.478s6.494-5.275,10.283-7.144c1.773-9.552,12.439-16.6,22.185-14.649,4.774-7.4,15.459-8.9,24.14-6.747a23.409,23.409,0,0,0,6.432,1.141,38.068,38.068,0,0,0,4.738-.807c8.7-1.447,17.595,4.261,21.29,12.084a15.668,15.668,0,0,0,1.99,3.631c1.186,1.388,2.936,2.168,4.442,3.221a13.561,13.561,0,0,1,5.711,9.89c.262,3.309-.692,6.862.847,9.822.771,1.484,2.109,2.656,2.724,4.208,1.781,4.5-3.222,9.327-2.094,14.02.23.957.708,1.839,1.016,2.777a8.228,8.228,0,0,1-.312,5.894c-.64,1.421-1.706,2.739-1.744,4.291a13.336,13.336,0,0,0,.831,3.423c.693,2.8-5.153,13.893-7.6,15.514l-74.625,3.213A13.775,13.775,0,0,1,203.2,178.1a4.889,4.889,0,0,0-.792-2.656,6.014,6.014,0,0,0-2.084-1.223c-4.9-2.353-5.71-8.773-5.394-14.091a6.334,6.334,0,0,0-.122-2.223A8.141,8.141,0,0,0,192.949,155.243Z" transform="translate(-189.895 -96.233)" fill="#263238"/>
                  </g>
                </g>
              </g>
              <g id="Grupo_171103" data-name="Grupo 171103" transform="translate(24.582 18.443)">
                <g id="Grupo_171102" data-name="Grupo 171102">
                  <g id="Grupo_171101" data-name="Grupo 171101">
                    <path id="Trazado_207397" data-name="Trazado 207397" d="M216.881,156.509c-.686-12.884,7.066-27.983,19.962-34.738,8.13-4.259,14.583-4.506,18.915-5.15a30.875,30.875,0,0,1,17.735,3c4.148.8,19.712,13.758,21.022,28.35,1.455,16.211,2.577,36.06.908,48.223-3.354,24.455-24.594,28.093-24.594,28.093,0-.037-.13,15.862-.13,15.862h0c-11.873,17.811-35.876,18.812-49.86,2.607l-.044-.052Z" transform="translate(-216.839 -116.333)" fill="#ffbf9d"/>
                  </g>
                </g>
              </g>
              <g id="Grupo_171106" data-name="Grupo 171106" transform="translate(67.628 91.36)">
                <g id="Grupo_171105" data-name="Grupo 171105">
                  <g id="Grupo_171104" data-name="Grupo 171104">
                    <path id="Trazado_207398" data-name="Trazado 207398" d="M264.372,201.357a4.731,4.731,0,0,1,1.448-3.069,5.1,5.1,0,0,1,6.025-.806c1.934,1.093,2.339,3.173,2.185,5.553h0c-.917,1.461-1.564,2.886-3.295,3.169a7.408,7.408,0,0,1-.814.089,5.562,5.562,0,0,1-3.792-1.135A4.711,4.711,0,0,1,264.372,201.357Z" transform="translate(-264.367 -196.842)" fill="#ff9a6c"/>
                  </g>
                </g>
              </g>
              <g id="Grupo_171114" data-name="Grupo 171114" transform="translate(87.26 68.393)">
                <g id="Grupo_171113" data-name="Grupo 171113">
                  <g id="Grupo_171112" data-name="Grupo 171112">
                    <g id="Grupo_171111" data-name="Grupo 171111">
                      <g id="Grupo_171110" data-name="Grupo 171110">
                        <g id="Grupo_171109" data-name="Grupo 171109">
                          <g id="Grupo_171108" data-name="Grupo 171108">
                            <g id="Grupo_171107" data-name="Grupo 171107">
                              <path id="Trazado_207399" data-name="Trazado 207399" d="M292.428,174.234a3.156,3.156,0,0,1-3.009,3.226,3.044,3.044,0,0,1-3.371-2.739,3.158,3.158,0,0,1,3.005-3.227A3.045,3.045,0,0,1,292.428,174.234Z" transform="translate(-286.043 -171.484)" fill="#263238"/>
                            </g>
                          </g>
                        </g>
                      </g>
                    </g>
                  </g>
                </g>
              </g>
              <g id="Grupo_171123" data-name="Grupo 171123" transform="translate(84.102 56.429)">
                <g id="Grupo_171122" data-name="Grupo 171122">
                  <g id="Grupo_171121" data-name="Grupo 171121">
                    <g id="Grupo_171120" data-name="Grupo 171120">
                      <g id="Grupo_171119" data-name="Grupo 171119">
                        <g id="Grupo_171118" data-name="Grupo 171118">
                          <g id="Grupo_171117" data-name="Grupo 171117">
                            <g id="Grupo_171116" data-name="Grupo 171116">
                              <g id="Grupo_171115" data-name="Grupo 171115">
                                <path id="Trazado_207400" data-name="Trazado 207400" d="M295.215,161.411c-.387.418-2.856-1.276-6.3-1.186-3.443.043-5.928,1.833-6.312,1.43-.188-.178.2-.923,1.279-1.732a8.935,8.935,0,0,1,5.04-1.648,8.583,8.583,0,0,1,5.028,1.453C295.028,160.5,295.406,161.225,295.215,161.411Z" transform="translate(-282.556 -158.274)" fill="#263238"/>
                              </g>
                            </g>
                          </g>
                        </g>
                      </g>
                    </g>
                  </g>
                </g>
              </g>
              <g id="Grupo_171131" data-name="Grupo 171131" transform="translate(74.957 58.621)">
                <g id="Grupo_171130" data-name="Grupo 171130">
                  <g id="Grupo_171129" data-name="Grupo 171129">
                    <g id="Grupo_171128" data-name="Grupo 171128">
                      <g id="Grupo_171127" data-name="Grupo 171127">
                        <g id="Grupo_171126" data-name="Grupo 171126">
                          <g id="Grupo_171125" data-name="Grupo 171125">
                            <g id="Grupo_171124" data-name="Grupo 171124">
                              <path id="Trazado_207401" data-name="Trazado 207401" d="M274.771,188.669c-.022-.19,2.111-.6,5.57-1.119.878-.11,1.706-.3,1.839-.889a4.275,4.275,0,0,0-.65-2.53q-1.319-3.088-2.766-6.476c-3.845-9.221-6.653-16.812-6.271-16.959s3.81,7.206,7.656,16.427q1.39,3.413,2.656,6.516a4.868,4.868,0,0,1,.541,3.359,2.192,2.192,0,0,1-1.415,1.29,6.142,6.142,0,0,1-1.489.238C276.955,188.793,274.788,188.86,274.771,188.669Z" transform="translate(-272.459 -160.695)" fill="#263238"/>
                            </g>
                          </g>
                        </g>
                      </g>
                    </g>
                  </g>
                </g>
              </g>
              <g id="Grupo_171138" data-name="Grupo 171138" transform="translate(44.892 118.418)">
                <g id="Grupo_171137" data-name="Grupo 171137">
                  <g id="Grupo_171136" data-name="Grupo 171136">
                    <g id="Grupo_171135" data-name="Grupo 171135">
                      <g id="Grupo_171134" data-name="Grupo 171134">
                        <g id="Grupo_171133" data-name="Grupo 171133">
                          <g id="Grupo_171132" data-name="Grupo 171132">
                            <path id="Trazado_207402" data-name="Trazado 207402" d="M273.025,234.614a65.113,65.113,0,0,1-33.762-7.9s8.521,17.286,33.448,14.411Z" transform="translate(-239.263 -226.718)" fill="#ff9a6c"/>
                          </g>
                        </g>
                      </g>
                    </g>
                  </g>
                </g>
              </g>
              <g id="Grupo_171148" data-name="Grupo 171148" transform="translate(81.454 43.406)">
                <g id="Grupo_171147" data-name="Grupo 171147">
                  <g id="Grupo_171146" data-name="Grupo 171146">
                    <g id="Grupo_171145" data-name="Grupo 171145">
                      <g id="Grupo_171144" data-name="Grupo 171144">
                        <g id="Grupo_171143" data-name="Grupo 171143">
                          <g id="Grupo_171142" data-name="Grupo 171142">
                            <g id="Grupo_171141" data-name="Grupo 171141">
                              <g id="Grupo_171140" data-name="Grupo 171140">
                                <g id="Grupo_171139" data-name="Grupo 171139">
                                  <path id="Trazado_207403" data-name="Trazado 207403" d="M292.338,146.666c-.559.835-3.211.349-6.286.673-3.086.226-5.61,1.176-6.305.453-.311-.354.005-1.162,1.053-2.013a10,10,0,0,1,10.146-.907C292.127,145.523,292.58,146.263,292.338,146.666Z" transform="translate(-279.632 -143.895)" fill="#263238"/>
                                </g>
                              </g>
                            </g>
                          </g>
                        </g>
                      </g>
                    </g>
                  </g>
                </g>
              </g>
              <g id="Grupo_171156" data-name="Grupo 171156" transform="translate(57.009 69.629)">
                <g id="Grupo_171155" data-name="Grupo 171155">
                  <g id="Grupo_171154" data-name="Grupo 171154">
                    <g id="Grupo_171153" data-name="Grupo 171153">
                      <g id="Grupo_171152" data-name="Grupo 171152">
                        <g id="Grupo_171151" data-name="Grupo 171151">
                          <g id="Grupo_171150" data-name="Grupo 171150">
                            <g id="Grupo_171149" data-name="Grupo 171149">
                              <path id="Trazado_207404" data-name="Trazado 207404" d="M252.643,175.862a3.171,3.171,0,0,0,3.282,2.961,3.027,3.027,0,0,0,3.117-3.011,3.173,3.173,0,0,0-3.279-2.963A3.029,3.029,0,0,0,252.643,175.862Z" transform="translate(-252.642 -172.849)" fill="#263238"/>
                            </g>
                          </g>
                        </g>
                      </g>
                    </g>
                  </g>
                </g>
              </g>
              <g id="Grupo_171165" data-name="Grupo 171165" transform="translate(49.597 58.338)">
                <g id="Grupo_171164" data-name="Grupo 171164">
                  <g id="Grupo_171163" data-name="Grupo 171163">
                    <g id="Grupo_171162" data-name="Grupo 171162">
                      <g id="Grupo_171161" data-name="Grupo 171161">
                        <g id="Grupo_171160" data-name="Grupo 171160">
                          <g id="Grupo_171159" data-name="Grupo 171159">
                            <g id="Grupo_171158" data-name="Grupo 171158">
                              <g id="Grupo_171157" data-name="Grupo 171157">
                                <path id="Trazado_207405" data-name="Trazado 207405" d="M244.519,164.056c.422.382,2.733-1.512,6.173-1.712,3.433-.247,6.068,1.328,6.414.893.172-.192-.279-.9-1.426-1.617a8.965,8.965,0,0,0-5.167-1.219,8.558,8.558,0,0,0-4.881,1.87C244.625,163.127,244.312,163.884,244.519,164.056Z" transform="translate(-244.458 -160.382)" fill="#263238"/>
                              </g>
                            </g>
                          </g>
                        </g>
                      </g>
                    </g>
                  </g>
                </g>
              </g>
              <g id="Grupo_171175" data-name="Grupo 171175" transform="translate(49.06 44.933)">
                <g id="Grupo_171174" data-name="Grupo 171174">
                  <g id="Grupo_171173" data-name="Grupo 171173">
                    <g id="Grupo_171172" data-name="Grupo 171172">
                      <g id="Grupo_171171" data-name="Grupo 171171">
                        <g id="Grupo_171170" data-name="Grupo 171170">
                          <g id="Grupo_171169" data-name="Grupo 171169">
                            <g id="Grupo_171168" data-name="Grupo 171168">
                              <g id="Grupo_171167" data-name="Grupo 171167">
                                <g id="Grupo_171166" data-name="Grupo 171166">
                                  <path id="Trazado_207406" data-name="Trazado 207406" d="M243.985,149.484c.725.721,3.33-.23,6.518-.46,3.18-.328,5.926.156,6.5-.679.249-.4-.225-1.141-1.452-1.791a10.073,10.073,0,0,0-5.382-.929,9.891,9.891,0,0,0-5.1,1.847C243.983,148.322,243.662,149.13,243.985,149.484Z" transform="translate(-243.865 -145.581)" fill="#263238"/>
                                </g>
                              </g>
                            </g>
                          </g>
                        </g>
                      </g>
                    </g>
                  </g>
                </g>
              </g>
              <g id="Grupo_171182" data-name="Grupo 171182" transform="translate(11.543 75.168)">
                <g id="Grupo_171181" data-name="Grupo 171181">
                  <g id="Grupo_171180" data-name="Grupo 171180">
                    <g id="Grupo_171179" data-name="Grupo 171179">
                      <g id="Grupo_171178" data-name="Grupo 171178">
                        <g id="Grupo_171177" data-name="Grupo 171177">
                          <g id="Grupo_171176" data-name="Grupo 171176">
                            <path id="Trazado_207407" data-name="Trazado 207407" d="M220.121,185.406c-.05-1.814-2.3-6.04-4.149-6.276-4.921-.629-13.748-.034-13.526,12.119.3,16.611,17.331,12.887,17.353,12.411C219.816,203.287,220.294,191.67,220.121,185.406Z" transform="translate(-202.442 -178.964)" fill="#ffbf9d"/>
                          </g>
                        </g>
                      </g>
                    </g>
                  </g>
                </g>
              </g>
              <g id="Grupo_171190" data-name="Grupo 171190" transform="translate(16.378 80.788)">
                <g id="Grupo_171189" data-name="Grupo 171189">
                  <g id="Grupo_171188" data-name="Grupo 171188">
                    <g id="Grupo_171187" data-name="Grupo 171187">
                      <g id="Grupo_171186" data-name="Grupo 171186">
                        <g id="Grupo_171185" data-name="Grupo 171185">
                          <g id="Grupo_171184" data-name="Grupo 171184">
                            <g id="Grupo_171183" data-name="Grupo 171183">
                              <path id="Trazado_207408" data-name="Trazado 207408" d="M215.5,198.258c-.075-.052-.293.207-.789.44a3.033,3.033,0,0,1-2.217.083c-1.81-.612-3.376-3.372-3.512-6.365a9.355,9.355,0,0,1,.754-4.159A3.381,3.381,0,0,1,211.922,186a1.522,1.522,0,0,1,1.764.762c.237.461.134.8.226.821.048.042.36-.283.21-.966a1.838,1.838,0,0,0-.689-1.031,2.278,2.278,0,0,0-1.647-.394,4.139,4.139,0,0,0-3.05,2.629,9.622,9.622,0,0,0-.943,4.649c.169,3.346,1.983,6.447,4.457,7.1a3.241,3.241,0,0,0,2.7-.486C215.473,198.66,215.556,198.287,215.5,198.258Z" transform="translate(-207.781 -185.17)" fill="#ff9a6c"/>
                            </g>
                          </g>
                        </g>
                      </g>
                    </g>
                  </g>
                </g>
              </g>
              <g id="Grupo_171193" data-name="Grupo 171193" transform="translate(15.914 10.656)">
                <g id="Grupo_171192" data-name="Grupo 171192">
                  <g id="Grupo_171191" data-name="Grupo 171191">
                    <path id="Trazado_207409" data-name="Trazado 207409" d="M297.395,147.3c-3.493-2.012-5.76-4.813-5.649-8.77-2.263.719-4.652-2.09-6.031-3.982s-3.034-2.825-2.992-5.147a2.568,2.568,0,0,0-.2-1.344c-.361-.629-1.177-.816-1.887-1.013a11.27,11.27,0,0,1-7.707-7.548,24.648,24.648,0,0,1-11.616,2.165,9.343,9.343,0,0,1-15.617-.281,8.238,8.238,0,0,1-5.429,4.115,25.078,25.078,0,0,1-7.049.548,9.49,9.49,0,0,1-6.147,10.945c-.6.2-1.3.393-1.561.955-.275.584.061,1.249.311,1.844a7.462,7.462,0,0,1-4.9,9.673,5.51,5.51,0,0,1-.291,8.772c-.61.38-1.407.839-1.293,1.536a1.571,1.571,0,0,0,.392.7c1.31,1.612,2.619,3.376,2.826,5.423s-1.154,4.384-3.257,4.525A5.306,5.306,0,0,1,221.549,174c.062,1.444-1.4,2.95-2.79,2.464-.592-.206-9.109-1.625-9.5-2.109-4.98-6.261.9-13.459,1.167-21.381a50.6,50.6,0,0,1,6.779-22.617,37.672,37.672,0,0,1,5.837-8.153,51.29,51.29,0,0,1,9.185-6.953c4.234-2.717,8.589-5.431,13.49-6.688,9.129-2.339,18.757.682,27.423,4.335a40.273,40.273,0,0,1,9.382,5.092,35.544,35.544,0,0,1,8.046,9.736c3.173,5.206,5.841,10.839,6.6,16.851" transform="translate(-207.268 -107.736)" fill="#263238"/>
                  </g>
                </g>
              </g>
              <g id="Grupo_171196" data-name="Grupo 171196">
                <g id="Grupo_171195" data-name="Grupo 171195">
                  <g id="Grupo_171194" data-name="Grupo 171194">
                    <path id="Trazado_207410" data-name="Trazado 207410" d="M298.926,140.3a6.3,6.3,0,0,0-.965-1.759c-.375-.543-.9-1.173-1.406-1.985a7.623,7.623,0,0,1-1.037-3.078,23.64,23.64,0,0,1-.036-4.11,17.815,17.815,0,0,0-.266-4.928,13.767,13.767,0,0,0-4.536-7.472,20.882,20.882,0,0,0-2.741-1.882,10.5,10.5,0,0,1-2.645-2.111,13.318,13.318,0,0,1-1.7-3.085,21.7,21.7,0,0,0-4.307-6.315,22.19,22.19,0,0,0-6.729-4.781,20.667,20.667,0,0,0-4.137-1.4,18.753,18.753,0,0,0-4.486-.379,21.331,21.331,0,0,0-2.289.237c-.757.135-1.5.311-2.253.461a11.238,11.238,0,0,1-4.548.122c-1.532-.254-3.04-.752-4.624-1.092a30.587,30.587,0,0,0-9.836-.623,26.462,26.462,0,0,0-4.968,1.027A16.789,16.789,0,0,0,227,102.887l-.609.834.268-.112a19.451,19.451,0,0,0-14.574,3.27,18.471,18.471,0,0,0-7.9,11.581l.13-.17a54.333,54.333,0,0,0-5.883,3.229,17.775,17.775,0,0,0-4.754,4.379,11.209,11.209,0,0,0-2.058,5.79,7.72,7.72,0,0,0,1.78,5.573l.007-.279a13.586,13.586,0,0,0-3.684,8.629,13.819,13.819,0,0,0,2,8.207,13.5,13.5,0,0,0,1.176,1.615,18.1,18.1,0,0,1,1.213,1.452,3.5,3.5,0,0,1,.65,1.613,9.878,9.878,0,0,1,0,1.724,26.618,26.618,0,0,0,.354,6.3,13,13,0,0,0,1.807,4.754,8.258,8.258,0,0,0,2.721,2.626c.894.543,1.677.742,2.118,1.039a3.762,3.762,0,0,1,.633.485,1.948,1.948,0,0,0-.6-.539c-.438-.32-1.222-.542-2.086-1.091a8.221,8.221,0,0,1-2.628-2.617,12.907,12.907,0,0,1-1.725-4.7,26.607,26.607,0,0,1-.3-6.24,10.1,10.1,0,0,0,.012-1.778,3.819,3.819,0,0,0-.691-1.752,18.04,18.04,0,0,0-1.225-1.486,13.234,13.234,0,0,1-3.04-9.587,13.217,13.217,0,0,1,3.606-8.367l.133-.137-.126-.142a7.306,7.306,0,0,1-1.659-5.278,10.789,10.789,0,0,1,1.993-5.556,17.337,17.337,0,0,1,4.641-4.25,54.337,54.337,0,0,1,5.836-3.189l.109-.053.022-.117a18,18,0,0,1,7.711-11.261A18.949,18.949,0,0,1,226.56,104.1l.163.033.105-.144.589-.805a16.291,16.291,0,0,1,8.164-5.563,25.941,25.941,0,0,1,4.862-1.007,30.152,30.152,0,0,1,9.668.6c1.555.332,3.075.832,4.653,1.091a11.991,11.991,0,0,0,2.388.178,14.3,14.3,0,0,0,2.34-.312c.759-.153,1.5-.33,2.242-.463a21.056,21.056,0,0,1,2.222-.235,18.258,18.258,0,0,1,4.367.359,20.182,20.182,0,0,1,4.045,1.355,21.771,21.771,0,0,1,6.612,4.668,21.311,21.311,0,0,1,4.254,6.186A13.644,13.644,0,0,0,285,113.2a10.847,10.847,0,0,0,2.745,2.176,20.616,20.616,0,0,1,2.711,1.839,13.507,13.507,0,0,1,4.48,7.277,17.666,17.666,0,0,1,.3,4.858,23.434,23.434,0,0,0,.082,4.144,7.713,7.713,0,0,0,1.1,3.13c.526.818,1.065,1.436,1.452,1.967a9.811,9.811,0,0,1,.815,1.248C298.851,140.14,298.913,140.3,298.926,140.3Z" transform="translate(-189.697 -95.97)" fill="#455a64"/>
                  </g>
                </g>
              </g>
              <g id="Grupo_171199" data-name="Grupo 171199" transform="translate(44.801 1.679)">
                <g id="Grupo_171198" data-name="Grupo 171198">
                  <g id="Grupo_171197" data-name="Grupo 171197">
                    <path id="Trazado_207411" data-name="Trazado 207411" d="M239.164,100.169c.027.036.443-.264,1.259-.681a11.644,11.644,0,0,1,3.681-1.155,10.854,10.854,0,0,1,10.832,5.011,9.043,9.043,0,0,1,.9,1.857,2.027,2.027,0,0,1-.075,1.753l-.4.576.682-.207a7.2,7.2,0,0,1,5.279.471,6.707,6.707,0,0,1,2.973,3,7.127,7.127,0,0,1,.741,2.719c.043.664,0,1.031.037,1.035.014,0,.039-.088.071-.263a4.452,4.452,0,0,0,.065-.778,6.676,6.676,0,0,0-.624-2.846,6.9,6.9,0,0,0-3.059-3.238,7.58,7.58,0,0,0-5.632-.563l.282.369a2.485,2.485,0,0,0,.148-2.171,9.443,9.443,0,0,0-.946-1.97,11.335,11.335,0,0,0-5.479-4.533,11.125,11.125,0,0,0-5.85-.568,10.8,10.8,0,0,0-3.721,1.334,7.4,7.4,0,0,0-.887.6C239.247,100.069,239.153,100.155,239.164,100.169Z" transform="translate(-239.163 -97.823)" fill="#455a64"/>
                  </g>
                </g>
              </g>
              <g id="Grupo_171202" data-name="Grupo 171202" transform="translate(17.719 23.82)">
                <g id="Grupo_171201" data-name="Grupo 171201">
                  <g id="Grupo_171200" data-name="Grupo 171200">
                    <path id="Trazado_207412" data-name="Trazado 207412" d="M209.263,122.275c-.02.023.187.236.611.578a10.989,10.989,0,0,0,1.962,1.254,8.3,8.3,0,0,0,3.423.9,6.188,6.188,0,0,0,4.191-1.359l-.379-.046.518.668c.188.217.4.424.6.639a10.366,10.366,0,0,0,4.325,2.469,10.823,10.823,0,0,0,4.069.389,9.56,9.56,0,0,0,2.665-.668,3.345,3.345,0,0,0,.874-.486,14.982,14.982,0,0,1-3.569.8,11.019,11.019,0,0,1-3.9-.477,10.21,10.21,0,0,1-4.1-2.382c-.189-.2-.389-.4-.567-.6l-.492-.629-.174-.223-.2.177a5.822,5.822,0,0,1-3.845,1.29,8.355,8.355,0,0,1-3.285-.761C210.222,123,209.315,122.2,209.263,122.275Z" transform="translate(-209.262 -122.27)" fill="#455a64"/>
                  </g>
                </g>
              </g>
              <g id="Grupo_171205" data-name="Grupo 171205" transform="translate(9.15 37.626)">
                <g id="Grupo_171204" data-name="Grupo 171204">
                  <g id="Grupo_171203" data-name="Grupo 171203">
                    <path id="Trazado_207413" data-name="Trazado 207413" d="M199.806,139.354c-.017,0,0,.108.05.305a2.825,2.825,0,0,0,.4.793,4.556,4.556,0,0,0,2.792,1.705,8.859,8.859,0,0,0,4.846-.644,27.931,27.931,0,0,0,2.658-1.106,4.608,4.608,0,0,0,2.292-2.152c.034-.093.067-.185.1-.27l-.4.13a19.65,19.65,0,0,0,5.131,2.823,8.964,8.964,0,0,0,4.793.354,6.378,6.378,0,0,0,2.908-1.385,3.833,3.833,0,0,0,.6-.631c.118-.159.171-.247.158-.258-.036-.029-.294.3-.882.741a6.668,6.668,0,0,1-2.853,1.189,8.845,8.845,0,0,1-4.567-.443,20.112,20.112,0,0,1-4.981-2.793l-.277-.2-.12.33c-.026.072-.054.148-.082.226a4.169,4.169,0,0,1-2.052,1.906c-.854.436-1.755.779-2.59,1.109a8.743,8.743,0,0,1-4.606.728,4.541,4.541,0,0,1-2.7-1.475A7.179,7.179,0,0,1,199.806,139.354Z" transform="translate(-199.8 -137.513)" fill="#455a64"/>
                  </g>
                </g>
              </g>
              <g id="Grupo_171208" data-name="Grupo 171208" transform="translate(66.911 92.748)">
                <g id="Grupo_171207" data-name="Grupo 171207">
                  <g id="Grupo_171206" data-name="Grupo 171206">
                    <path id="Trazado_207414" data-name="Trazado 207414" d="M263.665,198.393c.408-.27,2.094,2.476,5.7,3.024s6.419-1.5,6.676-1.128c.145.15-.342.924-1.59,1.695a8.327,8.327,0,0,1-5.478,1.1,7.138,7.138,0,0,1-4.6-2.641C263.565,199.353,263.463,198.489,263.665,198.393Z" transform="translate(-263.576 -198.374)" fill="#263238"/>
                  </g>
                </g>
              </g>
            </g>
          </g>
          <g id="Grupo_171211" data-name="Grupo 171211" transform="translate(114.568 88.192)">
            <path id="Trazado_207415" data-name="Trazado 207415" d="M296.337,195.106a1.806,1.806,0,1,1-1.806-1.762A1.785,1.785,0,0,1,296.337,195.106Z" transform="translate(-292.725 -193.344)" fill="#ff9a6c"/>
            <path id="Trazado_207416" data-name="Trazado 207416" d="M295.724,195.176a1.122,1.122,0,1,1-1.122-1.094A1.109,1.109,0,0,1,295.724,195.176Z" transform="translate(-292.796 -193.414)" fill="#ff725e"/>
          </g>
          <g id="Grupo_171212" data-name="Grupo 171212" transform="translate(66.227 81.719)">
            <path id="Trazado_207417" data-name="Trazado 207417" d="M242.963,187.96a1.806,1.806,0,1,1-1.806-1.762A1.785,1.785,0,0,1,242.963,187.96Z" transform="translate(-239.351 -186.197)" fill="#ff9a6c"/>
            <path id="Trazado_207418" data-name="Trazado 207418" d="M242.35,188.029a1.122,1.122,0,1,1-1.121-1.094A1.108,1.108,0,0,1,242.35,188.029Z" transform="translate(-239.422 -186.267)" fill="#ff725e"/>
          </g>
          <g id="Grupo_171213" data-name="Grupo 171213" transform="translate(111.021 93.73)">
            <path id="Trazado_207419" data-name="Trazado 207419" d="M291,200.529a1.1,1.1,0,1,1-1.1-1.07A1.084,1.084,0,0,1,291,200.529Z" transform="translate(-288.809 -199.459)" fill="#ff9a6c"/>
            <path id="Trazado_207420" data-name="Trazado 207420" d="M290.63,200.571a.681.681,0,1,1-.681-.664A.673.673,0,0,1,290.63,200.571Z" transform="translate(-288.852 -199.501)" fill="#ff725e"/>
          </g>
          <g id="Grupo_171214" data-name="Grupo 171214" transform="translate(96.351 49.127)">
            <path id="Trazado_207421" data-name="Trazado 207421" d="M274.8,151.282a1.1,1.1,0,1,1-1.1-1.071A1.084,1.084,0,0,1,274.8,151.282Z" transform="translate(-272.611 -150.211)" fill="#ff9a6c"/>
            <path id="Trazado_207422" data-name="Trazado 207422" d="M274.432,151.324a.681.681,0,1,1-.681-.665A.673.673,0,0,1,274.432,151.324Z" transform="translate(-272.654 -150.253)" fill="#ff725e"/>
          </g>
        </g>
        <g id="Grupo_171249" data-name="Grupo 171249" transform="translate(0 109.303)">
          <g id="Grupo_171247" data-name="Grupo 171247" transform="translate(7.944)">
            <g id="Grupo_171240" data-name="Grupo 171240" transform="translate(28.871)">
              <g id="Grupo_171217" data-name="Grupo 171217">
                <rect id="Rectángulo_49407" data-name="Rectángulo 49407" width="67.071" height="38.016" rx="5.481" transform="translate(0.08 67.197) rotate(-88.872)" fill="#fff"/>
                <g id="Grupo_171216" data-name="Grupo 171216">
                  <path id="Trazado_207423" data-name="Trazado 207423" d="M208.651,284.5a5.8,5.8,0,0,0,1.981-.423,4.985,4.985,0,0,0,1.928-1.477,4.934,4.934,0,0,0,1.063-3.095c.082-5.12.2-12.5.35-21.6.166-9.127.362-19.985.581-32.041q.022-1.132.043-2.275a8.884,8.884,0,0,0-.1-2.239,4.752,4.752,0,0,0-2.767-3.3,5.461,5.461,0,0,0-2.242-.386l-2.4-.045-4.876-.094-20.313-.395a4.737,4.737,0,0,0-4.823,4.595q-.026,1.28-.053,2.549-.1,5.085-.2,10.011c-.134,6.563-.263,12.893-.386,18.923s-.246,11.76-.359,17.124q-.087,4.021-.167,7.76a8.474,8.474,0,0,0,.067,1.805,4.676,4.676,0,0,0,.63,1.617,4.846,4.846,0,0,0,2.6,2.044,5.227,5.227,0,0,0,1.618.238l1.647.037,3.168.071,5.8.132,9.292.223,5.872.16,1.527.053c.344.014.52.034.52.034s-.177.013-.521.014l-1.528-.006-5.873-.072-9.294-.143-5.8-.1-3.169-.053-1.647-.029a5.581,5.581,0,0,1-1.714-.245,5.19,5.19,0,0,1-2.8-2.177,5.029,5.029,0,0,1-.685-1.734,8.869,8.869,0,0,1-.081-1.879q.067-3.735.139-7.761c.1-5.364.2-11.094.315-17.124s.235-12.361.359-18.924q.1-4.922.194-10.011.026-1.272.052-2.552a5.205,5.205,0,0,1,5.3-5.053l20.312.4,4.876.1,2.4.049a5.92,5.92,0,0,1,2.41.426,5.2,5.2,0,0,1,3.022,3.616,9.338,9.338,0,0,1,.111,2.346q-.024,1.145-.047,2.275c-.256,12.055-.487,22.913-.681,32.039-.211,9.107-.382,16.483-.5,21.6a4.982,4.982,0,0,1-4.633,5C208.828,284.513,208.651,284.5,208.651,284.5Z" transform="translate(-175.527 -216.654)" fill="#263238"/>
                </g>
              </g>
              <g id="Grupo_171239" data-name="Grupo 171239" transform="translate(5.88 4.68)">
                <g id="Grupo_171220" data-name="Grupo 171220" transform="translate(0.937)">
                  <g id="Grupo_171219" data-name="Grupo 171219">
                    <path id="Trazado_207424" data-name="Trazado 207424" d="M183.1,227.153a5.215,5.215,0,1,0,5.316-5.112A5.214,5.214,0,0,0,183.1,227.153Z" transform="translate(-183.057 -221.841)" fill="#fafafa"/>
                    <g id="Grupo_171218" data-name="Grupo 171218">
                      <path id="Trazado_207425" data-name="Trazado 207425" d="M183.094,227.132c-.016,0-.024-.115-.024-.336a4.048,4.048,0,0,1,.124-.958,5.189,5.189,0,0,1,1.943-2.944,5.382,5.382,0,0,1,7.619,1.209,5.4,5.4,0,0,1-.126,6.436,5.383,5.383,0,0,1-7.661.908,5.191,5.191,0,0,1-1.826-3.019,4.009,4.009,0,0,1-.085-.962c.008-.221.021-.335.037-.334.049,0,.025.465.227,1.255a5.2,5.2,0,0,0,1.854,2.8,5.011,5.011,0,1,0,.158-8.024,5.2,5.2,0,0,0-1.963,2.723C183.137,226.668,183.143,227.135,183.094,227.132Z" transform="translate(-183.053 -221.821)" fill="#263238"/>
                    </g>
                  </g>
                  <path id="Trazado_207426" data-name="Trazado 207426" d="M191.94,227.507A3.445,3.445,0,1,1,188.563,224,3.445,3.445,0,0,1,191.94,227.507Z" transform="translate(-183.241 -222.026)" fill="#e0e0e0"/>
                </g>
                <g id="Grupo_171223" data-name="Grupo 171223" transform="translate(0.624 15.859)">
                  <g id="Grupo_171222" data-name="Grupo 171222">
                    <path id="Trazado_207427" data-name="Trazado 207427" d="M182.753,244.663a5.215,5.215,0,1,0,5.316-5.111A5.215,5.215,0,0,0,182.753,244.663Z" transform="translate(-182.712 -239.351)" fill="#fafafa"/>
                    <g id="Grupo_171221" data-name="Grupo 171221">
                      <path id="Trazado_207428" data-name="Trazado 207428" d="M182.749,244.642c-.016,0-.024-.115-.024-.336a3.989,3.989,0,0,1,.123-.958,5.192,5.192,0,0,1,1.943-2.944,5.383,5.383,0,0,1,7.62,1.209,5.4,5.4,0,0,1-.127,6.437,5.384,5.384,0,0,1-7.661.908,5.186,5.186,0,0,1-1.825-3.019,3.972,3.972,0,0,1-.086-.962c.008-.22.021-.334.037-.334.049,0,.026.465.227,1.255a5.2,5.2,0,0,0,1.854,2.8,5.011,5.011,0,1,0,.159-8.023,5.188,5.188,0,0,0-1.963,2.723C182.793,244.178,182.8,244.646,182.749,244.642Z" transform="translate(-182.708 -239.331)" fill="#263238"/>
                    </g>
                  </g>
                  <path id="Trazado_207429" data-name="Trazado 207429" d="M191.595,245.017a3.445,3.445,0,1,1-3.376-3.511A3.445,3.445,0,0,1,191.595,245.017Z" transform="translate(-182.896 -239.536)" fill="#e0e0e0"/>
                </g>
                <g id="Grupo_171226" data-name="Grupo 171226" transform="translate(16.907 16.179)">
                  <g id="Grupo_171225" data-name="Grupo 171225">
                    <path id="Trazado_207430" data-name="Trazado 207430" d="M200.731,245.017a5.215,5.215,0,1,0,5.316-5.111A5.215,5.215,0,0,0,200.731,245.017Z" transform="translate(-200.69 -239.705)" fill="#fafafa"/>
                    <g id="Grupo_171224" data-name="Grupo 171224">
                      <path id="Trazado_207431" data-name="Trazado 207431" d="M200.727,245c-.016,0-.024-.115-.024-.336a3.99,3.99,0,0,1,.123-.958,5.189,5.189,0,0,1,1.943-2.944,5.383,5.383,0,0,1,7.62,1.209,5.4,5.4,0,0,1-.127,6.437,5.384,5.384,0,0,1-7.661.908,5.181,5.181,0,0,1-1.825-3.019,3.973,3.973,0,0,1-.086-.962c.008-.22.021-.335.037-.334.049,0,.026.465.227,1.255a5.2,5.2,0,0,0,1.854,2.8,5.011,5.011,0,1,0,.158-8.024A5.2,5.2,0,0,0,201,243.75C200.771,244.532,200.776,245,200.727,245Z" transform="translate(-200.686 -239.685)" fill="#263238"/>
                    </g>
                  </g>
                  <path id="Trazado_207432" data-name="Trazado 207432" d="M209.573,245.371a3.445,3.445,0,1,1-3.376-3.511A3.445,3.445,0,0,1,209.573,245.371Z" transform="translate(-200.874 -239.89)" fill="#e0e0e0"/>
                </g>
                <g id="Grupo_171229" data-name="Grupo 171229" transform="translate(0.312 31.718)">
                  <g id="Grupo_171228" data-name="Grupo 171228">
                    <path id="Trazado_207433" data-name="Trazado 207433" d="M182.408,262.173a5.215,5.215,0,1,0,5.316-5.111A5.216,5.216,0,0,0,182.408,262.173Z" transform="translate(-182.367 -256.862)" fill="#fafafa"/>
                    <g id="Grupo_171227" data-name="Grupo 171227">
                      <path id="Trazado_207434" data-name="Trazado 207434" d="M182.4,262.152c-.016,0-.024-.115-.024-.336a3.989,3.989,0,0,1,.123-.958,5.2,5.2,0,0,1,1.943-2.944,5.385,5.385,0,0,1,7.62,1.209,5.4,5.4,0,0,1-.126,6.437,5.383,5.383,0,0,1-7.662.908,5.192,5.192,0,0,1-1.825-3.018,4.027,4.027,0,0,1-.086-.962c.009-.221.021-.335.037-.335.049,0,.026.466.228,1.255a5.2,5.2,0,0,0,1.853,2.8,5.011,5.011,0,1,0,.158-8.023,5.2,5.2,0,0,0-1.963,2.723C182.448,261.688,182.453,262.156,182.4,262.152Z" transform="translate(-182.363 -256.841)" fill="#263238"/>
                    </g>
                  </g>
                  <path id="Trazado_207435" data-name="Trazado 207435" d="M191.25,262.527a3.445,3.445,0,1,1-3.376-3.511A3.445,3.445,0,0,1,191.25,262.527Z" transform="translate(-182.551 -257.046)" fill="#e0e0e0"/>
                </g>
                <g id="Grupo_171232" data-name="Grupo 171232" transform="translate(16.595 32.038)">
                  <g id="Grupo_171231" data-name="Grupo 171231">
                    <path id="Trazado_207436" data-name="Trazado 207436" d="M200.386,262.527a5.215,5.215,0,1,0,5.316-5.111A5.216,5.216,0,0,0,200.386,262.527Z" transform="translate(-200.345 -257.216)" fill="#fafafa"/>
                    <g id="Grupo_171230" data-name="Grupo 171230">
                      <path id="Trazado_207437" data-name="Trazado 207437" d="M200.382,262.506c-.016,0-.024-.115-.024-.336a3.99,3.99,0,0,1,.123-.958,5.192,5.192,0,0,1,1.943-2.944,5.385,5.385,0,0,1,7.62,1.209,5.4,5.4,0,0,1-.127,6.437,5.381,5.381,0,0,1-7.661.908,5.192,5.192,0,0,1-1.825-3.018,4.03,4.03,0,0,1-.086-.963c.009-.22.021-.334.037-.334.049,0,.026.465.227,1.255a5.207,5.207,0,0,0,1.854,2.8,5.011,5.011,0,1,0,.158-8.023,5.2,5.2,0,0,0-1.963,2.723C200.426,262.042,200.431,262.51,200.382,262.506Z" transform="translate(-200.341 -257.195)" fill="#263238"/>
                    </g>
                  </g>
                  <path id="Trazado_207438" data-name="Trazado 207438" d="M209.228,262.881a3.445,3.445,0,1,1-3.376-3.511A3.445,3.445,0,0,1,209.228,262.881Z" transform="translate(-200.529 -257.4)" fill="#e0e0e0"/>
                </g>
                <g id="Grupo_171235" data-name="Grupo 171235" transform="translate(0 47.577)">
                  <g id="Grupo_171234" data-name="Grupo 171234">
                    <path id="Trazado_207439" data-name="Trazado 207439" d="M182.064,279.683a5.215,5.215,0,1,0,5.316-5.111A5.214,5.214,0,0,0,182.064,279.683Z" transform="translate(-182.023 -274.372)" fill="#fafafa"/>
                    <g id="Grupo_171233" data-name="Grupo 171233">
                      <path id="Trazado_207440" data-name="Trazado 207440" d="M182.06,279.662c-.016,0-.024-.115-.024-.336a3.988,3.988,0,0,1,.124-.957,5.189,5.189,0,0,1,1.943-2.944,5.383,5.383,0,0,1,7.619,1.208,5.4,5.4,0,0,1-.126,6.437,5.384,5.384,0,0,1-7.662.908,5.193,5.193,0,0,1-1.825-3.019,3.963,3.963,0,0,1-.085-.962c.008-.221.021-.335.037-.335.049,0,.025.466.227,1.255a5.2,5.2,0,0,0,1.853,2.8,5.011,5.011,0,1,0,.158-8.023,5.2,5.2,0,0,0-1.963,2.723C182.1,279.2,182.108,279.666,182.06,279.662Z" transform="translate(-182.018 -274.352)" fill="#263238"/>
                    </g>
                  </g>
                  <path id="Trazado_207441" data-name="Trazado 207441" d="M190.906,280.037a3.445,3.445,0,1,1-3.376-3.511A3.445,3.445,0,0,1,190.906,280.037Z" transform="translate(-182.207 -274.557)" fill="#e0e0e0"/>
                </g>
                <g id="Grupo_171238" data-name="Grupo 171238" transform="translate(16.283 47.897)">
                  <g id="Grupo_171237" data-name="Grupo 171237">
                    <path id="Trazado_207442" data-name="Trazado 207442" d="M200.042,280.037a5.215,5.215,0,1,0,5.316-5.111A5.215,5.215,0,0,0,200.042,280.037Z" transform="translate(-200.001 -274.726)" fill="#fafafa"/>
                    <g id="Grupo_171236" data-name="Grupo 171236">
                      <path id="Trazado_207443" data-name="Trazado 207443" d="M200.038,280.016c-.016,0-.024-.115-.024-.336a3.944,3.944,0,0,1,.124-.957,5.186,5.186,0,0,1,1.943-2.944,5.383,5.383,0,0,1,7.619,1.208,5.4,5.4,0,0,1-.126,6.437,5.384,5.384,0,0,1-7.662.908,5.193,5.193,0,0,1-1.825-3.019,3.965,3.965,0,0,1-.085-.962c.008-.221.021-.335.037-.335.048,0,.025.466.227,1.255a5.2,5.2,0,0,0,1.853,2.8,5.01,5.01,0,1,0,.159-8.023,5.2,5.2,0,0,0-1.963,2.723C200.081,279.552,200.086,280.02,200.038,280.016Z" transform="translate(-199.996 -274.705)" fill="#263238"/>
                    </g>
                  </g>
                  <path id="Trazado_207444" data-name="Trazado 207444" d="M208.884,280.391a3.445,3.445,0,1,1-3.376-3.511A3.446,3.446,0,0,1,208.884,280.391Z" transform="translate(-200.185 -274.91)" fill="#e0e0e0"/>
                </g>
              </g>
            </g>
            <path id="Trazado_207445" data-name="Trazado 207445" d="M188.476,269.786l-4.884-9.95-8.246-7.5s-3.078-3.049-4.713-3.668-17.457,4.412-17.457,4.412a6.689,6.689,0,0,0-5.963,3.907,7.761,7.761,0,0,0-2.752,9.981l.384,7.619,2.54,26.245-2,12.484s10.3-5.945,15.25-8.649,8.2-11.281,8.2-11.281c5.135-3.941,6.938-14.086,6.938-14.086a5.857,5.857,0,0,0,2.585-6.128c1.845-1.17,1.437-4.781,1.437-4.781a7.859,7.859,0,0,0,7.888,2.917A1.069,1.069,0,0,0,188.476,269.786Z" transform="translate(-143.649 -219.668)" fill="#ffbf9d"/>
            <g id="Grupo_171242" data-name="Grupo 171242" transform="translate(9.078 47.864)">
              <g id="Grupo_171241" data-name="Grupo 171241">
                <path id="Trazado_207446" data-name="Trazado 207446" d="M153.672,270.607a3.912,3.912,0,0,1,.759-.051l2.172-.092c1.885-.092,4.6-.34,7.959-.732l1.289-.146a5.963,5.963,0,0,1,1.4-.062,4.177,4.177,0,0,1,2.66,1.327l4.064,4.888c.354.436.712.873,1.061,1.34.086.118.173.236.258.37a1.231,1.231,0,0,1,.128.252l.058.222a4.588,4.588,0,0,1,.152.908,7.289,7.289,0,0,1-.835,3.581,28.015,28.015,0,0,1-1.911,3.219,5.518,5.518,0,0,1-1.312,1.5,2.079,2.079,0,0,1-2.1.223,2.3,2.3,0,0,1-1.155-1.258,3.452,3.452,0,0,1-.181-1.633,7.772,7.772,0,0,1,1.167-2.847l.077.364a17.078,17.078,0,0,1-4.092-4.248l.373.07a6.236,6.236,0,0,1-5.751.636l.272-.4a2.546,2.546,0,0,1-1.634,4.294l.05-.433a10.042,10.042,0,0,1,4.876,3.571,9.67,9.67,0,0,1,1.756,4.258,9.4,9.4,0,0,1,0,2.929,6.523,6.523,0,0,1-.159.749.81.81,0,0,1-.087.247,12.068,12.068,0,0,0-.007-3.884,9.6,9.6,0,0,0-1.794-4.085,9.745,9.745,0,0,0-4.729-3.363l-1.036-.336,1.087-.1a2.145,2.145,0,0,0,1.735-1.281,2.124,2.124,0,0,0-.422-2.227l-.8-.824,1.066.421a5.743,5.743,0,0,0,5.264-.613l.221-.153.152.223a16.655,16.655,0,0,0,3.976,4.1l.2.148-.125.217a7.3,7.3,0,0,0-1.091,2.636,2.152,2.152,0,0,0,1.015,2.311,1.51,1.51,0,0,0,1.539-.171,5.022,5.022,0,0,0,1.168-1.344,27.917,27.917,0,0,0,1.881-3.148,6.789,6.789,0,0,0,.8-3.308,4.087,4.087,0,0,0-.131-.808l-.05-.2a.769.769,0,0,0-.071-.13c-.07-.111-.151-.224-.234-.337-.333-.452-.689-.892-1.037-1.326l-4.007-4.9a3.74,3.74,0,0,0-2.359-1.21A5.714,5.714,0,0,0,165.9,270l-1.291.128c-3.364.341-6.1.53-7.994.555-.947.019-1.683,0-2.18-.014A3.806,3.806,0,0,1,153.672,270.607Z" transform="translate(-153.672 -269.502)" fill="#ff9a6c"/>
              </g>
            </g>
            <g id="Grupo_171244" data-name="Grupo 171244" transform="translate(12.924 41.236)">
              <g id="Grupo_171243" data-name="Grupo 171243">
                <path id="Trazado_207447" data-name="Trazado 207447" d="M179.556,275.218a20.172,20.172,0,0,1-1.563-3.978,23.031,23.031,0,0,0-1.81-4.2,8.677,8.677,0,0,0-3.912-3.72,12.03,12.03,0,0,0-5.463-.508l-4.621.3c-1.316.076-2.382.129-3.119.152a4.5,4.5,0,0,1-1.149-.021,4.538,4.538,0,0,1,1.132-.2c.733-.091,1.793-.2,3.106-.331l4.613-.418a12.094,12.094,0,0,1,5.721.507,8.985,8.985,0,0,1,4.142,3.978,21.158,21.158,0,0,1,1.739,4.336l.886,2.992A5.315,5.315,0,0,1,179.556,275.218Z" transform="translate(-157.919 -262.184)" fill="#ff9a6c"/>
              </g>
            </g>
            <g id="Grupo_171246" data-name="Grupo 171246" transform="translate(10.829 35.127)">
              <g id="Grupo_171245" data-name="Grupo 171245">
                <path id="Trazado_207448" data-name="Trazado 207448" d="M181.015,270.19c-.1.02-.346-1.917-1.395-4.849a29.011,29.011,0,0,0-2.316-4.928,22.03,22.03,0,0,0-1.8-2.646,4.315,4.315,0,0,0-2.746-1.661,20.933,20.933,0,0,0-3.426-.072c-1.122.031-2.205.078-3.235.139-2.06.124-3.913.3-5.465.471s-2.806.341-3.674.456a6.748,6.748,0,0,1-1.357.128,5.941,5.941,0,0,1,1.32-.345c.859-.179,2.108-.41,3.661-.634s3.41-.44,5.48-.593c1.035-.076,2.123-.135,3.252-.174a20.448,20.448,0,0,1,3.537.068,4.522,4.522,0,0,1,1.751.651,5.909,5.909,0,0,1,1.326,1.211,21.533,21.533,0,0,1,1.822,2.739,26.864,26.864,0,0,1,2.243,5.06,23.931,23.931,0,0,1,.889,3.618A5.323,5.323,0,0,1,181.015,270.19Z" transform="translate(-155.605 -255.438)" fill="#ff9a6c"/>
              </g>
            </g>
          </g>
          <path id="Trazado_207449" data-name="Trazado 207449" d="M146.558,306.024s-7.908,48.638-9.193,62.485c-1.668,17.972-4.777,30.239.267,42.491,4.362,10.595,15.871,17.878,26.406,13.428s14.237-34.174,14.237-34.174l-12.749-86.6Z" transform="translate(-134.878 -224.858)" fill="#ffbf9d"/>
          <g id="Grupo_171248" data-name="Grupo 171248" transform="translate(30.643 78.796)">
            <path id="Trazado_207450" data-name="Trazado 207450" d="M176.773,388.074a.791.791,0,0,1,.03-.22c.036-.169.08-.378.134-.632.1-.559.353-1.36.516-2.426a49.893,49.893,0,0,0,.884-9.059,90.253,90.253,0,0,0-1.072-13.468c-.718-5.045-1.721-10.566-2.571-16.394-1.741-11.645-3.469-22.167-4.516-29.816-.532-3.822-.92-6.921-1.153-9.067-.107-1.043-.191-1.869-.254-2.473-.021-.26-.038-.472-.052-.645a.737.737,0,0,1,0-.221.783.783,0,0,1,.049.216c.027.172.06.381.1.638q.124.9.341,2.462c.289,2.137.727,5.228,1.3,9.042,1.131,7.631,2.911,18.141,4.653,29.793.85,5.822,1.839,11.343,2.535,16.4a86.985,86.985,0,0,1,.975,13.534,46.643,46.643,0,0,1-1.037,9.09c-.192,1.065-.47,1.862-.605,2.414l-.179.621A.783.783,0,0,1,176.773,388.074Z" transform="translate(-168.711 -303.654)" fill="#ff9a6c"/>
          </g>
        </g>
        <g id="Grupo_171266" data-name="Grupo 171266" transform="translate(154.903 85.198)">
          <path id="Trazado_207451" data-name="Trazado 207451" d="M350.045,247.134s29.672,59.361,36.971,78.341,4.816,30.249.542,35.963-24.739-1.553-25.627-2.037c-3.9-2.129-11.96-19.086-11.96-19.086l-19.949-87.931Z" transform="translate(-308.184 -195.423)" fill="#ffbf9d"/>
          <g id="Grupo_171250" data-name="Grupo 171250" transform="translate(21.835 56.96)">
            <path id="Trazado_207452" data-name="Trazado 207452" d="M352.212,341.861a.95.95,0,0,1-.1-.216l-.246-.65-.908-2.514c-.809-2.178-1.807-5.387-3.038-9.351-2.415-7.945-5.36-19.033-8.3-31.352s-5.369-23.532-7.046-31.66c-.841-4.064-1.493-7.359-1.929-9.638q-.31-1.67-.487-2.628l-.113-.686a.853.853,0,0,1-.023-.237,1.007,1.007,0,0,1,.07.227c.042.179.094.4.159.677.139.632.331,1.5.573,2.609.5,2.306,1.206,5.577,2.076,9.6,1.761,8.109,4.23,19.3,7.179,31.62s5.832,23.405,8.162,31.366c1.188,3.972,2.137,7.194,2.892,9.387.349,1.077.623,1.926.823,2.542.082.271.149.489.2.666A.889.889,0,0,1,352.212,341.861Z" transform="translate(-330.018 -252.93)" fill="#ff9a6c"/>
          </g>
          <g id="Grupo_171265" data-name="Grupo 171265">
            <path id="Trazado_207453" data-name="Trazado 207453" d="M310.976,201.151s-1.357.657-.963,2.888,4.507,10.282,4.857,11.989,1.232,13.456,2.78,16.606,2.3-3.393,2.3-3.393l6.037-10.544,1.217-3.107s-2.751,2.071-4.848-2.363c-1.1-2.327-2.494-7-4.682-10.064S313.12,199.664,310.976,201.151Z" transform="translate(-306.29 -191.009)" fill="#ffbf9d"/>
            <g id="Grupo_171251" data-name="Grupo 171251" transform="translate(3.494 8.497)">
              <path id="Trazado_207454" data-name="Trazado 207454" d="M322.127,204.318a9.046,9.046,0,0,1-2-.176,26.281,26.281,0,0,1-4.748-1.01A16.314,16.314,0,0,1,311,201.02a3.963,3.963,0,0,1-1.04-1.079c-.191-.305-.2-.519-.183-.521a5.261,5.261,0,0,0,1.415,1.327,20.449,20.449,0,0,0,4.344,1.938,40.41,40.41,0,0,0,4.653,1.128A8.049,8.049,0,0,1,322.127,204.318Z" transform="translate(-309.768 -199.42)" fill="#ff9a6c"/>
            </g>
            <g id="Grupo_171263" data-name="Grupo 171263">
              <g id="Grupo_171253" data-name="Grupo 171253">
                <path id="Trazado_207455" data-name="Trazado 207455" d="M305.948,194.933a4.673,4.673,0,1,0,4.673-4.673A4.673,4.673,0,0,0,305.948,194.933Z" transform="translate(-305.913 -190.06)" fill="#fafafa"/>
                <g id="Grupo_171252" data-name="Grupo 171252">
                  <path id="Trazado_207456" data-name="Trazado 207456" d="M305.944,194.913c-.016,0-.027-.1-.033-.3a3.539,3.539,0,0,1,.09-.863,4.655,4.655,0,0,1,1.687-2.684,4.842,4.842,0,0,1,6.878.948,4.858,4.858,0,0,1,0,5.8,4.841,4.841,0,0,1-6.879.948A4.653,4.653,0,0,1,306,196.075a3.529,3.529,0,0,1-.09-.862c.005-.2.016-.3.033-.3.047,0,.038.416.236,1.119a4.666,4.666,0,0,0,1.711,2.463,4.47,4.47,0,1,0,0-7.164,4.663,4.663,0,0,0-1.711,2.464C305.982,194.5,305.991,194.914,305.944,194.913Z" transform="translate(-305.91 -190.039)" fill="#263238"/>
                </g>
              </g>
              <path id="Trazado_207457" data-name="Trazado 207457" d="M313.873,195.1a3.087,3.087,0,1,1-3.087-3.087A3.087,3.087,0,0,1,313.873,195.1Z" transform="translate(-306.078 -190.225)" fill="#e0e0e0"/>
              <path id="Trazado_207458" data-name="Trazado 207458" d="M307.906,198.665a2.723,2.723,0,0,1,1.976-2.188c1.695-.353,17.718,1.271,19.553,1.552s6.142.636,6.142.636,5.788-.847,7.765,4.8l1.835,4.164s5.153.283,5.365,5.153.635,7.695.635,7.695,6.1,1.869,5.815,5.047-2.851,8.648-2.851,8.648l-4.756,8.718a14.037,14.037,0,0,1-13.136,7.855l-5.424,0s-12.858-14.357-13.806-20.722,7.239-10.236,7.239-10.236l7.225-7.4.162-6.332s-15.438-1.761-18.689-3.115S307.732,200.755,307.906,198.665Z" transform="translate(-306.097 -190.641)" fill="#ffbf9d"/>
              <g id="Grupo_171255" data-name="Grupo 171255" transform="translate(40.556 37.3)">
                <path id="Trazado_207459" data-name="Trazado 207459" d="M351.177,231.224a9.927,9.927,0,0,0,.522,5.961" transform="translate(-350.712 -231.223)" fill="#ffbf9d"/>
                <g id="Grupo_171254" data-name="Grupo 171254">
                  <path id="Trazado_207460" data-name="Trazado 207460" d="M351.675,237.185a6.768,6.768,0,0,1-.522-5.961c.137.031-.116,1.364.036,3C351.324,235.862,351.8,237.131,351.675,237.185Z" transform="translate(-350.688 -231.223)" fill="#ff9a6c"/>
                </g>
              </g>
              <g id="Grupo_171257" data-name="Grupo 171257" transform="translate(10.258 7.994)">
                <path id="Trazado_207461" data-name="Trazado 207461" d="M336.246,198.876s-9.536,1.116-12.159,2.443c-.264.133-6.548,7.4-6.548,7.4a3.907,3.907,0,0,0,5.117,2.126c3.814-1.25,4.761-3.751,4.761-3.751l8.829-.312,2.051,4.064" transform="translate(-317.265 -198.866)" fill="#ffbf9d"/>
                <g id="Grupo_171256" data-name="Grupo 171256">
                  <path id="Trazado_207462" data-name="Trazado 207462" d="M338.268,210.844a7.259,7.259,0,0,1-.6-1.033l-1.57-2.968.128.075-8.827.386.19-.136a7.441,7.441,0,0,1-3.789,3.464,7.03,7.03,0,0,1-2.721.715,3.8,3.8,0,0,1-2.742-1.06,4.489,4.489,0,0,1-1.043-1.484l-.054-.128.1-.111c2.05-2.358,3.99-4.586,5.793-6.574.23-.249.444-.486.693-.735.188-.187.322-.178.481-.264a4,4,0,0,1,.458-.177,17.567,17.567,0,0,1,1.789-.505c1.16-.274,2.247-.478,3.24-.643,1.985-.333,3.594-.532,4.7-.658.555-.062.986-.1,1.28-.124a1.643,1.643,0,0,1,.448-.009,1.74,1.74,0,0,1-.437.1l-1.267.209c-1.1.179-2.7.426-4.671.8-.985.185-2.063.408-3.206.694a17.946,17.946,0,0,0-1.743.518,3.632,3.632,0,0,0-.432.172c-.121.063-.335.12-.362.194-.21.215-.438.469-.658.715-1.777,2-3.708,4.238-5.752,6.6l.042-.238a4.06,4.06,0,0,0,.928,1.311,3.336,3.336,0,0,0,2.414.934,6.646,6.646,0,0,0,2.536-.664,7.108,7.108,0,0,0,3.584-3.2l.063-.133.127,0,8.831-.238.09,0,.038.078c.6,1.254,1.09,2.267,1.455,3.027A7.251,7.251,0,0,1,338.268,210.844Z" transform="translate(-317.236 -198.865)" fill="#ff9a6c"/>
                </g>
              </g>
              <g id="Grupo_171259" data-name="Grupo 171259" transform="translate(17.904 16.505)">
                <path id="Trazado_207463" data-name="Trazado 207463" d="M347.157,209.125l-11.392-.633a4.925,4.925,0,0,0-3.654,1.335l-6.151,5.8a3.153,3.153,0,0,0,4,2.626,18.61,18.61,0,0,0,6.6-3.189s6.1,1.251,6.284,1.251a32.341,32.341,0,0,1,1.313,3.939" transform="translate(-325.705 -208.283)" fill="#ffbf9d"/>
                <g id="Grupo_171258" data-name="Grupo 171258">
                  <path id="Trazado_207464" data-name="Trazado 207464" d="M344.129,220.234a3.8,3.8,0,0,1-.268-.707c-.176-.524-.4-1.2-.679-2.026-.08-.216-.162-.444-.248-.68-.045-.116-.1-.239-.149-.344-.008-.014-.041-.074-.027-.053s.049.016.056,0l-.05-.009-.2-.037-1.78-.331-4.288-.814.16-.038a19.341,19.341,0,0,1-5.321,2.882,10.771,10.771,0,0,1-1.62.418,3.677,3.677,0,0,1-1.772-.085,3.014,3.014,0,0,1-1.5-1.062,4.2,4.2,0,0,1-.741-1.71l-.023-.118.094-.089.173-.163,3.468-3.263,1.651-1.55a11.676,11.676,0,0,1,1.681-1.434,5.111,5.111,0,0,1,2.013-.719,10.346,10.346,0,0,1,1.983.024l3.49.223,5.05.356,1.372.12a1.839,1.839,0,0,1,.476.074,1.877,1.877,0,0,1-.482.021l-1.377-.033-5.059-.206-3.492-.165a10.139,10.139,0,0,0-1.9-.005,4.724,4.724,0,0,0-1.84.677,11.577,11.577,0,0,0-1.6,1.393l-1.643,1.558-3.462,3.27-.172.163.071-.207a3,3,0,0,0,1.915,2.4,5.314,5.314,0,0,0,3.108-.316,19.391,19.391,0,0,0,5.22-2.764l.076-.056.085.018,4.23.88,1.761.374.2.043.05.011a.286.286,0,0,1,.13.073.439.439,0,0,1,.073.12,3.887,3.887,0,0,1,.15.378q.12.364.228.7c.27.885.456,1.584.579,2.062A3.466,3.466,0,0,1,344.129,220.234Z" transform="translate(-325.678 -208.262)" fill="#ff9a6c"/>
                </g>
              </g>
              <g id="Grupo_171261" data-name="Grupo 171261" transform="translate(30.361 28.295)">
                <path id="Trazado_207465" data-name="Trazado 207465" d="M357.258,224.264s-5.673-2.847-6.609-2.784-10.847,3.675-10.847,3.675,1.97,4.015,4.846,3.64a26.953,26.953,0,0,0,5.242-1.25l4.074,4" transform="translate(-339.467 -221.299)" fill="#ffbf9d"/>
                <g id="Grupo_171260" data-name="Grupo 171260">
                  <path id="Trazado_207466" data-name="Trazado 207466" d="M353.93,231.528a9.322,9.322,0,0,1-1.159-1.005l-3.035-2.874.179.038a26.319,26.319,0,0,1-5.22,1.3,3.49,3.49,0,0,1-1.614-.175,5.056,5.056,0,0,1-1.429-.859,9.385,9.385,0,0,1-2.1-2.712l-.124-.233.255-.092.523-.19c2.35-.85,4.6-1.642,6.65-2.333,1.028-.344,2.005-.665,2.938-.934a6.583,6.583,0,0,1,.722-.17,1.888,1.888,0,0,1,.742.115c.437.14.837.3,1.216.464,1.513.649,2.694,1.252,3.509,1.671a7.625,7.625,0,0,1,1.236.708,9,9,0,0,1-1.316-.543c-.838-.368-2.041-.925-3.555-1.528-.379-.148-.778-.3-1.195-.424a1.54,1.54,0,0,0-.6-.088,6.562,6.562,0,0,0-.654.17c-.913.28-1.886.615-2.907.969l-6.63,2.366-.522.189.13-.325a9.059,9.059,0,0,0,1.972,2.569,4.645,4.645,0,0,0,1.286.787,3.041,3.041,0,0,0,1.4.166,27.776,27.776,0,0,0,5.158-1.188l.107-.035.072.074c1.192,1.214,2.178,2.218,2.928,2.983A9.081,9.081,0,0,1,353.93,231.528Z" transform="translate(-339.432 -221.28)" fill="#ff9a6c"/>
                </g>
              </g>
              <g id="Grupo_171262" data-name="Grupo 171262" transform="translate(15.117 28.27)">
                <path id="Trazado_207467" data-name="Trazado 207467" d="M328.3,221.36c-.007.043-.238-.042-.583.1a2.465,2.465,0,0,0-1.05,1.186,51.534,51.534,0,0,0-2.037,5.194,53.933,53.933,0,0,0-1.469,5.392,15.224,15.224,0,0,1-.537,2.266,9.219,9.219,0,0,1,.209-2.329,35.308,35.308,0,0,1,1.349-5.478,34.153,34.153,0,0,1,2.192-5.205,2.443,2.443,0,0,1,1.282-1.2C328.093,221.18,328.315,221.346,328.3,221.36Z" transform="translate(-322.6 -221.252)" fill="#ff9a6c"/>
              </g>
            </g>
            <g id="Grupo_171264" data-name="Grupo 171264" transform="translate(1.753 9.242)">
              <path id="Trazado_207468" data-name="Trazado 207468" d="M320.105,204.849a9.97,9.97,0,0,1-1.95-.252c-1.194-.2-2.848-.457-4.66-.89a11.243,11.243,0,0,1-4.37-1.942,3.682,3.682,0,0,1-1.277-1.52c.066-.051.5.574,1.476,1.253a12.828,12.828,0,0,0,4.283,1.751c1.785.427,3.433.736,4.613,1.022A6.908,6.908,0,0,1,320.105,204.849Z" transform="translate(-307.845 -200.243)" fill="#ff9a6c"/>
            </g>
          </g>
        </g>
      </g>
    </g>
  </g>
</svg>
