<svg xmlns="http://www.w3.org/2000/svg" width="134" height="134" viewBox="0 0 134 134">
  <g id="Grupo_172440" data-name="Grupo 172440" transform="translate(-418.287 -7622)">
    <circle id="Elipse_5601" data-name="Elipse 5601" cx="67" cy="67" r="67" transform="translate(418.287 7622)" fill="#d1c5f5"/>
    <g id="Grupo_171897" data-name="Grupo 171897" transform="translate(387.221 7628.745)">
      <path id="Trazado_207976" data-name="Trazado 207976" d="M68.848,98.336,64,24H99.552L94.7,98.336Z" transform="translate(-6.384 -6.384)" fill="#81d4fa"/>
      <path id="Trazado_207977" data-name="Trazado 207977" d="M88,392h25.856v12.928a6.464,6.464,0,0,1-6.464,6.464H94.464A6.464,6.464,0,0,1,88,404.928V392Z" transform="translate(-25.536 -300.048)" fill="#fbe9d8"/>
      <path id="Trazado_207978" data-name="Trazado 207978" d="M94.464,462.464h12.928A6.464,6.464,0,0,0,113.856,456H88A6.464,6.464,0,0,0,94.464,462.464Z" transform="translate(-25.536 -351.12)" fill="#81d4fa"/>
      <path id="Trazado_207979" data-name="Trazado 207979" d="M99.552,24H64l.422,6.464H99.13Z" transform="translate(-6.384 -6.384)" fill="#fbe9d8"/>
      <path id="Trazado_207980" data-name="Trazado 207980" d="M131.232,424h3.232a3.232,3.232,0,0,1,3.232,3.232v3.232H128v-3.232A3.232,3.232,0,0,1,131.232,424Z" transform="translate(-57.456 -325.584)" fill="#81d4fa"/>
      <rect id="Rectángulo_49456" data-name="Rectángulo 49456" width="54.403" height="35.099" rx="6" transform="translate(80.569 76.106)" fill="#e09f2c"/>
      <path id="Trazado_207981" data-name="Trazado 207981" d="M200,280h45.248v6.464H200Z" transform="translate(-114.912 -210.672)" fill="#f7b030"/>
      <path id="Trazado_207982" data-name="Trazado 207982" d="M176,344h54.944v22.624H176Z" transform="translate(-95.76 -261.744)" fill="#ff9d00"/>
      <g id="Grupo_171896" data-name="Grupo 171896" transform="translate(65.696 30.544)">
        <path id="Trazado_207983" data-name="Trazado 207983" d="M200.041,216.16s-1.559-9.427,14.708-9.427S233.936,200,233.936,200s11.312,4.04,11.312,16.16Z" transform="translate(-180.608 -177.376)" fill="#fbe9d8"/>
        <ellipse id="Elipse_5602" data-name="Elipse 5602" cx="11.407" cy="4.826" rx="11.407" ry="4.826" transform="translate(30.668 57.847)" fill="#fbe9d8"/>
        <path id="Trazado_207984" data-name="Trazado 207984" d="M104,88h19.392v9.7H104Z" transform="translate(-104 -88)" fill="#fbe9d8"/>
      </g>
      <path id="Trazado_207985" data-name="Trazado 207985" d="M94.347,16.511A1.616,1.616,0,0,0,93.168,16H57.616A1.616,1.616,0,0,0,56,17.616c0,.035,0,.07,0,.105L60.848,92V104.88a8.089,8.089,0,0,0,8.08,8.08H128.72a8.089,8.089,0,0,0,8.08-8.08V82.256a8.09,8.09,0,0,0-4.848-7.4V69.328a18.079,18.079,0,0,0-6.2-13.831,20.763,20.763,0,0,0-6.189-3.851,1.559,1.559,0,0,0-2.02.863,8.08,8.08,0,0,1-3.162,2.825c-2.345,1.346-6.773,2.951-14.55,2.951a29.467,29.467,0,0,0-7.76.907l2.7-41.471A1.616,1.616,0,0,0,94.347,16.511Zm-2.9,2.721-.211,3.232H59.552l-.211-3.232Zm-9.587,84.032V83.872h51.712v19.392Zm-9.7,0v-1.616a1.618,1.618,0,0,1,1.616-1.616h3.232a1.618,1.618,0,0,1,1.616,1.616v1.616Zm6.464-6.186a4.824,4.824,0,0,0-1.616-.278H73.776a4.853,4.853,0,0,0-4.848,4.848v1.616H64.08v-9.7H78.624ZM64.358,106.5H78.787a8.047,8.047,0,0,0,1.458,3.232H68.928a4.856,4.856,0,0,1-4.57-3.232Zm64.362,3.232H86.7a4.856,4.856,0,0,1-4.57-3.232H133.29a4.856,4.856,0,0,1-4.57,3.232Zm4.57-29.088H82.134a4.856,4.856,0,0,1,4.57-3.232H128.72A4.856,4.856,0,0,1,133.29,80.64ZM86.7,74.176V70.944H128.72v3.232Zm29.667-16.261a12.655,12.655,0,0,0,3.232-2.72,18.648,18.648,0,0,1,4.086,2.79,14.639,14.639,0,0,1,4.955,9.727H86.792a5.629,5.629,0,0,1,1.3-2.671c2-2.305,6.06-3.523,11.739-3.523C106.884,61.517,112.446,60.305,116.371,57.915ZM85.586,63a8.779,8.779,0,0,0-2.1,6.114,1.606,1.606,0,0,0-.015.211v5.525a8.09,8.09,0,0,0-4.848,7.4v8.08H63.979L59.762,25.7H91.022l-2.269,34.8A10.79,10.79,0,0,0,85.587,63Z" transform="translate(0)"/>
      <path id="Trazado_207986" data-name="Trazado 207986" d="M269.563,369.551a24.821,24.821,0,0,0-17.271,0c-3.735,1.6-4.293,3.765-4.293,4.913s.558,3.313,4.293,4.913a24.822,24.822,0,0,0,17.271,0c3.735-1.6,4.293-3.766,4.293-4.913S273.3,371.151,269.563,369.551Zm-8.635,8.145c-6.015,0-9.7-2.093-9.7-3.232s3.681-3.232,9.7-3.232,9.7,2.092,9.7,3.232S266.943,377.7,260.928,377.7Z" transform="translate(-153.216 -280.896)"/>
      <path id="Trazado_207987" data-name="Trazado 207987" d="M117.008,80H97.616A1.616,1.616,0,0,0,96,81.616v9.7a1.616,1.616,0,0,0,1.616,1.616h19.392a1.616,1.616,0,0,0,1.616-1.616v-9.7A1.616,1.616,0,0,0,117.008,80Zm-1.616,9.7H99.232V83.232h16.16Z" transform="translate(-31.92 -51.072)"/>
      <path id="Trazado_207988" data-name="Trazado 207988" d="M126.544,160H113.616a1.616,1.616,0,0,0,0,3.232h12.928a1.616,1.616,0,1,0,0-3.232Z" transform="translate(-44.688 -114.912)"/>
    </g>
  </g>
</svg>
