<svg xmlns="http://www.w3.org/2000/svg" width="252" height="454.351" viewBox="0 0 252 454.351">
  <g id="Grupo_172445" data-name="Grupo 172445" transform="translate(-1992.967 693.902)">
    <path id="Trazado_209034" data-name="Trazado 209034" d="M0,0H252V20H0Z" transform="translate(1992.967 -693.902)" fill="#00bcd4"/>
    <path id="Trazado_209035" data-name="Trazado 209035" d="M0,0H252V20H0Z" transform="translate(1992.967 -673.902)" fill="#81d4fa"/>
    <path id="Trazado_209036" data-name="Trazado 209036" d="M0,0H252V87H0Z" transform="translate(1992.967 -653.902)" fill="#fff"/>
    <path id="Trazado_209037" data-name="Trazado 209037" d="M0,0H252V94H0Z" transform="translate(1992.967 -546.902)" fill="#fff"/>
    <path id="Trazado_209038" data-name="Trazado 209038" d="M0,0H252V88H0Z" transform="translate(1992.967 -437.902)" fill="#fff"/>
    <path id="Trazado_209039" data-name="Trazado 209039" d="M0,0H252V88H0Z" transform="translate(1992.967 -329.902)" fill="#fff"/>
    <path id="Trazado_209040" data-name="Trazado 209040" d="M0,0H252V20H0Z" transform="translate(1992.967 -566.902)" fill="#81d4fa"/>
    <path id="Trazado_209041" data-name="Trazado 209041" d="M0,0H252V20H0Z" transform="translate(1992.967 -457.902)" fill="#81d4fa"/>
    <path id="Trazado_209042" data-name="Trazado 209042" d="M0,0H252V20H0Z" transform="translate(1992.967 -349.902)" fill="#81d4fa"/>
    <path id="Trazado_209043" data-name="Trazado 209043" d="M0,0V32.2" transform="translate(2047.975 -616.968)" fill="none" stroke="#040405" stroke-width="1"/>
    <path id="Trazado_209044" data-name="Trazado 209044" d="M0,0V32.2" transform="translate(2047.975 -508.964)" fill="none" stroke="#040405" stroke-width="1"/>
    <path id="Trazado_209045" data-name="Trazado 209045" d="M0,0V32.2" transform="translate(2047.975 -400.96)" fill="none" stroke="#040405" stroke-width="1"/>
    <path id="Trazado_209046" data-name="Trazado 209046" d="M0,0V32.2" transform="translate(2047.975 -292.957)" fill="none" stroke="#040405" stroke-width="1"/>
    <path id="Trazado_209047" data-name="Trazado 209047" d="M0,0V32.2" transform="translate(2072.857 -616.968)" fill="none" stroke="#040405" stroke-width="1"/>
    <path id="Trazado_209048" data-name="Trazado 209048" d="M0,0V32.2" transform="translate(2072.857 -508.964)" fill="none" stroke="#040405" stroke-width="1"/>
    <path id="Trazado_209049" data-name="Trazado 209049" d="M0,0V32.2" transform="translate(2072.857 -400.96)" fill="none" stroke="#040405" stroke-width="1"/>
    <path id="Trazado_209050" data-name="Trazado 209050" d="M0,0V32.2" transform="translate(2072.857 -292.957)" fill="none" stroke="#040405" stroke-width="1"/>
    <path id="Trazado_209051" data-name="Trazado 209051" d="M0,0V32.2" transform="translate(2112.542 -616.968)" fill="none" stroke="#040405" stroke-width="1"/>
    <path id="Trazado_209052" data-name="Trazado 209052" d="M0,0V32.2" transform="translate(2112.542 -508.964)" fill="none" stroke="#040405" stroke-width="1"/>
    <path id="Trazado_209053" data-name="Trazado 209053" d="M0,0V32.2" transform="translate(2112.542 -400.96)" fill="none" stroke="#040405" stroke-width="1"/>
    <path id="Trazado_209054" data-name="Trazado 209054" d="M0,0V32.2" transform="translate(2112.542 -292.957)" fill="none" stroke="#040405" stroke-width="1"/>
    <path id="Trazado_209055" data-name="Trazado 209055" d="M0,0V433.016" transform="translate(2128.944 -674.571)" fill="none" stroke="#040405" stroke-width="1"/>
    <path id="Trazado_209056" data-name="Trazado 209056" d="M0,0V413.815" transform="translate(2145.345 -674.571)" fill="none" stroke="#040405" stroke-width="1"/>
    <path id="Trazado_209057" data-name="Trazado 209057" d="M0,0V413.815" transform="translate(2161.747 -674.571)" fill="none" stroke="#040405" stroke-width="1"/>
    <path id="Trazado_209058" data-name="Trazado 209058" d="M0,0V413.815" transform="translate(2178.148 -674.571)" fill="none" stroke="#040405" stroke-width="1"/>
    <path id="Trazado_209059" data-name="Trazado 209059" d="M0,0V413.815" transform="translate(2194.55 -674.571)" fill="none" stroke="#040405" stroke-width="1"/>
    <path id="Trazado_209060" data-name="Trazado 209060" d="M0,0V413.815" transform="translate(2210.952 -674.571)" fill="none" stroke="#040405" stroke-width="1"/>
    <path id="Trazado_209061" data-name="Trazado 209061" d="M0,0V413.815" transform="translate(2227.353 -674.571)" fill="none" stroke="#040405" stroke-width="1"/>
    <path id="Trazado_209062" data-name="Trazado 209062" d="M0,0H251.268" transform="translate(1992.987 -674.071)" fill="none" stroke="#040405" stroke-width="1"/>
    <path id="Trazado_209063" data-name="Trazado 209063" d="M0,0H251.268" transform="translate(1992.987 -654.87)" fill="none" stroke="#040405" stroke-width="1"/>
    <path id="Trazado_209064" data-name="Trazado 209064" d="M0,0H251.268" transform="translate(1992.987 -635.669)" fill="none" stroke="#040405" stroke-width="1"/>
    <path id="Trazado_209065" data-name="Trazado 209065" d="M0,0H251.268" transform="translate(1992.987 -616.468)" fill="none" stroke="#040405" stroke-width="1"/>
    <path id="Trazado_209066" data-name="Trazado 209066" d="M0,0H251.268" transform="translate(1992.987 -585.268)" fill="none" stroke="#040405" stroke-width="1"/>
    <path id="Trazado_209067" data-name="Trazado 209067" d="M0,0H251.268" transform="translate(1992.987 -566.067)" fill="none" stroke="#040405" stroke-width="1"/>
    <path id="Trazado_209068" data-name="Trazado 209068" d="M0,0H251.268" transform="translate(1992.987 -546.866)" fill="none" stroke="#040405" stroke-width="1"/>
    <path id="Trazado_209069" data-name="Trazado 209069" d="M0,0H251.268" transform="translate(1992.987 -527.665)" fill="none" stroke="#040405" stroke-width="1"/>
    <path id="Trazado_209070" data-name="Trazado 209070" d="M0,0H251.268" transform="translate(1992.987 -508.464)" fill="none" stroke="#040405" stroke-width="1"/>
    <path id="Trazado_209071" data-name="Trazado 209071" d="M0,0H251.268" transform="translate(1992.987 -477.264)" fill="none" stroke="#040405" stroke-width="1"/>
    <path id="Trazado_209072" data-name="Trazado 209072" d="M0,0H251.268" transform="translate(1992.987 -458.063)" fill="none" stroke="#040405" stroke-width="1"/>
    <path id="Trazado_209073" data-name="Trazado 209073" d="M0,0H251.268" transform="translate(1992.987 -438.862)" fill="none" stroke="#040405" stroke-width="1"/>
    <path id="Trazado_209074" data-name="Trazado 209074" d="M0,0H251.268" transform="translate(1992.987 -419.661)" fill="none" stroke="#040405" stroke-width="1"/>
    <path id="Trazado_209075" data-name="Trazado 209075" d="M0,0H251.268" transform="translate(1992.987 -400.46)" fill="none" stroke="#040405" stroke-width="1"/>
    <path id="Trazado_209076" data-name="Trazado 209076" d="M0,0H251.268" transform="translate(1992.987 -369.26)" fill="none" stroke="#040405" stroke-width="1"/>
    <path id="Trazado_209077" data-name="Trazado 209077" d="M0,0H251.268" transform="translate(1992.987 -350.059)" fill="none" stroke="#040405" stroke-width="1"/>
    <path id="Trazado_209078" data-name="Trazado 209078" d="M0,0H251.268" transform="translate(1992.987 -330.858)" fill="none" stroke="#040405" stroke-width="1"/>
    <path id="Trazado_209079" data-name="Trazado 209079" d="M0,0H251.268" transform="translate(1992.987 -311.657)" fill="none" stroke="#040405" stroke-width="1"/>
    <path id="Trazado_209080" data-name="Trazado 209080" d="M0,0H251.268" transform="translate(1992.987 -292.457)" fill="none" stroke="#040405" stroke-width="1"/>
    <path id="Trazado_209081" data-name="Trazado 209081" d="M0,0H251.268" transform="translate(1992.987 -261.256)" fill="none" stroke="#040405" stroke-width="1"/>
    <path id="Trazado_209082" data-name="Trazado 209082" d="M0,0V452.217" transform="translate(1993.487 -693.771)" fill="none" stroke="#040405" stroke-width="1"/>
    <path id="Trazado_209083" data-name="Trazado 209083" d="M0,0V452.217" transform="translate(2243.755 -693.771)" fill="none" stroke="#040405" stroke-width="1"/>
    <path id="Trazado_209084" data-name="Trazado 209084" d="M0,0H251.268" transform="translate(1992.987 -693.271)" fill="none" stroke="#040405" stroke-width="1"/>
    <path id="Trazado_209085" data-name="Trazado 209085" d="M0,0H251.268" transform="translate(1992.987 -242.055)" fill="none" stroke="#040405" stroke-width="1"/>
    <path id="Trazado_209086" data-name="Trazado 209086" d="M6.191-2.359a2.506,2.506,0,0,1-.844,1.8A2.963,2.963,0,0,1,3.341.1,2.665,2.665,0,0,1,1.2-.819,3.759,3.759,0,0,1,.418-3.336v-.433a4.245,4.245,0,0,1,.36-1.8A2.7,2.7,0,0,1,1.807-6.762a2.881,2.881,0,0,1,1.554-.416,2.887,2.887,0,0,1,1.974.657A2.693,2.693,0,0,1,6.2-4.678H4.742a1.479,1.479,0,0,0-.382-.995,1.414,1.414,0,0,0-1-.309,1.24,1.24,0,0,0-1.092.523A2.93,2.93,0,0,0,1.9-3.837V-3.3a3.136,3.136,0,0,0,.348,1.678,1.217,1.217,0,0,0,1.1.53A1.44,1.44,0,0,0,4.35-1.4a1.4,1.4,0,0,0,.382-.956Zm.647-.321a3.121,3.121,0,0,1,.3-1.4,2.207,2.207,0,0,1,.868-.948,2.533,2.533,0,0,1,1.316-.336,2.4,2.4,0,0,1,1.739.652,2.615,2.615,0,0,1,.751,1.77l.01.36a2.75,2.75,0,0,1-.676,1.943A2.35,2.35,0,0,1,9.333.1,2.361,2.361,0,0,1,7.516-.632a2.8,2.8,0,0,1-.678-1.984Zm1.405.1a1.967,1.967,0,0,0,.282,1.147.931.931,0,0,0,.807.4.933.933,0,0,0,.8-.392,2.152,2.152,0,0,0,.287-1.254,1.947,1.947,0,0,0-.287-1.14.933.933,0,0,0-.807-.4.917.917,0,0,0-.8.4A2.189,2.189,0,0,0,8.243-2.58Zm5.739-2.682.044.608a1.837,1.837,0,0,1,1.512-.705,1.527,1.527,0,0,1,1.245.491A2.292,2.292,0,0,1,17.2-3.4V0H15.8V-3.365a.912.912,0,0,0-.195-.649.871.871,0,0,0-.647-.2.967.967,0,0,0-.89.506V0H12.659V-5.262Zm5.967-1.294v1.294h.9v1.031h-.9V-1.6a.627.627,0,0,0,.112.418.562.562,0,0,0,.428.126,2.241,2.241,0,0,0,.413-.034V-.029A2.893,2.893,0,0,1,20.051.1,1.342,1.342,0,0,1,18.544-1.4V-4.231h-.768V-5.262h.768V-6.556Zm4.64,2.612a3.818,3.818,0,0,0-.506-.039,1.029,1.029,0,0,0-1.046.54V0H21.632V-5.262H22.96L23-4.635a1.3,1.3,0,0,1,1.172-.725,1.473,1.473,0,0,1,.438.063Zm.282,1.264a3.121,3.121,0,0,1,.3-1.4,2.207,2.207,0,0,1,.868-.948,2.533,2.533,0,0,1,1.316-.336,2.4,2.4,0,0,1,1.739.652,2.615,2.615,0,0,1,.751,1.77l.01.36A2.75,2.75,0,0,1,29.18-.635,2.35,2.35,0,0,1,27.366.1a2.361,2.361,0,0,1-1.816-.729,2.8,2.8,0,0,1-.678-1.984Zm1.405.1a1.967,1.967,0,0,0,.282,1.147.931.931,0,0,0,.807.4.933.933,0,0,0,.8-.392,2.152,2.152,0,0,0,.287-1.254,1.947,1.947,0,0,0-.287-1.14.933.933,0,0,0-.807-.4.917.917,0,0,0-.8.4A2.189,2.189,0,0,0,26.276-2.58ZM32.2,0h-1.41V-7.47H32.2Zm3.579.1A2.583,2.583,0,0,1,33.9-.613,2.524,2.524,0,0,1,33.172-2.5v-.136a3.179,3.179,0,0,1,.306-1.418,2.249,2.249,0,0,1,.868-.963,2.437,2.437,0,0,1,1.281-.338,2.184,2.184,0,0,1,1.7.681,2.767,2.767,0,0,1,.62,1.931v.574H34.6a1.306,1.306,0,0,0,.411.827,1.242,1.242,0,0,0,.868.311,1.517,1.517,0,0,0,1.269-.588l.691.773a2.11,2.11,0,0,1-.856.7A2.808,2.808,0,0,1,35.784.1Zm-.16-4.323a.878.878,0,0,0-.678.283,1.467,1.467,0,0,0-.333.811h1.955v-.112a1.046,1.046,0,0,0-.253-.725A.906.906,0,0,0,35.624-4.226ZM41.6-1.454a.453.453,0,0,0-.255-.406,2.9,2.9,0,0,0-.819-.265q-1.877-.394-1.877-1.6a1.446,1.446,0,0,1,.581-1.17,2.344,2.344,0,0,1,1.52-.469,2.523,2.523,0,0,1,1.6.472,1.487,1.487,0,0,1,.6,1.226H41.542a.68.68,0,0,0-.195-.5.823.823,0,0,0-.608-.2.841.841,0,0,0-.55.16A.507.507,0,0,0,40-3.788a.433.433,0,0,0,.221.377,2.276,2.276,0,0,0,.747.248,6.1,6.1,0,0,1,.885.236,1.454,1.454,0,0,1,1.114,1.415,1.373,1.373,0,0,1-.618,1.165,2.664,2.664,0,0,1-1.6.445,2.783,2.783,0,0,1-1.174-.236,1.971,1.971,0,0,1-.8-.647,1.5,1.5,0,0,1-.292-.888h1.333a.734.734,0,0,0,.277.574,1.1,1.1,0,0,0,.691.2,1.018,1.018,0,0,0,.61-.153A.477.477,0,0,0,41.6-1.454ZM48.769.1a2.583,2.583,0,0,1-1.885-.71A2.524,2.524,0,0,1,46.157-2.5v-.136a3.179,3.179,0,0,1,.306-1.418,2.249,2.249,0,0,1,.868-.963,2.437,2.437,0,0,1,1.281-.338,2.184,2.184,0,0,1,1.7.681,2.767,2.767,0,0,1,.62,1.931v.574H47.582a1.306,1.306,0,0,0,.411.827,1.242,1.242,0,0,0,.868.311,1.517,1.517,0,0,0,1.269-.588l.691.773a2.11,2.11,0,0,1-.856.7A2.808,2.808,0,0,1,48.769.1Zm-.16-4.323a.878.878,0,0,0-.678.283,1.467,1.467,0,0,0-.333.811h1.955v-.112A1.046,1.046,0,0,0,49.3-3.97.906.906,0,0,0,48.608-4.226Zm4.416-1.036.044.608a1.837,1.837,0,0,1,1.512-.705,1.527,1.527,0,0,1,1.245.491A2.292,2.292,0,0,1,56.244-3.4V0H54.838V-3.365a.912.912,0,0,0-.195-.649.871.871,0,0,0-.647-.2.967.967,0,0,0-.89.506V0H51.7V-5.262ZM62.211.1a2.583,2.583,0,0,1-1.885-.71A2.524,2.524,0,0,1,59.6-2.5v-.136a3.179,3.179,0,0,1,.306-1.418,2.249,2.249,0,0,1,.868-.963,2.437,2.437,0,0,1,1.281-.338,2.184,2.184,0,0,1,1.7.681,2.767,2.767,0,0,1,.62,1.931v.574H61.024a1.306,1.306,0,0,0,.411.827,1.242,1.242,0,0,0,.868.311,1.517,1.517,0,0,0,1.269-.588l.691.773a2.11,2.11,0,0,1-.856.7A2.808,2.808,0,0,1,62.211.1Zm-.16-4.323a.878.878,0,0,0-.678.283,1.467,1.467,0,0,0-.333.811h1.955v-.112a1.046,1.046,0,0,0-.253-.725A.906.906,0,0,0,62.051-4.226ZM66.656,0h-1.41V-7.47h1.41Zm8.375-2.582a3.156,3.156,0,0,1-.552,1.948A1.77,1.77,0,0,1,72.988.1,1.639,1.639,0,0,1,71.7-.457v2.48H70.294V-5.262h1.3l.049.516a1.652,1.652,0,0,1,1.333-.613,1.782,1.782,0,0,1,1.512.72,3.241,3.241,0,0,1,.54,1.984Zm-1.405-.1a2.071,2.071,0,0,0-.26-1.133.847.847,0,0,0-.756-.4.92.92,0,0,0-.909.506v2.154a.936.936,0,0,0,.919.52Q73.625-1.036,73.625-2.685Zm5.233-1.26a3.818,3.818,0,0,0-.506-.039,1.029,1.029,0,0,0-1.046.54V0H75.9V-5.262h1.328l.039.627a1.3,1.3,0,0,1,1.172-.725,1.473,1.473,0,0,1,.438.063ZM79.14-2.68a3.121,3.121,0,0,1,.3-1.4,2.207,2.207,0,0,1,.868-.948,2.533,2.533,0,0,1,1.316-.336,2.4,2.4,0,0,1,1.739.652,2.615,2.615,0,0,1,.751,1.77l.01.36a2.75,2.75,0,0,1-.676,1.943A2.35,2.35,0,0,1,81.635.1a2.361,2.361,0,0,1-1.816-.729,2.8,2.8,0,0,1-.678-1.984Zm1.405.1a1.967,1.967,0,0,0,.282,1.147.93.93,0,0,0,.807.4.933.933,0,0,0,.8-.392,2.152,2.152,0,0,0,.287-1.254,1.947,1.947,0,0,0-.287-1.14.933.933,0,0,0-.807-.4.917.917,0,0,0-.8.4A2.189,2.189,0,0,0,80.546-2.58Zm6.634,1.544a.922.922,0,0,0,.632-.214.75.75,0,0,0,.253-.569h1.318a1.8,1.8,0,0,1-.292.98,1.925,1.925,0,0,1-.785.691A2.458,2.458,0,0,1,87.2.1a2.284,2.284,0,0,1-1.78-.717A2.839,2.839,0,0,1,84.772-2.6v-.092a2.806,2.806,0,0,1,.647-1.94,2.258,2.258,0,0,1,1.775-.725,2.213,2.213,0,0,1,1.583.562,1.989,1.989,0,0,1,.605,1.5H88.064a.966.966,0,0,0-.253-.667.843.843,0,0,0-.642-.257.847.847,0,0,0-.742.358,2.075,2.075,0,0,0-.25,1.162v.146a2.1,2.1,0,0,0,.248,1.169A.857.857,0,0,0,87.179-1.036ZM92.607.1a2.583,2.583,0,0,1-1.885-.71A2.524,2.524,0,0,1,90-2.5v-.136A3.179,3.179,0,0,1,90.3-4.058a2.249,2.249,0,0,1,.868-.963,2.437,2.437,0,0,1,1.281-.338,2.184,2.184,0,0,1,1.7.681,2.767,2.767,0,0,1,.62,1.931v.574H91.42a1.306,1.306,0,0,0,.411.827,1.242,1.242,0,0,0,.868.311,1.517,1.517,0,0,0,1.269-.588l.691.773a2.11,2.11,0,0,1-.856.7A2.808,2.808,0,0,1,92.607.1Zm-.16-4.323a.878.878,0,0,0-.678.283,1.467,1.467,0,0,0-.333.811H93.39v-.112a1.046,1.046,0,0,0-.253-.725A.906.906,0,0,0,92.446-4.226Zm5.972,2.772a.453.453,0,0,0-.255-.406,2.9,2.9,0,0,0-.819-.265q-1.877-.394-1.877-1.6a1.446,1.446,0,0,1,.581-1.17,2.344,2.344,0,0,1,1.52-.469,2.523,2.523,0,0,1,1.6.472,1.487,1.487,0,0,1,.6,1.226H98.365a.68.68,0,0,0-.195-.5.823.823,0,0,0-.608-.2.841.841,0,0,0-.55.16.507.507,0,0,0-.195.409.433.433,0,0,0,.221.377,2.276,2.276,0,0,0,.747.248,6.1,6.1,0,0,1,.885.236,1.454,1.454,0,0,1,1.114,1.415,1.373,1.373,0,0,1-.618,1.165,2.664,2.664,0,0,1-1.6.445A2.783,2.783,0,0,1,96.4-.139a1.971,1.971,0,0,1-.8-.647,1.5,1.5,0,0,1-.292-.888h1.333a.734.734,0,0,0,.277.574,1.1,1.1,0,0,0,.691.2,1.018,1.018,0,0,0,.61-.153A.477.477,0,0,0,98.418-1.454Zm2.052-1.226a3.121,3.121,0,0,1,.3-1.4,2.207,2.207,0,0,1,.868-.948,2.533,2.533,0,0,1,1.316-.336,2.4,2.4,0,0,1,1.739.652,2.615,2.615,0,0,1,.751,1.77l.01.36a2.75,2.75,0,0,1-.676,1.943A2.35,2.35,0,0,1,102.965.1a2.361,2.361,0,0,1-1.816-.729,2.8,2.8,0,0,1-.678-1.984Zm1.405.1a1.967,1.967,0,0,0,.282,1.147.93.93,0,0,0,.807.4.933.933,0,0,0,.8-.392,2.152,2.152,0,0,0,.287-1.254,1.947,1.947,0,0,0-.287-1.14.933.933,0,0,0-.807-.4.917.917,0,0,0-.8.4A2.189,2.189,0,0,0,101.876-2.58Z" transform="translate(2061.823 -679.961)" fill="#fff"/>
    <path id="Trazado_209087" data-name="Trazado 209087" d="M0,0H251.88V454.32H0Z" transform="translate(1992.967 -693.872)" fill="none"/>
    <path id="Trazado_209088" data-name="Trazado 209088" d="M4.3-1.858a.749.749,0,0,0-.292-.635,3.827,3.827,0,0,0-1.05-.467,7.447,7.447,0,0,1-1.2-.484A1.963,1.963,0,0,1,.554-5.2,1.71,1.71,0,0,1,.878-6.223a2.11,2.11,0,0,1,.929-.7,3.5,3.5,0,0,1,1.359-.253A3.182,3.182,0,0,1,4.518-6.9a2.153,2.153,0,0,1,.922.776A2.03,2.03,0,0,1,5.768-4.99H4.309A.955.955,0,0,0,4-5.746a1.259,1.259,0,0,0-.861-.27,1.346,1.346,0,0,0-.832.226.713.713,0,0,0-.3.6.683.683,0,0,0,.348.579,3.929,3.929,0,0,0,1.024.438A4.423,4.423,0,0,1,5.2-3.249a1.85,1.85,0,0,1,.569,1.381,1.7,1.7,0,0,1-.7,1.442A3.045,3.045,0,0,1,3.2.1,3.616,3.616,0,0,1,1.712-.2,2.355,2.355,0,0,1,.688-1.021,2.1,2.1,0,0,1,.336-2.227H1.8q0,1.172,1.4,1.172a1.362,1.362,0,0,0,.812-.212A.688.688,0,0,0,4.3-1.858Zm4.041-4.7v1.294h.9v1.031h-.9V-1.6a.627.627,0,0,0,.112.418.562.562,0,0,0,.428.126A2.241,2.241,0,0,0,9.3-1.094V-.029A2.893,2.893,0,0,1,8.448.1,1.342,1.342,0,0,1,6.94-1.4V-4.231H6.172V-5.262H6.94V-6.556ZM9.663-2.68a3.121,3.121,0,0,1,.3-1.4,2.207,2.207,0,0,1,.868-.948,2.533,2.533,0,0,1,1.316-.336,2.4,2.4,0,0,1,1.739.652,2.615,2.615,0,0,1,.751,1.77l.01.36a2.75,2.75,0,0,1-.676,1.943A2.35,2.35,0,0,1,12.158.1a2.361,2.361,0,0,1-1.816-.729,2.8,2.8,0,0,1-.678-1.984Zm1.405.1a1.967,1.967,0,0,0,.282,1.147.931.931,0,0,0,.807.4.933.933,0,0,0,.8-.392,2.152,2.152,0,0,0,.287-1.254,1.947,1.947,0,0,0-.287-1.14.933.933,0,0,0-.807-.4.917.917,0,0,0-.8.4A2.189,2.189,0,0,0,11.069-2.58ZM17.7-1.036a.922.922,0,0,0,.632-.214.75.75,0,0,0,.253-.569h1.318a1.8,1.8,0,0,1-.292.98,1.925,1.925,0,0,1-.785.691,2.458,2.458,0,0,1-1.1.246,2.284,2.284,0,0,1-1.78-.717A2.839,2.839,0,0,1,15.3-2.6v-.092a2.806,2.806,0,0,1,.647-1.94,2.258,2.258,0,0,1,1.775-.725A2.213,2.213,0,0,1,19.3-4.8a1.989,1.989,0,0,1,.605,1.5H18.587a.966.966,0,0,0-.253-.667.843.843,0,0,0-.642-.257.846.846,0,0,0-.742.358,2.075,2.075,0,0,0-.25,1.162v.146a2.1,2.1,0,0,0,.248,1.169A.857.857,0,0,0,17.7-1.036Zm4.917-1.075-.506.506V0H20.708V-7.47h1.405v4.139l.272-.35,1.347-1.581H25.42l-1.9,2.193L25.586,0H23.971Zm10.626-.472a3.156,3.156,0,0,1-.552,1.948A1.77,1.77,0,0,1,31.2.1a1.639,1.639,0,0,1-1.289-.554v2.48H28.509V-5.262h1.3l.049.516a1.652,1.652,0,0,1,1.333-.613,1.782,1.782,0,0,1,1.512.72,3.241,3.241,0,0,1,.54,1.984Zm-1.405-.1a2.071,2.071,0,0,0-.26-1.133.847.847,0,0,0-.756-.4.92.92,0,0,0-.909.506v2.154a.936.936,0,0,0,.919.52Q31.84-1.036,31.84-2.685Zm5.233-1.26a3.818,3.818,0,0,0-.506-.039,1.029,1.029,0,0,0-1.046.54V0H34.116V-5.262h1.328l.039.627a1.3,1.3,0,0,1,1.172-.725,1.473,1.473,0,0,1,.438.063Zm.282,1.264a3.121,3.121,0,0,1,.3-1.4,2.207,2.207,0,0,1,.868-.948,2.533,2.533,0,0,1,1.316-.336,2.4,2.4,0,0,1,1.739.652,2.615,2.615,0,0,1,.751,1.77l.01.36a2.75,2.75,0,0,1-.676,1.943A2.35,2.35,0,0,1,39.85.1a2.361,2.361,0,0,1-1.816-.729,2.8,2.8,0,0,1-.678-1.984Zm1.405.1a1.967,1.967,0,0,0,.282,1.147.931.931,0,0,0,.807.4.933.933,0,0,0,.8-.392,2.152,2.152,0,0,0,.287-1.254,1.947,1.947,0,0,0-.287-1.14.933.933,0,0,0-.807-.4.917.917,0,0,0-.8.4A2.189,2.189,0,0,0,38.76-2.58Zm4.226-.09a3.171,3.171,0,0,1,.552-1.96,1.791,1.791,0,0,1,1.51-.729,1.612,1.612,0,0,1,1.269.574V-7.47h1.41V0H46.459l-.068-.559A1.654,1.654,0,0,1,45.039.1a1.786,1.786,0,0,1-1.491-.732A3.273,3.273,0,0,1,42.987-2.67Zm1.405.1A2.077,2.077,0,0,0,44.65-1.43a.84.84,0,0,0,.749.395.94.94,0,0,0,.919-.55v-2.08a.927.927,0,0,0-.909-.55Q44.392-4.216,44.392-2.565Zm7.577,2.03A1.763,1.763,0,0,1,50.529.1a1.662,1.662,0,0,1-1.291-.486,2.076,2.076,0,0,1-.455-1.425V-5.262h1.405v3.4q0,.823.749.823a1.015,1.015,0,0,0,.982-.5v-3.73h1.41V0H52.008Zm4.61-.5a.922.922,0,0,0,.632-.214.75.75,0,0,0,.253-.569h1.318a1.8,1.8,0,0,1-.292.98,1.925,1.925,0,0,1-.785.691A2.458,2.458,0,0,1,56.6.1a2.284,2.284,0,0,1-1.78-.717A2.839,2.839,0,0,1,54.172-2.6v-.092a2.806,2.806,0,0,1,.647-1.94,2.258,2.258,0,0,1,1.775-.725,2.213,2.213,0,0,1,1.583.562,1.989,1.989,0,0,1,.605,1.5H57.465a.966.966,0,0,0-.253-.667.843.843,0,0,0-.642-.257.846.846,0,0,0-.742.358,2.075,2.075,0,0,0-.25,1.162v.146a2.1,2.1,0,0,0,.248,1.169A.857.857,0,0,0,56.579-1.036Zm4.688-5.52v1.294h.9v1.031h-.9V-1.6a.627.627,0,0,0,.112.418.562.562,0,0,0,.428.126,2.241,2.241,0,0,0,.413-.034V-.029A2.893,2.893,0,0,1,61.37.1,1.342,1.342,0,0,1,59.862-1.4V-4.231h-.768V-5.262h.768V-6.556ZM62.586-2.68a3.121,3.121,0,0,1,.3-1.4,2.207,2.207,0,0,1,.868-.948,2.533,2.533,0,0,1,1.316-.336,2.4,2.4,0,0,1,1.739.652,2.615,2.615,0,0,1,.751,1.77l.01.36a2.75,2.75,0,0,1-.676,1.943A2.35,2.35,0,0,1,65.08.1a2.361,2.361,0,0,1-1.816-.729,2.8,2.8,0,0,1-.678-1.984Zm1.405.1a1.967,1.967,0,0,0,.282,1.147.931.931,0,0,0,.807.4.933.933,0,0,0,.8-.392,2.152,2.152,0,0,0,.287-1.254,1.947,1.947,0,0,0-.287-1.14.933.933,0,0,0-.807-.4.917.917,0,0,0-.8.4A2.189,2.189,0,0,0,63.991-2.58ZM68.5-.691a.708.708,0,0,1,.226-.545.8.8,0,0,1,.567-.209.809.809,0,0,1,.571.209.708.708,0,0,1,.226.545.7.7,0,0,1-.224.537A.812.812,0,0,1,69.3.053a.806.806,0,0,1-.569-.207A.7.7,0,0,1,68.5-.691Zm0-3.983a.708.708,0,0,1,.226-.545.8.8,0,0,1,.567-.209.809.809,0,0,1,.571.209.708.708,0,0,1,.226.545.7.7,0,0,1-.224.537.812.812,0,0,1-.574.207.806.806,0,0,1-.569-.207A.7.7,0,0,1,68.5-4.674Z" transform="translate(2000.69 -660.758)" fill="#040405"/>
    <path id="Trazado_209089" data-name="Trazado 209089" d="M0,0H251.88V454.32H0Z" transform="translate(1992.967 -693.872)" fill="none"/>
    <path id="Trazado_209090" data-name="Trazado 209090" d="M4.727-3.127H1.756V0H.822V-7.081H5.209v.764H1.756v2.427H4.727ZM8.268.1a2.3,2.3,0,0,1-1.741-.7,2.608,2.608,0,0,1-.671-1.88V-2.65a3.158,3.158,0,0,1,.3-1.4,2.333,2.333,0,0,1,.836-.963,2.1,2.1,0,0,1,1.165-.348,1.971,1.971,0,0,1,1.6.676,2.927,2.927,0,0,1,.569,1.936v.374H6.755A1.87,1.87,0,0,0,7.21-1.116a1.429,1.429,0,0,0,1.106.479,1.567,1.567,0,0,0,.807-.195A2.028,2.028,0,0,0,9.7-1.347l.55.428A2.21,2.21,0,0,1,8.268.1ZM8.156-4.62a1.2,1.2,0,0,0-.914.4,1.927,1.927,0,0,0-.457,1.111H9.42v-.068a1.714,1.714,0,0,0-.37-1.063A1.13,1.13,0,0,0,8.156-4.62ZM13.471-.637a1.3,1.3,0,0,0,.841-.292,1.027,1.027,0,0,0,.4-.729h.851a1.632,1.632,0,0,1-.311.861,2.05,2.05,0,0,1-.766.652A2.21,2.21,0,0,1,13.471.1,2.168,2.168,0,0,1,11.762-.62a2.857,2.857,0,0,1-.635-1.962v-.151A3.168,3.168,0,0,1,11.409-4.1a2.148,2.148,0,0,1,.81-.929,2.3,2.3,0,0,1,1.247-.331,2.11,2.11,0,0,1,1.471.53,1.9,1.9,0,0,1,.625,1.376h-.851a1.24,1.24,0,0,0-.387-.839,1.2,1.2,0,0,0-.858-.328,1.259,1.259,0,0,0-1.063.494A2.318,2.318,0,0,0,12.027-2.7v.17a2.272,2.272,0,0,0,.374,1.4A1.265,1.265,0,0,0,13.471-.637Zm4-3.988a1.913,1.913,0,0,1,1.556-.734q1.668,0,1.683,1.882V0h-.9V-3.482a1.211,1.211,0,0,0-.26-.841,1.043,1.043,0,0,0-.8-.272,1.3,1.3,0,0,0-.768.233,1.585,1.585,0,0,0-.516.613V0h-.9V-7.47h.9ZM25.309,0a1.89,1.89,0,0,1-.126-.554,2.007,2.007,0,0,1-1.5.652,1.857,1.857,0,0,1-1.277-.44,1.424,1.424,0,0,1-.5-1.116,1.488,1.488,0,0,1,.625-1.277,2.946,2.946,0,0,1,1.758-.455h.875V-3.6a1.01,1.01,0,0,0-.282-.751,1.134,1.134,0,0,0-.832-.28,1.312,1.312,0,0,0-.807.243.717.717,0,0,0-.326.588h-.9a1.242,1.242,0,0,1,.28-.761,1.909,1.909,0,0,1,.759-.581,2.552,2.552,0,0,1,1.053-.214,2.08,2.08,0,0,1,1.425.455,1.64,1.64,0,0,1,.535,1.252V-1.23a2.961,2.961,0,0,0,.185,1.153V0ZM23.815-.686a1.581,1.581,0,0,0,.8-.219,1.324,1.324,0,0,0,.55-.569v-1.08h-.705q-1.654,0-1.654.968a.819.819,0,0,0,.282.661A1.084,1.084,0,0,0,23.815-.686Zm3.633.214a.563.563,0,0,1,.139-.389A.528.528,0,0,1,28-1.016a.544.544,0,0,1,.421.156.552.552,0,0,1,.143.389.522.522,0,0,1-.143.374A.554.554,0,0,1,28,.053.537.537,0,0,1,27.587-.1.532.532,0,0,1,27.448-.472Zm0-4.294a.563.563,0,0,1,.139-.389.528.528,0,0,1,.416-.156.544.544,0,0,1,.421.156.552.552,0,0,1,.143.389.522.522,0,0,1-.143.374.554.554,0,0,1-.421.151.537.537,0,0,1-.416-.151A.532.532,0,0,1,27.453-4.766Z" transform="translate(2000.69 -641.555)" fill="#040405"/>
    <path id="Trazado_209091" data-name="Trazado 209091" d="M0,0H251.88V454.32H0Z" transform="translate(1992.967 -693.872)" fill="none"/>
    <path id="Trazado_209092" data-name="Trazado 209092" d="M6.264,0H5.325V-3.273H1.756V0H.822V-7.081h.934v3.044h3.57V-7.081h.939ZM7.543-2.68a3.108,3.108,0,0,1,.3-1.391,2.267,2.267,0,0,1,.846-.953,2.3,2.3,0,0,1,1.238-.336,2.219,2.219,0,0,1,1.739.744,2.863,2.863,0,0,1,.664,1.979v.063a3.135,3.135,0,0,1-.294,1.379,2.234,2.234,0,0,1-.841.951A2.33,2.33,0,0,1,9.941.1,2.214,2.214,0,0,1,8.207-.647a2.848,2.848,0,0,1-.664-1.97Zm.9.107a2.251,2.251,0,0,0,.406,1.405,1.3,1.3,0,0,0,1.087.53,1.292,1.292,0,0,0,1.089-.537,2.462,2.462,0,0,0,.4-1.505,2.247,2.247,0,0,0-.411-1.4A1.306,1.306,0,0,0,9.931-4.62a1.292,1.292,0,0,0-1.075.53A2.443,2.443,0,0,0,8.448-2.573Zm7.558-1.882a2.7,2.7,0,0,0-.443-.034,1.186,1.186,0,0,0-1.2.754V0h-.9V-5.262h.875l.015.608a1.4,1.4,0,0,1,1.255-.705.919.919,0,0,1,.4.068ZM19.886,0a1.89,1.89,0,0,1-.126-.554,2.007,2.007,0,0,1-1.5.652,1.857,1.857,0,0,1-1.277-.44,1.424,1.424,0,0,1-.5-1.116,1.488,1.488,0,0,1,.625-1.277A2.946,2.946,0,0,1,18.87-3.19h.875V-3.6a1.01,1.01,0,0,0-.282-.751,1.134,1.134,0,0,0-.832-.28,1.312,1.312,0,0,0-.807.243A.717.717,0,0,0,17.5-3.8h-.9a1.242,1.242,0,0,1,.28-.761,1.909,1.909,0,0,1,.759-.581,2.552,2.552,0,0,1,1.053-.214A2.08,2.08,0,0,1,20.11-4.9a1.64,1.64,0,0,1,.535,1.252V-1.23a2.961,2.961,0,0,0,.185,1.153V0ZM18.393-.686A1.581,1.581,0,0,0,19.2-.9a1.324,1.324,0,0,0,.55-.569v-1.08H19.04q-1.654,0-1.654.968a.819.819,0,0,0,.282.661A1.084,1.084,0,0,0,18.393-.686Zm3.633.214a.563.563,0,0,1,.139-.389.528.528,0,0,1,.416-.156A.544.544,0,0,1,23-.861a.552.552,0,0,1,.143.389A.522.522,0,0,1,23-.1a.554.554,0,0,1-.421.151A.537.537,0,0,1,22.164-.1.532.532,0,0,1,22.026-.472Zm0-4.294a.563.563,0,0,1,.139-.389.528.528,0,0,1,.416-.156.544.544,0,0,1,.421.156.552.552,0,0,1,.143.389.522.522,0,0,1-.143.374.554.554,0,0,1-.421.151.537.537,0,0,1-.416-.151A.532.532,0,0,1,22.031-4.766Z" transform="translate(2000.69 -622.352)" fill="#040405"/>
    <path id="Trazado_209093" data-name="Trazado 209093" d="M0,0H251.88V454.32H0Z" transform="translate(1992.967 -693.872)" fill="none"/>
    <path id="Trazado_209094" data-name="Trazado 209094" d="M1.756-2.772V0H.822V-7.081H3.433a2.624,2.624,0,0,1,1.821.593,2.011,2.011,0,0,1,.659,1.571,1.985,1.985,0,0,1-.644,1.588,2.741,2.741,0,0,1-1.846.557Zm0-.764H3.433a1.678,1.678,0,0,0,1.148-.353,1.292,1.292,0,0,0,.4-1.021,1.334,1.334,0,0,0-.4-1.013,1.572,1.572,0,0,0-1.094-.395H1.756ZM9.085.1a2.3,2.3,0,0,1-1.741-.7,2.608,2.608,0,0,1-.671-1.88V-2.65a3.158,3.158,0,0,1,.3-1.4,2.333,2.333,0,0,1,.836-.963,2.1,2.1,0,0,1,1.165-.348,1.971,1.971,0,0,1,1.6.676,2.927,2.927,0,0,1,.569,1.936v.374H7.572a1.87,1.87,0,0,0,.455,1.257,1.429,1.429,0,0,0,1.106.479,1.567,1.567,0,0,0,.807-.195,2.028,2.028,0,0,0,.579-.516l.55.428A2.21,2.21,0,0,1,9.085.1ZM8.973-4.62a1.2,1.2,0,0,0-.914.4A1.927,1.927,0,0,0,7.6-3.112h2.636v-.068a1.714,1.714,0,0,0-.37-1.063A1.13,1.13,0,0,0,8.973-4.62ZM15.242-1.4a.662.662,0,0,0-.275-.567,2.645,2.645,0,0,0-.958-.348,4.53,4.53,0,0,1-1.085-.35,1.543,1.543,0,0,1-.593-.486,1.163,1.163,0,0,1-.192-.671,1.365,1.365,0,0,1,.547-1.094,2.137,2.137,0,0,1,1.4-.447,2.2,2.2,0,0,1,1.452.462,1.467,1.467,0,0,1,.557,1.182h-.9a.812.812,0,0,0-.314-.637,1.175,1.175,0,0,0-.79-.267,1.23,1.23,0,0,0-.768.214.674.674,0,0,0-.277.559.546.546,0,0,0,.258.491,3.171,3.171,0,0,0,.931.316,4.853,4.853,0,0,1,1.092.36,1.593,1.593,0,0,1,.62.5,1.238,1.238,0,0,1,.2.717,1.347,1.347,0,0,1-.564,1.131A2.366,2.366,0,0,1,14.113.1a2.65,2.65,0,0,1-1.119-.224,1.819,1.819,0,0,1-.761-.625,1.506,1.506,0,0,1-.275-.868h.9a.931.931,0,0,0,.362.717,1.406,1.406,0,0,0,.892.265,1.451,1.451,0,0,0,.819-.207A.635.635,0,0,0,15.242-1.4ZM17.075-2.68a3.108,3.108,0,0,1,.3-1.391,2.267,2.267,0,0,1,.846-.953,2.3,2.3,0,0,1,1.238-.336,2.219,2.219,0,0,1,1.739.744,2.863,2.863,0,0,1,.664,1.979v.063a3.135,3.135,0,0,1-.294,1.379,2.234,2.234,0,0,1-.841.951A2.33,2.33,0,0,1,19.473.1a2.214,2.214,0,0,1-1.734-.744,2.848,2.848,0,0,1-.664-1.97Zm.9.107a2.251,2.251,0,0,0,.406,1.405,1.3,1.3,0,0,0,1.087.53,1.292,1.292,0,0,0,1.089-.537,2.462,2.462,0,0,0,.4-1.505,2.247,2.247,0,0,0-.411-1.4,1.306,1.306,0,0,0-1.092-.537,1.292,1.292,0,0,0-1.075.53A2.443,2.443,0,0,0,17.98-2.573Zm4.985,2.1A.563.563,0,0,1,23.1-.861a.528.528,0,0,1,.416-.156.544.544,0,0,1,.421.156.552.552,0,0,1,.143.389A.522.522,0,0,1,23.94-.1a.554.554,0,0,1-.421.151A.537.537,0,0,1,23.1-.1.532.532,0,0,1,22.964-.472Zm0-4.294a.563.563,0,0,1,.139-.389.528.528,0,0,1,.416-.156.544.544,0,0,1,.421.156.552.552,0,0,1,.143.389.522.522,0,0,1-.143.374.554.554,0,0,1-.421.151.537.537,0,0,1-.416-.151A.532.532,0,0,1,22.969-4.766Z" transform="translate(2080.058 -603.148)" fill="#040405"/>
    <path id="Trazado_209095" data-name="Trazado 209095" d="M0,0H251.88V454.32H0Z" transform="translate(1992.967 -693.872)" fill="none"/>
    <path id="Trazado_209096" data-name="Trazado 209096" d="M0,0H251.88V454.32H0Z" transform="translate(1992.967 -693.872)" fill="none"/>
    <path id="Trazado_209097" data-name="Trazado 209097" d="M3.166-1.24,5.189-7.081H6.21L3.584,0H2.757L.136-7.081H1.153Zm3.39-1.44a3.108,3.108,0,0,1,.3-1.391,2.267,2.267,0,0,1,.846-.953,2.3,2.3,0,0,1,1.238-.336,2.219,2.219,0,0,1,1.739.744,2.863,2.863,0,0,1,.664,1.979v.063a3.135,3.135,0,0,1-.294,1.379,2.234,2.234,0,0,1-.841.951A2.33,2.33,0,0,1,8.953.1,2.214,2.214,0,0,1,7.22-.647a2.848,2.848,0,0,1-.664-1.97Zm.9.107a2.251,2.251,0,0,0,.406,1.405,1.3,1.3,0,0,0,1.087.53,1.292,1.292,0,0,0,1.089-.537,2.462,2.462,0,0,0,.4-1.505,2.247,2.247,0,0,0-.411-1.4A1.306,1.306,0,0,0,8.944-4.62a1.292,1.292,0,0,0-1.075.53A2.443,2.443,0,0,0,7.46-2.573ZM13.452,0h-.9V-7.47h.9ZM18.14-.52A1.911,1.911,0,0,1,16.6.1a1.636,1.636,0,0,1-1.281-.489,2.116,2.116,0,0,1-.445-1.447V-5.262h.9v3.4q0,1.2.973,1.2a1.347,1.347,0,0,0,1.371-.768V-5.262h.9V0h-.856Zm3.088-4.742.024.584a1.943,1.943,0,0,1,1.561-.681,1.5,1.5,0,0,1,1.5.846A1.993,1.993,0,0,1,25-5.126a2.018,2.018,0,0,1,.995-.233q1.731,0,1.761,1.833V0h-.9V-3.472a1.208,1.208,0,0,0-.258-.844,1.135,1.135,0,0,0-.866-.28,1.193,1.193,0,0,0-.832.3,1.213,1.213,0,0,0-.384.8V0h-.9V-3.448A1,1,0,0,0,22.488-4.6a1.2,1.2,0,0,0-1.211.754V0h-.9V-5.262ZM31.3.1a2.3,2.3,0,0,1-1.741-.7,2.608,2.608,0,0,1-.671-1.88V-2.65a3.158,3.158,0,0,1,.3-1.4,2.333,2.333,0,0,1,.836-.963,2.1,2.1,0,0,1,1.165-.348,1.971,1.971,0,0,1,1.6.676,2.927,2.927,0,0,1,.569,1.936v.374H29.783a1.87,1.87,0,0,0,.455,1.257,1.429,1.429,0,0,0,1.106.479,1.567,1.567,0,0,0,.807-.195,2.028,2.028,0,0,0,.579-.516l.55.428A2.21,2.21,0,0,1,31.3.1ZM31.183-4.62a1.2,1.2,0,0,0-.914.4,1.927,1.927,0,0,0-.457,1.111h2.636v-.068a1.714,1.714,0,0,0-.37-1.063A1.13,1.13,0,0,0,31.183-4.62Zm4.056-.642.029.661a1.918,1.918,0,0,1,1.576-.759q1.668,0,1.683,1.882V0h-.9V-3.482a1.211,1.211,0,0,0-.26-.841,1.043,1.043,0,0,0-.8-.272,1.3,1.3,0,0,0-.768.233,1.585,1.585,0,0,0-.516.613V0h-.9V-5.262Zm4.615,4.79a.563.563,0,0,1,.139-.389.528.528,0,0,1,.416-.156.544.544,0,0,1,.421.156.552.552,0,0,1,.143.389A.522.522,0,0,1,40.83-.1a.554.554,0,0,1-.421.151A.537.537,0,0,1,39.993-.1.532.532,0,0,1,39.855-.472Zm0-4.294A.563.563,0,0,1,40-5.155a.528.528,0,0,1,.416-.156.544.544,0,0,1,.421.156.552.552,0,0,1,.143.389.522.522,0,0,1-.143.374.554.554,0,0,1-.421.151A.537.537,0,0,1,40-4.392.532.532,0,0,1,39.859-4.766Z" transform="translate(2000.69 -603.148)" fill="#040405"/>
    <path id="Trazado_209098" data-name="Trazado 209098" d="M0,0H251.88V454.32H0Z" transform="translate(1992.967 -693.872)" fill="none"/>
    <path id="Trazado_209099" data-name="Trazado 209099" d="M0,0H251.88V454.32H0Z" transform="translate(1992.967 -693.872)" fill="none"/>
    <path id="Trazado_209100" data-name="Trazado 209100" d="M6.03-2.247A2.605,2.605,0,0,1,5.2-.513,2.717,2.717,0,0,1,3.346.1,2.5,2.5,0,0,1,1.335-.8,3.62,3.62,0,0,1,.579-3.21v-.681A4.034,4.034,0,0,1,.931-5.627a2.634,2.634,0,0,1,1-1.15,2.783,2.783,0,0,1,1.5-.4,2.559,2.559,0,0,1,1.809.63A2.636,2.636,0,0,1,6.03-4.8H5.092a2.034,2.034,0,0,0-.528-1.229,1.6,1.6,0,0,0-1.136-.38,1.671,1.671,0,0,0-1.4.662,3.039,3.039,0,0,0-.508,1.884v.686A3.124,3.124,0,0,0,2-1.348a1.556,1.556,0,0,0,1.347.681A1.8,1.8,0,0,0,4.54-1.019a1.957,1.957,0,0,0,.552-1.228Zm.895-.433a3.108,3.108,0,0,1,.3-1.391,2.267,2.267,0,0,1,.846-.953,2.3,2.3,0,0,1,1.238-.336,2.219,2.219,0,0,1,1.739.744,2.863,2.863,0,0,1,.664,1.979v.063a3.135,3.135,0,0,1-.294,1.379,2.234,2.234,0,0,1-.841.951A2.33,2.33,0,0,1,9.323.1,2.214,2.214,0,0,1,7.589-.647a2.848,2.848,0,0,1-.664-1.97Zm.9.107a2.251,2.251,0,0,0,.406,1.405,1.3,1.3,0,0,0,1.087.53,1.292,1.292,0,0,0,1.089-.537,2.462,2.462,0,0,0,.4-1.505,2.247,2.247,0,0,0-.411-1.4A1.306,1.306,0,0,0,9.313-4.62a1.292,1.292,0,0,0-1.075.53A2.443,2.443,0,0,0,7.83-2.573Zm1.892-4.9h1.089l-1.3,1.43-.725,0Zm2.9,4.8A3.083,3.083,0,0,1,13.2-4.623a1.815,1.815,0,0,1,1.5-.737,1.825,1.825,0,0,1,1.464.632V-7.47h.9V0h-.827l-.044-.564a1.832,1.832,0,0,1-1.5.661A1.8,1.8,0,0,1,13.2-.652a3.118,3.118,0,0,1-.576-1.955Zm.9.1a2.334,2.334,0,0,0,.37,1.4,1.2,1.2,0,0,0,1.021.506,1.313,1.313,0,0,0,1.25-.768V-3.852a1.323,1.323,0,0,0-1.24-.744,1.2,1.2,0,0,0-1.031.511A2.57,2.57,0,0,0,13.525-2.573ZM19.439,0h-.9V-5.262h.9Zm-.973-6.658a.537.537,0,0,1,.134-.37.5.5,0,0,1,.4-.151.51.51,0,0,1,.4.151.531.531,0,0,1,.136.37.514.514,0,0,1-.136.365.519.519,0,0,1-.4.146.511.511,0,0,1-.4-.146A.519.519,0,0,1,18.466-6.658Zm2.2,3.983a3.093,3.093,0,0,1,.569-1.957,1.82,1.82,0,0,1,1.508-.727,1.81,1.81,0,0,1,1.5.681l.044-.584h.822V-.126a2.141,2.141,0,0,1-.605,1.61,2.234,2.234,0,0,1-1.627.588,2.706,2.706,0,0,1-1.114-.243,1.917,1.917,0,0,1-.832-.666L21.4.623a1.759,1.759,0,0,0,1.415.715,1.379,1.379,0,0,0,1.024-.37A1.413,1.413,0,0,0,24.2-.073V-.525A1.849,1.849,0,0,1,22.731.1a1.8,1.8,0,0,1-1.5-.744A3.252,3.252,0,0,1,20.664-2.675Zm.9.1a2.359,2.359,0,0,0,.365,1.4,1.185,1.185,0,0,0,1.021.508A1.318,1.318,0,0,0,24.2-1.44v-2.4a1.333,1.333,0,0,0-1.24-.754,1.2,1.2,0,0,0-1.026.511A2.57,2.57,0,0,0,21.569-2.573Zm4.659-.107a3.108,3.108,0,0,1,.3-1.391,2.267,2.267,0,0,1,.846-.953,2.3,2.3,0,0,1,1.238-.336,2.219,2.219,0,0,1,1.739.744,2.863,2.863,0,0,1,.664,1.979v.063a3.135,3.135,0,0,1-.294,1.379,2.234,2.234,0,0,1-.841.951A2.33,2.33,0,0,1,28.625.1a2.214,2.214,0,0,1-1.734-.744,2.848,2.848,0,0,1-.664-1.97Zm.9.107a2.251,2.251,0,0,0,.406,1.405,1.3,1.3,0,0,0,1.087.53,1.292,1.292,0,0,0,1.089-.537,2.462,2.462,0,0,0,.4-1.505,2.247,2.247,0,0,0-.411-1.4,1.306,1.306,0,0,0-1.092-.537,1.292,1.292,0,0,0-1.075.53A2.443,2.443,0,0,0,27.132-2.573ZM37.155-4.455a2.7,2.7,0,0,0-.443-.034,1.186,1.186,0,0,0-1.2.754V0h-.9V-5.262h.875l.015.608a1.4,1.4,0,0,1,1.255-.705.919.919,0,0,1,.4.068ZM40.073.1a2.3,2.3,0,0,1-1.741-.7,2.608,2.608,0,0,1-.671-1.88V-2.65a3.158,3.158,0,0,1,.3-1.4,2.333,2.333,0,0,1,.836-.963,2.1,2.1,0,0,1,1.165-.348,1.971,1.971,0,0,1,1.6.676,2.927,2.927,0,0,1,.569,1.936v.374H38.561a1.87,1.87,0,0,0,.455,1.257,1.429,1.429,0,0,0,1.106.479,1.567,1.567,0,0,0,.807-.195,2.028,2.028,0,0,0,.579-.516l.55.428A2.21,2.21,0,0,1,40.073.1ZM39.962-4.62a1.2,1.2,0,0,0-.914.4,1.927,1.927,0,0,0-.457,1.111h2.636v-.068a1.714,1.714,0,0,0-.37-1.063A1.13,1.13,0,0,0,39.962-4.62ZM46.415,0a1.89,1.89,0,0,1-.126-.554,2.007,2.007,0,0,1-1.5.652,1.857,1.857,0,0,1-1.277-.44,1.424,1.424,0,0,1-.5-1.116,1.488,1.488,0,0,1,.625-1.277A2.946,2.946,0,0,1,45.4-3.19h.875V-3.6a1.01,1.01,0,0,0-.282-.751,1.134,1.134,0,0,0-.832-.28,1.312,1.312,0,0,0-.807.243.717.717,0,0,0-.326.588h-.9a1.242,1.242,0,0,1,.28-.761,1.909,1.909,0,0,1,.759-.581,2.552,2.552,0,0,1,1.053-.214,2.08,2.08,0,0,1,1.425.455,1.64,1.64,0,0,1,.535,1.252V-1.23a2.961,2.961,0,0,0,.185,1.153V0ZM44.922-.686a1.581,1.581,0,0,0,.8-.219,1.324,1.324,0,0,0,.55-.569v-1.08h-.705q-1.654,0-1.654.968a.819.819,0,0,0,.282.661A1.084,1.084,0,0,0,44.922-.686ZM49.562,0h-.9V-7.47h.9Zm2.417,0h-.9V-5.262h.9Zm-.973-6.658a.537.537,0,0,1,.134-.37.5.5,0,0,1,.4-.151.51.51,0,0,1,.4.151.531.531,0,0,1,.136.37.514.514,0,0,1-.136.365.519.519,0,0,1-.4.146.511.511,0,0,1-.4-.146A.519.519,0,0,1,51.006-6.658ZM54.264-.734h3.078V0H53.165V-.661l2.9-3.857h-2.86v-.744H57.2v.637ZM61.6,0a1.89,1.89,0,0,1-.126-.554,2.007,2.007,0,0,1-1.5.652A1.857,1.857,0,0,1,58.7-.343a1.424,1.424,0,0,1-.5-1.116,1.488,1.488,0,0,1,.625-1.277,2.946,2.946,0,0,1,1.758-.455h.875V-3.6a1.01,1.01,0,0,0-.282-.751,1.134,1.134,0,0,0-.832-.28,1.312,1.312,0,0,0-.807.243.717.717,0,0,0-.326.588h-.9a1.242,1.242,0,0,1,.28-.761,1.909,1.909,0,0,1,.759-.581A2.552,2.552,0,0,1,60.4-5.359a2.08,2.08,0,0,1,1.425.455,1.64,1.64,0,0,1,.535,1.252V-1.23a2.961,2.961,0,0,0,.185,1.153V0ZM60.11-.686a1.581,1.581,0,0,0,.8-.219,1.324,1.324,0,0,0,.55-.569v-1.08h-.705q-1.654,0-1.654.968a.819.819,0,0,0,.282.661A1.084,1.084,0,0,0,60.11-.686Zm3.443-1.989a3.083,3.083,0,0,1,.574-1.948,1.815,1.815,0,0,1,1.5-.737,1.825,1.825,0,0,1,1.464.632V-7.47h.9V0h-.827l-.044-.564A1.832,1.832,0,0,1,65.62.1,1.8,1.8,0,0,1,64.13-.652a3.118,3.118,0,0,1-.576-1.955Zm.9.1a2.334,2.334,0,0,0,.37,1.4,1.2,1.2,0,0,0,1.021.506,1.313,1.313,0,0,0,1.25-.768V-3.852a1.323,1.323,0,0,0-1.24-.744,1.2,1.2,0,0,0-1.031.511A2.57,2.57,0,0,0,64.453-2.573Zm4.7-.107a3.108,3.108,0,0,1,.3-1.391,2.267,2.267,0,0,1,.846-.953,2.3,2.3,0,0,1,1.238-.336,2.219,2.219,0,0,1,1.739.744,2.863,2.863,0,0,1,.664,1.979v.063a3.135,3.135,0,0,1-.294,1.379,2.234,2.234,0,0,1-.841.951A2.33,2.33,0,0,1,71.549.1a2.214,2.214,0,0,1-1.734-.744,2.848,2.848,0,0,1-.664-1.97Zm.9.107a2.251,2.251,0,0,0,.406,1.405,1.3,1.3,0,0,0,1.087.53,1.292,1.292,0,0,0,1.089-.537,2.462,2.462,0,0,0,.4-1.505,2.247,2.247,0,0,0-.411-1.4,1.306,1.306,0,0,0-1.092-.537,1.292,1.292,0,0,0-1.075.53A2.443,2.443,0,0,0,70.056-2.573Zm11.925,0a3.151,3.151,0,0,1-.55,1.936A1.761,1.761,0,0,1,79.943.1a1.93,1.93,0,0,1-1.508-.608V2.023h-.9V-5.262h.822l.044.584a1.853,1.853,0,0,1,1.527-.681,1.794,1.794,0,0,1,1.5.715,3.185,3.185,0,0,1,.552,1.989Zm-.9-.1A2.325,2.325,0,0,0,80.7-4.08,1.222,1.222,0,0,0,79.661-4.6a1.323,1.323,0,0,0-1.226.725v2.514a1.325,1.325,0,0,0,1.235.72A1.216,1.216,0,0,0,80.7-1.15,2.538,2.538,0,0,0,81.081-2.675Zm1.8,0a3.108,3.108,0,0,1,.3-1.391,2.267,2.267,0,0,1,.846-.953,2.3,2.3,0,0,1,1.238-.336,2.219,2.219,0,0,1,1.739.744,2.863,2.863,0,0,1,.664,1.979v.063a3.135,3.135,0,0,1-.294,1.379,2.234,2.234,0,0,1-.841.951A2.33,2.33,0,0,1,85.283.1a2.214,2.214,0,0,1-1.734-.744,2.848,2.848,0,0,1-.664-1.97Zm.9.107A2.251,2.251,0,0,0,84.2-1.167a1.3,1.3,0,0,0,1.087.53,1.292,1.292,0,0,0,1.089-.537,2.462,2.462,0,0,0,.4-1.505,2.247,2.247,0,0,0-.411-1.4,1.306,1.306,0,0,0-1.092-.537,1.292,1.292,0,0,0-1.075.53A2.443,2.443,0,0,0,83.789-2.573Zm7.558-1.882a2.7,2.7,0,0,0-.443-.034,1.186,1.186,0,0,0-1.2.754V0h-.9V-5.262h.875l.015.608a1.4,1.4,0,0,1,1.255-.705.919.919,0,0,1,.4.068Zm.8,3.983a.563.563,0,0,1,.139-.389.528.528,0,0,1,.416-.156.544.544,0,0,1,.421.156.552.552,0,0,1,.143.389A.522.522,0,0,1,93.12-.1.554.554,0,0,1,92.7.053.537.537,0,0,1,92.283-.1.532.532,0,0,1,92.145-.472Zm0-4.294a.563.563,0,0,1,.139-.389.528.528,0,0,1,.416-.156.544.544,0,0,1,.421.156.552.552,0,0,1,.143.389.522.522,0,0,1-.143.374.554.554,0,0,1-.421.151.537.537,0,0,1-.416-.151A.532.532,0,0,1,92.149-4.766Z" transform="translate(2000.69 -571.953)" fill="#040405"/>
    <path id="Trazado_209101" data-name="Trazado 209101" d="M0,0H251.88V454.32H0Z" transform="translate(1992.967 -693.872)" fill="none"/>
    <path id="Trazado_209102" data-name="Trazado 209102" d="M4.3-1.858a.749.749,0,0,0-.292-.635,3.827,3.827,0,0,0-1.05-.467,7.447,7.447,0,0,1-1.2-.484A1.963,1.963,0,0,1,.554-5.2,1.71,1.71,0,0,1,.878-6.223a2.11,2.11,0,0,1,.929-.7,3.5,3.5,0,0,1,1.359-.253A3.182,3.182,0,0,1,4.518-6.9a2.153,2.153,0,0,1,.922.776A2.03,2.03,0,0,1,5.768-4.99H4.309A.955.955,0,0,0,4-5.746a1.259,1.259,0,0,0-.861-.27,1.346,1.346,0,0,0-.832.226.713.713,0,0,0-.3.6.683.683,0,0,0,.348.579,3.929,3.929,0,0,0,1.024.438A4.423,4.423,0,0,1,5.2-3.249a1.85,1.85,0,0,1,.569,1.381,1.7,1.7,0,0,1-.7,1.442A3.045,3.045,0,0,1,3.2.1,3.616,3.616,0,0,1,1.712-.2,2.355,2.355,0,0,1,.688-1.021,2.1,2.1,0,0,1,.336-2.227H1.8q0,1.172,1.4,1.172a1.362,1.362,0,0,0,.812-.212A.688.688,0,0,0,4.3-1.858Zm4.041-4.7v1.294h.9v1.031h-.9V-1.6a.627.627,0,0,0,.112.418.562.562,0,0,0,.428.126A2.241,2.241,0,0,0,9.3-1.094V-.029A2.893,2.893,0,0,1,8.448.1,1.342,1.342,0,0,1,6.94-1.4V-4.231H6.172V-5.262H6.94V-6.556ZM9.663-2.68a3.121,3.121,0,0,1,.3-1.4,2.207,2.207,0,0,1,.868-.948,2.533,2.533,0,0,1,1.316-.336,2.4,2.4,0,0,1,1.739.652,2.615,2.615,0,0,1,.751,1.77l.01.36a2.75,2.75,0,0,1-.676,1.943A2.35,2.35,0,0,1,12.158.1a2.361,2.361,0,0,1-1.816-.729,2.8,2.8,0,0,1-.678-1.984Zm1.405.1a1.967,1.967,0,0,0,.282,1.147.931.931,0,0,0,.807.4.933.933,0,0,0,.8-.392,2.152,2.152,0,0,0,.287-1.254,1.947,1.947,0,0,0-.287-1.14.933.933,0,0,0-.807-.4.917.917,0,0,0-.8.4A2.189,2.189,0,0,0,11.069-2.58ZM17.7-1.036a.922.922,0,0,0,.632-.214.75.75,0,0,0,.253-.569h1.318a1.8,1.8,0,0,1-.292.98,1.925,1.925,0,0,1-.785.691,2.458,2.458,0,0,1-1.1.246,2.284,2.284,0,0,1-1.78-.717A2.839,2.839,0,0,1,15.3-2.6v-.092a2.806,2.806,0,0,1,.647-1.94,2.258,2.258,0,0,1,1.775-.725A2.213,2.213,0,0,1,19.3-4.8a1.989,1.989,0,0,1,.605,1.5H18.587a.966.966,0,0,0-.253-.667.843.843,0,0,0-.642-.257.846.846,0,0,0-.742.358,2.075,2.075,0,0,0-.25,1.162v.146a2.1,2.1,0,0,0,.248,1.169A.857.857,0,0,0,17.7-1.036Zm4.917-1.075-.506.506V0H20.708V-7.47h1.405v4.139l.272-.35,1.347-1.581H25.42l-1.9,2.193L25.586,0H23.971Zm10.626-.472a3.156,3.156,0,0,1-.552,1.948A1.77,1.77,0,0,1,31.2.1a1.639,1.639,0,0,1-1.289-.554v2.48H28.509V-5.262h1.3l.049.516a1.652,1.652,0,0,1,1.333-.613,1.782,1.782,0,0,1,1.512.72,3.241,3.241,0,0,1,.54,1.984Zm-1.405-.1a2.071,2.071,0,0,0-.26-1.133.847.847,0,0,0-.756-.4.92.92,0,0,0-.909.506v2.154a.936.936,0,0,0,.919.52Q31.84-1.036,31.84-2.685Zm5.233-1.26a3.818,3.818,0,0,0-.506-.039,1.029,1.029,0,0,0-1.046.54V0H34.116V-5.262h1.328l.039.627a1.3,1.3,0,0,1,1.172-.725,1.473,1.473,0,0,1,.438.063Zm.282,1.264a3.121,3.121,0,0,1,.3-1.4,2.207,2.207,0,0,1,.868-.948,2.533,2.533,0,0,1,1.316-.336,2.4,2.4,0,0,1,1.739.652,2.615,2.615,0,0,1,.751,1.77l.01.36a2.75,2.75,0,0,1-.676,1.943A2.35,2.35,0,0,1,39.85.1a2.361,2.361,0,0,1-1.816-.729,2.8,2.8,0,0,1-.678-1.984Zm1.405.1a1.967,1.967,0,0,0,.282,1.147.931.931,0,0,0,.807.4.933.933,0,0,0,.8-.392,2.152,2.152,0,0,0,.287-1.254,1.947,1.947,0,0,0-.287-1.14.933.933,0,0,0-.807-.4.917.917,0,0,0-.8.4A2.189,2.189,0,0,0,38.76-2.58Zm4.226-.09a3.171,3.171,0,0,1,.552-1.96,1.791,1.791,0,0,1,1.51-.729,1.612,1.612,0,0,1,1.269.574V-7.47h1.41V0H46.459l-.068-.559A1.654,1.654,0,0,1,45.039.1a1.786,1.786,0,0,1-1.491-.732A3.273,3.273,0,0,1,42.987-2.67Zm1.405.1A2.077,2.077,0,0,0,44.65-1.43a.84.84,0,0,0,.749.395.94.94,0,0,0,.919-.55v-2.08a.927.927,0,0,0-.909-.55Q44.392-4.216,44.392-2.565Zm7.577,2.03A1.763,1.763,0,0,1,50.529.1a1.662,1.662,0,0,1-1.291-.486,2.076,2.076,0,0,1-.455-1.425V-5.262h1.405v3.4q0,.823.749.823a1.015,1.015,0,0,0,.982-.5v-3.73h1.41V0H52.008Zm4.61-.5a.922.922,0,0,0,.632-.214.75.75,0,0,0,.253-.569h1.318a1.8,1.8,0,0,1-.292.98,1.925,1.925,0,0,1-.785.691A2.458,2.458,0,0,1,56.6.1a2.284,2.284,0,0,1-1.78-.717A2.839,2.839,0,0,1,54.172-2.6v-.092a2.806,2.806,0,0,1,.647-1.94,2.258,2.258,0,0,1,1.775-.725,2.213,2.213,0,0,1,1.583.562,1.989,1.989,0,0,1,.605,1.5H57.465a.966.966,0,0,0-.253-.667.843.843,0,0,0-.642-.257.846.846,0,0,0-.742.358,2.075,2.075,0,0,0-.25,1.162v.146a2.1,2.1,0,0,0,.248,1.169A.857.857,0,0,0,56.579-1.036Zm4.688-5.52v1.294h.9v1.031h-.9V-1.6a.627.627,0,0,0,.112.418.562.562,0,0,0,.428.126,2.241,2.241,0,0,0,.413-.034V-.029A2.893,2.893,0,0,1,61.37.1,1.342,1.342,0,0,1,59.862-1.4V-4.231h-.768V-5.262h.768V-6.556ZM62.586-2.68a3.121,3.121,0,0,1,.3-1.4,2.207,2.207,0,0,1,.868-.948,2.533,2.533,0,0,1,1.316-.336,2.4,2.4,0,0,1,1.739.652,2.615,2.615,0,0,1,.751,1.77l.01.36a2.75,2.75,0,0,1-.676,1.943A2.35,2.35,0,0,1,65.08.1a2.361,2.361,0,0,1-1.816-.729,2.8,2.8,0,0,1-.678-1.984Zm1.405.1a1.967,1.967,0,0,0,.282,1.147.931.931,0,0,0,.807.4.933.933,0,0,0,.8-.392,2.152,2.152,0,0,0,.287-1.254,1.947,1.947,0,0,0-.287-1.14.933.933,0,0,0-.807-.4.917.917,0,0,0-.8.4A2.189,2.189,0,0,0,63.991-2.58ZM68.5-.691a.708.708,0,0,1,.226-.545.8.8,0,0,1,.567-.209.809.809,0,0,1,.571.209.708.708,0,0,1,.226.545.7.7,0,0,1-.224.537A.812.812,0,0,1,69.3.053a.806.806,0,0,1-.569-.207A.7.7,0,0,1,68.5-.691Zm0-3.983a.708.708,0,0,1,.226-.545.8.8,0,0,1,.567-.209.809.809,0,0,1,.571.209.708.708,0,0,1,.226.545.7.7,0,0,1-.224.537.812.812,0,0,1-.574.207.806.806,0,0,1-.569-.207A.7.7,0,0,1,68.5-4.674Z" transform="translate(2000.69 -552.75)" fill="#040405"/>
    <path id="Trazado_209103" data-name="Trazado 209103" d="M0,0H251.88V454.32H0Z" transform="translate(1992.967 -693.872)" fill="none"/>
    <path id="Trazado_209104" data-name="Trazado 209104" d="M4.727-3.127H1.756V0H.822V-7.081H5.209v.764H1.756v2.427H4.727ZM8.268.1a2.3,2.3,0,0,1-1.741-.7,2.608,2.608,0,0,1-.671-1.88V-2.65a3.158,3.158,0,0,1,.3-1.4,2.333,2.333,0,0,1,.836-.963,2.1,2.1,0,0,1,1.165-.348,1.971,1.971,0,0,1,1.6.676,2.927,2.927,0,0,1,.569,1.936v.374H6.755A1.87,1.87,0,0,0,7.21-1.116a1.429,1.429,0,0,0,1.106.479,1.567,1.567,0,0,0,.807-.195A2.028,2.028,0,0,0,9.7-1.347l.55.428A2.21,2.21,0,0,1,8.268.1ZM8.156-4.62a1.2,1.2,0,0,0-.914.4,1.927,1.927,0,0,0-.457,1.111H9.42v-.068a1.714,1.714,0,0,0-.37-1.063A1.13,1.13,0,0,0,8.156-4.62ZM13.471-.637a1.3,1.3,0,0,0,.841-.292,1.027,1.027,0,0,0,.4-.729h.851a1.632,1.632,0,0,1-.311.861,2.05,2.05,0,0,1-.766.652A2.21,2.21,0,0,1,13.471.1,2.168,2.168,0,0,1,11.762-.62a2.857,2.857,0,0,1-.635-1.962v-.151A3.168,3.168,0,0,1,11.409-4.1a2.148,2.148,0,0,1,.81-.929,2.3,2.3,0,0,1,1.247-.331,2.11,2.11,0,0,1,1.471.53,1.9,1.9,0,0,1,.625,1.376h-.851a1.24,1.24,0,0,0-.387-.839,1.2,1.2,0,0,0-.858-.328,1.259,1.259,0,0,0-1.063.494A2.318,2.318,0,0,0,12.027-2.7v.17a2.272,2.272,0,0,0,.374,1.4A1.265,1.265,0,0,0,13.471-.637Zm4-3.988a1.913,1.913,0,0,1,1.556-.734q1.668,0,1.683,1.882V0h-.9V-3.482a1.211,1.211,0,0,0-.26-.841,1.043,1.043,0,0,0-.8-.272,1.3,1.3,0,0,0-.768.233,1.585,1.585,0,0,0-.516.613V0h-.9V-7.47h.9ZM25.309,0a1.89,1.89,0,0,1-.126-.554,2.007,2.007,0,0,1-1.5.652,1.857,1.857,0,0,1-1.277-.44,1.424,1.424,0,0,1-.5-1.116,1.488,1.488,0,0,1,.625-1.277,2.946,2.946,0,0,1,1.758-.455h.875V-3.6a1.01,1.01,0,0,0-.282-.751,1.134,1.134,0,0,0-.832-.28,1.312,1.312,0,0,0-.807.243.717.717,0,0,0-.326.588h-.9a1.242,1.242,0,0,1,.28-.761,1.909,1.909,0,0,1,.759-.581,2.552,2.552,0,0,1,1.053-.214,2.08,2.08,0,0,1,1.425.455,1.64,1.64,0,0,1,.535,1.252V-1.23a2.961,2.961,0,0,0,.185,1.153V0ZM23.815-.686a1.581,1.581,0,0,0,.8-.219,1.324,1.324,0,0,0,.55-.569v-1.08h-.705q-1.654,0-1.654.968a.819.819,0,0,0,.282.661A1.084,1.084,0,0,0,23.815-.686Zm3.633.214a.563.563,0,0,1,.139-.389A.528.528,0,0,1,28-1.016a.544.544,0,0,1,.421.156.552.552,0,0,1,.143.389.522.522,0,0,1-.143.374A.554.554,0,0,1,28,.053.537.537,0,0,1,27.587-.1.532.532,0,0,1,27.448-.472Zm0-4.294a.563.563,0,0,1,.139-.389.528.528,0,0,1,.416-.156.544.544,0,0,1,.421.156.552.552,0,0,1,.143.389.522.522,0,0,1-.143.374.554.554,0,0,1-.421.151.537.537,0,0,1-.416-.151A.532.532,0,0,1,27.453-4.766Z" transform="translate(2000.69 -533.555)" fill="#040405"/>
    <path id="Trazado_209105" data-name="Trazado 209105" d="M0,0H251.88V454.32H0Z" transform="translate(1992.967 -693.872)" fill="none"/>
    <path id="Trazado_209106" data-name="Trazado 209106" d="M6.264,0H5.325V-3.273H1.756V0H.822V-7.081h.934v3.044h3.57V-7.081h.939ZM7.543-2.68a3.108,3.108,0,0,1,.3-1.391,2.267,2.267,0,0,1,.846-.953,2.3,2.3,0,0,1,1.238-.336,2.219,2.219,0,0,1,1.739.744,2.863,2.863,0,0,1,.664,1.979v.063a3.135,3.135,0,0,1-.294,1.379,2.234,2.234,0,0,1-.841.951A2.33,2.33,0,0,1,9.941.1,2.214,2.214,0,0,1,8.207-.647a2.848,2.848,0,0,1-.664-1.97Zm.9.107a2.251,2.251,0,0,0,.406,1.405,1.3,1.3,0,0,0,1.087.53,1.292,1.292,0,0,0,1.089-.537,2.462,2.462,0,0,0,.4-1.505,2.247,2.247,0,0,0-.411-1.4A1.306,1.306,0,0,0,9.931-4.62a1.292,1.292,0,0,0-1.075.53A2.443,2.443,0,0,0,8.448-2.573Zm7.558-1.882a2.7,2.7,0,0,0-.443-.034,1.186,1.186,0,0,0-1.2.754V0h-.9V-5.262h.875l.015.608a1.4,1.4,0,0,1,1.255-.705.919.919,0,0,1,.4.068ZM19.886,0a1.89,1.89,0,0,1-.126-.554,2.007,2.007,0,0,1-1.5.652,1.857,1.857,0,0,1-1.277-.44,1.424,1.424,0,0,1-.5-1.116,1.488,1.488,0,0,1,.625-1.277A2.946,2.946,0,0,1,18.87-3.19h.875V-3.6a1.01,1.01,0,0,0-.282-.751,1.134,1.134,0,0,0-.832-.28,1.312,1.312,0,0,0-.807.243A.717.717,0,0,0,17.5-3.8h-.9a1.242,1.242,0,0,1,.28-.761,1.909,1.909,0,0,1,.759-.581,2.552,2.552,0,0,1,1.053-.214A2.08,2.08,0,0,1,20.11-4.9a1.64,1.64,0,0,1,.535,1.252V-1.23a2.961,2.961,0,0,0,.185,1.153V0ZM18.393-.686A1.581,1.581,0,0,0,19.2-.9a1.324,1.324,0,0,0,.55-.569v-1.08H19.04q-1.654,0-1.654.968a.819.819,0,0,0,.282.661A1.084,1.084,0,0,0,18.393-.686Zm3.633.214a.563.563,0,0,1,.139-.389.528.528,0,0,1,.416-.156A.544.544,0,0,1,23-.861a.552.552,0,0,1,.143.389A.522.522,0,0,1,23-.1a.554.554,0,0,1-.421.151A.537.537,0,0,1,22.164-.1.532.532,0,0,1,22.026-.472Zm0-4.294a.563.563,0,0,1,.139-.389.528.528,0,0,1,.416-.156.544.544,0,0,1,.421.156.552.552,0,0,1,.143.389.522.522,0,0,1-.143.374.554.554,0,0,1-.421.151.537.537,0,0,1-.416-.151A.532.532,0,0,1,22.031-4.766Z" transform="translate(2000.69 -514.352)" fill="#040405"/>
    <path id="Trazado_209107" data-name="Trazado 209107" d="M0,0H251.88V454.32H0Z" transform="translate(1992.967 -693.872)" fill="none"/>
    <path id="Trazado_209108" data-name="Trazado 209108" d="M1.756-2.772V0H.822V-7.081H3.433a2.624,2.624,0,0,1,1.821.593,2.011,2.011,0,0,1,.659,1.571,1.985,1.985,0,0,1-.644,1.588,2.741,2.741,0,0,1-1.846.557Zm0-.764H3.433a1.678,1.678,0,0,0,1.148-.353,1.292,1.292,0,0,0,.4-1.021,1.334,1.334,0,0,0-.4-1.013,1.572,1.572,0,0,0-1.094-.395H1.756ZM9.085.1a2.3,2.3,0,0,1-1.741-.7,2.608,2.608,0,0,1-.671-1.88V-2.65a3.158,3.158,0,0,1,.3-1.4,2.333,2.333,0,0,1,.836-.963,2.1,2.1,0,0,1,1.165-.348,1.971,1.971,0,0,1,1.6.676,2.927,2.927,0,0,1,.569,1.936v.374H7.572a1.87,1.87,0,0,0,.455,1.257,1.429,1.429,0,0,0,1.106.479,1.567,1.567,0,0,0,.807-.195,2.028,2.028,0,0,0,.579-.516l.55.428A2.21,2.21,0,0,1,9.085.1ZM8.973-4.62a1.2,1.2,0,0,0-.914.4A1.927,1.927,0,0,0,7.6-3.112h2.636v-.068a1.714,1.714,0,0,0-.37-1.063A1.13,1.13,0,0,0,8.973-4.62ZM15.242-1.4a.662.662,0,0,0-.275-.567,2.645,2.645,0,0,0-.958-.348,4.53,4.53,0,0,1-1.085-.35,1.543,1.543,0,0,1-.593-.486,1.163,1.163,0,0,1-.192-.671,1.365,1.365,0,0,1,.547-1.094,2.137,2.137,0,0,1,1.4-.447,2.2,2.2,0,0,1,1.452.462,1.467,1.467,0,0,1,.557,1.182h-.9a.812.812,0,0,0-.314-.637,1.175,1.175,0,0,0-.79-.267,1.23,1.23,0,0,0-.768.214.674.674,0,0,0-.277.559.546.546,0,0,0,.258.491,3.171,3.171,0,0,0,.931.316,4.853,4.853,0,0,1,1.092.36,1.593,1.593,0,0,1,.62.5,1.238,1.238,0,0,1,.2.717,1.347,1.347,0,0,1-.564,1.131A2.366,2.366,0,0,1,14.113.1a2.65,2.65,0,0,1-1.119-.224,1.819,1.819,0,0,1-.761-.625,1.506,1.506,0,0,1-.275-.868h.9a.931.931,0,0,0,.362.717,1.406,1.406,0,0,0,.892.265,1.451,1.451,0,0,0,.819-.207A.635.635,0,0,0,15.242-1.4ZM17.075-2.68a3.108,3.108,0,0,1,.3-1.391,2.267,2.267,0,0,1,.846-.953,2.3,2.3,0,0,1,1.238-.336,2.219,2.219,0,0,1,1.739.744,2.863,2.863,0,0,1,.664,1.979v.063a3.135,3.135,0,0,1-.294,1.379,2.234,2.234,0,0,1-.841.951A2.33,2.33,0,0,1,19.473.1a2.214,2.214,0,0,1-1.734-.744,2.848,2.848,0,0,1-.664-1.97Zm.9.107a2.251,2.251,0,0,0,.406,1.405,1.3,1.3,0,0,0,1.087.53,1.292,1.292,0,0,0,1.089-.537,2.462,2.462,0,0,0,.4-1.505,2.247,2.247,0,0,0-.411-1.4,1.306,1.306,0,0,0-1.092-.537,1.292,1.292,0,0,0-1.075.53A2.443,2.443,0,0,0,17.98-2.573Zm4.985,2.1A.563.563,0,0,1,23.1-.861a.528.528,0,0,1,.416-.156.544.544,0,0,1,.421.156.552.552,0,0,1,.143.389A.522.522,0,0,1,23.94-.1a.554.554,0,0,1-.421.151A.537.537,0,0,1,23.1-.1.532.532,0,0,1,22.964-.472Zm0-4.294a.563.563,0,0,1,.139-.389.528.528,0,0,1,.416-.156.544.544,0,0,1,.421.156.552.552,0,0,1,.143.389.522.522,0,0,1-.143.374.554.554,0,0,1-.421.151.537.537,0,0,1-.416-.151A.532.532,0,0,1,22.969-4.766Z" transform="translate(2080.058 -495.156)" fill="#040405"/>
    <path id="Trazado_209109" data-name="Trazado 209109" d="M0,0H251.88V454.32H0Z" transform="translate(1992.967 -693.872)" fill="none"/>
    <path id="Trazado_209110" data-name="Trazado 209110" d="M0,0H251.88V454.32H0Z" transform="translate(1992.967 -693.872)" fill="none"/>
    <path id="Trazado_209111" data-name="Trazado 209111" d="M3.166-1.24,5.189-7.081H6.21L3.584,0H2.757L.136-7.081H1.153Zm3.39-1.44a3.108,3.108,0,0,1,.3-1.391,2.267,2.267,0,0,1,.846-.953,2.3,2.3,0,0,1,1.238-.336,2.219,2.219,0,0,1,1.739.744,2.863,2.863,0,0,1,.664,1.979v.063a3.135,3.135,0,0,1-.294,1.379,2.234,2.234,0,0,1-.841.951A2.33,2.33,0,0,1,8.953.1,2.214,2.214,0,0,1,7.22-.647a2.848,2.848,0,0,1-.664-1.97Zm.9.107a2.251,2.251,0,0,0,.406,1.405,1.3,1.3,0,0,0,1.087.53,1.292,1.292,0,0,0,1.089-.537,2.462,2.462,0,0,0,.4-1.505,2.247,2.247,0,0,0-.411-1.4A1.306,1.306,0,0,0,8.944-4.62a1.292,1.292,0,0,0-1.075.53A2.443,2.443,0,0,0,7.46-2.573ZM13.452,0h-.9V-7.47h.9ZM18.14-.52A1.911,1.911,0,0,1,16.6.1a1.636,1.636,0,0,1-1.281-.489,2.116,2.116,0,0,1-.445-1.447V-5.262h.9v3.4q0,1.2.973,1.2a1.347,1.347,0,0,0,1.371-.768V-5.262h.9V0h-.856Zm3.088-4.742.024.584a1.943,1.943,0,0,1,1.561-.681,1.5,1.5,0,0,1,1.5.846A1.993,1.993,0,0,1,25-5.126a2.018,2.018,0,0,1,.995-.233q1.731,0,1.761,1.833V0h-.9V-3.472a1.208,1.208,0,0,0-.258-.844,1.135,1.135,0,0,0-.866-.28,1.193,1.193,0,0,0-.832.3,1.213,1.213,0,0,0-.384.8V0h-.9V-3.448A1,1,0,0,0,22.488-4.6a1.2,1.2,0,0,0-1.211.754V0h-.9V-5.262ZM31.3.1a2.3,2.3,0,0,1-1.741-.7,2.608,2.608,0,0,1-.671-1.88V-2.65a3.158,3.158,0,0,1,.3-1.4,2.333,2.333,0,0,1,.836-.963,2.1,2.1,0,0,1,1.165-.348,1.971,1.971,0,0,1,1.6.676,2.927,2.927,0,0,1,.569,1.936v.374H29.783a1.87,1.87,0,0,0,.455,1.257,1.429,1.429,0,0,0,1.106.479,1.567,1.567,0,0,0,.807-.195,2.028,2.028,0,0,0,.579-.516l.55.428A2.21,2.21,0,0,1,31.3.1ZM31.183-4.62a1.2,1.2,0,0,0-.914.4,1.927,1.927,0,0,0-.457,1.111h2.636v-.068a1.714,1.714,0,0,0-.37-1.063A1.13,1.13,0,0,0,31.183-4.62Zm4.056-.642.029.661a1.918,1.918,0,0,1,1.576-.759q1.668,0,1.683,1.882V0h-.9V-3.482a1.211,1.211,0,0,0-.26-.841,1.043,1.043,0,0,0-.8-.272,1.3,1.3,0,0,0-.768.233,1.585,1.585,0,0,0-.516.613V0h-.9V-5.262Zm4.615,4.79a.563.563,0,0,1,.139-.389.528.528,0,0,1,.416-.156.544.544,0,0,1,.421.156.552.552,0,0,1,.143.389A.522.522,0,0,1,40.83-.1a.554.554,0,0,1-.421.151A.537.537,0,0,1,39.993-.1.532.532,0,0,1,39.855-.472Zm0-4.294A.563.563,0,0,1,40-5.155a.528.528,0,0,1,.416-.156.544.544,0,0,1,.421.156.552.552,0,0,1,.143.389.522.522,0,0,1-.143.374.554.554,0,0,1-.421.151A.537.537,0,0,1,40-4.392.532.532,0,0,1,39.859-4.766Z" transform="translate(2000.69 -495.156)" fill="#040405"/>
    <path id="Trazado_209112" data-name="Trazado 209112" d="M0,0H251.88V454.32H0Z" transform="translate(1992.967 -693.872)" fill="none"/>
    <path id="Trazado_209113" data-name="Trazado 209113" d="M0,0H251.88V454.32H0Z" transform="translate(1992.967 -693.872)" fill="none"/>
    <path id="Trazado_209114" data-name="Trazado 209114" d="M6.03-2.247A2.605,2.605,0,0,1,5.2-.513,2.717,2.717,0,0,1,3.346.1,2.5,2.5,0,0,1,1.335-.8,3.62,3.62,0,0,1,.579-3.21v-.681A4.034,4.034,0,0,1,.931-5.627a2.634,2.634,0,0,1,1-1.15,2.783,2.783,0,0,1,1.5-.4,2.559,2.559,0,0,1,1.809.63A2.636,2.636,0,0,1,6.03-4.8H5.092a2.034,2.034,0,0,0-.528-1.229,1.6,1.6,0,0,0-1.136-.38,1.671,1.671,0,0,0-1.4.662,3.039,3.039,0,0,0-.508,1.884v.686A3.124,3.124,0,0,0,2-1.348a1.556,1.556,0,0,0,1.347.681A1.8,1.8,0,0,0,4.54-1.019a1.957,1.957,0,0,0,.552-1.228Zm.895-.433a3.108,3.108,0,0,1,.3-1.391,2.267,2.267,0,0,1,.846-.953,2.3,2.3,0,0,1,1.238-.336,2.219,2.219,0,0,1,1.739.744,2.863,2.863,0,0,1,.664,1.979v.063a3.135,3.135,0,0,1-.294,1.379,2.234,2.234,0,0,1-.841.951A2.33,2.33,0,0,1,9.323.1,2.214,2.214,0,0,1,7.589-.647a2.848,2.848,0,0,1-.664-1.97Zm.9.107a2.251,2.251,0,0,0,.406,1.405,1.3,1.3,0,0,0,1.087.53,1.292,1.292,0,0,0,1.089-.537,2.462,2.462,0,0,0,.4-1.505,2.247,2.247,0,0,0-.411-1.4A1.306,1.306,0,0,0,9.313-4.62a1.292,1.292,0,0,0-1.075.53A2.443,2.443,0,0,0,7.83-2.573Zm1.892-4.9h1.089l-1.3,1.43-.725,0Zm2.9,4.8A3.083,3.083,0,0,1,13.2-4.623a1.815,1.815,0,0,1,1.5-.737,1.825,1.825,0,0,1,1.464.632V-7.47h.9V0h-.827l-.044-.564a1.832,1.832,0,0,1-1.5.661A1.8,1.8,0,0,1,13.2-.652a3.118,3.118,0,0,1-.576-1.955Zm.9.1a2.334,2.334,0,0,0,.37,1.4,1.2,1.2,0,0,0,1.021.506,1.313,1.313,0,0,0,1.25-.768V-3.852a1.323,1.323,0,0,0-1.24-.744,1.2,1.2,0,0,0-1.031.511A2.57,2.57,0,0,0,13.525-2.573ZM19.439,0h-.9V-5.262h.9Zm-.973-6.658a.537.537,0,0,1,.134-.37.5.5,0,0,1,.4-.151.51.51,0,0,1,.4.151.531.531,0,0,1,.136.37.514.514,0,0,1-.136.365.519.519,0,0,1-.4.146.511.511,0,0,1-.4-.146A.519.519,0,0,1,18.466-6.658Zm2.2,3.983a3.093,3.093,0,0,1,.569-1.957,1.82,1.82,0,0,1,1.508-.727,1.81,1.81,0,0,1,1.5.681l.044-.584h.822V-.126a2.141,2.141,0,0,1-.605,1.61,2.234,2.234,0,0,1-1.627.588,2.706,2.706,0,0,1-1.114-.243,1.917,1.917,0,0,1-.832-.666L21.4.623a1.759,1.759,0,0,0,1.415.715,1.379,1.379,0,0,0,1.024-.37A1.413,1.413,0,0,0,24.2-.073V-.525A1.849,1.849,0,0,1,22.731.1a1.8,1.8,0,0,1-1.5-.744A3.252,3.252,0,0,1,20.664-2.675Zm.9.1a2.359,2.359,0,0,0,.365,1.4,1.185,1.185,0,0,0,1.021.508A1.318,1.318,0,0,0,24.2-1.44v-2.4a1.333,1.333,0,0,0-1.24-.754,1.2,1.2,0,0,0-1.026.511A2.57,2.57,0,0,0,21.569-2.573Zm4.659-.107a3.108,3.108,0,0,1,.3-1.391,2.267,2.267,0,0,1,.846-.953,2.3,2.3,0,0,1,1.238-.336,2.219,2.219,0,0,1,1.739.744,2.863,2.863,0,0,1,.664,1.979v.063a3.135,3.135,0,0,1-.294,1.379,2.234,2.234,0,0,1-.841.951A2.33,2.33,0,0,1,28.625.1a2.214,2.214,0,0,1-1.734-.744,2.848,2.848,0,0,1-.664-1.97Zm.9.107a2.251,2.251,0,0,0,.406,1.405,1.3,1.3,0,0,0,1.087.53,1.292,1.292,0,0,0,1.089-.537,2.462,2.462,0,0,0,.4-1.505,2.247,2.247,0,0,0-.411-1.4,1.306,1.306,0,0,0-1.092-.537,1.292,1.292,0,0,0-1.075.53A2.443,2.443,0,0,0,27.132-2.573ZM37.155-4.455a2.7,2.7,0,0,0-.443-.034,1.186,1.186,0,0,0-1.2.754V0h-.9V-5.262h.875l.015.608a1.4,1.4,0,0,1,1.255-.705.919.919,0,0,1,.4.068ZM40.073.1a2.3,2.3,0,0,1-1.741-.7,2.608,2.608,0,0,1-.671-1.88V-2.65a3.158,3.158,0,0,1,.3-1.4,2.333,2.333,0,0,1,.836-.963,2.1,2.1,0,0,1,1.165-.348,1.971,1.971,0,0,1,1.6.676,2.927,2.927,0,0,1,.569,1.936v.374H38.561a1.87,1.87,0,0,0,.455,1.257,1.429,1.429,0,0,0,1.106.479,1.567,1.567,0,0,0,.807-.195,2.028,2.028,0,0,0,.579-.516l.55.428A2.21,2.21,0,0,1,40.073.1ZM39.962-4.62a1.2,1.2,0,0,0-.914.4,1.927,1.927,0,0,0-.457,1.111h2.636v-.068a1.714,1.714,0,0,0-.37-1.063A1.13,1.13,0,0,0,39.962-4.62ZM46.415,0a1.89,1.89,0,0,1-.126-.554,2.007,2.007,0,0,1-1.5.652,1.857,1.857,0,0,1-1.277-.44,1.424,1.424,0,0,1-.5-1.116,1.488,1.488,0,0,1,.625-1.277A2.946,2.946,0,0,1,45.4-3.19h.875V-3.6a1.01,1.01,0,0,0-.282-.751,1.134,1.134,0,0,0-.832-.28,1.312,1.312,0,0,0-.807.243.717.717,0,0,0-.326.588h-.9a1.242,1.242,0,0,1,.28-.761,1.909,1.909,0,0,1,.759-.581,2.552,2.552,0,0,1,1.053-.214,2.08,2.08,0,0,1,1.425.455,1.64,1.64,0,0,1,.535,1.252V-1.23a2.961,2.961,0,0,0,.185,1.153V0ZM44.922-.686a1.581,1.581,0,0,0,.8-.219,1.324,1.324,0,0,0,.55-.569v-1.08h-.705q-1.654,0-1.654.968a.819.819,0,0,0,.282.661A1.084,1.084,0,0,0,44.922-.686ZM49.562,0h-.9V-7.47h.9Zm2.417,0h-.9V-5.262h.9Zm-.973-6.658a.537.537,0,0,1,.134-.37.5.5,0,0,1,.4-.151.51.51,0,0,1,.4.151.531.531,0,0,1,.136.37.514.514,0,0,1-.136.365.519.519,0,0,1-.4.146.511.511,0,0,1-.4-.146A.519.519,0,0,1,51.006-6.658ZM54.264-.734h3.078V0H53.165V-.661l2.9-3.857h-2.86v-.744H57.2v.637ZM61.6,0a1.89,1.89,0,0,1-.126-.554,2.007,2.007,0,0,1-1.5.652A1.857,1.857,0,0,1,58.7-.343a1.424,1.424,0,0,1-.5-1.116,1.488,1.488,0,0,1,.625-1.277,2.946,2.946,0,0,1,1.758-.455h.875V-3.6a1.01,1.01,0,0,0-.282-.751,1.134,1.134,0,0,0-.832-.28,1.312,1.312,0,0,0-.807.243.717.717,0,0,0-.326.588h-.9a1.242,1.242,0,0,1,.28-.761,1.909,1.909,0,0,1,.759-.581A2.552,2.552,0,0,1,60.4-5.359a2.08,2.08,0,0,1,1.425.455,1.64,1.64,0,0,1,.535,1.252V-1.23a2.961,2.961,0,0,0,.185,1.153V0ZM60.11-.686a1.581,1.581,0,0,0,.8-.219,1.324,1.324,0,0,0,.55-.569v-1.08h-.705q-1.654,0-1.654.968a.819.819,0,0,0,.282.661A1.084,1.084,0,0,0,60.11-.686Zm3.443-1.989a3.083,3.083,0,0,1,.574-1.948,1.815,1.815,0,0,1,1.5-.737,1.825,1.825,0,0,1,1.464.632V-7.47h.9V0h-.827l-.044-.564A1.832,1.832,0,0,1,65.62.1,1.8,1.8,0,0,1,64.13-.652a3.118,3.118,0,0,1-.576-1.955Zm.9.1a2.334,2.334,0,0,0,.37,1.4,1.2,1.2,0,0,0,1.021.506,1.313,1.313,0,0,0,1.25-.768V-3.852a1.323,1.323,0,0,0-1.24-.744,1.2,1.2,0,0,0-1.031.511A2.57,2.57,0,0,0,64.453-2.573Zm4.7-.107a3.108,3.108,0,0,1,.3-1.391,2.267,2.267,0,0,1,.846-.953,2.3,2.3,0,0,1,1.238-.336,2.219,2.219,0,0,1,1.739.744,2.863,2.863,0,0,1,.664,1.979v.063a3.135,3.135,0,0,1-.294,1.379,2.234,2.234,0,0,1-.841.951A2.33,2.33,0,0,1,71.549.1a2.214,2.214,0,0,1-1.734-.744,2.848,2.848,0,0,1-.664-1.97Zm.9.107a2.251,2.251,0,0,0,.406,1.405,1.3,1.3,0,0,0,1.087.53,1.292,1.292,0,0,0,1.089-.537,2.462,2.462,0,0,0,.4-1.505,2.247,2.247,0,0,0-.411-1.4,1.306,1.306,0,0,0-1.092-.537,1.292,1.292,0,0,0-1.075.53A2.443,2.443,0,0,0,70.056-2.573Zm11.925,0a3.151,3.151,0,0,1-.55,1.936A1.761,1.761,0,0,1,79.943.1a1.93,1.93,0,0,1-1.508-.608V2.023h-.9V-5.262h.822l.044.584a1.853,1.853,0,0,1,1.527-.681,1.794,1.794,0,0,1,1.5.715,3.185,3.185,0,0,1,.552,1.989Zm-.9-.1A2.325,2.325,0,0,0,80.7-4.08,1.222,1.222,0,0,0,79.661-4.6a1.323,1.323,0,0,0-1.226.725v2.514a1.325,1.325,0,0,0,1.235.72A1.216,1.216,0,0,0,80.7-1.15,2.538,2.538,0,0,0,81.081-2.675Zm1.8,0a3.108,3.108,0,0,1,.3-1.391,2.267,2.267,0,0,1,.846-.953,2.3,2.3,0,0,1,1.238-.336,2.219,2.219,0,0,1,1.739.744,2.863,2.863,0,0,1,.664,1.979v.063a3.135,3.135,0,0,1-.294,1.379,2.234,2.234,0,0,1-.841.951A2.33,2.33,0,0,1,85.283.1a2.214,2.214,0,0,1-1.734-.744,2.848,2.848,0,0,1-.664-1.97Zm.9.107A2.251,2.251,0,0,0,84.2-1.167a1.3,1.3,0,0,0,1.087.53,1.292,1.292,0,0,0,1.089-.537,2.462,2.462,0,0,0,.4-1.505,2.247,2.247,0,0,0-.411-1.4,1.306,1.306,0,0,0-1.092-.537,1.292,1.292,0,0,0-1.075.53A2.443,2.443,0,0,0,83.789-2.573Zm7.558-1.882a2.7,2.7,0,0,0-.443-.034,1.186,1.186,0,0,0-1.2.754V0h-.9V-5.262h.875l.015.608a1.4,1.4,0,0,1,1.255-.705.919.919,0,0,1,.4.068Zm.8,3.983a.563.563,0,0,1,.139-.389.528.528,0,0,1,.416-.156.544.544,0,0,1,.421.156.552.552,0,0,1,.143.389A.522.522,0,0,1,93.12-.1.554.554,0,0,1,92.7.053.537.537,0,0,1,92.283-.1.532.532,0,0,1,92.145-.472Zm0-4.294a.563.563,0,0,1,.139-.389.528.528,0,0,1,.416-.156.544.544,0,0,1,.421.156.552.552,0,0,1,.143.389.522.522,0,0,1-.143.374.554.554,0,0,1-.421.151.537.537,0,0,1-.416-.151A.532.532,0,0,1,92.149-4.766Z" transform="translate(2000.69 -463.953)" fill="#040405"/>
    <path id="Trazado_209115" data-name="Trazado 209115" d="M0,0H251.88V454.32H0Z" transform="translate(1992.967 -693.872)" fill="none"/>
    <path id="Trazado_209116" data-name="Trazado 209116" d="M4.3-1.858a.749.749,0,0,0-.292-.635,3.827,3.827,0,0,0-1.05-.467,7.447,7.447,0,0,1-1.2-.484A1.963,1.963,0,0,1,.554-5.2,1.71,1.71,0,0,1,.878-6.223a2.11,2.11,0,0,1,.929-.7,3.5,3.5,0,0,1,1.359-.253A3.182,3.182,0,0,1,4.518-6.9a2.153,2.153,0,0,1,.922.776A2.03,2.03,0,0,1,5.768-4.99H4.309A.955.955,0,0,0,4-5.746a1.259,1.259,0,0,0-.861-.27,1.346,1.346,0,0,0-.832.226.713.713,0,0,0-.3.6.683.683,0,0,0,.348.579,3.929,3.929,0,0,0,1.024.438A4.423,4.423,0,0,1,5.2-3.249a1.85,1.85,0,0,1,.569,1.381,1.7,1.7,0,0,1-.7,1.442A3.045,3.045,0,0,1,3.2.1,3.616,3.616,0,0,1,1.712-.2,2.355,2.355,0,0,1,.688-1.021,2.1,2.1,0,0,1,.336-2.227H1.8q0,1.172,1.4,1.172a1.362,1.362,0,0,0,.812-.212A.688.688,0,0,0,4.3-1.858Zm4.041-4.7v1.294h.9v1.031h-.9V-1.6a.627.627,0,0,0,.112.418.562.562,0,0,0,.428.126A2.241,2.241,0,0,0,9.3-1.094V-.029A2.893,2.893,0,0,1,8.448.1,1.342,1.342,0,0,1,6.94-1.4V-4.231H6.172V-5.262H6.94V-6.556ZM9.663-2.68a3.121,3.121,0,0,1,.3-1.4,2.207,2.207,0,0,1,.868-.948,2.533,2.533,0,0,1,1.316-.336,2.4,2.4,0,0,1,1.739.652,2.615,2.615,0,0,1,.751,1.77l.01.36a2.75,2.75,0,0,1-.676,1.943A2.35,2.35,0,0,1,12.158.1a2.361,2.361,0,0,1-1.816-.729,2.8,2.8,0,0,1-.678-1.984Zm1.405.1a1.967,1.967,0,0,0,.282,1.147.931.931,0,0,0,.807.4.933.933,0,0,0,.8-.392,2.152,2.152,0,0,0,.287-1.254,1.947,1.947,0,0,0-.287-1.14.933.933,0,0,0-.807-.4.917.917,0,0,0-.8.4A2.189,2.189,0,0,0,11.069-2.58ZM17.7-1.036a.922.922,0,0,0,.632-.214.75.75,0,0,0,.253-.569h1.318a1.8,1.8,0,0,1-.292.98,1.925,1.925,0,0,1-.785.691,2.458,2.458,0,0,1-1.1.246,2.284,2.284,0,0,1-1.78-.717A2.839,2.839,0,0,1,15.3-2.6v-.092a2.806,2.806,0,0,1,.647-1.94,2.258,2.258,0,0,1,1.775-.725A2.213,2.213,0,0,1,19.3-4.8a1.989,1.989,0,0,1,.605,1.5H18.587a.966.966,0,0,0-.253-.667.843.843,0,0,0-.642-.257.846.846,0,0,0-.742.358,2.075,2.075,0,0,0-.25,1.162v.146a2.1,2.1,0,0,0,.248,1.169A.857.857,0,0,0,17.7-1.036Zm4.917-1.075-.506.506V0H20.708V-7.47h1.405v4.139l.272-.35,1.347-1.581H25.42l-1.9,2.193L25.586,0H23.971Zm10.626-.472a3.156,3.156,0,0,1-.552,1.948A1.77,1.77,0,0,1,31.2.1a1.639,1.639,0,0,1-1.289-.554v2.48H28.509V-5.262h1.3l.049.516a1.652,1.652,0,0,1,1.333-.613,1.782,1.782,0,0,1,1.512.72,3.241,3.241,0,0,1,.54,1.984Zm-1.405-.1a2.071,2.071,0,0,0-.26-1.133.847.847,0,0,0-.756-.4.92.92,0,0,0-.909.506v2.154a.936.936,0,0,0,.919.52Q31.84-1.036,31.84-2.685Zm5.233-1.26a3.818,3.818,0,0,0-.506-.039,1.029,1.029,0,0,0-1.046.54V0H34.116V-5.262h1.328l.039.627a1.3,1.3,0,0,1,1.172-.725,1.473,1.473,0,0,1,.438.063Zm.282,1.264a3.121,3.121,0,0,1,.3-1.4,2.207,2.207,0,0,1,.868-.948,2.533,2.533,0,0,1,1.316-.336,2.4,2.4,0,0,1,1.739.652,2.615,2.615,0,0,1,.751,1.77l.01.36a2.75,2.75,0,0,1-.676,1.943A2.35,2.35,0,0,1,39.85.1a2.361,2.361,0,0,1-1.816-.729,2.8,2.8,0,0,1-.678-1.984Zm1.405.1a1.967,1.967,0,0,0,.282,1.147.931.931,0,0,0,.807.4.933.933,0,0,0,.8-.392,2.152,2.152,0,0,0,.287-1.254,1.947,1.947,0,0,0-.287-1.14.933.933,0,0,0-.807-.4.917.917,0,0,0-.8.4A2.189,2.189,0,0,0,38.76-2.58Zm4.226-.09a3.171,3.171,0,0,1,.552-1.96,1.791,1.791,0,0,1,1.51-.729,1.612,1.612,0,0,1,1.269.574V-7.47h1.41V0H46.459l-.068-.559A1.654,1.654,0,0,1,45.039.1a1.786,1.786,0,0,1-1.491-.732A3.273,3.273,0,0,1,42.987-2.67Zm1.405.1A2.077,2.077,0,0,0,44.65-1.43a.84.84,0,0,0,.749.395.94.94,0,0,0,.919-.55v-2.08a.927.927,0,0,0-.909-.55Q44.392-4.216,44.392-2.565Zm7.577,2.03A1.763,1.763,0,0,1,50.529.1a1.662,1.662,0,0,1-1.291-.486,2.076,2.076,0,0,1-.455-1.425V-5.262h1.405v3.4q0,.823.749.823a1.015,1.015,0,0,0,.982-.5v-3.73h1.41V0H52.008Zm4.61-.5a.922.922,0,0,0,.632-.214.75.75,0,0,0,.253-.569h1.318a1.8,1.8,0,0,1-.292.98,1.925,1.925,0,0,1-.785.691A2.458,2.458,0,0,1,56.6.1a2.284,2.284,0,0,1-1.78-.717A2.839,2.839,0,0,1,54.172-2.6v-.092a2.806,2.806,0,0,1,.647-1.94,2.258,2.258,0,0,1,1.775-.725,2.213,2.213,0,0,1,1.583.562,1.989,1.989,0,0,1,.605,1.5H57.465a.966.966,0,0,0-.253-.667.843.843,0,0,0-.642-.257.846.846,0,0,0-.742.358,2.075,2.075,0,0,0-.25,1.162v.146a2.1,2.1,0,0,0,.248,1.169A.857.857,0,0,0,56.579-1.036Zm4.688-5.52v1.294h.9v1.031h-.9V-1.6a.627.627,0,0,0,.112.418.562.562,0,0,0,.428.126,2.241,2.241,0,0,0,.413-.034V-.029A2.893,2.893,0,0,1,61.37.1,1.342,1.342,0,0,1,59.862-1.4V-4.231h-.768V-5.262h.768V-6.556ZM62.586-2.68a3.121,3.121,0,0,1,.3-1.4,2.207,2.207,0,0,1,.868-.948,2.533,2.533,0,0,1,1.316-.336,2.4,2.4,0,0,1,1.739.652,2.615,2.615,0,0,1,.751,1.77l.01.36a2.75,2.75,0,0,1-.676,1.943A2.35,2.35,0,0,1,65.08.1a2.361,2.361,0,0,1-1.816-.729,2.8,2.8,0,0,1-.678-1.984Zm1.405.1a1.967,1.967,0,0,0,.282,1.147.931.931,0,0,0,.807.4.933.933,0,0,0,.8-.392,2.152,2.152,0,0,0,.287-1.254,1.947,1.947,0,0,0-.287-1.14.933.933,0,0,0-.807-.4.917.917,0,0,0-.8.4A2.189,2.189,0,0,0,63.991-2.58ZM68.5-.691a.708.708,0,0,1,.226-.545.8.8,0,0,1,.567-.209.809.809,0,0,1,.571.209.708.708,0,0,1,.226.545.7.7,0,0,1-.224.537A.812.812,0,0,1,69.3.053a.806.806,0,0,1-.569-.207A.7.7,0,0,1,68.5-.691Zm0-3.983a.708.708,0,0,1,.226-.545.8.8,0,0,1,.567-.209.809.809,0,0,1,.571.209.708.708,0,0,1,.226.545.7.7,0,0,1-.224.537.812.812,0,0,1-.574.207.806.806,0,0,1-.569-.207A.7.7,0,0,1,68.5-4.674Z" transform="translate(2000.69 -444.742)" fill="#040405"/>
    <path id="Trazado_209117" data-name="Trazado 209117" d="M0,0H251.88V454.32H0Z" transform="translate(1992.967 -693.872)" fill="none"/>
    <path id="Trazado_209118" data-name="Trazado 209118" d="M4.727-3.127H1.756V0H.822V-7.081H5.209v.764H1.756v2.427H4.727ZM8.268.1a2.3,2.3,0,0,1-1.741-.7,2.608,2.608,0,0,1-.671-1.88V-2.65a3.158,3.158,0,0,1,.3-1.4,2.333,2.333,0,0,1,.836-.963,2.1,2.1,0,0,1,1.165-.348,1.971,1.971,0,0,1,1.6.676,2.927,2.927,0,0,1,.569,1.936v.374H6.755A1.87,1.87,0,0,0,7.21-1.116a1.429,1.429,0,0,0,1.106.479,1.567,1.567,0,0,0,.807-.195A2.028,2.028,0,0,0,9.7-1.347l.55.428A2.21,2.21,0,0,1,8.268.1ZM8.156-4.62a1.2,1.2,0,0,0-.914.4,1.927,1.927,0,0,0-.457,1.111H9.42v-.068a1.714,1.714,0,0,0-.37-1.063A1.13,1.13,0,0,0,8.156-4.62ZM13.471-.637a1.3,1.3,0,0,0,.841-.292,1.027,1.027,0,0,0,.4-.729h.851a1.632,1.632,0,0,1-.311.861,2.05,2.05,0,0,1-.766.652A2.21,2.21,0,0,1,13.471.1,2.168,2.168,0,0,1,11.762-.62a2.857,2.857,0,0,1-.635-1.962v-.151A3.168,3.168,0,0,1,11.409-4.1a2.148,2.148,0,0,1,.81-.929,2.3,2.3,0,0,1,1.247-.331,2.11,2.11,0,0,1,1.471.53,1.9,1.9,0,0,1,.625,1.376h-.851a1.24,1.24,0,0,0-.387-.839,1.2,1.2,0,0,0-.858-.328,1.259,1.259,0,0,0-1.063.494A2.318,2.318,0,0,0,12.027-2.7v.17a2.272,2.272,0,0,0,.374,1.4A1.265,1.265,0,0,0,13.471-.637Zm4-3.988a1.913,1.913,0,0,1,1.556-.734q1.668,0,1.683,1.882V0h-.9V-3.482a1.211,1.211,0,0,0-.26-.841,1.043,1.043,0,0,0-.8-.272,1.3,1.3,0,0,0-.768.233,1.585,1.585,0,0,0-.516.613V0h-.9V-7.47h.9ZM25.309,0a1.89,1.89,0,0,1-.126-.554,2.007,2.007,0,0,1-1.5.652,1.857,1.857,0,0,1-1.277-.44,1.424,1.424,0,0,1-.5-1.116,1.488,1.488,0,0,1,.625-1.277,2.946,2.946,0,0,1,1.758-.455h.875V-3.6a1.01,1.01,0,0,0-.282-.751,1.134,1.134,0,0,0-.832-.28,1.312,1.312,0,0,0-.807.243.717.717,0,0,0-.326.588h-.9a1.242,1.242,0,0,1,.28-.761,1.909,1.909,0,0,1,.759-.581,2.552,2.552,0,0,1,1.053-.214,2.08,2.08,0,0,1,1.425.455,1.64,1.64,0,0,1,.535,1.252V-1.23a2.961,2.961,0,0,0,.185,1.153V0ZM23.815-.686a1.581,1.581,0,0,0,.8-.219,1.324,1.324,0,0,0,.55-.569v-1.08h-.705q-1.654,0-1.654.968a.819.819,0,0,0,.282.661A1.084,1.084,0,0,0,23.815-.686Zm3.633.214a.563.563,0,0,1,.139-.389A.528.528,0,0,1,28-1.016a.544.544,0,0,1,.421.156.552.552,0,0,1,.143.389.522.522,0,0,1-.143.374A.554.554,0,0,1,28,.053.537.537,0,0,1,27.587-.1.532.532,0,0,1,27.448-.472Zm0-4.294a.563.563,0,0,1,.139-.389.528.528,0,0,1,.416-.156.544.544,0,0,1,.421.156.552.552,0,0,1,.143.389.522.522,0,0,1-.143.374.554.554,0,0,1-.421.151.537.537,0,0,1-.416-.151A.532.532,0,0,1,27.453-4.766Z" transform="translate(2000.69 -425.547)" fill="#040405"/>
    <path id="Trazado_209119" data-name="Trazado 209119" d="M0,0H251.88V454.32H0Z" transform="translate(1992.967 -693.872)" fill="none"/>
    <path id="Trazado_209120" data-name="Trazado 209120" d="M6.264,0H5.325V-3.273H1.756V0H.822V-7.081h.934v3.044h3.57V-7.081h.939ZM7.543-2.68a3.108,3.108,0,0,1,.3-1.391,2.267,2.267,0,0,1,.846-.953,2.3,2.3,0,0,1,1.238-.336,2.219,2.219,0,0,1,1.739.744,2.863,2.863,0,0,1,.664,1.979v.063a3.135,3.135,0,0,1-.294,1.379,2.234,2.234,0,0,1-.841.951A2.33,2.33,0,0,1,9.941.1,2.214,2.214,0,0,1,8.207-.647a2.848,2.848,0,0,1-.664-1.97Zm.9.107a2.251,2.251,0,0,0,.406,1.405,1.3,1.3,0,0,0,1.087.53,1.292,1.292,0,0,0,1.089-.537,2.462,2.462,0,0,0,.4-1.505,2.247,2.247,0,0,0-.411-1.4A1.306,1.306,0,0,0,9.931-4.62a1.292,1.292,0,0,0-1.075.53A2.443,2.443,0,0,0,8.448-2.573Zm7.558-1.882a2.7,2.7,0,0,0-.443-.034,1.186,1.186,0,0,0-1.2.754V0h-.9V-5.262h.875l.015.608a1.4,1.4,0,0,1,1.255-.705.919.919,0,0,1,.4.068ZM19.886,0a1.89,1.89,0,0,1-.126-.554,2.007,2.007,0,0,1-1.5.652,1.857,1.857,0,0,1-1.277-.44,1.424,1.424,0,0,1-.5-1.116,1.488,1.488,0,0,1,.625-1.277A2.946,2.946,0,0,1,18.87-3.19h.875V-3.6a1.01,1.01,0,0,0-.282-.751,1.134,1.134,0,0,0-.832-.28,1.312,1.312,0,0,0-.807.243A.717.717,0,0,0,17.5-3.8h-.9a1.242,1.242,0,0,1,.28-.761,1.909,1.909,0,0,1,.759-.581,2.552,2.552,0,0,1,1.053-.214A2.08,2.08,0,0,1,20.11-4.9a1.64,1.64,0,0,1,.535,1.252V-1.23a2.961,2.961,0,0,0,.185,1.153V0ZM18.393-.686A1.581,1.581,0,0,0,19.2-.9a1.324,1.324,0,0,0,.55-.569v-1.08H19.04q-1.654,0-1.654.968a.819.819,0,0,0,.282.661A1.084,1.084,0,0,0,18.393-.686Zm3.633.214a.563.563,0,0,1,.139-.389.528.528,0,0,1,.416-.156A.544.544,0,0,1,23-.861a.552.552,0,0,1,.143.389A.522.522,0,0,1,23-.1a.554.554,0,0,1-.421.151A.537.537,0,0,1,22.164-.1.532.532,0,0,1,22.026-.472Zm0-4.294a.563.563,0,0,1,.139-.389.528.528,0,0,1,.416-.156.544.544,0,0,1,.421.156.552.552,0,0,1,.143.389.522.522,0,0,1-.143.374.554.554,0,0,1-.421.151.537.537,0,0,1-.416-.151A.532.532,0,0,1,22.031-4.766Z" transform="translate(2000.69 -406.344)" fill="#040405"/>
    <path id="Trazado_209121" data-name="Trazado 209121" d="M0,0H251.88V454.32H0Z" transform="translate(1992.967 -693.872)" fill="none"/>
    <path id="Trazado_209122" data-name="Trazado 209122" d="M1.756-2.772V0H.822V-7.081H3.433a2.624,2.624,0,0,1,1.821.593,2.011,2.011,0,0,1,.659,1.571,1.985,1.985,0,0,1-.644,1.588,2.741,2.741,0,0,1-1.846.557Zm0-.764H3.433a1.678,1.678,0,0,0,1.148-.353,1.292,1.292,0,0,0,.4-1.021,1.334,1.334,0,0,0-.4-1.013,1.572,1.572,0,0,0-1.094-.395H1.756ZM9.085.1a2.3,2.3,0,0,1-1.741-.7,2.608,2.608,0,0,1-.671-1.88V-2.65a3.158,3.158,0,0,1,.3-1.4,2.333,2.333,0,0,1,.836-.963,2.1,2.1,0,0,1,1.165-.348,1.971,1.971,0,0,1,1.6.676,2.927,2.927,0,0,1,.569,1.936v.374H7.572a1.87,1.87,0,0,0,.455,1.257,1.429,1.429,0,0,0,1.106.479,1.567,1.567,0,0,0,.807-.195,2.028,2.028,0,0,0,.579-.516l.55.428A2.21,2.21,0,0,1,9.085.1ZM8.973-4.62a1.2,1.2,0,0,0-.914.4A1.927,1.927,0,0,0,7.6-3.112h2.636v-.068a1.714,1.714,0,0,0-.37-1.063A1.13,1.13,0,0,0,8.973-4.62ZM15.242-1.4a.662.662,0,0,0-.275-.567,2.645,2.645,0,0,0-.958-.348,4.53,4.53,0,0,1-1.085-.35,1.543,1.543,0,0,1-.593-.486,1.163,1.163,0,0,1-.192-.671,1.365,1.365,0,0,1,.547-1.094,2.137,2.137,0,0,1,1.4-.447,2.2,2.2,0,0,1,1.452.462,1.467,1.467,0,0,1,.557,1.182h-.9a.812.812,0,0,0-.314-.637,1.175,1.175,0,0,0-.79-.267,1.23,1.23,0,0,0-.768.214.674.674,0,0,0-.277.559.546.546,0,0,0,.258.491,3.171,3.171,0,0,0,.931.316,4.853,4.853,0,0,1,1.092.36,1.593,1.593,0,0,1,.62.5,1.238,1.238,0,0,1,.2.717,1.347,1.347,0,0,1-.564,1.131A2.366,2.366,0,0,1,14.113.1a2.65,2.65,0,0,1-1.119-.224,1.819,1.819,0,0,1-.761-.625,1.506,1.506,0,0,1-.275-.868h.9a.931.931,0,0,0,.362.717,1.406,1.406,0,0,0,.892.265,1.451,1.451,0,0,0,.819-.207A.635.635,0,0,0,15.242-1.4ZM17.075-2.68a3.108,3.108,0,0,1,.3-1.391,2.267,2.267,0,0,1,.846-.953,2.3,2.3,0,0,1,1.238-.336,2.219,2.219,0,0,1,1.739.744,2.863,2.863,0,0,1,.664,1.979v.063a3.135,3.135,0,0,1-.294,1.379,2.234,2.234,0,0,1-.841.951A2.33,2.33,0,0,1,19.473.1a2.214,2.214,0,0,1-1.734-.744,2.848,2.848,0,0,1-.664-1.97Zm.9.107a2.251,2.251,0,0,0,.406,1.405,1.3,1.3,0,0,0,1.087.53,1.292,1.292,0,0,0,1.089-.537,2.462,2.462,0,0,0,.4-1.505,2.247,2.247,0,0,0-.411-1.4,1.306,1.306,0,0,0-1.092-.537,1.292,1.292,0,0,0-1.075.53A2.443,2.443,0,0,0,17.98-2.573Zm4.985,2.1A.563.563,0,0,1,23.1-.861a.528.528,0,0,1,.416-.156.544.544,0,0,1,.421.156.552.552,0,0,1,.143.389A.522.522,0,0,1,23.94-.1a.554.554,0,0,1-.421.151A.537.537,0,0,1,23.1-.1.532.532,0,0,1,22.964-.472Zm0-4.294a.563.563,0,0,1,.139-.389.528.528,0,0,1,.416-.156.544.544,0,0,1,.421.156.552.552,0,0,1,.143.389.522.522,0,0,1-.143.374.554.554,0,0,1-.421.151.537.537,0,0,1-.416-.151A.532.532,0,0,1,22.969-4.766Z" transform="translate(2080.058 -387.148)" fill="#040405"/>
    <path id="Trazado_209123" data-name="Trazado 209123" d="M0,0H251.88V454.32H0Z" transform="translate(1992.967 -693.872)" fill="none"/>
    <path id="Trazado_209124" data-name="Trazado 209124" d="M0,0H251.88V454.32H0Z" transform="translate(1992.967 -693.872)" fill="none"/>
    <path id="Trazado_209125" data-name="Trazado 209125" d="M3.166-1.24,5.189-7.081H6.21L3.584,0H2.757L.136-7.081H1.153Zm3.39-1.44a3.108,3.108,0,0,1,.3-1.391,2.267,2.267,0,0,1,.846-.953,2.3,2.3,0,0,1,1.238-.336,2.219,2.219,0,0,1,1.739.744,2.863,2.863,0,0,1,.664,1.979v.063a3.135,3.135,0,0,1-.294,1.379,2.234,2.234,0,0,1-.841.951A2.33,2.33,0,0,1,8.953.1,2.214,2.214,0,0,1,7.22-.647a2.848,2.848,0,0,1-.664-1.97Zm.9.107a2.251,2.251,0,0,0,.406,1.405,1.3,1.3,0,0,0,1.087.53,1.292,1.292,0,0,0,1.089-.537,2.462,2.462,0,0,0,.4-1.505,2.247,2.247,0,0,0-.411-1.4A1.306,1.306,0,0,0,8.944-4.62a1.292,1.292,0,0,0-1.075.53A2.443,2.443,0,0,0,7.46-2.573ZM13.452,0h-.9V-7.47h.9ZM18.14-.52A1.911,1.911,0,0,1,16.6.1a1.636,1.636,0,0,1-1.281-.489,2.116,2.116,0,0,1-.445-1.447V-5.262h.9v3.4q0,1.2.973,1.2a1.347,1.347,0,0,0,1.371-.768V-5.262h.9V0h-.856Zm3.088-4.742.024.584a1.943,1.943,0,0,1,1.561-.681,1.5,1.5,0,0,1,1.5.846A1.993,1.993,0,0,1,25-5.126a2.018,2.018,0,0,1,.995-.233q1.731,0,1.761,1.833V0h-.9V-3.472a1.208,1.208,0,0,0-.258-.844,1.135,1.135,0,0,0-.866-.28,1.193,1.193,0,0,0-.832.3,1.213,1.213,0,0,0-.384.8V0h-.9V-3.448A1,1,0,0,0,22.488-4.6a1.2,1.2,0,0,0-1.211.754V0h-.9V-5.262ZM31.3.1a2.3,2.3,0,0,1-1.741-.7,2.608,2.608,0,0,1-.671-1.88V-2.65a3.158,3.158,0,0,1,.3-1.4,2.333,2.333,0,0,1,.836-.963,2.1,2.1,0,0,1,1.165-.348,1.971,1.971,0,0,1,1.6.676,2.927,2.927,0,0,1,.569,1.936v.374H29.783a1.87,1.87,0,0,0,.455,1.257,1.429,1.429,0,0,0,1.106.479,1.567,1.567,0,0,0,.807-.195,2.028,2.028,0,0,0,.579-.516l.55.428A2.21,2.21,0,0,1,31.3.1ZM31.183-4.62a1.2,1.2,0,0,0-.914.4,1.927,1.927,0,0,0-.457,1.111h2.636v-.068a1.714,1.714,0,0,0-.37-1.063A1.13,1.13,0,0,0,31.183-4.62Zm4.056-.642.029.661a1.918,1.918,0,0,1,1.576-.759q1.668,0,1.683,1.882V0h-.9V-3.482a1.211,1.211,0,0,0-.26-.841,1.043,1.043,0,0,0-.8-.272,1.3,1.3,0,0,0-.768.233,1.585,1.585,0,0,0-.516.613V0h-.9V-5.262Zm4.615,4.79a.563.563,0,0,1,.139-.389.528.528,0,0,1,.416-.156.544.544,0,0,1,.421.156.552.552,0,0,1,.143.389A.522.522,0,0,1,40.83-.1a.554.554,0,0,1-.421.151A.537.537,0,0,1,39.993-.1.532.532,0,0,1,39.855-.472Zm0-4.294A.563.563,0,0,1,40-5.155a.528.528,0,0,1,.416-.156.544.544,0,0,1,.421.156.552.552,0,0,1,.143.389.522.522,0,0,1-.143.374.554.554,0,0,1-.421.151A.537.537,0,0,1,40-4.392.532.532,0,0,1,39.859-4.766Z" transform="translate(2000.69 -387.148)" fill="#040405"/>
    <path id="Trazado_209126" data-name="Trazado 209126" d="M0,0H251.88V454.32H0Z" transform="translate(1992.967 -693.872)" fill="none"/>
    <path id="Trazado_209127" data-name="Trazado 209127" d="M0,0H251.88V454.32H0Z" transform="translate(1992.967 -693.872)" fill="none"/>
    <path id="Trazado_209128" data-name="Trazado 209128" d="M6.03-2.247A2.605,2.605,0,0,1,5.2-.513,2.717,2.717,0,0,1,3.346.1,2.5,2.5,0,0,1,1.335-.8,3.62,3.62,0,0,1,.579-3.21v-.681A4.034,4.034,0,0,1,.931-5.627a2.634,2.634,0,0,1,1-1.15,2.783,2.783,0,0,1,1.5-.4,2.559,2.559,0,0,1,1.809.63A2.636,2.636,0,0,1,6.03-4.8H5.092a2.034,2.034,0,0,0-.528-1.229,1.6,1.6,0,0,0-1.136-.38,1.671,1.671,0,0,0-1.4.662,3.039,3.039,0,0,0-.508,1.884v.686A3.124,3.124,0,0,0,2-1.348a1.556,1.556,0,0,0,1.347.681A1.8,1.8,0,0,0,4.54-1.019a1.957,1.957,0,0,0,.552-1.228Zm.895-.433a3.108,3.108,0,0,1,.3-1.391,2.267,2.267,0,0,1,.846-.953,2.3,2.3,0,0,1,1.238-.336,2.219,2.219,0,0,1,1.739.744,2.863,2.863,0,0,1,.664,1.979v.063a3.135,3.135,0,0,1-.294,1.379,2.234,2.234,0,0,1-.841.951A2.33,2.33,0,0,1,9.323.1,2.214,2.214,0,0,1,7.589-.647a2.848,2.848,0,0,1-.664-1.97Zm.9.107a2.251,2.251,0,0,0,.406,1.405,1.3,1.3,0,0,0,1.087.53,1.292,1.292,0,0,0,1.089-.537,2.462,2.462,0,0,0,.4-1.505,2.247,2.247,0,0,0-.411-1.4A1.306,1.306,0,0,0,9.313-4.62a1.292,1.292,0,0,0-1.075.53A2.443,2.443,0,0,0,7.83-2.573Zm1.892-4.9h1.089l-1.3,1.43-.725,0Zm2.9,4.8A3.083,3.083,0,0,1,13.2-4.623a1.815,1.815,0,0,1,1.5-.737,1.825,1.825,0,0,1,1.464.632V-7.47h.9V0h-.827l-.044-.564a1.832,1.832,0,0,1-1.5.661A1.8,1.8,0,0,1,13.2-.652a3.118,3.118,0,0,1-.576-1.955Zm.9.1a2.334,2.334,0,0,0,.37,1.4,1.2,1.2,0,0,0,1.021.506,1.313,1.313,0,0,0,1.25-.768V-3.852a1.323,1.323,0,0,0-1.24-.744,1.2,1.2,0,0,0-1.031.511A2.57,2.57,0,0,0,13.525-2.573ZM19.439,0h-.9V-5.262h.9Zm-.973-6.658a.537.537,0,0,1,.134-.37.5.5,0,0,1,.4-.151.51.51,0,0,1,.4.151.531.531,0,0,1,.136.37.514.514,0,0,1-.136.365.519.519,0,0,1-.4.146.511.511,0,0,1-.4-.146A.519.519,0,0,1,18.466-6.658Zm2.2,3.983a3.093,3.093,0,0,1,.569-1.957,1.82,1.82,0,0,1,1.508-.727,1.81,1.81,0,0,1,1.5.681l.044-.584h.822V-.126a2.141,2.141,0,0,1-.605,1.61,2.234,2.234,0,0,1-1.627.588,2.706,2.706,0,0,1-1.114-.243,1.917,1.917,0,0,1-.832-.666L21.4.623a1.759,1.759,0,0,0,1.415.715,1.379,1.379,0,0,0,1.024-.37A1.413,1.413,0,0,0,24.2-.073V-.525A1.849,1.849,0,0,1,22.731.1a1.8,1.8,0,0,1-1.5-.744A3.252,3.252,0,0,1,20.664-2.675Zm.9.1a2.359,2.359,0,0,0,.365,1.4,1.185,1.185,0,0,0,1.021.508A1.318,1.318,0,0,0,24.2-1.44v-2.4a1.333,1.333,0,0,0-1.24-.754,1.2,1.2,0,0,0-1.026.511A2.57,2.57,0,0,0,21.569-2.573Zm4.659-.107a3.108,3.108,0,0,1,.3-1.391,2.267,2.267,0,0,1,.846-.953,2.3,2.3,0,0,1,1.238-.336,2.219,2.219,0,0,1,1.739.744,2.863,2.863,0,0,1,.664,1.979v.063a3.135,3.135,0,0,1-.294,1.379,2.234,2.234,0,0,1-.841.951A2.33,2.33,0,0,1,28.625.1a2.214,2.214,0,0,1-1.734-.744,2.848,2.848,0,0,1-.664-1.97Zm.9.107a2.251,2.251,0,0,0,.406,1.405,1.3,1.3,0,0,0,1.087.53,1.292,1.292,0,0,0,1.089-.537,2.462,2.462,0,0,0,.4-1.505,2.247,2.247,0,0,0-.411-1.4,1.306,1.306,0,0,0-1.092-.537,1.292,1.292,0,0,0-1.075.53A2.443,2.443,0,0,0,27.132-2.573ZM37.155-4.455a2.7,2.7,0,0,0-.443-.034,1.186,1.186,0,0,0-1.2.754V0h-.9V-5.262h.875l.015.608a1.4,1.4,0,0,1,1.255-.705.919.919,0,0,1,.4.068ZM40.073.1a2.3,2.3,0,0,1-1.741-.7,2.608,2.608,0,0,1-.671-1.88V-2.65a3.158,3.158,0,0,1,.3-1.4,2.333,2.333,0,0,1,.836-.963,2.1,2.1,0,0,1,1.165-.348,1.971,1.971,0,0,1,1.6.676,2.927,2.927,0,0,1,.569,1.936v.374H38.561a1.87,1.87,0,0,0,.455,1.257,1.429,1.429,0,0,0,1.106.479,1.567,1.567,0,0,0,.807-.195,2.028,2.028,0,0,0,.579-.516l.55.428A2.21,2.21,0,0,1,40.073.1ZM39.962-4.62a1.2,1.2,0,0,0-.914.4,1.927,1.927,0,0,0-.457,1.111h2.636v-.068a1.714,1.714,0,0,0-.37-1.063A1.13,1.13,0,0,0,39.962-4.62ZM46.415,0a1.89,1.89,0,0,1-.126-.554,2.007,2.007,0,0,1-1.5.652,1.857,1.857,0,0,1-1.277-.44,1.424,1.424,0,0,1-.5-1.116,1.488,1.488,0,0,1,.625-1.277A2.946,2.946,0,0,1,45.4-3.19h.875V-3.6a1.01,1.01,0,0,0-.282-.751,1.134,1.134,0,0,0-.832-.28,1.312,1.312,0,0,0-.807.243.717.717,0,0,0-.326.588h-.9a1.242,1.242,0,0,1,.28-.761,1.909,1.909,0,0,1,.759-.581,2.552,2.552,0,0,1,1.053-.214,2.08,2.08,0,0,1,1.425.455,1.64,1.64,0,0,1,.535,1.252V-1.23a2.961,2.961,0,0,0,.185,1.153V0ZM44.922-.686a1.581,1.581,0,0,0,.8-.219,1.324,1.324,0,0,0,.55-.569v-1.08h-.705q-1.654,0-1.654.968a.819.819,0,0,0,.282.661A1.084,1.084,0,0,0,44.922-.686ZM49.562,0h-.9V-7.47h.9Zm2.417,0h-.9V-5.262h.9Zm-.973-6.658a.537.537,0,0,1,.134-.37.5.5,0,0,1,.4-.151.51.51,0,0,1,.4.151.531.531,0,0,1,.136.37.514.514,0,0,1-.136.365.519.519,0,0,1-.4.146.511.511,0,0,1-.4-.146A.519.519,0,0,1,51.006-6.658ZM54.264-.734h3.078V0H53.165V-.661l2.9-3.857h-2.86v-.744H57.2v.637ZM61.6,0a1.89,1.89,0,0,1-.126-.554,2.007,2.007,0,0,1-1.5.652A1.857,1.857,0,0,1,58.7-.343a1.424,1.424,0,0,1-.5-1.116,1.488,1.488,0,0,1,.625-1.277,2.946,2.946,0,0,1,1.758-.455h.875V-3.6a1.01,1.01,0,0,0-.282-.751,1.134,1.134,0,0,0-.832-.28,1.312,1.312,0,0,0-.807.243.717.717,0,0,0-.326.588h-.9a1.242,1.242,0,0,1,.28-.761,1.909,1.909,0,0,1,.759-.581A2.552,2.552,0,0,1,60.4-5.359a2.08,2.08,0,0,1,1.425.455,1.64,1.64,0,0,1,.535,1.252V-1.23a2.961,2.961,0,0,0,.185,1.153V0ZM60.11-.686a1.581,1.581,0,0,0,.8-.219,1.324,1.324,0,0,0,.55-.569v-1.08h-.705q-1.654,0-1.654.968a.819.819,0,0,0,.282.661A1.084,1.084,0,0,0,60.11-.686Zm3.443-1.989a3.083,3.083,0,0,1,.574-1.948,1.815,1.815,0,0,1,1.5-.737,1.825,1.825,0,0,1,1.464.632V-7.47h.9V0h-.827l-.044-.564A1.832,1.832,0,0,1,65.62.1,1.8,1.8,0,0,1,64.13-.652a3.118,3.118,0,0,1-.576-1.955Zm.9.1a2.334,2.334,0,0,0,.37,1.4,1.2,1.2,0,0,0,1.021.506,1.313,1.313,0,0,0,1.25-.768V-3.852a1.323,1.323,0,0,0-1.24-.744,1.2,1.2,0,0,0-1.031.511A2.57,2.57,0,0,0,64.453-2.573Zm4.7-.107a3.108,3.108,0,0,1,.3-1.391,2.267,2.267,0,0,1,.846-.953,2.3,2.3,0,0,1,1.238-.336,2.219,2.219,0,0,1,1.739.744,2.863,2.863,0,0,1,.664,1.979v.063a3.135,3.135,0,0,1-.294,1.379,2.234,2.234,0,0,1-.841.951A2.33,2.33,0,0,1,71.549.1a2.214,2.214,0,0,1-1.734-.744,2.848,2.848,0,0,1-.664-1.97Zm.9.107a2.251,2.251,0,0,0,.406,1.405,1.3,1.3,0,0,0,1.087.53,1.292,1.292,0,0,0,1.089-.537,2.462,2.462,0,0,0,.4-1.505,2.247,2.247,0,0,0-.411-1.4,1.306,1.306,0,0,0-1.092-.537,1.292,1.292,0,0,0-1.075.53A2.443,2.443,0,0,0,70.056-2.573Zm11.925,0a3.151,3.151,0,0,1-.55,1.936A1.761,1.761,0,0,1,79.943.1a1.93,1.93,0,0,1-1.508-.608V2.023h-.9V-5.262h.822l.044.584a1.853,1.853,0,0,1,1.527-.681,1.794,1.794,0,0,1,1.5.715,3.185,3.185,0,0,1,.552,1.989Zm-.9-.1A2.325,2.325,0,0,0,80.7-4.08,1.222,1.222,0,0,0,79.661-4.6a1.323,1.323,0,0,0-1.226.725v2.514a1.325,1.325,0,0,0,1.235.72A1.216,1.216,0,0,0,80.7-1.15,2.538,2.538,0,0,0,81.081-2.675Zm1.8,0a3.108,3.108,0,0,1,.3-1.391,2.267,2.267,0,0,1,.846-.953,2.3,2.3,0,0,1,1.238-.336,2.219,2.219,0,0,1,1.739.744,2.863,2.863,0,0,1,.664,1.979v.063a3.135,3.135,0,0,1-.294,1.379,2.234,2.234,0,0,1-.841.951A2.33,2.33,0,0,1,85.283.1a2.214,2.214,0,0,1-1.734-.744,2.848,2.848,0,0,1-.664-1.97Zm.9.107A2.251,2.251,0,0,0,84.2-1.167a1.3,1.3,0,0,0,1.087.53,1.292,1.292,0,0,0,1.089-.537,2.462,2.462,0,0,0,.4-1.505,2.247,2.247,0,0,0-.411-1.4,1.306,1.306,0,0,0-1.092-.537,1.292,1.292,0,0,0-1.075.53A2.443,2.443,0,0,0,83.789-2.573Zm7.558-1.882a2.7,2.7,0,0,0-.443-.034,1.186,1.186,0,0,0-1.2.754V0h-.9V-5.262h.875l.015.608a1.4,1.4,0,0,1,1.255-.705.919.919,0,0,1,.4.068Zm.8,3.983a.563.563,0,0,1,.139-.389.528.528,0,0,1,.416-.156.544.544,0,0,1,.421.156.552.552,0,0,1,.143.389A.522.522,0,0,1,93.12-.1.554.554,0,0,1,92.7.053.537.537,0,0,1,92.283-.1.532.532,0,0,1,92.145-.472Zm0-4.294a.563.563,0,0,1,.139-.389.528.528,0,0,1,.416-.156.544.544,0,0,1,.421.156.552.552,0,0,1,.143.389.522.522,0,0,1-.143.374.554.554,0,0,1-.421.151.537.537,0,0,1-.416-.151A.532.532,0,0,1,92.149-4.766Z" transform="translate(2000.69 -355.945)" fill="#040405"/>
    <path id="Trazado_209129" data-name="Trazado 209129" d="M0,0H251.88V454.32H0Z" transform="translate(1992.967 -693.872)" fill="none"/>
    <path id="Trazado_209130" data-name="Trazado 209130" d="M4.3-1.858a.749.749,0,0,0-.292-.635,3.827,3.827,0,0,0-1.05-.467,7.447,7.447,0,0,1-1.2-.484A1.963,1.963,0,0,1,.554-5.2,1.71,1.71,0,0,1,.878-6.223a2.11,2.11,0,0,1,.929-.7,3.5,3.5,0,0,1,1.359-.253A3.182,3.182,0,0,1,4.518-6.9a2.153,2.153,0,0,1,.922.776A2.03,2.03,0,0,1,5.768-4.99H4.309A.955.955,0,0,0,4-5.746a1.259,1.259,0,0,0-.861-.27,1.346,1.346,0,0,0-.832.226.713.713,0,0,0-.3.6.683.683,0,0,0,.348.579,3.929,3.929,0,0,0,1.024.438A4.423,4.423,0,0,1,5.2-3.249a1.85,1.85,0,0,1,.569,1.381,1.7,1.7,0,0,1-.7,1.442A3.045,3.045,0,0,1,3.2.1,3.616,3.616,0,0,1,1.712-.2,2.355,2.355,0,0,1,.688-1.021,2.1,2.1,0,0,1,.336-2.227H1.8q0,1.172,1.4,1.172a1.362,1.362,0,0,0,.812-.212A.688.688,0,0,0,4.3-1.858Zm4.041-4.7v1.294h.9v1.031h-.9V-1.6a.627.627,0,0,0,.112.418.562.562,0,0,0,.428.126A2.241,2.241,0,0,0,9.3-1.094V-.029A2.893,2.893,0,0,1,8.448.1,1.342,1.342,0,0,1,6.94-1.4V-4.231H6.172V-5.262H6.94V-6.556ZM9.663-2.68a3.121,3.121,0,0,1,.3-1.4,2.207,2.207,0,0,1,.868-.948,2.533,2.533,0,0,1,1.316-.336,2.4,2.4,0,0,1,1.739.652,2.615,2.615,0,0,1,.751,1.77l.01.36a2.75,2.75,0,0,1-.676,1.943A2.35,2.35,0,0,1,12.158.1a2.361,2.361,0,0,1-1.816-.729,2.8,2.8,0,0,1-.678-1.984Zm1.405.1a1.967,1.967,0,0,0,.282,1.147.931.931,0,0,0,.807.4.933.933,0,0,0,.8-.392,2.152,2.152,0,0,0,.287-1.254,1.947,1.947,0,0,0-.287-1.14.933.933,0,0,0-.807-.4.917.917,0,0,0-.8.4A2.189,2.189,0,0,0,11.069-2.58ZM17.7-1.036a.922.922,0,0,0,.632-.214.75.75,0,0,0,.253-.569h1.318a1.8,1.8,0,0,1-.292.98,1.925,1.925,0,0,1-.785.691,2.458,2.458,0,0,1-1.1.246,2.284,2.284,0,0,1-1.78-.717A2.839,2.839,0,0,1,15.3-2.6v-.092a2.806,2.806,0,0,1,.647-1.94,2.258,2.258,0,0,1,1.775-.725A2.213,2.213,0,0,1,19.3-4.8a1.989,1.989,0,0,1,.605,1.5H18.587a.966.966,0,0,0-.253-.667.843.843,0,0,0-.642-.257.846.846,0,0,0-.742.358,2.075,2.075,0,0,0-.25,1.162v.146a2.1,2.1,0,0,0,.248,1.169A.857.857,0,0,0,17.7-1.036Zm4.917-1.075-.506.506V0H20.708V-7.47h1.405v4.139l.272-.35,1.347-1.581H25.42l-1.9,2.193L25.586,0H23.971Zm10.626-.472a3.156,3.156,0,0,1-.552,1.948A1.77,1.77,0,0,1,31.2.1a1.639,1.639,0,0,1-1.289-.554v2.48H28.509V-5.262h1.3l.049.516a1.652,1.652,0,0,1,1.333-.613,1.782,1.782,0,0,1,1.512.72,3.241,3.241,0,0,1,.54,1.984Zm-1.405-.1a2.071,2.071,0,0,0-.26-1.133.847.847,0,0,0-.756-.4.92.92,0,0,0-.909.506v2.154a.936.936,0,0,0,.919.52Q31.84-1.036,31.84-2.685Zm5.233-1.26a3.818,3.818,0,0,0-.506-.039,1.029,1.029,0,0,0-1.046.54V0H34.116V-5.262h1.328l.039.627a1.3,1.3,0,0,1,1.172-.725,1.473,1.473,0,0,1,.438.063Zm.282,1.264a3.121,3.121,0,0,1,.3-1.4,2.207,2.207,0,0,1,.868-.948,2.533,2.533,0,0,1,1.316-.336,2.4,2.4,0,0,1,1.739.652,2.615,2.615,0,0,1,.751,1.77l.01.36a2.75,2.75,0,0,1-.676,1.943A2.35,2.35,0,0,1,39.85.1a2.361,2.361,0,0,1-1.816-.729,2.8,2.8,0,0,1-.678-1.984Zm1.405.1a1.967,1.967,0,0,0,.282,1.147.931.931,0,0,0,.807.4.933.933,0,0,0,.8-.392,2.152,2.152,0,0,0,.287-1.254,1.947,1.947,0,0,0-.287-1.14.933.933,0,0,0-.807-.4.917.917,0,0,0-.8.4A2.189,2.189,0,0,0,38.76-2.58Zm4.226-.09a3.171,3.171,0,0,1,.552-1.96,1.791,1.791,0,0,1,1.51-.729,1.612,1.612,0,0,1,1.269.574V-7.47h1.41V0H46.459l-.068-.559A1.654,1.654,0,0,1,45.039.1a1.786,1.786,0,0,1-1.491-.732A3.273,3.273,0,0,1,42.987-2.67Zm1.405.1A2.077,2.077,0,0,0,44.65-1.43a.84.84,0,0,0,.749.395.94.94,0,0,0,.919-.55v-2.08a.927.927,0,0,0-.909-.55Q44.392-4.216,44.392-2.565Zm7.577,2.03A1.763,1.763,0,0,1,50.529.1a1.662,1.662,0,0,1-1.291-.486,2.076,2.076,0,0,1-.455-1.425V-5.262h1.405v3.4q0,.823.749.823a1.015,1.015,0,0,0,.982-.5v-3.73h1.41V0H52.008Zm4.61-.5a.922.922,0,0,0,.632-.214.75.75,0,0,0,.253-.569h1.318a1.8,1.8,0,0,1-.292.98,1.925,1.925,0,0,1-.785.691A2.458,2.458,0,0,1,56.6.1a2.284,2.284,0,0,1-1.78-.717A2.839,2.839,0,0,1,54.172-2.6v-.092a2.806,2.806,0,0,1,.647-1.94,2.258,2.258,0,0,1,1.775-.725,2.213,2.213,0,0,1,1.583.562,1.989,1.989,0,0,1,.605,1.5H57.465a.966.966,0,0,0-.253-.667.843.843,0,0,0-.642-.257.846.846,0,0,0-.742.358,2.075,2.075,0,0,0-.25,1.162v.146a2.1,2.1,0,0,0,.248,1.169A.857.857,0,0,0,56.579-1.036Zm4.688-5.52v1.294h.9v1.031h-.9V-1.6a.627.627,0,0,0,.112.418.562.562,0,0,0,.428.126,2.241,2.241,0,0,0,.413-.034V-.029A2.893,2.893,0,0,1,61.37.1,1.342,1.342,0,0,1,59.862-1.4V-4.231h-.768V-5.262h.768V-6.556ZM62.586-2.68a3.121,3.121,0,0,1,.3-1.4,2.207,2.207,0,0,1,.868-.948,2.533,2.533,0,0,1,1.316-.336,2.4,2.4,0,0,1,1.739.652,2.615,2.615,0,0,1,.751,1.77l.01.36a2.75,2.75,0,0,1-.676,1.943A2.35,2.35,0,0,1,65.08.1a2.361,2.361,0,0,1-1.816-.729,2.8,2.8,0,0,1-.678-1.984Zm1.405.1a1.967,1.967,0,0,0,.282,1.147.931.931,0,0,0,.807.4.933.933,0,0,0,.8-.392,2.152,2.152,0,0,0,.287-1.254,1.947,1.947,0,0,0-.287-1.14.933.933,0,0,0-.807-.4.917.917,0,0,0-.8.4A2.189,2.189,0,0,0,63.991-2.58ZM68.5-.691a.708.708,0,0,1,.226-.545.8.8,0,0,1,.567-.209.809.809,0,0,1,.571.209.708.708,0,0,1,.226.545.7.7,0,0,1-.224.537A.812.812,0,0,1,69.3.053a.806.806,0,0,1-.569-.207A.7.7,0,0,1,68.5-.691Zm0-3.983a.708.708,0,0,1,.226-.545.8.8,0,0,1,.567-.209.809.809,0,0,1,.571.209.708.708,0,0,1,.226.545.7.7,0,0,1-.224.537.812.812,0,0,1-.574.207.806.806,0,0,1-.569-.207A.7.7,0,0,1,68.5-4.674Z" transform="translate(2000.69 -336.742)" fill="#040405"/>
    <path id="Trazado_209131" data-name="Trazado 209131" d="M0,0H251.88V454.32H0Z" transform="translate(1992.967 -693.872)" fill="none"/>
    <path id="Trazado_209132" data-name="Trazado 209132" d="M4.727-3.127H1.756V0H.822V-7.081H5.209v.764H1.756v2.427H4.727ZM8.268.1a2.3,2.3,0,0,1-1.741-.7,2.608,2.608,0,0,1-.671-1.88V-2.65a3.158,3.158,0,0,1,.3-1.4,2.333,2.333,0,0,1,.836-.963,2.1,2.1,0,0,1,1.165-.348,1.971,1.971,0,0,1,1.6.676,2.927,2.927,0,0,1,.569,1.936v.374H6.755A1.87,1.87,0,0,0,7.21-1.116a1.429,1.429,0,0,0,1.106.479,1.567,1.567,0,0,0,.807-.195A2.028,2.028,0,0,0,9.7-1.347l.55.428A2.21,2.21,0,0,1,8.268.1ZM8.156-4.62a1.2,1.2,0,0,0-.914.4,1.927,1.927,0,0,0-.457,1.111H9.42v-.068a1.714,1.714,0,0,0-.37-1.063A1.13,1.13,0,0,0,8.156-4.62ZM13.471-.637a1.3,1.3,0,0,0,.841-.292,1.027,1.027,0,0,0,.4-.729h.851a1.632,1.632,0,0,1-.311.861,2.05,2.05,0,0,1-.766.652A2.21,2.21,0,0,1,13.471.1,2.168,2.168,0,0,1,11.762-.62a2.857,2.857,0,0,1-.635-1.962v-.151A3.168,3.168,0,0,1,11.409-4.1a2.148,2.148,0,0,1,.81-.929,2.3,2.3,0,0,1,1.247-.331,2.11,2.11,0,0,1,1.471.53,1.9,1.9,0,0,1,.625,1.376h-.851a1.24,1.24,0,0,0-.387-.839,1.2,1.2,0,0,0-.858-.328,1.259,1.259,0,0,0-1.063.494A2.318,2.318,0,0,0,12.027-2.7v.17a2.272,2.272,0,0,0,.374,1.4A1.265,1.265,0,0,0,13.471-.637Zm4-3.988a1.913,1.913,0,0,1,1.556-.734q1.668,0,1.683,1.882V0h-.9V-3.482a1.211,1.211,0,0,0-.26-.841,1.043,1.043,0,0,0-.8-.272,1.3,1.3,0,0,0-.768.233,1.585,1.585,0,0,0-.516.613V0h-.9V-7.47h.9ZM25.309,0a1.89,1.89,0,0,1-.126-.554,2.007,2.007,0,0,1-1.5.652,1.857,1.857,0,0,1-1.277-.44,1.424,1.424,0,0,1-.5-1.116,1.488,1.488,0,0,1,.625-1.277,2.946,2.946,0,0,1,1.758-.455h.875V-3.6a1.01,1.01,0,0,0-.282-.751,1.134,1.134,0,0,0-.832-.28,1.312,1.312,0,0,0-.807.243.717.717,0,0,0-.326.588h-.9a1.242,1.242,0,0,1,.28-.761,1.909,1.909,0,0,1,.759-.581,2.552,2.552,0,0,1,1.053-.214,2.08,2.08,0,0,1,1.425.455,1.64,1.64,0,0,1,.535,1.252V-1.23a2.961,2.961,0,0,0,.185,1.153V0ZM23.815-.686a1.581,1.581,0,0,0,.8-.219,1.324,1.324,0,0,0,.55-.569v-1.08h-.705q-1.654,0-1.654.968a.819.819,0,0,0,.282.661A1.084,1.084,0,0,0,23.815-.686Zm3.633.214a.563.563,0,0,1,.139-.389A.528.528,0,0,1,28-1.016a.544.544,0,0,1,.421.156.552.552,0,0,1,.143.389.522.522,0,0,1-.143.374A.554.554,0,0,1,28,.053.537.537,0,0,1,27.587-.1.532.532,0,0,1,27.448-.472Zm0-4.294a.563.563,0,0,1,.139-.389.528.528,0,0,1,.416-.156.544.544,0,0,1,.421.156.552.552,0,0,1,.143.389.522.522,0,0,1-.143.374.554.554,0,0,1-.421.151.537.537,0,0,1-.416-.151A.532.532,0,0,1,27.453-4.766Z" transform="translate(2000.69 -317.547)" fill="#040405"/>
    <path id="Trazado_209133" data-name="Trazado 209133" d="M0,0H251.88V454.32H0Z" transform="translate(1992.967 -693.872)" fill="none"/>
    <path id="Trazado_209134" data-name="Trazado 209134" d="M0,0H251.88V454.32H0Z" transform="translate(1992.967 -693.872)" fill="none"/>
    <path id="Trazado_208768" data-name="Trazado 208768" d="M172.866,544.781h251.88V90.461H172.866v454.32Z" transform="translate(1820.101 -784.333)" fill="none" fill-rule="evenodd"/>
    <path id="Trazado_208769" data-name="Trazado 208769" d="M172.866,544.781h251.88V90.461H172.866v454.32Z" transform="translate(1820.101 -784.333)" fill="none" fill-rule="evenodd"/>
    <path id="Trazado_208770" data-name="Trazado 208770" d="M172.866,544.781h251.88V90.461H172.866v454.32Z" transform="translate(1820.101 -784.333)" fill="none" fill-rule="evenodd"/>
    <path id="Trazado_208771" data-name="Trazado 208771" d="M172.866,544.781h251.88V90.461H172.866v454.32Z" transform="translate(1820.101 -784.333)" fill="none" fill-rule="evenodd"/>
    <path id="Trazado_208772" data-name="Trazado 208772" d="M172.866,544.781h251.88V90.461H172.866v454.32Z" transform="translate(1820.101 -784.333)" fill="none" fill-rule="evenodd"/>
    <path id="Trazado_208773" data-name="Trazado 208773" d="M172.866,544.781h251.88V90.461H172.866v454.32Z" transform="translate(1820.101 -784.333)" fill="none" fill-rule="evenodd"/>
    <path id="Trazado_208774" data-name="Trazado 208774" d="M172.866,544.781h251.88V90.461H172.866v454.32Z" transform="translate(1820.101 -784.333)" fill="none" fill-rule="evenodd"/>
    <path id="Trazado_208775" data-name="Trazado 208775" d="M172.866,544.781h251.88V90.461H172.866v454.32Z" transform="translate(1820.101 -784.333)" fill="none" fill-rule="evenodd"/>
    <path id="Trazado_208776" data-name="Trazado 208776" d="M172.866,544.781h251.88V90.461H172.866v454.32Z" transform="translate(1820.101 -784.333)" fill="none" fill-rule="evenodd"/>
    <path id="Trazado_208777" data-name="Trazado 208777" d="M172.866,544.781h251.88V90.461H172.866v454.32Z" transform="translate(1820.101 -784.333)" fill="none" fill-rule="evenodd"/>
    <path id="Trazado_208778" data-name="Trazado 208778" d="M172.866,544.781h251.88V90.461H172.866v454.32Z" transform="translate(1820.101 -784.333)" fill="none" fill-rule="evenodd"/>
    <path id="Trazado_208779" data-name="Trazado 208779" d="M172.866,544.781h251.88V90.461H172.866v454.32Z" transform="translate(1820.101 -784.333)" fill="none" fill-rule="evenodd"/>
    <path id="Trazado_208780" data-name="Trazado 208780" d="M172.866,544.781h251.88V90.461H172.866v454.32Z" transform="translate(1820.101 -784.333)" fill="none" fill-rule="evenodd"/>
    <path id="Trazado_208781" data-name="Trazado 208781" d="M172.866,544.781h251.88V90.461H172.866v454.32Z" transform="translate(1820.101 -784.333)" fill="none" fill-rule="evenodd"/>
    <path id="Trazado_208782" data-name="Trazado 208782" d="M172.866,544.781h251.88V90.461H172.866v454.32Z" transform="translate(1820.101 -784.333)" fill="none" fill-rule="evenodd"/>
    <path id="Trazado_208783" data-name="Trazado 208783" d="M172.866,544.781h251.88V90.461H172.866v454.32Z" transform="translate(1820.101 -784.333)" fill="none" fill-rule="evenodd"/>
    <path id="Trazado_208784" data-name="Trazado 208784" d="M172.866,544.781h251.88V90.461H172.866v454.32Z" transform="translate(1820.101 -784.333)" fill="none" fill-rule="evenodd"/>
    <path id="Trazado_208785" data-name="Trazado 208785" d="M172.866,544.781h251.88V90.461H172.866v454.32Z" transform="translate(1820.101 -784.333)" fill="none" fill-rule="evenodd"/>
    <path id="Trazado_208786" data-name="Trazado 208786" d="M172.866,544.781h251.88V90.461H172.866v454.32Z" transform="translate(1820.101 -784.333)" fill="none" fill-rule="evenodd"/>
    <path id="Trazado_208787" data-name="Trazado 208787" d="M172.866,544.781h251.88V90.461H172.866v454.32Z" transform="translate(1820.101 -784.333)" fill="none" fill-rule="evenodd"/>
    <path id="Trazado_208788" data-name="Trazado 208788" d="M172.866,544.781h251.88V90.461H172.866v454.32Z" transform="translate(1820.101 -784.333)" fill="none" fill-rule="evenodd"/>
    <path id="Trazado_208789" data-name="Trazado 208789" d="M172.866,544.781h251.88V90.461H172.866v454.32Z" transform="translate(1820.101 -784.333)" fill="none" fill-rule="evenodd"/>
    <path id="Trazado_208790" data-name="Trazado 208790" d="M172.866,544.781h251.88V90.461H172.866v454.32Z" transform="translate(1820.101 -784.333)" fill="none" fill-rule="evenodd"/>
    <path id="Trazado_208791" data-name="Trazado 208791" d="M172.866,544.781h251.88V90.461H172.866v454.32Z" transform="translate(1820.101 -784.333)" fill="none" fill-rule="evenodd"/>
    <path id="Trazado_208792" data-name="Trazado 208792" d="M172.866,544.781h251.88V90.461H172.866v454.32Z" transform="translate(1820.101 -784.333)" fill="none" fill-rule="evenodd"/>
    <path id="Trazado_208793" data-name="Trazado 208793" d="M172.866,544.781h251.88V90.461H172.866v454.32Z" transform="translate(1820.101 -784.333)" fill="none" fill-rule="evenodd"/>
    <path id="Trazado_208794" data-name="Trazado 208794" d="M172.866,544.781h251.88V90.461H172.866v454.32Z" transform="translate(1820.101 -784.333)" fill="none" fill-rule="evenodd"/>
    <path id="Trazado_208795" data-name="Trazado 208795" d="M172.866,544.781h251.88V90.461H172.866v454.32Z" transform="translate(1820.101 -784.333)" fill="none" fill-rule="evenodd"/>
  </g>
</svg>
