<svg xmlns="http://www.w3.org/2000/svg" width="147" height="144" viewBox="0 0 147 144">
  <g id="Grupo_73269" data-name="Grupo 73269" transform="translate(-1687.597 -138.774)">
    <circle id="Elipse_4525" data-name="Elipse 4525" cx="72" cy="72" r="72" transform="translate(1687.597 138.774)" fill="#7e5ee3"/>
    <g id="Grupo_73267" data-name="Grupo 73267" transform="translate(1732.211 253.828)">
      <path id="Trazado_145440" data-name="Trazado 145440" d="M1846.766,556.319a.4.4,0,1,0-.464-.311.395.395,0,0,0,.464.311Z" transform="translate(-1846.295 -553.201)" fill="#0f7986"/>
      <path id="Trazado_145441" data-name="Trazado 145441" d="M1888.418,548.036a.395.395,0,1,0-.464-.31A.394.394,0,0,0,1888.418,548.036Z" transform="translate(-1876.2 -547.254)" fill="#0f7986"/>
    </g>
    <g id="Grupo_171323" data-name="Grupo 171323" transform="translate(1406.484 95.166)">
      <g id="Grupo_171322" data-name="Grupo 171322" transform="translate(281.113 60.596)">
        <g id="Grupo_171299" data-name="Grupo 171299" transform="translate(47.789 2.083)">
          <g id="Grupo_171298" data-name="Grupo 171298">
            <g id="Grupo_171287" data-name="Grupo 171287">
              <path id="Trazado_207471" data-name="Trazado 207471" d="M443.128,91.279a5.045,5.045,0,0,1,1.588,6.955l-13.267,21.123-5.276,8.4L398.685,171.51a5.045,5.045,0,0,1-6.956,1.588l-43.089-27.065a5.045,5.045,0,0,1-1.589-6.956l26.513-42.209,5.873-9.334L393.09,65.8a5.045,5.045,0,0,1,6.956-1.588Z" transform="translate(-346.278 -63.437)" fill="#4ebcf7"/>
              <path id="Trazado_207472" data-name="Trazado 207472" d="M381.213,164.108h0a2.172,2.172,0,0,1-.682-2.986l45.553-72.509a2.172,2.172,0,0,1,2.986-.682h0a2.173,2.173,0,0,1,.682,2.986L384.2,163.426A2.172,2.172,0,0,1,381.213,164.108Z" transform="translate(-355.324 -69.88)" fill="none" stroke="#faeddc" stroke-miterlimit="10" stroke-width="0.445"/>
            </g>
            <g id="Grupo_171292" data-name="Grupo 171292" transform="translate(13.559 11.765)">
              <g id="Grupo_171288" data-name="Grupo 171288" transform="translate(33.234)">
                <path id="Trazado_207473" data-name="Trazado 207473" d="M422.413,90.868a6.553,6.553,0,1,1-2.063-9.034A6.552,6.552,0,0,1,422.413,90.868Z" transform="translate(-410.145 -79.839)" fill="#ad8b96"/>
                <path id="Trazado_207474" data-name="Trazado 207474" d="M422.187,89.519a6.553,6.553,0,1,1-2.063-9.034A6.553,6.553,0,0,1,422.187,89.519Z" transform="translate(-410.085 -79.48)" fill="#e7d8dd" stroke="#e7d8dd" stroke-miterlimit="10" stroke-width="1.067"/>
              </g>
              <g id="Grupo_171289" data-name="Grupo 171289" transform="translate(22.599 16.928)">
                <path id="Trazado_207475" data-name="Trazado 207475" d="M407.911,113.951a6.553,6.553,0,1,1-2.062-9.035A6.552,6.552,0,0,1,407.911,113.951Z" transform="translate(-395.643 -102.922)" fill="#ad8b96"/>
                <path id="Trazado_207476" data-name="Trazado 207476" d="M407.685,112.6a6.553,6.553,0,1,1-2.063-9.034A6.552,6.552,0,0,1,407.685,112.6Z" transform="translate(-395.583 -102.563)" fill="#e7d8dd" stroke="#e7d8dd" stroke-miterlimit="10" stroke-width="1.067"/>
              </g>
              <g id="Grupo_171290" data-name="Grupo 171290" transform="translate(11.698 34.279)">
                <path id="Trazado_207477" data-name="Trazado 207477" d="M393.047,137.612a6.553,6.553,0,1,1-2.063-9.035A6.552,6.552,0,0,1,393.047,137.612Z" transform="translate(-380.779 -126.582)" fill="#ad8b96"/>
                <path id="Trazado_207478" data-name="Trazado 207478" d="M392.821,136.262a6.553,6.553,0,1,1-2.062-9.035A6.552,6.552,0,0,1,392.821,136.262Z" transform="translate(-380.719 -126.223)" fill="#e7d8dd" stroke="#e7d8dd" stroke-miterlimit="10" stroke-width="1.067"/>
              </g>
              <g id="Grupo_171291" data-name="Grupo 171291" transform="translate(0 52.9)">
                <path id="Trazado_207479" data-name="Trazado 207479" d="M377.095,163a6.553,6.553,0,1,1-2.063-9.035A6.552,6.552,0,0,1,377.095,163Z" transform="translate(-364.827 -151.974)" fill="#ad8b96"/>
                <path id="Trazado_207480" data-name="Trazado 207480" d="M376.869,161.654a6.553,6.553,0,1,1-2.062-9.035A6.552,6.552,0,0,1,376.869,161.654Z" transform="translate(-364.767 -151.615)" fill="#e7d8dd" stroke="#e7d8dd" stroke-miterlimit="10" stroke-width="1.067"/>
              </g>
            </g>
            <g id="Grupo_171297" data-name="Grupo 171297" transform="translate(41.349 29.224)">
              <g id="Grupo_171293" data-name="Grupo 171293" transform="translate(33.234)">
                <path id="Trazado_207481" data-name="Trazado 207481" d="M460.308,114.675a6.553,6.553,0,1,1-2.063-9.034A6.552,6.552,0,0,1,460.308,114.675Z" transform="translate(-448.04 -103.646)" fill="#ad8b96"/>
                <path id="Trazado_207482" data-name="Trazado 207482" d="M460.082,113.326a6.553,6.553,0,1,1-2.063-9.034A6.553,6.553,0,0,1,460.082,113.326Z" transform="translate(-447.98 -103.287)" fill="#e7d8dd" stroke="#e7d8dd" stroke-miterlimit="10" stroke-width="1.067"/>
              </g>
              <g id="Grupo_171294" data-name="Grupo 171294" transform="translate(22.599 16.928)">
                <path id="Trazado_207483" data-name="Trazado 207483" d="M445.806,137.758a6.553,6.553,0,1,1-2.062-9.035A6.552,6.552,0,0,1,445.806,137.758Z" transform="translate(-433.538 -126.729)" fill="#ad8b96"/>
                <path id="Trazado_207484" data-name="Trazado 207484" d="M445.58,136.409a6.553,6.553,0,1,1-2.063-9.035A6.554,6.554,0,0,1,445.58,136.409Z" transform="translate(-433.478 -126.37)" fill="#e7d8dd" stroke="#e7d8dd" stroke-miterlimit="10" stroke-width="1.067"/>
              </g>
              <g id="Grupo_171295" data-name="Grupo 171295" transform="translate(11.698 34.279)">
                <path id="Trazado_207485" data-name="Trazado 207485" d="M430.942,161.419a6.553,6.553,0,1,1-2.063-9.034A6.552,6.552,0,0,1,430.942,161.419Z" transform="translate(-418.674 -150.39)" fill="#ad8b96"/>
                <path id="Trazado_207486" data-name="Trazado 207486" d="M430.716,160.07a6.553,6.553,0,1,1-2.063-9.034A6.553,6.553,0,0,1,430.716,160.07Z" transform="translate(-418.614 -150.03)" fill="#e7d8dd" stroke="#e7d8dd" stroke-miterlimit="10" stroke-width="1.067"/>
              </g>
              <g id="Grupo_171296" data-name="Grupo 171296" transform="translate(0 52.9)">
                <path id="Trazado_207487" data-name="Trazado 207487" d="M414.99,186.81a6.553,6.553,0,1,1-2.063-9.035A6.552,6.552,0,0,1,414.99,186.81Z" transform="translate(-402.722 -175.781)" fill="#ad8b96"/>
                <path id="Trazado_207488" data-name="Trazado 207488" d="M414.764,185.461a6.553,6.553,0,1,1-2.062-9.035A6.553,6.553,0,0,1,414.764,185.461Z" transform="translate(-402.662 -175.422)" fill="#e7d8dd" stroke="#e7d8dd" stroke-miterlimit="10" stroke-width="1.067"/>
              </g>
            </g>
          </g>
        </g>
        <g id="Grupo_171313" data-name="Grupo 171313" transform="translate(10.294 0.625)">
          <g id="Grupo_171302" data-name="Grupo 171302" transform="translate(3.235 17.396)">
            <path id="Trazado_207489" data-name="Trazado 207489" d="M377.018,169.444c-2.772,2.479-10.616,8.428-26.228,12.85v.01l-.868.246-.009-.01a93.237,93.237,0,0,1-12.85,2.526,57.136,57.136,0,0,1-14.481.132c-.7-.1-1.291-.2-1.772-.292a2.83,2.83,0,0,1-2.122-1.83c-.678-1.885-1.951-5.5-3.544-10.106-.029-.085-.057-.169-.085-.264-4.007-11.577-9.918-29.179-13.1-41.142-.886-3.337-1.574-6.242-1.932-8.438-.037-.161-.056-.32-.085-.472-2.206-14.377,6.034-18.884,6.034-18.884l-.386-1.4L304.057,96.8l7.7-4.111,13.161-2.762,21.439-4.761,1.914,6.967s8.145-.3,13.661,10.55c.414.791.8,1.659,1.178,2.583.537,1.33,1.121,3.007,1.725,4.968,3.244,10.436,7.279,28.576,10.059,41.8.122.557.236,1.112.349,1.65,1.244,5.987,2.206,10.795,2.668,13.1A2.842,2.842,0,0,1,377.018,169.444Z" transform="translate(-299.561 -85.17)" fill="#ffa255"/>
            <path id="Trazado_207490" data-name="Trazado 207490" d="M375.064,158.41c-4.242,4.535-7.7,7.25-19.072,11.851-12.859,5.2-26.85,7.7-40.765,8.815-4.007-11.577-9.918-29.179-13.1-41.142-.886-3.337-1.574-6.242-1.932-8.438A130.528,130.528,0,0,0,362.1,109.056c.414.791.8,1.659,1.178,2.583.537,1.33,1.121,3.007,1.725,4.968C368.248,127.044,372.283,145.183,375.064,158.41Z" transform="translate(-299.729 -91.539)" fill="#faeddc"/>
            <g id="Grupo_171300" data-name="Grupo 171300" transform="translate(28.243 41.129)">
              <rect id="Rect치ngulo_49417" data-name="Rect치ngulo 49417" width="5.246" height="29.99" transform="matrix(0.951, -0.309, 0.309, 0.951, 6.168, 1.619)" fill="#fe6963"/>
              <rect id="Rect치ngulo_49418" data-name="Rect치ngulo 49418" width="6.056" height="25.981" transform="matrix(0.308, 0.951, -0.951, 0.308, 24.719, 8.193)" fill="#fe6963"/>
            </g>
            <g id="Grupo_171301" data-name="Grupo 171301" transform="translate(50.896 13.391)">
              <path id="Trazado_207491" data-name="Trazado 207491" d="M369.177,108.674a6.814,6.814,0,0,0,3.119,4.1,3.737,3.737,0,0,0,2.075.6,3.246,3.246,0,0,0,2.765-2.748,6.168,6.168,0,0,0-.911-4.02,7.121,7.121,0,0,0-1.39-1.812C371.278,101.58,368.1,104.521,369.177,108.674Z" transform="translate(-368.964 -103.43)" fill="#fff"/>
              <path id="Trazado_207492" data-name="Trazado 207492" d="M379.176,127.879a5.4,5.4,0,0,0,1.917,2.027,2.9,2.9,0,0,0,2.7.15c1.224-.638,1.623-2.205,1.605-3.585-.032-2.471-1.616-7.953-4.945-7.611C376.42,119.273,377.884,125.694,379.176,127.879Z" transform="translate(-371.325 -107.54)" fill="#fff"/>
            </g>
            <path id="Trazado_207493" data-name="Trazado 207493" d="M322.582,191.454c-.7-.1-1.291-.2-1.772-.292a2.83,2.83,0,0,1-2.122-1.83c-.678-1.885-1.951-5.5-3.544-10.106-.029-.085-.057-.169-.085-.264-4.007-11.577-9.918-29.179-13.1-41.142-.886-3.337-1.574-6.242-1.932-8.438-.037-.161-.056-.32-.085-.472-2.206-14.377,6.034-18.884,6.034-18.884l-.386-1.4a2.548,2.548,0,0,1,1.923,2.6c-.009,1.442-.829,3.026-1.093,4.459a32.984,32.984,0,0,0-.528,5.364,71.694,71.694,0,0,0,1.028,12.379q2.262,14.933,5.892,29.631C315.21,172.806,318.094,182.488,322.582,191.454Z" transform="translate(-299.561 -91.426)" fill="#3d2929" opacity="0.2"/>
          </g>
          <g id="Grupo_171312" data-name="Grupo 171312">
            <g id="Grupo_171303" data-name="Grupo 171303">
              <path id="Trazado_207494" data-name="Trazado 207494" d="M347.266,78.449a14.283,14.283,0,0,1-3.592,3.62c-.066.056-.132.114-.2.161a44.346,44.346,0,0,1-5.185,3.394c-.066.029-.132.076-.207.113-1.745.971-3.819,2.008-6.251,3.083-.066.029-.142.056-.216.095-1.669.725-3.508,1.47-5.535,2.215-.443.16-.876.32-1.3.462a1.95,1.95,0,0,1-.217.075h-.009a64.2,64.2,0,0,1-7.731,2.188,2.088,2.088,0,0,1-.235.047,47.44,47.44,0,0,1-6.723.971,2.279,2.279,0,0,1-.245.019,33.606,33.606,0,0,1-6.194-.122,2,2,0,0,1-.245-.037,15.846,15.846,0,0,1-3.894-.877l-4-15.98a4.567,4.567,0,0,1-.094-1.782,2.138,2.138,0,0,1,.037-.245,4.77,4.77,0,0,1,2.263-3.2c14.283-8.513,33.054-10.662,40.991-11.19a4.674,4.674,0,0,1,2.367.461l.227.114a4.729,4.729,0,0,1,2.243,2.809Z" transform="translate(-295.149 -61.449)" fill="#faeddc"/>
            </g>
            <g id="Grupo_171304" data-name="Grupo 171304" transform="translate(0.047 0.472)">
              <path id="Trazado_207495" data-name="Trazado 207495" d="M341.1,62.207a39.208,39.208,0,0,1-4.242,3.177c-.066.038-.132.085-.2.132a51.621,51.621,0,0,1-5.846,3.186c-.076.038-.142.066-.217.1-1.923.9-3.865,1.678-5.8,2.385v.01a2.206,2.206,0,0,0-.226.076v.01c-1.622.584-3.234,1.122-4.8,1.621-.433.142-.877.274-1.33.406-.075.028-.15.047-.235.076-2.017.584-4.149,1.1-6.421,1.565-.076.018-.16.028-.235.047-1.443.283-2.942.547-4.507.792-.792.122-1.537.235-2.244.34l-.235.028a41.657,41.657,0,0,1-5.685.5c-.161,0-.312,0-.462-.01a2.017,2.017,0,0,1-.245-.01,14.244,14.244,0,0,1-2.961-.377,2.151,2.151,0,0,1,.037-.245c3.083.735,6.374.377,11.766-.453a84.562,84.562,0,0,0,12.68-2.884,71.044,71.044,0,0,0,16.857-7.391l.01-.01.019-.01a37.593,37.593,0,0,0,4.289-3.178Z" transform="translate(-295.214 -62.093)" fill="#b0d8e4"/>
            </g>
            <g id="Grupo_171305" data-name="Grupo 171305" transform="translate(2.998 14.935)">
              <path id="Trazado_207496" data-name="Trazado 207496" d="M304.517,100.2a2,2,0,0,1-.245-.037L299.248,81.9l-.01-.019.226-.066.029.095Z" transform="translate(-299.238 -81.814)" fill="#b0d8e4"/>
            </g>
            <g id="Grupo_171306" data-name="Grupo 171306" transform="translate(9.381 14.407)">
              <path id="Trazado_207497" data-name="Trazado 207497" d="M313.277,100.11a2.282,2.282,0,0,1-.245.019q-1.159-4.342-2.347-8.749c-.914-3.4-1.829-6.807-2.724-10.154-.01-.028-.01-.047-.019-.075l.227-.057c.009.038.018.066.028.1.9,3.328,1.8,6.731,2.716,10.116C311.7,94.265,312.494,97.206,313.277,100.11Z" transform="translate(-307.941 -81.094)" fill="#b0d8e4"/>
            </g>
            <g id="Grupo_171307" data-name="Grupo 171307" transform="translate(16.348 13.191)">
              <path id="Trazado_207498" data-name="Trazado 207498" d="M322.768,98.65a2.091,2.091,0,0,1-.235.047c-1.716-6.345-3.413-12.765-5.053-19.072a.692.692,0,0,1-.038-.132l.236-.056c.01.047.028.095.037.142C319.345,85.894,321.042,92.3,322.768,98.65Z" transform="translate(-317.441 -79.436)" fill="#b0d8e4"/>
            </g>
            <g id="Grupo_171308" data-name="Grupo 171308" transform="translate(22.995 11.541)">
              <path id="Trazado_207499" data-name="Trazado 207499" d="M333.142,95.787a1.946,1.946,0,0,1-.217.075h-.009c-2.046-6.156-4.186-12.35-6.364-18.45a.869.869,0,0,0-.047-.142l.226-.085c.019.048.038.1.056.151C328.956,83.436,331.087,89.64,333.142,95.787Z" transform="translate(-326.505 -77.186)" fill="#b0d8e4"/>
            </g>
            <g id="Grupo_171309" data-name="Grupo 171309" transform="translate(29.32 9.372)">
              <path id="Trazado_207500" data-name="Trazado 207500" d="M342.494,92.227c-.066.029-.142.056-.216.095l-7.061-17.8-.085-.208.226-.085.085.208Z" transform="translate(-335.131 -74.229)" fill="#b0d8e4"/>
            </g>
            <g id="Grupo_171310" data-name="Grupo 171310" transform="translate(35.411 7.044)">
              <path id="Trazado_207501" data-name="Trazado 207501" d="M351.166,88.184c-.066.029-.132.076-.207.113-2.631-5.628-5.148-11.37-7.505-17.1-.009-.019-.009-.029-.018-.048l.216-.094c.01.01.01.028.019.037C346.019,76.824,348.536,82.565,351.166,88.184Z" transform="translate(-343.436 -71.054)" fill="#b0d8e4"/>
            </g>
            <g id="Grupo_171311" data-name="Grupo 171311" transform="translate(41.388 3.574)">
              <path id="Trazado_207502" data-name="Trazado 207502" d="M358.723,83.368c-.066.056-.132.114-.2.161-2.056-5.7-4.346-11.37-6.835-16.885-.038-.076-.066-.15-.1-.226l.01-.01.208-.085c.028.066.056.122.085.188C354.368,72.008,356.667,77.664,358.723,83.368Z" transform="translate(-351.586 -66.323)" fill="#b0d8e4"/>
            </g>
          </g>
        </g>
        <g id="Grupo_171315" data-name="Grupo 171315" transform="translate(64.685)">
          <path id="Trazado_207506" data-name="Trazado 207506" d="M374.009,84.838a5.766,5.766,0,0,1-1.082-.881c-2.782-2.963-2.485-9.071.925-14.542.018-.022.033-.058.051-.08,3.743-5.941,9.8-8.863,13.69-6.654l.188.111c3.622,2.254,3.93,8.416.876,14.165-.224.424-.454.841-.719,1.257C384.14,84.305,377.9,87.268,374.009,84.838Z" transform="translate(-369.779 -60.956)" fill="#e7d8dd"/>
          <path id="Trazado_207507" data-name="Trazado 207507" d="M372.467,83.6l-.181-.106c-3.892-2.43-3.968-9.332-.156-15.422a.8.8,0,0,1,.085-.125c3.8-6,9.974-8.91,13.836-6.5a5.8,5.8,0,0,1,1.082.881c2.666,2.836,2.506,8.585-.511,13.873-.133.231-.267.449-.408.675C382.471,82.858,376.368,85.831,372.467,83.6Z" transform="translate(-369.318 -60.596)" fill="#faeddc"/>
          <path id="Trazado_207508" data-name="Trazado 207508" d="M387.675,76.2a27.839,27.839,0,0,1-4.081-1.729,50.5,50.5,0,0,1-9.1-5.491c-.424-.331-.828-.67-1.228-1.031,3.8-6,9.974-8.91,13.836-6.5a5.8,5.8,0,0,1,1.082.881C390.852,65.158,390.692,70.907,387.675,76.2Z" transform="translate(-370.371 -60.596)" fill="#00bcd4"/>
        </g>
        <circle id="Elipse_5517" data-name="Elipse 5517" cx="5.175" cy="5.175" r="5.175" transform="translate(69.271 106.206)" fill="#faeddc"/>
      </g>
    </g>
  </g>
</svg>
