<svg xmlns="http://www.w3.org/2000/svg" width="128" height="128" viewBox="0 0 128 128">
  <g id="Grupo_172435" data-name="Grupo 172435" transform="translate(-878 -10366.701)">
    <path id="Unión_1" data-name="Unión 1" d="M10871,11722.412a64,64,0,1,1-64,64A64,64,0,0,1,10871,11722.412Z" transform="translate(-9929 -1355.711)" fill="#7e63e0"/>
    <g id="Grupo_171838" data-name="Grupo 171838" transform="translate(887.012 10390.118)">
      <rect id="Rectángulo_49429" data-name="Rectángulo 49429" width="16.863" height="4.783" transform="translate(30.6 37.746)" fill="#fff"/>
      <rect id="Rectángulo_49430" data-name="Rectángulo 49430" width="16.863" height="4.783" transform="translate(30.6 54.503)" fill="#fff"/>
      <path id="Trazado_207902" data-name="Trazado 207902" d="M108.96,126.51H87.313V91.7a8.77,8.77,0,0,1,3.395-6.954,1.1,1.1,0,0,0,.433-.978,10.359,10.359,0,0,1-.05-1.035,19.972,19.972,0,0,1,.963-5.644,6.131,6.131,0,0,1-.134-1.277c0-2.853,2.195-8.406,6.217-8.406s6.217,5.553,6.217,8.406a6.136,6.136,0,0,1-.134,1.277,19.981,19.981,0,0,1,.963,5.644,10.3,10.3,0,0,1-.05,1.035,1.1,1.1,0,0,0,.432.978h0A8.773,8.773,0,0,1,108.96,91.7ZM92.1,121.727h12.08V91.7a4.018,4.018,0,0,0-1.556-3.185h0a5.858,5.858,0,0,1-2.247-5.231,5.52,5.52,0,0,0,.026-.552,16,16,0,0,0-.937-4.792l-.288-.817.3-.812a1.43,1.43,0,0,0,.093-.5A6.282,6.282,0,0,0,98.136,72.3,6.283,6.283,0,0,0,96.7,75.808a1.426,1.426,0,0,0,.093.5l.3.812-.288.818a16,16,0,0,0-.937,4.792c0,.2.009.381.026.553a5.858,5.858,0,0,1-2.247,5.229A4.017,4.017,0,0,0,92.1,91.7Z" transform="translate(-59.104 -56.648)" fill="#fff"/>
      <rect id="Rectángulo_49431" data-name="Rectángulo 49431" width="11.913" height="4.783" transform="translate(33.076 27.586)" fill="#fff"/>
      <rect id="Rectángulo_49432" data-name="Rectángulo 49432" width="16.863" height="4.783" transform="translate(62.781 37.746)" fill="#fff"/>
      <rect id="Rectángulo_49433" data-name="Rectángulo 49433" width="16.863" height="4.783" transform="translate(62.781 54.503)" fill="#fff"/>
      <path id="Trazado_207903" data-name="Trazado 207903" d="M310.661,126.51H289.015V91.7a8.771,8.771,0,0,1,3.395-6.954,1.1,1.1,0,0,0,.432-.978,10.34,10.34,0,0,1-.05-1.035,19.971,19.971,0,0,1,.963-5.644,6.124,6.124,0,0,1-.134-1.277c0-2.853,2.195-8.406,6.217-8.406s6.217,5.553,6.217,8.406a6.137,6.137,0,0,1-.134,1.277,19.979,19.979,0,0,1,.964,5.644,10.253,10.253,0,0,1-.051,1.036,1.1,1.1,0,0,0,.433.977h0a8.771,8.771,0,0,1,3.395,6.954ZM293.8,121.727h12.08V91.7a4.018,4.018,0,0,0-1.556-3.185h0a5.859,5.859,0,0,1-2.247-5.231,5.471,5.471,0,0,0,.026-.552,16,16,0,0,0-.937-4.792l-.288-.817.3-.812a1.43,1.43,0,0,0,.094-.5,6.282,6.282,0,0,0-1.434-3.509,6.282,6.282,0,0,0-1.434,3.509,1.425,1.425,0,0,0,.093.5l.3.813-.288.818a16,16,0,0,0-.937,4.792c0,.2.009.381.026.553a5.858,5.858,0,0,1-2.247,5.23A4.017,4.017,0,0,0,293.8,91.7Z" transform="translate(-228.625 -56.648)" fill="#fff"/>
      <rect id="Rectángulo_49434" data-name="Rectángulo 49434" width="11.913" height="4.783" transform="translate(65.256 27.586)" fill="#fff"/>
      <path id="Trazado_207904" data-name="Trazado 207904" d="M93.255,81.687H61.193l-6.07-3.162-6.07,3.162H16.989V0H49.052l6.07,3.162L61.193,0H93.255ZM62.364,76.9H88.472V4.783H62.364L55.122,8.555,47.881,4.783H21.772V76.9H47.881l7.241-3.772Z" fill="#fff"/>
      <rect id="Rectángulo_49435" data-name="Rectángulo 49435" width="4.783" height="10.284" transform="translate(52.731 14.164)" fill="#fff"/>
    </g>
  </g>
</svg>
