<svg xmlns="http://www.w3.org/2000/svg" width="134" height="134" viewBox="0 0 134 134">
  <g id="Grupo_172441" data-name="Grupo 172441" transform="translate(-838.287 -7622)">
    <circle id="Elipse_5600" data-name="Elipse 5600" cx="67" cy="67" r="67" transform="translate(838.287 7622)" fill="#d1c5f5"/>
    <g id="g5013" transform="translate(860.054 7636.407)">
      <g id="g5015" transform="translate(-0.833 0.367)">
        <rect id="Rectángulo_49457" data-name="Rectángulo 49457" width="99.067" height="99.067" transform="translate(0 0)" fill="none"/>
        <g id="g5017" transform="translate(0 0.044)">
          <g id="g5023" transform="translate(1.935 49.414)">
            <path id="path5025" d="M107.7,342.661a8.108,8.108,0,0,1-8.11,8.122H90.344a4.581,4.581,0,0,0-4.614,4.343,4.511,4.511,0,0,0,4.506,4.674,4.509,4.509,0,0,0,0,9.018,4.509,4.509,0,0,0,0,9.018,4.509,4.509,0,0,0,0,9.018H76.261a9.248,9.248,0,0,1-4.009-.915l-7.729-3.722a9.233,9.233,0,0,0-5.445-.8l-46.571,7.4-.008-.01V354.689l44.66,2.316a9.239,9.239,0,0,0,7.538-3.264l8.093-9.581a8.4,8.4,0,0,1,6.419-2.979H106.2a1.489,1.489,0,0,1,1.494,1.48" transform="translate(-12.5 -341.181)" fill="#ffd0c6"/>
          </g>
          <g id="g5027" transform="translate(75.162 86.068)">
            <path id="path5029" d="M517.107,598.278h0a4.509,4.509,0,0,1,4.509-4.509h6.068a4.509,4.509,0,0,1,0,9.018h-6.068a4.509,4.509,0,0,1-4.509-4.509" transform="translate(-517.107 -593.769)" fill="#ffd0c6"/>
          </g>
          <g id="g5031" transform="translate(75.162 77.051)">
            <path id="path5033" d="M517.107,536.138h0a4.509,4.509,0,0,1,4.509-4.509H531.8a4.509,4.509,0,0,1,0,9.018H521.616a4.509,4.509,0,0,1-4.509-4.509" transform="translate(-517.107 -531.629)" fill="#ffd0c6"/>
          </g>
          <g id="g5035" transform="translate(75.162 68.033)">
            <path id="path5037" d="M517.107,474h0a4.509,4.509,0,0,1,4.509-4.509h12.921a4.509,4.509,0,0,1,0,9.018H521.616A4.509,4.509,0,0,1,517.107,474" transform="translate(-517.107 -469.488)" fill="#ffd0c6"/>
          </g>
          <g id="g5039" transform="translate(75.162 59.016)">
            <path id="path5041" d="M517.107,411.857h0a4.509,4.509,0,0,1,4.509-4.509h9.9a4.509,4.509,0,0,1,0,9.018h-9.9a4.509,4.509,0,0,1-4.509-4.509" transform="translate(-517.107 -407.348)" fill="#ffd0c6"/>
          </g>
          <g id="g5043" transform="translate(73.227 84.134)">
            <path id="Trazado_207989" data-name="Trazado 207989" d="M516.286,593.323h-6.068a6.444,6.444,0,1,1,0-12.888h6.068a6.444,6.444,0,0,1,0,12.888Zm-6.068-9.018a2.574,2.574,0,1,0,0,5.148h6.068a2.574,2.574,0,0,0,0-5.148Z" transform="translate(-503.774 -580.436)"/>
          </g>
          <g id="g5047" transform="translate(73.227 75.116)">
            <path id="Trazado_207990" data-name="Trazado 207990" d="M520.4,531.183H510.218a6.444,6.444,0,1,1,0-12.887H520.4a6.444,6.444,0,0,1,0,12.887Zm-10.182-9.018a2.574,2.574,0,1,0,0,5.148H520.4a2.574,2.574,0,0,0,0-5.148Z" transform="translate(-503.774 -518.296)"/>
          </g>
          <g id="g5051" transform="translate(73.227 66.098)">
            <path id="Trazado_207991" data-name="Trazado 207991" d="M523.139,469.043H510.218a6.444,6.444,0,1,1,0-12.888h12.921a6.444,6.444,0,0,1,0,12.888Zm-12.921-9.018a2.574,2.574,0,1,0,0,5.148h12.921a2.574,2.574,0,0,0,0-5.148Z" transform="translate(-503.774 -456.155)"/>
          </g>
          <g id="g5055" transform="translate(73.227 57.081)">
            <path id="Trazado_207992" data-name="Trazado 207992" d="M520.115,406.9h-9.9a6.444,6.444,0,1,1,0-12.888h9.9a6.444,6.444,0,0,1,0,12.888Zm-9.9-9.018a2.574,2.574,0,0,0,0,5.148h9.9a2.574,2.574,0,0,0,0-5.148Z" transform="translate(-503.774 -394.014)"/>
          </g>
          <g id="g5059" transform="translate(62.175 59.713)">
            <path id="Trazado_207993" data-name="Trazado 207993" d="M429.546,423.621a1.935,1.935,0,1,1,0-3.87c5.946,0,9.741-6.552,9.779-6.618a1.935,1.935,0,0,1,3.371,1.9C442.5,415.385,437.773,423.621,429.546,423.621Z" transform="translate(-427.611 -412.153)"/>
          </g>
          <g id="g5063" transform="translate(0.008 92.164)">
            <path id="Trazado_207994" data-name="Trazado 207994" d="M1.154,642.584a1.935,1.935,0,0,1-.3-3.846l18.534-2.944a1.935,1.935,0,1,1,.607,3.822L1.46,642.56A1.94,1.94,0,0,1,1.154,642.584Z" transform="translate(0.779 -635.77)"/>
          </g>
          <g id="g5067" transform="translate(0 47.478)">
            <path id="Trazado_207995" data-name="Trazado 207995" d="M78.838,377.385H64.863a11.241,11.241,0,0,1-4.849-1.107l-7.729-3.722a7.274,7.274,0,0,0-4.305-.635l-11.317,1.8a1.935,1.935,0,0,1-.607-3.822l11.32-1.8a11.128,11.128,0,0,1,6.588.971l7.729,3.722a7.351,7.351,0,0,0,3.17.724h8.067a6.436,6.436,0,0,1,1.308-7.083,6.433,6.433,0,0,1,0-9.018,6.433,6.433,0,0,1,0-9.016l-.037-.038a6.4,6.4,0,0,1,.236-9.142,6.593,6.593,0,0,1,4.51-1.775h9.241a6.175,6.175,0,0,0,6.16-5.733H67.811a6.455,6.455,0,0,0-4.941,2.294l-8.092,9.58a11.232,11.232,0,0,1-9.118,3.949L1,345.218a1.935,1.935,0,0,1,.2-3.865L45.86,343.67a7.349,7.349,0,0,0,5.961-2.582l8.092-9.58a10.317,10.317,0,0,1,7.9-3.666H94.8a3.429,3.429,0,0,1,3.429,3.412,10.044,10.044,0,0,1-10.045,10.06H78.947a2.653,2.653,0,0,0-2.681,2.478,2.575,2.575,0,0,0,2.572,2.671,1.935,1.935,0,1,1,0,3.87,2.574,2.574,0,1,0,0,5.148,1.935,1.935,0,1,1,0,3.87,2.574,2.574,0,1,0,0,5.148,1.935,1.935,0,0,1,0,3.87,2.574,2.574,0,1,0,0,5.148,1.935,1.935,0,0,1,0,3.87Z" transform="translate(0.833 -327.842)"/>
          </g>
          <g id="g5071" transform="translate(27.013 90.819)">
            <path id="Trazado_207996" data-name="Trazado 207996" d="M187.244,630.375a1.644,1.644,0,0,1-.19-.01c-.062-.006-.126-.016-.187-.027a2.011,2.011,0,0,1-.363-.11,2.065,2.065,0,0,1-.334-.178c-.052-.035-.1-.073-.152-.112a1.671,1.671,0,0,1-.141-.129,1.694,1.694,0,0,1-.129-.141c-.039-.048-.077-.1-.112-.152a2.054,2.054,0,0,1-.178-.334,2.012,2.012,0,0,1-.11-.363c-.012-.062-.022-.125-.028-.187a1.7,1.7,0,0,1-.01-.19,1.656,1.656,0,0,1,.01-.19c.006-.064.016-.126.028-.189a1.957,1.957,0,0,1,.11-.361,2.061,2.061,0,0,1,.178-.335c.035-.052.073-.1.112-.152s.084-.1.129-.141a1.41,1.41,0,0,1,.141-.128,1.886,1.886,0,0,1,.152-.113,2.046,2.046,0,0,1,.334-.179,2.021,2.021,0,0,1,.363-.11c.061-.012.125-.022.187-.027a1.946,1.946,0,0,1,1.559.557,1.659,1.659,0,0,1,.128.141c.041.049.078.1.113.152a1.967,1.967,0,0,1,.289.7c.012.062.022.125.028.189s.01.126.01.19,0,.126-.01.19-.016.125-.028.187a2.136,2.136,0,0,1-.11.363,2.054,2.054,0,0,1-.178.334,1.675,1.675,0,0,1-.113.152,1.462,1.462,0,0,1-.128.141c-.045.045-.091.089-.141.129s-.1.077-.154.112a2.005,2.005,0,0,1-.334.178,1.962,1.962,0,0,1-.361.11c-.062.012-.125.022-.187.027A1.651,1.651,0,0,1,187.244,630.375Z" transform="translate(-185.31 -626.505)"/>
          </g>
          <g id="g5075" transform="translate(19.333 40.603)">
            <path id="path5077" d="M132.391,303.687v-4.41a3.556,3.556,0,0,1,3.556-3.556h4.245a1.426,1.426,0,0,0,1.008-2.434l-1.2-1.2a8.127,8.127,0,0,1,.126-11.616l9.149,9.149a10.476,10.476,0,0,1,3.068,7.408v7.7Z" transform="translate(-132.391 -280.465)" fill="#e0e7ef"/>
          </g>
          <g id="g5079" transform="translate(17.398 38.668)">
            <path id="Trazado_207997" data-name="Trazado 207997" d="M140.942,295.258l-.1,0-19.949-1.035a1.935,1.935,0,0,1-1.835-1.932v-4.41a5.5,5.5,0,0,1,5.491-5.491h3.017l-.336-.336a10.061,10.061,0,0,1,.156-14.382,1.935,1.935,0,0,1,2.706.029l9.149,9.149a12.331,12.331,0,0,1,3.635,8.776v7.7a1.935,1.935,0,0,1-1.935,1.935Zm-18.014-4.807,16.079.834v-5.662a8.486,8.486,0,0,0-2.5-6.04l-7.6-7.6a6.2,6.2,0,0,0,1.066,7.336l1.2,1.2a3.361,3.361,0,0,1-2.376,5.738h-4.245a1.623,1.623,0,0,0-1.621,1.621Z" transform="translate(-119.058 -267.131)"/>
          </g>
          <g id="g5083" transform="translate(33.411 7.484)">
            <path id="path5085" d="M254.159,61.357l-9.112-9.112L231.833,70.352a9.139,9.139,0,0,0-1.425,3.423l-1.01,5.243,3.55,3.55,3.55,3.55,5.243-1.01a9.139,9.139,0,0,0,3.422-1.425l18.107-13.213Z" transform="translate(-229.398 -52.245)" fill="#ff9d00"/>
          </g>
          <g id="g5087" transform="translate(49.06 1.935)">
            <path id="path5089" d="M361.007,32.231,342.784,14.007l-5.549,5.549L355.459,37.78Z" transform="translate(-337.235 -14.007)" fill="#ff9d00"/>
          </g>
          <g id="g5091" transform="translate(27.065 34.257)">
            <path id="path5093" d="M192.017,236.737l-6.346,6.346,7.1,7.1,6.346-6.346Z" transform="translate(-185.671 -236.737)" fill="#ffc135"/>
          </g>
          <g id="g5095" transform="translate(31.476 5.549)">
            <path id="Trazado_207998" data-name="Trazado 207998" d="M225.1,76.654a1.934,1.934,0,0,1-1.368-.567l-7.1-7.1a1.935,1.935,0,0,1-.532-1.734l1.01-5.243a11.01,11.01,0,0,1,1.727-4.147l.035-.05,13.214-18.107a1.935,1.935,0,0,1,2.931-.228L253.241,57.7a1.935,1.935,0,0,1-.228,2.931L234.906,73.847l-.05.035a11.011,11.011,0,0,1-4.147,1.727l-5.243,1.01A1.944,1.944,0,0,1,225.1,76.654Zm-5.005-9.677,5.647,5.648,4.235-.816a7.159,7.159,0,0,0,2.674-1.108L248.906,58.84l-7.513-7.513h0l-7.513-7.513L222.017,60.068a7.16,7.16,0,0,0-1.107,2.674Z" transform="translate(-216.065 -38.912)"/>
          </g>
          <g id="g5099" transform="translate(47.125)">
            <path id="Trazado_207999" data-name="Trazado 207999" d="M344.06,28.317a1.934,1.934,0,0,1-1.368-.567L324.468,9.526a1.935,1.935,0,0,1,0-2.736l5.549-5.549a1.935,1.935,0,0,1,2.736,0l18.224,18.224a1.935,1.935,0,0,1,0,2.736l-5.549,5.549A1.935,1.935,0,0,1,344.06,28.317ZM328.573,8.158,344.06,23.645l2.812-2.812L331.385,5.345Z" transform="translate(-323.902 -0.674)"/>
          </g>
          <g id="g5103" transform="translate(25.13 32.322)">
            <path id="Trazado_208000" data-name="Trazado 208000" d="M181.371,240.719a1.935,1.935,0,0,1-1.368-.567l-7.1-7.1a1.935,1.935,0,0,1,0-2.736l6.346-6.346a1.935,1.935,0,0,1,1.368-.567h0a1.935,1.935,0,0,1,1.368.567l7.1,7.1a1.935,1.935,0,0,1,0,2.736l-6.346,6.346A1.934,1.934,0,0,1,181.371,240.719Zm-4.363-9.034,4.363,4.363,3.609-3.609-4.363-4.363Z" transform="translate(-172.337 -223.404)"/>
          </g>
        </g>
      </g>
    </g>
  </g>
</svg>
