<svg xmlns="http://www.w3.org/2000/svg" width="134" height="134" viewBox="0 0 134 134">
  <g id="Grupo_172439" data-name="Grupo 172439" transform="translate(-838.287 -7022)">
    <circle id="Elipse_5599" data-name="Elipse 5599" cx="67" cy="67" r="67" transform="translate(838.287 7022)" fill="#d1c5f5"/>
    <g id="Grupo_171899" data-name="Grupo 171899" transform="translate(859.22 7020.582)">
      <g id="Grupo_171898" data-name="Grupo 171898" transform="translate(1.844 27.845)">
        <path id="Trazado_208001" data-name="Trazado 208001" d="M74,61.081h67.129C141.129,37,95.577,59.49,95.577,36,82.926,39.39,74,48.233,74,61.081Z" transform="translate(-62.197 -36)" fill="#ffe7c3" fill-rule="evenodd"/>
        <path id="Trazado_208002" data-name="Trazado 208002" d="M115.031,172H47.9a5.918,5.918,0,0,0-5.9,5.9h78.932A5.918,5.918,0,0,0,115.031,172Z" transform="translate(-36.099 -146.919)" fill="#b3b3b3" fill-rule="evenodd"/>
        <path id="Trazado_208003" data-name="Trazado 208003" d="M42,204h78.932v5.9H42Z" transform="translate(-36.099 -173.017)" fill="#b3b3b3" fill-rule="evenodd"/>
        <path id="Trazado_208004" data-name="Trazado 208004" d="M94.833,236H15.9a5.918,5.918,0,0,0-5.9,5.9v26.557a11.838,11.838,0,0,0,11.8,11.8H88.932a11.838,11.838,0,0,0,11.8-11.8V241.9A5.918,5.918,0,0,0,94.833,236Zm-66.023,9.221H81.924a2.959,2.959,0,0,1,2.951,2.951v19.917a2.959,2.959,0,0,1-2.951,2.951H28.811a2.959,2.959,0,0,1-2.951-2.951V248.172A2.959,2.959,0,0,1,28.811,245.221Z" transform="translate(-10 -199.116)" fill="#ff836c" fill-rule="evenodd"/>
        <path id="Trazado_208005" data-name="Trazado 208005" d="M152.064,286H98.951A2.959,2.959,0,0,0,96,288.951v19.917a2.959,2.959,0,0,0,2.951,2.951h53.113a2.959,2.959,0,0,0,2.951-2.951V288.951A2.959,2.959,0,0,0,152.064,286Z" transform="translate(-80.14 -239.895)" fill="#e6e6e6" fill-rule="evenodd"/>
      </g>
      <path id="Trazado_208006" data-name="Trazado 208006" d="M88.522,63.108V60.672h1.107a1.844,1.844,0,1,0,0-3.688H88.3a7.771,7.771,0,0,0-5.748-5.694A12.033,12.033,0,0,0,74.233,40.4c-4.606-1.747-10.6-1.917-16.393-2.082-12.924-.367-20.771-1.255-20.771-10.469a1.845,1.845,0,0,0-2.321-1.782c-.646.173-1.291.362-1.918.563a1.844,1.844,0,0,0,.709,3.6c.658,4.724,3.367,8,8.079,9.764C46.13,41.671,52.03,41.839,57.735,42c12.292.349,20.083,1.175,21.086,9.081H15.56a21.664,21.664,0,0,1,7.127-14.647,1.844,1.844,0,1,0-2.49-2.721,25.275,25.275,0,0,0-8.347,17.58,7.769,7.769,0,0,0-5.726,5.688H4.795a1.844,1.844,0,0,0,0,3.688H5.9v2.437A7.759,7.759,0,0,0,0,70.63V97.187a13.662,13.662,0,0,0,13.647,13.647H80.776A13.662,13.662,0,0,0,94.423,97.187V70.631A7.758,7.758,0,0,0,88.522,63.108ZM13.647,54.771H80.776a4.06,4.06,0,0,1,3.612,2.213H10.035A4.06,4.06,0,0,1,13.647,54.771Zm71.186,5.9v2.213H9.59V60.672Zm5.9,36.515a9.97,9.97,0,0,1-9.959,9.959H13.647a9.971,9.971,0,0,1-9.959-9.959V70.631a4.061,4.061,0,0,1,4.057-4.057H86.678a4.061,4.061,0,0,1,4.057,4.057Z"/>
      <path id="Trazado_208007" data-name="Trazado 208007" d="M131.606,51.195a1.823,1.823,0,0,0,.972-.28l.032-.019a1.844,1.844,0,0,0-1.946-3.133l-.031.019a1.847,1.847,0,0,0,.974,3.414Z" transform="translate(-105.832 -17.518)"/>
      <path id="Trazado_208008" data-name="Trazado 208008" d="M143.908,276H90.795A4.8,4.8,0,0,0,86,280.795v19.917a4.8,4.8,0,0,0,4.795,4.795h53.113a4.8,4.8,0,0,0,4.795-4.795V280.795A4.8,4.8,0,0,0,143.908,276Zm1.107,24.712a1.122,1.122,0,0,1-1.107,1.107H90.795a1.121,1.121,0,0,1-1.107-1.107V280.795a1.121,1.121,0,0,1,1.107-1.107h53.113a1.122,1.122,0,0,1,1.107,1.107Z" transform="translate(-70.14 -203.894)"/>
      <path id="Trazado_208009" data-name="Trazado 208009" d="M344.377,386h-7.568a1.844,1.844,0,1,0,0,3.688h7.568a1.844,1.844,0,0,0,0-3.688Z" transform="translate(-273.191 -293.605)"/>
      <path id="Trazado_208010" data-name="Trazado 208010" d="M307.884,386h-.044a1.844,1.844,0,1,0,0,3.688h.044a1.844,1.844,0,1,0,0-3.688Z" transform="translate(-249.564 -293.608)"/>
      <path id="Trazado_208011" data-name="Trazado 208011" d="M117.844,309.688h11.987a1.844,1.844,0,1,0,0-3.688H117.844a1.844,1.844,0,1,0,0,3.688Z" transform="translate(-94.607 -228.361)"/>
      <path id="Trazado_208012" data-name="Trazado 208012" d="M141.819,336H117.844a1.844,1.844,0,1,0,0,3.688h23.975a1.844,1.844,0,1,0,0-3.688Z" transform="translate(-94.607 -252.829)"/>
    </g>
  </g>
</svg>
