<svg xmlns="http://www.w3.org/2000/svg" width="134" height="134" viewBox="0 0 134 134">
  <g id="Grupo_172438" data-name="Grupo 172438" transform="translate(-418.287 -7022)">
    <circle id="Elipse_5598" data-name="Elipse 5598" cx="67" cy="67" r="67" transform="translate(418.287 7022)" fill="#d1c5f5"/>
    <g id="Beauty_Hand_Cream" data-name="Beauty Hand Cream" transform="translate(446.221 7042.039)">
      <g id="Filled" transform="translate(1.557 1.557)">
        <path id="Trazado_208013" data-name="Trazado 208013" d="M75.239,61.822,85.521,60.24a17.987,17.987,0,0,0,14.689-13.32l-1.043-6.847a20.4,20.4,0,0,0-1.493-4.3A13.667,13.667,0,0,0,92.61,29.8c2.4-2.515,3.88-4.033,3.88-7.786A14.017,14.017,0,0,0,82.474,8H74.687C80,14.379,71.649,21.332,64.826,25.1a7.04,7.04,0,0,0-2.157,10.56c.107.132.216.255.325.37A9.275,9.275,0,0,0,56,43.818a14.061,14.061,0,0,0,.276,2.78l1.687,8.037A17.981,17.981,0,0,0,75.239,61.822Z" transform="translate(-46.656 -8)" fill="#f5f5f5"/>
        <circle id="Elipse_5603" data-name="Elipse 5603" cx="2.271" cy="2.271" r="2.271" transform="translate(26.604 12.716)" fill="#fff"/>
        <path id="Trazado_208014" data-name="Trazado 208014" d="M99.261,137.736a18.629,18.629,0,0,0-4.32-8.475,30.649,30.649,0,0,1-38.716,11.656,8.706,8.706,0,0,0,.153,3.341l1.694,8.039a17.969,17.969,0,0,0,17.266,7.183L85.615,157.9a18,18,0,0,0,14.7-13.315Z" transform="translate(-46.761 -105.656)" fill="#ededed"/>
        <path id="Trazado_208015" data-name="Trazado 208015" d="M326.089,146.26,319.8,125.229,316.267,112l-.538.241a9.406,9.406,0,0,0-5.35,10.608h0l4.81,29.641Z" transform="translate(-251.34 -91.755)" fill="#f4c2b5"/>
        <path id="Trazado_208016" data-name="Trazado 208016" d="M385.925,117.375l-2.6-12.735-2.479-11.69A11.557,11.557,0,0,1,387.435,80h0l1.351,5.188,6.482,25.958Z" transform="translate(-308.061 -65.984)" fill="#f4c2b5"/>
        <path id="Trazado_208017" data-name="Trazado 208017" d="M64.062,142.932l10.9-3.115L90.536,125.8l2.714-12.666a11.558,11.558,0,0,1,11.3-9.136h0L99.88,132.031,74.963,156.948l-34.42,7.943a7.83,7.83,0,0,0-6.07,7.63v10.9H8V153.833c0-12.458,4.672-26.474,23.359-26.474,2.368,0,8.922,1.557,10.9,1.557,7.12,0,14.319-3.322,20.245-5.626,3.027-1.177,7.482.032,9.093,2.852h0c1.839,3.219.83,7.735-2.637,9.048-6.232,2.358-23.587,5.75-23.587,12.413Z" transform="translate(-8 -85.313)" fill="#ffdfd4"/>
        <path id="Trazado_208018" data-name="Trazado 208018" d="M40.543,164.891l34.42-7.943L99.88,132.031,104.552,104h0a11.54,11.54,0,0,0-7.815,3.046q.027.81.029,1.626a48.275,48.275,0,0,1-85.852,30.308A35,35,0,0,0,8,153.833v29.588H34.474v-10.9A7.83,7.83,0,0,1,40.543,164.891Z" transform="translate(-8 -85.313)" fill="#f9d4c7"/>
        <circle id="Elipse_5604" data-name="Elipse 5604" cx="2.271" cy="2.271" r="2.271" transform="translate(18.428 56.321)" fill="#fff5f2"/>
        <ellipse id="Elipse_5605" data-name="Elipse 5605" cx="4.542" cy="4.996" rx="4.542" ry="4.996" transform="translate(9.344 46.328)" fill="#fff5f2"/>
      </g>
      <g id="Outline">
        <path id="Trazado_208019" data-name="Trazado 208019" d="M35.818,201.913c6.468,0,12.8-2.534,18.38-4.769.845-.338,1.644-.658,2.429-.963,2.45-.953,6.005.124,7.177,2.174a5.471,5.471,0,0,1,.4,4.447,3.841,3.841,0,0,1-2.235,2.371c-1.279.484-3.064,1.019-5.131,1.638-8.67,2.6-19.461,5.832-19.461,12.232a1.557,1.557,0,0,0,3.115,0c0-1.614,1.88-3.369,5.436-5.076a86.2,86.2,0,0,1,11.8-4.173c2.124-.636,3.958-1.186,5.34-1.709a6.907,6.907,0,0,0,4.064-4.231,8.55,8.55,0,0,0-.626-7.047c-1.947-3.4-7.09-5.055-11.01-3.531-.8.311-1.606.633-2.458.975-5.322,2.132-11.355,4.547-17.222,4.547a42.811,42.811,0,0,1-4.738-.7,44.288,44.288,0,0,0-6.163-.855c-9.007,0-15.725,3.107-19.968,9.236C1.711,211.153,0,217.653,0,225.272V253.3a1.557,1.557,0,1,0,3.115,0V225.272c0-11.367,3.782-24.917,21.8-24.917a45.8,45.8,0,0,1,5.616.807A39.462,39.462,0,0,0,35.818,201.913Z" transform="translate(0 -155.194)" fill="#12263f"/>
        <path id="Trazado_208020" data-name="Trazado 208020" d="M208.822,96.551A1.557,1.557,0,0,0,207.635,96a13.183,13.183,0,0,0-12.824,10.367L192.2,118.539l-14.93,13.437-10.555,3.016a1.557,1.557,0,0,0,.857,2.995l10.9-3.115a1.554,1.554,0,0,0,.614-.34l15.573-14.016a1.557,1.557,0,0,0,.481-.831l2.714-12.666a10.064,10.064,0,0,1,7.91-7.727l-4.257,25.547-24.248,24.248-33.984,7.843A9.345,9.345,0,0,0,136,166.078l-.252,9.889a1.557,1.557,0,1,0,3.115,0l.252-9.889a6.244,6.244,0,0,1,4.862-6.112l34.42-7.942a1.557,1.557,0,0,0,.751-.416l24.917-24.917a1.557,1.557,0,0,0,.435-.845l4.672-28.031A1.557,1.557,0,0,0,208.822,96.551Z" transform="translate(-109.526 -77.313)" fill="#12263f"/>
        <path id="Trazado_208021" data-name="Trazado 208021" d="M375.4,98.52a1.557,1.557,0,1,0,3.05-.632l0-.014-2.479-11.69A10.063,10.063,0,0,1,380.036,75.9l3.035,13.327a1.557,1.557,0,1,0,3.014-.785l-3.544-15.281a1.557,1.557,0,0,0-2.141-1.03,13.181,13.181,0,0,0-7.482,14.7Z" transform="translate(-300.102 -57.984)" fill="#12263f"/>
        <path id="Trazado_208022" data-name="Trazado 208022" d="M305.3,121.928c.84.816,1.372.985,1.187.145v-2c-.688-3.179-.353-10.455,2.361-12.248l6.4,24.776a1.557,1.557,0,0,0,3.008-.8l-6.894-26.641a1.558,1.558,0,0,0-2.14-1.02l-.538.24c-4.736,2.133-6.335,11.288-5.236,16.364C303.626,121.581,304.456,121.112,305.3,121.928Z" transform="translate(-243.366 -83.756)" fill="#12263f"/>
        <path id="Trazado_208023" data-name="Trazado 208023" d="M49.832,41.712a1.558,1.558,0,0,0,1.529-1.865h0a12.557,12.557,0,0,1-.246-2.473,7.753,7.753,0,0,1,5.672-6.229H58.9a1.557,1.557,0,1,0,0-3.115H57.277a5.33,5.33,0,0,1-.926-4.184,5.574,5.574,0,0,1,2.785-3.826c3.3-1.821,11.084-6.7,12.213-12.709a7.552,7.552,0,0,0-.37-4.2h5.052A12.459,12.459,0,0,1,88.489,15.573c0,3.1-1.064,4.214-3.395,6.654l-.054.056c-.01.011-.019.023-.029.033s-.027.028-.039.043a19.954,19.954,0,0,1-10.8,5.7,1.557,1.557,0,0,0,.611,3.054,24.023,24.023,0,0,0,11.581-5.734,13.371,13.371,0,0,1,3.468,4.626,18.977,18.977,0,0,1,1.378,3.965,1.557,1.557,0,1,0,3.058-.589q-.009-.049-.022-.1a21.813,21.813,0,0,0-1.608-4.627,16.732,16.732,0,0,0-4.115-5.53A10.007,10.007,0,0,0,91.6,15.573,15.574,15.574,0,0,0,76.031,0H68.245a1.557,1.557,0,0,0-1.2,2.554,4.863,4.863,0,0,1,1.239,4.183c-.613,3.263-4.6,7.21-10.657,10.558a8.68,8.68,0,0,0-4.337,5.959,8.458,8.458,0,0,0,.827,5.6A10.506,10.506,0,0,0,48,37.375a15.7,15.7,0,0,0,.307,3.087A1.557,1.557,0,0,0,49.832,41.712Z" transform="translate(-38.656)" fill="#12263f"/>
        <path id="Trazado_208024" data-name="Trazado 208024" d="M201.612,42.711a1.556,1.556,0,0,0,2.088-.694v0a6.593,6.593,0,0,0,.258-5.412,8.124,8.124,0,0,0-4.769-4.527,1.557,1.557,0,0,0-1.134,2.9l.033.012a5.017,5.017,0,0,1,2.971,2.749,3.469,3.469,0,0,1-.143,2.884A1.557,1.557,0,0,0,201.612,42.711Z" transform="translate(-158.705 -25.745)" fill="#12263f"/>
        <ellipse id="Elipse_5606" data-name="Elipse 5606" cx="1.363" cy="1.817" rx="1.363" ry="1.817" transform="translate(28.161 27.9)" fill="#12263f"/>
        <ellipse id="Elipse_5607" data-name="Elipse 5607" cx="1.817" cy="1.363" rx="1.817" ry="1.363" transform="translate(26.344 96.941)" fill="#12263f"/>
      </g>
    </g>
  </g>
</svg>
