<svg xmlns="http://www.w3.org/2000/svg" width="128" height="128" viewBox="0 0 128 128">
  <g id="Grupo_172438" data-name="Grupo 172438" transform="translate(-583.999 -10543.701)">
    <path id="Unión_3" data-name="Unión 3" d="M10871,11722.412a64,64,0,1,1-64,64A64,64,0,0,1,10871,11722.412Z" transform="translate(11518.999 22394.113) rotate(180)" fill="#7e63e0"/>
    <g id="Grupo_171837" data-name="Grupo 171837" transform="translate(644.355 10784.682)">
      <path id="Trazado_207900" data-name="Trazado 207900" d="M27.769-174.236a4.1,4.1,0,0,0,1.424-3.112,4.086,4.086,0,0,0-1.406-3.072l1.562-3.9a6.966,6.966,0,0,0,1.216.122,6.863,6.863,0,0,0,6.855-6.855,6.783,6.783,0,0,0-.677-2.92l2.513-1.885a4.087,4.087,0,0,0,2.277.692,4.118,4.118,0,0,0,4.113-4.113,4.118,4.118,0,0,0-4.113-4.113,4.118,4.118,0,0,0-4.113,4.113,4.032,4.032,0,0,0,.206,1.218l-2.533,1.9a6.844,6.844,0,0,0-1.733-1.138l3.193-14.369a4.1,4.1,0,0,0,3.61-4.062,4.118,4.118,0,0,0-4.113-4.113,4.118,4.118,0,0,0-4.113,4.113,4.1,4.1,0,0,0,1.936,3.475L30.68-197.9c-.038,0-.075-.012-.115-.012a6.812,6.812,0,0,0-3.774,1.142L23.3-200.264a4.045,4.045,0,0,0,.413-1.762,4.118,4.118,0,0,0-4.113-4.113,4.066,4.066,0,0,0-1.371.252v-2.994a2.745,2.745,0,0,0,2.742-2.742v-5.484a2.745,2.745,0,0,0-2.742-2.742H-11.936a2.745,2.745,0,0,0-2.742,2.742v1.486a9.718,9.718,0,0,0-1.371-.115,9.587,9.587,0,0,0-7.875,4.126l-7.257-3.629a3.967,3.967,0,0,0,.051-.5,4.118,4.118,0,0,0-4.113-4.113,4.118,4.118,0,0,0-4.113,4.113,4.118,4.118,0,0,0,4.113,4.113,4.093,4.093,0,0,0,2.847-1.157l7.244,3.622a9.523,9.523,0,0,0-.495,3.019,9.61,9.61,0,0,0,6.9,9.2l-1.427,9.992a8.165,8.165,0,0,0-4.386,1.287l-4.339-4.822a4.061,4.061,0,0,0,.514-1.951,4.118,4.118,0,0,0-4.113-4.113,4.118,4.118,0,0,0-4.113,4.113,4.118,4.118,0,0,0,4.113,4.113,4.1,4.1,0,0,0,1.574-.315l4.327,4.808a8.174,8.174,0,0,0-1.788,5.1,8.109,8.109,0,0,0,.676,3.179l-5.012,3.19a4.066,4.066,0,0,0-2.518-.886,4.118,4.118,0,0,0-4.113,4.113,4.118,4.118,0,0,0,4.113,4.113,4.118,4.118,0,0,0,4.113-4.113,4.06,4.06,0,0,0-.113-.92l5.006-3.185a8.207,8.207,0,0,0,2.247,1.753l-11.666,12.832a14.191,14.191,0,0,0-3.7,9.569,14.24,14.24,0,0,0,14.224,14.224H31.421a14.24,14.24,0,0,0,14.224-14.224,14.193,14.193,0,0,0-3.7-9.568Zm8.279-42.87a1.372,1.372,0,0,1,1.371,1.371,1.372,1.372,0,0,1-1.371,1.371,1.372,1.372,0,0,1-1.371-1.371A1.372,1.372,0,0,1,36.048-217.106Zm-71.29,2.742a1.372,1.372,0,0,1-1.371-1.371,1.372,1.372,0,0,1,1.371-1.371,1.372,1.372,0,0,1,1.371,1.371A1.372,1.372,0,0,1-35.242-214.364Zm0,46.613a1.372,1.372,0,0,1-1.371-1.371,1.372,1.372,0,0,1,1.371-1.371,1.372,1.372,0,0,1,1.371,1.371A1.372,1.372,0,0,1-35.242-167.751Zm59.337-10.525a1.36,1.36,0,0,1,.986-.443,1.372,1.372,0,0,1,1.371,1.371,1.355,1.355,0,0,1-.54,1.069Zm1.147-3.168c-.055,0-.107-.016-.162-.016a4.106,4.106,0,0,0-2.835,1.15l-4.02-4.423v-13.433a4.035,4.035,0,0,0,1.371.254,4.047,4.047,0,0,0,1.762-.413l3.493,3.493a6.812,6.812,0,0,0-1.142,3.774,6.851,6.851,0,0,0,3.09,5.718Zm16.29-19.21a1.372,1.372,0,0,1,1.371,1.371,1.372,1.372,0,0,1-1.371,1.371,1.372,1.372,0,0,1-1.371-1.371A1.372,1.372,0,0,1,41.532-200.654ZM30.564-195.17a4.118,4.118,0,0,1,4.113,4.113,4.118,4.118,0,0,1-4.113,4.113,4.118,4.118,0,0,1-4.113-4.113A4.118,4.118,0,0,1,30.564-195.17ZM19.6-203.4a1.372,1.372,0,0,1,1.371,1.371,1.372,1.372,0,0,1-1.371,1.371,1.372,1.372,0,0,1-1.371-1.371A1.372,1.372,0,0,1,19.6-203.4Zm-31.532-13.71H18.226v5.484H-11.936ZM-13.3-183.229a8.171,8.171,0,0,0-4.168-3.259l1.435-10.053a9.59,9.59,0,0,0,4.1-.93v12.739Zm-9.6-22.909a6.863,6.863,0,0,1,6.855-6.855,6.832,6.832,0,0,1,1.371.152v1.219a2.745,2.745,0,0,0,2.742,2.742v8.19a6.817,6.817,0,0,1-4.113,1.406A6.863,6.863,0,0,1-22.9-206.138Zm-10.968,13.71A1.372,1.372,0,0,1-32.5-193.8a1.372,1.372,0,0,1,1.371,1.371,1.372,1.372,0,0,1-1.371,1.371A1.372,1.372,0,0,1-33.871-192.429Zm8.226,13.71a5.489,5.489,0,0,1,5.484-5.484,5.461,5.461,0,0,1,4.93,3.1l-6.834,7.518A5.51,5.51,0,0,1-25.645-178.719ZM31.421-137.59H-25.131a11.5,11.5,0,0,1-11.482-11.482,11.451,11.451,0,0,1,2.987-7.724l24.432-26.876V-208.88H15.484v5.484H7.258v2.742h8.226v2.742H1.774v2.742h13.71v2.742H7.258v2.742h8.226v6.014L39.916-156.8a11.451,11.451,0,0,1,2.987,7.724A11.5,11.5,0,0,1,31.421-137.59Z" transform="translate(0 0)" fill="#fff"/>
      <path id="Trazado_207901" data-name="Trazado 207901" d="M126.984,33.313a4.067,4.067,0,0,0-1.217.2l-3.586-4.783a4.1,4.1,0,1,0-7.283-3.647H111.65a4.021,4.021,0,0,0-5.078-2.538l-3.586-4.783A4.1,4.1,0,1,0,95.7,14.12H92.456a4.1,4.1,0,1,0-7.281,3.648l-3.587,4.783a4.025,4.025,0,0,0-1.217-.206,4.113,4.113,0,0,0,0,8.226,4.071,4.071,0,0,0,1.217-.2l3.587,4.783A4.1,4.1,0,1,0,92.457,38.8h3.248a4.02,4.02,0,0,0,5.078,2.538l3.586,4.783a4.1,4.1,0,1,0,7.281,3.647H114.9a4.1,4.1,0,1,0,7.281-3.648l3.588-4.782a4.049,4.049,0,0,0,1.216.2,4.113,4.113,0,1,0,0-8.226Zm-8.226,10.968a4.107,4.107,0,0,0-3.861,2.742H111.65a4.021,4.021,0,0,0-5.078-2.538L102.985,39.7a4.089,4.089,0,0,0,0-4.553l3.586-4.783a4.042,4.042,0,0,0,1.219.206,4.107,4.107,0,0,0,3.861-2.742H114.9a4.021,4.021,0,0,0,5.078,2.538l3.587,4.783a4.088,4.088,0,0,0,0,4.553l-3.588,4.783A4.033,4.033,0,0,0,118.758,44.281ZM95.7,36.055H92.456a4.02,4.02,0,0,0-5.078-2.538l-3.586-4.783a4.089,4.089,0,0,0,0-4.553L87.378,19.4A4.042,4.042,0,0,0,88.6,19.6a4.107,4.107,0,0,0,3.861-2.742h3.248a4.02,4.02,0,0,0,5.078,2.538l3.586,4.783a4.088,4.088,0,0,0,0,4.553l-3.586,4.783a4.043,4.043,0,0,0-1.219-.206A4.108,4.108,0,0,0,95.7,36.055Zm23.054-10.968a1.371,1.371,0,1,1-1.371,1.371A1.372,1.372,0,0,1,118.758,25.088Zm-9.6,1.371a1.371,1.371,0,1,1-1.371-1.371A1.372,1.372,0,0,1,109.161,26.459Zm-9.6-12.339a1.371,1.371,0,1,1-1.371,1.371A1.372,1.372,0,0,1,99.564,14.12Zm-10.968,0a1.371,1.371,0,1,1-1.371,1.371A1.372,1.372,0,0,1,88.6,14.12ZM79,26.459a1.371,1.371,0,1,1,1.371,1.371A1.372,1.372,0,0,1,79,26.459ZM88.6,38.8a1.371,1.371,0,1,1,1.371-1.371A1.372,1.372,0,0,1,88.6,38.8Zm9.6-1.371A1.371,1.371,0,1,1,99.564,38.8,1.372,1.372,0,0,1,98.193,37.426Zm9.6,12.339a1.371,1.371,0,1,1,1.371-1.371A1.372,1.372,0,0,1,107.79,49.765Zm10.968,0a1.371,1.371,0,1,1,1.371-1.371A1.372,1.372,0,0,1,118.758,49.765ZM126.984,38.8a1.371,1.371,0,1,1,1.371-1.371A1.372,1.372,0,0,1,126.984,38.8Z" transform="translate(-96.419 -192.839)" fill="#fff"/>
    </g>
  </g>
</svg>
