<svg xmlns="http://www.w3.org/2000/svg" width="128" height="128" viewBox="0 0 128 128">
  <g id="Grupo_172437" data-name="Grupo 172437" transform="translate(-583.999 -10898.701)">
    <path id="Unión_5" data-name="Unión 5" d="M10871,11722.412a64,64,0,1,1-64,64A64,64,0,0,1,10871,11722.412Z" transform="translate(11518.999 22749.113) rotate(180)" fill="#7e63e0"/>
    <g id="g1471" transform="translate(503.82 10906.412)">
      <g id="g1477" transform="translate(130.471 15.155)">
        <path id="Trazado_207878" data-name="Trazado 207878" d="M258.878,131.169a14.352,14.352,0,0,1-10.408-4.253,13.892,13.892,0,0,1-3.952-9.745V107a2.654,2.654,0,0,1,2.85-2.646,28.8,28.8,0,0,0,17.411-4.687,2.647,2.647,0,0,1,3.393.414h0c.865.929,1.555,1.665,2.107,2.253,1.161,1.238,1.691,1.8,2.007,2.208a2.346,2.346,0,0,1,.59,1.626v11A14.014,14.014,0,0,1,258.878,131.169ZM247.506,107.36v9.811a11.193,11.193,0,0,0,22.382,0V106.328c-.252-.309-.891-.99-1.788-1.947-.512-.546-1.144-1.22-1.924-2.057A31.9,31.9,0,0,1,247.506,107.36Zm-.358-.023h0Z" transform="translate(-244.518 -99.236)" fill="#fff"/>
      </g>
      <g id="g1481" transform="translate(164.348 82.796)">
        <path id="Trazado_207879" data-name="Trazado 207879" d="M482.3,571.574h-9.524a1.494,1.494,0,0,1-1.247-2.317v-13.2a3.817,3.817,0,0,1,3.813-3.813H483.8a1.494,1.494,0,0,1,2.316,1.247v14.266A3.817,3.817,0,0,1,482.3,571.574Zm-7.784-2.988H482.3a.826.826,0,0,0,.825-.825V555.236h-7.784a.826.826,0,0,0-.825.825Z" transform="translate(-471.282 -552.002)" fill="#fff"/>
      </g>
      <g id="g1485" transform="translate(110.441 83.042)">
        <path id="Trazado_207880" data-name="Trazado 207880" d="M123.779,572.978h-9.525a3.817,3.817,0,0,1-3.813-3.813V555.146a1.494,1.494,0,0,1,1.494-1.494h9.278a3.817,3.817,0,0,1,3.813,3.813v13.2a1.494,1.494,0,0,1-1.247,2.317Zm-10.35-16.338v12.525a.826.826,0,0,0,.825.825h7.784V557.465a.826.826,0,0,0-.825-.825Z" transform="translate(-110.441 -553.652)" fill="#fff"/>
      </g>
      <g id="g1489" transform="translate(136.195 41.894)">
        <path id="Trazado_207881" data-name="Trazado 207881" d="M291.435,290.563a10.6,10.6,0,0,1-8.273-3.945,1.494,1.494,0,0,1-.333-.94V279.9a1.494,1.494,0,0,1,2.3-1.259,11.571,11.571,0,0,0,6.338,1.783,10.93,10.93,0,0,0,6.233-1.942,1.494,1.494,0,0,1,2.342,1.23v5.966a1.5,1.5,0,0,1-.333.94A10.6,10.6,0,0,1,291.435,290.563Zm-5.618-5.441a7.659,7.659,0,0,0,11.236,0v-2.875a13.909,13.909,0,0,1-5.587,1.164,15.114,15.114,0,0,1-5.649-1.071Z" transform="translate(-282.829 -278.217)" fill="#fff"/>
      </g>
      <g id="g1493" transform="translate(131.26 47.86)">
        <path id="Trazado_207882" data-name="Trazado 207882" d="M263.337,330.205a17.319,17.319,0,0,1-9.854-3.056,9.207,9.207,0,0,1-3.636-5.2,1.494,1.494,0,0,1,.9-1.779l4.935-1.913a1.494,1.494,0,0,1,1.7.452,7.659,7.659,0,0,0,11.9,0,1.494,1.494,0,0,1,1.7-.453l4.935,1.911a1.494,1.494,0,0,1,.9,1.778,9.2,9.2,0,0,1-3.636,5.205A17.32,17.32,0,0,1,263.337,330.205Zm-10.128-7.787a6.133,6.133,0,0,0,1.973,2.272,14.411,14.411,0,0,0,16.31,0,6.129,6.129,0,0,0,1.973-2.273l-2.6-1.006a10.65,10.65,0,0,1-15.063,0Z" transform="translate(-249.796 -318.153)" fill="#fff"/>
      </g>
      <g id="g1497" transform="translate(126.136 0.388)">
        <path id="Trazado_207883" data-name="Trazado 207883" d="M216.991,26.863a1.494,1.494,0,0,1-1.494-1.494V18.9a18.514,18.514,0,1,1,37.028,0v6.331a1.494,1.494,0,0,1-2.51,1.1,4.34,4.34,0,0,0-3.222-1.122,1.494,1.494,0,0,1-1.59-1.491V22.247c-.252-.309-.891-.991-1.789-1.948-.512-.546-1.144-1.22-1.923-2.056a31.9,31.9,0,0,1-18.671,5.036v.451a1.494,1.494,0,0,1-1.543,1.493A4.828,4.828,0,0,0,218,26.473,1.494,1.494,0,0,1,216.991,26.863Zm5.472-3.607h0Zm11.548-19.88A15.544,15.544,0,0,0,218.485,18.9v3.835a7.819,7.819,0,0,1,1.411-.391,2.653,2.653,0,0,1,2.786-2.07,28.8,28.8,0,0,0,17.411-4.687,2.648,2.648,0,0,1,3.393.413c.865.929,1.555,1.665,2.106,2.253,1.162,1.238,1.691,1.8,2.008,2.209a2.346,2.346,0,0,1,.59,1.627v.2a7.407,7.407,0,0,1,1.347.336V18.9A15.544,15.544,0,0,0,234.011,3.376Z" transform="translate(-215.497 -0.388)" fill="#fff"/>
      </g>
      <g id="g1501" transform="translate(155.832 22.209)">
        <path id="Trazado_207884" data-name="Trazado 207884" d="M416.163,159.194q-.245,0-.491-.016a1.494,1.494,0,0,1-1.394-1.533l0-.108c0-.068,0-.135,0-.2v-9.375a1.494,1.494,0,0,1,1.4-1.491,7.33,7.33,0,0,1,5.477,1.94,5.892,5.892,0,0,1-.006,8.834A7.318,7.318,0,0,1,416.163,159.194Zm1.111-9.607v6.478a4.249,4.249,0,0,0,1.838-1,2.911,2.911,0,0,0,0-4.473A4.288,4.288,0,0,0,417.274,149.587Z" transform="translate(-414.277 -146.453)" fill="#fff"/>
      </g>
      <g id="g1505" transform="translate(124.595 22.234)">
        <path id="Trazado_207885" data-name="Trazado 207885" d="M212.172,159.336a7.316,7.316,0,0,1-4.989-1.95,6.041,6.041,0,0,1-2-4.421,5.821,5.821,0,0,1,1.873-4.17,7.891,7.891,0,0,1,5.546-2.172,1.494,1.494,0,0,1,1.445,1.493v9.36c0,.072,0,.143,0,.215l0,.095a1.494,1.494,0,0,1-1.394,1.534C212.5,159.33,212.336,159.336,212.172,159.336Zm-1.11-9.517a4.913,4.913,0,0,0-1.925,1.123,2.877,2.877,0,0,0-.963,2.023,3.088,3.088,0,0,0,1.05,2.239,4.244,4.244,0,0,0,1.838,1Z" transform="translate(-205.186 -146.62)" fill="#fff"/>
      </g>
      <g id="g1509" transform="translate(147.335 67.377)">
        <path id="Trazado_207886" data-name="Trazado 207886" d="M366.092,464.27a1.892,1.892,0,0,1-.8-.179c-3.815-1.8-7.89-5.423-7.894-10.193a5.092,5.092,0,0,1,8.689-3.605,5,5,0,0,1,3.589-1.5h0a5.1,5.1,0,0,1,5.09,5.084c0,2.872-1.379,5.49-4.107,7.782a18.343,18.343,0,0,1-3.764,2.426A1.884,1.884,0,0,1,366.092,464.27Zm-.474-2.881,0,0Zm-3.136-9.6a2.1,2.1,0,0,0-2.1,2.1c0,3.2,2.864,5.794,5.7,7.257a15.329,15.329,0,0,0,2.652-1.777c2.02-1.7,3.043-3.545,3.041-5.492a2.1,2.1,0,0,0-2.1-2.1,2.075,2.075,0,0,0-1.834,1.077,1.785,1.785,0,0,1-.173.241,2.1,2.1,0,0,1-1.535.755,2.141,2.141,0,0,1-1.6-.7,1.5,1.5,0,0,1-.221-.3,2.088,2.088,0,0,0-1.548-1.046A2.132,2.132,0,0,0,362.482,451.792Z" transform="translate(-357.399 -448.796)" fill="#fff"/>
      </g>
      <g id="g1513" transform="translate(146.802 74.349)">
        <path id="Trazado_207887" data-name="Trazado 207887" d="M373.12,523.482H355.327a1.494,1.494,0,1,1,0-2.988h16.3V507.969a3.817,3.817,0,0,1,3.813-3.813h7.784v-7.2a1.494,1.494,0,0,1,2.988,0v8.693a1.494,1.494,0,0,1-1.494,1.494h-9.278a.826.826,0,0,0-.825.825v14.019A1.494,1.494,0,0,1,373.12,523.482Z" transform="translate(-353.833 -495.463)" fill="#fff"/>
      </g>
      <g id="g1517" transform="translate(110.441 47.86)">
        <path id="Trazado_207888" data-name="Trazado 207888" d="M141.325,372.661H123.532a1.494,1.494,0,0,1-1.494-1.494V357.148a.826.826,0,0,0-.825-.825h-9.278a1.494,1.494,0,0,1-1.494-1.494v-17.1a12.934,12.934,0,0,1,3.927-9.438,13.7,13.7,0,0,1,3.958-2.737l.028-.011,18.795-7.286a1.494,1.494,0,0,1,1.7.453,7.659,7.659,0,0,0,11.9,0,1.494,1.494,0,0,1,1.7-.453l18.815,7.286.028.011a13.69,13.69,0,0,1,3.958,2.737,12.933,12.933,0,0,1,3.927,9.438v1.437a1.494,1.494,0,0,1-2.988,0v-1.437a10.351,10.351,0,0,0-6.026-9.409l-17.834-6.907a10.65,10.65,0,0,1-15.063,0l-17.816,6.907a10.351,10.351,0,0,0-6.024,9.408v15.608h7.784a3.817,3.817,0,0,1,3.813,3.813v12.525h16.3a1.494,1.494,0,0,1,0,2.988Z" transform="translate(-110.441 -318.154)" fill="#fff"/>
      </g>
    </g>
  </g>
</svg>
